G04 Layer_Color=16777215*
%FSAX25Y25*%
%MOIN*%
G70*
G01*
G75*
%ADD34C,0.00984*%
%ADD39C,0.01575*%
%ADD76C,0.02362*%
%ADD77C,0.01000*%
%ADD78C,0.00787*%
D34*
X0248819Y0283366D02*
X0248081Y0283792D01*
Y0282940D01*
X0248819Y0283366D01*
X0085541Y0288189D02*
X0084803Y0288615D01*
Y0287763D01*
X0085541Y0288189D01*
X0088878Y0314874D02*
X0088140Y0315300D01*
Y0314448D01*
X0088878Y0314874D01*
X0070177Y0229311D02*
X0069439Y0229737D01*
Y0228885D01*
X0070177Y0229311D01*
X0119390Y0109252D02*
X0118652Y0109678D01*
Y0108826D01*
X0119390Y0109252D01*
X0094980Y0109449D02*
X0094242Y0109875D01*
Y0109023D01*
X0094980Y0109449D01*
X0266240Y0234035D02*
X0265502Y0234462D01*
Y0233609D01*
X0266240Y0234035D01*
X0330413Y0138799D02*
X0329675Y0139225D01*
Y0138373D01*
X0330413Y0138799D01*
X0232776Y0145492D02*
X0232037Y0145918D01*
Y0145066D01*
X0232776Y0145492D01*
X0217028Y0202972D02*
X0216289Y0203399D01*
Y0202546D01*
X0217028Y0202972D01*
X0070177Y0013780D02*
X0069439Y0014206D01*
Y0013353D01*
X0070177Y0013780D01*
X0006398Y0147638D02*
X0005660Y0148064D01*
Y0147212D01*
X0006398Y0147638D01*
X0242224Y0205512D02*
X0241486Y0205938D01*
Y0205086D01*
X0242224Y0205512D01*
X0267028Y0013386D02*
X0266289Y0013812D01*
Y0012960D01*
X0267028Y0013386D01*
D39*
X0079528Y0233465D02*
X0078983Y0234213D01*
X0078103Y0233927D01*
Y0233002D01*
X0078983Y0232716D01*
X0079528Y0233465D01*
X0275590Y0238189D02*
X0275046Y0238938D01*
X0274166Y0238652D01*
Y0237726D01*
X0275046Y0237440D01*
X0275590Y0238189D01*
X0321654Y0134646D02*
X0321110Y0135395D01*
X0320229Y0135108D01*
Y0134183D01*
X0321110Y0133897D01*
X0321654Y0134646D01*
X0224016Y0141339D02*
X0223472Y0142087D01*
X0222591Y0141801D01*
Y0140876D01*
X0223472Y0140590D01*
X0224016Y0141339D01*
X0208268Y0198819D02*
X0207724Y0199568D01*
X0206843Y0199282D01*
Y0198356D01*
X0207724Y0198070D01*
X0208268Y0198819D01*
D76*
X0258268Y0285433D02*
X0257823Y0286356D01*
X0256824Y0286584D01*
X0256023Y0285946D01*
Y0284921D01*
X0256824Y0284282D01*
X0257823Y0284510D01*
X0258268Y0285433D01*
X0097835Y0320386D02*
X0097390Y0321309D01*
X0096391Y0321537D01*
X0095589Y0320898D01*
Y0319873D01*
X0096391Y0319234D01*
X0097390Y0319462D01*
X0097835Y0320386D01*
D77*
X0066929Y0335433D02*
Y0336614D01*
X0064173Y0332677D02*
X0066929Y0335433D01*
X0060630Y0332677D02*
X0064173D01*
X0061811Y0287008D02*
X0064173D01*
X0069095Y0291929D01*
D78*
X0184542Y0327165D02*
X0184102Y0327928D01*
X0183221D01*
X0182781Y0327165D01*
X0183221Y0326403D01*
X0184102D01*
X0184542Y0327165D01*
X0257086Y0310039D02*
Y0315157D01*
X0258366D01*
X0257086Y0310039D02*
X0258366D01*
X0266043Y0315157D02*
X0267323D01*
X0266043Y0310039D02*
X0267323D01*
Y0315157D01*
X0047441Y0303150D02*
X0052559D01*
X0047441D02*
Y0304429D01*
X0052559Y0303150D02*
Y0304429D01*
X0047441Y0312106D02*
Y0313386D01*
X0052559Y0312106D02*
Y0313386D01*
X0047441D02*
X0052559D01*
X0054921Y0313319D02*
X0060039D01*
Y0312039D02*
Y0313319D01*
X0054921Y0312039D02*
Y0313319D01*
X0060039Y0303083D02*
Y0304362D01*
X0054921Y0303083D02*
Y0304362D01*
Y0303083D02*
X0060039D01*
X0289984Y0336846D02*
X0295102D01*
Y0335567D02*
Y0336846D01*
X0289984Y0335567D02*
Y0336846D01*
X0295102Y0326610D02*
Y0327890D01*
X0289984Y0326610D02*
Y0327890D01*
Y0326610D02*
X0295102D01*
X0286441Y0286165D02*
X0291559D01*
Y0284886D02*
Y0286165D01*
X0286441Y0284886D02*
Y0286165D01*
X0291559Y0275929D02*
Y0277209D01*
X0286441Y0275929D02*
Y0277209D01*
Y0275929D02*
X0291559D01*
X0253150Y0306693D02*
X0271260D01*
X0253150Y0281496D02*
X0271260D01*
Y0306693D01*
X0253150Y0281496D02*
Y0306693D01*
X0054921Y0325984D02*
X0060039D01*
Y0324705D02*
Y0325984D01*
X0054921Y0324705D02*
Y0325984D01*
X0060039Y0315748D02*
Y0317027D01*
X0054921Y0315748D02*
Y0317027D01*
Y0315748D02*
X0060039D01*
X0047441Y0290551D02*
X0052559D01*
X0047441D02*
Y0291831D01*
X0052559Y0290551D02*
Y0291831D01*
X0047441Y0299508D02*
Y0300787D01*
X0052559Y0299508D02*
Y0300787D01*
X0047441D02*
X0052559D01*
X0282984Y0314110D02*
X0288102D01*
X0282984D02*
Y0315390D01*
X0288102Y0314110D02*
Y0315390D01*
X0282984Y0323067D02*
Y0324346D01*
X0288102Y0323067D02*
Y0324346D01*
X0282984D02*
X0288102D01*
X0279331Y0270079D02*
X0284449D01*
X0279331D02*
Y0271358D01*
X0284449Y0270079D02*
Y0271358D01*
X0279331Y0279035D02*
Y0280315D01*
X0284449Y0279035D02*
Y0280315D01*
X0279331D02*
X0284449D01*
X0047441Y0325984D02*
X0052559D01*
Y0324705D02*
Y0325984D01*
X0047441Y0324705D02*
Y0325984D01*
X0052559Y0315748D02*
Y0317027D01*
X0047441Y0315748D02*
Y0317027D01*
Y0315748D02*
X0052559D01*
X0054921Y0290583D02*
X0060039D01*
X0054921D02*
Y0291862D01*
X0060039Y0290583D02*
Y0291862D01*
X0054921Y0299539D02*
Y0300819D01*
X0060039Y0299539D02*
Y0300819D01*
X0054921D02*
X0060039D01*
X0289984Y0314110D02*
X0295102D01*
X0289984D02*
Y0315390D01*
X0295102Y0314110D02*
Y0315390D01*
X0289984Y0323067D02*
Y0324346D01*
X0295102Y0323067D02*
Y0324346D01*
X0289984D02*
X0295102D01*
X0286441Y0263429D02*
X0291559D01*
X0286441D02*
Y0264709D01*
X0291559Y0263429D02*
Y0264709D01*
X0286441Y0272386D02*
Y0273665D01*
X0291559Y0272386D02*
Y0273665D01*
X0286441D02*
X0291559D01*
X0077165Y0289764D02*
X0081890D01*
X0077165Y0296850D02*
X0081890D01*
X0081496Y0290945D02*
Y0295669D01*
X0094882Y0308382D02*
Y0313500D01*
X0096161D01*
X0094882Y0308382D02*
X0096161D01*
X0103839Y0313500D02*
X0105118D01*
X0103839Y0308382D02*
X0105118D01*
Y0313500D01*
X0071860Y0269094D02*
Y0272382D01*
Y0269094D02*
X0082490D01*
X0071860Y0284311D02*
Y0287598D01*
X0082490D01*
X0092717Y0342433D02*
X0107283D01*
X0092717Y0316449D02*
X0107283D01*
Y0342433D01*
X0092717Y0316449D02*
Y0342433D01*
X0109055Y0143307D02*
X0117717D01*
X0109055Y0124409D02*
Y0143307D01*
X0117717Y0124409D02*
Y0143307D01*
X0109055Y0124409D02*
X0117717D01*
X0129528Y0142126D02*
X0133071D01*
Y0145669D01*
X0120472Y0142126D02*
X0124016D01*
X0120472D02*
Y0145669D01*
X0125591Y0147638D02*
X0127953D01*
X0131890Y0151772D02*
Y0156890D01*
X0130610Y0151772D02*
X0131890D01*
X0130610Y0156890D02*
X0131890D01*
X0121653Y0151772D02*
X0122933D01*
X0121653Y0156890D02*
X0122933D01*
X0121653Y0151772D02*
Y0156890D01*
X0234646Y0148228D02*
Y0153347D01*
X0233366Y0148228D02*
X0234646D01*
X0233366Y0153347D02*
X0234646D01*
X0224410Y0148228D02*
X0225689D01*
X0224410Y0153347D02*
X0225689D01*
X0224410Y0148228D02*
Y0153347D01*
X0139764Y0289567D02*
Y0294685D01*
X0138484Y0289567D02*
X0139764D01*
X0138484Y0294685D02*
X0139764D01*
X0129528Y0289567D02*
X0130807D01*
X0129528Y0294685D02*
X0130807D01*
X0129528Y0289567D02*
Y0294685D01*
X0081102Y0253937D02*
Y0261417D01*
X0077559Y0257480D02*
X0081102Y0253937D01*
X0077559Y0257480D02*
Y0257874D01*
X0081102Y0261417D01*
X0077559Y0257874D02*
Y0261417D01*
Y0253937D02*
Y0261417D01*
X0075197Y0262598D02*
X0083071D01*
X0075197Y0252362D02*
X0083071D01*
X0075590Y0250000D02*
X0082677D01*
X0075590Y0230315D02*
X0082677D01*
Y0250000D01*
X0075590Y0230315D02*
Y0250000D01*
X0133858Y0213583D02*
Y0218701D01*
X0132579Y0213583D02*
X0133858D01*
X0132579Y0218701D02*
X0133858D01*
X0123622Y0213583D02*
X0124902D01*
X0123622Y0218701D02*
X0124902D01*
X0123622Y0213583D02*
Y0218701D01*
X0123622Y0220276D02*
Y0225394D01*
X0124902Y0225394D01*
X0123622Y0220276D02*
X0124902Y0220276D01*
X0132579Y0225394D02*
X0133858D01*
X0132579Y0220276D02*
X0133858D01*
Y0225394D01*
X0188583Y0329921D02*
Y0340158D01*
X0127559Y0329921D02*
X0188583D01*
X0127559D02*
Y0340158D01*
X0188583D01*
X0198228Y0226772D02*
X0203346D01*
X0198228D02*
Y0228051D01*
X0203346Y0226772D02*
Y0228051D01*
X0198228Y0235728D02*
Y0237008D01*
X0203346Y0235728D02*
Y0237008D01*
X0198228D02*
X0203346D01*
X0176969Y0221654D02*
X0182087D01*
X0176969D02*
Y0222933D01*
X0182087Y0221654D02*
Y0222933D01*
X0176969Y0230610D02*
Y0231890D01*
X0182087Y0230610D02*
Y0231890D01*
X0176969D02*
X0182087D01*
X0121260Y0110039D02*
X0124409D01*
X0121260Y0121850D02*
X0124409D01*
X0121260Y0110039D02*
Y0121850D01*
X0124409Y0110039D02*
Y0121850D01*
X0096850Y0110236D02*
X0100000D01*
X0096850Y0122047D02*
X0100000D01*
X0096850Y0110236D02*
Y0122047D01*
X0100000Y0110236D02*
Y0122047D01*
X0271654Y0254725D02*
X0278740D01*
X0271654Y0235039D02*
X0278740D01*
Y0254725D01*
X0271654Y0235039D02*
Y0254725D01*
X0284843Y0118504D02*
X0289961D01*
X0284843D02*
Y0119783D01*
X0289961Y0118504D02*
Y0119783D01*
X0284843Y0127461D02*
Y0128740D01*
X0289961Y0127461D02*
Y0128740D01*
X0284843D02*
X0289961D01*
X0072441Y0337992D02*
Y0343110D01*
X0071161Y0337992D02*
X0072441D01*
X0071161Y0343110D02*
X0072441D01*
X0062205Y0337992D02*
X0063484D01*
X0062205Y0343110D02*
X0063484D01*
X0062205Y0337992D02*
Y0343110D01*
X0059843Y0337992D02*
Y0343110D01*
X0058563Y0337992D02*
X0059843D01*
X0058563Y0343110D02*
X0059843D01*
X0049606Y0337992D02*
X0050886D01*
X0049606Y0343110D02*
X0050886D01*
X0049606Y0337992D02*
Y0343110D01*
X0304725Y0130512D02*
Y0135630D01*
X0303445Y0130512D02*
X0304725D01*
X0303445Y0135630D02*
X0304725D01*
X0294488Y0130512D02*
X0295768D01*
X0294488Y0135630D02*
X0295768D01*
X0294488Y0130512D02*
Y0135630D01*
X0265358Y0031571D02*
Y0036689D01*
X0266638D01*
X0265358Y0031571D02*
X0266638D01*
X0274315Y0036689D02*
X0275595D01*
X0274315Y0031571D02*
X0275595D01*
Y0036689D01*
X0066535Y0031693D02*
Y0036811D01*
X0067815D01*
X0066535Y0031693D02*
X0067815D01*
X0075492Y0036811D02*
X0076772D01*
X0075492Y0031693D02*
X0076772D01*
Y0036811D01*
X0275595Y0041571D02*
Y0046689D01*
X0274315Y0041571D02*
X0275595D01*
X0274315Y0046689D02*
X0275595D01*
X0265358Y0041571D02*
X0266638D01*
X0265358Y0046689D02*
X0266638D01*
X0265358Y0041571D02*
Y0046689D01*
X0076772Y0041142D02*
Y0046260D01*
X0075492Y0041142D02*
X0076772D01*
X0075492Y0046260D02*
X0076772D01*
X0066535Y0041142D02*
X0067815D01*
X0066535Y0046260D02*
X0067815D01*
X0066535Y0041142D02*
Y0046260D01*
X0191339Y0343110D02*
Y0348228D01*
X0192618D01*
X0191339Y0343110D02*
X0192618D01*
X0200295Y0348228D02*
X0201575D01*
X0200295Y0343110D02*
X0201575D01*
Y0348228D01*
X0120276Y0329134D02*
X0125394D01*
Y0327854D02*
Y0329134D01*
X0120276Y0327854D02*
Y0329134D01*
X0125394Y0318898D02*
Y0320177D01*
X0120276Y0318898D02*
Y0320177D01*
Y0318898D02*
X0125394D01*
X0127756Y0329134D02*
X0132874D01*
Y0327854D02*
Y0329134D01*
X0127756Y0327854D02*
Y0329134D01*
X0132874Y0318898D02*
Y0320177D01*
X0127756Y0318898D02*
Y0320177D01*
Y0318898D02*
X0132874D01*
X0204331Y0132087D02*
Y0137205D01*
X0203051Y0132087D02*
X0204331D01*
X0203051Y0137205D02*
X0204331D01*
X0194094Y0132087D02*
X0195374D01*
X0194094Y0137205D02*
X0195374D01*
X0194094Y0132087D02*
Y0137205D01*
Y0125394D02*
Y0130512D01*
X0195374D01*
X0194094Y0125394D02*
X0195374D01*
X0203051Y0130512D02*
X0204331D01*
X0203051Y0125394D02*
X0204331D01*
Y0130512D01*
X0072441Y0320323D02*
X0077559D01*
X0072441D02*
Y0321602D01*
X0077559Y0320323D02*
Y0321602D01*
X0072441Y0329279D02*
Y0330559D01*
X0077559Y0329279D02*
Y0330559D01*
X0072441D02*
X0077559D01*
X0065441Y0320323D02*
X0070559D01*
X0065441D02*
Y0321602D01*
X0070559Y0320323D02*
Y0321602D01*
X0065441Y0329279D02*
Y0330559D01*
X0070559Y0329279D02*
Y0330559D01*
X0065441D02*
X0070559D01*
X0254331Y0125394D02*
Y0130512D01*
X0253051Y0125394D02*
X0254331D01*
X0253051Y0130512D02*
X0254331D01*
X0244094Y0125394D02*
X0245374D01*
X0244094Y0130512D02*
X0245374D01*
X0244094Y0125394D02*
Y0130512D01*
X0254331Y0137599D02*
Y0142717D01*
X0253051Y0137599D02*
X0254331D01*
X0253051Y0142717D02*
X0254331D01*
X0244094Y0137599D02*
X0245374D01*
X0244094Y0142717D02*
X0245374D01*
X0244094Y0137599D02*
Y0142717D01*
X0266142Y0125394D02*
Y0130512D01*
X0264862Y0125394D02*
X0266142D01*
X0264862Y0130512D02*
X0266142D01*
X0255905Y0125394D02*
X0257185D01*
X0255905Y0130512D02*
X0257185D01*
X0255905Y0125394D02*
Y0130512D01*
X0266142Y0137599D02*
Y0142717D01*
X0264862Y0137599D02*
X0266142D01*
X0264862Y0142717D02*
X0266142D01*
X0255905Y0137599D02*
X0257185D01*
X0255905Y0142717D02*
X0257185D01*
X0255905Y0137599D02*
Y0142717D01*
X0119291Y0124213D02*
Y0129331D01*
X0120571D01*
X0119291Y0124213D02*
X0120571D01*
X0128248Y0129331D02*
X0129528D01*
X0128248Y0124213D02*
X0129528D01*
Y0129331D01*
X0113583Y0156693D02*
X0118701D01*
Y0155413D02*
Y0156693D01*
X0113583Y0155413D02*
Y0156693D01*
X0118701Y0146457D02*
Y0147736D01*
X0113583Y0146457D02*
Y0147736D01*
Y0146457D02*
X0118701D01*
X0090551Y0123819D02*
Y0128937D01*
X0091831D01*
X0090551Y0123819D02*
X0091831D01*
X0099508Y0128937D02*
X0100787D01*
X0099508Y0123819D02*
X0100787D01*
Y0128937D01*
X0112205Y0151772D02*
Y0156890D01*
X0110925Y0151772D02*
X0112205D01*
X0110925Y0156890D02*
X0112205D01*
X0101968Y0151772D02*
X0103248D01*
X0101968Y0156890D02*
X0103248D01*
X0101968Y0151772D02*
Y0156890D01*
X0204921Y0178740D02*
X0210039D01*
Y0177461D02*
Y0178740D01*
X0204921Y0177461D02*
Y0178740D01*
X0210039Y0168504D02*
Y0169783D01*
X0204921Y0168504D02*
Y0169783D01*
Y0168504D02*
X0210039D01*
X0049213Y0152953D02*
X0054331D01*
X0049213D02*
Y0154232D01*
X0054331Y0152953D02*
Y0154232D01*
X0049213Y0161909D02*
Y0163189D01*
X0054331Y0161909D02*
Y0163189D01*
X0049213D02*
X0054331D01*
X0231693Y0165748D02*
X0236811D01*
X0231693D02*
Y0167027D01*
X0236811Y0165748D02*
Y0167027D01*
X0231693Y0174705D02*
Y0175984D01*
X0236811Y0174705D02*
Y0175984D01*
X0231693D02*
X0236811D01*
X0055906Y0152854D02*
X0061024D01*
X0055906D02*
Y0154134D01*
X0061024Y0152854D02*
Y0154134D01*
X0055906Y0161811D02*
Y0163091D01*
X0061024Y0161811D02*
Y0163091D01*
X0055906D02*
X0061024D01*
X0042520Y0151378D02*
X0047638D01*
Y0150098D02*
Y0151378D01*
X0042520Y0150098D02*
Y0151378D01*
X0047638Y0141142D02*
Y0142421D01*
X0042520Y0141142D02*
Y0142421D01*
Y0141142D02*
X0047638D01*
X0042520Y0163189D02*
X0047638D01*
Y0161909D02*
Y0163189D01*
X0042520Y0161909D02*
Y0163189D01*
X0047638Y0152953D02*
Y0154232D01*
X0042520Y0152953D02*
Y0154232D01*
Y0152953D02*
X0047638D01*
X0316929Y0118110D02*
X0324016D01*
X0316929Y0137795D02*
X0324016D01*
X0316929Y0118110D02*
Y0137795D01*
X0324016Y0118110D02*
Y0137795D01*
X0219291Y0124803D02*
X0226378D01*
X0219291Y0144488D02*
X0226378D01*
X0219291Y0124803D02*
Y0144488D01*
X0226378Y0124803D02*
Y0144488D01*
X0248819Y0151181D02*
X0250787Y0149213D01*
Y0153150D01*
X0248425Y0152657D02*
X0248917Y0153150D01*
X0247835Y0149311D02*
X0248425Y0149902D01*
X0248819Y0151181D02*
X0250787Y0153150D01*
X0248425Y0149902D02*
Y0152657D01*
X0246063Y0147638D02*
X0252756D01*
X0246063Y0154724D02*
X0252756D01*
X0192913Y0029134D02*
X0200394D01*
X0192913D02*
X0196457Y0032677D01*
X0196851D01*
X0200394Y0029134D01*
X0196851Y0032677D02*
X0200394D01*
X0192913D02*
X0200394D01*
X0201575Y0027165D02*
Y0035039D01*
X0191339Y0027165D02*
Y0035039D01*
X0100393Y0028740D02*
X0107874D01*
X0100393D02*
X0103937Y0032283D01*
X0104331D01*
X0107874Y0028740D01*
X0104331Y0032283D02*
X0107874D01*
X0100393D02*
X0107874D01*
X0109055Y0026772D02*
Y0034646D01*
X0098819Y0026772D02*
Y0034646D01*
X0276772Y0221260D02*
Y0228740D01*
X0273228Y0224803D02*
X0276772Y0221260D01*
X0273228Y0224803D02*
Y0225197D01*
X0276772Y0228740D01*
X0273228Y0225197D02*
Y0228740D01*
Y0221260D02*
Y0228740D01*
X0270866Y0229921D02*
X0278740D01*
X0270866Y0219685D02*
X0278740D01*
X0060630Y0209842D02*
Y0217323D01*
X0057087Y0213386D02*
X0060630Y0209842D01*
X0057087Y0213386D02*
Y0213780D01*
X0060630Y0217323D01*
X0057087Y0213780D02*
Y0217323D01*
Y0209842D02*
Y0217323D01*
X0054724Y0218504D02*
X0062598D01*
X0054724Y0208268D02*
X0062598D01*
X0291535Y0118504D02*
X0296654D01*
X0291535D02*
Y0119783D01*
X0296654Y0118504D02*
Y0119783D01*
X0291535Y0127461D02*
Y0128740D01*
X0296654Y0127461D02*
Y0128740D01*
X0291535D02*
X0296654D01*
X0298228Y0118504D02*
X0303346D01*
X0298228D02*
Y0119783D01*
X0303346Y0118504D02*
Y0119783D01*
X0298228Y0127461D02*
Y0128740D01*
X0303346Y0127461D02*
Y0128740D01*
X0298228D02*
X0303346D01*
X0075984Y0299016D02*
Y0304134D01*
X0077264D01*
X0075984Y0299016D02*
X0077264D01*
X0084941Y0304134D02*
X0086221D01*
X0084941Y0299016D02*
X0086221D01*
Y0304134D01*
X0054921Y0275591D02*
X0060039D01*
Y0274311D02*
Y0275591D01*
X0054921Y0274311D02*
Y0275591D01*
X0060039Y0265354D02*
Y0266634D01*
X0054921Y0265354D02*
Y0266634D01*
Y0265354D02*
X0060039D01*
X0268701Y0128740D02*
X0273819D01*
X0268701D02*
Y0130020D01*
X0273819Y0128740D02*
Y0130020D01*
X0268701Y0137697D02*
Y0138977D01*
X0273819Y0137697D02*
Y0138977D01*
X0268701D02*
X0273819D01*
X0049213Y0151378D02*
X0054331D01*
Y0150098D02*
Y0151378D01*
X0049213Y0150098D02*
Y0151378D01*
X0054331Y0141142D02*
Y0142421D01*
X0049213Y0141142D02*
Y0142421D01*
Y0141142D02*
X0054331D01*
X0312795Y0194882D02*
X0317913D01*
Y0193602D02*
Y0194882D01*
X0312795Y0193602D02*
Y0194882D01*
X0317913Y0184646D02*
Y0185925D01*
X0312795Y0184646D02*
Y0185925D01*
Y0184646D02*
X0317913D01*
X0072441Y0220669D02*
Y0225787D01*
X0071161Y0220669D02*
X0072441D01*
X0071161Y0225787D02*
X0072441D01*
X0062205Y0220669D02*
X0063484D01*
X0062205Y0225787D02*
X0063484D01*
X0062205Y0220669D02*
Y0225787D01*
X0219291Y0174213D02*
Y0179331D01*
X0220571D01*
X0219291Y0174213D02*
X0220571D01*
X0228248Y0179331D02*
X0229528D01*
X0228248Y0174213D02*
X0229528D01*
Y0179331D01*
X0210630Y0182283D02*
Y0201969D01*
X0203543Y0182283D02*
Y0201969D01*
X0210630D01*
X0203543Y0182283D02*
X0210630D01*
X0187205Y0126378D02*
X0192323D01*
X0187205D02*
Y0127657D01*
X0192323Y0126378D02*
Y0127657D01*
X0187205Y0135335D02*
Y0136614D01*
X0192323Y0135335D02*
Y0136614D01*
X0187205D02*
X0192323D01*
X0201969Y0204527D02*
Y0209646D01*
X0200689Y0204527D02*
X0201969D01*
X0200689Y0209646D02*
X0201969D01*
X0191732Y0204527D02*
X0193012D01*
X0191732Y0209646D02*
X0193012D01*
X0191732Y0204527D02*
Y0209646D01*
X0075197Y0014567D02*
Y0026378D01*
X0072047Y0014567D02*
Y0026378D01*
X0075197D01*
X0072047Y0014567D02*
X0075197D01*
X0006693Y0142126D02*
Y0145276D01*
X0018504Y0142126D02*
Y0145276D01*
X0006693D02*
X0018504D01*
X0006693Y0142126D02*
X0018504D01*
X0018307Y0157480D02*
X0021850D01*
Y0161024D01*
X0009252Y0157480D02*
X0012795D01*
X0009252D02*
Y0161024D01*
X0014370Y0162992D02*
X0016732D01*
X0236221Y0204724D02*
X0239370D01*
X0236221Y0192913D02*
X0239370D01*
Y0204724D01*
X0236221Y0192913D02*
Y0204724D01*
X0248425Y0182480D02*
Y0187598D01*
X0249705D01*
X0248425Y0182480D02*
X0249705D01*
X0257382Y0187598D02*
X0258661D01*
X0257382Y0182480D02*
X0258661D01*
Y0187598D01*
X0248425Y0199803D02*
Y0204921D01*
X0249705D01*
X0248425Y0199803D02*
X0249705D01*
X0257382Y0204921D02*
X0258661D01*
X0257382Y0199803D02*
X0258661D01*
Y0204921D01*
X0239173Y0176378D02*
X0244291D01*
X0239173D02*
Y0177657D01*
X0244291Y0176378D02*
Y0177657D01*
X0239173Y0185335D02*
Y0186614D01*
X0244291Y0185335D02*
Y0186614D01*
X0239173D02*
X0244291D01*
X0258661Y0191142D02*
Y0196260D01*
X0257382Y0191142D02*
X0258661D01*
X0257382Y0196260D02*
X0258661D01*
X0248425Y0191142D02*
X0249705D01*
X0248425Y0196260D02*
X0249705D01*
X0248425Y0191142D02*
Y0196260D01*
X0096850Y0170866D02*
Y0179528D01*
X0077953D02*
X0096850D01*
X0077953Y0170866D02*
X0096850D01*
X0077953D02*
Y0179528D01*
X0096850Y0160630D02*
Y0169291D01*
X0077953D02*
X0096850D01*
X0077953Y0160630D02*
X0096850D01*
X0077953D02*
Y0169291D01*
X0292520Y0179921D02*
X0301181D01*
Y0198819D01*
X0292520Y0179921D02*
Y0198819D01*
X0301181D01*
X0302362Y0179921D02*
X0311024D01*
Y0198819D01*
X0302362Y0179921D02*
Y0198819D01*
X0311024D01*
X0272047Y0014173D02*
Y0025984D01*
X0268898Y0014173D02*
Y0025984D01*
X0272047D01*
X0268898Y0014173D02*
X0272047D01*
X0112205Y0145079D02*
Y0150197D01*
X0110925Y0145079D02*
X0112205D01*
X0110925Y0150197D02*
X0112205D01*
X0101969Y0145079D02*
X0103248D01*
X0101969Y0150197D02*
X0103248D01*
X0101969Y0145079D02*
Y0150197D01*
X0100787Y0135433D02*
X0104331D01*
Y0138976D01*
X0091732Y0135433D02*
X0095276D01*
X0091732D02*
Y0138976D01*
X0096850Y0140945D02*
X0099213D01*
X0264962Y0321652D02*
X0265749Y0322439D01*
X0267323D01*
X0268110Y0321652D01*
Y0318504D01*
X0267323Y0317717D01*
X0265749D01*
X0264962Y0318504D01*
X0260239Y0317717D02*
X0263387D01*
X0260239Y0320865D01*
Y0321652D01*
X0261026Y0322439D01*
X0262600D01*
X0263387Y0321652D01*
X0258664Y0317717D02*
X0257090D01*
X0257877D01*
Y0322439D01*
X0258664Y0321652D01*
X0004332Y0310237D02*
X0003545Y0311024D01*
Y0312599D01*
X0004332Y0313386D01*
X0007481D01*
X0008268Y0312599D01*
Y0311024D01*
X0007481Y0310237D01*
X0008268Y0305514D02*
Y0308663D01*
X0005119Y0305514D01*
X0004332D01*
X0003545Y0306301D01*
Y0307876D01*
X0004332Y0308663D01*
Y0303940D02*
X0003545Y0303153D01*
Y0301579D01*
X0004332Y0300792D01*
X0005119D01*
X0005906Y0301579D01*
Y0302366D01*
Y0301579D01*
X0006693Y0300792D01*
X0007481D01*
X0008268Y0301579D01*
Y0303153D01*
X0007481Y0303940D01*
X0011812Y0311025D02*
X0011025Y0311812D01*
Y0313386D01*
X0011812Y0314173D01*
X0014961D01*
X0015748Y0313386D01*
Y0311812D01*
X0014961Y0311025D01*
X0015748Y0306302D02*
Y0309450D01*
X0012599Y0306302D01*
X0011812D01*
X0011025Y0307089D01*
Y0308663D01*
X0011812Y0309450D01*
X0015748Y0302366D02*
X0011025D01*
X0013387Y0304728D01*
Y0301579D01*
X0290946Y0348032D02*
X0290159Y0348820D01*
Y0350394D01*
X0290946Y0351181D01*
X0294095D01*
X0294882Y0350394D01*
Y0348820D01*
X0294095Y0348032D01*
X0294882Y0343310D02*
Y0346458D01*
X0291733Y0343310D01*
X0290946D01*
X0290159Y0344097D01*
Y0345671D01*
X0290946Y0346458D01*
X0290159Y0338587D02*
Y0341735D01*
X0292520D01*
X0291733Y0340161D01*
Y0339374D01*
X0292520Y0338587D01*
X0294095D01*
X0294882Y0339374D01*
Y0340948D01*
X0294095Y0341735D01*
X0294490Y0285040D02*
X0293702Y0285827D01*
Y0287402D01*
X0294490Y0288189D01*
X0297638D01*
X0298425Y0287402D01*
Y0285827D01*
X0297638Y0285040D01*
X0298425Y0280317D02*
Y0283466D01*
X0295277Y0280317D01*
X0294490D01*
X0293702Y0281105D01*
Y0282679D01*
X0294490Y0283466D01*
X0293702Y0275595D02*
X0294490Y0277169D01*
X0296064Y0278743D01*
X0297638D01*
X0298425Y0277956D01*
Y0276382D01*
X0297638Y0275595D01*
X0296851D01*
X0296064Y0276382D01*
Y0278743D01*
X0259844Y0300787D02*
Y0299213D01*
Y0300000D01*
X0264567D01*
Y0300787D01*
Y0299213D01*
X0260631Y0293703D02*
X0259844Y0294490D01*
Y0296064D01*
X0260631Y0296852D01*
X0263780D01*
X0264567Y0296064D01*
Y0294490D01*
X0263780Y0293703D01*
X0264567Y0289767D02*
X0259844D01*
X0262206Y0292129D01*
Y0288980D01*
X0015748Y0327953D02*
X0011025D01*
Y0325591D01*
X0011812Y0324804D01*
X0013387D01*
X0014174Y0325591D01*
Y0327953D01*
Y0326378D02*
X0015748Y0324804D01*
X0011025Y0323230D02*
Y0320081D01*
X0011812D01*
X0014961Y0323230D01*
X0015748D01*
X0014961Y0318507D02*
X0015748Y0317720D01*
Y0316146D01*
X0014961Y0315358D01*
X0011812D01*
X0011025Y0316146D01*
Y0317720D01*
X0011812Y0318507D01*
X0012599D01*
X0013387Y0317720D01*
Y0315358D01*
X0008268Y0298425D02*
X0003545D01*
Y0296064D01*
X0004332Y0295277D01*
X0005906D01*
X0006693Y0296064D01*
Y0298425D01*
Y0296851D02*
X0008268Y0295277D01*
X0004332Y0293702D02*
X0003545Y0292915D01*
Y0291341D01*
X0004332Y0290554D01*
X0005119D01*
X0005906Y0291341D01*
X0006693Y0290554D01*
X0007481D01*
X0008268Y0291341D01*
Y0292915D01*
X0007481Y0293702D01*
X0006693D01*
X0005906Y0292915D01*
X0005119Y0293702D01*
X0004332D01*
X0005906Y0292915D02*
Y0291341D01*
X0004332Y0288979D02*
X0003545Y0288192D01*
Y0286618D01*
X0004332Y0285831D01*
X0007481D01*
X0008268Y0286618D01*
Y0288192D01*
X0007481Y0288979D01*
X0004332D01*
X0280315Y0325590D02*
X0275592D01*
Y0323229D01*
X0276379Y0322442D01*
X0277954D01*
X0278741Y0323229D01*
Y0325590D01*
Y0324016D02*
X0280315Y0322442D01*
X0276379Y0320868D02*
X0275592Y0320080D01*
Y0318506D01*
X0276379Y0317719D01*
X0277166D01*
X0277954Y0318506D01*
X0278741Y0317719D01*
X0279528D01*
X0280315Y0318506D01*
Y0320080D01*
X0279528Y0320868D01*
X0278741D01*
X0277954Y0320080D01*
X0277166Y0320868D01*
X0276379D01*
X0277954Y0320080D02*
Y0318506D01*
X0280315Y0316145D02*
Y0314570D01*
Y0315358D01*
X0275592D01*
X0276379Y0316145D01*
X0283858Y0263386D02*
Y0268109D01*
X0281497D01*
X0280710Y0267322D01*
Y0265747D01*
X0281497Y0264960D01*
X0283858D01*
X0282284D02*
X0280710Y0263386D01*
X0279135Y0267322D02*
X0278348Y0268109D01*
X0276774D01*
X0275987Y0267322D01*
Y0266534D01*
X0276774Y0265747D01*
X0275987Y0264960D01*
Y0264173D01*
X0276774Y0263386D01*
X0278348D01*
X0279135Y0264173D01*
Y0264960D01*
X0278348Y0265747D01*
X0279135Y0266534D01*
Y0267322D01*
X0278348Y0265747D02*
X0276774D01*
X0271264Y0263386D02*
X0274412D01*
X0271264Y0266534D01*
Y0267322D01*
X0272051Y0268109D01*
X0273625D01*
X0274412Y0267322D01*
X0008268Y0327953D02*
X0003545D01*
Y0325591D01*
X0004332Y0324804D01*
X0005906D01*
X0006693Y0325591D01*
Y0327953D01*
Y0326378D02*
X0008268Y0324804D01*
X0004332Y0323230D02*
X0003545Y0322443D01*
Y0320868D01*
X0004332Y0320081D01*
X0005119D01*
X0005906Y0320868D01*
X0006693Y0320081D01*
X0007481D01*
X0008268Y0320868D01*
Y0322443D01*
X0007481Y0323230D01*
X0006693D01*
X0005906Y0322443D01*
X0005119Y0323230D01*
X0004332D01*
X0005906Y0322443D02*
Y0320868D01*
X0003545Y0318507D02*
Y0315358D01*
X0004332D01*
X0007481Y0318507D01*
X0008268D01*
X0016142Y0298425D02*
X0011419D01*
Y0296064D01*
X0012206Y0295277D01*
X0013780D01*
X0014567Y0296064D01*
Y0298425D01*
Y0296851D02*
X0016142Y0295277D01*
X0012206Y0293702D02*
X0011419Y0292915D01*
Y0291341D01*
X0012206Y0290554D01*
X0012993D01*
X0013780Y0291341D01*
X0014567Y0290554D01*
X0015355D01*
X0016142Y0291341D01*
Y0292915D01*
X0015355Y0293702D01*
X0014567D01*
X0013780Y0292915D01*
X0012993Y0293702D01*
X0012206D01*
X0013780Y0292915D02*
Y0291341D01*
X0012206Y0288979D02*
X0011419Y0288192D01*
Y0286618D01*
X0012206Y0285831D01*
X0012993D01*
X0013780Y0286618D01*
X0014567Y0285831D01*
X0015355D01*
X0016142Y0286618D01*
Y0288192D01*
X0015355Y0288979D01*
X0014567D01*
X0013780Y0288192D01*
X0012993Y0288979D01*
X0012206D01*
X0013780Y0288192D02*
Y0286618D01*
X0303150Y0325984D02*
X0298427D01*
Y0323623D01*
X0299214Y0322836D01*
X0300788D01*
X0301575Y0323623D01*
Y0325984D01*
Y0324410D02*
X0303150Y0322836D01*
X0299214Y0321261D02*
X0298427Y0320474D01*
Y0318900D01*
X0299214Y0318113D01*
X0300001D01*
X0300788Y0318900D01*
X0301575Y0318113D01*
X0302362D01*
X0303150Y0318900D01*
Y0320474D01*
X0302362Y0321261D01*
X0301575D01*
X0300788Y0320474D01*
X0300001Y0321261D01*
X0299214D01*
X0300788Y0320474D02*
Y0318900D01*
X0302362Y0316539D02*
X0303150Y0315751D01*
Y0314177D01*
X0302362Y0313390D01*
X0299214D01*
X0298427Y0314177D01*
Y0315751D01*
X0299214Y0316539D01*
X0300001D01*
X0300788Y0315751D01*
Y0313390D01*
X0306693Y0266535D02*
Y0271258D01*
X0304331D01*
X0303544Y0270471D01*
Y0268897D01*
X0304331Y0268110D01*
X0306693D01*
X0305119D02*
X0303544Y0266535D01*
X0301970Y0267323D02*
X0301183Y0266535D01*
X0299609D01*
X0298821Y0267323D01*
Y0270471D01*
X0299609Y0271258D01*
X0301183D01*
X0301970Y0270471D01*
Y0269684D01*
X0301183Y0268897D01*
X0298821D01*
X0297247Y0270471D02*
X0296460Y0271258D01*
X0294886D01*
X0294099Y0270471D01*
Y0267323D01*
X0294886Y0266535D01*
X0296460D01*
X0297247Y0267323D01*
Y0270471D01*
X0234646Y0155512D02*
Y0160235D01*
X0232284D01*
X0231497Y0159448D01*
Y0157873D01*
X0232284Y0157086D01*
X0234646D01*
X0233071D02*
X0231497Y0155512D01*
X0226774Y0160235D02*
X0228348Y0159448D01*
X0229923Y0157873D01*
Y0156299D01*
X0229136Y0155512D01*
X0227561D01*
X0226774Y0156299D01*
Y0157086D01*
X0227561Y0157873D01*
X0229923D01*
X0222051Y0160235D02*
X0223626Y0159448D01*
X0225200Y0157873D01*
Y0156299D01*
X0224413Y0155512D01*
X0222838D01*
X0222051Y0156299D01*
Y0157086D01*
X0222838Y0157873D01*
X0225200D01*
X0105118Y0259447D02*
Y0254724D01*
X0102757D01*
X0101970Y0255512D01*
Y0258660D01*
X0102757Y0259447D01*
X0105118D01*
X0100395Y0254724D02*
X0098821D01*
X0099608D01*
Y0259447D01*
X0100395Y0258660D01*
X0149606Y0290158D02*
Y0294880D01*
X0147245D01*
X0146458Y0294093D01*
Y0292519D01*
X0147245Y0291732D01*
X0149606D01*
X0148032D02*
X0146458Y0290158D01*
X0144883D02*
X0143309D01*
X0144096D01*
Y0294880D01*
X0144883Y0294093D01*
X0067321Y0269291D02*
Y0270866D01*
Y0270078D01*
X0062598D01*
Y0269291D01*
Y0270866D01*
X0066534Y0276376D02*
X0067321Y0275588D01*
Y0274014D01*
X0066534Y0273227D01*
X0063386D01*
X0062598Y0274014D01*
Y0275588D01*
X0063386Y0276376D01*
X0067321Y0277950D02*
Y0281099D01*
X0066534D01*
X0063386Y0277950D01*
X0062598D01*
X0164961Y0327557D02*
X0161812Y0322835D01*
Y0327557D02*
X0164961Y0322835D01*
X0160238Y0327557D02*
X0157089D01*
X0158663D01*
Y0322835D01*
X0155515Y0326770D02*
X0154728Y0327557D01*
X0153153D01*
X0152366Y0326770D01*
Y0325983D01*
X0153153Y0325196D01*
X0152366Y0324409D01*
Y0323622D01*
X0153153Y0322835D01*
X0154728D01*
X0155515Y0323622D01*
Y0324409D01*
X0154728Y0325196D01*
X0155515Y0325983D01*
Y0326770D01*
X0154728Y0325196D02*
X0153153D01*
X0197244Y0229134D02*
Y0233857D01*
X0194883D01*
X0194096Y0233070D01*
Y0231495D01*
X0194883Y0230708D01*
X0197244D01*
X0195670D02*
X0194096Y0229134D01*
X0192521D02*
X0190947D01*
X0191734D01*
Y0233857D01*
X0192521Y0233070D01*
X0188585D02*
X0187798Y0233857D01*
X0186224D01*
X0185437Y0233070D01*
Y0229921D01*
X0186224Y0229134D01*
X0187798D01*
X0188585Y0229921D01*
Y0233070D01*
X0182284Y0218109D02*
X0183072Y0218896D01*
X0184646D01*
X0185433Y0218109D01*
Y0214960D01*
X0184646Y0214173D01*
X0183072D01*
X0182284Y0214960D01*
X0177562Y0218896D02*
X0180710D01*
Y0216535D01*
X0179136Y0217322D01*
X0178349D01*
X0177562Y0216535D01*
Y0214960D01*
X0178349Y0214173D01*
X0179923D01*
X0180710Y0214960D01*
X0126378Y0106298D02*
X0123229D01*
X0124804D01*
Y0101575D01*
X0121655D02*
X0120081D01*
X0120868D01*
Y0106298D01*
X0121655Y0105510D01*
X0114571Y0106298D02*
X0116145Y0105510D01*
X0117719Y0103936D01*
Y0102362D01*
X0116932Y0101575D01*
X0115358D01*
X0114571Y0102362D01*
Y0103149D01*
X0115358Y0103936D01*
X0117719D01*
X0101575Y0106298D02*
X0098426D01*
X0100001D01*
Y0101575D01*
X0096852Y0105510D02*
X0096065Y0106298D01*
X0094490D01*
X0093703Y0105510D01*
Y0104723D01*
X0094490Y0103936D01*
X0093703Y0103149D01*
Y0102362D01*
X0094490Y0101575D01*
X0096065D01*
X0096852Y0102362D01*
Y0103149D01*
X0096065Y0103936D01*
X0096852Y0104723D01*
Y0105510D01*
X0096065Y0103936D02*
X0094490D01*
X0278740Y0261809D02*
X0275592D01*
X0277166D01*
Y0257087D01*
X0270869D02*
X0274017D01*
X0270869Y0260235D01*
Y0261022D01*
X0271656Y0261809D01*
X0273230D01*
X0274017Y0261022D01*
X0289764Y0116535D02*
X0285041D01*
Y0114174D01*
X0285828Y0113387D01*
X0287402D01*
X0288190Y0114174D01*
Y0116535D01*
Y0114961D02*
X0289764Y0113387D01*
Y0111813D02*
Y0110238D01*
Y0111025D01*
X0285041D01*
X0285828Y0111813D01*
Y0107877D02*
X0285041Y0107090D01*
Y0105515D01*
X0285828Y0104728D01*
X0288977D01*
X0289764Y0105515D01*
Y0107090D01*
X0288977Y0107877D01*
X0285828D01*
Y0103154D02*
X0285041Y0102367D01*
Y0100793D01*
X0285828Y0100005D01*
X0286615D01*
X0287402Y0100793D01*
X0288190Y0100005D01*
X0288977D01*
X0289764Y0100793D01*
Y0102367D01*
X0288977Y0103154D01*
X0288190D01*
X0287402Y0102367D01*
X0286615Y0103154D01*
X0285828D01*
X0287402Y0102367D02*
Y0100793D01*
X0059449Y0329528D02*
Y0334250D01*
X0057087D01*
X0056300Y0333463D01*
Y0331889D01*
X0057087Y0331102D01*
X0059449D01*
X0057875D02*
X0056300Y0329528D01*
X0054726D02*
X0053152D01*
X0053939D01*
Y0334250D01*
X0054726Y0333463D01*
X0050790Y0329528D02*
X0049216D01*
X0050003D01*
Y0334250D01*
X0050790Y0333463D01*
X0046854Y0330315D02*
X0046067Y0329528D01*
X0044493D01*
X0043706Y0330315D01*
Y0333463D01*
X0044493Y0334250D01*
X0046067D01*
X0046854Y0333463D01*
Y0332676D01*
X0046067Y0331889D01*
X0043706D01*
X0046850Y0342520D02*
Y0347243D01*
X0044489D01*
X0043702Y0346455D01*
Y0344881D01*
X0044489Y0344094D01*
X0046850D01*
X0045276D02*
X0043702Y0342520D01*
X0042127D02*
X0040553D01*
X0041340D01*
Y0347243D01*
X0042127Y0346455D01*
X0038192Y0342520D02*
X0036617D01*
X0037405D01*
Y0347243D01*
X0038192Y0346455D01*
X0034256D02*
X0033469Y0347243D01*
X0031895D01*
X0031107Y0346455D01*
Y0345668D01*
X0031895Y0344881D01*
X0031107Y0344094D01*
Y0343307D01*
X0031895Y0342520D01*
X0033469D01*
X0034256Y0343307D01*
Y0344094D01*
X0033469Y0344881D01*
X0034256Y0345668D01*
Y0346455D01*
X0033469Y0344881D02*
X0031895D01*
X0292126Y0130709D02*
Y0135432D01*
X0289764D01*
X0288977Y0134644D01*
Y0133070D01*
X0289764Y0132283D01*
X0292126D01*
X0290552D02*
X0288977Y0130709D01*
X0287403D02*
X0285829D01*
X0286616D01*
Y0135432D01*
X0287403Y0134644D01*
X0283467D02*
X0282680Y0135432D01*
X0281106D01*
X0280319Y0134644D01*
Y0131496D01*
X0281106Y0130709D01*
X0282680D01*
X0283467Y0131496D01*
Y0134644D01*
X0278745Y0135432D02*
X0275596D01*
Y0134644D01*
X0278745Y0131496D01*
Y0130709D01*
X0290945Y0031890D02*
Y0036613D01*
X0288583D01*
X0287796Y0035825D01*
Y0034251D01*
X0288583Y0033464D01*
X0290945D01*
X0289371D02*
X0287796Y0031890D01*
X0286222D02*
X0284648D01*
X0285435D01*
Y0036613D01*
X0286222Y0035825D01*
X0282286D02*
X0281499Y0036613D01*
X0279925D01*
X0279138Y0035825D01*
Y0032677D01*
X0279925Y0031890D01*
X0281499D01*
X0282286Y0032677D01*
Y0035825D01*
X0277563D02*
X0276776Y0036613D01*
X0275202D01*
X0274415Y0035825D01*
Y0032677D01*
X0275202Y0031890D01*
X0276776D01*
X0277563Y0032677D01*
Y0035825D01*
X0044894Y0017677D02*
Y0022400D01*
X0042533D01*
X0041745Y0021613D01*
Y0020039D01*
X0042533Y0019252D01*
X0044894D01*
X0043320D02*
X0041745Y0017677D01*
X0040171Y0018464D02*
X0039384Y0017677D01*
X0037810D01*
X0037022Y0018464D01*
Y0021613D01*
X0037810Y0022400D01*
X0039384D01*
X0040171Y0021613D01*
Y0020826D01*
X0039384Y0020039D01*
X0037022D01*
X0035448Y0018464D02*
X0034661Y0017677D01*
X0033087D01*
X0032300Y0018464D01*
Y0021613D01*
X0033087Y0022400D01*
X0034661D01*
X0035448Y0021613D01*
Y0020826D01*
X0034661Y0020039D01*
X0032300D01*
X0290551Y0042126D02*
Y0046849D01*
X0288190D01*
X0287403Y0046062D01*
Y0044487D01*
X0288190Y0043700D01*
X0290551D01*
X0288977D02*
X0287403Y0042126D01*
X0285828D02*
X0284254D01*
X0285041D01*
Y0046849D01*
X0285828Y0046062D01*
X0281893D02*
X0281105Y0046849D01*
X0279531D01*
X0278744Y0046062D01*
Y0042913D01*
X0279531Y0042126D01*
X0281105D01*
X0281893Y0042913D01*
Y0046062D01*
X0274021Y0046849D02*
X0275595Y0046062D01*
X0277170Y0044487D01*
Y0042913D01*
X0276382Y0042126D01*
X0274808D01*
X0274021Y0042913D01*
Y0043700D01*
X0274808Y0044487D01*
X0277170D01*
X0044882Y0025197D02*
Y0029920D01*
X0042520D01*
X0041733Y0029133D01*
Y0027558D01*
X0042520Y0026771D01*
X0044882D01*
X0043308D02*
X0041733Y0025197D01*
X0040159D02*
X0038585D01*
X0039372D01*
Y0029920D01*
X0040159Y0029133D01*
X0036223D02*
X0035436Y0029920D01*
X0033862D01*
X0033075Y0029133D01*
Y0025984D01*
X0033862Y0025197D01*
X0035436D01*
X0036223Y0025984D01*
Y0029133D01*
X0031500Y0025197D02*
X0029926D01*
X0030713D01*
Y0029920D01*
X0031500Y0029133D01*
X0220079Y0343701D02*
Y0348424D01*
X0217717D01*
X0216930Y0347637D01*
Y0346062D01*
X0217717Y0345275D01*
X0220079D01*
X0218504D02*
X0216930Y0343701D01*
X0215356D02*
X0213782D01*
X0214569D01*
Y0348424D01*
X0215356Y0347637D01*
X0211420Y0343701D02*
X0209846D01*
X0210633D01*
Y0348424D01*
X0211420Y0347637D01*
X0207484Y0348424D02*
X0204336D01*
Y0347637D01*
X0207484Y0344488D01*
Y0343701D01*
X0125197Y0316142D02*
X0120474D01*
Y0313780D01*
X0121261Y0312993D01*
X0122835D01*
X0123623Y0313780D01*
Y0316142D01*
Y0314567D02*
X0125197Y0312993D01*
Y0311419D02*
Y0309845D01*
Y0310632D01*
X0120474D01*
X0121261Y0311419D01*
X0125197Y0307483D02*
Y0305909D01*
Y0306696D01*
X0120474D01*
X0121261Y0307483D01*
X0120474Y0300399D02*
X0121261Y0301973D01*
X0122835Y0303547D01*
X0124410D01*
X0125197Y0302760D01*
Y0301186D01*
X0124410Y0300399D01*
X0123623D01*
X0122835Y0301186D01*
Y0303547D01*
X0132677Y0316535D02*
X0127954D01*
Y0314174D01*
X0128741Y0313387D01*
X0130316D01*
X0131103Y0314174D01*
Y0316535D01*
Y0314961D02*
X0132677Y0313387D01*
Y0311813D02*
Y0310238D01*
Y0311025D01*
X0127954D01*
X0128741Y0311813D01*
X0132677Y0307877D02*
Y0306302D01*
Y0307090D01*
X0127954D01*
X0128741Y0307877D01*
X0127954Y0300793D02*
Y0303941D01*
X0130316D01*
X0129529Y0302367D01*
Y0301580D01*
X0130316Y0300793D01*
X0131890D01*
X0132677Y0301580D01*
Y0303154D01*
X0131890Y0303941D01*
X0205512Y0140157D02*
Y0144880D01*
X0203150D01*
X0202363Y0144093D01*
Y0142519D01*
X0203150Y0141732D01*
X0205512D01*
X0203938D02*
X0202363Y0140157D01*
X0197640Y0144880D02*
X0199215Y0144093D01*
X0200789Y0142519D01*
Y0140945D01*
X0200002Y0140157D01*
X0198427D01*
X0197640Y0140945D01*
Y0141732D01*
X0198427Y0142519D01*
X0200789D01*
X0196066Y0140157D02*
X0194492D01*
X0195279D01*
Y0144880D01*
X0196066Y0144093D01*
X0205512Y0117717D02*
Y0122439D01*
X0203150D01*
X0202363Y0121652D01*
Y0120078D01*
X0203150Y0119291D01*
X0205512D01*
X0203938D02*
X0202363Y0117717D01*
X0197640Y0122439D02*
X0199215Y0121652D01*
X0200789Y0120078D01*
Y0118504D01*
X0200002Y0117717D01*
X0198427D01*
X0197640Y0118504D01*
Y0119291D01*
X0198427Y0120078D01*
X0200789D01*
X0196066Y0121652D02*
X0195279Y0122439D01*
X0193705D01*
X0192918Y0121652D01*
Y0118504D01*
X0193705Y0117717D01*
X0195279D01*
X0196066Y0118504D01*
Y0121652D01*
X0080315Y0347638D02*
X0075592D01*
Y0345276D01*
X0076379Y0344489D01*
X0077953D01*
X0078741Y0345276D01*
Y0347638D01*
Y0346063D02*
X0080315Y0344489D01*
Y0342915D02*
Y0341341D01*
Y0342128D01*
X0075592D01*
X0076379Y0342915D01*
X0080315Y0338979D02*
Y0337405D01*
Y0338192D01*
X0075592D01*
X0076379Y0338979D01*
X0080315Y0332682D02*
X0075592D01*
X0077953Y0335043D01*
Y0331895D01*
X0078740Y0313386D02*
Y0318109D01*
X0076379D01*
X0075592Y0317322D01*
Y0315747D01*
X0076379Y0314960D01*
X0078740D01*
X0077166D02*
X0075592Y0313386D01*
X0074017D02*
X0072443D01*
X0073230D01*
Y0318109D01*
X0074017Y0317322D01*
X0070082Y0313386D02*
X0068507D01*
X0069294D01*
Y0318109D01*
X0070082Y0317322D01*
X0066146D02*
X0065359Y0318109D01*
X0063784D01*
X0062997Y0317322D01*
Y0316534D01*
X0063784Y0315747D01*
X0064571D01*
X0063784D01*
X0062997Y0314960D01*
Y0314173D01*
X0063784Y0313386D01*
X0065359D01*
X0066146Y0314173D01*
X0250787Y0118898D02*
Y0123620D01*
X0248426D01*
X0247639Y0122833D01*
Y0121259D01*
X0248426Y0120472D01*
X0250787D01*
X0249213D02*
X0247639Y0118898D01*
X0242916Y0123620D02*
X0246064D01*
Y0121259D01*
X0244490Y0122046D01*
X0243703D01*
X0242916Y0121259D01*
Y0119685D01*
X0243703Y0118898D01*
X0245277D01*
X0246064Y0119685D01*
X0241342Y0122833D02*
X0240554Y0123620D01*
X0238980D01*
X0238193Y0122833D01*
Y0119685D01*
X0238980Y0118898D01*
X0240554D01*
X0241342Y0119685D01*
Y0122833D01*
X0281496Y0140945D02*
Y0145668D01*
X0279135D01*
X0278347Y0144881D01*
Y0143306D01*
X0279135Y0142519D01*
X0281496D01*
X0279922D02*
X0278347Y0140945D01*
X0274412D02*
Y0145668D01*
X0276773Y0143306D01*
X0273625D01*
X0272050Y0141732D02*
X0271263Y0140945D01*
X0269689D01*
X0268902Y0141732D01*
Y0144881D01*
X0269689Y0145668D01*
X0271263D01*
X0272050Y0144881D01*
Y0144094D01*
X0271263Y0143306D01*
X0268902D01*
X0266142Y0118504D02*
Y0123227D01*
X0263780D01*
X0262993Y0122440D01*
Y0120865D01*
X0263780Y0120078D01*
X0266142D01*
X0264567D02*
X0262993Y0118504D01*
X0259057D02*
Y0123227D01*
X0261419Y0120865D01*
X0258270D01*
X0256696Y0122440D02*
X0255909Y0123227D01*
X0254334D01*
X0253547Y0122440D01*
Y0121652D01*
X0254334Y0120865D01*
X0255122D01*
X0254334D01*
X0253547Y0120078D01*
Y0119291D01*
X0254334Y0118504D01*
X0255909D01*
X0256696Y0119291D01*
X0296063Y0140945D02*
Y0145668D01*
X0293702D01*
X0292914Y0144881D01*
Y0143306D01*
X0293702Y0142519D01*
X0296063D01*
X0294489D02*
X0292914Y0140945D01*
X0288979D02*
Y0145668D01*
X0291340Y0143306D01*
X0288192D01*
X0283469Y0140945D02*
X0286617D01*
X0283469Y0144094D01*
Y0144881D01*
X0284256Y0145668D01*
X0285830D01*
X0286617Y0144881D01*
X0144882Y0124409D02*
Y0129132D01*
X0142520D01*
X0141733Y0128345D01*
Y0126771D01*
X0142520Y0125984D01*
X0144882D01*
X0143308D02*
X0141733Y0124409D01*
X0137010Y0129132D02*
X0138585Y0128345D01*
X0140159Y0126771D01*
Y0125197D01*
X0139372Y0124409D01*
X0137798D01*
X0137010Y0125197D01*
Y0125984D01*
X0137798Y0126771D01*
X0140159D01*
X0132288Y0124409D02*
X0135436D01*
X0132288Y0127558D01*
Y0128345D01*
X0133075Y0129132D01*
X0134649D01*
X0135436Y0128345D01*
X0114173Y0158661D02*
X0118896D01*
Y0161023D01*
X0118109Y0161810D01*
X0116535D01*
X0115747Y0161023D01*
Y0158661D01*
Y0160236D02*
X0114173Y0161810D01*
X0118896Y0166533D02*
Y0163384D01*
X0116535D01*
X0117322Y0164959D01*
Y0165746D01*
X0116535Y0166533D01*
X0114960D01*
X0114173Y0165746D01*
Y0164172D01*
X0114960Y0163384D01*
X0114173Y0168107D02*
Y0169682D01*
Y0168894D01*
X0118896D01*
X0118109Y0168107D01*
X0088189Y0124016D02*
Y0128739D01*
X0085827D01*
X0085040Y0127952D01*
Y0126377D01*
X0085827Y0125590D01*
X0088189D01*
X0086615D02*
X0085040Y0124016D01*
X0081105D02*
Y0128739D01*
X0083466Y0126377D01*
X0080317D01*
X0076382Y0124016D02*
Y0128739D01*
X0078743Y0126377D01*
X0075595D01*
X0099606Y0164173D02*
Y0159450D01*
X0101968D01*
X0102755Y0160238D01*
Y0161812D01*
X0101968Y0162599D01*
X0099606D01*
X0101181D02*
X0102755Y0164173D01*
X0104329Y0160238D02*
X0105116Y0159450D01*
X0106691D01*
X0107478Y0160238D01*
Y0161025D01*
X0106691Y0161812D01*
X0105903D01*
X0106691D01*
X0107478Y0162599D01*
Y0163386D01*
X0106691Y0164173D01*
X0105116D01*
X0104329Y0163386D01*
X0112201Y0159450D02*
X0110626Y0160238D01*
X0109052Y0161812D01*
Y0163386D01*
X0109839Y0164173D01*
X0111414D01*
X0112201Y0163386D01*
Y0162599D01*
X0111414Y0161812D01*
X0109052D01*
X0197244Y0167717D02*
X0201967D01*
Y0170078D01*
X0201180Y0170865D01*
X0199606D01*
X0198818Y0170078D01*
Y0167717D01*
Y0169291D02*
X0197244Y0170865D01*
Y0175588D02*
Y0172439D01*
X0200393Y0175588D01*
X0201180D01*
X0201967Y0174801D01*
Y0173227D01*
X0201180Y0172439D01*
X0197244Y0177162D02*
Y0178737D01*
Y0177950D01*
X0201967D01*
X0201180Y0177162D01*
X0063779Y0178347D02*
X0059057D01*
Y0175985D01*
X0059844Y0175198D01*
X0061418D01*
X0062205Y0175985D01*
Y0178347D01*
Y0176772D02*
X0063779Y0175198D01*
Y0170475D02*
Y0173624D01*
X0060631Y0170475D01*
X0059844D01*
X0059057Y0171262D01*
Y0172836D01*
X0059844Y0173624D01*
X0059057Y0165752D02*
Y0168901D01*
X0061418D01*
X0060631Y0167326D01*
Y0166539D01*
X0061418Y0165752D01*
X0062992D01*
X0063779Y0166539D01*
Y0168114D01*
X0062992Y0168901D01*
X0236221Y0189764D02*
X0231498D01*
Y0187402D01*
X0232285Y0186615D01*
X0233859D01*
X0234646Y0187402D01*
Y0189764D01*
Y0188189D02*
X0236221Y0186615D01*
Y0181892D02*
Y0185041D01*
X0233072Y0181892D01*
X0232285D01*
X0231498Y0182679D01*
Y0184254D01*
X0232285Y0185041D01*
Y0180318D02*
X0231498Y0179531D01*
Y0177957D01*
X0232285Y0177169D01*
X0235433D01*
X0236221Y0177957D01*
Y0179531D01*
X0235433Y0180318D01*
X0232285D01*
X0070816Y0178362D02*
X0066093D01*
Y0176001D01*
X0066880Y0175214D01*
X0068455D01*
X0069242Y0176001D01*
Y0178362D01*
Y0176788D02*
X0070816Y0175214D01*
Y0170491D02*
Y0173639D01*
X0067667Y0170491D01*
X0066880D01*
X0066093Y0171278D01*
Y0172852D01*
X0066880Y0173639D01*
X0070816Y0166555D02*
X0066093D01*
X0068455Y0168916D01*
Y0165768D01*
X0039764Y0140945D02*
Y0145668D01*
X0037402D01*
X0036615Y0144881D01*
Y0143306D01*
X0037402Y0142519D01*
X0039764D01*
X0038190D02*
X0036615Y0140945D01*
X0035041D02*
X0033467D01*
X0034254D01*
Y0145668D01*
X0035041Y0144881D01*
X0028744Y0140945D02*
Y0145668D01*
X0031105Y0143306D01*
X0027957D01*
X0039764Y0160236D02*
Y0164959D01*
X0037402D01*
X0036615Y0164172D01*
Y0162598D01*
X0037402Y0161811D01*
X0039764D01*
X0038190D02*
X0036615Y0160236D01*
X0035041Y0164172D02*
X0034254Y0164959D01*
X0032680D01*
X0031892Y0164172D01*
Y0163385D01*
X0032680Y0162598D01*
X0031892Y0161811D01*
Y0161023D01*
X0032680Y0160236D01*
X0034254D01*
X0035041Y0161023D01*
Y0161811D01*
X0034254Y0162598D01*
X0035041Y0163385D01*
Y0164172D01*
X0034254Y0162598D02*
X0032680D01*
X0325976Y0115695D02*
X0324402D01*
X0325189D01*
Y0110972D01*
X0325976D01*
X0324402D01*
X0318892Y0114908D02*
X0319679Y0115695D01*
X0321253D01*
X0322041Y0114908D01*
Y0111760D01*
X0321253Y0110972D01*
X0319679D01*
X0318892Y0111760D01*
X0314169Y0115695D02*
X0317318D01*
Y0113334D01*
X0315743Y0114121D01*
X0314956D01*
X0314169Y0113334D01*
Y0111760D01*
X0314956Y0110972D01*
X0316531D01*
X0317318Y0111760D01*
X0097246Y0337795D02*
Y0336221D01*
Y0337008D01*
X0101969D01*
Y0337795D01*
Y0336221D01*
X0098033Y0330711D02*
X0097246Y0331498D01*
Y0333072D01*
X0098033Y0333859D01*
X0101181D01*
X0101969Y0333072D01*
Y0331498D01*
X0101181Y0330711D01*
X0097246Y0325988D02*
X0098033Y0327562D01*
X0099607Y0329137D01*
X0101181D01*
X0101969Y0328349D01*
Y0326775D01*
X0101181Y0325988D01*
X0100394D01*
X0099607Y0326775D01*
Y0329137D01*
X0220472Y0151573D02*
Y0146850D01*
X0218111D01*
X0217324Y0147637D01*
Y0150786D01*
X0218111Y0151573D01*
X0220472D01*
X0215750Y0146850D02*
Y0149999D01*
X0214175Y0151573D01*
X0212601Y0149999D01*
Y0146850D01*
Y0149212D01*
X0215750D01*
X0211027Y0150786D02*
X0210240Y0151573D01*
X0208665D01*
X0207878Y0150786D01*
Y0149999D01*
X0208665Y0149212D01*
X0209452D01*
X0208665D01*
X0207878Y0148425D01*
Y0147637D01*
X0208665Y0146850D01*
X0210240D01*
X0211027Y0147637D01*
X0254331Y0161416D02*
Y0156693D01*
X0251969D01*
X0251182Y0157480D01*
Y0160629D01*
X0251969Y0161416D01*
X0254331D01*
X0247246Y0156693D02*
Y0161416D01*
X0249608Y0159054D01*
X0246459D01*
X0218110Y0033069D02*
Y0028346D01*
X0215749D01*
X0214962Y0029134D01*
Y0032282D01*
X0215749Y0033069D01*
X0218110D01*
X0213387Y0028346D02*
X0211813D01*
X0212600D01*
Y0033069D01*
X0213387Y0032282D01*
X0209452D02*
X0208664Y0033069D01*
X0207090D01*
X0206303Y0032282D01*
Y0029134D01*
X0207090Y0028346D01*
X0208664D01*
X0209452Y0029134D01*
Y0032282D01*
X0120079Y0031888D02*
Y0027165D01*
X0117717D01*
X0116930Y0027953D01*
Y0031101D01*
X0117717Y0031888D01*
X0120079D01*
X0115356Y0027953D02*
X0114569Y0027165D01*
X0112994D01*
X0112207Y0027953D01*
Y0031101D01*
X0112994Y0031888D01*
X0114569D01*
X0115356Y0031101D01*
Y0030314D01*
X0114569Y0029527D01*
X0112207D01*
X0279081Y0217008D02*
Y0212285D01*
X0276719D01*
X0275932Y0213072D01*
Y0216221D01*
X0276719Y0217008D01*
X0279081D01*
X0274358Y0216221D02*
X0273570Y0217008D01*
X0271996D01*
X0271209Y0216221D01*
Y0215434D01*
X0271996Y0214647D01*
X0272783D01*
X0271996D01*
X0271209Y0213860D01*
Y0213072D01*
X0271996Y0212285D01*
X0273570D01*
X0274358Y0213072D01*
X0083465Y0216140D02*
Y0211417D01*
X0081103D01*
X0080316Y0212205D01*
Y0215353D01*
X0081103Y0216140D01*
X0083465D01*
X0075593Y0211417D02*
X0078742D01*
X0075593Y0214566D01*
Y0215353D01*
X0076380Y0216140D01*
X0077955D01*
X0078742Y0215353D01*
X0293308Y0110828D02*
X0292521Y0111615D01*
Y0113189D01*
X0293308Y0113976D01*
X0296457D01*
X0297244Y0113189D01*
Y0111615D01*
X0296457Y0110828D01*
X0297244Y0106105D02*
Y0109254D01*
X0294095Y0106105D01*
X0293308D01*
X0292521Y0106892D01*
Y0108466D01*
X0293308Y0109254D01*
Y0104531D02*
X0292521Y0103743D01*
Y0102169D01*
X0293308Y0101382D01*
X0294095D01*
X0294883Y0102169D01*
X0295670Y0101382D01*
X0296457D01*
X0297244Y0102169D01*
Y0103743D01*
X0296457Y0104531D01*
X0295670D01*
X0294883Y0103743D01*
X0294095Y0104531D01*
X0293308D01*
X0294883Y0103743D02*
Y0102169D01*
X0302420Y0106967D02*
X0303207Y0106180D01*
Y0104606D01*
X0302420Y0103819D01*
X0299271D01*
X0298484Y0104606D01*
Y0106180D01*
X0299271Y0106967D01*
X0298484Y0111690D02*
Y0108542D01*
X0301633Y0111690D01*
X0302420D01*
X0303207Y0110903D01*
Y0109329D01*
X0302420Y0108542D01*
X0303207Y0113265D02*
Y0116413D01*
X0302420D01*
X0299271Y0113265D01*
X0298484D01*
X0056694Y0287400D02*
X0057481Y0288187D01*
X0059055D01*
X0059842Y0287400D01*
Y0284252D01*
X0059055Y0283465D01*
X0057481D01*
X0056694Y0284252D01*
X0055120Y0287400D02*
X0054333Y0288187D01*
X0052758D01*
X0051971Y0287400D01*
Y0286613D01*
X0052758Y0285826D01*
X0053545D01*
X0052758D01*
X0051971Y0285039D01*
Y0284252D01*
X0052758Y0283465D01*
X0054333D01*
X0055120Y0284252D01*
X0047248Y0283465D02*
X0050397D01*
X0047248Y0286613D01*
Y0287400D01*
X0048035Y0288187D01*
X0049610D01*
X0050397Y0287400D01*
X0103544Y0305117D02*
X0104332Y0305904D01*
X0105906D01*
X0106693Y0305117D01*
Y0301968D01*
X0105906Y0301181D01*
X0104332D01*
X0103544Y0301968D01*
X0101970Y0305117D02*
X0101183Y0305904D01*
X0099609D01*
X0098821Y0305117D01*
Y0304330D01*
X0099609Y0303542D01*
X0100396D01*
X0099609D01*
X0098821Y0302755D01*
Y0301968D01*
X0099609Y0301181D01*
X0101183D01*
X0101970Y0301968D01*
X0097247Y0301181D02*
X0095673D01*
X0096460D01*
Y0305904D01*
X0097247Y0305117D01*
X0071261Y0303148D02*
X0072048Y0303936D01*
X0073622D01*
X0074410Y0303148D01*
Y0300000D01*
X0073622Y0299213D01*
X0072048D01*
X0071261Y0300000D01*
X0069687Y0303148D02*
X0068899Y0303936D01*
X0067325D01*
X0066538Y0303148D01*
Y0302361D01*
X0067325Y0301574D01*
X0068112D01*
X0067325D01*
X0066538Y0300787D01*
Y0300000D01*
X0067325Y0299213D01*
X0068899D01*
X0069687Y0300000D01*
X0064964Y0303148D02*
X0064176Y0303936D01*
X0062602D01*
X0061815Y0303148D01*
Y0300000D01*
X0062602Y0299213D01*
X0064176D01*
X0064964Y0300000D01*
Y0303148D01*
X0055513Y0259450D02*
X0054726Y0260237D01*
Y0261811D01*
X0055513Y0262598D01*
X0058662D01*
X0059449Y0261811D01*
Y0260237D01*
X0058662Y0259450D01*
X0059449Y0254727D02*
Y0257876D01*
X0056300Y0254727D01*
X0055513D01*
X0054726Y0255514D01*
Y0257088D01*
X0055513Y0257876D01*
X0058662Y0253153D02*
X0059449Y0252365D01*
Y0250791D01*
X0058662Y0250004D01*
X0055513D01*
X0054726Y0250791D01*
Y0252365D01*
X0055513Y0253153D01*
X0056300D01*
X0057087Y0252365D01*
Y0250004D01*
X0272833Y0117322D02*
X0273621Y0116535D01*
Y0114960D01*
X0272833Y0114173D01*
X0269685D01*
X0268898Y0114960D01*
Y0116535D01*
X0269685Y0117322D01*
X0268898Y0118896D02*
Y0120470D01*
Y0119683D01*
X0273621D01*
X0272833Y0118896D01*
X0269685Y0122832D02*
X0268898Y0123619D01*
Y0125193D01*
X0269685Y0125980D01*
X0272833D01*
X0273621Y0125193D01*
Y0123619D01*
X0272833Y0122832D01*
X0272046D01*
X0271259Y0123619D01*
Y0125980D01*
X0064568Y0147636D02*
X0065355Y0148424D01*
X0066929D01*
X0067716Y0147636D01*
Y0144488D01*
X0066929Y0143701D01*
X0065355D01*
X0064568Y0144488D01*
X0062994Y0143701D02*
X0061419D01*
X0062207D01*
Y0148424D01*
X0062994Y0147636D01*
X0059058D02*
X0058271Y0148424D01*
X0056696D01*
X0055909Y0147636D01*
Y0146849D01*
X0056696Y0146062D01*
X0057484D01*
X0056696D01*
X0055909Y0145275D01*
Y0144488D01*
X0056696Y0143701D01*
X0058271D01*
X0059058Y0144488D01*
X0314175Y0176379D02*
X0313387Y0177166D01*
Y0178740D01*
X0314175Y0179528D01*
X0317323D01*
X0318110Y0178740D01*
Y0177166D01*
X0317323Y0176379D01*
X0318110Y0174805D02*
Y0173230D01*
Y0174018D01*
X0313387D01*
X0314175Y0174805D01*
X0313387Y0167720D02*
X0314175Y0169295D01*
X0315749Y0170869D01*
X0317323D01*
X0318110Y0170082D01*
Y0168508D01*
X0317323Y0167720D01*
X0316536D01*
X0315749Y0168508D01*
Y0170869D01*
X0055848Y0224652D02*
X0056635Y0225439D01*
X0058209D01*
X0058996Y0224652D01*
Y0221504D01*
X0058209Y0220717D01*
X0056635D01*
X0055848Y0221504D01*
X0054273Y0220717D02*
X0052699D01*
X0053486D01*
Y0225439D01*
X0054273Y0224652D01*
X0050337D02*
X0049550Y0225439D01*
X0047976D01*
X0047189Y0224652D01*
Y0221504D01*
X0047976Y0220717D01*
X0049550D01*
X0050337Y0221504D01*
Y0224652D01*
X0225198Y0171259D02*
X0225985Y0172046D01*
X0227559D01*
X0228346Y0171259D01*
Y0168110D01*
X0227559Y0167323D01*
X0225985D01*
X0225198Y0168110D01*
X0223624Y0167323D02*
X0222049D01*
X0222836D01*
Y0172046D01*
X0223624Y0171259D01*
X0219688Y0167323D02*
X0218113D01*
X0218901D01*
Y0172046D01*
X0219688Y0171259D01*
X0189762Y0185827D02*
X0185039D01*
Y0188188D01*
X0185827Y0188975D01*
X0188975D01*
X0189762Y0188188D01*
Y0185827D01*
X0185039Y0190550D02*
X0188188D01*
X0189762Y0192124D01*
X0188188Y0193698D01*
X0185039D01*
X0187401D01*
Y0190550D01*
X0185039Y0198421D02*
Y0195273D01*
X0188188Y0198421D01*
X0188975D01*
X0189762Y0197634D01*
Y0196060D01*
X0188975Y0195273D01*
X0183857Y0128345D02*
X0184644Y0127558D01*
Y0125984D01*
X0183857Y0125197D01*
X0180708D01*
X0179921Y0125984D01*
Y0127558D01*
X0180708Y0128345D01*
X0179921Y0133068D02*
Y0129920D01*
X0183070Y0133068D01*
X0183857D01*
X0184644Y0132281D01*
Y0130707D01*
X0183857Y0129920D01*
Y0134643D02*
X0184644Y0135430D01*
Y0137004D01*
X0183857Y0137791D01*
X0180708D01*
X0179921Y0137004D01*
Y0135430D01*
X0180708Y0134643D01*
X0183857D01*
X0199214Y0216928D02*
X0200001Y0217715D01*
X0201575D01*
X0202362Y0216928D01*
Y0213779D01*
X0201575Y0212992D01*
X0200001D01*
X0199214Y0213779D01*
X0194491Y0212992D02*
X0197639D01*
X0194491Y0216141D01*
Y0216928D01*
X0195278Y0217715D01*
X0196852D01*
X0197639Y0216928D01*
X0189768Y0212992D02*
X0192916D01*
X0189768Y0216141D01*
Y0216928D01*
X0190555Y0217715D01*
X0192129D01*
X0192916Y0216928D01*
X0078740Y0010235D02*
X0075592D01*
X0077166D01*
Y0005512D01*
X0074017Y0009448D02*
X0073230Y0010235D01*
X0071656D01*
X0070869Y0009448D01*
Y0008660D01*
X0071656Y0007873D01*
X0072443D01*
X0071656D01*
X0070869Y0007086D01*
Y0006299D01*
X0071656Y0005512D01*
X0073230D01*
X0074017Y0006299D01*
X0066146Y0010235D02*
X0067720Y0009448D01*
X0069294Y0007873D01*
Y0006299D01*
X0068507Y0005512D01*
X0066933D01*
X0066146Y0006299D01*
Y0007086D01*
X0066933Y0007873D01*
X0069294D01*
X0018898Y0133857D02*
X0015749D01*
X0017323D01*
Y0129134D01*
X0014175Y0133070D02*
X0013388Y0133857D01*
X0011813D01*
X0011026Y0133070D01*
Y0132282D01*
X0011813Y0131495D01*
X0012600D01*
X0011813D01*
X0011026Y0130708D01*
Y0129921D01*
X0011813Y0129134D01*
X0013388D01*
X0014175Y0129921D01*
X0020866Y0173227D02*
X0017718D01*
X0019292D01*
Y0168504D01*
X0016143D02*
X0014569D01*
X0015356D01*
Y0173227D01*
X0016143Y0172440D01*
X0243307Y0213384D02*
Y0208661D01*
X0240946D01*
X0240159Y0209449D01*
Y0212597D01*
X0240946Y0213384D01*
X0243307D01*
X0238584Y0208661D02*
Y0211810D01*
X0237010Y0213384D01*
X0235436Y0211810D01*
Y0208661D01*
Y0211023D01*
X0238584D01*
X0233861Y0208661D02*
X0232287D01*
X0233074D01*
Y0213384D01*
X0233861Y0212597D01*
X0259449Y0180315D02*
X0254726D01*
Y0177954D01*
X0255513Y0177166D01*
X0257087D01*
X0257874Y0177954D01*
Y0180315D01*
Y0178741D02*
X0259449Y0177166D01*
Y0175592D02*
Y0174018D01*
Y0174805D01*
X0254726D01*
X0255513Y0175592D01*
X0259449Y0171656D02*
Y0170082D01*
Y0170869D01*
X0254726D01*
X0255513Y0171656D01*
X0260630Y0207087D02*
Y0211809D01*
X0258268D01*
X0257481Y0211022D01*
Y0209448D01*
X0258268Y0208661D01*
X0260630D01*
X0259056D02*
X0257481Y0207087D01*
X0255907D02*
X0254333D01*
X0255120D01*
Y0211809D01*
X0255907Y0211022D01*
X0248823Y0207087D02*
X0251971D01*
X0248823Y0210235D01*
Y0211022D01*
X0249610Y0211809D01*
X0251184D01*
X0251971Y0211022D01*
X0244094Y0173622D02*
X0239372D01*
Y0171261D01*
X0240159Y0170474D01*
X0241733D01*
X0242520Y0171261D01*
Y0173622D01*
Y0172048D02*
X0244094Y0170474D01*
Y0168899D02*
Y0167325D01*
Y0168112D01*
X0239372D01*
X0240159Y0168899D01*
X0239372Y0161815D02*
Y0164963D01*
X0241733D01*
X0240946Y0163389D01*
Y0162602D01*
X0241733Y0161815D01*
X0243307D01*
X0244094Y0162602D01*
Y0164176D01*
X0243307Y0164963D01*
X0275197Y0191339D02*
Y0196062D01*
X0272835D01*
X0272048Y0195274D01*
Y0193700D01*
X0272835Y0192913D01*
X0275197D01*
X0273623D02*
X0272048Y0191339D01*
X0270474D02*
X0268900D01*
X0269687D01*
Y0196062D01*
X0270474Y0195274D01*
X0263390Y0196062D02*
X0264964Y0195274D01*
X0266538Y0193700D01*
Y0192126D01*
X0265751Y0191339D01*
X0264177D01*
X0263390Y0192126D01*
Y0192913D01*
X0264177Y0193700D01*
X0266538D01*
X0091732Y0202362D02*
Y0207085D01*
X0089371D01*
X0088584Y0206298D01*
Y0204724D01*
X0089371Y0203937D01*
X0091732D01*
X0090158D02*
X0088584Y0202362D01*
X0083861D02*
X0087009D01*
X0083861Y0205511D01*
Y0206298D01*
X0084648Y0207085D01*
X0086222D01*
X0087009Y0206298D01*
X0079138Y0202362D02*
X0082287D01*
X0079138Y0205511D01*
Y0206298D01*
X0079925Y0207085D01*
X0081499D01*
X0082287Y0206298D01*
X0092126Y0195276D02*
Y0199998D01*
X0089764D01*
X0088977Y0199211D01*
Y0197637D01*
X0089764Y0196850D01*
X0092126D01*
X0090552D02*
X0088977Y0195276D01*
X0084254D02*
X0087403D01*
X0084254Y0198424D01*
Y0199211D01*
X0085042Y0199998D01*
X0086616D01*
X0087403Y0199211D01*
X0082680D02*
X0081893Y0199998D01*
X0080319D01*
X0079532Y0199211D01*
Y0198424D01*
X0080319Y0197637D01*
X0081106D01*
X0080319D01*
X0079532Y0196850D01*
Y0196063D01*
X0080319Y0195276D01*
X0081893D01*
X0082680Y0196063D01*
X0298819Y0213779D02*
X0294096D01*
Y0211418D01*
X0294883Y0210631D01*
X0296458D01*
X0297245Y0211418D01*
Y0213779D01*
Y0212205D02*
X0298819Y0210631D01*
Y0205908D02*
Y0209057D01*
X0295670Y0205908D01*
X0294883D01*
X0294096Y0206695D01*
Y0208270D01*
X0294883Y0209057D01*
X0294096Y0201185D02*
X0294883Y0202760D01*
X0296458Y0204334D01*
X0298032D01*
X0298819Y0203547D01*
Y0201972D01*
X0298032Y0201185D01*
X0297245D01*
X0296458Y0201972D01*
Y0204334D01*
X0309449Y0213779D02*
X0304726D01*
Y0211418D01*
X0305513Y0210631D01*
X0307087D01*
X0307874Y0211418D01*
Y0213779D01*
Y0212205D02*
X0309449Y0210631D01*
Y0205908D02*
Y0209057D01*
X0306300Y0205908D01*
X0305513D01*
X0304726Y0206695D01*
Y0208270D01*
X0305513Y0209057D01*
X0304726Y0204334D02*
Y0201185D01*
X0305513D01*
X0308662Y0204334D01*
X0309449D01*
X0275984Y0010235D02*
X0272836D01*
X0274410D01*
Y0005512D01*
X0271261Y0009448D02*
X0270474Y0010235D01*
X0268900D01*
X0268113Y0009448D01*
Y0008660D01*
X0268900Y0007873D01*
X0269687D01*
X0268900D01*
X0268113Y0007086D01*
Y0006299D01*
X0268900Y0005512D01*
X0270474D01*
X0271261Y0006299D01*
X0266539Y0010235D02*
X0263390D01*
Y0009448D01*
X0266539Y0006299D01*
Y0005512D01*
X0088583Y0145276D02*
Y0149998D01*
X0086221D01*
X0085434Y0149211D01*
Y0147637D01*
X0086221Y0146850D01*
X0088583D01*
X0087008D02*
X0085434Y0145276D01*
X0083860Y0149211D02*
X0083073Y0149998D01*
X0081498D01*
X0080711Y0149211D01*
Y0148424D01*
X0081498Y0147637D01*
X0082285D01*
X0081498D01*
X0080711Y0146850D01*
Y0146063D01*
X0081498Y0145276D01*
X0083073D01*
X0083860Y0146063D01*
X0079137Y0149998D02*
X0075988D01*
Y0149211D01*
X0079137Y0146063D01*
Y0145276D01*
X0146457Y0152362D02*
Y0157085D01*
X0144095D01*
X0143308Y0156298D01*
Y0154724D01*
X0144095Y0153937D01*
X0146457D01*
X0144882D02*
X0143308Y0152362D01*
X0138585Y0157085D02*
X0141734D01*
Y0154724D01*
X0140159Y0155511D01*
X0139372D01*
X0138585Y0154724D01*
Y0153149D01*
X0139372Y0152362D01*
X0140947D01*
X0141734Y0153149D01*
X0133862Y0157085D02*
X0135437Y0156298D01*
X0137011Y0154724D01*
Y0153149D01*
X0136224Y0152362D01*
X0134650D01*
X0133862Y0153149D01*
Y0153937D01*
X0134650Y0154724D01*
X0137011D01*
X0089173Y0140943D02*
X0086025D01*
X0087599D01*
Y0136221D01*
X0082089D02*
Y0140943D01*
X0084450Y0138582D01*
X0081302D01*
X0148031Y0147243D02*
X0144883D01*
X0146457D01*
Y0142520D01*
X0143309D02*
X0141734D01*
X0142522D01*
Y0147243D01*
X0143309Y0146455D01*
X0136224Y0142520D02*
X0139373D01*
X0136224Y0145668D01*
Y0146455D01*
X0137011Y0147243D01*
X0138586D01*
X0139373Y0146455D01*
X0133465Y0131496D02*
Y0136219D01*
X0131103D01*
X0130316Y0135432D01*
Y0133858D01*
X0131103Y0133070D01*
X0133465D01*
X0131890D02*
X0130316Y0131496D01*
X0125593Y0136219D02*
X0128742D01*
Y0133858D01*
X0127167Y0134645D01*
X0126380D01*
X0125593Y0133858D01*
Y0132283D01*
X0126380Y0131496D01*
X0127954D01*
X0128742Y0132283D01*
X0120870Y0136219D02*
X0124019D01*
Y0133858D01*
X0122444Y0134645D01*
X0121657D01*
X0120870Y0133858D01*
Y0132283D01*
X0121657Y0131496D01*
X0123232D01*
X0124019Y0132283D01*
X0093307Y0228345D02*
X0091733D01*
X0092520D01*
Y0223622D01*
X0093307D01*
X0091733D01*
X0086223Y0227558D02*
X0087010Y0228345D01*
X0088584D01*
X0089371Y0227558D01*
Y0224409D01*
X0088584Y0223622D01*
X0087010D01*
X0086223Y0224409D01*
X0081500Y0223622D02*
X0084649D01*
X0081500Y0226771D01*
Y0227558D01*
X0082287Y0228345D01*
X0083861D01*
X0084649Y0227558D01*
X0154724Y0213779D02*
Y0218502D01*
X0152363D01*
X0151576Y0217715D01*
Y0216141D01*
X0152363Y0215354D01*
X0154724D01*
X0153150D02*
X0151576Y0213779D01*
X0150002D02*
X0148427D01*
X0149214D01*
Y0218502D01*
X0150002Y0217715D01*
X0146066D02*
X0145279Y0218502D01*
X0143704D01*
X0142917Y0217715D01*
Y0214567D01*
X0143704Y0213779D01*
X0145279D01*
X0146066Y0214567D01*
Y0217715D01*
X0141343D02*
X0140556Y0218502D01*
X0138981D01*
X0138194Y0217715D01*
Y0216928D01*
X0138981Y0216141D01*
X0139769D01*
X0138981D01*
X0138194Y0215354D01*
Y0214567D01*
X0138981Y0213779D01*
X0140556D01*
X0141343Y0214567D01*
X0154724Y0220866D02*
Y0225589D01*
X0152363D01*
X0151576Y0224802D01*
Y0223228D01*
X0152363Y0222440D01*
X0154724D01*
X0153150D02*
X0151576Y0220866D01*
X0150002D02*
X0148427D01*
X0149214D01*
Y0225589D01*
X0150002Y0224802D01*
X0146066Y0220866D02*
X0144492D01*
X0145279D01*
Y0225589D01*
X0146066Y0224802D01*
X0142130D02*
X0141343Y0225589D01*
X0139769D01*
X0138981Y0224802D01*
Y0221653D01*
X0139769Y0220866D01*
X0141343D01*
X0142130Y0221653D01*
Y0224802D01*
M02*
