G04 Layer_Color=16711935*
%FSAX25Y25*%
%MOIN*%
G70*
G01*
G75*
%ADD129C,0.00394*%
%ADD131C,0.00197*%
D129*
X0201854Y0250252D02*
X0201591Y0251236D01*
X0200870Y0251957D01*
X0199886Y0252220D01*
X0198902Y0251957D01*
X0198181Y0251236D01*
X0197917Y0250252D01*
X0198181Y0249268D01*
X0198902Y0248547D01*
X0199886Y0248283D01*
X0200870Y0248547D01*
X0201591Y0249268D01*
X0201854Y0250252D01*
X0306890Y0040157D02*
X0310827D01*
X0308858Y0038189D02*
Y0042126D01*
X0029528Y0038189D02*
Y0042126D01*
X0027559Y0040157D02*
X0031496D01*
X0260236Y0312598D02*
X0264173D01*
X0262205Y0310630D02*
Y0314567D01*
X0050000Y0306299D02*
Y0310236D01*
X0048032Y0308268D02*
X0051969D01*
X0057480Y0306232D02*
Y0310169D01*
X0055512Y0308201D02*
X0059449D01*
X0292543Y0329760D02*
Y0333697D01*
X0290575Y0331728D02*
X0294512D01*
X0289000Y0279079D02*
Y0283016D01*
X0287032Y0281047D02*
X0290969D01*
X0262205Y0292126D02*
Y0296063D01*
X0260236Y0294094D02*
X0264173D01*
X0057480Y0318898D02*
Y0322835D01*
X0055512Y0320866D02*
X0059449D01*
X0050000Y0293701D02*
Y0297638D01*
X0048032Y0295669D02*
X0051969D01*
X0285543Y0317260D02*
Y0321197D01*
X0283575Y0319228D02*
X0287512D01*
X0281890Y0273229D02*
Y0277166D01*
X0279921Y0275197D02*
X0283858D01*
X0050000Y0318898D02*
Y0322835D01*
X0048032Y0320866D02*
X0051969D01*
X0057480Y0293732D02*
Y0297669D01*
X0055512Y0295701D02*
X0059449D01*
X0292543Y0317260D02*
Y0321197D01*
X0290575Y0319228D02*
X0294512D01*
X0289000Y0266579D02*
Y0270516D01*
X0287032Y0268547D02*
X0290969D01*
X0079528Y0291339D02*
Y0295276D01*
X0077559Y0293307D02*
X0081496D01*
X0100000Y0308973D02*
Y0312910D01*
X0098032Y0310941D02*
X0101969D01*
X0077175Y0276378D02*
Y0280315D01*
X0075207Y0278346D02*
X0079144D01*
X0100000Y0327472D02*
Y0331410D01*
X0098032Y0329441D02*
X0101969D01*
X0126772Y0215748D02*
X0130709D01*
X0128740Y0213779D02*
Y0217717D01*
X0126772Y0222835D02*
X0130709D01*
X0128740Y0220866D02*
Y0224803D01*
X0144552Y0224740D02*
X0147336Y0221956D01*
X0144552D02*
X0147336Y0224740D01*
X0139947Y0219896D02*
X0142730Y0217112D01*
X0139947D02*
X0142730Y0219896D01*
X0148608Y0210841D02*
X0151392Y0208057D01*
X0148608D02*
X0151392Y0210841D01*
X0153535Y0215756D02*
X0156319Y0212972D01*
X0153535D02*
X0156319Y0215756D01*
X0108268Y0124016D02*
Y0143701D01*
Y0124016D02*
X0118504D01*
Y0143701D01*
X0108268D02*
X0118504D01*
X0113386Y0131890D02*
Y0135827D01*
X0111417Y0133858D02*
X0115354D01*
X0124803Y0144488D02*
X0128740D01*
X0126772Y0142520D02*
Y0146457D01*
X0124803Y0154331D02*
X0128740D01*
X0126772Y0152362D02*
Y0156299D01*
X0229528Y0148819D02*
Y0152756D01*
X0227559Y0150787D02*
X0231496D01*
X0134646Y0290158D02*
Y0294094D01*
X0132677Y0292126D02*
X0136614D01*
X0079134Y0255512D02*
Y0259449D01*
X0077165Y0257480D02*
X0081102D01*
X0077165Y0240158D02*
X0081102D01*
X0079134Y0238189D02*
Y0242126D01*
X0126772Y0216142D02*
X0130709D01*
X0128740Y0214173D02*
Y0218110D01*
X0126772Y0222835D02*
X0130709D01*
X0128740Y0220866D02*
Y0224803D01*
X0144095Y0305118D02*
Y0309055D01*
X0142126Y0307087D02*
X0146063D01*
X0150787Y0305118D02*
Y0309055D01*
X0148819Y0307087D02*
X0152756D01*
X0137402Y0309055D02*
Y0312992D01*
X0135433Y0311024D02*
X0139370D01*
X0130709Y0309055D02*
Y0312992D01*
X0128740Y0311024D02*
X0132677D01*
X0128740Y0297638D02*
X0132677D01*
X0130709Y0295669D02*
Y0299606D01*
X0135827Y0297638D02*
X0139764D01*
X0137795Y0295669D02*
Y0299606D01*
X0142913Y0294488D02*
X0146850D01*
X0144882Y0292520D02*
Y0296457D01*
X0150000Y0294488D02*
X0153937D01*
X0151969Y0292520D02*
Y0296457D01*
X0151181Y0335039D02*
X0155118D01*
X0153150Y0333071D02*
Y0337008D01*
X0200787Y0229921D02*
Y0233858D01*
X0198819Y0231890D02*
X0202756D01*
X0177559Y0226772D02*
X0181496D01*
X0179528Y0224803D02*
Y0228740D01*
X0120866Y0115945D02*
X0124803D01*
X0122835Y0113976D02*
Y0117913D01*
X0096457Y0116142D02*
X0100394D01*
X0098425Y0114173D02*
Y0118110D01*
X0273228Y0244882D02*
X0277165D01*
X0275197Y0242913D02*
Y0246850D01*
X0287402Y0121654D02*
Y0125591D01*
X0285433Y0123622D02*
X0289370D01*
X0065354Y0340551D02*
X0069291D01*
X0067323Y0338583D02*
Y0342520D01*
X0052756Y0340551D02*
X0056693D01*
X0054724Y0338583D02*
Y0342520D01*
X0297638Y0133071D02*
X0301575D01*
X0299606Y0131103D02*
Y0135039D01*
X0268508Y0034130D02*
X0272445D01*
X0270476Y0032161D02*
Y0036098D01*
X0069685Y0034252D02*
X0073622D01*
X0071653Y0032284D02*
Y0036221D01*
X0268508Y0044130D02*
X0272445D01*
X0270476Y0042161D02*
Y0046098D01*
X0069685Y0043701D02*
X0073622D01*
X0071653Y0041732D02*
Y0045669D01*
X0194488Y0345669D02*
X0198425D01*
X0196457Y0343701D02*
Y0347638D01*
X0122835Y0322047D02*
Y0325984D01*
X0120866Y0324016D02*
X0124803D01*
X0130315Y0322047D02*
Y0325984D01*
X0128347Y0324016D02*
X0132284D01*
X0197244Y0134646D02*
X0201181D01*
X0199213Y0132677D02*
Y0136614D01*
X0197244Y0127953D02*
X0201181D01*
X0199213Y0125984D02*
Y0129921D01*
X0075000Y0323472D02*
Y0327410D01*
X0073032Y0325441D02*
X0076969D01*
X0068000Y0323472D02*
Y0327410D01*
X0066032Y0325441D02*
X0069969D01*
X0247244Y0127953D02*
X0251181D01*
X0249213Y0125984D02*
Y0129921D01*
X0247244Y0140157D02*
X0251181D01*
X0249213Y0138189D02*
Y0142126D01*
X0259055Y0127953D02*
X0262992D01*
X0261024Y0125984D02*
Y0129921D01*
X0259055Y0140157D02*
X0262992D01*
X0261024Y0138189D02*
Y0142126D01*
X0122441Y0126772D02*
X0126378D01*
X0124409Y0124803D02*
Y0128740D01*
X0116142Y0149606D02*
Y0153543D01*
X0114173Y0151575D02*
X0118110D01*
X0093701Y0126378D02*
X0097638D01*
X0095669Y0124409D02*
Y0128346D01*
X0105118Y0154331D02*
X0109055D01*
X0107087Y0152362D02*
Y0156299D01*
X0207480Y0171654D02*
Y0175591D01*
X0205512Y0173622D02*
X0209449D01*
X0051772Y0156102D02*
Y0160039D01*
X0049803Y0158071D02*
X0053740D01*
X0234252Y0168898D02*
Y0172835D01*
X0232284Y0170866D02*
X0236221D01*
X0058465Y0156004D02*
Y0159941D01*
X0056496Y0157972D02*
X0060433D01*
X0045079Y0144291D02*
Y0148228D01*
X0043110Y0146260D02*
X0047047D01*
X0045079Y0156103D02*
Y0160039D01*
X0043110Y0158071D02*
X0047047D01*
X0318504Y0127953D02*
X0322441D01*
X0320472Y0125984D02*
Y0129921D01*
X0220866Y0134646D02*
X0224803D01*
X0222835Y0132677D02*
Y0136614D01*
X0247638Y0151181D02*
X0251575D01*
X0249606Y0149213D02*
Y0153150D01*
X0194488Y0031102D02*
X0198425D01*
X0196457Y0029134D02*
Y0033071D01*
X0101969Y0030709D02*
X0105905D01*
X0103937Y0028740D02*
Y0032677D01*
X0274803Y0222834D02*
Y0226771D01*
X0272834Y0224803D02*
X0276771D01*
X0058661Y0211417D02*
Y0215354D01*
X0056693Y0213386D02*
X0060630D01*
X0294094Y0121654D02*
Y0125591D01*
X0292126Y0123622D02*
X0296063D01*
X0300787Y0121653D02*
Y0125591D01*
X0298819Y0123622D02*
X0302756D01*
X0079134Y0301575D02*
X0083071D01*
X0081102Y0299606D02*
Y0303543D01*
X0057480Y0268504D02*
Y0272441D01*
X0055512Y0270472D02*
X0059449D01*
X0271260Y0131890D02*
Y0135827D01*
X0269291Y0133858D02*
X0273228D01*
X0051772Y0144291D02*
Y0148228D01*
X0049803Y0146260D02*
X0053740D01*
X0315354Y0187795D02*
Y0191732D01*
X0313386Y0189764D02*
X0317323D01*
X0065354Y0223228D02*
X0069291D01*
X0067323Y0221260D02*
Y0225197D01*
X0222441Y0176772D02*
X0226378D01*
X0224410Y0174803D02*
Y0178740D01*
X0207087Y0190157D02*
Y0194095D01*
X0205118Y0192126D02*
X0209055D01*
X0189764Y0129528D02*
Y0133465D01*
X0187795Y0131496D02*
X0191732D01*
X0194882Y0207087D02*
X0198819D01*
X0196850Y0205118D02*
Y0209055D01*
X0073622Y0018504D02*
Y0022441D01*
X0071653Y0020472D02*
X0075590D01*
X0012598Y0141732D02*
Y0145669D01*
X0010630Y0143701D02*
X0014567D01*
X0013583Y0159843D02*
X0017520D01*
X0015551Y0157874D02*
Y0161811D01*
X0235827Y0198819D02*
X0239764D01*
X0237795Y0196850D02*
Y0200787D01*
X0253543Y0183071D02*
Y0187008D01*
X0251575Y0185039D02*
X0255512D01*
X0253543Y0200394D02*
Y0204331D01*
X0251575Y0202362D02*
X0255512D01*
X0239764Y0181496D02*
X0243701D01*
X0241732Y0179528D02*
Y0183465D01*
X0253543Y0191732D02*
Y0195669D01*
X0251575Y0193701D02*
X0255512D01*
X0077559Y0180315D02*
X0097244D01*
X0077559Y0170079D02*
Y0180315D01*
Y0170079D02*
X0097244D01*
Y0180315D01*
X0085433Y0175197D02*
X0089370D01*
X0087402Y0173228D02*
Y0177165D01*
X0077559Y0170079D02*
X0097244D01*
X0077559Y0159843D02*
Y0170079D01*
Y0159843D02*
X0097244D01*
Y0170079D01*
X0085433Y0164961D02*
X0089370D01*
X0087402Y0162992D02*
Y0166929D01*
X0301969Y0179528D02*
Y0199213D01*
X0291732D02*
X0301969D01*
X0291732Y0179528D02*
Y0199213D01*
Y0179528D02*
X0301969D01*
X0296850Y0187402D02*
Y0191339D01*
X0294882Y0189370D02*
X0298819D01*
X0311811Y0179528D02*
Y0199213D01*
X0301575D02*
X0311811D01*
X0301575Y0179528D02*
Y0199213D01*
Y0179528D02*
X0311811D01*
X0306693Y0187402D02*
Y0191339D01*
X0304724Y0189370D02*
X0308661D01*
X0270472Y0018110D02*
Y0022047D01*
X0268504Y0020079D02*
X0272441D01*
X0105118Y0147638D02*
X0109055D01*
X0107087Y0145669D02*
Y0149606D01*
X0096063Y0137795D02*
X0100000D01*
X0098032Y0135827D02*
Y0139764D01*
X0072441Y0286614D02*
Y0290551D01*
X0070473Y0288583D02*
X0074410D01*
X0063189Y0151181D02*
Y0155118D01*
X0061221Y0153150D02*
X0065158D01*
X0207283Y0137402D02*
X0211221D01*
X0209252Y0135433D02*
Y0139370D01*
X0191732Y0137402D02*
X0195669D01*
X0193701Y0135433D02*
Y0139370D01*
X0223228Y0137402D02*
X0227165D01*
X0225197Y0135433D02*
Y0139370D01*
X0175984Y0137402D02*
X0179921D01*
X0177953Y0135433D02*
Y0139370D01*
X0160236Y0137402D02*
X0164173D01*
X0162205Y0135433D02*
Y0139370D01*
X0175984Y0146850D02*
X0179921D01*
X0177953Y0144882D02*
Y0148819D01*
X0144488Y0137402D02*
X0148425D01*
X0146457Y0135433D02*
Y0139370D01*
X0144488Y0146850D02*
X0148425D01*
X0146457Y0144882D02*
Y0148819D01*
X0128347Y0137402D02*
X0132283D01*
X0130315Y0135433D02*
Y0139370D01*
X0112205Y0137402D02*
X0116142D01*
X0114173Y0135433D02*
Y0139370D01*
X0128347Y0146850D02*
X0132283D01*
X0130315Y0144882D02*
Y0148819D01*
X0096063Y0137402D02*
X0100000D01*
X0098032Y0135433D02*
Y0139370D01*
X0112205Y0146850D02*
X0116142D01*
X0114173Y0144882D02*
Y0148819D01*
X0100197Y0146850D02*
X0104134D01*
X0102165Y0144882D02*
Y0148819D01*
X0207087Y0146850D02*
X0211024D01*
X0209055Y0144882D02*
Y0148819D01*
X0238976Y0137402D02*
X0242913D01*
X0240945Y0135433D02*
Y0139370D01*
X0223228Y0146850D02*
X0227165D01*
X0225197Y0144882D02*
Y0148819D01*
X0238976Y0146850D02*
X0242913D01*
X0240945Y0144882D02*
Y0148819D01*
X0254724Y0137402D02*
X0258661D01*
X0256693Y0135433D02*
Y0139370D01*
X0254724Y0146850D02*
X0258661D01*
X0256693Y0144882D02*
Y0148819D01*
X0191732Y0146850D02*
X0195669D01*
X0193701Y0144882D02*
Y0148819D01*
X0270472Y0137402D02*
X0274409D01*
X0272441Y0135433D02*
Y0139370D01*
X0270276Y0146850D02*
X0274213D01*
X0272244Y0144882D02*
Y0148819D01*
X0286221Y0137402D02*
X0290158D01*
X0288189Y0135433D02*
Y0139370D01*
X0301969Y0137402D02*
X0305906D01*
X0303937Y0135433D02*
Y0139370D01*
X0301969Y0146850D02*
X0305906D01*
X0303937Y0144882D02*
Y0148819D01*
X0160236Y0146850D02*
X0164173D01*
X0162205Y0144882D02*
Y0148819D01*
X0273622Y0189370D02*
Y0193307D01*
X0271654Y0191339D02*
X0275591D01*
X0188976Y0313976D02*
X0192913D01*
X0190945Y0312008D02*
Y0315945D01*
X0044331Y0124685D02*
X0048268D01*
X0046299Y0122716D02*
Y0126654D01*
X0219146Y0030343D02*
X0223083D01*
X0221114Y0028374D02*
Y0032311D01*
X0127744Y0030343D02*
X0131681D01*
X0129713Y0028374D02*
Y0032311D01*
X0028740Y0194882D02*
X0032677D01*
X0030709Y0192913D02*
Y0196851D01*
X0293819Y0292520D02*
Y0296457D01*
X0291732Y0294488D02*
X0295669D01*
X0231532Y0345941D02*
X0235469D01*
X0233500Y0343972D02*
Y0347909D01*
X0181775Y0266394D02*
X0185713D01*
X0183744Y0264425D02*
Y0268362D01*
X0302165Y0116929D02*
X0306102D01*
X0304134Y0114961D02*
Y0118898D01*
X0241142Y0114961D02*
Y0118898D01*
X0239173Y0116929D02*
X0243110D01*
X0176181D02*
X0180118D01*
X0178150Y0114961D02*
Y0118898D01*
X0115157Y0114961D02*
Y0118898D01*
X0113189Y0116929D02*
X0117126D01*
X0286417D02*
X0290354D01*
X0288386Y0114961D02*
Y0118898D01*
X0225394Y0114961D02*
Y0118898D01*
X0223425Y0116929D02*
X0227362D01*
X0160433D02*
X0164370D01*
X0162402Y0114961D02*
Y0118898D01*
X0099410Y0114961D02*
Y0118898D01*
X0097441Y0116929D02*
X0101378D01*
X0270669D02*
X0274606D01*
X0272638Y0114961D02*
Y0118898D01*
X0209646Y0114961D02*
Y0118898D01*
X0207677Y0116929D02*
X0211614D01*
X0144685D02*
X0148622D01*
X0146653Y0114961D02*
Y0118898D01*
X0254921Y0116929D02*
X0258858D01*
X0256890Y0114961D02*
Y0118898D01*
X0193898Y0114961D02*
Y0118898D01*
X0191929Y0116929D02*
X0195866D01*
X0128937D02*
X0132874D01*
X0130905Y0114961D02*
Y0118898D01*
X0313032Y0269441D02*
X0316969D01*
X0315000Y0267473D02*
Y0271410D01*
X0313032Y0319941D02*
X0316969D01*
X0315000Y0317972D02*
Y0321909D01*
X0022031Y0269441D02*
X0025968D01*
X0024000Y0267472D02*
Y0271409D01*
X0022031Y0319941D02*
X0025968D01*
X0024000Y0317972D02*
Y0321909D01*
X0297638Y0127953D02*
X0301575D01*
X0299606Y0125984D02*
Y0129921D01*
X0234646Y0127953D02*
X0238583D01*
X0236614Y0125984D02*
Y0129921D01*
X0171654Y0127953D02*
X0175591D01*
X0173622Y0125984D02*
Y0129921D01*
X0108268Y0127953D02*
X0112205D01*
X0110236Y0125984D02*
Y0129921D01*
X0301968Y0153543D02*
X0305905D01*
X0303937Y0151575D02*
Y0155512D01*
X0244882Y0153543D02*
X0248819D01*
X0246850Y0151575D02*
Y0155512D01*
X0181890Y0153543D02*
X0185827D01*
X0183858Y0151575D02*
Y0155512D01*
X0118110Y0153543D02*
X0122047D01*
X0120079Y0151575D02*
Y0155512D01*
X0281890Y0127953D02*
X0285827D01*
X0283858Y0125984D02*
Y0129921D01*
X0218898Y0127953D02*
X0222835D01*
X0220866Y0125984D02*
Y0129921D01*
X0155906Y0127953D02*
X0159843D01*
X0157874Y0125984D02*
Y0129921D01*
X0092323Y0127953D02*
X0096260D01*
X0094291Y0125984D02*
Y0129921D01*
X0290158Y0153543D02*
X0294095D01*
X0292126Y0151575D02*
Y0155512D01*
X0225591Y0153543D02*
X0229528D01*
X0227559Y0151575D02*
Y0155512D01*
X0166142Y0153543D02*
X0170079D01*
X0168110Y0151575D02*
Y0155512D01*
X0105905Y0153543D02*
X0109842D01*
X0107874Y0151575D02*
Y0155512D01*
X0266142Y0127953D02*
X0270079D01*
X0268110Y0125984D02*
Y0129921D01*
X0202953Y0127953D02*
X0206890D01*
X0204921Y0125984D02*
Y0129921D01*
X0139961Y0127953D02*
X0143897D01*
X0141929Y0125984D02*
Y0129921D01*
X0276181Y0153543D02*
X0280118D01*
X0278150Y0151575D02*
Y0155512D01*
X0212992Y0153543D02*
X0216929D01*
X0214961Y0151575D02*
Y0155512D01*
X0150394Y0153543D02*
X0154331D01*
X0152362Y0151575D02*
Y0155512D01*
X0250394Y0127953D02*
X0254331D01*
X0252362Y0125984D02*
Y0129921D01*
X0187401Y0127953D02*
X0191339D01*
X0189370Y0125984D02*
Y0129921D01*
X0124016Y0127953D02*
X0127953D01*
X0125984Y0125984D02*
Y0129921D01*
X0260630Y0153543D02*
X0264567D01*
X0262598Y0151575D02*
Y0155512D01*
X0197638Y0153543D02*
X0201575D01*
X0199606Y0151575D02*
Y0155512D01*
X0134252Y0153543D02*
X0138189D01*
X0136221Y0151575D02*
Y0155512D01*
X0081693Y0316535D02*
X0085630D01*
X0083662Y0314567D02*
Y0318504D01*
X0095669Y0322047D02*
Y0325984D01*
X0093701Y0324016D02*
X0097638D01*
X0219138Y0263953D02*
X0223075D01*
X0221106Y0261984D02*
Y0265921D01*
X0219138Y0257453D02*
X0223075D01*
X0221106Y0255484D02*
Y0259421D01*
X0188189Y0229921D02*
Y0233858D01*
X0186221Y0231890D02*
X0190158D01*
X0272835Y0234882D02*
Y0238819D01*
X0270866Y0236851D02*
X0274803D01*
X0279921Y0234882D02*
Y0238819D01*
X0277953Y0236851D02*
X0281890D01*
X0217323Y0314961D02*
Y0318898D01*
X0215354Y0316929D02*
X0219291D01*
X0225697Y0314835D02*
Y0318772D01*
X0223728Y0316803D02*
X0227665D01*
X0232697Y0314835D02*
Y0318772D01*
X0230728Y0316803D02*
X0234665D01*
X0239697Y0314835D02*
Y0318772D01*
X0237728Y0316803D02*
X0241665D01*
X0288976Y0279134D02*
Y0283071D01*
X0287008Y0281102D02*
X0290945D01*
X0265532Y0347441D02*
X0269469D01*
X0267500Y0345473D02*
Y0349410D01*
X0230709Y0260630D02*
X0234646D01*
X0232677Y0258661D02*
Y0262598D01*
X0268500Y0354472D02*
Y0358410D01*
X0266532Y0356441D02*
X0270469D01*
X0072441Y0235433D02*
Y0239370D01*
X0070472Y0237402D02*
X0074409D01*
X0231496Y0277559D02*
X0235433D01*
X0233465Y0275590D02*
Y0279527D01*
X0073622Y0330709D02*
X0077559D01*
X0075590Y0328740D02*
Y0332677D01*
X0276378Y0250394D02*
Y0254331D01*
X0274409Y0252362D02*
X0278346D01*
X0095669Y0333858D02*
Y0337795D01*
X0093701Y0335827D02*
X0097638D01*
X0113386Y0251476D02*
X0117323D01*
X0115354Y0249508D02*
Y0253445D01*
X0105905Y0244882D02*
Y0248819D01*
X0103937Y0246850D02*
X0107874D01*
X0083465Y0187008D02*
Y0190945D01*
X0081496Y0188976D02*
X0085433D01*
X0218110Y0276378D02*
Y0280315D01*
X0216142Y0278346D02*
X0220079D01*
X0126378Y0186614D02*
Y0190551D01*
X0124409Y0188583D02*
X0128346D01*
X0226378Y0275591D02*
Y0279528D01*
X0224410Y0277559D02*
X0228346D01*
X0167716Y0303937D02*
X0171653D01*
X0169685Y0301969D02*
Y0305906D01*
X0196275Y0229394D02*
X0200213D01*
X0198244Y0227425D02*
Y0231362D01*
X0151575Y0248622D02*
Y0252559D01*
X0149606Y0250590D02*
X0153543D01*
X0198819Y0306299D02*
X0202756D01*
X0200787Y0304331D02*
Y0308268D01*
X0275197Y0264567D02*
X0279134D01*
X0277165Y0262598D02*
Y0266535D01*
X0262992Y0254331D02*
X0266929D01*
X0264961Y0252362D02*
Y0256299D01*
X0053150Y0032677D02*
X0057087D01*
X0055118Y0030709D02*
Y0034646D01*
X0286221Y0146850D02*
X0290158D01*
X0288189Y0144882D02*
Y0148819D01*
X0303543Y0190157D02*
X0307480D01*
X0305512Y0188189D02*
Y0192126D01*
X0167323Y0293701D02*
X0171260D01*
X0169291Y0291732D02*
Y0295669D01*
X0044213Y0058713D02*
Y0062650D01*
X0042244Y0060681D02*
X0046181D01*
X0014213Y0079134D02*
Y0083071D01*
X0012244Y0081102D02*
X0016181D01*
D131*
X0104961Y0188976D02*
X0104938Y0189977D01*
X0104868Y0190974D01*
X0104752Y0191968D01*
X0104589Y0192955D01*
X0104382Y0193934D01*
X0104128Y0194902D01*
X0103830Y0195856D01*
X0103488Y0196797D01*
X0103103Y0197720D01*
X0102674Y0198624D01*
X0102205Y0199507D01*
X0101695Y0200368D01*
X0101145Y0201203D01*
X0100557Y0202013D01*
X0099932Y0202794D01*
X0099271Y0203545D01*
X0098576Y0204265D01*
X0097848Y0204951D01*
X0097090Y0205603D01*
X0096301Y0206219D01*
X0095485Y0206798D01*
X0094643Y0207338D01*
X0093777Y0207838D01*
X0092888Y0208297D01*
X0091979Y0208715D01*
X0091051Y0209089D01*
X0090107Y0209421D01*
X0089149Y0209708D01*
X0088178Y0209950D01*
X0087197Y0210146D01*
X0086208Y0210297D01*
X0085214Y0210402D01*
X0084215Y0210460D01*
X0083214Y0210471D01*
X0082215Y0210436D01*
X0081218Y0210355D01*
X0080225Y0210227D01*
X0079240Y0210054D01*
X0078264Y0209834D01*
X0077299Y0209570D01*
X0076348Y0209261D01*
X0075412Y0208908D01*
X0074493Y0208511D01*
X0073594Y0208073D01*
X0072716Y0207593D01*
X0071862Y0207073D01*
X0071033Y0206513D01*
X0070230Y0205916D01*
X0069456Y0205282D01*
X0068713Y0204612D01*
X0068001Y0203909D01*
X0067323Y0203173D01*
X0066680Y0202407D01*
X0066074Y0201612D01*
X0065505Y0200789D01*
X0064974Y0199941D01*
X0064484Y0199068D01*
X0064035Y0198174D01*
X0063629Y0197260D01*
X0063265Y0196329D01*
X0062944Y0195381D01*
X0062669Y0194419D01*
X0062438Y0193446D01*
X0062253Y0192463D01*
X0062113Y0191472D01*
X0062020Y0190476D01*
X0061974Y0189477D01*
Y0188476D01*
X0062021Y0187477D01*
X0062113Y0186481D01*
X0062253Y0185490D01*
X0062438Y0184507D01*
X0062669Y0183534D01*
X0062944Y0182572D01*
X0063265Y0181624D01*
X0063629Y0180692D01*
X0064035Y0179778D01*
X0064484Y0178884D01*
X0064974Y0178012D01*
X0065505Y0177164D01*
X0066074Y0176341D01*
X0066680Y0175546D01*
X0067323Y0174779D01*
X0068001Y0174044D01*
X0068713Y0173340D01*
X0069456Y0172671D01*
X0070230Y0172037D01*
X0071033Y0171440D01*
X0071862Y0170880D01*
X0072716Y0170360D01*
X0073594Y0169880D01*
X0074493Y0169441D01*
X0075412Y0169045D01*
X0076348Y0168692D01*
X0077299Y0168383D01*
X0078264Y0168119D01*
X0079240Y0167899D01*
X0080225Y0167725D01*
X0081218Y0167598D01*
X0082215Y0167516D01*
X0083214Y0167481D01*
X0084215Y0167493D01*
X0085214Y0167551D01*
X0086208Y0167656D01*
X0087197Y0167807D01*
X0088178Y0168003D01*
X0089149Y0168245D01*
X0090107Y0168532D01*
X0091051Y0168863D01*
X0091979Y0169238D01*
X0092888Y0169656D01*
X0093777Y0170115D01*
X0094643Y0170615D01*
X0095485Y0171155D01*
X0096301Y0171734D01*
X0097090Y0172350D01*
X0097848Y0173001D01*
X0098576Y0173688D01*
X0099271Y0174408D01*
X0099932Y0175159D01*
X0100557Y0175940D01*
X0101145Y0176749D01*
X0101695Y0177585D01*
X0102205Y0178445D01*
X0102674Y0179329D01*
X0103103Y0180233D01*
X0103488Y0181156D01*
X0103830Y0182096D01*
X0104128Y0183051D01*
X0104382Y0184019D01*
X0104589Y0184997D01*
X0104752Y0185985D01*
X0104868Y0186978D01*
X0104938Y0187976D01*
X0104961Y0188976D01*
X0147874Y0188583D02*
X0147851Y0189583D01*
X0147781Y0190581D01*
X0147665Y0191574D01*
X0147503Y0192562D01*
X0147295Y0193540D01*
X0147042Y0194508D01*
X0146744Y0195463D01*
X0146401Y0196403D01*
X0146016Y0197326D01*
X0145588Y0198230D01*
X0145118Y0199114D01*
X0144608Y0199974D01*
X0144058Y0200810D01*
X0143470Y0201619D01*
X0142845Y0202400D01*
X0142184Y0203151D01*
X0141490Y0203871D01*
X0140762Y0204558D01*
X0140003Y0205209D01*
X0139215Y0205825D01*
X0138399Y0206404D01*
X0137556Y0206944D01*
X0136690Y0207444D01*
X0135801Y0207904D01*
X0134892Y0208321D01*
X0133965Y0208696D01*
X0133021Y0209027D01*
X0132062Y0209314D01*
X0131092Y0209556D01*
X0130111Y0209752D01*
X0129122Y0209903D01*
X0128127Y0210008D01*
X0127128Y0210066D01*
X0126128Y0210078D01*
X0125128Y0210043D01*
X0124131Y0209961D01*
X0123139Y0209834D01*
X0122154Y0209660D01*
X0121177Y0209440D01*
X0120213Y0209176D01*
X0119261Y0208867D01*
X0118325Y0208514D01*
X0117407Y0208118D01*
X0116507Y0207679D01*
X0115630Y0207199D01*
X0114775Y0206679D01*
X0113946Y0206119D01*
X0113144Y0205522D01*
X0112370Y0204888D01*
X0111626Y0204219D01*
X0110915Y0203515D01*
X0110237Y0202780D01*
X0109594Y0202013D01*
X0108987Y0201218D01*
X0108418Y0200395D01*
X0107888Y0199547D01*
X0107398Y0198675D01*
X0106949Y0197781D01*
X0106542Y0196867D01*
X0106178Y0195935D01*
X0105858Y0194987D01*
X0105582Y0194026D01*
X0105351Y0193052D01*
X0105166Y0192069D01*
X0105027Y0191078D01*
X0104934Y0190082D01*
X0104887Y0189083D01*
Y0188083D01*
X0104934Y0187083D01*
X0105027Y0186087D01*
X0105166Y0185096D01*
X0105351Y0184113D01*
X0105582Y0183140D01*
X0105858Y0182178D01*
X0106178Y0181230D01*
X0106542Y0180299D01*
X0106949Y0179385D01*
X0107398Y0178491D01*
X0107888Y0177619D01*
X0108418Y0176770D01*
X0108987Y0175947D01*
X0109594Y0175152D01*
X0110237Y0174386D01*
X0110915Y0173650D01*
X0111626Y0172947D01*
X0112370Y0172277D01*
X0113144Y0171643D01*
X0113946Y0171046D01*
X0114775Y0170486D01*
X0115630Y0169966D01*
X0116508Y0169486D01*
X0117407Y0169048D01*
X0118325Y0168651D01*
X0119261Y0168298D01*
X0120213Y0167989D01*
X0121178Y0167725D01*
X0122154Y0167505D01*
X0123139Y0167332D01*
X0124131Y0167204D01*
X0125128Y0167123D01*
X0126128Y0167088D01*
X0127128Y0167099D01*
X0128127Y0167158D01*
X0129122Y0167262D01*
X0130111Y0167413D01*
X0131092Y0167610D01*
X0132062Y0167851D01*
X0133021Y0168138D01*
X0133965Y0168470D01*
X0134892Y0168844D01*
X0135801Y0169262D01*
X0136690Y0169721D01*
X0137556Y0170221D01*
X0138399Y0170761D01*
X0139215Y0171340D01*
X0140003Y0171956D01*
X0140762Y0172608D01*
X0141490Y0173294D01*
X0142184Y0174014D01*
X0142845Y0174765D01*
X0143470Y0175546D01*
X0144058Y0176356D01*
X0144608Y0177191D01*
X0145118Y0178052D01*
X0145588Y0178935D01*
X0146016Y0179839D01*
X0146401Y0180762D01*
X0146744Y0181702D01*
X0147042Y0182657D01*
X0147295Y0183625D01*
X0147503Y0184604D01*
X0147665Y0185591D01*
X0147781Y0186584D01*
X0147851Y0187583D01*
X0147874Y0188583D01*
X0289173Y0033465D02*
Y0119685D01*
Y0033465D02*
X0328543D01*
Y0119685D01*
X0289173D02*
X0328543D01*
X0009843D02*
X0049213D01*
Y0033465D02*
Y0119685D01*
X0009843Y0033465D02*
X0049213D01*
X0009843D02*
Y0119685D01*
X0256299Y0309252D02*
Y0315945D01*
X0268110D01*
Y0309252D02*
Y0315945D01*
X0256299Y0309252D02*
X0268110D01*
X0046654Y0302362D02*
X0053346D01*
X0046654D02*
Y0314173D01*
X0053346D01*
Y0302362D02*
Y0314173D01*
X0054134Y0314106D02*
X0060827D01*
Y0302295D02*
Y0314106D01*
X0054134Y0302295D02*
X0060827D01*
X0054134D02*
Y0314106D01*
X0289197Y0337634D02*
X0295890D01*
Y0325823D02*
Y0337634D01*
X0289197Y0325823D02*
X0295890D01*
X0289197D02*
Y0337634D01*
X0285654Y0286953D02*
X0292346D01*
Y0275142D02*
Y0286953D01*
X0285654Y0275142D02*
X0292346D01*
X0285654D02*
Y0286953D01*
X0244193Y0307677D02*
X0280217D01*
X0244193Y0280512D02*
X0280217D01*
Y0307677D01*
X0244193Y0280512D02*
Y0307677D01*
X0054134Y0326772D02*
X0060827D01*
Y0314961D02*
Y0326772D01*
X0054134Y0314961D02*
X0060827D01*
X0054134D02*
Y0326772D01*
X0046654Y0289764D02*
X0053346D01*
X0046654D02*
Y0301575D01*
X0053346D01*
Y0289764D02*
Y0301575D01*
X0282197Y0313323D02*
X0288890D01*
X0282197D02*
Y0325134D01*
X0288890D01*
Y0313323D02*
Y0325134D01*
X0278543Y0269291D02*
X0285236D01*
X0278543D02*
Y0281102D01*
X0285236D01*
Y0269291D02*
Y0281102D01*
X0046654Y0326772D02*
X0053346D01*
Y0314961D02*
Y0326772D01*
X0046654Y0314961D02*
X0053346D01*
X0046654D02*
Y0326772D01*
X0054134Y0289795D02*
X0060827D01*
X0054134D02*
Y0301606D01*
X0060827D01*
Y0289795D02*
Y0301606D01*
X0289197Y0313323D02*
X0295890D01*
X0289197D02*
Y0325134D01*
X0295890D01*
Y0313323D02*
Y0325134D01*
X0285654Y0262642D02*
X0292346D01*
X0285654D02*
Y0274453D01*
X0292346D01*
Y0262642D02*
Y0274453D01*
X0088583Y0288976D02*
Y0297638D01*
X0070472Y0288976D02*
X0088583D01*
X0070472D02*
Y0297638D01*
X0088583D01*
X0094094Y0314287D02*
X0105906D01*
X0094094Y0307594D02*
Y0314287D01*
Y0307594D02*
X0105906D01*
Y0314287D01*
X0069095Y0268110D02*
X0089567D01*
X0069095Y0288583D02*
X0089567D01*
X0069095Y0268110D02*
Y0288583D01*
X0089567Y0268110D02*
Y0288583D01*
X0082677Y0344008D02*
X0117323D01*
X0082677Y0314874D02*
X0117323D01*
Y0344008D01*
X0082677Y0314874D02*
Y0344008D01*
X0135433Y0212205D02*
Y0219291D01*
X0122047Y0212205D02*
X0135433D01*
X0122047D02*
Y0219291D01*
X0135433D01*
Y0226378D01*
X0122047Y0219291D02*
X0135433D01*
X0122047D02*
Y0226378D01*
X0135433D01*
X0147753Y0216806D02*
X0152486Y0221538D01*
X0144134Y0229890D02*
X0152486Y0221538D01*
X0139401Y0225157D02*
X0144134Y0229890D01*
X0139401Y0225157D02*
X0147753Y0216806D01*
X0134797Y0220314D02*
X0139529Y0225046D01*
X0134797Y0220314D02*
X0143148Y0211962D01*
X0147881Y0216694D01*
X0139529Y0225046D02*
X0147881Y0216694D01*
X0152227Y0202211D02*
X0157238Y0207222D01*
X0142762Y0211676D02*
X0152227Y0202211D01*
X0142762Y0211676D02*
X0147773Y0216687D01*
X0157238Y0207222D01*
X0157154Y0207126D02*
X0162165Y0212137D01*
X0147689Y0216591D02*
X0157154Y0207126D01*
X0147689Y0216591D02*
X0152700Y0221602D01*
X0162165Y0212137D01*
X0124803Y0138189D02*
X0133465D01*
Y0138583D01*
Y0150787D01*
X0120079D02*
X0133465D01*
X0120079Y0138189D02*
Y0150787D01*
Y0138189D02*
X0124803D01*
X0132677Y0150984D02*
Y0157677D01*
X0120866Y0150984D02*
X0132677D01*
X0120866D02*
Y0157677D01*
X0132677D01*
X0223622Y0147441D02*
X0235433D01*
Y0154134D01*
X0223622D02*
X0235433D01*
X0223622Y0147441D02*
Y0154134D01*
X0128740Y0288779D02*
X0140551D01*
Y0295472D01*
X0128740D02*
X0140551D01*
X0128740Y0288779D02*
Y0295472D01*
X0064961Y0263386D02*
X0093307D01*
X0064961Y0251575D02*
Y0263386D01*
Y0251575D02*
X0093307D01*
Y0263386D01*
X0093898Y0229331D02*
Y0250984D01*
X0064370D02*
X0093898D01*
X0064370Y0229331D02*
Y0250984D01*
Y0229331D02*
X0093898D01*
X0134646Y0212795D02*
Y0219488D01*
X0122835Y0212795D02*
X0134646D01*
X0122835D02*
Y0219488D01*
X0134646D01*
X0122835D02*
Y0226181D01*
X0134646D01*
Y0219488D02*
Y0226181D01*
X0122835Y0219488D02*
X0134646D01*
X0140748Y0312992D02*
X0147441D01*
X0140748Y0301181D02*
Y0312992D01*
Y0301181D02*
X0147441D01*
Y0312992D01*
X0147441Y0301181D02*
X0154134D01*
Y0312992D01*
X0147441D02*
X0154134D01*
X0147441Y0301181D02*
Y0312992D01*
X0134055Y0305118D02*
X0140748D01*
Y0316929D01*
X0134055D02*
X0140748D01*
X0134055Y0305118D02*
Y0316929D01*
X0127362D02*
X0134055D01*
X0127362Y0305118D02*
Y0316929D01*
Y0305118D02*
X0134055D01*
Y0316929D01*
X0134252Y0290945D02*
Y0304331D01*
X0127165D02*
X0134252D01*
X0127165Y0290945D02*
Y0304331D01*
Y0290945D02*
X0134252D01*
X0141339D02*
Y0304331D01*
X0134252D02*
X0141339D01*
X0134252Y0290945D02*
Y0304331D01*
Y0290945D02*
X0141339D01*
X0148425Y0287795D02*
Y0301181D01*
X0141339D02*
X0148425D01*
X0141339Y0287795D02*
Y0301181D01*
Y0287795D02*
X0148425D01*
X0155512D02*
Y0301181D01*
X0148425D02*
X0155512D01*
X0148425Y0287795D02*
Y0301181D01*
Y0287795D02*
X0155512D01*
X0127559Y0330058D02*
Y0340059D01*
X0188386D01*
Y0330058D02*
Y0340059D01*
X0127559Y0330058D02*
X0188386D01*
X0197441Y0225984D02*
X0204134D01*
X0197441D02*
Y0237795D01*
X0204134D01*
Y0225984D02*
Y0237795D01*
X0176181Y0220866D02*
Y0232677D01*
Y0220866D02*
X0182874D01*
Y0232677D01*
X0176181D02*
X0182874D01*
X0114961Y0109055D02*
Y0122835D01*
X0130709Y0109055D02*
Y0122835D01*
X0114961Y0109055D02*
X0130709D01*
X0114961Y0122835D02*
X0130709D01*
X0090551Y0109252D02*
Y0123031D01*
X0106299Y0109252D02*
Y0123031D01*
X0090551Y0109252D02*
X0106299D01*
X0090551Y0123031D02*
X0106299D01*
X0289961Y0234055D02*
Y0255709D01*
X0260433D02*
X0289961D01*
X0260433Y0234055D02*
Y0255709D01*
Y0234055D02*
X0289961D01*
X0284055Y0117717D02*
X0290748D01*
X0284055D02*
Y0129528D01*
X0290748D01*
Y0117717D02*
Y0129528D01*
X0073228Y0337205D02*
Y0343898D01*
X0061417Y0337205D02*
X0073228D01*
X0061417D02*
Y0343898D01*
X0073228D01*
X0060630Y0337205D02*
Y0343898D01*
X0048819Y0337205D02*
X0060630D01*
X0048819D02*
Y0343898D01*
X0060630D01*
X0305512Y0129725D02*
Y0136417D01*
X0293701Y0129725D02*
X0305512D01*
X0293701D02*
Y0136417D01*
X0305512D01*
X0264571Y0030784D02*
Y0037476D01*
X0276382D01*
Y0030784D02*
Y0037476D01*
X0264571Y0030784D02*
X0276382D01*
X0065748Y0030906D02*
Y0037598D01*
X0077559D01*
Y0030906D02*
Y0037598D01*
X0065748Y0030906D02*
X0077559D01*
X0276382Y0040784D02*
Y0047476D01*
X0264571Y0040784D02*
X0276382D01*
X0264571D02*
Y0047476D01*
X0276382D01*
X0077559Y0040354D02*
Y0047047D01*
X0065748Y0040354D02*
X0077559D01*
X0065748D02*
Y0047047D01*
X0077559D01*
X0190551Y0342323D02*
Y0349016D01*
X0202362D01*
Y0342323D02*
Y0349016D01*
X0190551Y0342323D02*
X0202362D01*
X0119488Y0329921D02*
X0126181D01*
Y0318110D02*
Y0329921D01*
X0119488Y0318110D02*
X0126181D01*
X0119488D02*
Y0329921D01*
X0126969D02*
X0133661D01*
Y0318110D02*
Y0329921D01*
X0126969Y0318110D02*
X0133661D01*
X0126969D02*
Y0329921D01*
X0205118Y0131299D02*
Y0137992D01*
X0193307Y0131299D02*
X0205118D01*
X0193307D02*
Y0137992D01*
X0205118D01*
X0193307Y0124606D02*
Y0131299D01*
X0205118D01*
Y0124606D02*
Y0131299D01*
X0193307Y0124606D02*
X0205118D01*
X0071654Y0319535D02*
X0078346D01*
X0071654D02*
Y0331347D01*
X0078346D01*
Y0319535D02*
Y0331347D01*
X0064654Y0319535D02*
X0071346D01*
X0064654D02*
Y0331347D01*
X0071346D01*
Y0319535D02*
Y0331347D01*
X0255118Y0124606D02*
Y0131299D01*
X0243307Y0124606D02*
X0255118D01*
X0243307D02*
Y0131299D01*
X0255118D01*
Y0136811D02*
Y0143504D01*
X0243307Y0136811D02*
X0255118D01*
X0243307D02*
Y0143504D01*
X0255118D01*
X0266929Y0124606D02*
Y0131299D01*
X0255118Y0124606D02*
X0266929D01*
X0255118D02*
Y0131299D01*
X0266929D01*
Y0136811D02*
Y0143504D01*
X0255118Y0136811D02*
X0266929D01*
X0255118D02*
Y0143504D01*
X0266929D01*
X0118504Y0123425D02*
Y0130118D01*
X0130315D01*
Y0123425D02*
Y0130118D01*
X0118504Y0123425D02*
X0130315D01*
X0112795Y0157480D02*
X0119488D01*
Y0145669D02*
Y0157480D01*
X0112795Y0145669D02*
X0119488D01*
X0112795D02*
Y0157480D01*
X0089764Y0123031D02*
Y0129724D01*
X0101575D01*
Y0123031D02*
Y0129724D01*
X0089764Y0123031D02*
X0101575D01*
X0112992Y0150984D02*
Y0157677D01*
X0101181Y0150984D02*
X0112992D01*
X0101181D02*
Y0157677D01*
X0112992D01*
X0204134Y0179528D02*
X0210827D01*
Y0167717D02*
Y0179528D01*
X0204134Y0167717D02*
X0210827D01*
X0204134D02*
Y0179528D01*
X0048425Y0152165D02*
X0055118D01*
X0048425D02*
Y0163977D01*
X0055118D01*
Y0152165D02*
Y0163977D01*
X0230906Y0164961D02*
X0237598D01*
X0230906D02*
Y0176772D01*
X0237598D01*
Y0164961D02*
Y0176772D01*
X0055118Y0152067D02*
X0061811D01*
X0055118D02*
Y0163878D01*
X0061811D01*
Y0152067D02*
Y0163878D01*
X0041732Y0152165D02*
X0048425D01*
Y0140354D02*
Y0152165D01*
X0041732Y0140354D02*
X0048425D01*
X0041732D02*
Y0152165D01*
Y0163977D02*
X0048425D01*
Y0152165D02*
Y0163977D01*
X0041732Y0152165D02*
X0048425D01*
X0041732D02*
Y0163977D01*
X0305709Y0117126D02*
Y0138780D01*
Y0117126D02*
X0335236D01*
Y0138780D01*
X0305709D02*
X0335236D01*
X0208071Y0123819D02*
Y0145473D01*
Y0123819D02*
X0237598D01*
Y0145473D01*
X0208071D02*
X0237598D01*
X0240551Y0147244D02*
Y0155118D01*
Y0147244D02*
X0258661D01*
Y0155118D01*
X0240551D02*
X0258661D01*
X0202362Y0016929D02*
Y0045276D01*
X0190551D02*
X0202362D01*
X0190551Y0016929D02*
Y0045276D01*
Y0016929D02*
X0202362D01*
X0109843Y0016535D02*
Y0044882D01*
X0098031D02*
X0109843D01*
X0098031Y0016535D02*
Y0044882D01*
Y0016535D02*
X0109843D01*
X0260630Y0230709D02*
X0288976D01*
X0260630Y0218898D02*
Y0230709D01*
Y0218898D02*
X0288976D01*
Y0230709D01*
X0044488Y0219291D02*
X0072835D01*
X0044488Y0207480D02*
Y0219291D01*
Y0207480D02*
X0072835D01*
Y0219291D01*
X0290748Y0117717D02*
X0297441D01*
X0290748D02*
Y0129528D01*
X0297441D01*
Y0117717D02*
Y0129528D01*
X0297441Y0117717D02*
X0304134D01*
X0297441D02*
Y0129528D01*
X0304134D01*
Y0117717D02*
Y0129528D01*
X0075197Y0298228D02*
Y0304921D01*
X0087008D01*
Y0298228D02*
Y0304921D01*
X0075197Y0298228D02*
X0087008D01*
X0054134Y0276378D02*
X0060827D01*
Y0264567D02*
Y0276378D01*
X0054134Y0264567D02*
X0060827D01*
X0054134D02*
Y0276378D01*
X0267913Y0127953D02*
X0274606D01*
X0267913D02*
Y0139764D01*
X0274606D01*
Y0127953D02*
Y0139764D01*
X0048425Y0152165D02*
X0055118D01*
Y0140354D02*
Y0152165D01*
X0048425Y0140354D02*
X0055118D01*
X0048425D02*
Y0152165D01*
X0312008Y0195669D02*
X0318701D01*
Y0183858D02*
Y0195669D01*
X0312008Y0183858D02*
X0318701D01*
X0312008D02*
Y0195669D01*
X0073228Y0219882D02*
Y0226575D01*
X0061417Y0219882D02*
X0073228D01*
X0061417D02*
Y0226575D01*
X0073228D01*
X0218504Y0173425D02*
Y0180118D01*
X0230315D01*
Y0173425D02*
Y0180118D01*
X0218504Y0173425D02*
X0230315D01*
X0192323Y0202953D02*
X0221850D01*
Y0181299D02*
Y0202953D01*
X0192323Y0181299D02*
X0221850D01*
X0192323D02*
Y0202953D01*
X0186417Y0125591D02*
X0193110D01*
X0186417D02*
Y0137402D01*
X0193110D01*
Y0125591D02*
Y0137402D01*
X0202756Y0203740D02*
Y0210433D01*
X0190945Y0203740D02*
X0202756D01*
X0190945D02*
Y0210433D01*
X0202756D01*
X0065748Y0027362D02*
X0081496D01*
X0065748Y0013583D02*
X0081496D01*
Y0027362D01*
X0065748Y0013583D02*
Y0027362D01*
X0005709Y0151575D02*
X0019488D01*
X0005709Y0135827D02*
X0019488D01*
X0005709D02*
Y0151575D01*
X0019488Y0135827D02*
Y0151575D01*
X0013583Y0153543D02*
X0022244D01*
Y0153937D01*
Y0166142D01*
X0008858D02*
X0022244D01*
X0008858Y0153543D02*
Y0166142D01*
Y0153543D02*
X0013583D01*
X0245669Y0191929D02*
Y0205709D01*
X0229921Y0191929D02*
Y0205709D01*
X0245669D01*
X0229921Y0191929D02*
X0245669D01*
X0247638Y0188386D02*
X0259449D01*
X0247638Y0181693D02*
Y0188386D01*
Y0181693D02*
X0259449D01*
Y0188386D01*
X0247638Y0205709D02*
X0259449D01*
X0247638Y0199016D02*
Y0205709D01*
Y0199016D02*
X0259449D01*
Y0205709D01*
X0238386Y0175591D02*
Y0187402D01*
Y0175591D02*
X0245079D01*
Y0187402D01*
X0238386D02*
X0245079D01*
X0247638Y0190354D02*
X0259449D01*
Y0197047D01*
X0247638D02*
X0259449D01*
X0247638Y0190354D02*
Y0197047D01*
X0262598Y0026969D02*
X0278346D01*
X0262598Y0013189D02*
X0278346D01*
Y0026969D01*
X0262598Y0013189D02*
Y0026969D01*
X0112992Y0144291D02*
Y0150984D01*
X0101181Y0144291D02*
X0112992D01*
X0101181D02*
Y0150984D01*
X0112992D01*
X0096063Y0131496D02*
X0104724D01*
Y0131890D01*
Y0144095D01*
X0091339D02*
X0104724D01*
X0091339Y0131496D02*
Y0144095D01*
Y0131496D02*
X0096063D01*
X0044882Y0262992D02*
Y0314173D01*
Y0262992D02*
X0100000D01*
Y0314173D01*
X0044882D02*
X0100000D01*
X0028937Y0141339D02*
X0097244D01*
Y0164961D01*
X0028937D02*
X0097244D01*
X0028937Y0141339D02*
Y0164961D01*
X0202559Y0131102D02*
X0211221D01*
X0202559D02*
Y0131496D01*
Y0143701D01*
X0215945D01*
Y0131102D02*
Y0143701D01*
X0211221Y0131102D02*
X0215945D01*
X0187008D02*
X0195669D01*
X0187008D02*
Y0131496D01*
Y0143701D01*
X0200394D01*
Y0131102D02*
Y0143701D01*
X0195669Y0131102D02*
X0200394D01*
X0218504D02*
X0227165D01*
X0218504D02*
Y0131496D01*
Y0143701D01*
X0231890D01*
Y0131102D02*
Y0143701D01*
X0227165Y0131102D02*
X0231890D01*
X0171260D02*
X0179921D01*
X0171260D02*
Y0131496D01*
Y0143701D01*
X0184646D01*
Y0131102D02*
Y0143701D01*
X0179921Y0131102D02*
X0184646D01*
X0155512D02*
X0164173D01*
X0155512D02*
Y0131496D01*
Y0143701D01*
X0168898D01*
Y0131102D02*
Y0143701D01*
X0164173Y0131102D02*
X0168898D01*
X0172047Y0143504D02*
Y0150197D01*
Y0143504D02*
X0183858D01*
Y0150197D01*
X0172047D02*
X0183858D01*
X0139764Y0131102D02*
X0148425D01*
X0139764D02*
Y0131496D01*
Y0143701D01*
X0153150D01*
Y0131102D02*
Y0143701D01*
X0148425Y0131102D02*
X0153150D01*
X0140551Y0143504D02*
Y0150197D01*
Y0143504D02*
X0152362D01*
Y0150197D01*
X0140551D02*
X0152362D01*
X0123622Y0131102D02*
X0132283D01*
X0123622D02*
Y0131496D01*
Y0143701D01*
X0137008D01*
Y0131102D02*
Y0143701D01*
X0132283Y0131102D02*
X0137008D01*
X0107480D02*
X0116142D01*
X0107480D02*
Y0131496D01*
Y0143701D01*
X0120866D01*
Y0131102D02*
Y0143701D01*
X0116142Y0131102D02*
X0120866D01*
X0124409Y0143504D02*
Y0150197D01*
Y0143504D02*
X0136221D01*
Y0150197D01*
X0124409D02*
X0136221D01*
X0091339Y0131102D02*
X0100000D01*
X0091339D02*
Y0131496D01*
Y0143701D01*
X0104724D01*
Y0131102D02*
Y0143701D01*
X0100000Y0131102D02*
X0104724D01*
X0108268Y0143504D02*
Y0150197D01*
Y0143504D02*
X0120079D01*
Y0150197D01*
X0108268D02*
X0120079D01*
X0096260Y0143504D02*
Y0150197D01*
Y0143504D02*
X0108071D01*
Y0150197D01*
X0096260D02*
X0108071D01*
X0203150Y0143504D02*
Y0150197D01*
Y0143504D02*
X0214961D01*
Y0150197D01*
X0203150D02*
X0214961D01*
X0234252Y0131102D02*
X0242913D01*
X0234252D02*
Y0131496D01*
Y0143701D01*
X0247638D01*
Y0131102D02*
Y0143701D01*
X0242913Y0131102D02*
X0247638D01*
X0219291Y0143504D02*
Y0150197D01*
Y0143504D02*
X0231102D01*
Y0150197D01*
X0219291D02*
X0231102D01*
X0235039Y0143504D02*
Y0150197D01*
Y0143504D02*
X0246850D01*
Y0150197D01*
X0235039D02*
X0246850D01*
X0250000Y0131102D02*
X0258661D01*
X0250000D02*
Y0131496D01*
Y0143701D01*
X0263386D01*
Y0131102D02*
Y0143701D01*
X0258661Y0131102D02*
X0263386D01*
X0250787Y0143504D02*
Y0150197D01*
Y0143504D02*
X0262598D01*
Y0150197D01*
X0250787D02*
X0262598D01*
X0187795Y0143504D02*
Y0150197D01*
Y0143504D02*
X0199606D01*
Y0150197D01*
X0187795D02*
X0199606D01*
X0265748Y0131102D02*
X0274409D01*
X0265748D02*
Y0131496D01*
Y0143701D01*
X0279134D01*
Y0131102D02*
Y0143701D01*
X0274409Y0131102D02*
X0279134D01*
X0266339Y0143504D02*
Y0150197D01*
Y0143504D02*
X0278150D01*
Y0150197D01*
X0266339D02*
X0278150D01*
X0281496Y0131102D02*
X0290158D01*
X0281496D02*
Y0131496D01*
Y0143701D01*
X0294882D01*
Y0131102D02*
Y0143701D01*
X0290158Y0131102D02*
X0294882D01*
X0297244Y0131102D02*
X0305906D01*
X0297244D02*
Y0131496D01*
Y0143701D01*
X0310630D01*
Y0131102D02*
Y0143701D01*
X0305906Y0131102D02*
X0310630D01*
X0298031Y0143504D02*
Y0150197D01*
Y0143504D02*
X0309842D01*
Y0150197D01*
X0298031D02*
X0309842D01*
X0156299Y0143504D02*
Y0150197D01*
Y0143504D02*
X0168110D01*
Y0150197D01*
X0156299D02*
X0168110D01*
X0164173Y0216929D02*
X0277559D01*
X0278740D01*
Y0164961D02*
Y0216929D01*
X0164173Y0164961D02*
X0278740D01*
X0164173D02*
Y0216929D01*
X0187598Y0308071D02*
Y0319882D01*
X0194291D01*
Y0308071D02*
Y0319882D01*
X0187598Y0308071D02*
X0194291D01*
X0005354Y0105394D02*
X0087244D01*
X0005354D02*
Y0143189D01*
X0087244D01*
Y0105394D02*
Y0143189D01*
X0175051Y0009476D02*
Y0051209D01*
Y0009476D02*
X0256941D01*
Y0051209D01*
X0175051D02*
X0256941D01*
X0083650Y0009476D02*
Y0051209D01*
Y0009476D02*
X0165540D01*
Y0051209D01*
X0083650D02*
X0165540D01*
X0000394Y0168898D02*
Y0212992D01*
Y0168898D02*
X0061417D01*
Y0212992D01*
X0000394D02*
X0061417D01*
X0283720Y0289507D02*
X0304331D01*
X0283720D02*
X0283720Y0289508D01*
Y0299508D01*
X0304331D01*
Y0289507D02*
Y0299508D01*
X0211059Y0326256D02*
X0255941D01*
X0211059D02*
Y0365626D01*
X0255941D01*
Y0326256D02*
Y0365626D01*
X0157760Y0292378D02*
X0209728D01*
X0157760Y0240409D02*
Y0292378D01*
Y0240409D02*
X0209728D01*
Y0292378D01*
X0297244Y0109055D02*
Y0124803D01*
X0311024Y0109055D02*
Y0124803D01*
X0297244Y0109055D02*
X0311024D01*
X0297244Y0124803D02*
X0311024D01*
X0234252D02*
X0248031D01*
X0234252Y0109055D02*
X0248031D01*
Y0124803D01*
X0234252Y0109055D02*
Y0124803D01*
X0171260Y0109055D02*
Y0124803D01*
X0185039Y0109055D02*
Y0124803D01*
X0171260Y0109055D02*
X0185039D01*
X0171260Y0124803D02*
X0185039D01*
X0108268D02*
X0122047D01*
X0108268Y0109055D02*
X0122047D01*
Y0124803D01*
X0108268Y0109055D02*
Y0124803D01*
X0281496Y0109055D02*
Y0124803D01*
X0295276Y0109055D02*
Y0124803D01*
X0281496Y0109055D02*
X0295276D01*
X0281496Y0124803D02*
X0295276D01*
X0218504D02*
X0232283D01*
X0218504Y0109055D02*
X0232283D01*
Y0124803D01*
X0218504Y0109055D02*
Y0124803D01*
X0155512Y0109055D02*
Y0124803D01*
X0169291Y0109055D02*
Y0124803D01*
X0155512Y0109055D02*
X0169291D01*
X0155512Y0124803D02*
X0169291D01*
X0092520D02*
X0106299D01*
X0092520Y0109055D02*
X0106299D01*
Y0124803D01*
X0092520Y0109055D02*
Y0124803D01*
X0265748Y0109055D02*
Y0124803D01*
X0279528Y0109055D02*
Y0124803D01*
X0265748Y0109055D02*
X0279528D01*
X0265748Y0124803D02*
X0279528D01*
X0202756D02*
X0216535D01*
X0202756Y0109055D02*
X0216535D01*
Y0124803D01*
X0202756Y0109055D02*
Y0124803D01*
X0139764Y0109055D02*
Y0124803D01*
X0153543Y0109055D02*
Y0124803D01*
X0139764Y0109055D02*
X0153543D01*
X0139764Y0124803D02*
X0153543D01*
X0250000Y0109055D02*
Y0124803D01*
X0263779Y0109055D02*
Y0124803D01*
X0250000Y0109055D02*
X0263779D01*
X0250000Y0124803D02*
X0263779D01*
X0187008D02*
X0200787D01*
X0187008Y0109055D02*
X0200787D01*
Y0124803D01*
X0187008Y0109055D02*
Y0124803D01*
X0124016Y0109055D02*
Y0124803D01*
X0137795Y0109055D02*
Y0124803D01*
X0124016Y0109055D02*
X0137795D01*
X0124016Y0124803D02*
X0137795D01*
X0298465Y0251724D02*
X0348465D01*
Y0287158D01*
X0298465D02*
X0348465D01*
X0298465Y0251724D02*
Y0287158D01*
Y0302224D02*
X0348465D01*
Y0337657D01*
X0298465D02*
X0348465D01*
X0298465Y0302224D02*
Y0337657D01*
X-0009465Y0287158D02*
X0040535D01*
X-0009465Y0251724D02*
Y0287158D01*
Y0251724D02*
X0040535D01*
Y0287158D01*
X-0009465Y0337657D02*
X0040535D01*
X-0009465Y0302224D02*
Y0337657D01*
Y0302224D02*
X0040535D01*
Y0337657D01*
X0305512Y0124606D02*
Y0131299D01*
X0293701D02*
X0305512D01*
X0293701Y0124606D02*
Y0131299D01*
Y0124606D02*
X0305512D01*
X0242520D02*
Y0131299D01*
X0230709D02*
X0242520D01*
X0230709Y0124606D02*
Y0131299D01*
Y0124606D02*
X0242520D01*
X0179528D02*
Y0131299D01*
X0167717D02*
X0179528D01*
X0167717Y0124606D02*
Y0131299D01*
Y0124606D02*
X0179528D01*
X0116142Y0124606D02*
Y0131299D01*
X0104331D02*
X0116142D01*
X0104331Y0124606D02*
Y0131299D01*
Y0124606D02*
X0116142D01*
X0298031Y0150197D02*
Y0156890D01*
Y0150197D02*
X0309843D01*
Y0156890D01*
X0298031D02*
X0309843D01*
X0252756Y0150197D02*
Y0156890D01*
X0240945D02*
X0252756D01*
X0240945Y0150197D02*
Y0156890D01*
Y0150197D02*
X0252756D01*
X0189764D02*
Y0156890D01*
X0177953D02*
X0189764D01*
X0177953Y0150197D02*
Y0156890D01*
Y0150197D02*
X0189764D01*
X0125984D02*
Y0156890D01*
X0114173D02*
X0125984D01*
X0114173Y0150197D02*
Y0156890D01*
Y0150197D02*
X0125984D01*
X0289764Y0124606D02*
Y0131299D01*
X0277953D02*
X0289764D01*
X0277953Y0124606D02*
Y0131299D01*
Y0124606D02*
X0289764D01*
X0226772D02*
Y0131299D01*
X0214961D02*
X0226772D01*
X0214961Y0124606D02*
Y0131299D01*
Y0124606D02*
X0226772D01*
X0163780Y0124606D02*
Y0131299D01*
X0151968D02*
X0163780D01*
X0151968Y0124606D02*
Y0131299D01*
Y0124606D02*
X0163780D01*
X0100197D02*
Y0131299D01*
X0088386D02*
X0100197D01*
X0088386Y0124606D02*
Y0131299D01*
Y0124606D02*
X0100197D01*
X0298032Y0150197D02*
Y0156890D01*
X0286220D02*
X0298032D01*
X0286220Y0150197D02*
Y0156890D01*
Y0150197D02*
X0298032D01*
X0233465D02*
Y0156890D01*
X0221654D02*
X0233465D01*
X0221654Y0150197D02*
Y0156890D01*
Y0150197D02*
X0233465D01*
X0174016D02*
Y0156890D01*
X0162205D02*
X0174016D01*
X0162205Y0150197D02*
Y0156890D01*
Y0150197D02*
X0174016D01*
X0113780D02*
Y0156890D01*
X0101968D02*
X0113780D01*
X0101968Y0150197D02*
Y0156890D01*
Y0150197D02*
X0113780D01*
X0274016Y0124606D02*
Y0131299D01*
X0262205D02*
X0274016D01*
X0262205Y0124606D02*
Y0131299D01*
Y0124606D02*
X0274016D01*
X0210827D02*
Y0131299D01*
X0199016D02*
X0210827D01*
X0199016Y0124606D02*
Y0131299D01*
Y0124606D02*
X0210827D01*
X0147835Y0124606D02*
Y0131299D01*
X0136023D02*
X0147835D01*
X0136023Y0124606D02*
Y0131299D01*
Y0124606D02*
X0147835D01*
X0284055Y0150197D02*
Y0156890D01*
X0272244D02*
X0284055D01*
X0272244Y0150197D02*
Y0156890D01*
Y0150197D02*
X0284055D01*
X0220866D02*
Y0156890D01*
X0209055D02*
X0220866D01*
X0209055Y0150197D02*
Y0156890D01*
Y0150197D02*
X0220866D01*
X0158268D02*
Y0156890D01*
X0146457D02*
X0158268D01*
X0146457Y0150197D02*
Y0156890D01*
Y0150197D02*
X0158268D01*
X0258268Y0124606D02*
Y0131299D01*
X0246457D02*
X0258268D01*
X0246457Y0124606D02*
Y0131299D01*
Y0124606D02*
X0258268D01*
X0195276D02*
Y0131299D01*
X0183465D02*
X0195276D01*
X0183465Y0124606D02*
Y0131299D01*
Y0124606D02*
X0195276D01*
X0131890Y0124606D02*
Y0131299D01*
X0120079D02*
X0131890D01*
X0120079Y0124606D02*
Y0131299D01*
Y0124606D02*
X0131890D01*
X0268504Y0150197D02*
Y0156890D01*
X0256693D02*
X0268504D01*
X0256693Y0150197D02*
Y0156890D01*
Y0150197D02*
X0268504D01*
X0205512D02*
Y0156890D01*
X0193701D02*
X0205512D01*
X0193701Y0150197D02*
Y0156890D01*
Y0150197D02*
X0205512D01*
X0142126D02*
Y0156890D01*
X0130315D02*
X0142126D01*
X0130315Y0150197D02*
Y0156890D01*
Y0150197D02*
X0142126D01*
X0089567Y0313189D02*
Y0319882D01*
X0077756D02*
X0089567D01*
X0077756Y0313189D02*
Y0319882D01*
Y0313189D02*
X0089567D01*
X0092323Y0329921D02*
X0099016D01*
X0092323Y0318110D02*
Y0329921D01*
Y0318110D02*
X0099016D01*
Y0329921D01*
X0215201Y0260606D02*
Y0267299D01*
Y0260606D02*
X0227012D01*
Y0267299D01*
X0215201D02*
X0227012D01*
X0215201Y0254106D02*
Y0260799D01*
Y0254106D02*
X0227012D01*
Y0260799D01*
X0215201D02*
X0227012D01*
X0184843Y0237795D02*
X0191535D01*
X0184843Y0225984D02*
Y0237795D01*
Y0225984D02*
X0191535D01*
Y0237795D01*
X0269488Y0242756D02*
X0276181D01*
X0269488Y0230945D02*
Y0242756D01*
Y0230945D02*
X0276181D01*
Y0242756D01*
X0276575D02*
X0283268D01*
X0276575Y0230945D02*
Y0242756D01*
Y0230945D02*
X0283268D01*
Y0242756D01*
X0213976Y0311023D02*
X0220669D01*
Y0322835D01*
X0213976D02*
X0220669D01*
X0213976Y0311023D02*
Y0322835D01*
X0222350Y0322709D02*
X0229043D01*
X0222350Y0310897D02*
Y0322709D01*
Y0310897D02*
X0229043D01*
Y0322709D01*
X0229350D02*
X0236043D01*
X0229350Y0310897D02*
Y0322709D01*
Y0310897D02*
X0236043D01*
Y0322709D01*
X0236350D02*
X0243043D01*
X0236350Y0310897D02*
Y0322709D01*
Y0310897D02*
X0243043D01*
Y0322709D01*
X0285630Y0275197D02*
X0292323D01*
Y0287008D01*
X0285630D02*
X0292323D01*
X0285630Y0275197D02*
Y0287008D01*
X0273406Y0344094D02*
Y0350787D01*
X0261594D02*
X0273406D01*
X0261594Y0344094D02*
Y0350787D01*
Y0344094D02*
X0273406D01*
X0227953Y0267717D02*
X0237402D01*
X0227953Y0253543D02*
Y0267717D01*
Y0253543D02*
X0237402D01*
Y0267717D01*
X0275587Y0352898D02*
Y0359984D01*
X0261413D02*
X0275587D01*
X0261413Y0352898D02*
Y0359984D01*
Y0352898D02*
X0275587D01*
X0044882Y0211811D02*
Y0262992D01*
Y0211811D02*
X0100000D01*
Y0262992D01*
X0044882D02*
X0100000D01*
X0236811Y0271654D02*
Y0283465D01*
X0230118Y0271654D02*
X0236811D01*
X0230118D02*
Y0283465D01*
X0236811D01*
X0090354Y0319882D02*
Y0341535D01*
X0060827Y0319882D02*
X0090354D01*
X0060827D02*
Y0341535D01*
X0090354D01*
X0269488Y0260236D02*
X0283268D01*
X0269488Y0244488D02*
X0283268D01*
Y0260236D01*
X0269488Y0244488D02*
Y0260236D01*
X0092323Y0329921D02*
X0099016D01*
Y0341732D01*
X0092323D02*
X0099016D01*
X0092323Y0329921D02*
Y0341732D01*
X0102559Y0240945D02*
X0109252D01*
Y0252756D01*
X0102559D02*
X0109252D01*
X0102559Y0240945D02*
Y0252756D01*
X0222441Y0269291D02*
Y0287402D01*
X0213779Y0269291D02*
X0222441D01*
X0213779D02*
Y0287402D01*
X0222441D01*
X0223032Y0271654D02*
X0229724D01*
Y0283465D01*
X0223032D02*
X0229724D01*
X0223032Y0271654D02*
Y0283465D01*
X0175591Y0300591D02*
Y0307283D01*
X0163779D02*
X0175591D01*
X0163779Y0300591D02*
Y0307283D01*
Y0300591D02*
X0175591D01*
X0192339Y0226047D02*
Y0232740D01*
Y0226047D02*
X0204150D01*
Y0232740D01*
X0192339D02*
X0204150D01*
X0148228Y0256496D02*
X0154921D01*
X0148228Y0244685D02*
Y0256496D01*
Y0244685D02*
X0154921D01*
Y0256496D01*
X0206693Y0302953D02*
Y0309646D01*
X0194882D02*
X0206693D01*
X0194882Y0302953D02*
Y0309646D01*
Y0302953D02*
X0206693D01*
X0271260Y0261221D02*
Y0267913D01*
Y0261221D02*
X0283071D01*
Y0267913D01*
X0271260D02*
X0283071D01*
X0268307Y0248425D02*
Y0260236D01*
X0261614Y0248425D02*
X0268307D01*
X0261614D02*
Y0260236D01*
X0268307D01*
X0050137Y0012205D02*
Y0052895D01*
X0050138Y0052894D01*
X0060138D01*
Y0012205D02*
Y0052894D01*
X0050137Y0012205D02*
X0060138D01*
X0282283Y0143504D02*
Y0150197D01*
Y0143504D02*
X0294094D01*
Y0150197D01*
X0282283D02*
X0294094D01*
X0279921Y0217717D02*
X0331102D01*
X0279921Y0162598D02*
Y0217717D01*
Y0162598D02*
X0331102D01*
Y0217717D01*
X0039094Y0055563D02*
Y0065799D01*
Y0055563D02*
X0299331D01*
Y0065799D01*
X0039094D02*
X0299331D01*
X0009094Y0075984D02*
Y0086221D01*
Y0075984D02*
X0329173D01*
Y0086221D01*
X0009094D02*
X0329173D01*
M02*
