G04 Layer_Color=128*
%FSAX25Y25*%
%MOIN*%
G70*
G01*
G75*
%ADD13R,0.03543X0.02362*%
%ADD16R,0.03150X0.03543*%
%ADD17R,0.02362X0.03543*%
%ADD22R,0.01968X0.03937*%
%ADD25R,0.08268X0.02362*%
%ADD30C,0.03937*%
%ADD57R,0.06496X0.01575*%
%ADD58R,0.05118X0.07087*%
%ADD59R,0.07874X0.03543*%
%ADD60R,0.07874X0.03780*%
%ADD61R,0.06299X0.01693*%
%ADD62R,0.06299X0.01496*%
%ADD63R,0.06299X0.04331*%
%ADD64R,0.07874X0.09055*%
%ADD65R,0.03937X0.01968*%
%ADD66R,0.03543X0.03150*%
%ADD67R,0.09055X0.07874*%
%ADD68R,0.04724X0.02362*%
%ADD69R,0.04724X0.02756*%
%ADD70R,0.04331X0.06299*%
%ADD71C,0.06299*%
%ADD72C,0.05512*%
G36*
X0080709Y0280236D02*
Y0276457D01*
X0078209Y0273957D01*
X0072579D01*
X0070079Y0276457D01*
Y0280236D01*
X0072579Y0282736D01*
X0078209D01*
X0080709Y0280236D01*
D02*
G37*
D13*
X0050000Y0311221D02*
D03*
Y0305315D02*
D03*
X0057480Y0305248D02*
D03*
Y0311154D02*
D03*
X0292543Y0328776D02*
D03*
Y0334681D02*
D03*
X0289000Y0278094D02*
D03*
Y0284000D02*
D03*
X0057480Y0317913D02*
D03*
Y0323819D02*
D03*
X0050000Y0298622D02*
D03*
Y0292717D02*
D03*
X0285543Y0322181D02*
D03*
Y0316276D02*
D03*
X0281890Y0278150D02*
D03*
Y0272244D02*
D03*
X0050000Y0317913D02*
D03*
Y0323819D02*
D03*
X0057480Y0298654D02*
D03*
Y0292748D02*
D03*
X0292543Y0322181D02*
D03*
Y0316276D02*
D03*
X0289000Y0271500D02*
D03*
Y0265594D02*
D03*
X0200787Y0234842D02*
D03*
Y0228937D02*
D03*
X0179528Y0229724D02*
D03*
Y0223819D02*
D03*
X0287402Y0126575D02*
D03*
Y0120669D02*
D03*
X0122835Y0321063D02*
D03*
Y0326969D02*
D03*
X0130315Y0321063D02*
D03*
Y0326969D02*
D03*
X0075000Y0328394D02*
D03*
Y0322488D02*
D03*
X0068000Y0328394D02*
D03*
Y0322488D02*
D03*
X0116142Y0148622D02*
D03*
Y0154528D02*
D03*
X0207480Y0170669D02*
D03*
Y0176575D02*
D03*
X0051772Y0161024D02*
D03*
Y0155118D02*
D03*
X0234252Y0173819D02*
D03*
Y0167913D02*
D03*
X0058465Y0160925D02*
D03*
Y0155020D02*
D03*
X0045079Y0143307D02*
D03*
Y0149213D02*
D03*
Y0155118D02*
D03*
Y0161024D02*
D03*
X0294094Y0126575D02*
D03*
Y0120669D02*
D03*
X0300787Y0126575D02*
D03*
Y0120669D02*
D03*
X0057480Y0267520D02*
D03*
Y0273425D02*
D03*
X0271260Y0136811D02*
D03*
Y0130905D02*
D03*
X0051772Y0143307D02*
D03*
Y0149213D02*
D03*
X0315354Y0186811D02*
D03*
Y0192717D02*
D03*
X0189764Y0134449D02*
D03*
Y0128543D02*
D03*
X0241732Y0184449D02*
D03*
Y0178543D02*
D03*
D16*
X0126772Y0140551D02*
D03*
X0130512Y0148425D02*
D03*
X0123031D02*
D03*
X0015551Y0155905D02*
D03*
X0019291Y0163779D02*
D03*
X0011811D02*
D03*
X0098032Y0133858D02*
D03*
X0101772Y0141732D02*
D03*
X0094291D02*
D03*
D17*
X0265158Y0312598D02*
D03*
X0259252D02*
D03*
X0102953Y0310941D02*
D03*
X0097047D02*
D03*
X0123819Y0154331D02*
D03*
X0129724D02*
D03*
X0226575Y0150787D02*
D03*
X0232480D02*
D03*
X0131693Y0292126D02*
D03*
X0137598D02*
D03*
X0125787Y0216142D02*
D03*
X0131693D02*
D03*
Y0222835D02*
D03*
X0125787D02*
D03*
X0064370Y0340551D02*
D03*
X0070276D02*
D03*
X0051772D02*
D03*
X0057677D02*
D03*
X0296654Y0133071D02*
D03*
X0302559D02*
D03*
X0273429Y0034130D02*
D03*
X0267524D02*
D03*
X0074606Y0034252D02*
D03*
X0068701D02*
D03*
X0267524Y0044130D02*
D03*
X0273429D02*
D03*
X0068701Y0043701D02*
D03*
X0074606D02*
D03*
X0199409Y0345669D02*
D03*
X0193504D02*
D03*
X0196260Y0134646D02*
D03*
X0202165D02*
D03*
Y0127953D02*
D03*
X0196260D02*
D03*
X0246260D02*
D03*
X0252165D02*
D03*
X0246260Y0140157D02*
D03*
X0252165D02*
D03*
X0258071Y0127953D02*
D03*
X0263976D02*
D03*
X0258071Y0140157D02*
D03*
X0263976D02*
D03*
X0127362Y0126772D02*
D03*
X0121457D02*
D03*
X0098622Y0126378D02*
D03*
X0092716D02*
D03*
X0104134Y0154331D02*
D03*
X0110039D02*
D03*
X0084055Y0301575D02*
D03*
X0078150D02*
D03*
X0064370Y0223228D02*
D03*
X0070276D02*
D03*
X0227362Y0176772D02*
D03*
X0221457D02*
D03*
X0193898Y0207087D02*
D03*
X0199803D02*
D03*
X0256496Y0185039D02*
D03*
X0250590D02*
D03*
X0256496Y0202362D02*
D03*
X0250590D02*
D03*
Y0193701D02*
D03*
X0256496D02*
D03*
X0104134Y0147638D02*
D03*
X0110039D02*
D03*
D22*
X0008858Y0148819D02*
D03*
X0012598D02*
D03*
X0016339D02*
D03*
Y0138583D02*
D03*
X0008858D02*
D03*
X0012598D02*
D03*
D25*
X0088583Y0247657D02*
D03*
Y0242657D02*
D03*
Y0237657D02*
D03*
Y0232658D02*
D03*
X0069685Y0247657D02*
D03*
Y0242657D02*
D03*
Y0237657D02*
D03*
Y0232658D02*
D03*
X0284646Y0252382D02*
D03*
Y0247382D02*
D03*
Y0242382D02*
D03*
Y0237382D02*
D03*
X0265748Y0252382D02*
D03*
Y0247382D02*
D03*
Y0242382D02*
D03*
Y0237382D02*
D03*
X0311024Y0120453D02*
D03*
Y0125453D02*
D03*
Y0130453D02*
D03*
Y0135453D02*
D03*
X0329921Y0120453D02*
D03*
Y0125453D02*
D03*
Y0130453D02*
D03*
Y0135453D02*
D03*
X0213386Y0127146D02*
D03*
Y0132146D02*
D03*
Y0137146D02*
D03*
Y0142146D02*
D03*
X0232283Y0127146D02*
D03*
Y0132146D02*
D03*
Y0137146D02*
D03*
Y0142146D02*
D03*
X0216535Y0199626D02*
D03*
Y0194626D02*
D03*
Y0189626D02*
D03*
Y0184626D02*
D03*
X0197638Y0199626D02*
D03*
Y0194626D02*
D03*
Y0189626D02*
D03*
Y0184626D02*
D03*
D30*
X0031496Y0007874D02*
D03*
X0307087D02*
D03*
X0009843Y0344488D02*
D03*
D57*
X0276083Y0301772D02*
D03*
Y0299213D02*
D03*
Y0296654D02*
D03*
Y0294094D02*
D03*
Y0291535D02*
D03*
Y0288976D02*
D03*
Y0286417D02*
D03*
X0248327Y0301772D02*
D03*
Y0299213D02*
D03*
Y0296654D02*
D03*
Y0294094D02*
D03*
Y0291535D02*
D03*
Y0288976D02*
D03*
Y0286417D02*
D03*
D58*
X0073622Y0293307D02*
D03*
X0085433D02*
D03*
D59*
X0084646Y0272441D02*
D03*
Y0284252D02*
D03*
D60*
Y0278346D02*
D03*
D61*
X0113386Y0341055D02*
D03*
Y0317827D02*
D03*
X0086614Y0341055D02*
D03*
Y0317827D02*
D03*
D62*
X0113386Y0338398D02*
D03*
Y0335839D02*
D03*
Y0333279D02*
D03*
Y0330720D02*
D03*
Y0328161D02*
D03*
Y0325602D02*
D03*
Y0323043D02*
D03*
Y0320484D02*
D03*
X0086614Y0338398D02*
D03*
Y0335839D02*
D03*
Y0333279D02*
D03*
Y0330720D02*
D03*
Y0328161D02*
D03*
Y0325602D02*
D03*
Y0323043D02*
D03*
Y0320484D02*
D03*
D63*
X0113386Y0127953D02*
D03*
Y0139764D02*
D03*
X0296850Y0195276D02*
D03*
Y0183465D02*
D03*
X0306693Y0195276D02*
D03*
Y0183465D02*
D03*
D64*
X0088740Y0257480D02*
D03*
X0069528D02*
D03*
X0284409Y0224803D02*
D03*
X0265197D02*
D03*
X0068268Y0213386D02*
D03*
X0049055D02*
D03*
D65*
X0117717Y0112205D02*
D03*
Y0115945D02*
D03*
Y0119685D02*
D03*
X0127953D02*
D03*
Y0112205D02*
D03*
Y0115945D02*
D03*
X0093307Y0112402D02*
D03*
Y0116142D02*
D03*
Y0119882D02*
D03*
X0103543D02*
D03*
Y0112402D02*
D03*
Y0116142D02*
D03*
X0078740Y0020472D02*
D03*
Y0016732D02*
D03*
Y0024213D02*
D03*
X0068504D02*
D03*
Y0020472D02*
D03*
Y0016732D02*
D03*
X0275590Y0020079D02*
D03*
Y0016339D02*
D03*
Y0023819D02*
D03*
X0265354D02*
D03*
Y0020079D02*
D03*
Y0016339D02*
D03*
D66*
X0242913Y0151181D02*
D03*
X0256299D02*
D03*
D67*
X0196457Y0021496D02*
D03*
Y0040709D02*
D03*
X0103937Y0021102D02*
D03*
Y0040315D02*
D03*
D68*
X0242520Y0202559D02*
D03*
Y0198819D02*
D03*
Y0195079D02*
D03*
D69*
X0233071D02*
D03*
Y0202559D02*
D03*
D70*
X0081496Y0175197D02*
D03*
X0093307D02*
D03*
X0081496Y0164961D02*
D03*
X0093307D02*
D03*
D71*
X0212205Y0222835D02*
D03*
X0257480Y0264173D02*
D03*
X0073032Y0153543D02*
D03*
X0216142Y0205118D02*
D03*
X0101969Y0170079D02*
D03*
X0070472Y0307874D02*
D03*
X0096063Y0295669D02*
D03*
X0109449D02*
D03*
X0144882Y0257480D02*
D03*
X0180709Y0270866D02*
D03*
X0205906Y0244488D02*
D03*
X0217323Y0235827D02*
D03*
X0022441Y0212598D02*
D03*
D72*
X0162598Y0254331D02*
D03*
M02*
