G04 Layer_Color=65535*
%FSAX25Y25*%
%MOIN*%
G70*
G01*
G75*
%ADD33C,0.01181*%
%ADD34C,0.00984*%
%ADD39C,0.01575*%
%ADD76C,0.02362*%
%ADD77C,0.01000*%
%ADD78C,0.00787*%
D33*
X0062205Y0048031D02*
X0071260D01*
X0062205D02*
X0064567Y0050394D01*
X0062205Y0048031D02*
X0064567Y0045669D01*
X0062205Y0037008D02*
X0071260D01*
X0068898Y0039370D02*
X0071260Y0037008D01*
X0068898Y0034646D02*
X0071260Y0037008D01*
D34*
X0206874Y0248874D02*
X0206136Y0249300D01*
Y0248448D01*
X0206874Y0248874D01*
X0311319Y0120866D02*
X0310581Y0121292D01*
Y0120440D01*
X0311319Y0120866D01*
X0248327D02*
X0247589Y0121292D01*
Y0120440D01*
X0248327Y0120866D01*
X0185335D02*
X0184596Y0121292D01*
Y0120440D01*
X0185335Y0120866D01*
X0122343D02*
X0121604Y0121292D01*
Y0120440D01*
X0122343Y0120866D01*
X0295571D02*
X0294833Y0121292D01*
Y0120440D01*
X0295571Y0120866D01*
X0232579D02*
X0231840Y0121292D01*
Y0120440D01*
X0232579Y0120866D01*
X0169587D02*
X0168848Y0121292D01*
Y0120440D01*
X0169587Y0120866D01*
X0106595D02*
X0105856Y0121292D01*
Y0120440D01*
X0106595Y0120866D01*
X0279823D02*
X0279085Y0121292D01*
Y0120440D01*
X0279823Y0120866D01*
X0216831D02*
X0216092Y0121292D01*
Y0120440D01*
X0216831Y0120866D01*
X0153839D02*
X0153100Y0121292D01*
Y0120440D01*
X0153839Y0120866D01*
X0264075D02*
X0263337Y0121292D01*
Y0120440D01*
X0264075Y0120866D01*
X0201083D02*
X0200344Y0121292D01*
Y0120440D01*
X0201083Y0120866D01*
X0138091D02*
X0137352Y0121292D01*
Y0120440D01*
X0138091Y0120866D01*
X0066634Y0341555D02*
X0065896Y0341981D01*
Y0341129D01*
X0066634Y0341555D01*
X0283563Y0256299D02*
X0282825Y0256725D01*
Y0255873D01*
X0283563Y0256299D01*
X0116535Y0096455D02*
Y0090551D01*
X0119487D01*
X0120471Y0091535D01*
Y0095471D01*
X0119487Y0096455D01*
X0116535D01*
X0125391Y0090551D02*
X0123423D01*
X0122439Y0091535D01*
Y0093503D01*
X0123423Y0094487D01*
X0125391D01*
X0126375Y0093503D01*
Y0092519D01*
X0122439D01*
X0128343Y0090551D02*
X0131294D01*
X0132278Y0091535D01*
X0131294Y0092519D01*
X0129327D01*
X0128343Y0093503D01*
X0129327Y0094487D01*
X0132278D01*
X0134246Y0090551D02*
X0136214D01*
X0135230D01*
Y0094487D01*
X0134246D01*
X0141134Y0088583D02*
X0142118D01*
X0143102Y0089567D01*
Y0094487D01*
X0140150D01*
X0139166Y0093503D01*
Y0091535D01*
X0140150Y0090551D01*
X0143102D01*
X0145070D02*
Y0094487D01*
X0148021D01*
X0149005Y0093503D01*
Y0090551D01*
X0153925D02*
X0151957D01*
X0150973Y0091535D01*
Y0093503D01*
X0151957Y0094487D01*
X0153925D01*
X0154909Y0093503D01*
Y0092519D01*
X0150973D01*
X0160812Y0096455D02*
Y0090551D01*
X0157861D01*
X0156877Y0091535D01*
Y0093503D01*
X0157861Y0094487D01*
X0160812D01*
X0168684Y0096455D02*
Y0090551D01*
X0171636D01*
X0172620Y0091535D01*
Y0092519D01*
Y0093503D01*
X0171636Y0094487D01*
X0168684D01*
X0174588D02*
Y0091535D01*
X0175571Y0090551D01*
X0178523D01*
Y0089567D01*
X0177539Y0088583D01*
X0176555D01*
X0178523Y0090551D02*
Y0094487D01*
X0186395Y0096455D02*
X0188363D01*
X0187379D01*
Y0090551D01*
X0186395D01*
X0188363D01*
X0191314Y0094487D02*
X0193282Y0090551D01*
X0195250Y0094487D01*
X0198202D02*
X0200170D01*
X0201154Y0093503D01*
Y0090551D01*
X0198202D01*
X0197218Y0091535D01*
X0198202Y0092519D01*
X0201154D01*
X0203122Y0090551D02*
Y0094487D01*
X0206073D01*
X0207057Y0093503D01*
Y0090551D01*
X0214929D02*
Y0096455D01*
X0217881D01*
X0218864Y0095471D01*
Y0093503D01*
X0217881Y0092519D01*
X0214929D01*
X0223784Y0090551D02*
X0221816D01*
X0220832Y0091535D01*
Y0093503D01*
X0221816Y0094487D01*
X0223784D01*
X0224768Y0093503D01*
Y0092519D01*
X0220832D01*
X0226736Y0094487D02*
Y0090551D01*
Y0092519D01*
X0227720Y0093503D01*
X0228704Y0094487D01*
X0229688D01*
X0235591Y0090551D02*
X0233624D01*
X0232640Y0091535D01*
Y0093503D01*
X0233624Y0094487D01*
X0235591D01*
X0236575Y0093503D01*
Y0092519D01*
X0232640D01*
X0238543Y0096455D02*
Y0090551D01*
Y0093503D01*
X0239527Y0094487D01*
X0241495D01*
X0242479Y0093503D01*
Y0090551D01*
X0244447D02*
X0246415D01*
X0245431D01*
Y0094487D01*
X0244447D01*
X0249366Y0090551D02*
Y0094487D01*
X0252318D01*
X0253302Y0093503D01*
Y0090551D01*
X0255270D02*
X0257238D01*
X0256254D01*
Y0094487D01*
X0255270D01*
X0261174D02*
X0263141D01*
X0264125Y0093503D01*
Y0090551D01*
X0261174D01*
X0260190Y0091535D01*
X0261174Y0092519D01*
X0264125D01*
X0266093Y0090551D02*
Y0096455D01*
Y0092519D02*
X0269045Y0094487D01*
X0266093Y0092519D02*
X0269045Y0090551D01*
D39*
X0075984Y0337402D02*
X0075440Y0338150D01*
X0074560Y0337864D01*
Y0336939D01*
X0075440Y0336653D01*
X0075984Y0337402D01*
D76*
X0199689Y0251630D02*
X0199244Y0252553D01*
X0198245Y0252781D01*
X0197444Y0252142D01*
Y0251117D01*
X0198245Y0250478D01*
X0199244Y0250707D01*
X0199689Y0251630D01*
D77*
X0291437Y0035236D02*
X0290650D01*
X0291437D01*
X0012106D02*
X0011319D01*
X0012106D01*
X0085995Y0145551D02*
X0085576Y0146422D01*
X0084634Y0146637D01*
X0083879Y0146034D01*
Y0145068D01*
X0084634Y0144466D01*
X0085576Y0144681D01*
X0085995Y0145551D01*
X0144095Y0314173D02*
Y0319685D01*
X0105413Y0262303D02*
X0125197D01*
Y0306004D01*
X0125295Y0306102D01*
X0105413D02*
X0125295D01*
X0105413Y0262303D02*
Y0306102D01*
D78*
X0103540Y0188976D02*
X0103515Y0189977D01*
X0103440Y0190975D01*
X0103315Y0191968D01*
X0103141Y0192954D01*
X0102919Y0193930D01*
X0102648Y0194894D01*
X0102329Y0195842D01*
X0101963Y0196774D01*
X0101551Y0197687D01*
X0101095Y0198577D01*
X0100594Y0199444D01*
X0100051Y0200285D01*
X0099467Y0201098D01*
X0098843Y0201880D01*
X0098181Y0202631D01*
X0097482Y0203347D01*
X0096748Y0204028D01*
X0095981Y0204672D01*
X0095183Y0205276D01*
X0094356Y0205840D01*
X0093502Y0206362D01*
X0092623Y0206840D01*
X0091721Y0207275D01*
X0090799Y0207664D01*
X0089858Y0208006D01*
X0088902Y0208301D01*
X0087932Y0208548D01*
X0086950Y0208746D01*
X0085961Y0208895D01*
X0084965Y0208995D01*
X0083965Y0209045D01*
X0082964D01*
X0081964Y0208995D01*
X0080968Y0208895D01*
X0079979Y0208746D01*
X0078997Y0208548D01*
X0078027Y0208301D01*
X0077071Y0208006D01*
X0076130Y0207664D01*
X0075208Y0207275D01*
X0074306Y0206840D01*
X0073427Y0206362D01*
X0072573Y0205840D01*
X0071746Y0205276D01*
X0070948Y0204672D01*
X0070181Y0204028D01*
X0069448Y0203347D01*
X0068749Y0202631D01*
X0068086Y0201880D01*
X0067462Y0201098D01*
X0066878Y0200285D01*
X0066335Y0199444D01*
X0065834Y0198577D01*
X0065378Y0197687D01*
X0064966Y0196774D01*
X0064600Y0195842D01*
X0064282Y0194894D01*
X0064011Y0193930D01*
X0063788Y0192954D01*
X0063614Y0191968D01*
X0063489Y0190975D01*
X0063415Y0189977D01*
X0063390Y0188976D01*
X0063415Y0187976D01*
X0063489Y0186978D01*
X0063614Y0185984D01*
X0063788Y0184999D01*
X0064011Y0184023D01*
X0064282Y0183059D01*
X0064600Y0182110D01*
X0064966Y0181179D01*
X0065378Y0180266D01*
X0065834Y0179376D01*
X0066335Y0178509D01*
X0066878Y0177668D01*
X0067462Y0176855D01*
X0068086Y0176073D01*
X0068749Y0175322D01*
X0069448Y0174605D01*
X0070181Y0173925D01*
X0070948Y0173281D01*
X0071746Y0172677D01*
X0072573Y0172113D01*
X0073427Y0171591D01*
X0074306Y0171112D01*
X0075208Y0170678D01*
X0076130Y0170289D01*
X0077071Y0169947D01*
X0078027Y0169652D01*
X0078997Y0169405D01*
X0079979Y0169207D01*
X0080968Y0169057D01*
X0081964Y0168958D01*
X0082964Y0168908D01*
X0083965D01*
X0084965Y0168958D01*
X0085961Y0169057D01*
X0086951Y0169207D01*
X0087932Y0169405D01*
X0088902Y0169652D01*
X0089858Y0169947D01*
X0090799Y0170289D01*
X0091721Y0170678D01*
X0092623Y0171112D01*
X0093502Y0171591D01*
X0094356Y0172113D01*
X0095183Y0172677D01*
X0095981Y0173281D01*
X0096748Y0173925D01*
X0097482Y0174606D01*
X0098181Y0175322D01*
X0098843Y0176073D01*
X0099467Y0176855D01*
X0100051Y0177668D01*
X0100594Y0178509D01*
X0101095Y0179376D01*
X0101551Y0180266D01*
X0101963Y0181179D01*
X0102329Y0182110D01*
X0102648Y0183059D01*
X0102919Y0184023D01*
X0103141Y0184999D01*
X0103315Y0185985D01*
X0103440Y0186978D01*
X0103515Y0187976D01*
X0103540Y0188976D01*
X0146453Y0188583D02*
X0146428Y0189583D01*
X0146353Y0190582D01*
X0146229Y0191575D01*
X0146055Y0192560D01*
X0145832Y0193536D01*
X0145561Y0194500D01*
X0145242Y0195449D01*
X0144877Y0196380D01*
X0144465Y0197293D01*
X0144008Y0198184D01*
X0143508Y0199050D01*
X0142965Y0199891D01*
X0142380Y0200704D01*
X0141756Y0201487D01*
X0141094Y0202237D01*
X0140395Y0202954D01*
X0139661Y0203634D01*
X0138894Y0204278D01*
X0138096Y0204882D01*
X0137269Y0205446D01*
X0136415Y0205968D01*
X0135536Y0206447D01*
X0134634Y0206881D01*
X0133712Y0207270D01*
X0132772Y0207612D01*
X0131815Y0207907D01*
X0130845Y0208154D01*
X0129864Y0208353D01*
X0128874Y0208502D01*
X0127878Y0208601D01*
X0126878Y0208651D01*
X0125877D01*
X0124878Y0208601D01*
X0123882Y0208502D01*
X0122892Y0208353D01*
X0121911Y0208154D01*
X0120941Y0207907D01*
X0119984Y0207612D01*
X0119044Y0207270D01*
X0118121Y0206881D01*
X0117220Y0206447D01*
X0116340Y0205968D01*
X0115486Y0205446D01*
X0114659Y0204882D01*
X0113862Y0204278D01*
X0113095Y0203635D01*
X0112361Y0202954D01*
X0111662Y0202237D01*
X0111000Y0201487D01*
X0110376Y0200704D01*
X0109791Y0199891D01*
X0109248Y0199050D01*
X0108748Y0198184D01*
X0108291Y0197293D01*
X0107879Y0196380D01*
X0107514Y0195449D01*
X0107195Y0194500D01*
X0106924Y0193536D01*
X0106701Y0192560D01*
X0106527Y0191575D01*
X0106403Y0190582D01*
X0106328Y0189583D01*
X0106303Y0188583D01*
X0106328Y0187582D01*
X0106403Y0186584D01*
X0106527Y0185591D01*
X0106701Y0184605D01*
X0106924Y0183629D01*
X0107195Y0182666D01*
X0107514Y0181717D01*
X0107879Y0180785D01*
X0108291Y0179873D01*
X0108748Y0178982D01*
X0109248Y0178115D01*
X0109791Y0177274D01*
X0110376Y0176461D01*
X0111000Y0175679D01*
X0111662Y0174928D01*
X0112361Y0174212D01*
X0113095Y0173531D01*
X0113862Y0172888D01*
X0114659Y0172283D01*
X0115486Y0171719D01*
X0116340Y0171197D01*
X0117220Y0170719D01*
X0118122Y0170284D01*
X0119044Y0169896D01*
X0119984Y0169553D01*
X0120941Y0169258D01*
X0121911Y0169011D01*
X0122892Y0168813D01*
X0123882Y0168664D01*
X0124878Y0168564D01*
X0125877Y0168514D01*
X0126878D01*
X0127878Y0168564D01*
X0128874Y0168664D01*
X0129864Y0168813D01*
X0130845Y0169011D01*
X0131815Y0169258D01*
X0132772Y0169553D01*
X0133712Y0169896D01*
X0134634Y0170284D01*
X0135536Y0170719D01*
X0136416Y0171197D01*
X0137270Y0171719D01*
X0138097Y0172283D01*
X0138894Y0172888D01*
X0139661Y0173531D01*
X0140395Y0174212D01*
X0141094Y0174928D01*
X0141756Y0175679D01*
X0142380Y0176461D01*
X0142965Y0177274D01*
X0143508Y0178115D01*
X0144008Y0178982D01*
X0144465Y0179873D01*
X0144877Y0180785D01*
X0145242Y0181717D01*
X0145561Y0182666D01*
X0145832Y0183629D01*
X0146055Y0184605D01*
X0146229Y0185591D01*
X0146353Y0186584D01*
X0146428Y0187582D01*
X0146453Y0188583D01*
X0048912Y0050787D02*
X0048472Y0051550D01*
X0047591D01*
X0047151Y0050787D01*
X0047591Y0050025D01*
X0048472D01*
X0048912Y0050787D01*
X0318701Y0046850D02*
Y0050000D01*
X0314764D02*
X0318701D01*
X0302953Y0046850D02*
Y0050787D01*
Y0046850D02*
X0314764D01*
Y0053150D01*
X0302953D02*
X0314764D01*
X0302953Y0050000D02*
Y0053150D01*
X0299016Y0050000D02*
X0302953D01*
X0299016Y0046850D02*
Y0050000D01*
X0019685Y0046850D02*
Y0050000D01*
X0023622D01*
Y0053150D01*
X0035433D01*
Y0046850D02*
Y0053150D01*
X0023622Y0046850D02*
X0035433D01*
X0023622D02*
Y0050787D01*
X0035433Y0050000D02*
X0039370D01*
Y0046850D02*
Y0050000D01*
X0127559Y0217717D02*
X0129528Y0215748D01*
X0127559Y0213779D02*
X0129528Y0215748D01*
X0127559Y0213779D02*
Y0217717D01*
X0129921Y0213779D02*
Y0217717D01*
X0125591Y0212992D02*
X0132283D01*
X0125591Y0218504D02*
X0132283D01*
X0127559Y0224803D02*
X0129528Y0222835D01*
X0127559Y0220866D02*
X0129528Y0222835D01*
X0127559Y0220866D02*
Y0224803D01*
X0129921Y0220866D02*
Y0224803D01*
X0125591Y0220079D02*
X0132283D01*
X0125591Y0225591D02*
X0132283D01*
X0147753Y0217919D02*
X0151372Y0221538D01*
X0150467Y0222443D02*
X0151372Y0221538D01*
X0146848Y0218824D02*
X0147753Y0217919D01*
X0144134Y0228776D02*
X0145039Y0227872D01*
X0140515Y0225157D02*
X0141420Y0224253D01*
X0140515Y0225157D02*
X0144134Y0228776D01*
X0135910Y0220314D02*
X0139529Y0223933D01*
X0135910Y0220314D02*
X0136815Y0219409D01*
X0139529Y0223933D02*
X0140434Y0223028D01*
X0142243Y0213980D02*
X0143148Y0213075D01*
X0145862Y0217599D02*
X0146767Y0216694D01*
X0143148Y0213075D02*
X0146767Y0216694D01*
X0150557Y0208892D02*
Y0211676D01*
X0147773Y0208892D02*
X0150557D01*
X0147773D02*
X0150557Y0211676D01*
X0149443Y0207222D02*
X0152227Y0210006D01*
X0145824Y0209727D02*
X0150557Y0204995D01*
X0149722Y0213625D02*
X0154454Y0208892D01*
X0155484Y0213808D02*
Y0216591D01*
X0152700Y0213808D02*
X0155484D01*
X0152700D02*
X0155484Y0216591D01*
X0154370Y0212137D02*
X0157154Y0214921D01*
X0150751Y0214643D02*
X0155484Y0209910D01*
X0154649Y0218540D02*
X0159381Y0213808D01*
X0141535Y0312205D02*
X0146653D01*
X0141535Y0310925D02*
Y0312205D01*
X0146653Y0310925D02*
Y0312205D01*
X0141535Y0301969D02*
Y0303248D01*
X0146653Y0301969D02*
Y0303248D01*
X0141535Y0301969D02*
X0146653D01*
X0148228Y0301969D02*
X0153347D01*
Y0303248D01*
X0148228Y0301969D02*
Y0303248D01*
X0153347Y0310925D02*
Y0312205D01*
X0148228Y0310925D02*
Y0312205D01*
X0153347D01*
X0134843Y0305906D02*
X0139961D01*
Y0307185D01*
X0134843Y0305906D02*
Y0307185D01*
X0139961Y0314862D02*
Y0316142D01*
X0134843Y0314862D02*
Y0316142D01*
X0139961D01*
X0128150Y0316142D02*
X0133268D01*
X0128150Y0314862D02*
Y0316142D01*
X0133268Y0314862D02*
Y0316142D01*
X0128150Y0305906D02*
Y0307185D01*
X0133268Y0305906D02*
Y0307185D01*
X0128150Y0305906D02*
X0133268D01*
X0133465Y0294094D02*
Y0300787D01*
X0127953Y0294094D02*
Y0300787D01*
X0128740Y0296457D02*
X0132677D01*
X0128740Y0298819D02*
X0132677D01*
X0128740D02*
X0130709Y0296850D01*
X0132677Y0298819D01*
X0140551Y0294094D02*
Y0300787D01*
X0135039Y0294094D02*
Y0300787D01*
X0135827Y0296457D02*
X0139764D01*
X0135827Y0298819D02*
X0139764D01*
X0135827D02*
X0137795Y0296850D01*
X0139764Y0298819D01*
X0147638Y0290945D02*
Y0297638D01*
X0142126Y0290945D02*
Y0297638D01*
X0142913Y0293307D02*
X0146850D01*
X0142913Y0295669D02*
X0146850D01*
X0142913D02*
X0144882Y0293701D01*
X0146850Y0295669D01*
X0154724Y0290945D02*
Y0297638D01*
X0149213Y0290945D02*
Y0297638D01*
X0150000Y0293307D02*
X0153937D01*
X0150000Y0295669D02*
X0153937D01*
X0150000D02*
X0151969Y0293701D01*
X0153937Y0295669D01*
X0096457Y0304331D02*
Y0312598D01*
X0048425D02*
X0096457D01*
X0048425Y0304331D02*
Y0312598D01*
Y0264567D02*
Y0272835D01*
Y0264567D02*
X0096457D01*
Y0272835D01*
X0042421Y0162992D02*
X0084449D01*
X0042421Y0143307D02*
X0084547D01*
X0202953Y0135039D02*
X0206496D01*
X0202953D02*
Y0138583D01*
X0212008Y0135039D02*
X0215551D01*
Y0138583D01*
X0208071Y0140551D02*
X0210433D01*
X0187402Y0135039D02*
X0190945D01*
X0187402D02*
Y0138583D01*
X0196457Y0135039D02*
X0200000D01*
Y0138583D01*
X0192520Y0140551D02*
X0194882D01*
X0218898Y0135039D02*
X0222441D01*
X0218898D02*
Y0138583D01*
X0227953Y0135039D02*
X0231496D01*
Y0138583D01*
X0224016Y0140551D02*
X0226378D01*
X0171653Y0135039D02*
X0175197D01*
X0171653D02*
Y0138583D01*
X0180709Y0135039D02*
X0184252D01*
Y0138583D01*
X0176772Y0140551D02*
X0179134D01*
X0155905Y0135039D02*
X0159449D01*
X0155905D02*
Y0138583D01*
X0164961Y0135039D02*
X0168504D01*
Y0138583D01*
X0161024Y0140551D02*
X0163386D01*
X0172835Y0144291D02*
Y0149409D01*
Y0144291D02*
X0174114D01*
X0172835Y0149409D02*
X0174114D01*
X0181791Y0144291D02*
X0183071D01*
X0181791Y0149409D02*
X0183071D01*
Y0144291D02*
Y0149409D01*
X0140157Y0135039D02*
X0143701D01*
X0140157D02*
Y0138583D01*
X0149213Y0135039D02*
X0152756D01*
Y0138583D01*
X0145276Y0140551D02*
X0147638D01*
X0141339Y0144291D02*
Y0149409D01*
Y0144291D02*
X0142618D01*
X0141339Y0149409D02*
X0142618D01*
X0150295Y0144291D02*
X0151575D01*
X0150295Y0149409D02*
X0151575D01*
Y0144291D02*
Y0149409D01*
X0124016Y0135039D02*
X0127559D01*
X0124016D02*
Y0138583D01*
X0133071Y0135039D02*
X0136614D01*
Y0138583D01*
X0129134Y0140551D02*
X0131496D01*
X0107874Y0135039D02*
X0111417D01*
X0107874D02*
Y0138583D01*
X0116929Y0135039D02*
X0120472D01*
Y0138583D01*
X0112992Y0140551D02*
X0115354D01*
X0125197Y0144291D02*
Y0149409D01*
Y0144291D02*
X0126476D01*
X0125197Y0149409D02*
X0126476D01*
X0134153Y0144291D02*
X0135433D01*
X0134153Y0149409D02*
X0135433D01*
Y0144291D02*
Y0149409D01*
X0091732Y0135039D02*
X0095276D01*
X0091732D02*
Y0138583D01*
X0100787Y0135039D02*
X0104331D01*
Y0138583D01*
X0096850Y0140551D02*
X0099213D01*
X0109055Y0144291D02*
Y0149409D01*
Y0144291D02*
X0110335D01*
X0109055Y0149409D02*
X0110335D01*
X0118012Y0144291D02*
X0119291D01*
X0118012Y0149409D02*
X0119291D01*
Y0144291D02*
Y0149409D01*
X0097047Y0144291D02*
Y0149409D01*
Y0144291D02*
X0098327D01*
X0097047Y0149409D02*
X0098327D01*
X0106004Y0144291D02*
X0107283D01*
X0106004Y0149409D02*
X0107283D01*
Y0144291D02*
Y0149409D01*
X0203937Y0144291D02*
Y0149409D01*
Y0144291D02*
X0205217D01*
X0203937Y0149409D02*
X0205217D01*
X0212894Y0144291D02*
X0214173D01*
X0212894Y0149409D02*
X0214173D01*
Y0144291D02*
Y0149409D01*
X0234646Y0135039D02*
X0238189D01*
X0234646D02*
Y0138583D01*
X0243701Y0135039D02*
X0247244D01*
Y0138583D01*
X0239764Y0140551D02*
X0242126D01*
X0220079Y0144291D02*
Y0149409D01*
Y0144291D02*
X0221358D01*
X0220079Y0149409D02*
X0221358D01*
X0229035Y0144291D02*
X0230315D01*
X0229035Y0149409D02*
X0230315D01*
Y0144291D02*
Y0149409D01*
X0235827Y0144291D02*
Y0149409D01*
Y0144291D02*
X0237106D01*
X0235827Y0149409D02*
X0237106D01*
X0244783Y0144291D02*
X0246063D01*
X0244783Y0149409D02*
X0246063D01*
Y0144291D02*
Y0149409D01*
X0250394Y0135039D02*
X0253937D01*
X0250394D02*
Y0138583D01*
X0259449Y0135039D02*
X0262992D01*
Y0138583D01*
X0255512Y0140551D02*
X0257874D01*
X0251575Y0144291D02*
Y0149409D01*
Y0144291D02*
X0252854D01*
X0251575Y0149409D02*
X0252854D01*
X0260531Y0144291D02*
X0261811D01*
X0260531Y0149409D02*
X0261811D01*
Y0144291D02*
Y0149409D01*
X0188583Y0144291D02*
Y0149409D01*
Y0144291D02*
X0189862D01*
X0188583Y0149409D02*
X0189862D01*
X0197539Y0144291D02*
X0198819D01*
X0197539Y0149409D02*
X0198819D01*
Y0144291D02*
Y0149409D01*
X0266142Y0135039D02*
X0269685D01*
X0266142D02*
Y0138583D01*
X0275197Y0135039D02*
X0278740D01*
Y0138583D01*
X0271260Y0140551D02*
X0273622D01*
X0267126Y0144291D02*
Y0149409D01*
Y0144291D02*
X0268406D01*
X0267126Y0149409D02*
X0268406D01*
X0276083Y0144291D02*
X0277362D01*
X0276083Y0149409D02*
X0277362D01*
Y0144291D02*
Y0149409D01*
X0281890Y0135039D02*
X0285433D01*
X0281890D02*
Y0138583D01*
X0290945Y0135039D02*
X0294488D01*
Y0138583D01*
X0287008Y0140551D02*
X0289370D01*
X0297638Y0135039D02*
X0301181D01*
X0297638D02*
Y0138583D01*
X0306693Y0135039D02*
X0310236D01*
Y0138583D01*
X0302756Y0140551D02*
X0305118D01*
X0298819Y0144291D02*
Y0149409D01*
Y0144291D02*
X0300098D01*
X0298819Y0149409D02*
X0300098D01*
X0307776Y0144291D02*
X0309055D01*
X0307776Y0149409D02*
X0309055D01*
Y0144291D02*
Y0149409D01*
X0157087Y0144291D02*
Y0149409D01*
Y0144291D02*
X0158366D01*
X0157087Y0149409D02*
X0158366D01*
X0166043Y0144291D02*
X0167323D01*
X0166043Y0149409D02*
X0167323D01*
Y0144291D02*
Y0149409D01*
X0271654Y0208268D02*
Y0212205D01*
X0269685Y0210236D02*
X0273622D01*
X0259842Y0203150D02*
X0268110D01*
X0259842D02*
Y0215748D01*
X0165354D02*
X0259842D01*
X0165354Y0166142D02*
Y0215748D01*
Y0166142D02*
X0259842D01*
Y0203150D01*
Y0179528D02*
X0267717D01*
X0188386Y0319094D02*
X0193504D01*
X0188386Y0317815D02*
Y0319094D01*
X0193504Y0317815D02*
Y0319094D01*
X0188386Y0308858D02*
Y0310138D01*
X0193504Y0308858D02*
Y0310138D01*
X0188386Y0308858D02*
X0193504D01*
X0006142Y0106181D02*
X0086457D01*
X0006142D02*
Y0142402D01*
X0086457D01*
Y0106181D02*
Y0142402D01*
X0175839Y0050421D02*
X0256154D01*
Y0010264D02*
Y0050421D01*
X0175839Y0010264D02*
X0256154D01*
X0175839D02*
Y0050421D01*
Y0037036D02*
X0181744D01*
Y0023650D02*
Y0037036D01*
X0176232Y0023650D02*
X0181744D01*
X0084437Y0050421D02*
X0164752D01*
Y0010264D02*
Y0050421D01*
X0084437Y0010264D02*
X0164752D01*
X0084437D02*
Y0050421D01*
Y0037036D02*
X0090343D01*
Y0023650D02*
Y0037036D01*
X0084831Y0023650D02*
X0090343D01*
X0001575Y0181102D02*
Y0208662D01*
X0283465Y0299606D02*
X0304331D01*
Y0289370D02*
Y0299606D01*
X0283465Y0289370D02*
X0304331D01*
X0283465D02*
Y0299606D01*
X0248854Y0337673D02*
Y0347516D01*
X0218146Y0337673D02*
Y0347516D01*
X0248854Y0358933D02*
Y0365232D01*
X0218146D02*
X0248854D01*
X0218146Y0358933D02*
Y0365232D01*
X0201854Y0247890D02*
Y0284898D01*
X0165634Y0247890D02*
Y0284898D01*
Y0247890D02*
X0201854D01*
X0165634Y0284898D02*
X0201854D01*
X0298228Y0115354D02*
X0310039D01*
X0298228Y0118504D02*
X0310039D01*
X0298228Y0115354D02*
Y0118504D01*
X0310039Y0115354D02*
Y0118504D01*
X0247047Y0115354D02*
Y0118504D01*
X0235236Y0115354D02*
Y0118504D01*
X0247047D01*
X0235236Y0115354D02*
X0247047D01*
X0172244D02*
X0184055D01*
X0172244Y0118504D02*
X0184055D01*
X0172244Y0115354D02*
Y0118504D01*
X0184055Y0115354D02*
Y0118504D01*
X0121063Y0115354D02*
Y0118504D01*
X0109252Y0115354D02*
Y0118504D01*
X0121063D01*
X0109252Y0115354D02*
X0121063D01*
X0282480D02*
X0294291D01*
X0282480Y0118504D02*
X0294291D01*
X0282480Y0115354D02*
Y0118504D01*
X0294291Y0115354D02*
Y0118504D01*
X0231299Y0115354D02*
Y0118504D01*
X0219488Y0115354D02*
Y0118504D01*
X0231299D01*
X0219488Y0115354D02*
X0231299D01*
X0156496D02*
X0168307D01*
X0156496Y0118504D02*
X0168307D01*
X0156496Y0115354D02*
Y0118504D01*
X0168307Y0115354D02*
Y0118504D01*
X0105315Y0115354D02*
Y0118504D01*
X0093504Y0115354D02*
Y0118504D01*
X0105315D01*
X0093504Y0115354D02*
X0105315D01*
X0266732D02*
X0278543D01*
X0266732Y0118504D02*
X0278543D01*
X0266732Y0115354D02*
Y0118504D01*
X0278543Y0115354D02*
Y0118504D01*
X0215551Y0115354D02*
Y0118504D01*
X0203740Y0115354D02*
Y0118504D01*
X0215551D01*
X0203740Y0115354D02*
X0215551D01*
X0140748D02*
X0152559D01*
X0140748Y0118504D02*
X0152559D01*
X0140748Y0115354D02*
Y0118504D01*
X0152559Y0115354D02*
Y0118504D01*
X0250984Y0115354D02*
X0262795D01*
X0250984Y0118504D02*
X0262795D01*
X0250984Y0115354D02*
Y0118504D01*
X0262795Y0115354D02*
Y0118504D01*
X0199803Y0115354D02*
Y0118504D01*
X0187992Y0115354D02*
Y0118504D01*
X0199803D01*
X0187992Y0115354D02*
X0199803D01*
X0125000D02*
X0136811D01*
X0125000Y0118504D02*
X0136811D01*
X0125000Y0115354D02*
Y0118504D01*
X0136811Y0115354D02*
Y0118504D01*
X0322874Y0258417D02*
Y0280071D01*
Y0263535D02*
X0338622D01*
Y0275346D01*
X0322874D02*
X0338622D01*
X0311063Y0254480D02*
X0321693D01*
X0322874Y0255661D01*
X0311063Y0284401D02*
X0321693D01*
X0322874Y0283221D01*
Y0308917D02*
Y0330571D01*
Y0314035D02*
X0338622D01*
Y0325847D01*
X0322874D02*
X0338622D01*
X0311063Y0304980D02*
X0321693D01*
X0322874Y0306161D01*
X0311063Y0334901D02*
X0321693D01*
X0322874Y0333720D01*
X0016126Y0258811D02*
Y0280465D01*
X0000378Y0275346D02*
X0016126D01*
X0000378Y0263535D02*
Y0275346D01*
Y0263535D02*
X0016126D01*
X0017307Y0284401D02*
X0027937D01*
X0016126Y0283221D02*
X0017307Y0284401D01*
Y0254480D02*
X0027937D01*
X0016126Y0255661D02*
X0017307Y0254480D01*
X0016126Y0309311D02*
Y0330964D01*
X0000378Y0325847D02*
X0016126D01*
X0000378Y0314035D02*
Y0325847D01*
Y0314035D02*
X0016126D01*
X0017307Y0334901D02*
X0027937D01*
X0016126Y0333720D02*
X0017307Y0334901D01*
Y0304980D02*
X0027937D01*
X0016126Y0306161D02*
X0017307Y0304980D01*
X0304725Y0125394D02*
Y0130512D01*
X0303445D02*
X0304725D01*
X0303445Y0125394D02*
X0304725D01*
X0294488Y0130512D02*
X0295768D01*
X0294488Y0125394D02*
X0295768D01*
X0294488D02*
Y0130512D01*
X0241732Y0125394D02*
Y0130512D01*
X0240453D02*
X0241732D01*
X0240453Y0125394D02*
X0241732D01*
X0231496Y0130512D02*
X0232776D01*
X0231496Y0125394D02*
X0232776D01*
X0231496D02*
Y0130512D01*
X0178740Y0125394D02*
Y0130512D01*
X0177461D02*
X0178740D01*
X0177461Y0125394D02*
X0178740D01*
X0168504Y0130512D02*
X0169783D01*
X0168504Y0125394D02*
X0169783D01*
X0168504D02*
Y0130512D01*
X0115354Y0125394D02*
Y0130512D01*
X0114075D02*
X0115354D01*
X0114075Y0125394D02*
X0115354D01*
X0105118Y0130512D02*
X0106398D01*
X0105118Y0125394D02*
X0106398D01*
X0105118D02*
Y0130512D01*
X0298819Y0150984D02*
Y0156102D01*
Y0150984D02*
X0300098D01*
X0298819Y0156102D02*
X0300098D01*
X0307776Y0150984D02*
X0309055D01*
X0307776Y0156102D02*
X0309055D01*
Y0150984D02*
Y0156102D01*
X0251969Y0150984D02*
Y0156102D01*
X0250689D02*
X0251969D01*
X0250689Y0150984D02*
X0251969D01*
X0241732Y0156102D02*
X0243012D01*
X0241732Y0150984D02*
X0243012D01*
X0241732D02*
Y0156102D01*
X0188977Y0150984D02*
Y0156102D01*
X0187697D02*
X0188977D01*
X0187697Y0150984D02*
X0188977D01*
X0178740Y0156102D02*
X0180020D01*
X0178740Y0150984D02*
X0180020D01*
X0178740D02*
Y0156102D01*
X0125197Y0150984D02*
Y0156102D01*
X0123917D02*
X0125197D01*
X0123917Y0150984D02*
X0125197D01*
X0114961Y0156102D02*
X0116240D01*
X0114961Y0150984D02*
X0116240D01*
X0114961D02*
Y0156102D01*
X0288977Y0125394D02*
Y0130512D01*
X0287697D02*
X0288977D01*
X0287697Y0125394D02*
X0288977D01*
X0278740Y0130512D02*
X0280020D01*
X0278740Y0125394D02*
X0280020D01*
X0278740D02*
Y0130512D01*
X0225984Y0125394D02*
Y0130512D01*
X0224705D02*
X0225984D01*
X0224705Y0125394D02*
X0225984D01*
X0215748Y0130512D02*
X0217027D01*
X0215748Y0125394D02*
X0217027D01*
X0215748D02*
Y0130512D01*
X0162992Y0125394D02*
Y0130512D01*
X0161713D02*
X0162992D01*
X0161713Y0125394D02*
X0162992D01*
X0152756Y0130512D02*
X0154035D01*
X0152756Y0125394D02*
X0154035D01*
X0152756D02*
Y0130512D01*
X0099410Y0125394D02*
Y0130512D01*
X0098130D02*
X0099410D01*
X0098130Y0125394D02*
X0099410D01*
X0089173Y0130512D02*
X0090453D01*
X0089173Y0125394D02*
X0090453D01*
X0089173D02*
Y0130512D01*
X0297244Y0150984D02*
Y0156102D01*
X0295965D02*
X0297244D01*
X0295965Y0150984D02*
X0297244D01*
X0287008Y0156102D02*
X0288287D01*
X0287008Y0150984D02*
X0288287D01*
X0287008D02*
Y0156102D01*
X0232677Y0150984D02*
Y0156102D01*
X0231398D02*
X0232677D01*
X0231398Y0150984D02*
X0232677D01*
X0222441Y0156102D02*
X0223721D01*
X0222441Y0150984D02*
X0223721D01*
X0222441D02*
Y0156102D01*
X0173228Y0150984D02*
Y0156102D01*
X0171949D02*
X0173228D01*
X0171949Y0150984D02*
X0173228D01*
X0162992Y0156102D02*
X0164272D01*
X0162992Y0150984D02*
X0164272D01*
X0162992D02*
Y0156102D01*
X0112992Y0150984D02*
Y0156102D01*
X0111713D02*
X0112992D01*
X0111713Y0150984D02*
X0112992D01*
X0102756Y0156102D02*
X0104035D01*
X0102756Y0150984D02*
X0104035D01*
X0102756D02*
Y0156102D01*
X0273228Y0125394D02*
Y0130512D01*
X0271949D02*
X0273228D01*
X0271949Y0125394D02*
X0273228D01*
X0262992Y0130512D02*
X0264272D01*
X0262992Y0125394D02*
X0264272D01*
X0262992D02*
Y0130512D01*
X0210039Y0125394D02*
Y0130512D01*
X0208760D02*
X0210039D01*
X0208760Y0125394D02*
X0210039D01*
X0199803Y0130512D02*
X0201083D01*
X0199803Y0125394D02*
X0201083D01*
X0199803D02*
Y0130512D01*
X0147047Y0125394D02*
Y0130512D01*
X0145768D02*
X0147047D01*
X0145768Y0125394D02*
X0147047D01*
X0136811Y0130512D02*
X0138091D01*
X0136811Y0125394D02*
X0138091D01*
X0136811D02*
Y0130512D01*
X0283268Y0150984D02*
Y0156102D01*
X0281988D02*
X0283268D01*
X0281988Y0150984D02*
X0283268D01*
X0273031Y0156102D02*
X0274311D01*
X0273031Y0150984D02*
X0274311D01*
X0273031D02*
Y0156102D01*
X0220079Y0150984D02*
Y0156102D01*
X0218799D02*
X0220079D01*
X0218799Y0150984D02*
X0220079D01*
X0209842Y0156102D02*
X0211122D01*
X0209842Y0150984D02*
X0211122D01*
X0209842D02*
Y0156102D01*
X0157480Y0150984D02*
Y0156102D01*
X0156201D02*
X0157480D01*
X0156201Y0150984D02*
X0157480D01*
X0147244Y0156102D02*
X0148524D01*
X0147244Y0150984D02*
X0148524D01*
X0147244D02*
Y0156102D01*
X0257480Y0125394D02*
Y0130512D01*
X0256201D02*
X0257480D01*
X0256201Y0125394D02*
X0257480D01*
X0247244Y0130512D02*
X0248524D01*
X0247244Y0125394D02*
X0248524D01*
X0247244D02*
Y0130512D01*
X0194488Y0125394D02*
Y0130512D01*
X0193209D02*
X0194488D01*
X0193209Y0125394D02*
X0194488D01*
X0184252Y0130512D02*
X0185531D01*
X0184252Y0125394D02*
X0185531D01*
X0184252D02*
Y0130512D01*
X0131102Y0125394D02*
Y0130512D01*
X0129823D02*
X0131102D01*
X0129823Y0125394D02*
X0131102D01*
X0120866Y0130512D02*
X0122146D01*
X0120866Y0125394D02*
X0122146D01*
X0120866D02*
Y0130512D01*
X0267717Y0150984D02*
Y0156102D01*
X0266437D02*
X0267717D01*
X0266437Y0150984D02*
X0267717D01*
X0257480Y0156102D02*
X0258760D01*
X0257480Y0150984D02*
X0258760D01*
X0257480D02*
Y0156102D01*
X0204725Y0150984D02*
Y0156102D01*
X0203445D02*
X0204725D01*
X0203445Y0150984D02*
X0204725D01*
X0194488Y0156102D02*
X0195768D01*
X0194488Y0150984D02*
X0195768D01*
X0194488D02*
Y0156102D01*
X0141339Y0150984D02*
Y0156102D01*
X0140059D02*
X0141339D01*
X0140059Y0150984D02*
X0141339D01*
X0131102Y0156102D02*
X0132382D01*
X0131102Y0150984D02*
X0132382D01*
X0131102D02*
Y0156102D01*
X0088780Y0313976D02*
Y0319094D01*
X0087500D02*
X0088780D01*
X0087500Y0313976D02*
X0088780D01*
X0078543Y0319094D02*
X0079823D01*
X0078543Y0313976D02*
X0079823D01*
X0078543D02*
Y0319094D01*
X0093110Y0329134D02*
X0098228D01*
X0093110Y0327854D02*
Y0329134D01*
X0098228Y0327854D02*
Y0329134D01*
X0093110Y0318898D02*
Y0320177D01*
X0098228Y0318898D02*
Y0320177D01*
X0093110Y0318898D02*
X0098228D01*
X0215988Y0261394D02*
Y0266512D01*
Y0261394D02*
X0217268D01*
X0215988Y0266512D02*
X0217268D01*
X0224945Y0261394D02*
X0226224D01*
X0224945Y0266512D02*
X0226224D01*
Y0261394D02*
Y0266512D01*
X0215988Y0254894D02*
Y0260012D01*
Y0254894D02*
X0217268D01*
X0215988Y0260012D02*
X0217268D01*
X0224945Y0254894D02*
X0226224D01*
X0224945Y0260012D02*
X0226224D01*
Y0254894D02*
Y0260012D01*
X0185630Y0237008D02*
X0190748D01*
X0185630Y0235728D02*
Y0237008D01*
X0190748Y0235728D02*
Y0237008D01*
X0185630Y0226772D02*
Y0228051D01*
X0190748Y0226772D02*
Y0228051D01*
X0185630Y0226772D02*
X0190748D01*
X0270276Y0241969D02*
X0275394D01*
X0270276Y0240689D02*
Y0241969D01*
X0275394Y0240689D02*
Y0241969D01*
X0270276Y0231732D02*
Y0233012D01*
X0275394Y0231732D02*
Y0233012D01*
X0270276Y0231732D02*
X0275394D01*
X0277362Y0241969D02*
X0282480D01*
X0277362Y0240689D02*
Y0241969D01*
X0282480Y0240689D02*
Y0241969D01*
X0277362Y0231732D02*
Y0233012D01*
X0282480Y0231732D02*
Y0233012D01*
X0277362Y0231732D02*
X0282480D01*
X0214764Y0311811D02*
X0219882D01*
Y0313090D01*
X0214764Y0311811D02*
Y0313090D01*
X0219882Y0320768D02*
Y0322047D01*
X0214764Y0320768D02*
Y0322047D01*
X0219882D01*
X0223138Y0321921D02*
X0228256D01*
X0223138Y0320642D02*
Y0321921D01*
X0228256Y0320642D02*
Y0321921D01*
X0223138Y0311685D02*
Y0312965D01*
X0228256Y0311685D02*
Y0312965D01*
X0223138Y0311685D02*
X0228256D01*
X0230138Y0321921D02*
X0235256D01*
X0230138Y0320642D02*
Y0321921D01*
X0235256Y0320642D02*
Y0321921D01*
X0230138Y0311685D02*
Y0312965D01*
X0235256Y0311685D02*
Y0312965D01*
X0230138Y0311685D02*
X0235256D01*
X0237138Y0321921D02*
X0242256D01*
X0237138Y0320642D02*
Y0321921D01*
X0242256Y0320642D02*
Y0321921D01*
X0237138Y0311685D02*
Y0312965D01*
X0242256Y0311685D02*
Y0312965D01*
X0237138Y0311685D02*
X0242256D01*
X0286417Y0275984D02*
X0291535D01*
Y0277264D01*
X0286417Y0275984D02*
Y0277264D01*
X0291535Y0284941D02*
Y0286221D01*
X0286417Y0284941D02*
Y0286221D01*
X0291535D01*
X0272618Y0344882D02*
Y0350000D01*
X0271339D02*
X0272618D01*
X0271339Y0344882D02*
X0272618D01*
X0262382Y0350000D02*
X0263661D01*
X0262382Y0344882D02*
X0263661D01*
X0262382D02*
Y0350000D01*
X0228248Y0254134D02*
X0237106D01*
X0228248Y0267126D02*
X0237106D01*
X0261807Y0352898D02*
X0264169D01*
X0261807D02*
Y0359984D01*
X0264169D01*
X0272831Y0352898D02*
X0275193D01*
Y0359984D01*
X0272831D02*
X0275193D01*
X0269681Y0354866D02*
Y0357917D01*
X0268894Y0356392D02*
X0269681D01*
X0096457Y0253150D02*
Y0261417D01*
X0048425D02*
X0096457D01*
X0048425Y0253150D02*
Y0261417D01*
Y0213386D02*
Y0221654D01*
Y0213386D02*
X0096457D01*
Y0221654D01*
X0230906Y0272441D02*
X0236024D01*
Y0273720D01*
X0230906Y0272441D02*
Y0273720D01*
X0236024Y0281398D02*
Y0282677D01*
X0230906Y0281398D02*
Y0282677D01*
X0236024D01*
X0072047Y0320866D02*
X0079134D01*
X0072047Y0340551D02*
X0079134D01*
Y0320866D02*
Y0340551D01*
X0072047Y0320866D02*
Y0340551D01*
X0282284Y0250787D02*
Y0253937D01*
X0270472Y0250787D02*
Y0253937D01*
X0282284D01*
X0270472Y0250787D02*
X0282284D01*
X0093110Y0330709D02*
X0098228D01*
Y0331988D01*
X0093110Y0330709D02*
Y0331988D01*
X0098228Y0339665D02*
Y0340945D01*
X0093110Y0339665D02*
Y0340945D01*
X0098228D01*
X0119685Y0257480D02*
X0123622D01*
X0121752Y0255512D02*
Y0259449D01*
X0103347Y0241732D02*
X0108465D01*
Y0243012D01*
X0103347Y0241732D02*
Y0243012D01*
X0108465Y0250689D02*
Y0251969D01*
X0103347Y0250689D02*
Y0251969D01*
X0108465D01*
X0077559Y0192913D02*
Y0196850D01*
X0075591Y0194882D02*
X0079528D01*
X0215748Y0280315D02*
X0220472D01*
X0221654Y0275984D02*
Y0280709D01*
X0214567Y0275984D02*
Y0280709D01*
X0120472Y0192520D02*
Y0196457D01*
X0118504Y0194488D02*
X0122441D01*
X0223819Y0272441D02*
X0228937D01*
Y0273720D01*
X0223819Y0272441D02*
Y0273720D01*
X0228937Y0281398D02*
Y0282677D01*
X0223819Y0281398D02*
Y0282677D01*
X0228937D01*
X0174803Y0301378D02*
Y0306496D01*
X0173524D02*
X0174803D01*
X0173524Y0301378D02*
X0174803D01*
X0164567Y0306496D02*
X0165846D01*
X0164567Y0301378D02*
X0165846D01*
X0164567D02*
Y0306496D01*
X0193126Y0226835D02*
Y0231953D01*
Y0226835D02*
X0194405D01*
X0193126Y0231953D02*
X0194405D01*
X0202083Y0226835D02*
X0203362D01*
X0202083Y0231953D02*
X0203362D01*
Y0226835D02*
Y0231953D01*
X0149016Y0255709D02*
X0154134D01*
X0149016Y0254429D02*
Y0255709D01*
X0154134Y0254429D02*
Y0255709D01*
X0149016Y0245472D02*
Y0246752D01*
X0154134Y0245472D02*
Y0246752D01*
X0149016Y0245472D02*
X0154134D01*
X0205906Y0303740D02*
Y0308858D01*
X0204626D02*
X0205906D01*
X0204626Y0303740D02*
X0205906D01*
X0195669Y0308858D02*
X0196949D01*
X0195669Y0303740D02*
X0196949D01*
X0195669D02*
Y0308858D01*
X0272047Y0262008D02*
Y0267126D01*
Y0262008D02*
X0273327D01*
X0272047Y0267126D02*
X0273327D01*
X0281004Y0262008D02*
X0282284D01*
X0281004Y0267126D02*
X0282284D01*
Y0262008D02*
Y0267126D01*
X0262402Y0249213D02*
X0267520D01*
Y0250492D01*
X0262402Y0249213D02*
Y0250492D01*
X0267520Y0258169D02*
Y0259449D01*
X0262402Y0258169D02*
Y0259449D01*
X0267520D01*
X0060236Y0012205D02*
Y0053150D01*
X0050000Y0012205D02*
X0060236D01*
X0050000D02*
Y0053150D01*
X0060236D01*
X0283071Y0144291D02*
Y0149409D01*
Y0144291D02*
X0284350D01*
X0283071Y0149409D02*
X0284350D01*
X0292028Y0144291D02*
X0293307D01*
X0292028Y0149409D02*
X0293307D01*
Y0144291D02*
Y0149409D01*
X0321260Y0166142D02*
X0329528D01*
Y0214173D01*
X0321260D02*
X0329528D01*
X0281496D02*
X0289764D01*
X0281496Y0166142D02*
Y0214173D01*
Y0166142D02*
X0289764D01*
X0011811Y0364567D02*
X0173228D01*
X0011811Y0222835D02*
Y0364567D01*
Y0222835D02*
X0326772D01*
Y0364567D01*
X0173228D02*
X0326772D01*
X0038701Y0066193D02*
X0299724D01*
Y0055169D02*
Y0066193D01*
X0038701Y0055169D02*
X0299724D01*
X0038701D02*
Y0066193D01*
X0008701Y0086614D02*
X0329567D01*
Y0075591D02*
Y0086614D01*
X0008701Y0075591D02*
X0329567D01*
X0008701D02*
Y0086614D01*
X0062205Y0048031D02*
X0062205D01*
Y0048031D02*
Y0048031D01*
X0208660Y0191731D02*
X0207873Y0192518D01*
X0206299D01*
X0205512Y0191731D01*
Y0188582D01*
X0206299Y0187795D01*
X0207873D01*
X0208660Y0188582D01*
X0210235Y0187795D02*
X0211809D01*
X0211022D01*
Y0192518D01*
X0210235Y0191731D01*
X0217319Y0192518D02*
X0214170D01*
Y0190157D01*
X0215745Y0190944D01*
X0216532D01*
X0217319Y0190157D01*
Y0188582D01*
X0216532Y0187795D01*
X0214958D01*
X0214170Y0188582D01*
X0188300Y0322741D02*
Y0327464D01*
X0190661D01*
X0191449Y0326677D01*
Y0325102D01*
X0190661Y0324315D01*
X0188300D01*
X0189874D02*
X0191449Y0322741D01*
X0193023Y0327464D02*
X0196171D01*
Y0326677D01*
X0193023Y0323528D01*
Y0322741D01*
X0071653Y0103936D02*
X0074802Y0099213D01*
Y0103936D02*
X0071653Y0099213D01*
X0076376Y0103936D02*
X0079525D01*
X0077951D01*
Y0099213D01*
X0084248Y0103936D02*
X0082674Y0103148D01*
X0081099Y0101574D01*
Y0100000D01*
X0081887Y0099213D01*
X0083461D01*
X0084248Y0100000D01*
Y0100787D01*
X0083461Y0101574D01*
X0081099D01*
X0214173Y0031888D02*
X0217322Y0027165D01*
Y0031888D02*
X0214173Y0027165D01*
X0218896Y0031888D02*
X0222045D01*
X0220470D01*
Y0027165D01*
X0226768Y0031888D02*
X0223619D01*
Y0029527D01*
X0225193Y0030314D01*
X0225980D01*
X0226768Y0029527D01*
Y0027953D01*
X0225980Y0027165D01*
X0224406D01*
X0223619Y0027953D01*
X0122047Y0032676D02*
X0125196Y0027953D01*
Y0032676D02*
X0122047Y0027953D01*
X0126770Y0032676D02*
X0129919D01*
X0128344D01*
Y0027953D01*
X0133854D02*
Y0032676D01*
X0131493Y0030314D01*
X0134642D01*
X0007480Y0195274D02*
X0010629Y0190551D01*
Y0195274D02*
X0007480Y0190551D01*
X0012203Y0195274D02*
X0015352D01*
X0013777D01*
Y0190551D01*
X0016926Y0194487D02*
X0017713Y0195274D01*
X0019287D01*
X0020075Y0194487D01*
Y0193700D01*
X0019287Y0192913D01*
X0018500D01*
X0019287D01*
X0020075Y0192125D01*
Y0191338D01*
X0019287Y0190551D01*
X0017713D01*
X0016926Y0191338D01*
X0307087Y0296849D02*
X0310235Y0292126D01*
Y0296849D02*
X0307087Y0292126D01*
X0311809Y0296849D02*
X0314958D01*
X0313384D01*
Y0292126D01*
X0319681D02*
X0316532D01*
X0319681Y0295275D01*
Y0296062D01*
X0318894Y0296849D01*
X0317319D01*
X0316532Y0296062D01*
X0228346Y0354329D02*
X0231495Y0349606D01*
Y0354329D02*
X0228346Y0349606D01*
X0233069Y0354329D02*
X0236218D01*
X0234644D01*
Y0349606D01*
X0237792D02*
X0239367D01*
X0238579D01*
Y0354329D01*
X0237792Y0353542D01*
X0203150Y0290943D02*
Y0287008D01*
X0203937Y0286221D01*
X0205511D01*
X0206298Y0287008D01*
Y0290943D01*
X0207873Y0286221D02*
X0209447D01*
X0208660D01*
Y0290943D01*
X0207873Y0290156D01*
X0298228Y0107872D02*
X0301377D01*
X0299803D01*
Y0103150D01*
X0302951Y0107085D02*
X0303738Y0107872D01*
X0305313D01*
X0306100Y0107085D01*
Y0106298D01*
X0305313Y0105511D01*
X0304525D01*
X0305313D01*
X0306100Y0104724D01*
Y0103937D01*
X0305313Y0103150D01*
X0303738D01*
X0302951Y0103937D01*
X0310823Y0107872D02*
X0307674D01*
Y0105511D01*
X0309248Y0106298D01*
X0310035D01*
X0310823Y0105511D01*
Y0103937D01*
X0310035Y0103150D01*
X0308461D01*
X0307674Y0103937D01*
X0235433Y0107872D02*
X0238582D01*
X0237007D01*
Y0103150D01*
X0240156Y0107085D02*
X0240943Y0107872D01*
X0242517D01*
X0243304Y0107085D01*
Y0106298D01*
X0242517Y0105511D01*
X0241730D01*
X0242517D01*
X0243304Y0104724D01*
Y0103937D01*
X0242517Y0103150D01*
X0240943D01*
X0240156Y0103937D01*
X0247240Y0103150D02*
Y0107872D01*
X0244879Y0105511D01*
X0248027D01*
X0172835Y0107479D02*
X0175983D01*
X0174409D01*
Y0102756D01*
X0177558Y0106692D02*
X0178345Y0107479D01*
X0179919D01*
X0180706Y0106692D01*
Y0105904D01*
X0179919Y0105117D01*
X0179132D01*
X0179919D01*
X0180706Y0104330D01*
Y0103543D01*
X0179919Y0102756D01*
X0178345D01*
X0177558Y0103543D01*
X0182280Y0106692D02*
X0183068Y0107479D01*
X0184642D01*
X0185429Y0106692D01*
Y0105904D01*
X0184642Y0105117D01*
X0183855D01*
X0184642D01*
X0185429Y0104330D01*
Y0103543D01*
X0184642Y0102756D01*
X0183068D01*
X0182280Y0103543D01*
X0108661Y0107872D02*
X0111810D01*
X0110236D01*
Y0103150D01*
X0113384Y0107085D02*
X0114171Y0107872D01*
X0115746D01*
X0116533Y0107085D01*
Y0106298D01*
X0115746Y0105511D01*
X0114959D01*
X0115746D01*
X0116533Y0104724D01*
Y0103937D01*
X0115746Y0103150D01*
X0114171D01*
X0113384Y0103937D01*
X0121256Y0103150D02*
X0118107D01*
X0121256Y0106298D01*
Y0107085D01*
X0120469Y0107872D01*
X0118894D01*
X0118107Y0107085D01*
X0282874Y0107872D02*
X0286023D01*
X0284448D01*
Y0103150D01*
X0290745D02*
X0287597D01*
X0290745Y0106298D01*
Y0107085D01*
X0289958Y0107872D01*
X0288384D01*
X0287597Y0107085D01*
X0292320Y0107872D02*
X0295468D01*
Y0107085D01*
X0292320Y0103937D01*
Y0103150D01*
X0219685Y0108266D02*
X0222834D01*
X0221259D01*
Y0103543D01*
X0227556D02*
X0224408D01*
X0227556Y0106692D01*
Y0107479D01*
X0226769Y0108266D01*
X0225195D01*
X0224408Y0107479D01*
X0232279Y0108266D02*
X0230705Y0107479D01*
X0229131Y0105905D01*
Y0104330D01*
X0229918Y0103543D01*
X0231492D01*
X0232279Y0104330D01*
Y0105118D01*
X0231492Y0105905D01*
X0229131D01*
X0155905Y0107479D02*
X0159054D01*
X0157480D01*
Y0102756D01*
X0163777D02*
X0160628D01*
X0163777Y0105904D01*
Y0106692D01*
X0162990Y0107479D01*
X0161416D01*
X0160628Y0106692D01*
X0168500Y0107479D02*
X0165351D01*
Y0105117D01*
X0166926Y0105904D01*
X0167713D01*
X0168500Y0105117D01*
Y0103543D01*
X0167713Y0102756D01*
X0166138D01*
X0165351Y0103543D01*
X0094488Y0107872D02*
X0097637D01*
X0096062D01*
Y0103150D01*
X0102360D02*
X0099211D01*
X0102360Y0106298D01*
Y0107085D01*
X0101573Y0107872D01*
X0099998D01*
X0099211Y0107085D01*
X0106295Y0103150D02*
Y0107872D01*
X0103934Y0105511D01*
X0107082D01*
X0266732Y0107872D02*
X0269881D01*
X0268307D01*
Y0103150D01*
X0271455D02*
X0273029D01*
X0272242D01*
Y0107872D01*
X0271455Y0107085D01*
X0275391Y0103937D02*
X0276178Y0103150D01*
X0277752D01*
X0278539Y0103937D01*
Y0107085D01*
X0277752Y0107872D01*
X0276178D01*
X0275391Y0107085D01*
Y0106298D01*
X0276178Y0105511D01*
X0278539D01*
X0205906Y0107872D02*
X0209054D01*
X0207480D01*
Y0103150D01*
X0210628D02*
X0212203D01*
X0211416D01*
Y0107872D01*
X0210628Y0107085D01*
X0214564D02*
X0215351Y0107872D01*
X0216926D01*
X0217713Y0107085D01*
Y0106298D01*
X0216926Y0105511D01*
X0217713Y0104724D01*
Y0103937D01*
X0216926Y0103150D01*
X0215351D01*
X0214564Y0103937D01*
Y0104724D01*
X0215351Y0105511D01*
X0214564Y0106298D01*
Y0107085D01*
X0215351Y0105511D02*
X0216926D01*
X0142913Y0107479D02*
X0146062D01*
X0144488D01*
Y0102756D01*
X0147636D02*
X0149211D01*
X0148423D01*
Y0107479D01*
X0147636Y0106692D01*
X0151572Y0107479D02*
X0154721D01*
Y0106692D01*
X0151572Y0103543D01*
Y0102756D01*
X0252362Y0107872D02*
X0255511D01*
X0253937D01*
Y0103150D01*
X0257085D02*
X0258659D01*
X0257872D01*
Y0107872D01*
X0257085Y0107085D01*
X0261021Y0103150D02*
X0262595D01*
X0261808D01*
Y0107872D01*
X0261021Y0107085D01*
X0189764Y0107479D02*
X0192912D01*
X0191338D01*
Y0102756D01*
X0194487D02*
X0196061D01*
X0195274D01*
Y0107479D01*
X0194487Y0106692D01*
X0198422D02*
X0199209Y0107479D01*
X0200784D01*
X0201571Y0106692D01*
Y0103543D01*
X0200784Y0102756D01*
X0199209D01*
X0198422Y0103543D01*
Y0106692D01*
X0127756Y0107479D02*
X0130904D01*
X0129330D01*
Y0102756D01*
X0132479Y0103543D02*
X0133266Y0102756D01*
X0134840D01*
X0135627Y0103543D01*
Y0106692D01*
X0134840Y0107479D01*
X0133266D01*
X0132479Y0106692D01*
Y0105904D01*
X0133266Y0105117D01*
X0135627D01*
X0302363Y0268503D02*
X0301576Y0267716D01*
Y0266142D01*
X0302363Y0265354D01*
X0303151D01*
X0303938Y0266142D01*
Y0267716D01*
X0304725Y0268503D01*
X0305512D01*
X0306299Y0267716D01*
Y0266142D01*
X0305512Y0265354D01*
X0306299Y0272439D02*
X0301576D01*
X0303938Y0270077D01*
Y0273226D01*
X0301970Y0318897D02*
X0301183Y0318109D01*
Y0316535D01*
X0301970Y0315748D01*
X0302757D01*
X0303544Y0316535D01*
Y0318109D01*
X0304331Y0318897D01*
X0305118D01*
X0305906Y0318109D01*
Y0316535D01*
X0305118Y0315748D01*
X0301970Y0320471D02*
X0301183Y0321258D01*
Y0322832D01*
X0301970Y0323620D01*
X0302757D01*
X0303544Y0322832D01*
Y0322045D01*
Y0322832D01*
X0304331Y0323620D01*
X0305118D01*
X0305906Y0322832D01*
Y0321258D01*
X0305118Y0320471D01*
X0029135Y0268503D02*
X0028348Y0267716D01*
Y0266142D01*
X0029135Y0265354D01*
X0029922D01*
X0030709Y0266142D01*
Y0267716D01*
X0031497Y0268503D01*
X0032284D01*
X0033071Y0267716D01*
Y0266142D01*
X0032284Y0265354D01*
X0033071Y0273226D02*
Y0270077D01*
X0029922Y0273226D01*
X0029135D01*
X0028348Y0272439D01*
Y0270864D01*
X0029135Y0270077D01*
X0027954Y0320078D02*
X0027167Y0319291D01*
Y0317716D01*
X0027954Y0316929D01*
X0028741D01*
X0029528Y0317716D01*
Y0319291D01*
X0030316Y0320078D01*
X0031103D01*
X0031890Y0319291D01*
Y0317716D01*
X0031103Y0316929D01*
X0031890Y0321652D02*
Y0323226D01*
Y0322439D01*
X0027167D01*
X0027954Y0321652D01*
X0320079Y0155905D02*
Y0160628D01*
X0322440D01*
X0323227Y0159841D01*
Y0158267D01*
X0322440Y0157480D01*
X0320079D01*
X0321653D02*
X0323227Y0155905D01*
X0324802Y0156693D02*
X0325589Y0155905D01*
X0327163D01*
X0327950Y0156693D01*
Y0159841D01*
X0327163Y0160628D01*
X0325589D01*
X0324802Y0159841D01*
Y0159054D01*
X0325589Y0158267D01*
X0327950D01*
X0329524Y0159841D02*
X0330312Y0160628D01*
X0331886D01*
X0332673Y0159841D01*
Y0159054D01*
X0331886Y0158267D01*
X0332673Y0157480D01*
Y0156693D01*
X0331886Y0155905D01*
X0330312D01*
X0329524Y0156693D01*
Y0157480D01*
X0330312Y0158267D01*
X0329524Y0159054D01*
Y0159841D01*
X0330312Y0158267D02*
X0331886D01*
X0320866Y0155512D02*
Y0160235D01*
X0323228D01*
X0324015Y0159448D01*
Y0157873D01*
X0323228Y0157086D01*
X0320866D01*
X0322440D02*
X0324015Y0155512D01*
X0325589Y0156299D02*
X0326376Y0155512D01*
X0327951D01*
X0328738Y0156299D01*
Y0159448D01*
X0327951Y0160235D01*
X0326376D01*
X0325589Y0159448D01*
Y0158660D01*
X0326376Y0157873D01*
X0328738D01*
X0330312Y0160235D02*
X0333460D01*
Y0159448D01*
X0330312Y0156299D01*
Y0155512D01*
X0321260Y0155905D02*
Y0160628D01*
X0323621D01*
X0324408Y0159841D01*
Y0158267D01*
X0323621Y0157480D01*
X0321260D01*
X0322834D02*
X0324408Y0155905D01*
X0325983Y0156693D02*
X0326770Y0155905D01*
X0328344D01*
X0329131Y0156693D01*
Y0159841D01*
X0328344Y0160628D01*
X0326770D01*
X0325983Y0159841D01*
Y0159054D01*
X0326770Y0158267D01*
X0329131D01*
X0333854Y0160628D02*
X0332280Y0159841D01*
X0330706Y0158267D01*
Y0156693D01*
X0331493Y0155905D01*
X0333067D01*
X0333854Y0156693D01*
Y0157480D01*
X0333067Y0158267D01*
X0330706D01*
X0319685Y0155512D02*
Y0160235D01*
X0322046D01*
X0322834Y0159448D01*
Y0157873D01*
X0322046Y0157086D01*
X0319685D01*
X0321259D02*
X0322834Y0155512D01*
X0324408Y0156299D02*
X0325195Y0155512D01*
X0326769D01*
X0327556Y0156299D01*
Y0159448D01*
X0326769Y0160235D01*
X0325195D01*
X0324408Y0159448D01*
Y0158660D01*
X0325195Y0157873D01*
X0327556D01*
X0332279Y0160235D02*
X0329131D01*
Y0157873D01*
X0330705Y0158660D01*
X0331492D01*
X0332279Y0157873D01*
Y0156299D01*
X0331492Y0155512D01*
X0329918D01*
X0329131Y0156299D01*
X0319291Y0155905D02*
Y0160628D01*
X0321653D01*
X0322440Y0159841D01*
Y0158267D01*
X0321653Y0157480D01*
X0319291D01*
X0320866D02*
X0322440Y0155905D01*
X0324014Y0159841D02*
X0324801Y0160628D01*
X0326376D01*
X0327163Y0159841D01*
Y0159054D01*
X0326376Y0158267D01*
X0327163Y0157480D01*
Y0156693D01*
X0326376Y0155905D01*
X0324801D01*
X0324014Y0156693D01*
Y0157480D01*
X0324801Y0158267D01*
X0324014Y0159054D01*
Y0159841D01*
X0324801Y0158267D02*
X0326376D01*
X0331886Y0160628D02*
X0330311Y0159841D01*
X0328737Y0158267D01*
Y0156693D01*
X0329524Y0155905D01*
X0331099D01*
X0331886Y0156693D01*
Y0157480D01*
X0331099Y0158267D01*
X0328737D01*
X0319291Y0155905D02*
Y0160628D01*
X0321653D01*
X0322440Y0159841D01*
Y0158267D01*
X0321653Y0157480D01*
X0319291D01*
X0320866D02*
X0322440Y0155905D01*
X0324014Y0159841D02*
X0324801Y0160628D01*
X0326376D01*
X0327163Y0159841D01*
Y0159054D01*
X0326376Y0158267D01*
X0327163Y0157480D01*
Y0156693D01*
X0326376Y0155905D01*
X0324801D01*
X0324014Y0156693D01*
Y0157480D01*
X0324801Y0158267D01*
X0324014Y0159054D01*
Y0159841D01*
X0324801Y0158267D02*
X0326376D01*
X0331886Y0160628D02*
X0328737D01*
Y0158267D01*
X0330311Y0159054D01*
X0331099D01*
X0331886Y0158267D01*
Y0156693D01*
X0331099Y0155905D01*
X0329524D01*
X0328737Y0156693D01*
X0318898Y0156299D02*
Y0161022D01*
X0321259D01*
X0322046Y0160235D01*
Y0158661D01*
X0321259Y0157873D01*
X0318898D01*
X0320472D02*
X0322046Y0156299D01*
X0323621Y0160235D02*
X0324408Y0161022D01*
X0325982D01*
X0326769Y0160235D01*
Y0159448D01*
X0325982Y0158661D01*
X0326769Y0157873D01*
Y0157086D01*
X0325982Y0156299D01*
X0324408D01*
X0323621Y0157086D01*
Y0157873D01*
X0324408Y0158661D01*
X0323621Y0159448D01*
Y0160235D01*
X0324408Y0158661D02*
X0325982D01*
X0330705Y0156299D02*
Y0161022D01*
X0328343Y0158661D01*
X0331492D01*
X0320472Y0155905D02*
Y0160628D01*
X0322834D01*
X0323621Y0159841D01*
Y0158267D01*
X0322834Y0157480D01*
X0320472D01*
X0322047D02*
X0323621Y0155905D01*
X0325195Y0159841D02*
X0325982Y0160628D01*
X0327557D01*
X0328344Y0159841D01*
Y0159054D01*
X0327557Y0158267D01*
X0328344Y0157480D01*
Y0156693D01*
X0327557Y0155905D01*
X0325982D01*
X0325195Y0156693D01*
Y0157480D01*
X0325982Y0158267D01*
X0325195Y0159054D01*
Y0159841D01*
X0325982Y0158267D02*
X0327557D01*
X0329918Y0159841D02*
X0330705Y0160628D01*
X0332280D01*
X0333067Y0159841D01*
Y0159054D01*
X0332280Y0158267D01*
X0331492D01*
X0332280D01*
X0333067Y0157480D01*
Y0156693D01*
X0332280Y0155905D01*
X0330705D01*
X0329918Y0156693D01*
X0320079Y0155905D02*
Y0160628D01*
X0322440D01*
X0323227Y0159841D01*
Y0158267D01*
X0322440Y0157480D01*
X0320079D01*
X0321653D02*
X0323227Y0155905D01*
X0324802Y0160628D02*
X0327950D01*
Y0159841D01*
X0324802Y0156693D01*
Y0155905D01*
X0329524Y0159841D02*
X0330312Y0160628D01*
X0331886D01*
X0332673Y0159841D01*
Y0159054D01*
X0331886Y0158267D01*
X0332673Y0157480D01*
Y0156693D01*
X0331886Y0155905D01*
X0330312D01*
X0329524Y0156693D01*
Y0157480D01*
X0330312Y0158267D01*
X0329524Y0159054D01*
Y0159841D01*
X0330312Y0158267D02*
X0331886D01*
X0320472Y0155905D02*
Y0160628D01*
X0322834D01*
X0323621Y0159841D01*
Y0158267D01*
X0322834Y0157480D01*
X0320472D01*
X0322047D02*
X0323621Y0155905D01*
X0325195Y0160628D02*
X0328344D01*
Y0159841D01*
X0325195Y0156693D01*
Y0155905D01*
X0329918Y0160628D02*
X0333067D01*
Y0159841D01*
X0329918Y0156693D01*
Y0155905D01*
X0320866Y0155512D02*
Y0160235D01*
X0323228D01*
X0324015Y0159448D01*
Y0157873D01*
X0323228Y0157086D01*
X0320866D01*
X0322440D02*
X0324015Y0155512D01*
X0325589Y0160235D02*
X0328738D01*
Y0159448D01*
X0325589Y0156299D01*
Y0155512D01*
X0333460Y0160235D02*
X0331886Y0159448D01*
X0330312Y0157873D01*
Y0156299D01*
X0331099Y0155512D01*
X0332673D01*
X0333460Y0156299D01*
Y0157086D01*
X0332673Y0157873D01*
X0330312D01*
X0318898Y0155905D02*
Y0160628D01*
X0321259D01*
X0322046Y0159841D01*
Y0158267D01*
X0321259Y0157480D01*
X0318898D01*
X0320472D02*
X0322046Y0155905D01*
X0323621Y0160628D02*
X0326769D01*
Y0159841D01*
X0323621Y0156693D01*
Y0155905D01*
X0331492Y0160628D02*
X0328343D01*
Y0158267D01*
X0329918Y0159054D01*
X0330705D01*
X0331492Y0158267D01*
Y0156693D01*
X0330705Y0155905D01*
X0329131D01*
X0328343Y0156693D01*
X0318898Y0155898D02*
Y0160621D01*
X0321259D01*
X0322046Y0159833D01*
Y0158259D01*
X0321259Y0157472D01*
X0318898D01*
X0320472D02*
X0322046Y0155898D01*
X0323621Y0160621D02*
X0326769D01*
Y0159833D01*
X0323621Y0156685D01*
Y0155898D01*
X0328343Y0159833D02*
X0329131Y0160621D01*
X0330705D01*
X0331492Y0159833D01*
Y0156685D01*
X0330705Y0155898D01*
X0329131D01*
X0328343Y0156685D01*
Y0159833D01*
X0320866Y0155512D02*
Y0160235D01*
X0323228D01*
X0324015Y0159448D01*
Y0157873D01*
X0323228Y0157086D01*
X0320866D01*
X0322440D02*
X0324015Y0155512D01*
X0328738Y0160235D02*
X0327163Y0159448D01*
X0325589Y0157873D01*
Y0156299D01*
X0326376Y0155512D01*
X0327951D01*
X0328738Y0156299D01*
Y0157086D01*
X0327951Y0157873D01*
X0325589D01*
X0330312Y0156299D02*
X0331099Y0155512D01*
X0332673D01*
X0333460Y0156299D01*
Y0159448D01*
X0332673Y0160235D01*
X0331099D01*
X0330312Y0159448D01*
Y0158660D01*
X0331099Y0157873D01*
X0333460D01*
X0320866Y0156299D02*
Y0161022D01*
X0323228D01*
X0324015Y0160235D01*
Y0158661D01*
X0323228Y0157873D01*
X0320866D01*
X0322440D02*
X0324015Y0156299D01*
X0328738Y0161022D02*
X0327163Y0160235D01*
X0325589Y0158661D01*
Y0157086D01*
X0326376Y0156299D01*
X0327951D01*
X0328738Y0157086D01*
Y0157873D01*
X0327951Y0158661D01*
X0325589D01*
X0330312Y0160235D02*
X0331099Y0161022D01*
X0332673D01*
X0333460Y0160235D01*
Y0159448D01*
X0332673Y0158661D01*
X0333460Y0157873D01*
Y0157086D01*
X0332673Y0156299D01*
X0331099D01*
X0330312Y0157086D01*
Y0157873D01*
X0331099Y0158661D01*
X0330312Y0159448D01*
Y0160235D01*
X0331099Y0158661D02*
X0332673D01*
X0333071Y0160630D02*
Y0155907D01*
X0330709D01*
X0329922Y0156694D01*
Y0158268D01*
X0330709Y0159056D01*
X0333071D01*
X0331497D02*
X0329922Y0160630D01*
X0325199Y0155907D02*
X0326774Y0156694D01*
X0328348Y0158268D01*
Y0159843D01*
X0327561Y0160630D01*
X0325987D01*
X0325199Y0159843D01*
Y0159056D01*
X0325987Y0158268D01*
X0328348D01*
X0323625Y0155907D02*
X0320477D01*
Y0156694D01*
X0323625Y0159843D01*
Y0160630D01*
X0320866Y0155905D02*
Y0160628D01*
X0323228D01*
X0324015Y0159841D01*
Y0158267D01*
X0323228Y0157480D01*
X0320866D01*
X0322440D02*
X0324015Y0155905D01*
X0328738Y0160628D02*
X0327163Y0159841D01*
X0325589Y0158267D01*
Y0156693D01*
X0326376Y0155905D01*
X0327951D01*
X0328738Y0156693D01*
Y0157480D01*
X0327951Y0158267D01*
X0325589D01*
X0333460Y0160628D02*
X0330312D01*
Y0158267D01*
X0331886Y0159054D01*
X0332673D01*
X0333460Y0158267D01*
Y0156693D01*
X0332673Y0155905D01*
X0331099D01*
X0330312Y0156693D01*
X0320079Y0155512D02*
Y0160235D01*
X0322440D01*
X0323227Y0159448D01*
Y0157873D01*
X0322440Y0157086D01*
X0320079D01*
X0321653D02*
X0323227Y0155512D01*
X0327950Y0160235D02*
X0326376Y0159448D01*
X0324802Y0157873D01*
Y0156299D01*
X0325589Y0155512D01*
X0327163D01*
X0327950Y0156299D01*
Y0157086D01*
X0327163Y0157873D01*
X0324802D01*
X0331886Y0155512D02*
Y0160235D01*
X0329524Y0157873D01*
X0332673D01*
X0320079Y0156299D02*
Y0161022D01*
X0322440D01*
X0323227Y0160235D01*
Y0158661D01*
X0322440Y0157873D01*
X0320079D01*
X0321653D02*
X0323227Y0156299D01*
X0327950Y0161022D02*
X0326376Y0160235D01*
X0324802Y0158661D01*
Y0157086D01*
X0325589Y0156299D01*
X0327163D01*
X0327950Y0157086D01*
Y0157873D01*
X0327163Y0158661D01*
X0324802D01*
X0329524Y0160235D02*
X0330312Y0161022D01*
X0331886D01*
X0332673Y0160235D01*
Y0159448D01*
X0331886Y0158661D01*
X0331099D01*
X0331886D01*
X0332673Y0157873D01*
Y0157086D01*
X0331886Y0156299D01*
X0330312D01*
X0329524Y0157086D01*
X0319291Y0155512D02*
Y0160235D01*
X0321653D01*
X0322440Y0159448D01*
Y0157873D01*
X0321653Y0157086D01*
X0319291D01*
X0320866D02*
X0322440Y0155512D01*
X0327163Y0160235D02*
X0324014D01*
Y0157873D01*
X0325588Y0158660D01*
X0326376D01*
X0327163Y0157873D01*
Y0156299D01*
X0326376Y0155512D01*
X0324801D01*
X0324014Y0156299D01*
X0331099Y0155512D02*
Y0160235D01*
X0328737Y0157873D01*
X0331886D01*
X0322835Y0156299D02*
Y0161022D01*
X0325196D01*
X0325983Y0160235D01*
Y0158661D01*
X0325196Y0157873D01*
X0322835D01*
X0324409D02*
X0325983Y0156299D01*
X0330706Y0161022D02*
X0327557D01*
Y0158661D01*
X0329132Y0159448D01*
X0329919D01*
X0330706Y0158661D01*
Y0157086D01*
X0329919Y0156299D01*
X0328345D01*
X0327557Y0157086D01*
X0332280Y0160235D02*
X0333068Y0161022D01*
X0334642D01*
X0335429Y0160235D01*
Y0159448D01*
X0334642Y0158661D01*
X0333855D01*
X0334642D01*
X0335429Y0157873D01*
Y0157086D01*
X0334642Y0156299D01*
X0333068D01*
X0332280Y0157086D01*
X0318898Y0155905D02*
Y0160628D01*
X0321259D01*
X0322046Y0159841D01*
Y0158267D01*
X0321259Y0157480D01*
X0318898D01*
X0320472D02*
X0322046Y0155905D01*
X0326769Y0160628D02*
X0323621D01*
Y0158267D01*
X0325195Y0159054D01*
X0325982D01*
X0326769Y0158267D01*
Y0156693D01*
X0325982Y0155905D01*
X0324408D01*
X0323621Y0156693D01*
X0331492Y0155905D02*
X0328343D01*
X0331492Y0159054D01*
Y0159841D01*
X0330705Y0160628D01*
X0329131D01*
X0328343Y0159841D01*
X0021654Y0062598D02*
Y0067321D01*
X0024015D01*
X0024802Y0066534D01*
Y0064960D01*
X0024015Y0064173D01*
X0021654D01*
X0023228D02*
X0024802Y0062598D01*
X0028738D02*
Y0067321D01*
X0026376Y0064960D01*
X0029525D01*
X0031099Y0066534D02*
X0031887Y0067321D01*
X0033461D01*
X0034248Y0066534D01*
Y0065747D01*
X0033461Y0064960D01*
X0034248Y0064173D01*
Y0063386D01*
X0033461Y0062598D01*
X0031887D01*
X0031099Y0063386D01*
Y0064173D01*
X0031887Y0064960D01*
X0031099Y0065747D01*
Y0066534D01*
X0031887Y0064960D02*
X0033461D01*
X0303346Y0060630D02*
Y0065353D01*
X0305708D01*
X0306495Y0064566D01*
Y0062991D01*
X0305708Y0062204D01*
X0303346D01*
X0304921D02*
X0306495Y0060630D01*
X0310431D02*
Y0065353D01*
X0308069Y0062991D01*
X0311218D01*
X0312792Y0060630D02*
X0314367D01*
X0313579D01*
Y0065353D01*
X0312792Y0064566D01*
X0319291Y0155512D02*
Y0160235D01*
X0321653D01*
X0322440Y0159448D01*
Y0157873D01*
X0321653Y0157086D01*
X0319291D01*
X0320866D02*
X0322440Y0155512D01*
X0326376D02*
Y0160235D01*
X0324014Y0157873D01*
X0327163D01*
X0328737Y0160235D02*
X0331886D01*
Y0159448D01*
X0328737Y0156299D01*
Y0155512D01*
X0320866Y0155905D02*
Y0160628D01*
X0323228D01*
X0324015Y0159841D01*
Y0158267D01*
X0323228Y0157480D01*
X0320866D01*
X0322440D02*
X0324015Y0155905D01*
X0327951D02*
Y0160628D01*
X0325589Y0158267D01*
X0328738D01*
X0333460Y0160628D02*
X0331886Y0159841D01*
X0330312Y0158267D01*
Y0156693D01*
X0331099Y0155905D01*
X0332673D01*
X0333460Y0156693D01*
Y0157480D01*
X0332673Y0158267D01*
X0330312D01*
X0319685Y0155905D02*
Y0160628D01*
X0322046D01*
X0322834Y0159841D01*
Y0158267D01*
X0322046Y0157480D01*
X0319685D01*
X0321259D02*
X0322834Y0155905D01*
X0326769D02*
Y0160628D01*
X0324408Y0158267D01*
X0327556D01*
X0332279Y0160628D02*
X0329131D01*
Y0158267D01*
X0330705Y0159054D01*
X0331492D01*
X0332279Y0158267D01*
Y0156693D01*
X0331492Y0155905D01*
X0329918D01*
X0329131Y0156693D01*
X0320079Y0155905D02*
Y0160628D01*
X0322440D01*
X0323227Y0159841D01*
Y0158267D01*
X0322440Y0157480D01*
X0320079D01*
X0321653D02*
X0323227Y0155905D01*
X0324802Y0159841D02*
X0325589Y0160628D01*
X0327163D01*
X0327950Y0159841D01*
Y0159054D01*
X0327163Y0158267D01*
X0326376D01*
X0327163D01*
X0327950Y0157480D01*
Y0156693D01*
X0327163Y0155905D01*
X0325589D01*
X0324802Y0156693D01*
X0332673Y0160628D02*
X0329524D01*
Y0158267D01*
X0331099Y0159054D01*
X0331886D01*
X0332673Y0158267D01*
Y0156693D01*
X0331886Y0155905D01*
X0330312D01*
X0329524Y0156693D01*
X0319291Y0155905D02*
Y0160628D01*
X0321653D01*
X0322440Y0159841D01*
Y0158267D01*
X0321653Y0157480D01*
X0319291D01*
X0320866D02*
X0322440Y0155905D01*
X0324014Y0159841D02*
X0324801Y0160628D01*
X0326376D01*
X0327163Y0159841D01*
Y0159054D01*
X0326376Y0158267D01*
X0325588D01*
X0326376D01*
X0327163Y0157480D01*
Y0156693D01*
X0326376Y0155905D01*
X0324801D01*
X0324014Y0156693D01*
X0331099Y0155905D02*
Y0160628D01*
X0328737Y0158267D01*
X0331886D01*
X0319685Y0155905D02*
Y0160628D01*
X0322046D01*
X0322834Y0159841D01*
Y0158267D01*
X0322046Y0157480D01*
X0319685D01*
X0321259D02*
X0322834Y0155905D01*
X0324408Y0159841D02*
X0325195Y0160628D01*
X0326769D01*
X0327556Y0159841D01*
Y0159054D01*
X0326769Y0158267D01*
X0325982D01*
X0326769D01*
X0327556Y0157480D01*
Y0156693D01*
X0326769Y0155905D01*
X0325195D01*
X0324408Y0156693D01*
X0329131Y0159841D02*
X0329918Y0160628D01*
X0331492D01*
X0332279Y0159841D01*
Y0159054D01*
X0331492Y0158267D01*
X0330705D01*
X0331492D01*
X0332279Y0157480D01*
Y0156693D01*
X0331492Y0155905D01*
X0329918D01*
X0329131Y0156693D01*
X0101575Y0313779D02*
Y0318502D01*
X0103936D01*
X0104723Y0317715D01*
Y0316141D01*
X0103936Y0315354D01*
X0101575D01*
X0103149D02*
X0104723Y0313779D01*
X0106298Y0317715D02*
X0107085Y0318502D01*
X0108659D01*
X0109446Y0317715D01*
Y0316928D01*
X0108659Y0316141D01*
X0107872D01*
X0108659D01*
X0109446Y0315354D01*
Y0314567D01*
X0108659Y0313779D01*
X0107085D01*
X0106298Y0314567D01*
X0114169Y0313779D02*
X0111021D01*
X0114169Y0316928D01*
Y0317715D01*
X0113382Y0318502D01*
X0111808D01*
X0111021Y0317715D01*
X0100787Y0322441D02*
Y0327164D01*
X0103149D01*
X0103936Y0326377D01*
Y0324802D01*
X0103149Y0324015D01*
X0100787D01*
X0102362D02*
X0103936Y0322441D01*
X0105510Y0326377D02*
X0106297Y0327164D01*
X0107872D01*
X0108659Y0326377D01*
Y0325589D01*
X0107872Y0324802D01*
X0107085D01*
X0107872D01*
X0108659Y0324015D01*
Y0323228D01*
X0107872Y0322441D01*
X0106297D01*
X0105510Y0323228D01*
X0110233Y0326377D02*
X0111020Y0327164D01*
X0112595D01*
X0113382Y0326377D01*
Y0323228D01*
X0112595Y0322441D01*
X0111020D01*
X0110233Y0323228D01*
Y0326377D01*
X0214961Y0247638D02*
Y0252361D01*
X0217322D01*
X0218109Y0251573D01*
Y0249999D01*
X0217322Y0249212D01*
X0214961D01*
X0216535D02*
X0218109Y0247638D01*
X0222832D02*
X0219684D01*
X0222832Y0250786D01*
Y0251573D01*
X0222045Y0252361D01*
X0220471D01*
X0219684Y0251573D01*
X0224406Y0248425D02*
X0225194Y0247638D01*
X0226768D01*
X0227555Y0248425D01*
Y0251573D01*
X0226768Y0252361D01*
X0225194D01*
X0224406Y0251573D01*
Y0250786D01*
X0225194Y0249999D01*
X0227555D01*
X0214961Y0239764D02*
Y0244487D01*
X0217322D01*
X0218109Y0243700D01*
Y0242125D01*
X0217322Y0241338D01*
X0214961D01*
X0216535D02*
X0218109Y0239764D01*
X0222832D02*
X0219684D01*
X0222832Y0242912D01*
Y0243700D01*
X0222045Y0244487D01*
X0220471D01*
X0219684Y0243700D01*
X0224406D02*
X0225194Y0244487D01*
X0226768D01*
X0227555Y0243700D01*
Y0242912D01*
X0226768Y0242125D01*
X0227555Y0241338D01*
Y0240551D01*
X0226768Y0239764D01*
X0225194D01*
X0224406Y0240551D01*
Y0241338D01*
X0225194Y0242125D01*
X0224406Y0242912D01*
Y0243700D01*
X0225194Y0242125D02*
X0226768D01*
X0171260Y0229134D02*
Y0233857D01*
X0173621D01*
X0174408Y0233070D01*
Y0231495D01*
X0173621Y0230708D01*
X0171260D01*
X0172834D02*
X0174408Y0229134D01*
X0175983Y0233070D02*
X0176770Y0233857D01*
X0178344D01*
X0179131Y0233070D01*
Y0232282D01*
X0178344Y0231495D01*
X0177557D01*
X0178344D01*
X0179131Y0230708D01*
Y0229921D01*
X0178344Y0229134D01*
X0176770D01*
X0175983Y0229921D01*
X0180706Y0229134D02*
X0182280D01*
X0181493D01*
Y0233857D01*
X0180706Y0233070D01*
X0266929Y0224410D02*
Y0229132D01*
X0269291D01*
X0270078Y0228345D01*
Y0226771D01*
X0269291Y0225984D01*
X0266929D01*
X0268503D02*
X0270078Y0224410D01*
X0271652D02*
X0273226D01*
X0272439D01*
Y0229132D01*
X0271652Y0228345D01*
X0275588Y0225197D02*
X0276375Y0224410D01*
X0277949D01*
X0278736Y0225197D01*
Y0228345D01*
X0277949Y0229132D01*
X0276375D01*
X0275588Y0228345D01*
Y0227558D01*
X0276375Y0226771D01*
X0278736D01*
X0285827Y0234252D02*
Y0238975D01*
X0288188D01*
X0288975Y0238188D01*
Y0236613D01*
X0288188Y0235826D01*
X0285827D01*
X0287401D02*
X0288975Y0234252D01*
X0290550D02*
X0292124D01*
X0291337D01*
Y0238975D01*
X0290550Y0238188D01*
X0294485Y0238975D02*
X0297634D01*
Y0238188D01*
X0294485Y0235039D01*
Y0234252D01*
X0219685Y0298425D02*
X0214962D01*
Y0300787D01*
X0215749Y0301574D01*
X0217324D01*
X0218111Y0300787D01*
Y0298425D01*
Y0299999D02*
X0219685Y0301574D01*
Y0303148D02*
Y0304722D01*
Y0303935D01*
X0214962D01*
X0215749Y0303148D01*
Y0307084D02*
X0214962Y0307871D01*
Y0309445D01*
X0215749Y0310232D01*
X0216536D01*
X0217324Y0309445D01*
Y0308658D01*
Y0309445D01*
X0218111Y0310232D01*
X0218898D01*
X0219685Y0309445D01*
Y0307871D01*
X0218898Y0307084D01*
X0227953Y0301575D02*
X0223230D01*
Y0303936D01*
X0224017Y0304723D01*
X0225591D01*
X0226378Y0303936D01*
Y0301575D01*
Y0303149D02*
X0227953Y0304723D01*
X0223230Y0309446D02*
Y0306298D01*
X0225591D01*
X0224804Y0307872D01*
Y0308659D01*
X0225591Y0309446D01*
X0227166D01*
X0227953Y0308659D01*
Y0307085D01*
X0227166Y0306298D01*
X0235039Y0301575D02*
X0230316D01*
Y0303936D01*
X0231104Y0304723D01*
X0232678D01*
X0233465Y0303936D01*
Y0301575D01*
Y0303149D02*
X0235039Y0304723D01*
X0230316Y0309446D02*
X0231104Y0307872D01*
X0232678Y0306298D01*
X0234252D01*
X0235039Y0307085D01*
Y0308659D01*
X0234252Y0309446D01*
X0233465D01*
X0232678Y0308659D01*
Y0306298D01*
X0242126Y0301575D02*
X0237403D01*
Y0303936D01*
X0238190Y0304723D01*
X0239764D01*
X0240552Y0303936D01*
Y0301575D01*
Y0303149D02*
X0242126Y0304723D01*
Y0308659D02*
X0237403D01*
X0239764Y0306298D01*
Y0309446D01*
X0283858Y0277165D02*
X0279135D01*
Y0279527D01*
X0279923Y0280314D01*
X0281497D01*
X0282284Y0279527D01*
Y0277165D01*
Y0278740D02*
X0283858Y0280314D01*
X0279923Y0281888D02*
X0279135Y0282675D01*
Y0284250D01*
X0279923Y0285037D01*
X0280710D01*
X0281497Y0284250D01*
Y0283463D01*
Y0284250D01*
X0282284Y0285037D01*
X0283071D01*
X0283858Y0284250D01*
Y0282675D01*
X0283071Y0281888D01*
X0276378Y0344882D02*
Y0349605D01*
X0278739D01*
X0279526Y0348818D01*
Y0347243D01*
X0278739Y0346456D01*
X0276378D01*
X0277952D02*
X0279526Y0344882D01*
X0284249D02*
X0281101D01*
X0284249Y0348030D01*
Y0348818D01*
X0283462Y0349605D01*
X0281888D01*
X0281101Y0348818D01*
X0246062Y0259449D02*
Y0262597D01*
X0245275Y0263384D01*
X0243701D01*
X0242913Y0262597D01*
Y0259449D01*
X0243701Y0258661D01*
X0245275D01*
X0244488Y0260236D02*
X0246062Y0258661D01*
X0245275D02*
X0246062Y0259449D01*
X0247636Y0258661D02*
X0249211D01*
X0248423D01*
Y0263384D01*
X0247636Y0262597D01*
X0277953Y0358660D02*
Y0353937D01*
X0281101D01*
X0285824Y0358660D02*
X0282676D01*
Y0353937D01*
X0285824D01*
X0282676Y0356298D02*
X0284250D01*
X0287399Y0358660D02*
Y0353937D01*
X0289760D01*
X0290547Y0354724D01*
Y0357873D01*
X0289760Y0358660D01*
X0287399D01*
X0292121Y0353937D02*
X0293696D01*
X0292909D01*
Y0358660D01*
X0292121Y0357873D01*
X0068110Y0238975D02*
Y0234252D01*
X0071259D01*
X0075982D02*
X0072833D01*
X0075982Y0237401D01*
Y0238188D01*
X0075195Y0238975D01*
X0073620D01*
X0072833Y0238188D01*
X0238978Y0274803D02*
X0243701D01*
Y0277952D01*
Y0279526D02*
Y0281100D01*
Y0280313D01*
X0238978D01*
X0239765Y0279526D01*
X0071260Y0347636D02*
X0072834D01*
X0072047D01*
Y0342913D01*
X0071260D01*
X0072834D01*
X0078344Y0346849D02*
X0077557Y0347636D01*
X0075983D01*
X0075196Y0346849D01*
Y0343701D01*
X0075983Y0342913D01*
X0077557D01*
X0078344Y0343701D01*
X0079918Y0346849D02*
X0080706Y0347636D01*
X0082280D01*
X0083067Y0346849D01*
Y0346062D01*
X0082280Y0345275D01*
X0081493D01*
X0082280D01*
X0083067Y0344488D01*
Y0343701D01*
X0082280Y0342913D01*
X0080706D01*
X0079918Y0343701D01*
X0285827Y0255117D02*
X0287401D01*
X0286614D01*
Y0250394D01*
X0285827D01*
X0287401D01*
X0292911Y0254329D02*
X0292124Y0255117D01*
X0290550D01*
X0289762Y0254329D01*
Y0251181D01*
X0290550Y0250394D01*
X0292124D01*
X0292911Y0251181D01*
X0294485Y0250394D02*
X0296060D01*
X0295272D01*
Y0255117D01*
X0294485Y0254329D01*
X0104330Y0337794D02*
X0103542Y0338581D01*
X0101968D01*
X0101181Y0337794D01*
Y0334645D01*
X0101968Y0333858D01*
X0103542D01*
X0104330Y0334645D01*
X0105904Y0333858D02*
X0107478D01*
X0106691D01*
Y0338581D01*
X0105904Y0337794D01*
X0109840D02*
X0110627Y0338581D01*
X0112201D01*
X0112988Y0337794D01*
Y0337007D01*
X0112201Y0336220D01*
X0112988Y0335433D01*
Y0334645D01*
X0112201Y0333858D01*
X0110627D01*
X0109840Y0334645D01*
Y0335433D01*
X0110627Y0336220D01*
X0109840Y0337007D01*
Y0337794D01*
X0110627Y0336220D02*
X0112201D01*
X0112600Y0279526D02*
X0111813Y0278739D01*
Y0277165D01*
X0112600Y0276378D01*
X0115748D01*
X0116535Y0277165D01*
Y0278739D01*
X0115748Y0279526D01*
X0116535Y0281101D02*
Y0282675D01*
Y0281888D01*
X0111813D01*
X0112600Y0281101D01*
X0111813Y0285037D02*
Y0288185D01*
X0112600D01*
X0115748Y0285037D01*
X0116535D01*
X0104088Y0229487D02*
X0103301Y0228700D01*
Y0227126D01*
X0104088Y0226339D01*
X0107237D01*
X0108024Y0227126D01*
Y0228700D01*
X0107237Y0229487D01*
X0108024Y0231062D02*
Y0232636D01*
Y0231849D01*
X0103301D01*
X0104088Y0231062D01*
X0108024Y0237359D02*
X0103301D01*
X0105662Y0234997D01*
Y0238146D01*
X0080708Y0177952D02*
X0079921Y0178739D01*
X0078346D01*
X0077559Y0177952D01*
Y0174803D01*
X0078346Y0174016D01*
X0079921D01*
X0080708Y0174803D01*
X0082282Y0174016D02*
X0083856D01*
X0083069D01*
Y0178739D01*
X0082282Y0177952D01*
X0089366Y0174016D02*
X0086218D01*
X0089366Y0177164D01*
Y0177952D01*
X0088579Y0178739D01*
X0087005D01*
X0086218Y0177952D01*
X0216537Y0292125D02*
X0215750Y0291338D01*
Y0289763D01*
X0216537Y0288976D01*
X0219685D01*
X0220472Y0289763D01*
Y0291338D01*
X0219685Y0292125D01*
Y0293699D02*
X0220472Y0294486D01*
Y0296061D01*
X0219685Y0296848D01*
X0216537D01*
X0215750Y0296061D01*
Y0294486D01*
X0216537Y0293699D01*
X0217324D01*
X0218111Y0294486D01*
Y0296848D01*
X0124802Y0177952D02*
X0124015Y0178739D01*
X0122441D01*
X0121653Y0177952D01*
Y0174803D01*
X0122441Y0174016D01*
X0124015D01*
X0124802Y0174803D01*
X0126376Y0177952D02*
X0127164Y0178739D01*
X0128738D01*
X0129525Y0177952D01*
Y0177164D01*
X0128738Y0176377D01*
X0129525Y0175590D01*
Y0174803D01*
X0128738Y0174016D01*
X0127164D01*
X0126376Y0174803D01*
Y0175590D01*
X0127164Y0176377D01*
X0126376Y0177164D01*
Y0177952D01*
X0127164Y0176377D02*
X0128738D01*
X0224411Y0292125D02*
X0223624Y0291338D01*
Y0289763D01*
X0224411Y0288976D01*
X0227559D01*
X0228346Y0289763D01*
Y0291338D01*
X0227559Y0292125D01*
X0223624Y0293699D02*
Y0296848D01*
X0224411D01*
X0227559Y0293699D01*
X0228346D01*
X0168897Y0312597D02*
X0168110Y0313384D01*
X0166535D01*
X0165748Y0312597D01*
Y0309449D01*
X0166535Y0308661D01*
X0168110D01*
X0168897Y0309449D01*
X0173619Y0313384D02*
X0172045Y0312597D01*
X0170471Y0311023D01*
Y0309449D01*
X0171258Y0308661D01*
X0172832D01*
X0173619Y0309449D01*
Y0310236D01*
X0172832Y0311023D01*
X0170471D01*
X0208660Y0231101D02*
X0207873Y0231888D01*
X0206299D01*
X0205512Y0231101D01*
Y0227953D01*
X0206299Y0227165D01*
X0207873D01*
X0208660Y0227953D01*
X0212596Y0227165D02*
Y0231888D01*
X0210235Y0229527D01*
X0213383D01*
X0146455Y0250985D02*
X0147243Y0251772D01*
Y0253347D01*
X0146455Y0254134D01*
X0143307D01*
X0142520Y0253347D01*
Y0251772D01*
X0143307Y0250985D01*
X0146455Y0249411D02*
X0147243Y0248624D01*
Y0247049D01*
X0146455Y0246262D01*
X0145668D01*
X0144881Y0247049D01*
Y0247837D01*
Y0247049D01*
X0144094Y0246262D01*
X0143307D01*
X0142520Y0247049D01*
Y0248624D01*
X0143307Y0249411D01*
X0199999Y0314172D02*
X0199212Y0314959D01*
X0197637D01*
X0196850Y0314172D01*
Y0311023D01*
X0197637Y0310236D01*
X0199212D01*
X0199999Y0311023D01*
X0204722Y0310236D02*
X0201573D01*
X0204722Y0313385D01*
Y0314172D01*
X0203935Y0314959D01*
X0202360D01*
X0201573Y0314172D01*
X0287794Y0266534D02*
X0287007Y0267321D01*
X0285433D01*
X0284646Y0266534D01*
Y0263386D01*
X0285433Y0262598D01*
X0287007D01*
X0287794Y0263386D01*
X0289369Y0262598D02*
X0290943D01*
X0290156D01*
Y0267321D01*
X0289369Y0266534D01*
X0266929Y0237795D02*
X0262206D01*
Y0240157D01*
X0262993Y0240944D01*
X0264568D01*
X0265355Y0240157D01*
Y0237795D01*
Y0239370D02*
X0266929Y0240944D01*
X0266142Y0242518D02*
X0266929Y0243305D01*
Y0244880D01*
X0266142Y0245667D01*
X0262993D01*
X0262206Y0244880D01*
Y0243305D01*
X0262993Y0242518D01*
X0263780D01*
X0264568Y0243305D01*
Y0245667D01*
X0046063Y0009447D02*
X0049212Y0004724D01*
Y0009447D02*
X0046063Y0004724D01*
X0050786Y0009447D02*
X0053935D01*
X0052360D01*
Y0004724D01*
X0055509Y0009447D02*
X0058657D01*
Y0008660D01*
X0055509Y0005512D01*
Y0004724D01*
X0320472Y0155905D02*
Y0160628D01*
X0322834D01*
X0323621Y0159841D01*
Y0158267D01*
X0322834Y0157480D01*
X0320472D01*
X0322047D02*
X0323621Y0155905D01*
X0325195Y0159841D02*
X0325982Y0160628D01*
X0327557D01*
X0328344Y0159841D01*
Y0159054D01*
X0327557Y0158267D01*
X0326770D01*
X0327557D01*
X0328344Y0157480D01*
Y0156693D01*
X0327557Y0155905D01*
X0325982D01*
X0325195Y0156693D01*
X0329918Y0159841D02*
X0330705Y0160628D01*
X0332280D01*
X0333067Y0159841D01*
Y0159054D01*
X0332280Y0158267D01*
X0333067Y0157480D01*
Y0156693D01*
X0332280Y0155905D01*
X0330705D01*
X0329918Y0156693D01*
Y0157480D01*
X0330705Y0158267D01*
X0329918Y0159054D01*
Y0159841D01*
X0330705Y0158267D02*
X0332280D01*
X0320079Y0155905D02*
Y0160628D01*
X0322440D01*
X0323227Y0159841D01*
Y0158267D01*
X0322440Y0157480D01*
X0320079D01*
X0321653D02*
X0323227Y0155905D01*
X0324802Y0159841D02*
X0325589Y0160628D01*
X0327163D01*
X0327950Y0159841D01*
Y0159054D01*
X0327163Y0158267D01*
X0326376D01*
X0327163D01*
X0327950Y0157480D01*
Y0156693D01*
X0327163Y0155905D01*
X0325589D01*
X0324802Y0156693D01*
X0329524D02*
X0330312Y0155905D01*
X0331886D01*
X0332673Y0156693D01*
Y0159841D01*
X0331886Y0160628D01*
X0330312D01*
X0329524Y0159841D01*
Y0159054D01*
X0330312Y0158267D01*
X0332673D01*
X0319291Y0155905D02*
Y0160628D01*
X0321653D01*
X0322440Y0159841D01*
Y0158267D01*
X0321653Y0157480D01*
X0319291D01*
X0320866D02*
X0322440Y0155905D01*
X0326376D02*
Y0160628D01*
X0324014Y0158267D01*
X0327163D01*
X0328737Y0159841D02*
X0329524Y0160628D01*
X0331099D01*
X0331886Y0159841D01*
Y0156693D01*
X0331099Y0155905D01*
X0329524D01*
X0328737Y0156693D01*
Y0159841D01*
X0319291Y0156299D02*
Y0161022D01*
X0321653D01*
X0322440Y0160235D01*
Y0158661D01*
X0321653Y0157873D01*
X0319291D01*
X0320866D02*
X0322440Y0156299D01*
X0327163Y0161022D02*
X0324014D01*
Y0158661D01*
X0325588Y0159448D01*
X0326376D01*
X0327163Y0158661D01*
Y0157086D01*
X0326376Y0156299D01*
X0324801D01*
X0324014Y0157086D01*
X0328737Y0161022D02*
X0331886D01*
Y0160235D01*
X0328737Y0157086D01*
Y0156299D01*
X0319685D02*
Y0161022D01*
X0322046D01*
X0322834Y0160235D01*
Y0158661D01*
X0322046Y0157873D01*
X0319685D01*
X0321259D02*
X0322834Y0156299D01*
X0327556Y0161022D02*
X0324408D01*
Y0158661D01*
X0325982Y0159448D01*
X0326769D01*
X0327556Y0158661D01*
Y0157086D01*
X0326769Y0156299D01*
X0325195D01*
X0324408Y0157086D01*
X0329131Y0160235D02*
X0329918Y0161022D01*
X0331492D01*
X0332279Y0160235D01*
Y0159448D01*
X0331492Y0158661D01*
X0332279Y0157873D01*
Y0157086D01*
X0331492Y0156299D01*
X0329918D01*
X0329131Y0157086D01*
Y0157873D01*
X0329918Y0158661D01*
X0329131Y0159448D01*
Y0160235D01*
X0329918Y0158661D02*
X0331492D01*
X0319291Y0155905D02*
Y0160628D01*
X0321653D01*
X0322440Y0159841D01*
Y0158267D01*
X0321653Y0157480D01*
X0319291D01*
X0320866D02*
X0322440Y0155905D01*
X0327163Y0160628D02*
X0324014D01*
Y0158267D01*
X0325588Y0159054D01*
X0326376D01*
X0327163Y0158267D01*
Y0156693D01*
X0326376Y0155905D01*
X0324801D01*
X0324014Y0156693D01*
X0328737D02*
X0329524Y0155905D01*
X0331099D01*
X0331886Y0156693D01*
Y0159841D01*
X0331099Y0160628D01*
X0329524D01*
X0328737Y0159841D01*
Y0159054D01*
X0329524Y0158267D01*
X0331886D01*
X0318898Y0155905D02*
Y0160628D01*
X0321259D01*
X0322046Y0159841D01*
Y0158267D01*
X0321259Y0157480D01*
X0318898D01*
X0320472D02*
X0322046Y0155905D01*
X0323621Y0160628D02*
X0326769D01*
Y0159841D01*
X0323621Y0156693D01*
Y0155905D01*
X0328343D02*
X0329918D01*
X0329131D01*
Y0160628D01*
X0328343Y0159841D01*
X0318898Y0155905D02*
Y0160628D01*
X0321259D01*
X0322046Y0159841D01*
Y0158267D01*
X0321259Y0157480D01*
X0318898D01*
X0320472D02*
X0322046Y0155905D01*
X0323621Y0160628D02*
X0326769D01*
Y0159841D01*
X0323621Y0156693D01*
Y0155905D01*
X0331492D02*
X0328343D01*
X0331492Y0159054D01*
Y0159841D01*
X0330705Y0160628D01*
X0329131D01*
X0328343Y0159841D01*
X0318898Y0155512D02*
Y0160235D01*
X0321259D01*
X0322046Y0159448D01*
Y0157873D01*
X0321259Y0157086D01*
X0318898D01*
X0320472D02*
X0322046Y0155512D01*
X0323621Y0160235D02*
X0326769D01*
Y0159448D01*
X0323621Y0156299D01*
Y0155512D01*
X0328343Y0159448D02*
X0329131Y0160235D01*
X0330705D01*
X0331492Y0159448D01*
Y0158660D01*
X0330705Y0157873D01*
X0329918D01*
X0330705D01*
X0331492Y0157086D01*
Y0156299D01*
X0330705Y0155512D01*
X0329131D01*
X0328343Y0156299D01*
X0318898Y0155905D02*
Y0160628D01*
X0321259D01*
X0322046Y0159841D01*
Y0158267D01*
X0321259Y0157480D01*
X0318898D01*
X0320472D02*
X0322046Y0155905D01*
X0323621Y0160628D02*
X0326769D01*
Y0159841D01*
X0323621Y0156693D01*
Y0155905D01*
X0330705D02*
Y0160628D01*
X0328343Y0158267D01*
X0331492D01*
X0335433Y0160630D02*
Y0155907D01*
X0333072D01*
X0332284Y0156694D01*
Y0158268D01*
X0333072Y0159056D01*
X0335433D01*
X0333859D02*
X0332284Y0160630D01*
X0330710Y0159843D02*
X0329923Y0160630D01*
X0328349D01*
X0327562Y0159843D01*
Y0156694D01*
X0328349Y0155907D01*
X0329923D01*
X0330710Y0156694D01*
Y0157481D01*
X0329923Y0158268D01*
X0327562D01*
X0325987Y0160630D02*
X0324413D01*
X0325200D01*
Y0155907D01*
X0325987Y0156694D01*
X0318898Y0155905D02*
Y0160628D01*
X0321259D01*
X0322046Y0159841D01*
Y0158267D01*
X0321259Y0157480D01*
X0318898D01*
X0320472D02*
X0322046Y0155905D01*
X0323621Y0156693D02*
X0324408Y0155905D01*
X0325982D01*
X0326769Y0156693D01*
Y0159841D01*
X0325982Y0160628D01*
X0324408D01*
X0323621Y0159841D01*
Y0159054D01*
X0324408Y0158267D01*
X0326769D01*
X0331492Y0155905D02*
X0328343D01*
X0331492Y0159054D01*
Y0159841D01*
X0330705Y0160628D01*
X0329131D01*
X0328343Y0159841D01*
X0319291Y0155905D02*
Y0160628D01*
X0321653D01*
X0322440Y0159841D01*
Y0158267D01*
X0321653Y0157480D01*
X0319291D01*
X0320866D02*
X0322440Y0155905D01*
X0324014Y0156693D02*
X0324801Y0155905D01*
X0326376D01*
X0327163Y0156693D01*
Y0159841D01*
X0326376Y0160628D01*
X0324801D01*
X0324014Y0159841D01*
Y0159054D01*
X0324801Y0158267D01*
X0327163D01*
X0328737Y0159841D02*
X0329524Y0160628D01*
X0331099D01*
X0331886Y0159841D01*
Y0159054D01*
X0331099Y0158267D01*
X0330311D01*
X0331099D01*
X0331886Y0157480D01*
Y0156693D01*
X0331099Y0155905D01*
X0329524D01*
X0328737Y0156693D01*
X0319291Y0155905D02*
Y0160628D01*
X0321653D01*
X0322440Y0159841D01*
Y0158267D01*
X0321653Y0157480D01*
X0319291D01*
X0320866D02*
X0322440Y0155905D01*
X0324014Y0156693D02*
X0324801Y0155905D01*
X0326376D01*
X0327163Y0156693D01*
Y0159841D01*
X0326376Y0160628D01*
X0324801D01*
X0324014Y0159841D01*
Y0159054D01*
X0324801Y0158267D01*
X0327163D01*
X0331099Y0155905D02*
Y0160628D01*
X0328737Y0158267D01*
X0331886D01*
X0319685Y0160235D02*
X0322834D01*
X0321259D01*
Y0155512D01*
X0327556Y0160235D02*
X0325982Y0159448D01*
X0324408Y0157873D01*
Y0156299D01*
X0325195Y0155512D01*
X0326769D01*
X0327556Y0156299D01*
Y0157086D01*
X0326769Y0157873D01*
X0324408D01*
X0319685Y0160628D02*
X0322834D01*
X0321259D01*
Y0155905D01*
X0324408Y0160628D02*
X0327556D01*
Y0159841D01*
X0324408Y0156693D01*
Y0155905D01*
X0319685Y0161022D02*
X0322834D01*
X0321259D01*
Y0156299D01*
X0324408D02*
X0325982D01*
X0325195D01*
Y0161022D01*
X0324408Y0160235D01*
X0328344D02*
X0329131Y0161022D01*
X0330705D01*
X0331492Y0160235D01*
Y0159448D01*
X0330705Y0158661D01*
X0329918D01*
X0330705D01*
X0331492Y0157873D01*
Y0157086D01*
X0330705Y0156299D01*
X0329131D01*
X0328344Y0157086D01*
X0318898Y0160235D02*
X0322046D01*
X0320472D01*
Y0155512D01*
X0323621D02*
X0325195D01*
X0324408D01*
Y0160235D01*
X0323621Y0159448D01*
X0329918Y0155512D02*
Y0160235D01*
X0327556Y0157873D01*
X0330705D01*
X0319685Y0160628D02*
X0322834D01*
X0321259D01*
Y0155905D01*
X0324408D02*
X0325982D01*
X0325195D01*
Y0160628D01*
X0324408Y0159841D01*
X0331492Y0160628D02*
X0328344D01*
Y0158267D01*
X0329918Y0159054D01*
X0330705D01*
X0331492Y0158267D01*
Y0156693D01*
X0330705Y0155905D01*
X0329131D01*
X0328344Y0156693D01*
X0320079Y0160628D02*
X0323227D01*
X0321653D01*
Y0155905D01*
X0327950D02*
X0324802D01*
X0327950Y0159054D01*
Y0159841D01*
X0327163Y0160628D01*
X0325589D01*
X0324802Y0159841D01*
X0329524D02*
X0330312Y0160628D01*
X0331886D01*
X0332673Y0159841D01*
Y0156693D01*
X0331886Y0155905D01*
X0330312D01*
X0329524Y0156693D01*
Y0159841D01*
X0321654Y0161022D02*
X0324802D01*
X0323228D01*
Y0156299D01*
X0329525D02*
X0326376D01*
X0329525Y0159448D01*
Y0160235D01*
X0328738Y0161022D01*
X0327164D01*
X0326376Y0160235D01*
X0331099Y0156299D02*
X0332674D01*
X0331887D01*
Y0161022D01*
X0331099Y0160235D01*
X0320079Y0160235D02*
X0323227D01*
X0321653D01*
Y0155512D01*
X0327950D02*
X0324802D01*
X0327950Y0158660D01*
Y0159448D01*
X0327163Y0160235D01*
X0325589D01*
X0324802Y0159448D01*
X0332673Y0155512D02*
X0329524D01*
X0332673Y0158660D01*
Y0159448D01*
X0331886Y0160235D01*
X0330312D01*
X0329524Y0159448D01*
X0318898Y0160628D02*
X0322046D01*
X0320472D01*
Y0155905D01*
X0326769D02*
X0323621D01*
X0326769Y0159054D01*
Y0159841D01*
X0325982Y0160628D01*
X0324408D01*
X0323621Y0159841D01*
X0328343D02*
X0329131Y0160628D01*
X0330705D01*
X0331492Y0159841D01*
Y0159054D01*
X0330705Y0158267D01*
X0329918D01*
X0330705D01*
X0331492Y0157480D01*
Y0156693D01*
X0330705Y0155905D01*
X0329131D01*
X0328343Y0156693D01*
X0319291Y0160628D02*
X0322440D01*
X0320866D01*
Y0155905D01*
X0327163D02*
X0324014D01*
X0327163Y0159054D01*
Y0159841D01*
X0326376Y0160628D01*
X0324801D01*
X0324014Y0159841D01*
X0328737D02*
X0329524Y0160628D01*
X0331099D01*
X0331886Y0159841D01*
Y0159054D01*
X0331099Y0158267D01*
X0331886Y0157480D01*
Y0156693D01*
X0331099Y0155905D01*
X0329524D01*
X0328737Y0156693D01*
Y0157480D01*
X0329524Y0158267D01*
X0328737Y0159054D01*
Y0159841D01*
X0329524Y0158267D02*
X0331099D01*
X0320472Y0160628D02*
X0323621D01*
X0322047D01*
Y0155905D01*
X0328344D02*
X0325195D01*
X0328344Y0159054D01*
Y0159841D01*
X0327557Y0160628D01*
X0325982D01*
X0325195Y0159841D01*
X0329918Y0156693D02*
X0330705Y0155905D01*
X0332280D01*
X0333067Y0156693D01*
Y0159841D01*
X0332280Y0160628D01*
X0330705D01*
X0329918Y0159841D01*
Y0159054D01*
X0330705Y0158267D01*
X0333067D01*
X0320079Y0160628D02*
X0323227D01*
X0321653D01*
Y0155905D01*
X0324802Y0159841D02*
X0325589Y0160628D01*
X0327163D01*
X0327950Y0159841D01*
Y0159054D01*
X0327163Y0158267D01*
X0326376D01*
X0327163D01*
X0327950Y0157480D01*
Y0156693D01*
X0327163Y0155905D01*
X0325589D01*
X0324802Y0156693D01*
X0329524Y0159841D02*
X0330312Y0160628D01*
X0331886D01*
X0332673Y0159841D01*
Y0156693D01*
X0331886Y0155905D01*
X0330312D01*
X0329524Y0156693D01*
Y0159841D01*
X0318504Y0160235D02*
X0321653D01*
X0320078D01*
Y0155512D01*
X0323227Y0159448D02*
X0324014Y0160235D01*
X0325588D01*
X0326375Y0159448D01*
Y0158660D01*
X0325588Y0157873D01*
X0324801D01*
X0325588D01*
X0326375Y0157086D01*
Y0156299D01*
X0325588Y0155512D01*
X0324014D01*
X0323227Y0156299D01*
X0327950Y0155512D02*
X0329524D01*
X0328737D01*
Y0160235D01*
X0327950Y0159448D01*
X0320866Y0160628D02*
X0324015D01*
X0322440D01*
Y0155905D01*
X0328738Y0160628D02*
X0325589D01*
Y0158267D01*
X0327163Y0159054D01*
X0327951D01*
X0328738Y0158267D01*
Y0156693D01*
X0327951Y0155905D01*
X0326376D01*
X0325589Y0156693D01*
X0301181Y0192518D02*
Y0187795D01*
X0304330D01*
X0308265D02*
Y0192518D01*
X0305904Y0190157D01*
X0309053D01*
X0068110Y0289762D02*
Y0285039D01*
X0071259D01*
X0072833Y0288975D02*
X0073620Y0289762D01*
X0075195D01*
X0075982Y0288975D01*
Y0288188D01*
X0075195Y0287401D01*
X0074407D01*
X0075195D01*
X0075982Y0286614D01*
Y0285826D01*
X0075195Y0285039D01*
X0073620D01*
X0072833Y0285826D01*
X0059055Y0150394D02*
Y0155117D01*
X0061417D01*
X0062204Y0154329D01*
Y0152755D01*
X0061417Y0151968D01*
X0059055D01*
X0060629D02*
X0062204Y0150394D01*
X0063778D02*
X0065352D01*
X0064565D01*
Y0155117D01*
X0063778Y0154329D01*
X0067714D02*
X0068501Y0155117D01*
X0070075D01*
X0070862Y0154329D01*
Y0153542D01*
X0070075Y0152755D01*
X0070862Y0151968D01*
Y0151181D01*
X0070075Y0150394D01*
X0068501D01*
X0067714Y0151181D01*
Y0151968D01*
X0068501Y0152755D01*
X0067714Y0153542D01*
Y0154329D01*
X0068501Y0152755D02*
X0070075D01*
X0014173Y0217321D02*
Y0212598D01*
X0017322D01*
X0022045Y0216534D02*
X0021258Y0217321D01*
X0019683D01*
X0018896Y0216534D01*
Y0213386D01*
X0019683Y0212598D01*
X0021258D01*
X0022045Y0213386D01*
X0023619Y0217321D02*
Y0212598D01*
X0025980D01*
X0026768Y0213386D01*
Y0216534D01*
X0025980Y0217321D01*
X0023619D01*
X0028342Y0212598D02*
X0029916D01*
X0029129D01*
Y0217321D01*
X0028342Y0216534D01*
X0103150Y0214959D02*
Y0210236D01*
X0105511D01*
X0106298Y0211023D01*
Y0214172D01*
X0105511Y0214959D01*
X0103150D01*
X0111021D02*
X0107872D01*
Y0212598D01*
X0109447Y0213385D01*
X0110234D01*
X0111021Y0212598D01*
Y0211023D01*
X0110234Y0210236D01*
X0108660D01*
X0107872Y0211023D01*
X0127561Y0268898D02*
X0132283D01*
Y0271259D01*
X0131496Y0272046D01*
X0128348D01*
X0127561Y0271259D01*
Y0268898D01*
Y0276769D02*
X0128348Y0275195D01*
X0129922Y0273621D01*
X0131496D01*
X0132283Y0274408D01*
Y0275982D01*
X0131496Y0276769D01*
X0130709D01*
X0129922Y0275982D01*
Y0273621D01*
X0166929Y0213778D02*
Y0209055D01*
X0169291D01*
X0170078Y0209842D01*
Y0212991D01*
X0169291Y0213778D01*
X0166929D01*
X0171652D02*
X0174801D01*
Y0212991D01*
X0171652Y0209842D01*
Y0209055D01*
X0141340Y0268898D02*
X0146063D01*
Y0271259D01*
X0145276Y0272046D01*
X0142127D01*
X0141340Y0271259D01*
Y0268898D01*
X0142127Y0273621D02*
X0141340Y0274408D01*
Y0275982D01*
X0142127Y0276769D01*
X0142914D01*
X0143702Y0275982D01*
X0144489Y0276769D01*
X0145276D01*
X0146063Y0275982D01*
Y0274408D01*
X0145276Y0273621D01*
X0144489D01*
X0143702Y0274408D01*
X0142914Y0273621D01*
X0142127D01*
X0143702Y0274408D02*
Y0275982D01*
X0166535Y0221652D02*
Y0216929D01*
X0168897D01*
X0169684Y0217716D01*
Y0220865D01*
X0168897Y0221652D01*
X0166535D01*
X0171258Y0216929D02*
X0172833D01*
X0172046D01*
Y0221652D01*
X0171258Y0220865D01*
X0175194Y0216929D02*
X0176768D01*
X0175981D01*
Y0221652D01*
X0175194Y0220865D01*
X0147639Y0268898D02*
X0152362D01*
Y0271259D01*
X0151575Y0272046D01*
X0148426D01*
X0147639Y0271259D01*
Y0268898D01*
X0152362Y0273621D02*
Y0275195D01*
Y0274408D01*
X0147639D01*
X0148426Y0273621D01*
X0152362Y0280705D02*
Y0277556D01*
X0149214Y0280705D01*
X0148426D01*
X0147639Y0279918D01*
Y0278343D01*
X0148426Y0277556D01*
X0103150Y0221258D02*
Y0216535D01*
X0105511D01*
X0106298Y0217323D01*
Y0220471D01*
X0105511Y0221258D01*
X0103150D01*
X0107872Y0216535D02*
X0109447D01*
X0108660D01*
Y0221258D01*
X0107872Y0220471D01*
X0111808D02*
X0112595Y0221258D01*
X0114170D01*
X0114957Y0220471D01*
Y0219684D01*
X0114170Y0218897D01*
X0113382D01*
X0114170D01*
X0114957Y0218110D01*
Y0217323D01*
X0114170Y0216535D01*
X0112595D01*
X0111808Y0217323D01*
X0134254Y0268898D02*
X0138976D01*
Y0271259D01*
X0138189Y0272046D01*
X0135041D01*
X0134254Y0271259D01*
Y0268898D01*
X0138976Y0273621D02*
Y0275195D01*
Y0274408D01*
X0134254D01*
X0135041Y0273621D01*
X0138976Y0279918D02*
X0134254D01*
X0136615Y0277556D01*
Y0280705D01*
X0150394Y0224410D02*
Y0229132D01*
X0152755D01*
X0153542Y0228345D01*
Y0226771D01*
X0152755Y0225984D01*
X0150394D01*
X0151968D02*
X0153542Y0224410D01*
X0155117D02*
X0156691D01*
X0155904D01*
Y0229132D01*
X0155117Y0228345D01*
X0159052D02*
X0159839Y0229132D01*
X0161414D01*
X0162201Y0228345D01*
Y0225197D01*
X0161414Y0224410D01*
X0159839D01*
X0159052Y0225197D01*
Y0228345D01*
X0166924Y0224410D02*
X0163775D01*
X0166924Y0227558D01*
Y0228345D01*
X0166137Y0229132D01*
X0164562D01*
X0163775Y0228345D01*
X0142126Y0320866D02*
Y0325589D01*
X0144487D01*
X0145275Y0324802D01*
Y0323228D01*
X0144487Y0322440D01*
X0142126D01*
X0143700D02*
X0145275Y0320866D01*
X0146849D02*
X0148423D01*
X0147636D01*
Y0325589D01*
X0146849Y0324802D01*
X0150785D02*
X0151572Y0325589D01*
X0153146D01*
X0153933Y0324802D01*
Y0321653D01*
X0153146Y0320866D01*
X0151572D01*
X0150785Y0321653D01*
Y0324802D01*
X0157869Y0320866D02*
Y0325589D01*
X0155508Y0323228D01*
X0158656D01*
X0120079Y0308661D02*
X0115356D01*
Y0311023D01*
X0116143Y0311810D01*
X0117717D01*
X0118504Y0311023D01*
Y0308661D01*
Y0310236D02*
X0120079Y0311810D01*
Y0313384D02*
Y0314959D01*
Y0314172D01*
X0115356D01*
X0116143Y0313384D01*
Y0317320D02*
X0115356Y0318107D01*
Y0319682D01*
X0116143Y0320469D01*
X0119292D01*
X0120079Y0319682D01*
Y0318107D01*
X0119292Y0317320D01*
X0116143D01*
X0115356Y0325191D02*
Y0322043D01*
X0117717D01*
X0116930Y0323617D01*
Y0324404D01*
X0117717Y0325191D01*
X0119292D01*
X0120079Y0324404D01*
Y0322830D01*
X0119292Y0322043D01*
X0150394Y0231102D02*
Y0235825D01*
X0152755D01*
X0153542Y0235038D01*
Y0233464D01*
X0152755Y0232677D01*
X0150394D01*
X0151968D02*
X0153542Y0231102D01*
X0155117D02*
X0156691D01*
X0155904D01*
Y0235825D01*
X0155117Y0235038D01*
X0159052D02*
X0159839Y0235825D01*
X0161414D01*
X0162201Y0235038D01*
Y0231890D01*
X0161414Y0231102D01*
X0159839D01*
X0159052Y0231890D01*
Y0235038D01*
X0163775Y0231890D02*
X0164562Y0231102D01*
X0166137D01*
X0166924Y0231890D01*
Y0235038D01*
X0166137Y0235825D01*
X0164562D01*
X0163775Y0235038D01*
Y0234251D01*
X0164562Y0233464D01*
X0166924D01*
X0160630Y0302362D02*
X0155907D01*
Y0304724D01*
X0156694Y0305511D01*
X0158268D01*
X0159056Y0304724D01*
Y0302362D01*
Y0303937D02*
X0160630Y0305511D01*
Y0307085D02*
Y0308659D01*
Y0307872D01*
X0155907D01*
X0156694Y0307085D01*
X0160630Y0311021D02*
Y0312595D01*
Y0311808D01*
X0155907D01*
X0156694Y0311021D01*
X0160630Y0314957D02*
Y0316531D01*
Y0315744D01*
X0155907D01*
X0156694Y0314957D01*
X0126378Y0308661D02*
X0121655D01*
Y0311023D01*
X0122442Y0311810D01*
X0124016D01*
X0124804Y0311023D01*
Y0308661D01*
Y0310236D02*
X0126378Y0311810D01*
Y0313384D02*
Y0314959D01*
Y0314172D01*
X0121655D01*
X0122442Y0313384D01*
X0126378Y0317320D02*
Y0318894D01*
Y0318107D01*
X0121655D01*
X0122442Y0317320D01*
X0126378Y0324404D02*
Y0321256D01*
X0123229Y0324404D01*
X0122442D01*
X0121655Y0323617D01*
Y0322043D01*
X0122442Y0321256D01*
X0274803Y0051967D02*
X0277952Y0047244D01*
Y0051967D02*
X0274803Y0047244D01*
X0279526Y0051967D02*
X0282675D01*
X0281100D01*
Y0047244D01*
X0284249D02*
X0285823D01*
X0285036D01*
Y0051967D01*
X0284249Y0051180D01*
X0288185D02*
X0288972Y0051967D01*
X0290546D01*
X0291333Y0051180D01*
Y0048031D01*
X0290546Y0047244D01*
X0288972D01*
X0288185Y0048031D01*
Y0051180D01*
X0312992Y0093699D02*
X0316141Y0088976D01*
Y0093699D02*
X0312992Y0088976D01*
X0317715Y0093699D02*
X0320864D01*
X0319289D01*
Y0088976D01*
X0322438Y0089763D02*
X0323225Y0088976D01*
X0324799D01*
X0325587Y0089763D01*
Y0092912D01*
X0324799Y0093699D01*
X0323225D01*
X0322438Y0092912D01*
Y0092125D01*
X0323225Y0091338D01*
X0325587D01*
X0066534Y0018896D02*
X0065747Y0019683D01*
X0064173D01*
X0063386Y0018896D01*
Y0015748D01*
X0064173Y0014961D01*
X0065747D01*
X0066534Y0015748D01*
Y0017322D01*
X0064960D01*
X0068109Y0014961D02*
Y0019683D01*
X0071257Y0014961D01*
Y0019683D01*
X0072832D02*
Y0014961D01*
X0075193D01*
X0075980Y0015748D01*
Y0018896D01*
X0075193Y0019683D01*
X0072832D01*
M02*
