G04 Layer_Color=8388736*
%FSAX25Y25*%
%MOIN*%
G70*
G01*
G75*
%ADD79R,0.03386X0.02795*%
G04:AMPARAMS|DCode=80|XSize=31.89mil|YSize=43.7mil|CornerRadius=0mil|HoleSize=0mil|Usage=FLASHONLY|Rotation=135.000|XOffset=0mil|YOffset=0mil|HoleType=Round|Shape=Rectangle|*
%AMROTATEDRECTD80*
4,1,4,0.02673,0.00418,-0.00418,-0.02673,-0.02673,-0.00418,0.00418,0.02673,0.02673,0.00418,0.0*
%
%ADD80ROTATEDRECTD80*%

G04:AMPARAMS|DCode=81|XSize=33.86mil|YSize=27.95mil|CornerRadius=0mil|HoleSize=0mil|Usage=FLASHONLY|Rotation=315.000|XOffset=0mil|YOffset=0mil|HoleType=Round|Shape=Rectangle|*
%AMROTATEDRECTD81*
4,1,4,-0.02185,0.00209,-0.00209,0.02185,0.02185,-0.00209,0.00209,-0.02185,-0.02185,0.00209,0.0*
%
%ADD81ROTATEDRECTD81*%

%ADD82R,0.04370X0.03189*%
%ADD83R,0.02795X0.03386*%
%ADD84R,0.13031X0.22874*%
%ADD85R,0.03976X0.04370*%
%ADD86R,0.03189X0.04370*%
%ADD87R,0.10669X0.09488*%
%ADD88R,0.02795X0.08701*%
%ADD89R,0.06339X0.01890*%
%ADD90R,0.01890X0.06339*%
%ADD91R,0.02795X0.04764*%
%ADD92R,0.08701X0.02402*%
%ADD93R,0.05551X0.05551*%
%ADD94R,0.09094X0.03189*%
%ADD95R,0.03189X0.05551*%
%ADD96R,0.03583X0.05551*%
%ADD97R,0.07913X0.05945*%
%ADD98R,0.22874X0.13031*%
%ADD99C,0.07874*%
%ADD100C,0.11457*%
%ADD101C,0.09094*%
%ADD102C,0.08701*%
%ADD103C,0.10669*%
%ADD104C,0.08110*%
%ADD105O,0.08701X0.10276*%
%ADD106O,0.20512X0.11850*%
%ADD107O,0.11850X0.20512*%
%ADD108C,0.07913*%
%ADD109O,0.09488X0.10669*%
%ADD110C,0.04370*%
%ADD111C,0.12638*%
%ADD112C,0.05158*%
D79*
X0133465Y0215748D02*
D03*
X0124016D02*
D03*
X0133465Y0222835D02*
D03*
X0124016D02*
D03*
D80*
X0143856Y0225436D02*
D03*
X0148031Y0221260D02*
D03*
X0143427Y0216416D02*
D03*
X0139251Y0220592D02*
D03*
D81*
X0153341Y0206108D02*
D03*
X0146659Y0212790D02*
D03*
X0158268Y0211024D02*
D03*
X0151586Y0217705D02*
D03*
D82*
X0144095Y0304134D02*
D03*
Y0310039D02*
D03*
X0150787D02*
D03*
Y0304134D02*
D03*
X0137402Y0313976D02*
D03*
Y0308071D02*
D03*
X0130709D02*
D03*
Y0313976D02*
D03*
X0190945Y0311024D02*
D03*
Y0316929D02*
D03*
X0095669Y0321063D02*
D03*
Y0326969D02*
D03*
X0188189Y0228937D02*
D03*
Y0234843D02*
D03*
X0272835Y0233898D02*
D03*
Y0239803D02*
D03*
X0279921Y0233898D02*
D03*
Y0239803D02*
D03*
X0217323Y0319882D02*
D03*
Y0313976D02*
D03*
X0225697Y0313850D02*
D03*
Y0319756D02*
D03*
X0232697Y0313850D02*
D03*
Y0319756D02*
D03*
X0239697Y0313850D02*
D03*
Y0319756D02*
D03*
X0288976Y0284055D02*
D03*
Y0278150D02*
D03*
X0233465Y0280512D02*
D03*
Y0274606D02*
D03*
X0095669Y0338780D02*
D03*
Y0332874D02*
D03*
X0105905Y0249803D02*
D03*
Y0243898D02*
D03*
X0226378Y0280512D02*
D03*
Y0274606D02*
D03*
X0151575Y0247638D02*
D03*
Y0253543D02*
D03*
X0264961Y0257283D02*
D03*
Y0251378D02*
D03*
D83*
X0130709Y0302362D02*
D03*
Y0292913D02*
D03*
X0137795Y0302362D02*
D03*
Y0292913D02*
D03*
X0144882Y0299213D02*
D03*
Y0289764D02*
D03*
X0151969Y0299213D02*
D03*
Y0289764D02*
D03*
D84*
X0051968Y0288583D02*
D03*
X0092913D02*
D03*
X0051968Y0237402D02*
D03*
X0092913D02*
D03*
D85*
X0209252Y0133465D02*
D03*
X0205512Y0141339D02*
D03*
X0212992D02*
D03*
X0193701Y0133465D02*
D03*
X0189961Y0141339D02*
D03*
X0197441D02*
D03*
X0225197Y0133465D02*
D03*
X0221457Y0141339D02*
D03*
X0228937D02*
D03*
X0177953Y0133465D02*
D03*
X0174213Y0141339D02*
D03*
X0181693D02*
D03*
X0162205Y0133465D02*
D03*
X0158465Y0141339D02*
D03*
X0165945D02*
D03*
X0146457Y0133465D02*
D03*
X0142717Y0141339D02*
D03*
X0150197D02*
D03*
X0130315Y0133465D02*
D03*
X0126575Y0141339D02*
D03*
X0134055D02*
D03*
X0114173Y0133465D02*
D03*
X0110433Y0141339D02*
D03*
X0117913D02*
D03*
X0098032Y0133465D02*
D03*
X0094291Y0141339D02*
D03*
X0101772D02*
D03*
X0240945Y0133465D02*
D03*
X0237205Y0141339D02*
D03*
X0244685D02*
D03*
X0256693Y0133465D02*
D03*
X0252953Y0141339D02*
D03*
X0260433D02*
D03*
X0272441Y0133465D02*
D03*
X0268701Y0141339D02*
D03*
X0276181D02*
D03*
X0288189Y0133465D02*
D03*
X0284449Y0141339D02*
D03*
X0291929D02*
D03*
X0303937Y0133465D02*
D03*
X0300197Y0141339D02*
D03*
X0307677D02*
D03*
D86*
X0180905Y0146850D02*
D03*
X0175000D02*
D03*
X0149409D02*
D03*
X0143504D02*
D03*
X0133268D02*
D03*
X0127362D02*
D03*
X0117126D02*
D03*
X0111221D02*
D03*
X0105118D02*
D03*
X0099213D02*
D03*
X0212008D02*
D03*
X0206102D02*
D03*
X0228150D02*
D03*
X0222244D02*
D03*
X0243898D02*
D03*
X0237992D02*
D03*
X0259646D02*
D03*
X0253740D02*
D03*
X0196653D02*
D03*
X0190748D02*
D03*
X0275197D02*
D03*
X0269291D02*
D03*
X0306890D02*
D03*
X0300984D02*
D03*
X0165157D02*
D03*
X0159252D02*
D03*
X0296654Y0127953D02*
D03*
X0302559D02*
D03*
X0233661D02*
D03*
X0239567D02*
D03*
X0170669D02*
D03*
X0176575D02*
D03*
X0107283Y0127953D02*
D03*
X0113189D02*
D03*
X0306890Y0153543D02*
D03*
X0300984D02*
D03*
X0243898D02*
D03*
X0249803D02*
D03*
X0180905D02*
D03*
X0186811D02*
D03*
X0117126D02*
D03*
X0123031D02*
D03*
X0280906Y0127953D02*
D03*
X0286811D02*
D03*
X0217913D02*
D03*
X0223819D02*
D03*
X0154921Y0127953D02*
D03*
X0160827D02*
D03*
X0091338D02*
D03*
X0097244D02*
D03*
X0289173Y0153543D02*
D03*
X0295079D02*
D03*
X0224606D02*
D03*
X0230512D02*
D03*
X0165157D02*
D03*
X0171063D02*
D03*
X0104921D02*
D03*
X0110827D02*
D03*
X0265157Y0127953D02*
D03*
X0271063D02*
D03*
X0201969D02*
D03*
X0207874D02*
D03*
X0138976Y0127953D02*
D03*
X0144882D02*
D03*
X0275197Y0153543D02*
D03*
X0281102D02*
D03*
X0212008D02*
D03*
X0217913D02*
D03*
X0149409D02*
D03*
X0155315D02*
D03*
X0249409Y0127953D02*
D03*
X0255315D02*
D03*
X0186417D02*
D03*
X0192323D02*
D03*
X0123031Y0127953D02*
D03*
X0128937D02*
D03*
X0259646Y0153543D02*
D03*
X0265551D02*
D03*
X0196653D02*
D03*
X0202559D02*
D03*
X0133268D02*
D03*
X0139173D02*
D03*
X0080709Y0316535D02*
D03*
X0086614D02*
D03*
X0224059Y0263953D02*
D03*
X0218154D02*
D03*
X0224059Y0257453D02*
D03*
X0218154D02*
D03*
X0264547Y0347441D02*
D03*
X0270453D02*
D03*
X0166732Y0303937D02*
D03*
X0172638D02*
D03*
X0201197Y0229394D02*
D03*
X0195291D02*
D03*
X0197835Y0306299D02*
D03*
X0203740D02*
D03*
X0280118Y0264567D02*
D03*
X0274213D02*
D03*
X0291142Y0146850D02*
D03*
X0285236D02*
D03*
D87*
X0216965Y0353028D02*
D03*
X0250035D02*
D03*
X0216965Y0332161D02*
D03*
X0250035D02*
D03*
D88*
X0239799Y0330980D02*
D03*
X0236650D02*
D03*
X0233500D02*
D03*
X0230350D02*
D03*
X0227201D02*
D03*
D89*
X0206382Y0251630D02*
D03*
Y0253598D02*
D03*
Y0255567D02*
D03*
Y0257536D02*
D03*
Y0259504D02*
D03*
Y0261473D02*
D03*
Y0263441D02*
D03*
Y0265409D02*
D03*
Y0267378D02*
D03*
Y0269346D02*
D03*
Y0271315D02*
D03*
Y0273284D02*
D03*
Y0275252D02*
D03*
Y0277221D02*
D03*
Y0279189D02*
D03*
Y0281157D02*
D03*
X0161106D02*
D03*
Y0279189D02*
D03*
Y0277221D02*
D03*
Y0275252D02*
D03*
Y0273284D02*
D03*
Y0271315D02*
D03*
Y0269346D02*
D03*
Y0267378D02*
D03*
Y0265409D02*
D03*
Y0263441D02*
D03*
Y0261473D02*
D03*
Y0259504D02*
D03*
Y0257536D02*
D03*
Y0255567D02*
D03*
Y0253598D02*
D03*
Y0251630D02*
D03*
D90*
X0198508Y0289032D02*
D03*
X0196539D02*
D03*
X0194571D02*
D03*
X0192602D02*
D03*
X0190634D02*
D03*
X0188665D02*
D03*
X0186697D02*
D03*
X0184728D02*
D03*
X0182760D02*
D03*
X0180791D02*
D03*
X0178823D02*
D03*
X0176854D02*
D03*
X0174886D02*
D03*
X0172917D02*
D03*
X0170949D02*
D03*
X0168980D02*
D03*
Y0243756D02*
D03*
X0170949D02*
D03*
X0172917D02*
D03*
X0174886D02*
D03*
X0176854D02*
D03*
X0178823D02*
D03*
X0180791D02*
D03*
X0182760D02*
D03*
X0184728D02*
D03*
X0186697D02*
D03*
X0188665D02*
D03*
X0190634D02*
D03*
X0192602D02*
D03*
X0194571D02*
D03*
X0196539D02*
D03*
X0198508D02*
D03*
D91*
X0304134Y0111811D02*
D03*
X0307874D02*
D03*
X0300394D02*
D03*
Y0122047D02*
D03*
X0304134D02*
D03*
X0307874D02*
D03*
X0244882D02*
D03*
X0241142D02*
D03*
X0237402D02*
D03*
Y0111811D02*
D03*
X0244882D02*
D03*
X0241142D02*
D03*
X0178150D02*
D03*
X0181890D02*
D03*
X0174409D02*
D03*
Y0122047D02*
D03*
X0178150D02*
D03*
X0181890D02*
D03*
X0118898D02*
D03*
X0115157D02*
D03*
X0111417D02*
D03*
Y0111811D02*
D03*
X0118898D02*
D03*
X0115157D02*
D03*
X0288386D02*
D03*
X0292126D02*
D03*
X0284646D02*
D03*
Y0122047D02*
D03*
X0288386D02*
D03*
X0292126D02*
D03*
X0229134D02*
D03*
X0225394D02*
D03*
X0221654D02*
D03*
Y0111811D02*
D03*
X0229134D02*
D03*
X0225394D02*
D03*
X0162402D02*
D03*
X0166142D02*
D03*
X0158661D02*
D03*
Y0122047D02*
D03*
X0162402D02*
D03*
X0166142D02*
D03*
X0103150D02*
D03*
X0099410D02*
D03*
X0095669D02*
D03*
Y0111811D02*
D03*
X0103150D02*
D03*
X0099410D02*
D03*
X0272638D02*
D03*
X0276378D02*
D03*
X0268898D02*
D03*
Y0122047D02*
D03*
X0272638D02*
D03*
X0276378D02*
D03*
X0213386D02*
D03*
X0209646D02*
D03*
X0205906D02*
D03*
Y0111811D02*
D03*
X0213386D02*
D03*
X0209646D02*
D03*
X0146653D02*
D03*
X0150394D02*
D03*
X0142913D02*
D03*
Y0122047D02*
D03*
X0146653D02*
D03*
X0150394D02*
D03*
X0256890Y0111811D02*
D03*
X0260630D02*
D03*
X0253150D02*
D03*
Y0122047D02*
D03*
X0256890D02*
D03*
X0260630D02*
D03*
X0197638D02*
D03*
X0193898D02*
D03*
X0190157D02*
D03*
Y0111811D02*
D03*
X0197638D02*
D03*
X0193898D02*
D03*
X0130905D02*
D03*
X0134646D02*
D03*
X0127165D02*
D03*
Y0122047D02*
D03*
X0130905D02*
D03*
X0134646D02*
D03*
D92*
X0232677Y0255906D02*
D03*
Y0260630D02*
D03*
Y0265354D02*
D03*
D93*
X0272634Y0356441D02*
D03*
X0264366D02*
D03*
D94*
X0085039Y0323209D02*
D03*
Y0328209D02*
D03*
Y0333209D02*
D03*
Y0338209D02*
D03*
X0066142Y0323209D02*
D03*
Y0328209D02*
D03*
Y0333209D02*
D03*
Y0338209D02*
D03*
D95*
X0280118Y0257087D02*
D03*
X0276378D02*
D03*
X0272638D02*
D03*
D96*
Y0247638D02*
D03*
X0280118D02*
D03*
D97*
X0218110Y0284252D02*
D03*
Y0272441D02*
D03*
D98*
X0305512Y0210630D02*
D03*
Y0169685D02*
D03*
D99*
X0031496Y0007874D02*
D03*
X0307087D02*
D03*
X0009843Y0344488D02*
D03*
D100*
X0298819Y0040157D02*
D03*
X0318898D02*
D03*
X0039567D02*
D03*
X0019488D02*
D03*
D101*
X0183150Y0335039D02*
D03*
X0173150D02*
D03*
X0163150D02*
D03*
X0153150D02*
D03*
X0143150D02*
D03*
X0133150D02*
D03*
X0055118Y0017677D02*
D03*
Y0027677D02*
D03*
Y0037677D02*
D03*
Y0047677D02*
D03*
X0074213Y0060681D02*
D03*
X0064213D02*
D03*
X0054213D02*
D03*
X0044213D02*
D03*
X0084213D02*
D03*
X0094213D02*
D03*
X0104213D02*
D03*
X0114213D02*
D03*
X0124213D02*
D03*
X0134213D02*
D03*
X0144213D02*
D03*
X0154213D02*
D03*
X0164213D02*
D03*
X0174213D02*
D03*
X0184213D02*
D03*
X0194213D02*
D03*
X0204213D02*
D03*
X0214213D02*
D03*
X0224213D02*
D03*
X0234213D02*
D03*
X0244213D02*
D03*
X0254213D02*
D03*
X0264213D02*
D03*
X0274213D02*
D03*
X0284213D02*
D03*
X0294213D02*
D03*
X0044213Y0081102D02*
D03*
X0034213D02*
D03*
X0024213D02*
D03*
X0014213D02*
D03*
X0054213D02*
D03*
X0064213D02*
D03*
X0074213D02*
D03*
X0084213D02*
D03*
X0094213D02*
D03*
X0104213D02*
D03*
X0114213D02*
D03*
X0124213D02*
D03*
X0134213D02*
D03*
X0144213D02*
D03*
X0154213D02*
D03*
X0164213D02*
D03*
X0174213D02*
D03*
X0184213D02*
D03*
X0194213D02*
D03*
X0204213D02*
D03*
X0214213D02*
D03*
X0224213D02*
D03*
X0234213D02*
D03*
X0244213D02*
D03*
X0254213D02*
D03*
X0264213D02*
D03*
X0274213D02*
D03*
X0284213D02*
D03*
X0294213D02*
D03*
X0304213D02*
D03*
X0314213D02*
D03*
X0324213D02*
D03*
D102*
X0032677Y0153150D02*
D03*
X0093701D02*
D03*
X0315000Y0278299D02*
D03*
Y0260583D02*
D03*
Y0328799D02*
D03*
Y0311083D02*
D03*
X0024000Y0260583D02*
D03*
Y0278299D02*
D03*
Y0311083D02*
D03*
Y0328799D02*
D03*
X0043307Y0354724D02*
D03*
X0053307D02*
D03*
X0063307D02*
D03*
X0073307D02*
D03*
X0083307D02*
D03*
X0093307D02*
D03*
X0103307D02*
D03*
X0113307D02*
D03*
X0123307D02*
D03*
X0133307D02*
D03*
X0143307D02*
D03*
X0153307D02*
D03*
X0163307D02*
D03*
X0173307D02*
D03*
X0183307D02*
D03*
X0193307D02*
D03*
D103*
X0273622Y0179528D02*
D03*
Y0203150D02*
D03*
D104*
X0036299Y0119685D02*
D03*
Y0129685D02*
D03*
X0056299D02*
D03*
Y0119685D02*
D03*
X0046299Y0129685D02*
D03*
Y0119685D02*
D03*
X0066299D02*
D03*
Y0129685D02*
D03*
X0026299Y0119685D02*
D03*
Y0129685D02*
D03*
D105*
X0181114Y0045343D02*
D03*
X0211114D02*
D03*
X0221114D02*
D03*
X0231114D02*
D03*
X0251114D02*
D03*
Y0015343D02*
D03*
X0231114D02*
D03*
X0221114D02*
D03*
X0211114D02*
D03*
X0181114D02*
D03*
X0089713Y0045342D02*
D03*
X0119713D02*
D03*
X0129713D02*
D03*
X0139713D02*
D03*
X0159713D02*
D03*
Y0015342D02*
D03*
X0139713D02*
D03*
X0129713D02*
D03*
X0119713D02*
D03*
X0089713D02*
D03*
D106*
X0043701Y0175197D02*
D03*
D107*
X0055118Y0194882D02*
D03*
X0030709D02*
D03*
D108*
X0298819Y0294488D02*
D03*
X0288819D02*
D03*
X0115354Y0257480D02*
D03*
Y0245472D02*
D03*
X0073622Y0188976D02*
D03*
X0093307D02*
D03*
X0116535Y0188583D02*
D03*
X0136221D02*
D03*
D109*
X0305157Y0283221D02*
D03*
Y0255661D02*
D03*
Y0333720D02*
D03*
Y0306161D02*
D03*
X0033843Y0255661D02*
D03*
Y0283221D02*
D03*
Y0306161D02*
D03*
Y0333720D02*
D03*
D110*
X0226610Y0340035D02*
D03*
X0240390D02*
D03*
D111*
X0317717Y0355512D02*
D03*
X0020866D02*
D03*
Y0231890D02*
D03*
X0317717D02*
D03*
X0322441Y0014173D02*
D03*
X0016142D02*
D03*
D112*
X0130709Y0231496D02*
D03*
X0135039Y0227953D02*
D03*
X0121260Y0222835D02*
D03*
Y0217323D02*
D03*
M02*
