G04 Layer_Color=16711935*
%FSAX25Y25*%
%MOIN*%
G70*
G01*
G75*
%ADD129C,0.00394*%
D129*
X0025984Y0014173D02*
X0025934Y0015169D01*
X0025783Y0016154D01*
X0025533Y0017120D01*
X0025187Y0018055D01*
X0024747Y0018950D01*
X0024220Y0019796D01*
X0023610Y0020584D01*
X0022923Y0021307D01*
X0022166Y0021957D01*
X0021348Y0022526D01*
X0020476Y0023010D01*
X0019560Y0023403D01*
X0018609Y0023702D01*
X0017632Y0023902D01*
X0016640Y0024003D01*
X0015643D01*
X0014651Y0023902D01*
X0013675Y0023702D01*
X0012723Y0023403D01*
X0011807Y0023010D01*
X0010935Y0022526D01*
X0010117Y0021957D01*
X0009361Y0021307D01*
X0008674Y0020584D01*
X0008063Y0019796D01*
X0007536Y0018950D01*
X0007097Y0018055D01*
X0006751Y0017120D01*
X0006501Y0016154D01*
X0006350Y0015169D01*
X0006299Y0014173D01*
X0006350Y0013178D01*
X0006501Y0012192D01*
X0006751Y0011227D01*
X0007097Y0010292D01*
X0007536Y0009397D01*
X0008063Y0008551D01*
X0008674Y0007762D01*
X0009361Y0007039D01*
X0010117Y0006390D01*
X0010935Y0005820D01*
X0011807Y0005337D01*
X0012723Y0004943D01*
X0013675Y0004645D01*
X0014651Y0004444D01*
X0015643Y0004343D01*
X0016640D01*
X0017632Y0004444D01*
X0018609Y0004645D01*
X0019560Y0004943D01*
X0020476Y0005337D01*
X0021348Y0005821D01*
X0022166Y0006390D01*
X0022923Y0007040D01*
X0023610Y0007762D01*
X0024220Y0008551D01*
X0024747Y0009397D01*
X0025187Y0010292D01*
X0025533Y0011227D01*
X0025783Y0012192D01*
X0025934Y0013178D01*
X0025984Y0014173D01*
X0332283D02*
X0332233Y0015169D01*
X0332082Y0016154D01*
X0331832Y0017120D01*
X0331486Y0018055D01*
X0331047Y0018950D01*
X0330519Y0019796D01*
X0329909Y0020584D01*
X0329222Y0021307D01*
X0328466Y0021957D01*
X0327647Y0022526D01*
X0326776Y0023010D01*
X0325859Y0023403D01*
X0324908Y0023702D01*
X0323931Y0023902D01*
X0322939Y0024003D01*
X0321942D01*
X0320951Y0023902D01*
X0319974Y0023702D01*
X0319023Y0023403D01*
X0318106Y0023010D01*
X0317235Y0022526D01*
X0316416Y0021957D01*
X0315660Y0021307D01*
X0314973Y0020584D01*
X0314363Y0019796D01*
X0313835Y0018950D01*
X0313396Y0018055D01*
X0313050Y0017120D01*
X0312800Y0016154D01*
X0312649Y0015169D01*
X0312598Y0014173D01*
X0312649Y0013178D01*
X0312800Y0012192D01*
X0313050Y0011227D01*
X0313396Y0010292D01*
X0313835Y0009397D01*
X0314363Y0008551D01*
X0314973Y0007762D01*
X0315660Y0007039D01*
X0316416Y0006390D01*
X0317235Y0005820D01*
X0318106Y0005337D01*
X0319023Y0004943D01*
X0319974Y0004645D01*
X0320951Y0004444D01*
X0321942Y0004343D01*
X0322939D01*
X0323931Y0004444D01*
X0324908Y0004645D01*
X0325859Y0004943D01*
X0326776Y0005337D01*
X0327647Y0005821D01*
X0328466Y0006390D01*
X0329222Y0007040D01*
X0329909Y0007762D01*
X0330519Y0008551D01*
X0331047Y0009397D01*
X0331486Y0010292D01*
X0331832Y0011227D01*
X0332082Y0012192D01*
X0332233Y0013178D01*
X0332283Y0014173D01*
X0327559Y0231890D02*
X0327509Y0232886D01*
X0327358Y0233871D01*
X0327108Y0234836D01*
X0326761Y0235771D01*
X0326322Y0236666D01*
X0325795Y0237512D01*
X0325185Y0238301D01*
X0324498Y0239024D01*
X0323741Y0239673D01*
X0322923Y0240243D01*
X0322051Y0240726D01*
X0321135Y0241120D01*
X0320184Y0241418D01*
X0319207Y0241619D01*
X0318215Y0241720D01*
X0317218D01*
X0316226Y0241619D01*
X0315249Y0241418D01*
X0314298Y0241120D01*
X0313382Y0240726D01*
X0312510Y0240243D01*
X0311692Y0239673D01*
X0310935Y0239024D01*
X0310248Y0238301D01*
X0309638Y0237512D01*
X0309111Y0236666D01*
X0308672Y0235771D01*
X0308325Y0234836D01*
X0308075Y0233871D01*
X0307925Y0232886D01*
X0307874Y0231890D01*
X0307925Y0230894D01*
X0308075Y0229908D01*
X0308325Y0228943D01*
X0308672Y0228008D01*
X0309111Y0227113D01*
X0309638Y0226267D01*
X0310248Y0225479D01*
X0310935Y0224756D01*
X0311692Y0224107D01*
X0312510Y0223537D01*
X0313382Y0223053D01*
X0314298Y0222660D01*
X0315249Y0222361D01*
X0316226Y0222161D01*
X0317218Y0222060D01*
X0318215D01*
X0319207Y0222161D01*
X0320184Y0222361D01*
X0321135Y0222660D01*
X0322051Y0223053D01*
X0322923Y0223537D01*
X0323741Y0224107D01*
X0324498Y0224756D01*
X0325185Y0225479D01*
X0325795Y0226267D01*
X0326322Y0227113D01*
X0326761Y0228008D01*
X0327108Y0228943D01*
X0327358Y0229908D01*
X0327509Y0230894D01*
X0327559Y0231890D01*
X0030709D02*
X0030658Y0232886D01*
X0030507Y0233871D01*
X0030257Y0234836D01*
X0029911Y0235771D01*
X0029472Y0236666D01*
X0028945Y0237512D01*
X0028334Y0238301D01*
X0027647Y0239024D01*
X0026891Y0239673D01*
X0026072Y0240243D01*
X0025201Y0240726D01*
X0024284Y0241120D01*
X0023333Y0241418D01*
X0022357Y0241619D01*
X0021365Y0241720D01*
X0020368D01*
X0019376Y0241619D01*
X0018399Y0241418D01*
X0017448Y0241120D01*
X0016532Y0240726D01*
X0015660Y0240243D01*
X0014841Y0239673D01*
X0014085Y0239024D01*
X0013398Y0238301D01*
X0012788Y0237512D01*
X0012260Y0236666D01*
X0011821Y0235771D01*
X0011475Y0234836D01*
X0011225Y0233871D01*
X0011074Y0232886D01*
X0011024Y0231890D01*
X0011074Y0230894D01*
X0011225Y0229908D01*
X0011475Y0228943D01*
X0011821Y0228008D01*
X0012260Y0227113D01*
X0012788Y0226267D01*
X0013398Y0225479D01*
X0014085Y0224756D01*
X0014841Y0224107D01*
X0015660Y0223537D01*
X0016532Y0223053D01*
X0017448Y0222660D01*
X0018399Y0222361D01*
X0019376Y0222161D01*
X0020368Y0222060D01*
X0021365D01*
X0022357Y0222161D01*
X0023333Y0222361D01*
X0024284Y0222660D01*
X0025201Y0223053D01*
X0026072Y0223537D01*
X0026891Y0224107D01*
X0027647Y0224756D01*
X0028334Y0225479D01*
X0028945Y0226267D01*
X0029472Y0227113D01*
X0029911Y0228008D01*
X0030257Y0228943D01*
X0030507Y0229908D01*
X0030658Y0230894D01*
X0030709Y0231890D01*
X0030709Y0355512D02*
X0030658Y0356508D01*
X0030507Y0357493D01*
X0030257Y0358458D01*
X0029911Y0359393D01*
X0029472Y0360288D01*
X0028945Y0361135D01*
X0028334Y0361923D01*
X0027647Y0362646D01*
X0026891Y0363295D01*
X0026072Y0363865D01*
X0025201Y0364349D01*
X0024284Y0364742D01*
X0023333Y0365040D01*
X0022357Y0365241D01*
X0021365Y0365342D01*
X0020368D01*
X0019376Y0365241D01*
X0018399Y0365040D01*
X0017448Y0364742D01*
X0016532Y0364349D01*
X0015660Y0363865D01*
X0014841Y0363295D01*
X0014085Y0362646D01*
X0013398Y0361923D01*
X0012788Y0361135D01*
X0012260Y0360288D01*
X0011821Y0359393D01*
X0011475Y0358458D01*
X0011225Y0357493D01*
X0011074Y0356508D01*
X0011024Y0355512D01*
X0011074Y0354516D01*
X0011225Y0353531D01*
X0011475Y0352565D01*
X0011821Y0351630D01*
X0012260Y0350735D01*
X0012788Y0349889D01*
X0013398Y0349101D01*
X0014085Y0348378D01*
X0014841Y0347729D01*
X0015660Y0347159D01*
X0016532Y0346675D01*
X0017448Y0346282D01*
X0018399Y0345984D01*
X0019376Y0345783D01*
X0020368Y0345682D01*
X0021365D01*
X0022357Y0345783D01*
X0023333Y0345984D01*
X0024284Y0346282D01*
X0025201Y0346675D01*
X0026072Y0347159D01*
X0026891Y0347729D01*
X0027647Y0348378D01*
X0028334Y0349101D01*
X0028945Y0349889D01*
X0029472Y0350735D01*
X0029911Y0351630D01*
X0030257Y0352565D01*
X0030507Y0353531D01*
X0030658Y0354516D01*
X0030709Y0355512D01*
X0327559D02*
X0327509Y0356508D01*
X0327358Y0357493D01*
X0327108Y0358458D01*
X0326761Y0359393D01*
X0326322Y0360288D01*
X0325795Y0361135D01*
X0325185Y0361923D01*
X0324498Y0362646D01*
X0323741Y0363295D01*
X0322923Y0363865D01*
X0322051Y0364349D01*
X0321135Y0364742D01*
X0320184Y0365040D01*
X0319207Y0365241D01*
X0318215Y0365342D01*
X0317218D01*
X0316226Y0365241D01*
X0315249Y0365040D01*
X0314298Y0364742D01*
X0313382Y0364349D01*
X0312510Y0363865D01*
X0311692Y0363295D01*
X0310935Y0362646D01*
X0310248Y0361923D01*
X0309638Y0361135D01*
X0309111Y0360288D01*
X0308672Y0359393D01*
X0308325Y0358458D01*
X0308075Y0357493D01*
X0307925Y0356508D01*
X0307874Y0355512D01*
X0307925Y0354516D01*
X0308075Y0353531D01*
X0308325Y0352565D01*
X0308672Y0351630D01*
X0309111Y0350735D01*
X0309638Y0349889D01*
X0310248Y0349101D01*
X0310935Y0348378D01*
X0311692Y0347729D01*
X0312510Y0347159D01*
X0313382Y0346675D01*
X0314298Y0346282D01*
X0315249Y0345984D01*
X0316226Y0345783D01*
X0317218Y0345682D01*
X0318215D01*
X0319207Y0345783D01*
X0320184Y0345984D01*
X0321135Y0346282D01*
X0322051Y0346675D01*
X0322923Y0347159D01*
X0323741Y0347729D01*
X0324498Y0348378D01*
X0325185Y0349101D01*
X0325795Y0349889D01*
X0326322Y0350735D01*
X0326761Y0351630D01*
X0327108Y0352565D01*
X0327358Y0353531D01*
X0327509Y0354516D01*
X0327559Y0355512D01*
X0312220Y0007874D02*
X0312121Y0008875D01*
X0311829Y0009838D01*
X0311355Y0010726D01*
X0310716Y0011504D01*
X0309939Y0012142D01*
X0309051Y0012617D01*
X0308088Y0012909D01*
X0307087Y0013007D01*
X0306085Y0012909D01*
X0305122Y0012617D01*
X0304235Y0012142D01*
X0303457Y0011504D01*
X0302818Y0010726D01*
X0302344Y0009838D01*
X0302052Y0008875D01*
X0301953Y0007874D01*
X0302052Y0006873D01*
X0302344Y0005910D01*
X0302818Y0005022D01*
X0303457Y0004244D01*
X0304235Y0003606D01*
X0305122Y0003131D01*
X0306085Y0002839D01*
X0307087Y0002741D01*
X0308088Y0002839D01*
X0309051Y0003131D01*
X0309939Y0003606D01*
X0310716Y0004244D01*
X0311355Y0005022D01*
X0311829Y0005910D01*
X0312121Y0006873D01*
X0312220Y0007874D01*
X0014976Y0344488D02*
X0014877Y0345490D01*
X0014585Y0346453D01*
X0014111Y0347340D01*
X0013472Y0348118D01*
X0012694Y0348756D01*
X0011807Y0349231D01*
X0010844Y0349523D01*
X0009843Y0349621D01*
X0008841Y0349523D01*
X0007878Y0349231D01*
X0006991Y0348756D01*
X0006213Y0348118D01*
X0005574Y0347340D01*
X0005100Y0346453D01*
X0004808Y0345490D01*
X0004709Y0344488D01*
X0004808Y0343487D01*
X0005100Y0342524D01*
X0005574Y0341636D01*
X0006213Y0340858D01*
X0006991Y0340220D01*
X0007878Y0339746D01*
X0008841Y0339454D01*
X0009843Y0339355D01*
X0010844Y0339454D01*
X0011807Y0339746D01*
X0012694Y0340220D01*
X0013472Y0340858D01*
X0014111Y0341636D01*
X0014585Y0342524D01*
X0014877Y0343487D01*
X0014976Y0344488D01*
X0036629Y0007874D02*
X0036531Y0008875D01*
X0036239Y0009838D01*
X0035764Y0010726D01*
X0035126Y0011504D01*
X0034348Y0012142D01*
X0033461Y0012617D01*
X0032498Y0012909D01*
X0031496Y0013007D01*
X0030495Y0012909D01*
X0029532Y0012617D01*
X0028644Y0012142D01*
X0027866Y0011504D01*
X0027228Y0010726D01*
X0026754Y0009838D01*
X0026461Y0008875D01*
X0026363Y0007874D01*
X0026461Y0006873D01*
X0026754Y0005910D01*
X0027228Y0005022D01*
X0027866Y0004244D01*
X0028644Y0003606D01*
X0029532Y0003131D01*
X0030495Y0002839D01*
X0031496Y0002741D01*
X0032498Y0002839D01*
X0033461Y0003131D01*
X0034348Y0003606D01*
X0035126Y0004244D01*
X0035764Y0005022D01*
X0036239Y0005910D01*
X0036531Y0006873D01*
X0036629Y0007874D01*
M02*
