G04 Layer_Color=16711935*
%FSAX25Y25*%
%MOIN*%
G70*
G01*
G75*
%ADD77C,0.01000*%
%ADD130C,0.00600*%
D77*
X0338583Y-0019110D02*
Y-0001394D01*
X0000000Y-0019110D02*
Y-0001394D01*
X0183287Y-0018110D02*
X0338583D01*
X0000000D02*
X0152096D01*
X0332583Y-0016110D02*
X0338583Y-0018110D01*
X0332583Y-0020110D02*
X0338583Y-0018110D01*
X0000000D02*
X0006000Y-0020110D01*
X0000000Y-0018110D02*
X0006000Y-0016110D01*
X-0019898Y0366142D02*
X-0001394D01*
X-0019898Y0000000D02*
X-0001394D01*
X-0018898Y0197066D02*
Y0366142D01*
Y0000000D02*
Y0165875D01*
X-0020898Y0360142D02*
X-0018898Y0366142D01*
X-0016898Y0360142D01*
X-0018898Y0000000D02*
X-0016898Y0006000D01*
X-0020898D02*
X-0018898Y0000000D01*
X0324622Y0231890D02*
X0364386D01*
X0324622Y0355512D02*
X0364386D01*
X0363386Y0231890D02*
Y0277005D01*
Y0307196D02*
Y0355512D01*
Y0231890D02*
X0365386Y0237890D01*
X0361386D02*
X0363386Y0231890D01*
X0361386Y0349512D02*
X0363386Y0355512D01*
X0365386Y0349512D01*
X0329346Y0014173D02*
X0364386D01*
X0324622Y0231890D02*
X0364386D01*
X0363386Y0014173D02*
Y0105836D01*
Y0137027D02*
Y0231890D01*
Y0014173D02*
X0365386Y0020173D01*
X0361386D02*
X0363386Y0014173D01*
X0361386Y0225890D02*
X0363386Y0231890D01*
X0365386Y0225890D01*
X0317717Y0362417D02*
Y0388795D01*
X0020866Y0362417D02*
Y0388795D01*
X0183287Y0387795D02*
X0317717D01*
X0020866D02*
X0152096D01*
X0311717Y0389795D02*
X0317717Y0387795D01*
X0311717Y0385795D02*
X0317717Y0387795D01*
X0020866D02*
X0026866Y0385795D01*
X0020866Y0387795D02*
X0026866Y0389795D01*
D130*
X0153696Y-0017711D02*
X0154695Y-0016711D01*
X0156695D01*
X0157695Y-0017711D01*
Y-0018710D01*
X0156695Y-0019710D01*
X0157695Y-0020710D01*
Y-0021709D01*
X0156695Y-0022709D01*
X0154695D01*
X0153696Y-0021709D01*
Y-0020710D01*
X0154695Y-0019710D01*
X0153696Y-0018710D01*
Y-0017711D01*
X0154695Y-0019710D02*
X0156695D01*
X0163693Y-0016711D02*
X0161693Y-0017711D01*
X0159694Y-0019710D01*
Y-0021709D01*
X0160694Y-0022709D01*
X0162693D01*
X0163693Y-0021709D01*
Y-0020710D01*
X0162693Y-0019710D01*
X0159694D01*
X0166692Y-0023709D02*
X0167691Y-0022709D01*
Y-0021709D01*
X0166692D01*
Y-0022709D01*
X0167691D01*
X0166692Y-0023709D01*
X0165692Y-0024708D01*
X0171690Y-0017711D02*
X0172690Y-0016711D01*
X0174689D01*
X0175689Y-0017711D01*
Y-0021709D01*
X0174689Y-0022709D01*
X0172690D01*
X0171690Y-0021709D01*
Y-0017711D01*
X0177688D02*
X0178688Y-0016711D01*
X0180687D01*
X0181687Y-0017711D01*
Y-0021709D01*
X0180687Y-0022709D01*
X0178688D01*
X0177688Y-0021709D01*
Y-0017711D01*
X-0015299Y0167475D02*
X-0014299Y0168475D01*
Y0170474D01*
X-0015299Y0171474D01*
X-0019297D01*
X-0020297Y0170474D01*
Y0168475D01*
X-0019297Y0167475D01*
X-0018298D01*
X-0017298Y0168475D01*
Y0171474D01*
X-0019297Y0173474D02*
X-0020297Y0174473D01*
Y0176472D01*
X-0019297Y0177472D01*
X-0018298D01*
X-0017298Y0176472D01*
Y0175473D01*
Y0176472D01*
X-0016298Y0177472D01*
X-0015299D01*
X-0014299Y0176472D01*
Y0174473D01*
X-0015299Y0173474D01*
X-0013299Y0180471D02*
X-0014299Y0181471D01*
X-0015299D01*
Y0180471D01*
X-0014299D01*
Y0181471D01*
X-0013299Y0180471D01*
X-0012300Y0179472D01*
X-0019297Y0185470D02*
X-0020297Y0186469D01*
Y0188469D01*
X-0019297Y0189468D01*
X-0015299D01*
X-0014299Y0188469D01*
Y0186469D01*
X-0015299Y0185470D01*
X-0019297D01*
Y0191468D02*
X-0020297Y0192467D01*
Y0194467D01*
X-0019297Y0195466D01*
X-0015299D01*
X-0014299Y0194467D01*
Y0192467D01*
X-0015299Y0191468D01*
X-0019297D01*
X0362986Y0278605D02*
X0361986Y0279605D01*
Y0281604D01*
X0362986Y0282604D01*
X0363986D01*
X0364985Y0281604D01*
Y0280605D01*
Y0281604D01*
X0365985Y0282604D01*
X0366985D01*
X0367985Y0281604D01*
Y0279605D01*
X0366985Y0278605D01*
X0367985Y0284603D02*
Y0286603D01*
Y0285603D01*
X0361986D01*
X0362986Y0284603D01*
X0368984Y0290601D02*
X0367985Y0291601D01*
X0366985D01*
Y0290601D01*
X0367985D01*
Y0291601D01*
X0368984Y0290601D01*
X0369984Y0289602D01*
X0367985Y0298599D02*
X0361986D01*
X0364985Y0295600D01*
Y0299598D01*
X0362986Y0301598D02*
X0361986Y0302597D01*
Y0304597D01*
X0362986Y0305596D01*
X0366985D01*
X0367985Y0304597D01*
Y0302597D01*
X0366985Y0301598D01*
X0362986D01*
X0361986Y0111435D02*
Y0107436D01*
X0364985D01*
X0363986Y0109435D01*
Y0110435D01*
X0364985Y0111435D01*
X0366985D01*
X0367985Y0110435D01*
Y0108436D01*
X0366985Y0107436D01*
X0361986Y0117433D02*
Y0113434D01*
X0364985D01*
X0363986Y0115433D01*
Y0116433D01*
X0364985Y0117433D01*
X0366985D01*
X0367985Y0116433D01*
Y0114434D01*
X0366985Y0113434D01*
X0368984Y0120432D02*
X0367985Y0121432D01*
X0366985D01*
Y0120432D01*
X0367985D01*
Y0121432D01*
X0368984Y0120432D01*
X0369984Y0119432D01*
X0362986Y0125430D02*
X0361986Y0126430D01*
Y0128429D01*
X0362986Y0129429D01*
X0363986D01*
X0364985Y0128429D01*
Y0127429D01*
Y0128429D01*
X0365985Y0129429D01*
X0366985D01*
X0367985Y0128429D01*
Y0126430D01*
X0366985Y0125430D01*
X0362986Y0131428D02*
X0361986Y0132428D01*
Y0134427D01*
X0362986Y0135427D01*
X0366985D01*
X0367985Y0134427D01*
Y0132428D01*
X0366985Y0131428D01*
X0362986D01*
X0153696Y0389195D02*
X0157695D01*
Y0388195D01*
X0153696Y0384196D01*
Y0383197D01*
X0163693Y0389195D02*
X0159694D01*
Y0386196D01*
X0161693Y0387195D01*
X0162693D01*
X0163693Y0386196D01*
Y0384196D01*
X0162693Y0383197D01*
X0160694D01*
X0159694Y0384196D01*
X0166692Y0382197D02*
X0167691Y0383197D01*
Y0384196D01*
X0166692D01*
Y0383197D01*
X0167691D01*
X0166692Y0382197D01*
X0165692Y0381197D01*
X0174689Y0383197D02*
Y0389195D01*
X0171690Y0386196D01*
X0175689D01*
X0177688Y0388195D02*
X0178688Y0389195D01*
X0180687D01*
X0181687Y0388195D01*
Y0384196D01*
X0180687Y0383197D01*
X0178688D01*
X0177688Y0384196D01*
Y0388195D01*
M02*
