M48
;Layer_Color=9474304
;FILE_FORMAT=2:5
INCH,TZ
;TYPE=PLATED
T1F00S00C0.01575
T2F00S00C0.01968
T3F00S00C0.02362
T4F00S00C0.03543
T5F00S00C0.03937
T6F00S00C0.04724
T8F00S00C0.05512
T9F00S00C0.11811
;TYPE=NON_PLATED
T10F00S00C0.04724
%
T01
X221260Y99606
Y103150
Y106693
X236614
Y103150
Y99606
X252756
Y103150
Y106693
X268504
Y103150
Y99606
X284252
Y103150
Y106693
X299606
Y103150
Y99606
X205512
Y103150
Y106693
X189764
Y103150
Y99606
X173622
Y103150
Y106693
X157874
Y103150
Y99606
X142126Y99606
Y103150
Y106693
X127953
Y103150
X124409
X112205
Y106693
X108661Y103150
X94488
Y106693
X90945Y103150
X154331Y161024
X159449Y162598
X43701Y308661
Y314567
X62598Y316535
X63779Y312205
X72835Y314567
X80512Y312008
X92913Y316929
X106299Y322441
Y327559
X107874Y282677
X114567Y285039
X116142Y280709
X116535Y276378
X119291Y273228
X109449Y266142
X105512Y270079
X100394Y265748
X151181Y264173
X151575Y259842
X155118Y257087
X168504Y258661
Y254331
X167323Y262992
X168110Y284252
X177559Y283465
X182283
X189764Y280709
X194882Y282677
X198031Y272835
X199606Y268504
X198031Y264173
X198087Y259394
X200787Y252756
X193307Y249213
X188976
X181890Y251575
X181102Y237795
X183071Y234252
X169685Y231890
X165748Y242126
X162205Y244882
X200787Y238583
X197244Y223622
X207874Y222835
X202362Y211811
X212205Y266929
X207874Y299606
X197244Y316929
X196457Y327953
X192520Y331890
X177953Y295276
X62598Y295669
X232677Y285039
X254724Y287402
Y292520
X239370Y261024
X233858Y227559
X230708Y222834
X226378Y222835
X218504
X218898Y211811
X240158Y222835
T02
X93307Y136221
X27559Y143307
T03
X109055Y12992
X199606Y13386
X288189Y23228
X309055Y22835
X314961Y107087
X320866
Y101575
Y140945
Y145669
X325590
Y140945
X313779Y140551
X282283Y135827
X264567Y146850
X271260Y164567
X237402Y157874
X230315Y160630
X228346Y170866
X180709Y166142
X183858Y135827
X64865Y159752
X68602Y165453
X69193Y173721
X64961
X61417Y170177
X57480Y170079
X79528Y37402
X7087Y30315
X11417Y52362
X9449Y105512
X37795Y234252
Y239370
Y244488
X51968Y253937
Y259449
X57087
Y253937
X121260Y222835
Y217323
X130709Y231496
X135039Y227953
X164173Y227165
X168110Y223228
X187795Y224016
X183858Y201575
X178347Y186614
X205512Y205906
X157087Y246063
X174016Y270866
X164961Y291339
X151575Y285039
X136221Y281496
X126378Y292126
X76378Y335039
X259055Y332677
X247638Y312992
X251969Y275984
X262598Y279921
X264567Y264173
X274410Y270472
X255118Y254331
X259842Y246457
X226772
X223622Y205118
X225590Y196850
X255906Y211811
X293701Y218898
X298819Y218898
X303937Y218898
Y224803
X298819
X293701
X208268Y351181
T04
X226610Y340035
X240390
T05
X24000Y260583
Y278299
Y311083
Y328799
X115354Y257480
Y245472
X116535Y188583
X136221
X93307Y188976
X73622
X315000Y260583
Y278299
X298819Y294488
X288819
X315000Y311083
Y328799
T06
X55118Y17677
Y27677
X214213Y60681
X224213
X234213
X244213
X254213
X264213
X274213
X284213
X294213
Y81102
X284213
X274213
X264213
X254213
X244213
X234213
X224213
X214213
X304213
X314213
X324213
X318898Y40157
X298819
X273622Y179528
X204213Y81102
X194213
X184213
X174213
X164213
X154213
X144213
X134213
X124213
X114213
X104213
X94213
X84213
X74213
X64213
Y60681
X74213
X84213
X94213
X104213
X114213
X124213
X134213
X144213
X154213
X164213
X174213
X184213
X194213
X204213
X66299Y119685
X56299
Y129685
X66299
X93701Y153150
X32677
X36299Y129685
Y119685
X46299
Y129685
X26299
Y119685
X24213Y81102
X34213
X44213
X54213
Y60681
X44213
X55118Y47677
Y37677
X39567Y40157
X19488
X14213Y81102
X133150Y335039
X143150
X153150
X163150
X173150
X183150
X273622Y203150
X193307Y354724
X183307
X173307
X163307
X153307
X143307
X133307
X123307
X113307
X103307
X93307
X83307
X73307
X63307
X53307
X43307
T08
X33843Y255661
Y283221
Y306161
Y333720
X305157
Y306161
Y283221
Y255661
T09
X16142Y14173
X322441
X20866Y231890
X317717
Y355512
X20866
T10
X89713Y15342
X119713
X129713
X139713
X159713
X181114Y15343
X211114
X221114
X231114
X251114
Y45343
X231114
X221114
X211114
X181114
X159713Y45342
X139713
X129713
X119713
X89713
M30
