G04 Layer_Color=8388736*
%FSAX25Y25*%
%MOIN*%
G70*
G01*
G75*
%ADD78C,0.00787*%
%ADD129C,0.00394*%
D78*
X0268943Y0356392D02*
X0269681D01*
Y0354866D02*
Y0357917D01*
D129*
X0317210Y0107087D02*
X0317149Y0108093D01*
X0316967Y0109085D01*
X0316667Y0110048D01*
X0316253Y0110968D01*
X0315732Y0111831D01*
X0315109Y0112625D01*
X0314396Y0113338D01*
X0313602Y0113960D01*
X0312739Y0114482D01*
X0311820Y0114895D01*
X0310857Y0115196D01*
X0309865Y0115377D01*
X0308858Y0115438D01*
X0307852Y0115377D01*
X0306860Y0115196D01*
X0305897Y0114895D01*
X0304977Y0114482D01*
X0304114Y0113960D01*
X0303320Y0113338D01*
X0302607Y0112625D01*
X0301985Y0111831D01*
X0301463Y0110968D01*
X0301049Y0110048D01*
X0300749Y0109085D01*
X0300568Y0108093D01*
X0300507Y0107087D01*
X0300568Y0106080D01*
X0300749Y0105088D01*
X0301049Y0104125D01*
X0301463Y0103205D01*
X0301985Y0102342D01*
X0302607Y0101548D01*
X0303320Y0100835D01*
X0304114Y0100213D01*
X0304977Y0099692D01*
X0305897Y0099278D01*
X0306860Y0098978D01*
X0307852Y0098796D01*
X0308858Y0098735D01*
X0309865Y0098796D01*
X0310857Y0098978D01*
X0311820Y0099278D01*
X0312739Y0099692D01*
X0313602Y0100213D01*
X0314396Y0100835D01*
X0315109Y0101548D01*
X0315732Y0102342D01*
X0316253Y0103205D01*
X0316667Y0104125D01*
X0316967Y0105088D01*
X0317149Y0106080D01*
X0317210Y0107087D01*
X0291855Y0035236D02*
X0291294Y0036008D01*
X0290387Y0035713D01*
Y0034759D01*
X0291294Y0034464D01*
X0291855Y0035236D01*
X0012524D02*
X0011963Y0036008D01*
X0011056Y0035713D01*
Y0034759D01*
X0011963Y0034464D01*
X0012524Y0035236D01*
X0037879Y0107087D02*
X0037818Y0108093D01*
X0037637Y0109085D01*
X0037337Y0110048D01*
X0036923Y0110968D01*
X0036401Y0111831D01*
X0035779Y0112625D01*
X0035066Y0113338D01*
X0034272Y0113960D01*
X0033409Y0114482D01*
X0032489Y0114895D01*
X0031526Y0115196D01*
X0030534Y0115377D01*
X0029528Y0115438D01*
X0028521Y0115377D01*
X0027529Y0115196D01*
X0026566Y0114895D01*
X0025646Y0114482D01*
X0024783Y0113960D01*
X0023989Y0113338D01*
X0023276Y0112625D01*
X0022654Y0111831D01*
X0022132Y0110968D01*
X0021719Y0110048D01*
X0021419Y0109085D01*
X0021237Y0108093D01*
X0021176Y0107087D01*
X0021237Y0106080D01*
X0021419Y0105088D01*
X0021719Y0104125D01*
X0022133Y0103205D01*
X0022654Y0102342D01*
X0023276Y0101548D01*
X0023989Y0100835D01*
X0024783Y0100213D01*
X0025646Y0099692D01*
X0026566Y0099278D01*
X0027529Y0098978D01*
X0028521Y0098796D01*
X0029528Y0098735D01*
X0030534Y0098796D01*
X0031526Y0098978D01*
X0032489Y0099278D01*
X0033409Y0099692D01*
X0034272Y0100213D01*
X0035066Y0100835D01*
X0035779Y0101548D01*
X0036401Y0102342D01*
X0036923Y0103205D01*
X0037337Y0104125D01*
X0037637Y0105088D01*
X0037818Y0106080D01*
X0037879Y0107087D01*
X0257087Y0285039D02*
X0256823Y0286024D01*
X0256102Y0286744D01*
X0255118Y0287008D01*
X0254134Y0286744D01*
X0253413Y0286024D01*
X0253150Y0285039D01*
X0253413Y0284055D01*
X0254134Y0283335D01*
X0255118Y0283071D01*
X0256102Y0283335D01*
X0256823Y0284055D01*
X0257087Y0285039D01*
X0080718Y0283858D02*
X0080455Y0284842D01*
X0079734Y0285563D01*
X0078750Y0285827D01*
X0077766Y0285563D01*
X0077045Y0284842D01*
X0076781Y0283858D01*
X0077045Y0282874D01*
X0077766Y0282154D01*
X0078750Y0281890D01*
X0079734Y0282154D01*
X0080455Y0282874D01*
X0080718Y0283858D01*
X0096653Y0319992D02*
X0096390Y0320976D01*
X0095669Y0321697D01*
X0094685Y0321961D01*
X0093701Y0321697D01*
X0092980Y0320976D01*
X0092716Y0319992D01*
X0092980Y0319008D01*
X0093701Y0318287D01*
X0094685Y0318024D01*
X0095669Y0318287D01*
X0096390Y0319008D01*
X0096653Y0319992D01*
X0076772Y0233858D02*
X0076508Y0234842D01*
X0075787Y0235563D01*
X0074803Y0235827D01*
X0073819Y0235563D01*
X0073098Y0234842D01*
X0072835Y0233858D01*
X0073098Y0232874D01*
X0073819Y0232154D01*
X0074803Y0231890D01*
X0075787Y0232154D01*
X0076508Y0232874D01*
X0076772Y0233858D01*
X0272835Y0238583D02*
X0272571Y0239567D01*
X0271850Y0240287D01*
X0270866Y0240551D01*
X0269882Y0240287D01*
X0269161Y0239567D01*
X0268898Y0238583D01*
X0269161Y0237598D01*
X0269882Y0236878D01*
X0270866Y0236614D01*
X0271850Y0236878D01*
X0272571Y0237598D01*
X0272835Y0238583D01*
X0326772Y0134252D02*
X0326508Y0135236D01*
X0325787Y0135957D01*
X0324803Y0136221D01*
X0323819Y0135957D01*
X0323098Y0135236D01*
X0322835Y0134252D01*
X0323098Y0133268D01*
X0323819Y0132547D01*
X0324803Y0132283D01*
X0325787Y0132547D01*
X0326508Y0133268D01*
X0326772Y0134252D01*
X0229134Y0140945D02*
X0228870Y0141929D01*
X0228150Y0142650D01*
X0227165Y0142913D01*
X0226181Y0142650D01*
X0225461Y0141929D01*
X0225197Y0140945D01*
X0225461Y0139961D01*
X0226181Y0139240D01*
X0227165Y0138976D01*
X0228150Y0139240D01*
X0228870Y0139961D01*
X0229134Y0140945D01*
X0213386Y0198425D02*
X0213122Y0199409D01*
X0212402Y0200130D01*
X0211417Y0200394D01*
X0210433Y0200130D01*
X0209713Y0199409D01*
X0209449Y0198425D01*
X0209713Y0197441D01*
X0210433Y0196720D01*
X0211417Y0196457D01*
X0212402Y0196720D01*
X0213122Y0197441D01*
X0213386Y0198425D01*
X0073228Y0337008D02*
X0072965Y0337992D01*
X0072244Y0338713D01*
X0071260Y0338976D01*
X0070276Y0338713D01*
X0069555Y0337992D01*
X0069291Y0337008D01*
X0069555Y0336024D01*
X0070276Y0335303D01*
X0071260Y0335039D01*
X0072244Y0335303D01*
X0072965Y0336024D01*
X0073228Y0337008D01*
X0103248Y0188976D02*
X0103222Y0189978D01*
X0103146Y0190978D01*
X0103020Y0191972D01*
X0102843Y0192959D01*
X0102616Y0193935D01*
X0102340Y0194899D01*
X0102016Y0195847D01*
X0101645Y0196778D01*
X0101226Y0197689D01*
X0100762Y0198577D01*
X0100253Y0199441D01*
X0099702Y0200278D01*
X0099109Y0201086D01*
X0098475Y0201863D01*
X0097803Y0202606D01*
X0097095Y0203315D01*
X0096351Y0203987D01*
X0095574Y0204621D01*
X0094766Y0205214D01*
X0093929Y0205765D01*
X0093065Y0206274D01*
X0092177Y0206738D01*
X0091266Y0207156D01*
X0090335Y0207528D01*
X0089387Y0207852D01*
X0088423Y0208128D01*
X0087447Y0208355D01*
X0086460Y0208531D01*
X0085466Y0208658D01*
X0084467Y0208734D01*
X0083465Y0208760D01*
X0082463Y0208734D01*
X0081463Y0208658D01*
X0080469Y0208531D01*
X0079482Y0208355D01*
X0078506Y0208128D01*
X0077542Y0207852D01*
X0076594Y0207528D01*
X0075663Y0207156D01*
X0074752Y0206738D01*
X0073864Y0206274D01*
X0073000Y0205765D01*
X0072163Y0205214D01*
X0071355Y0204621D01*
X0070578Y0203987D01*
X0069835Y0203315D01*
X0069126Y0202606D01*
X0068454Y0201863D01*
X0067821Y0201086D01*
X0067227Y0200278D01*
X0066676Y0199441D01*
X0066167Y0198577D01*
X0065703Y0197689D01*
X0065285Y0196778D01*
X0064913Y0195847D01*
X0064589Y0194899D01*
X0064313Y0193935D01*
X0064086Y0192959D01*
X0063910Y0191972D01*
X0063783Y0190978D01*
X0063707Y0189978D01*
X0063681Y0188976D01*
X0063707Y0187974D01*
X0063783Y0186975D01*
X0063910Y0185981D01*
X0064086Y0184994D01*
X0064313Y0184018D01*
X0064589Y0183054D01*
X0064913Y0182106D01*
X0065285Y0181175D01*
X0065703Y0180264D01*
X0066167Y0179376D01*
X0066676Y0178512D01*
X0067227Y0177675D01*
X0067821Y0176867D01*
X0068454Y0176090D01*
X0069126Y0175346D01*
X0069835Y0174638D01*
X0070578Y0173966D01*
X0071355Y0173332D01*
X0072163Y0172739D01*
X0073000Y0172187D01*
X0073864Y0171679D01*
X0074752Y0171215D01*
X0075663Y0170796D01*
X0076594Y0170425D01*
X0077542Y0170100D01*
X0078506Y0169825D01*
X0079482Y0169598D01*
X0080469Y0169421D01*
X0081463Y0169295D01*
X0082463Y0169219D01*
X0083465Y0169193D01*
X0084467Y0169219D01*
X0085466Y0169295D01*
X0086460Y0169421D01*
X0087447Y0169598D01*
X0088423Y0169825D01*
X0089387Y0170100D01*
X0090336Y0170425D01*
X0091266Y0170797D01*
X0092177Y0171215D01*
X0093066Y0171679D01*
X0093929Y0172187D01*
X0094766Y0172739D01*
X0095574Y0173332D01*
X0096351Y0173966D01*
X0097095Y0174638D01*
X0097803Y0175347D01*
X0098475Y0176090D01*
X0099109Y0176867D01*
X0099702Y0177675D01*
X0100253Y0178512D01*
X0100762Y0179376D01*
X0101226Y0180264D01*
X0101645Y0181175D01*
X0102016Y0182106D01*
X0102340Y0183054D01*
X0102616Y0184018D01*
X0102843Y0184994D01*
X0103020Y0185981D01*
X0103146Y0186975D01*
X0103222Y0187975D01*
X0103248Y0188976D01*
X0146161Y0188583D02*
X0146136Y0189585D01*
X0146060Y0190584D01*
X0145933Y0191578D01*
X0145756Y0192565D01*
X0145530Y0193541D01*
X0145254Y0194505D01*
X0144930Y0195454D01*
X0144558Y0196384D01*
X0144139Y0197295D01*
X0143675Y0198184D01*
X0143167Y0199047D01*
X0142615Y0199884D01*
X0142022Y0200692D01*
X0141389Y0201469D01*
X0140717Y0202213D01*
X0140008Y0202921D01*
X0139264Y0203593D01*
X0138487Y0204227D01*
X0137680Y0204820D01*
X0136843Y0205372D01*
X0135979Y0205880D01*
X0135090Y0206344D01*
X0134180Y0206763D01*
X0133249Y0207134D01*
X0132300Y0207459D01*
X0131337Y0207734D01*
X0130360Y0207961D01*
X0129374Y0208138D01*
X0128379Y0208264D01*
X0127380Y0208341D01*
X0126378Y0208366D01*
X0125376Y0208341D01*
X0124376Y0208264D01*
X0123382Y0208138D01*
X0122396Y0207961D01*
X0121419Y0207734D01*
X0120456Y0207459D01*
X0119507Y0207134D01*
X0118576Y0206763D01*
X0117666Y0206344D01*
X0116777Y0205880D01*
X0115913Y0205372D01*
X0115076Y0204820D01*
X0114269Y0204227D01*
X0113492Y0203593D01*
X0112748Y0202921D01*
X0112039Y0202213D01*
X0111367Y0201469D01*
X0110734Y0200692D01*
X0110141Y0199884D01*
X0109589Y0199047D01*
X0109081Y0198184D01*
X0108616Y0197295D01*
X0108198Y0196384D01*
X0107826Y0195454D01*
X0107502Y0194505D01*
X0107226Y0193541D01*
X0107000Y0192565D01*
X0106823Y0191578D01*
X0106696Y0190584D01*
X0106620Y0189585D01*
X0106595Y0188583D01*
X0106620Y0187581D01*
X0106696Y0186581D01*
X0106823Y0185587D01*
X0107000Y0184600D01*
X0107226Y0183624D01*
X0107502Y0182660D01*
X0107826Y0181712D01*
X0108198Y0180781D01*
X0108616Y0179870D01*
X0109081Y0178982D01*
X0109589Y0178118D01*
X0110141Y0177281D01*
X0110734Y0176473D01*
X0111367Y0175696D01*
X0112039Y0174953D01*
X0112748Y0174244D01*
X0113492Y0173572D01*
X0114269Y0172939D01*
X0115076Y0172345D01*
X0115913Y0171794D01*
X0116777Y0171285D01*
X0117666Y0170821D01*
X0118576Y0170403D01*
X0119507Y0170031D01*
X0120456Y0169707D01*
X0121419Y0169431D01*
X0122396Y0169204D01*
X0123382Y0169028D01*
X0124377Y0168901D01*
X0125376Y0168825D01*
X0126378Y0168799D01*
X0127380Y0168825D01*
X0128379Y0168901D01*
X0129374Y0169028D01*
X0130360Y0169204D01*
X0131337Y0169431D01*
X0132300Y0169707D01*
X0133249Y0170031D01*
X0134180Y0170403D01*
X0135090Y0170821D01*
X0135979Y0171285D01*
X0136843Y0171794D01*
X0137680Y0172345D01*
X0138487Y0172939D01*
X0139264Y0173572D01*
X0140008Y0174244D01*
X0140717Y0174953D01*
X0141389Y0175697D01*
X0142022Y0176473D01*
X0142615Y0177281D01*
X0143167Y0178118D01*
X0143675Y0178982D01*
X0144140Y0179870D01*
X0144558Y0180781D01*
X0144930Y0181712D01*
X0145254Y0182660D01*
X0145530Y0183624D01*
X0145756Y0184600D01*
X0145933Y0185587D01*
X0146060Y0186581D01*
X0146136Y0187581D01*
X0146161Y0188583D01*
X0289173Y0057874D02*
Y0119685D01*
X0328543D01*
Y0057874D02*
Y0119685D01*
X0289173Y0057874D02*
X0328543D01*
X0009843D02*
X0049213D01*
Y0119685D01*
X0009843D02*
X0049213D01*
X0009843Y0057874D02*
Y0119685D01*
X0259055Y0311024D02*
Y0314173D01*
X0264961D01*
Y0311024D02*
Y0314173D01*
X0259055Y0311024D02*
X0264961D01*
X0048425Y0305118D02*
X0051575D01*
X0048425D02*
Y0311024D01*
X0051575D01*
Y0305118D02*
Y0311024D01*
X0055905Y0311350D02*
X0059055D01*
Y0305445D02*
Y0311350D01*
X0055905Y0305445D02*
X0059055D01*
X0055905D02*
Y0311350D01*
X0290968Y0334878D02*
X0294118D01*
Y0328972D02*
Y0334878D01*
X0290968Y0328972D02*
X0294118D01*
X0290968D02*
Y0334878D01*
X0287425Y0284197D02*
X0290575D01*
Y0278291D02*
Y0284197D01*
X0287425Y0278291D02*
X0290575D01*
X0287425D02*
Y0284197D01*
X0251575Y0306693D02*
X0272835D01*
X0251575Y0281496D02*
X0272835D01*
Y0306693D01*
X0251575Y0281496D02*
Y0306693D01*
X0055905Y0324016D02*
X0059055D01*
Y0318110D02*
Y0324016D01*
X0055905Y0318110D02*
X0059055D01*
X0055905D02*
Y0324016D01*
X0048425Y0292520D02*
X0051575D01*
X0048425D02*
Y0298425D01*
X0051575D01*
Y0292520D02*
Y0298425D01*
X0283968Y0316079D02*
X0287118D01*
X0283968D02*
Y0321984D01*
X0287118D01*
Y0316079D02*
Y0321984D01*
X0280315Y0272047D02*
X0283465D01*
X0280315D02*
Y0277953D01*
X0283465D01*
Y0272047D02*
Y0277953D01*
X0048425Y0324016D02*
X0051575D01*
Y0318110D02*
Y0324016D01*
X0048425Y0318110D02*
X0051575D01*
X0048425D02*
Y0324016D01*
X0055905Y0292551D02*
X0059055D01*
X0055905D02*
Y0298457D01*
X0059055D01*
Y0292551D02*
Y0298457D01*
X0290968Y0316079D02*
X0294118D01*
X0290968D02*
Y0321984D01*
X0294118D01*
Y0316079D02*
Y0321984D01*
X0287425Y0265398D02*
X0290575D01*
X0287425D02*
Y0271303D01*
X0290575D01*
Y0265398D02*
Y0271303D01*
X0083465Y0289764D02*
Y0296850D01*
X0086221Y0289764D02*
Y0296850D01*
X0072835Y0289764D02*
X0086221D01*
X0072835D02*
Y0296850D01*
X0086221D01*
X0097244Y0312516D02*
X0103150D01*
X0097244Y0309366D02*
Y0312516D01*
Y0309366D02*
X0103150D01*
Y0312516D01*
X0071860Y0269094D02*
X0082490D01*
X0071860Y0287598D02*
X0082490D01*
X0071860Y0269094D02*
Y0287598D01*
X0082490Y0269094D02*
Y0287598D01*
X0091142Y0342433D02*
X0108858D01*
X0091142Y0316449D02*
X0108858D01*
Y0342433D01*
X0091142Y0316449D02*
Y0342433D01*
X0131496Y0212598D02*
Y0218898D01*
X0124803Y0212598D02*
Y0218898D01*
Y0212598D02*
X0133071D01*
Y0218898D01*
X0124803D02*
X0133071D01*
X0131496Y0219685D02*
Y0225984D01*
X0124803Y0219685D02*
Y0225984D01*
Y0219685D02*
X0133071D01*
Y0225984D01*
X0124803D02*
X0133071D01*
X0147057Y0220007D02*
X0149284Y0222234D01*
X0145108Y0226410D02*
X0149284Y0222234D01*
X0142881Y0224183D02*
X0145108Y0226410D01*
X0142881Y0224183D02*
X0147057Y0220007D01*
X0137998Y0219618D02*
X0140225Y0221845D01*
X0137998Y0219618D02*
X0142174Y0215442D01*
X0144401Y0217669D01*
X0140225Y0221845D02*
X0144401Y0217669D01*
X0149722Y0205273D02*
X0154176Y0209727D01*
X0144989Y0210006D02*
X0149443Y0214460D01*
X0144989Y0210006D02*
X0150835Y0204159D01*
X0155289Y0208614D01*
X0149443Y0214460D02*
X0155289Y0208614D01*
X0154649Y0210189D02*
X0159103Y0214643D01*
X0149916Y0214921D02*
X0154370Y0219375D01*
X0149916Y0214921D02*
X0155762Y0209075D01*
X0160216Y0213529D01*
X0154370Y0219375D02*
X0160216Y0213529D01*
X0110236Y0140157D02*
X0116535D01*
Y0127559D02*
Y0140157D01*
X0110236Y0127559D02*
X0116535D01*
X0110236D02*
Y0140157D01*
X0120866Y0142126D02*
X0132677D01*
Y0147244D01*
X0120866D02*
X0132677D01*
X0120866Y0142126D02*
Y0147244D01*
X0129921Y0152756D02*
Y0155905D01*
X0124016Y0152756D02*
X0129921D01*
X0124016D02*
Y0155905D01*
X0129921D01*
X0226378Y0149213D02*
X0232283D01*
Y0152362D01*
X0226378D02*
X0232283D01*
X0226378Y0149213D02*
Y0152362D01*
X0131496Y0290551D02*
X0137402D01*
Y0293701D01*
X0131496D02*
X0137402D01*
X0131496Y0290551D02*
Y0293701D01*
X0069291Y0262598D02*
X0088976D01*
X0069291Y0252362D02*
Y0262598D01*
Y0252362D02*
X0088976D01*
Y0262598D01*
X0073622Y0252362D02*
Y0262598D01*
X0070866Y0252362D02*
Y0262598D01*
X0071260Y0250000D02*
X0087008D01*
Y0230315D02*
Y0250000D01*
X0071260Y0230315D02*
Y0250000D01*
Y0230315D02*
X0087008D01*
X0131890Y0214567D02*
Y0217717D01*
X0125984Y0214567D02*
X0131890D01*
X0125984D02*
Y0217717D01*
X0131890D01*
X0125591Y0221260D02*
Y0224410D01*
X0131496D01*
Y0221260D02*
Y0224410D01*
X0125591Y0221260D02*
X0131496D01*
X0142520Y0310236D02*
X0145669D01*
X0142520Y0304331D02*
Y0310236D01*
Y0304331D02*
X0145669D01*
Y0310236D01*
X0149213Y0303937D02*
X0152362D01*
Y0309842D01*
X0149213D02*
X0152362D01*
X0149213Y0303937D02*
Y0309842D01*
X0135827Y0307874D02*
X0138976D01*
Y0313779D01*
X0135827D02*
X0138976D01*
X0135827Y0307874D02*
Y0313779D01*
X0129134Y0314173D02*
X0132283D01*
X0129134Y0308268D02*
Y0314173D01*
Y0308268D02*
X0132283D01*
Y0314173D01*
X0133858Y0293307D02*
Y0301575D01*
X0127559Y0293307D02*
X0133858D01*
X0127559D02*
Y0301575D01*
X0133858D01*
X0127559Y0294882D02*
X0133858D01*
X0140945Y0293307D02*
Y0301575D01*
X0134646Y0293307D02*
X0140945D01*
X0134646D02*
Y0301575D01*
X0140945D01*
X0134646Y0294882D02*
X0140945D01*
X0148031Y0290158D02*
Y0298425D01*
X0141732Y0290158D02*
X0148031D01*
X0141732D02*
Y0298425D01*
X0148031D01*
X0141732Y0291732D02*
X0148031D01*
X0155118Y0290158D02*
Y0298425D01*
X0148819Y0290158D02*
X0155118D01*
X0148819D02*
Y0298425D01*
X0155118D01*
X0148819Y0291732D02*
X0155118D01*
X0127559Y0340158D02*
X0188386D01*
X0127559Y0329921D02*
Y0340158D01*
Y0329921D02*
X0188386D01*
X0199213Y0228740D02*
X0202362D01*
X0199213D02*
Y0234646D01*
X0202362D01*
Y0228740D02*
Y0234646D01*
X0177953Y0224016D02*
Y0229921D01*
Y0224016D02*
X0181102D01*
Y0229921D01*
X0177953D02*
X0181102D01*
X0119390Y0110039D02*
Y0121850D01*
X0126279Y0110039D02*
Y0121850D01*
X0119390Y0110039D02*
X0126279D01*
X0119390Y0121850D02*
X0126279D01*
X0094980Y0110236D02*
Y0122047D01*
X0101870Y0110236D02*
Y0122047D01*
X0094980Y0110236D02*
X0101870D01*
X0094980Y0122047D02*
X0101870D01*
X0267323Y0254725D02*
X0283071D01*
Y0235039D02*
Y0254725D01*
X0267323Y0235039D02*
Y0254725D01*
Y0235039D02*
X0283071D01*
X0285827Y0120473D02*
X0288976D01*
X0285827D02*
Y0126378D01*
X0288976D01*
Y0120473D02*
Y0126378D01*
X0070472Y0338976D02*
Y0342126D01*
X0064567Y0338976D02*
X0070472D01*
X0064567D02*
Y0342126D01*
X0070472D01*
X0057874Y0338976D02*
Y0342126D01*
X0051968Y0338976D02*
X0057874D01*
X0051968D02*
Y0342126D01*
X0057874D01*
X0302756Y0131496D02*
Y0134646D01*
X0296850Y0131496D02*
X0302756D01*
X0296850D02*
Y0134646D01*
X0302756D01*
X0267327Y0032555D02*
Y0035705D01*
X0273232D01*
Y0032555D02*
Y0035705D01*
X0267327Y0032555D02*
X0273232D01*
X0068504Y0032677D02*
Y0035827D01*
X0074410D01*
Y0032677D02*
Y0035827D01*
X0068504Y0032677D02*
X0074410D01*
X0273626Y0042555D02*
Y0045705D01*
X0267720Y0042555D02*
X0273626D01*
X0267720D02*
Y0045705D01*
X0273626D01*
X0074803Y0042126D02*
Y0045276D01*
X0068897Y0042126D02*
X0074803D01*
X0068897D02*
Y0045276D01*
X0074803D01*
X0193307Y0344094D02*
Y0347244D01*
X0199213D01*
Y0344094D02*
Y0347244D01*
X0193307Y0344094D02*
X0199213D01*
X0121260Y0327165D02*
X0124409D01*
Y0321260D02*
Y0327165D01*
X0121260Y0321260D02*
X0124409D01*
X0121260D02*
Y0327165D01*
X0128740D02*
X0131890D01*
Y0321260D02*
Y0327165D01*
X0128740Y0321260D02*
X0131890D01*
X0128740D02*
Y0327165D01*
X0202362Y0133071D02*
Y0136221D01*
X0196457Y0133071D02*
X0202362D01*
X0196457D02*
Y0136221D01*
X0202362D01*
X0196063Y0126378D02*
Y0129528D01*
X0201969D01*
Y0126378D02*
Y0129528D01*
X0196063Y0126378D02*
X0201969D01*
X0073425Y0322291D02*
X0076575D01*
X0073425D02*
Y0328197D01*
X0076575D01*
Y0322291D02*
Y0328197D01*
X0066425Y0322291D02*
X0069575D01*
X0066425D02*
Y0328197D01*
X0069575D01*
Y0322291D02*
Y0328197D01*
X0252362Y0126378D02*
Y0129528D01*
X0246457Y0126378D02*
X0252362D01*
X0246457D02*
Y0129528D01*
X0252362D01*
Y0138583D02*
Y0141732D01*
X0246457Y0138583D02*
X0252362D01*
X0246457D02*
Y0141732D01*
X0252362D01*
X0264173Y0126378D02*
Y0129528D01*
X0258268Y0126378D02*
X0264173D01*
X0258268D02*
Y0129528D01*
X0264173D01*
Y0138583D02*
Y0141732D01*
X0258268Y0138583D02*
X0264173D01*
X0258268D02*
Y0141732D01*
X0264173D01*
X0121260Y0125197D02*
Y0128347D01*
X0127165D01*
Y0125197D02*
Y0128347D01*
X0121260Y0125197D02*
X0127165D01*
X0114567Y0154724D02*
X0117717D01*
Y0148819D02*
Y0154724D01*
X0114567Y0148819D02*
X0117717D01*
X0114567D02*
Y0154724D01*
X0092520Y0124803D02*
Y0127953D01*
X0098425D01*
Y0124803D02*
Y0127953D01*
X0092520Y0124803D02*
X0098425D01*
X0110236Y0152756D02*
Y0155905D01*
X0104331Y0152756D02*
X0110236D01*
X0104331D02*
Y0155905D01*
X0110236D01*
X0205906Y0176772D02*
X0209055D01*
Y0170866D02*
Y0176772D01*
X0205906Y0170866D02*
X0209055D01*
X0205906D02*
Y0176772D01*
X0050197Y0154921D02*
X0053347D01*
X0050197D02*
Y0160827D01*
X0053347D01*
Y0154921D02*
Y0160827D01*
X0232677Y0167717D02*
X0235827D01*
X0232677D02*
Y0173622D01*
X0235827D01*
Y0167717D02*
Y0173622D01*
X0056890Y0154823D02*
X0060039D01*
X0056890D02*
Y0160728D01*
X0060039D01*
Y0154823D02*
Y0160728D01*
X0043504Y0149409D02*
X0046654D01*
Y0143504D02*
Y0149409D01*
X0043504Y0143504D02*
X0046654D01*
X0043504D02*
Y0149409D01*
Y0161221D02*
X0046654D01*
Y0155315D02*
Y0161221D01*
X0043504Y0155315D02*
X0046654D01*
X0043504D02*
Y0161221D01*
X0312598Y0118110D02*
X0328346D01*
X0312598D02*
Y0137795D01*
X0328346Y0118110D02*
Y0137795D01*
X0312598D02*
X0328346D01*
X0214961Y0124803D02*
X0230709D01*
X0214961D02*
Y0144488D01*
X0230709Y0124803D02*
Y0144488D01*
X0214961D02*
X0230709D01*
X0246850Y0148031D02*
Y0154331D01*
X0254626Y0147638D02*
Y0154724D01*
X0244587Y0147638D02*
X0254626D01*
X0244587D02*
Y0154724D01*
X0254626D01*
X0201575Y0021260D02*
Y0040945D01*
X0191339D02*
X0201575D01*
X0191339Y0021260D02*
Y0040945D01*
Y0021260D02*
X0201575D01*
X0191339Y0036614D02*
X0201575D01*
X0191339Y0039370D02*
X0201575D01*
X0109055Y0020866D02*
Y0040551D01*
X0098819D02*
X0109055D01*
X0098819Y0020866D02*
Y0040551D01*
Y0020866D02*
X0109055D01*
X0098819Y0036220D02*
X0109055D01*
X0098819Y0038976D02*
X0109055D01*
X0264961Y0229921D02*
X0284646D01*
X0264961Y0219685D02*
Y0229921D01*
Y0219685D02*
X0284646D01*
Y0229921D01*
X0269291Y0219685D02*
Y0229921D01*
X0266535Y0219685D02*
Y0229921D01*
X0048819Y0218504D02*
X0068504D01*
X0048819Y0208268D02*
Y0218504D01*
Y0208268D02*
X0068504D01*
Y0218504D01*
X0053150Y0208268D02*
Y0218504D01*
X0050394Y0208268D02*
Y0218504D01*
X0292520Y0120473D02*
X0295669D01*
X0292520D02*
Y0126378D01*
X0295669D01*
Y0120473D02*
Y0126378D01*
X0299213Y0120473D02*
X0302362D01*
X0299213D02*
Y0126378D01*
X0302362D01*
Y0120473D02*
Y0126378D01*
X0077953Y0300000D02*
Y0303150D01*
X0083858D01*
Y0300000D02*
Y0303150D01*
X0077953Y0300000D02*
X0083858D01*
X0055905Y0273622D02*
X0059055D01*
Y0267716D02*
Y0273622D01*
X0055905Y0267716D02*
X0059055D01*
X0055905D02*
Y0273622D01*
X0269685Y0130709D02*
X0272835D01*
X0269685D02*
Y0136614D01*
X0272835D01*
Y0130709D02*
Y0136614D01*
X0050197Y0149409D02*
X0053347D01*
Y0143504D02*
Y0149409D01*
X0050197Y0143504D02*
X0053347D01*
X0050197D02*
Y0149409D01*
X0313779Y0192913D02*
X0316929D01*
Y0187008D02*
Y0192913D01*
X0313779Y0187008D02*
X0316929D01*
X0313779D02*
Y0192913D01*
X0070472Y0221654D02*
Y0224803D01*
X0064567Y0221654D02*
X0070472D01*
X0064567D02*
Y0224803D01*
X0070472D01*
X0221260Y0175197D02*
Y0178347D01*
X0227166D01*
Y0175197D02*
Y0178347D01*
X0221260Y0175197D02*
X0227166D01*
X0199213Y0201969D02*
X0214961D01*
Y0182283D02*
Y0201969D01*
X0199213Y0182283D02*
Y0201969D01*
Y0182283D02*
X0214961D01*
X0188189Y0128347D02*
X0191339D01*
X0188189D02*
Y0134252D01*
X0191339D01*
Y0128347D02*
Y0134252D01*
X0200000Y0205512D02*
Y0208661D01*
X0194095Y0205512D02*
X0200000D01*
X0194095D02*
Y0208661D01*
X0200000D01*
X0070177Y0026378D02*
X0077067D01*
X0070177Y0014567D02*
X0077067D01*
Y0026378D01*
X0070177Y0014567D02*
Y0026378D01*
X0006693Y0147146D02*
X0018504D01*
X0006693Y0140256D02*
X0018504D01*
X0006693D02*
Y0147146D01*
X0018504Y0140256D02*
Y0147146D01*
X0009646Y0157480D02*
X0021457D01*
Y0162598D01*
X0009646D02*
X0021457D01*
X0009646Y0157480D02*
Y0162598D01*
X0241240Y0192913D02*
Y0204724D01*
X0234350Y0192913D02*
Y0204724D01*
X0241240D01*
X0234350Y0192913D02*
X0241240D01*
X0250787Y0186614D02*
X0256693D01*
X0250787Y0183465D02*
Y0186614D01*
Y0183465D02*
X0256693D01*
Y0186614D01*
X0250787Y0203937D02*
X0256693D01*
X0250787Y0200787D02*
Y0203937D01*
Y0200787D02*
X0256693D01*
Y0203937D01*
X0240158Y0178740D02*
Y0184646D01*
Y0178740D02*
X0243307D01*
Y0184646D01*
X0240158D02*
X0243307D01*
X0250394Y0192126D02*
X0256299D01*
Y0195276D01*
X0250394D02*
X0256299D01*
X0250394Y0192126D02*
Y0195276D01*
X0093701Y0172047D02*
Y0178347D01*
X0081102Y0172047D02*
X0093701D01*
X0081102D02*
Y0178347D01*
X0093701D01*
Y0161811D02*
Y0168110D01*
X0081102Y0161811D02*
X0093701D01*
X0081102D02*
Y0168110D01*
X0093701D01*
X0293701Y0183071D02*
X0300000D01*
X0293701D02*
Y0195669D01*
X0300000D01*
Y0183071D02*
Y0195669D01*
X0303543Y0183071D02*
X0309842D01*
X0303543D02*
Y0195669D01*
X0309842D01*
Y0183071D02*
Y0195669D01*
X0267028Y0025984D02*
X0273917D01*
X0267028Y0014173D02*
X0273917D01*
Y0025984D01*
X0267028Y0014173D02*
Y0025984D01*
X0110236Y0146063D02*
Y0149213D01*
X0104331Y0146063D02*
X0110236D01*
X0104331D02*
Y0149213D01*
X0110236D01*
X0092126Y0135433D02*
X0103937D01*
Y0140551D01*
X0092126D02*
X0103937D01*
X0092126Y0135433D02*
Y0140551D01*
X0048425Y0264567D02*
Y0312598D01*
X0096457D01*
Y0264567D02*
Y0312598D01*
X0048425Y0264567D02*
X0096457D01*
X0038583Y0142323D02*
Y0163976D01*
Y0142323D02*
X0087795D01*
Y0163976D01*
X0038583D02*
X0087795D01*
X0203346Y0135039D02*
X0215158D01*
X0203346D02*
Y0140157D01*
X0215158D01*
Y0135039D02*
Y0140157D01*
X0187795Y0135039D02*
X0199606D01*
X0187795D02*
Y0140157D01*
X0199606D01*
Y0135039D02*
Y0140157D01*
X0219291Y0135039D02*
X0231102D01*
X0219291D02*
Y0140157D01*
X0231102D01*
Y0135039D02*
Y0140157D01*
X0172047Y0135039D02*
X0183858D01*
X0172047D02*
Y0140157D01*
X0183858D01*
Y0135039D02*
Y0140157D01*
X0156299Y0135039D02*
X0168110D01*
X0156299D02*
Y0140157D01*
X0168110D01*
Y0135039D02*
Y0140157D01*
X0174803Y0145276D02*
Y0148425D01*
Y0145276D02*
X0180709D01*
Y0148425D01*
X0174803D02*
X0180709D01*
X0140551Y0135039D02*
X0152362D01*
X0140551D02*
Y0140157D01*
X0152362D01*
Y0135039D02*
Y0140157D01*
X0143307Y0145276D02*
Y0148425D01*
Y0145276D02*
X0149213D01*
Y0148425D01*
X0143307D02*
X0149213D01*
X0124409Y0135039D02*
X0136221D01*
X0124409D02*
Y0140157D01*
X0136221D01*
Y0135039D02*
Y0140157D01*
X0108268Y0135039D02*
X0120079D01*
X0108268D02*
Y0140157D01*
X0120079D01*
Y0135039D02*
Y0140157D01*
X0127165Y0145276D02*
Y0148425D01*
Y0145276D02*
X0133071D01*
Y0148425D01*
X0127165D02*
X0133071D01*
X0092126Y0135039D02*
X0103937D01*
X0092126D02*
Y0140157D01*
X0103937D01*
Y0135039D02*
Y0140157D01*
X0111024Y0145276D02*
Y0148425D01*
Y0145276D02*
X0116929D01*
Y0148425D01*
X0111024D02*
X0116929D01*
X0099016Y0145276D02*
Y0148425D01*
Y0145276D02*
X0104921D01*
Y0148425D01*
X0099016D02*
X0104921D01*
X0205906Y0145276D02*
Y0148425D01*
Y0145276D02*
X0211811D01*
Y0148425D01*
X0205906D02*
X0211811D01*
X0235039Y0135039D02*
X0246850D01*
X0235039D02*
Y0140157D01*
X0246850D01*
Y0135039D02*
Y0140157D01*
X0222047Y0145276D02*
Y0148425D01*
Y0145276D02*
X0227953D01*
Y0148425D01*
X0222047D02*
X0227953D01*
X0237795Y0145276D02*
Y0148425D01*
Y0145276D02*
X0243701D01*
Y0148425D01*
X0237795D02*
X0243701D01*
X0250787Y0135039D02*
X0262598D01*
X0250787D02*
Y0140157D01*
X0262598D01*
Y0135039D02*
Y0140157D01*
X0253543Y0145276D02*
Y0148425D01*
Y0145276D02*
X0259449D01*
Y0148425D01*
X0253543D02*
X0259449D01*
X0190551Y0145276D02*
Y0148425D01*
Y0145276D02*
X0196457D01*
Y0148425D01*
X0190551D02*
X0196457D01*
X0266535Y0135039D02*
X0278346D01*
X0266535D02*
Y0140157D01*
X0278346D01*
Y0135039D02*
Y0140157D01*
X0269094Y0145276D02*
Y0148425D01*
Y0145276D02*
X0275000D01*
Y0148425D01*
X0269094D02*
X0275000D01*
X0282283Y0135039D02*
X0294094D01*
X0282283D02*
Y0140157D01*
X0294094D01*
Y0135039D02*
Y0140157D01*
X0298031Y0135039D02*
X0309842D01*
X0298031D02*
Y0140157D01*
X0309842D01*
Y0135039D02*
Y0140157D01*
X0300787Y0145276D02*
Y0148425D01*
Y0145276D02*
X0306693D01*
Y0148425D01*
X0300787D02*
X0306693D01*
X0159055Y0145276D02*
Y0148425D01*
Y0145276D02*
X0164961D01*
Y0148425D01*
X0159055D02*
X0164961D01*
X0189370Y0310827D02*
Y0316732D01*
X0192520D01*
Y0310827D02*
Y0316732D01*
X0189370Y0310827D02*
X0192520D01*
X0006142Y0142402D02*
X0086457D01*
X0006142Y0106181D02*
Y0142402D01*
Y0106181D02*
X0086457D01*
Y0142402D01*
X0175839Y0023650D02*
X0181744D01*
Y0037036D01*
X0175839D02*
X0181744D01*
X0175839Y0010264D02*
Y0050421D01*
Y0010264D02*
X0256154D01*
Y0050421D01*
X0175839D02*
X0256154D01*
X0084437Y0023650D02*
X0090343D01*
Y0037036D01*
X0084437D02*
X0090343D01*
X0084437Y0010264D02*
Y0050421D01*
Y0010264D02*
X0164752D01*
Y0050421D01*
X0084437D02*
X0164752D01*
X0283465Y0289370D02*
Y0299606D01*
Y0289370D02*
X0304331D01*
Y0299606D01*
X0283465D02*
X0304331D01*
X0283465Y0289370D02*
Y0299606D01*
X0218539Y0330193D02*
Y0336886D01*
Y0330193D02*
X0248461D01*
Y0365232D01*
X0218539D02*
X0248461D01*
X0218539Y0336886D02*
Y0365232D01*
X0164059Y0246709D02*
X0203429D01*
X0164059D02*
Y0286079D01*
X0203429D01*
Y0246709D02*
Y0286079D01*
X0298228Y0113484D02*
Y0120374D01*
X0310039Y0113484D02*
Y0120374D01*
X0298228Y0113484D02*
X0310039D01*
X0298228Y0120374D02*
X0310039D01*
X0235236D02*
X0247047D01*
X0235236Y0113484D02*
X0247047D01*
Y0120374D01*
X0235236Y0113484D02*
Y0120374D01*
X0172244Y0113484D02*
Y0120374D01*
X0184055Y0113484D02*
Y0120374D01*
X0172244Y0113484D02*
X0184055D01*
X0172244Y0120374D02*
X0184055D01*
X0109252D02*
X0121063D01*
X0109252Y0113484D02*
X0121063D01*
Y0120374D01*
X0109252Y0113484D02*
Y0120374D01*
X0282480Y0113484D02*
Y0120374D01*
X0294291Y0113484D02*
Y0120374D01*
X0282480Y0113484D02*
X0294291D01*
X0282480Y0120374D02*
X0294291D01*
X0219488D02*
X0231299D01*
X0219488Y0113484D02*
X0231299D01*
Y0120374D01*
X0219488Y0113484D02*
Y0120374D01*
X0156496Y0113484D02*
Y0120374D01*
X0168307Y0113484D02*
Y0120374D01*
X0156496Y0113484D02*
X0168307D01*
X0156496Y0120374D02*
X0168307D01*
X0093504D02*
X0105315D01*
X0093504Y0113484D02*
X0105315D01*
Y0120374D01*
X0093504Y0113484D02*
Y0120374D01*
X0266732Y0113484D02*
Y0120374D01*
X0278543Y0113484D02*
Y0120374D01*
X0266732Y0113484D02*
X0278543D01*
X0266732Y0120374D02*
X0278543D01*
X0203740D02*
X0215551D01*
X0203740Y0113484D02*
X0215551D01*
Y0120374D01*
X0203740Y0113484D02*
Y0120374D01*
X0140748Y0113484D02*
Y0120374D01*
X0152559Y0113484D02*
Y0120374D01*
X0140748Y0113484D02*
X0152559D01*
X0140748Y0120374D02*
X0152559D01*
X0250984Y0113484D02*
Y0120374D01*
X0262795Y0113484D02*
Y0120374D01*
X0250984Y0113484D02*
X0262795D01*
X0250984Y0120374D02*
X0262795D01*
X0187992D02*
X0199803D01*
X0187992Y0113484D02*
X0199803D01*
Y0120374D01*
X0187992Y0113484D02*
Y0120374D01*
X0125000Y0113484D02*
Y0120374D01*
X0136811Y0113484D02*
Y0120374D01*
X0125000Y0113484D02*
X0136811D01*
X0125000Y0120374D02*
X0136811D01*
X0298858Y0252906D02*
X0320118D01*
X0322874Y0255661D01*
Y0283221D01*
X0320118Y0285976D02*
X0322874Y0283221D01*
X0298858Y0285976D02*
X0320118D01*
X0298858Y0252906D02*
Y0285976D01*
X0322874Y0263535D02*
X0348071D01*
Y0275346D01*
X0322874D02*
X0348071D01*
X0298858Y0303405D02*
X0320118D01*
X0322874Y0306161D01*
Y0333720D01*
X0320118Y0336476D02*
X0322874Y0333720D01*
X0298858Y0336476D02*
X0320118D01*
X0298858Y0303405D02*
Y0336476D01*
X0322874Y0314035D02*
X0348071D01*
Y0325847D01*
X0322874D02*
X0348071D01*
X0018882Y0285976D02*
X0040142D01*
X0016126Y0283221D02*
X0018882Y0285976D01*
X0016126Y0255661D02*
Y0283221D01*
Y0255661D02*
X0018882Y0252906D01*
X0040142D01*
Y0285976D01*
X-0009071Y0275346D02*
X0016126D01*
X-0009071Y0263535D02*
Y0275346D01*
Y0263535D02*
X0016126D01*
X0018882Y0336476D02*
X0040142D01*
X0016126Y0333720D02*
X0018882Y0336476D01*
X0016126Y0306161D02*
Y0333720D01*
Y0306161D02*
X0018882Y0303405D01*
X0040142D01*
Y0336476D01*
X-0009071Y0325847D02*
X0016126D01*
X-0009071Y0314035D02*
Y0325847D01*
Y0314035D02*
X0016126D01*
X0302756Y0126378D02*
Y0129528D01*
X0296850D02*
X0302756D01*
X0296850Y0126378D02*
Y0129528D01*
Y0126378D02*
X0302756D01*
X0239764D02*
Y0129528D01*
X0233858D02*
X0239764D01*
X0233858Y0126378D02*
Y0129528D01*
Y0126378D02*
X0239764D01*
X0176772D02*
Y0129528D01*
X0170866D02*
X0176772D01*
X0170866Y0126378D02*
Y0129528D01*
Y0126378D02*
X0176772D01*
X0113386Y0126378D02*
Y0129527D01*
X0107480D02*
X0113386D01*
X0107480Y0126378D02*
Y0129527D01*
Y0126378D02*
X0113386D01*
X0300787Y0151969D02*
Y0155118D01*
Y0151969D02*
X0306693D01*
Y0155118D01*
X0300787D02*
X0306693D01*
X0250000Y0151969D02*
Y0155118D01*
X0244094D02*
X0250000D01*
X0244094Y0151969D02*
Y0155118D01*
Y0151969D02*
X0250000D01*
X0187008D02*
Y0155118D01*
X0181102D02*
X0187008D01*
X0181102Y0151969D02*
Y0155118D01*
Y0151969D02*
X0187008D01*
X0123228D02*
Y0155118D01*
X0117323D02*
X0123228D01*
X0117323Y0151969D02*
Y0155118D01*
Y0151969D02*
X0123228D01*
X0287008Y0126378D02*
Y0129528D01*
X0281102D02*
X0287008D01*
X0281102Y0126378D02*
Y0129528D01*
Y0126378D02*
X0287008D01*
X0224016D02*
Y0129528D01*
X0218110D02*
X0224016D01*
X0218110Y0126378D02*
Y0129528D01*
Y0126378D02*
X0224016D01*
X0161024Y0126378D02*
Y0129527D01*
X0155118D02*
X0161024D01*
X0155118Y0126378D02*
Y0129527D01*
Y0126378D02*
X0161024D01*
X0097441D02*
Y0129527D01*
X0091535D02*
X0097441D01*
X0091535Y0126378D02*
Y0129527D01*
Y0126378D02*
X0097441D01*
X0295276Y0151969D02*
Y0155118D01*
X0289370D02*
X0295276D01*
X0289370Y0151969D02*
Y0155118D01*
Y0151969D02*
X0295276D01*
X0230709D02*
Y0155118D01*
X0224803D02*
X0230709D01*
X0224803Y0151969D02*
Y0155118D01*
Y0151969D02*
X0230709D01*
X0171260D02*
Y0155118D01*
X0165354D02*
X0171260D01*
X0165354Y0151969D02*
Y0155118D01*
Y0151969D02*
X0171260D01*
X0111024D02*
Y0155118D01*
X0105118D02*
X0111024D01*
X0105118Y0151969D02*
Y0155118D01*
Y0151969D02*
X0111024D01*
X0271260Y0126378D02*
Y0129528D01*
X0265354D02*
X0271260D01*
X0265354Y0126378D02*
Y0129528D01*
Y0126378D02*
X0271260D01*
X0208071D02*
Y0129528D01*
X0202165D02*
X0208071D01*
X0202165Y0126378D02*
Y0129528D01*
Y0126378D02*
X0208071D01*
X0145079Y0126378D02*
Y0129527D01*
X0139173D02*
X0145079D01*
X0139173Y0126378D02*
Y0129527D01*
Y0126378D02*
X0145079D01*
X0281299Y0151969D02*
Y0155118D01*
X0275394D02*
X0281299D01*
X0275394Y0151969D02*
Y0155118D01*
Y0151969D02*
X0281299D01*
X0218110D02*
Y0155118D01*
X0212205D02*
X0218110D01*
X0212205Y0151969D02*
Y0155118D01*
Y0151969D02*
X0218110D01*
X0155512D02*
Y0155118D01*
X0149606D02*
X0155512D01*
X0149606Y0151969D02*
Y0155118D01*
Y0151969D02*
X0155512D01*
X0255512Y0126378D02*
Y0129528D01*
X0249606D02*
X0255512D01*
X0249606Y0126378D02*
Y0129528D01*
Y0126378D02*
X0255512D01*
X0192520D02*
Y0129528D01*
X0186614D02*
X0192520D01*
X0186614Y0126378D02*
Y0129528D01*
Y0126378D02*
X0192520D01*
X0129134Y0126378D02*
Y0129527D01*
X0123228D02*
X0129134D01*
X0123228Y0126378D02*
Y0129527D01*
Y0126378D02*
X0129134D01*
X0265748Y0151969D02*
Y0155118D01*
X0259842D02*
X0265748D01*
X0259842Y0151969D02*
Y0155118D01*
Y0151969D02*
X0265748D01*
X0202756D02*
Y0155118D01*
X0196850D02*
X0202756D01*
X0196850Y0151969D02*
Y0155118D01*
Y0151969D02*
X0202756D01*
X0139370D02*
Y0155118D01*
X0133465D02*
X0139370D01*
X0133465Y0151969D02*
Y0155118D01*
Y0151969D02*
X0139370D01*
X0086811Y0314961D02*
Y0318110D01*
X0080905D02*
X0086811D01*
X0080905Y0314961D02*
Y0318110D01*
Y0314961D02*
X0086811D01*
X0094095Y0327165D02*
X0097244D01*
X0094095Y0321260D02*
Y0327165D01*
Y0321260D02*
X0097244D01*
Y0327165D01*
X0217957Y0262378D02*
Y0265528D01*
Y0262378D02*
X0223862D01*
Y0265528D01*
X0217957D02*
X0223862D01*
X0217957Y0255878D02*
Y0259028D01*
Y0255878D02*
X0223862D01*
Y0259028D01*
X0217957D02*
X0223862D01*
X0186614Y0235039D02*
X0189764D01*
X0186614Y0229134D02*
Y0235039D01*
Y0229134D02*
X0189764D01*
Y0235039D01*
X0271260Y0240000D02*
X0274410D01*
X0271260Y0234095D02*
Y0240000D01*
Y0234095D02*
X0274410D01*
Y0240000D01*
X0278346D02*
X0281496D01*
X0278346Y0234095D02*
Y0240000D01*
Y0234095D02*
X0281496D01*
Y0240000D01*
X0215748Y0313779D02*
X0218898D01*
Y0319685D01*
X0215748D02*
X0218898D01*
X0215748Y0313779D02*
Y0319685D01*
X0224122Y0319953D02*
X0227272D01*
X0224122Y0314047D02*
Y0319953D01*
Y0314047D02*
X0227272D01*
Y0319953D01*
X0231122D02*
X0234272D01*
X0231122Y0314047D02*
Y0319953D01*
Y0314047D02*
X0234272D01*
Y0319953D01*
X0238122D02*
X0241272D01*
X0238122Y0314047D02*
Y0319953D01*
Y0314047D02*
X0241272D01*
Y0319953D01*
X0287402Y0277953D02*
X0290551D01*
Y0283858D01*
X0287402D02*
X0290551D01*
X0287402Y0277953D02*
Y0283858D01*
X0270650Y0345866D02*
Y0349016D01*
X0264744D02*
X0270650D01*
X0264744Y0345866D02*
Y0349016D01*
Y0345866D02*
X0270650D01*
X0229921Y0267323D02*
X0235039D01*
X0229921Y0253937D02*
Y0267323D01*
Y0253937D02*
X0235039D01*
Y0267323D01*
X0264563Y0354079D02*
X0272437D01*
Y0358803D01*
X0264563D02*
X0272437D01*
X0264563Y0354079D02*
Y0358803D01*
X0048425Y0213386D02*
Y0261417D01*
X0096457D01*
Y0213386D02*
Y0261417D01*
X0048425Y0213386D02*
X0096457D01*
X0235039Y0274803D02*
Y0280709D01*
X0231890Y0274803D02*
X0235039D01*
X0231890D02*
Y0280709D01*
X0235039D01*
X0067716Y0320866D02*
X0083464D01*
Y0340551D01*
X0067716Y0320866D02*
Y0340551D01*
X0083464D01*
X0270472Y0255807D02*
X0282284D01*
X0270472Y0248917D02*
X0282284D01*
Y0255807D01*
X0270472Y0248917D02*
Y0255807D01*
X0094095Y0332677D02*
X0097244D01*
Y0338583D01*
X0094095D02*
X0097244D01*
X0094095Y0332677D02*
Y0338583D01*
X0104331Y0243701D02*
X0107480D01*
Y0249606D01*
X0104331D02*
X0107480D01*
X0104331Y0243701D02*
Y0249606D01*
X0221654Y0271654D02*
Y0285039D01*
X0214567Y0271654D02*
X0221654D01*
X0214567D02*
Y0285039D01*
X0221654D01*
X0214567Y0282283D02*
X0221654D01*
X0224803Y0274410D02*
X0227953D01*
Y0280315D01*
X0224803D02*
X0227953D01*
X0224803Y0274410D02*
Y0280315D01*
X0172835Y0302362D02*
Y0305512D01*
X0166929D02*
X0172835D01*
X0166929Y0302362D02*
Y0305512D01*
Y0302362D02*
X0172835D01*
X0195095Y0227819D02*
Y0230968D01*
Y0227819D02*
X0201000D01*
Y0230968D01*
X0195095D02*
X0201000D01*
X0150000Y0253740D02*
X0153150D01*
X0150000Y0247834D02*
Y0253740D01*
Y0247834D02*
X0153150D01*
Y0253740D01*
X0203937Y0304724D02*
Y0307874D01*
X0198031D02*
X0203937D01*
X0198031Y0304724D02*
Y0307874D01*
Y0304724D02*
X0203937D01*
X0274016Y0262992D02*
Y0266142D01*
Y0262992D02*
X0279921D01*
Y0266142D01*
X0274016D02*
X0279921D01*
X0266535Y0251575D02*
Y0257480D01*
X0263386Y0251575D02*
X0266535D01*
X0263386D02*
Y0257480D01*
X0266535D01*
X0050000Y0053150D02*
X0060236D01*
X0050000Y0012205D02*
Y0053150D01*
Y0012205D02*
X0060236D01*
Y0053150D01*
X0050000D02*
X0060236D01*
X0285039Y0145276D02*
Y0148425D01*
Y0145276D02*
X0290945D01*
Y0148425D01*
X0285039D02*
X0290945D01*
X0281496Y0214173D02*
X0329528D01*
Y0166142D02*
Y0214173D01*
X0281496Y0166142D02*
X0329528D01*
X0281496D02*
Y0214173D01*
X0326772Y0222835D02*
Y0364567D01*
X0011811Y0222835D02*
X0326772D01*
X0011811D02*
Y0364567D01*
X0326772D01*
M02*
