%FSTAX23Y23*%
%MOIN*%
%SFA1B1*%

%IPPOS*%
%ADD10C,0.039400*%
%ADD11R,0.122000X0.220500*%
%ADD12R,0.031500X0.035400*%
%ADD13R,0.023600X0.035400*%
%ADD14R,0.035400X0.023600*%
%ADD15R,0.070900X0.051200*%
%ADD16R,0.027600X0.047200*%
%ADD17R,0.023600X0.047200*%
%ADD18R,0.082700X0.023600*%
%ADD19R,0.047200X0.047200*%
%ADD20R,0.078700X0.015700*%
%ADD21R,0.019700X0.039400*%
%ADD22R,0.010600X0.055100*%
%ADD23R,0.055100X0.010600*%
%ADD24R,0.019700X0.078700*%
%ADD25R,0.098400X0.086600*%
%ADD26R,0.220500X0.122000*%
%ADD27C,0.011800*%
%ADD28C,0.009800*%
%ADD29C,0.059100*%
%ADD30C,0.015700*%
%ADD31C,0.039400*%
%ADD32C,0.043300*%
%ADD33C,0.031500*%
%ADD34C,0.009100*%
%ADD35C,0.063000*%
%ADD36C,0.019700*%
%ADD37R,0.102400X0.106300*%
%ADD38R,0.126000X0.122000*%
%ADD39C,0.078700*%
%ADD40C,0.082700*%
%ADD41C,0.070900*%
%ADD42C,0.106300*%
%ADD43O,0.086600X0.098400*%
%ADD44O,0.110200X0.196800*%
%ADD45O,0.196800X0.110200*%
%ADD46O,0.078700X0.094500*%
%ADD47C,0.072800*%
%ADD48C,0.098400*%
%ADD49C,0.035400*%
%ADD50C,0.043300*%
%ADD51C,0.031500*%
%ADD52C,0.047200*%
%ADD53C,0.118100*%
%LNrelaytester-1*%
%LPD*%
G36*
X01521Y01289D02*
Y01246D01*
X01528*
Y01143*
X01529Y01135*
X01531Y01133*
Y00992*
X01492Y00953*
X0149Y00952*
X01482Y00946*
X01437Y00901*
X01366*
Y0094*
X01405*
X01423Y00958*
X01431Y00959*
X0144Y00963*
X01447Y00969*
X01453Y00977*
X01457Y00986*
X01459Y00996*
Y01031*
Y01066*
Y01082*
X01457Y01092*
X01456Y01094*
Y01236*
X01466Y01246*
X01476*
Y01255*
Y01295*
X01515*
X01521Y01289*
G37*
G36*
X01156Y02951D02*
Y02892D01*
X01145Y02882*
X01137Y02881*
X01129Y02877*
X01123Y02872*
X01118Y02866*
X01115Y02858*
X01114Y02853*
X01103Y02848*
X01101Y02848*
X01101Y02849*
X01094Y02854*
X01087Y02857*
X01078Y02858*
X0107Y02857*
X01062Y02854*
X01056Y02849*
X01051Y02842*
X01048Y02835*
X01047Y02826*
X01048Y02818*
X01051Y0281*
X01056Y02804*
X01056Y02804*
Y02744*
X01055Y02732*
X01046Y02731*
X01039Y02728*
X01032Y02723*
X01027Y02716*
X01024Y02709*
X01023Y027*
X01023Y02698*
X01013Y02689*
X01012Y0269*
X01008Y0269*
Y02662*
X01038*
X01046Y0267*
X01055Y02669*
X01062Y02661*
X01063Y02653*
X01067Y02645*
X01072Y02639*
X01078Y02633*
X01086Y0263*
X01094Y02629*
X01102Y0263*
X0111Y02633*
X01117Y02639*
X01122Y02645*
X01125Y02653*
X01126Y02661*
X01126Y02663*
X01129Y02666*
X01133Y02673*
X01135Y02681*
Y02729*
X01147Y02735*
X01148Y02734*
X01156Y02731*
X01161Y0273*
X01162Y02724*
X01165Y02716*
X0117Y02709*
X01177Y02704*
X01184Y02701*
X01192Y027*
X01203Y0269*
Y0259*
X01191Y02586*
X0119Y02588*
X01179Y02596*
X01166Y02602*
X01153Y02603*
X0114Y02602*
X01127Y02596*
X01125Y02594*
X01026*
X01008Y02612*
X01012Y02624*
X0102Y02628*
X01027Y02633*
X01033Y0264*
X01036Y02648*
X01037Y02652*
X01003*
Y02657*
X00998*
Y0269*
X00995Y0269*
X00987Y02686*
X0098Y02681*
X00976Y02676*
X00965Y02679*
X00964Y0268*
Y02759*
X01005*
Y03006*
X01101*
X01156Y02951*
G37*
G36*
X02466Y01289D02*
Y01246D01*
X02473*
Y01143*
X02474Y01135*
X02476Y01133*
Y00913*
X0246Y00897*
X02425Y00893*
X02401Y00917*
Y00983*
X02402Y00986*
X02403Y00996*
Y01031*
Y01066*
Y01086*
X02402Y01096*
X02401Y01098*
Y01236*
X02411Y01246*
X02423*
Y01295*
X0246*
X02466Y01289*
G37*
G36*
X01679D02*
Y01246D01*
X01685*
Y01143*
X01687Y01135*
X01689Y01133*
Y00984*
X01606Y00901*
X01523*
Y0094*
X01574*
X01597Y00963*
X01597Y00963*
X01605Y00969*
X01611Y00977*
X01611Y00977*
X01614Y0098*
Y00983*
X01615Y00986*
X01616Y00996*
Y01031*
Y01066*
Y01086*
X01615Y01096*
X01614Y01098*
Y01236*
X01624Y01246*
X01635*
Y01295*
X01673*
X01679Y01289*
G37*
G36*
X01045Y01246D02*
X01049D01*
Y01149*
X01051Y01141*
X01055Y01136*
Y01051*
X01053Y0105*
X0105Y01041*
X01048Y01031*
X0105Y01021*
X01053Y01012*
X01055Y01011*
Y00995*
X01016Y00957*
X00889*
Y00992*
X00968*
X0098Y01003*
Y01019*
X00981Y01021*
X00982Y01031*
Y01066*
Y01118*
X00982Y0112*
Y01153*
X0098*
Y01185*
X00982*
Y01238*
X0099Y01246*
X01*
Y01255*
Y01295*
X01045*
Y01246*
G37*
G36*
X01881Y02835D02*
X01879Y02832D01*
X01875Y02829*
X0187Y02823*
X01867Y02815*
X01865Y02807*
X01867Y02798*
X0187Y02791*
X01875Y02784*
X01881Y02779*
X01889Y02776*
X01897Y02775*
X01905Y02776*
X01913Y02779*
X0192Y02784*
X01924Y0279*
X01931Y02798*
X01939Y02796*
X0194Y02796*
X01948Y02795*
X01957Y02796*
X01964Y02799*
X01971Y02804*
X01976Y0281*
X01979Y02818*
X0198Y02826*
X0198Y02828*
X0199Y02838*
X0199Y02838*
X01994Y02836*
Y02787*
X01996Y02779*
X02Y02772*
X02011Y02761*
X02011Y0276*
X02009Y02756*
X01999Y02753*
X01996Y02755*
X01988Y02759*
X0198Y0276*
X01972Y02759*
X01964Y02755*
X01957Y0275*
X01952Y02744*
X01949Y02736*
X01948Y02728*
X01949Y0272*
X01952Y02712*
X01957Y02705*
X01964Y027*
X01967Y02699*
X01965Y02693*
X01964Y02685*
X01965Y02676*
X01967Y0267*
X01964Y02669*
X01957Y02664*
X01952Y02657*
X01949Y0265*
X01948Y02641*
X01949Y02633*
X01952Y02625*
X01958Y02616*
X01953Y02609*
X0195Y02602*
X01949Y02593*
X0195Y02585*
X01953Y02578*
X01958Y02571*
X01965Y02566*
X01972Y02563*
X0198Y02562*
X01982Y02562*
X01986Y02551*
X01985Y0255*
X0198Y02543*
X01977Y02535*
X01976Y02527*
X01977Y02519*
X0198Y02511*
X01985Y02505*
X01992Y025*
X01999Y02496*
X02007Y02495*
X02009Y02495*
X0202Y02495*
X02023Y02494*
X02032*
X02063*
X02066Y02495*
X02089*
Y0227*
X02078Y0226*
X0207Y02259*
X02062Y02255*
X02056Y0225*
X02051Y02244*
X02048Y02236*
X02047Y02228*
X02047Y02224*
X02045Y02216*
Y02154*
X02034Y02147*
X02031Y02148*
X02028Y02149*
Y02118*
X02018*
Y02149*
X02015Y02148*
X02007Y02145*
X02005Y02143*
X01993Y02149*
Y02212*
X01994Y02213*
X02Y0222*
X02003Y02228*
X02004Y02236*
X02003Y02244*
X02001Y02248*
X02005Y02257*
X02008Y0226*
X02039*
Y02327*
X02033*
Y02366*
X02035Y02369*
X02038Y02377*
X02039Y02385*
X02038Y02394*
X02035Y02401*
X02033Y02404*
Y02425*
X02031Y02433*
X02026Y02439*
X02021Y02444*
X02015Y02449*
X02007Y02451*
X02006*
Y0248*
X01972*
X01964Y02492*
X01963Y025*
X0196Y02508*
X01955Y02514*
X01949Y02519*
X01941Y02522*
X01933Y02523*
X01924Y02522*
X01917Y02519*
X01911Y02515*
X01905Y02519*
X01898Y02522*
X01889Y02523*
X01881Y02522*
X01873Y02519*
X01867Y02514*
X01862Y02508*
X0186Y02503*
X01849Y02507*
X0185Y02515*
X01849Y02524*
X01846Y02531*
X01841Y02538*
X01834Y02543*
X01827Y02546*
X01818Y02547*
X0181Y02546*
X01803Y02543*
X01796Y02538*
X01791Y02531*
X01788Y02524*
X01787Y02515*
X01788Y02507*
X01791Y02499*
X01796Y02493*
X01797Y02492*
X01793Y0248*
X01668*
Y02467*
X01658Y0246*
X0165Y02462*
X01649Y02464*
X01644Y02471*
X01637Y02476*
X0163Y02479*
X01622Y0248*
X01613Y02479*
X0161Y02478*
X01606Y02483*
X0161Y02494*
X01611Y02495*
X01654*
Y02513*
X01655Y02513*
X01658Y02516*
X01666Y02518*
X01669Y02515*
X01676Y02512*
X01685Y02511*
X01693Y02512*
X017Y02515*
X01707Y0252*
X01712Y02527*
X01715Y02535*
X01716Y02543*
X01715Y02551*
X01712Y02559*
X01708Y02565*
X01712Y0257*
X01715Y02578*
X01716Y02586*
X01715Y02594*
X01712Y02602*
X01707Y02609*
X017Y02614*
X017Y02614*
X01703Y02621*
X01705Y02629*
X01703Y02638*
X017Y02645*
X01695Y02652*
X01689Y02657*
X01681Y0266*
X01673Y02661*
X01666Y0266*
X01664Y02661*
X01654Y02669*
Y02692*
Y02731*
Y0277*
Y02808*
X01664Y02814*
X01666Y02814*
X01672Y02811*
X01681Y0281*
X01689Y02811*
X01697Y02815*
X01703Y0282*
X01708Y02826*
X01711Y02834*
X01712Y02842*
X01716Y02847*
X01734*
X01743Y02835*
X01743Y02834*
X01744Y02826*
X01748Y02818*
X01753Y02812*
X01759Y02807*
X01767Y02804*
X01775Y02802*
X01783Y02804*
X01791Y02807*
X01799Y02811*
X01807Y02807*
X01814Y02804*
X01822Y02802*
X01831Y02804*
X01838Y02807*
X01845Y02812*
X0185Y02818*
X01853Y02826*
X01854Y02834*
X01854Y02835*
X01863Y02847*
X01877*
X01881Y02835*
G37*
G36*
X01362Y01287D02*
Y01246D01*
X01368*
Y01145*
X0137Y01138*
Y00976*
X0135Y00957*
X01307*
X01297Y00955*
X0129Y00952*
X01252*
Y00992*
X01283*
X01286Y00994*
X01289Y00995*
X01298Y00998*
X01306Y01004*
X01312Y01012*
X01316Y01021*
X01317Y01031*
Y01066*
Y0107*
X01316Y0108*
X01313Y01086*
X01312Y01089*
X01306Y01097*
X01297Y01106*
Y01118*
X01297Y0112*
Y01153*
X01295*
Y01185*
X01297*
Y01238*
X01305Y01246*
X01316*
Y01295*
X01354*
X01362Y01287*
G37*
G36*
X02151Y01288D02*
Y01246D01*
X02158*
Y01143*
X02159Y01135*
X02161Y01133*
Y00952*
X02096Y00887*
X02027*
Y00912*
X02086Y00971*
Y00975*
X02087Y00977*
X02091Y00986*
X02092Y00996*
Y01031*
Y01066*
Y01082*
X02091Y01092*
X02087Y01101*
X02086Y01103*
Y01235*
X02097Y01246*
X02106*
Y01294*
X02145*
X02151Y01288*
G37*
G36*
X02939Y01289D02*
Y01246D01*
X02945*
Y01143*
X02947Y01135*
X02948Y01133*
Y00995*
X0296Y00983*
X02963Y00977*
X02969Y00969*
X02977Y00963*
X02983Y0096*
X03074Y0087*
X03078Y00862*
X03048Y00823*
X03043Y00822*
X02964Y00901*
X02901*
X02874Y00929*
Y00975*
X02875Y00977*
X02879Y00986*
X0288Y00996*
Y01031*
Y01082*
X02879Y01092*
X02875Y01101*
X02874Y01103*
Y01236*
X02883Y01246*
X02895*
Y01295*
X02933*
X02939Y01289*
G37*
G36*
X00598Y0308D02*
X00594Y03069D01*
X00476*
X00472Y03073*
X00468Y03081*
Y03081*
X00437*
Y03091*
X00468*
X00467Y03094*
X00464Y03102*
X00459Y03109*
Y03113*
X0047Y03124*
X00554*
X00598Y0308*
G37*
G36*
X01725Y03084D02*
X01719Y03072D01*
X01698*
X01694*
X01687*
X01639*
Y03005*
X01646*
X01647Y02997*
X01652Y02991*
X01668Y02974*
Y02958*
X01664Y02954*
X01656Y0295*
X01654Y0295*
Y02913*
Y02874*
X01658Y02865*
Y02864*
X01653Y02858*
X0165Y0285*
X01649Y02842*
X01638Y02832*
X01567*
Y02832*
X01457*
X0145Y02844*
X0145Y02845*
X01413*
Y02855*
X0145*
X01449Y0286*
X01446Y02869*
X0144Y02877*
X01432Y02882*
X01432Y02883*
X0143Y02896*
X01449Y02916*
X01463Y02914*
X01463Y02913*
X01469Y02906*
X01477Y029*
X01486Y02896*
X01491Y02896*
Y02933*
X01496*
Y02938*
X01533*
X01532Y02942*
X01528Y02951*
X01522Y02959*
X01515Y02965*
X01514Y02965*
X01512Y02979*
X01622Y03089*
X01722*
X01725Y03084*
G37*
G36*
X03106Y01279D02*
Y01119D01*
X03101Y01116*
X03096Y01108*
X03094Y01099*
Y0105*
X03096Y01041*
X03101Y01033*
X03106Y01028*
Y01023*
X03247Y00882*
X03249Y00879*
X03219Y0084*
X03214Y0084*
X03197Y00857*
X03192Y0087*
X03182Y00882*
X0317Y00891*
X03158Y00897*
X03153Y00901*
X03094*
X03031Y00964*
Y00983*
X03032Y00986*
X03033Y00996*
Y01031*
Y01082*
X03032Y01092*
X03031Y01094*
Y01236*
X03041Y01246*
X03053*
Y01295*
X0309*
X03106Y01279*
G37*
G36*
X02309Y01289D02*
Y01246D01*
X02315*
Y01141*
X02317Y01133*
X02318Y01131*
Y00937*
X02259Y00878*
X02224*
Y00952*
X02244Y00972*
Y00975*
X02245Y00977*
X02249Y00986*
X0225Y00996*
Y01031*
Y01066*
X02249Y01076*
X02245Y01085*
X02244Y01087*
Y01236*
X02253Y01246*
X02265*
Y01295*
X02303*
X02309Y01289*
G37*
G36*
X02624D02*
Y01246D01*
X0263*
Y01143*
X02632Y01135*
X02633Y01133*
Y0097*
X02649Y00952*
X02677Y00925*
Y00857*
X02673Y00854*
X02661*
X02559Y00956*
Y00975*
X0256Y00977*
X02564Y00986*
X02565Y00996*
Y01031*
Y01082*
X02564Y01092*
X0256Y01101*
X02559Y01103*
Y01236*
X02568Y01246*
X0258*
Y01295*
X02618*
X02624Y01289*
G37*
G36*
X02781D02*
Y01246D01*
X02788*
Y01143*
X02789Y01135*
X02791Y01133*
Y0097*
X02807Y00952*
X02858Y00901*
Y00852*
X02854Y00849*
X02815Y00857*
X02716Y00956*
Y00975*
X02717Y00977*
X02721Y00986*
X02722Y00996*
Y01031*
Y01082*
X02721Y01092*
X02717Y01101*
X02716Y01103*
Y01236*
X02726Y01246*
X02738*
Y01295*
X02775*
X02781Y01289*
G37*
G36*
X01927Y01799D02*
Y01666D01*
X01855Y01593*
X0185Y01586*
X01849Y01578*
Y01577*
X0184Y01568*
X01836*
X01781*
Y01512*
X01777Y01502*
X01771*
X01755*
Y01468*
X0175*
Y01463*
X01722*
Y01446*
X0171*
Y01418*
X01742*
Y01413*
X01747*
Y01379*
X01773*
Y01414*
X01779Y01418*
X01785Y01414*
Y01379*
X01788Y01368*
X01748*
Y01331*
X01746Y01328*
X01744Y0132*
Y01316*
X01734Y01313*
X0171*
X01707Y01317*
X01701Y01323*
X01693Y01329*
X01683Y01333*
X01673Y01335*
X01653*
Y01368*
X0159*
Y01331*
X01588Y01328*
X01587Y0132*
Y01316*
X01576Y01313*
X01553*
X01549Y01317*
X01543Y01323*
X01535Y01329*
X01526Y01333*
X01515Y01335*
X01496*
Y01368*
X01433*
Y01332*
X01429Y01327*
X01427Y01318*
Y01316*
X01417Y01313*
X01392*
X0139Y01315*
X01382Y01323*
X01374Y01329*
X01364Y01333*
X01354Y01335*
X01334*
Y01368*
X01271*
Y01317*
X01261Y01313*
X01257*
X01234*
X0123Y01317*
X01224Y01323*
X01216Y01329*
X01207Y01333*
X01196Y01335*
X01173*
Y01368*
X0111*
Y01317*
X011Y01313*
X0108*
X01079Y01315*
X01073Y01323*
X01065Y01329*
X01055Y01333*
X01045Y01335*
X01011*
Y01368*
X00981*
X00979Y0137*
X00988Y01379*
X01049*
Y01393*
X01051Y01393*
X01058Y01398*
X01061Y01401*
X01072Y01396*
Y01379*
X01099*
Y01413*
X01109*
Y01379*
X01135*
Y01414*
X01141Y01418*
X01147Y01414*
Y01379*
X0121*
Y01446*
X01198*
Y01491*
X01202Y01502*
X0121*
X01234*
X01246*
Y0149*
Y01473*
X01273*
Y01463*
X01246*
Y01446*
X01234*
Y01418*
X01265*
Y01413*
X0127*
Y01379*
X01297*
Y01414*
X01303Y01418*
X01309Y01414*
Y01379*
X01372*
Y01446*
X0136*
Y01491*
X01364Y01502*
X01372*
X01395*
X01407*
Y0149*
Y01473*
X01435*
Y01463*
X01407*
Y01446*
X01395*
Y01418*
X01427*
Y01413*
X01432*
Y01379*
X01458*
Y01414*
X01464Y01418*
X0147Y01414*
Y01379*
X01533*
Y01446*
X01521*
Y01491*
X01525Y01502*
X01533*
X01553*
X01565*
Y0149*
Y01473*
X01592*
Y01463*
X01565*
Y01446*
X01553*
Y01418*
X01584*
Y01413*
X01589*
Y01379*
X01616*
Y01414*
X01622Y01418*
X01628Y01414*
Y01379*
X0169*
Y01446*
X01679*
Y01491*
X01683Y01502*
X0169*
X0171*
X01722*
Y0149*
Y01473*
X01745*
Y01502*
X01738*
Y01513*
Y01568*
X01731*
Y01619*
X01759Y01647*
X01773Y01644*
X01774Y01642*
X0178Y01634*
X01788Y01628*
X01797Y01625*
X01802Y01624*
Y01661*
X01807*
Y01666*
X01844*
X01843Y01671*
X01839Y0168*
X01833Y01688*
X01825Y01694*
X01824Y01694*
X01821Y01708*
X01916Y01804*
X01927Y01799*
G37*
G36*
X02698Y02544D02*
Y02531D01*
X0279*
X02797Y02519*
X02795Y02515*
X02771*
Y02437*
X02771Y02435*
X0277Y02433*
X02756*
X02756Y02435*
X02755Y02437*
Y02437*
Y02471*
X02696*
Y02437*
Y02437*
X02695Y02425*
X02694*
Y02395*
X02638*
X02613Y02419*
X02616Y02433*
X02616Y02433*
X02623Y02439*
X02629Y02446*
X02632Y02455*
X02633Y02459*
X02598*
Y02469*
X02633*
X02632Y02473*
X02632Y02474*
X0264Y02486*
X02683*
Y02537*
X02692Y02546*
X02698Y02544*
G37*
G36*
X01163Y01618D02*
X01113Y01568D01*
X0108*
X01076*
X01021*
Y01513*
X01019Y01502*
X01009*
X00997*
Y01468*
X00987*
Y01502*
X00984*
X00976Y0151*
X00976Y01515*
X00975Y0153*
X00969Y01543*
X0096Y01555*
X00949Y01563*
X00935Y01569*
X00934Y01569*
X0093Y01582*
X00977Y01628*
X01158*
X01163Y01618*
G37*
G36*
X01937Y0226D02*
X01939Y02257D01*
X01943Y02248*
X01941Y02244*
X0194Y02236*
X01941Y02228*
X01944Y0222*
X0195Y02213*
X01951Y02212*
Y02156*
X0194Y02152*
X01896Y02196*
X01899Y02209*
X01904Y02213*
X0191Y02221*
X01914Y0223*
X01915Y02235*
X01878*
Y02245*
X01915*
X01914Y02249*
Y0225*
X01914Y02253*
X01916Y02254*
X01925Y0226*
X01937Y0226*
G37*
G36*
X02985Y02578D02*
X02985Y02574D01*
X02984Y02562*
Y0255*
X02985Y02537*
X02989Y02525*
X02995Y02513*
X03004Y02503*
X03014Y02494*
X03025Y02488*
X03038Y02484*
X03051Y02483*
X03059Y02476*
Y02047*
X02846*
Y02515*
X02917Y02586*
X02979*
X02985Y02578*
G37*
G36*
X02515Y02425D02*
X02617Y02323D01*
X02625Y02318*
X02633Y02316*
X02694*
Y02311*
X02761*
X02765*
X02806*
Y02062*
X02794Y02059*
X0279Y02067*
X02782Y02077*
X02772Y02085*
X02761Y02091*
X02749Y02095*
X02736Y02096*
X02723Y02095*
X02711Y02091*
X027Y02085*
X0269Y02077*
X02681Y02067*
X02675Y02056*
X02672Y02044*
X0267Y02031*
X02672Y02018*
X02675Y02006*
X02681Y01995*
X0269Y01985*
X027Y01977*
X02711Y01971*
X02723Y01967*
X02736Y01966*
X02736Y01966*
X02814Y01889*
X02823Y01881*
X02834Y01877*
X02846Y01875*
X03126*
X03285Y01717*
Y01505*
X03273Y01498*
X03267Y015*
X03255Y01502*
X03254*
Y01622*
X03252Y01633*
X03248Y01644*
X03241Y01654*
X03181Y01714*
Y01773*
X02929*
Y01738*
X02865*
X028Y01803*
X028Y01808*
X02796Y0182*
X0279Y01831*
X02782Y01841*
X02772Y01849*
X02761Y01855*
X02749Y01859*
X02736Y0186*
X02723Y01859*
X02711Y01855*
X027Y01849*
X0269Y01841*
X02681Y01831*
X02675Y0182*
X02672Y01808*
X0267Y01795*
X02672Y01782*
X02675Y0177*
X02681Y01759*
X0269Y01749*
X02698Y01742*
X02697Y01735*
X02694Y0173*
X02552*
X02459Y01824*
Y02372*
X02512Y02425*
X02515Y02425*
G37*
G36*
X01814Y02049D02*
Y02035D01*
X0181Y02032*
X01804Y02023*
X018Y02014*
X01798Y02003*
X018Y01993*
X01804Y01984*
X0181Y01975*
X01818Y01969*
X01828Y01965*
X01838Y01964*
X01848Y01965*
X01851Y01966*
X01862Y01958*
Y01872*
X01725Y01735*
X01714Y0174*
Y02129*
X01713Y02133*
X01724Y02139*
X01814Y02049*
G37*
G36*
X02007Y0209D02*
X02015Y02087D01*
X02015Y02087*
X02017Y02084*
X02021Y02074*
X02018Y02068*
X02017Y02059*
X02018Y02049*
X02022Y0204*
X02028Y02032*
X02036Y02026*
X02045Y02022*
X02055Y02021*
X02064Y02022*
X02074Y02026*
X02077Y02029*
X02089Y02024*
Y01708*
X02091Y017*
X02095Y01694*
X0216Y01629*
Y01577*
X02152Y01568*
X02139*
X02092*
Y01512*
X02088Y01502*
X02082*
X02066*
Y01468*
X02061*
Y01463*
X02033*
Y01446*
X02023*
Y01418*
X02055*
Y01413*
X0206*
Y01379*
X02086*
Y01404*
X02098Y01409*
Y01379*
X02161*
Y01446*
X02147*
Y01491*
X02151Y01502*
X02157*
X02183*
X02194*
Y01473*
X02222*
Y01463*
X02194*
Y01446*
X02183*
Y01418*
X02214*
Y01413*
X02219*
Y01379*
X02246*
Y01414*
X02252Y01418*
X02257Y01414*
Y01379*
X0232*
Y01446*
X02309*
Y01502*
X0232*
X02332*
Y01551*
X02344Y01555*
X02347Y01552*
X02355Y01546*
X02364Y01542*
X02374Y01541*
X02383Y01542*
X02392Y01546*
X02399Y01551*
X02404Y0155*
X02411Y01546*
Y01512*
X02407Y01502*
X02399*
X02384*
Y01468*
X02379*
Y01463*
X02352*
Y01446*
X0234*
Y01418*
X02372*
Y01413*
X02377*
Y01379*
X02403*
Y01414*
X02409Y01418*
X02415Y01414*
Y01379*
X02478*
Y01446*
X02466*
Y01491*
X0247Y01502*
X02478*
X02498*
X02509*
Y0149*
Y01473*
X02532*
Y01502*
X02525*
Y01513*
Y01568*
X02525*
X02521Y01573*
X02523Y0158*
X02527Y01585*
X02603*
X02606Y0158*
X026Y01568*
X02568*
Y01512*
X02565Y01502*
X02559*
X02542*
Y01468*
X02537*
Y01463*
X02509*
Y01446*
X02498*
Y01418*
X02529*
Y01413*
X02534*
Y01379*
X02561*
Y01414*
X02566Y01418*
X02572Y01414*
Y01379*
X02635*
Y01414*
X02645Y01424*
X02651*
X02655Y0142*
Y01418*
X02687*
Y01413*
X02692*
Y01379*
X02718*
Y01404*
X0273Y01409*
Y01379*
X02778*
X02786Y01368*
Y01368*
X02785Y01363*
X02822*
Y01353*
X02785*
X02786Y01348*
X02787Y01345*
X02779Y01334*
X02775Y01335*
X02755*
Y01368*
X02692*
Y01331*
X02691Y01328*
X02689Y0132*
Y01316*
X02679Y01313*
X02655*
X02652Y01317*
X02646Y01323*
X02638Y01329*
X02628Y01333*
X02618Y01335*
X02598*
Y01368*
X02535*
Y01331*
X02533Y01328*
X02532Y0132*
Y01316*
X02521Y01313*
X02498*
X02494Y01317*
X02488Y01323*
X0248Y01329*
X0247Y01333*
X0246Y01335*
X0244*
Y01368*
X02378*
Y01331*
X02376Y01328*
X02374Y0132*
Y01316*
X02364Y01313*
X0234*
X02337Y01317*
X02331Y01323*
X02323Y01329*
X02313Y01333*
X02303Y01335*
X02283*
Y01368*
X0222*
Y01331*
X02218Y01328*
X02217Y0132*
Y01316*
X02206Y01313*
X02182*
X02179Y01316*
X02173Y01322*
X02165Y01328*
X02155Y01332*
X02145Y01334*
X02124*
Y01368*
X02061*
Y01331*
X02059Y01328*
X02057Y0132*
Y01316*
X02047Y01313*
X02025*
X0202Y01319*
X02016Y01323*
X02008Y01329*
X01998Y01333*
X01988Y01335*
X01968*
Y01368*
X01905*
Y01331*
X01903Y01328*
X01902Y0132*
Y01316*
X01891Y01313*
X01874*
X01864Y01323*
X01865Y01331*
X01871Y01339*
X01875Y01348*
X01875Y01353*
X01838*
Y01363*
X01875*
X01875Y01368*
Y01368*
X01882Y01379*
X01894*
Y01408*
X01868*
Y01399*
X01858Y01393*
X01848Y01399*
Y01446*
X01836*
Y01491*
X0184Y01502*
X01848*
X01868*
X01879*
Y01473*
X01902*
Y01502*
X01895*
Y01568*
X019Y01578*
X01941Y0162*
X01943Y0162*
X01955Y01617*
X01957Y01615*
X01991Y0158*
X01987Y01568*
X01939*
Y01512*
X01935Y01502*
X01929*
X01912*
Y01468*
X01907*
Y01463*
X01879*
Y01446*
X01868*
Y01418*
X01899*
Y01413*
X01904*
Y01379*
X01931*
Y01414*
X01937Y01418*
X01942Y01414*
Y01379*
X02005*
Y01446*
X01994*
Y01491*
X01998Y01502*
X02003*
X02021*
X02033*
Y0149*
Y01473*
X02056*
Y01502*
X02053*
Y01513*
Y01568*
X02046*
Y01576*
X02045Y01584*
X0204Y01591*
X01993Y01638*
Y02087*
X02005Y02092*
X02007Y0209*
G37*
G36*
X01992Y01291D02*
Y01246D01*
X01998*
Y01145*
X02Y01137*
X02003Y01132*
Y00992*
X0187Y00858*
X01838*
Y00913*
X01885Y0096*
X01887Y00959*
X01897Y00958*
X01907Y00959*
X01916Y00963*
X01924Y00969*
X0193Y00977*
X01934Y00986*
X01935Y00996*
Y01031*
Y01066*
Y01082*
X01934Y01092*
X0193Y01101*
X01929Y01103*
Y01236*
X01939Y01246*
X0195*
Y01295*
X01988*
X01992Y01291*
G37*
G36*
X01836Y01289D02*
Y01246D01*
X01843*
Y01143*
X01844Y01135*
X01846Y01133*
Y00944*
X01799Y00897*
X01755*
X01742Y00899*
X01728Y00897*
X01681*
Y00937*
X01704*
X01727Y00959*
X01736Y00958*
X01746Y00959*
X01755Y00963*
X01762Y00969*
X01768Y00977*
X01772Y00986*
X01773Y00996*
Y01031*
Y01066*
Y01082*
X01772Y01092*
X01771Y01094*
Y01236*
X01781Y01246*
X01793*
Y01295*
X0183*
X01836Y01289*
G37*
G36*
X01202D02*
Y01246D01*
X01205*
Y01151*
X01206Y01143*
X01211Y01136*
X01212Y01135*
Y01051*
X01211Y0105*
X01207Y01041*
X01206Y01031*
X01207Y01021*
X01211Y01012*
X01212Y01011*
Y00992*
X01177Y00957*
X0111*
Y00992*
X01126*
X01128Y00994*
X01131Y00995*
X0114Y00998*
X01148Y01004*
X01154Y01012*
X01158Y01021*
X01159Y01031*
Y01066*
X01158Y01076*
X01154Y01085*
X01148Y01093*
X0114Y01102*
Y01118*
X01139Y0112*
Y01153*
X01137*
Y01185*
X01139*
Y01238*
X01147Y01246*
X01159*
Y01295*
X01196*
X01202Y01289*
G37*
G36*
X0324Y00984D02*
X03184D01*
X03118Y0105*
Y01099*
X0324*
Y00984*
G37*
G36*
X02824Y01502D02*
Y01473D01*
X02852*
Y01463*
X02824*
Y01446*
X02813*
Y01418*
X02844*
Y01408*
X02813*
Y01399*
X02803Y01393*
X02793Y01399*
Y01446*
X02779*
Y01491*
X02783Y01502*
X02791*
X02813*
X02824*
G37*
G36*
X02978D02*
X02982Y01491D01*
Y01473*
X03009*
Y01463*
X02982*
Y01446*
X0297*
Y01418*
X03002*
Y01413*
X03007*
Y01379*
X03033*
Y01414*
X03039Y01418*
X03045Y01414*
Y01379*
X03108*
X03117Y01373*
X03118Y01372*
X03128Y01369*
X03137Y01367*
X03147Y01369*
X03156Y01372*
X03161Y01376*
X03176Y01377*
X03176Y01377*
X03185Y01369*
X03196Y01365*
X03208Y01363*
X03255*
X03267Y01365*
X03273Y01367*
X03285Y0136*
Y0118*
X03243Y01138*
X0324Y01138*
X03146*
Y01279*
X03144Y01289*
X0314Y01299*
X03134Y01307*
X03118Y01323*
X0311Y01329*
X031Y01333*
X0309Y01335*
X0307*
Y01368*
X03007*
Y01331*
X03006Y01328*
X03004Y0132*
Y01316*
X02994Y01313*
X0297*
X02967Y01317*
X02961Y01323*
X02952Y01329*
X02943Y01333*
X02933Y01335*
X02913*
Y01368*
X02873*
X02876Y01379*
Y01414*
X02881Y01418*
X02887Y01414*
Y01379*
X0295*
Y01446*
X02939*
Y01502*
X0295*
X0297*
X02978*
G37*
G36*
X02408Y02829D02*
Y0265D01*
X02398Y02643*
Y0261*
Y02577*
X02408Y0257*
Y02493*
X02182Y02267*
X0217Y02272*
Y02539*
X02172Y02541*
X02209*
X02213*
X02265*
X02267Y02539*
X02271Y02538*
Y02535*
X02381*
Y02569*
X02388Y02574*
Y0261*
Y02646*
X02381Y02651*
Y02677*
X02271*
X02268Y02673*
X02236*
X02232Y02683*
Y02718*
X02258*
Y02746*
X02268*
Y02718*
X02297*
X02301*
X02309*
X02368*
Y02773*
Y02777*
Y02832*
X02365*
X02361Y02837*
X02357Y02844*
X02358Y0285*
X02357Y02858*
X02354Y02866*
X02352Y02869*
X02361Y02876*
X02408Y02829*
G37*
G36*
X03374Y01773D02*
X03365Y01769D01*
X03362Y01769*
X03178Y01953*
X03168Y0196*
X03157Y01965*
X03145Y01966*
X02865*
X02835Y01997*
X0284Y02008*
X02846Y02007*
X03059*
X03069Y02008*
X03078Y02012*
X03087Y02019*
X03093Y02027*
X03094Y02029*
X03181*
Y02183*
X03098*
Y02219*
X0311Y02223*
X03124Y02215*
X03141Y02208*
X03158Y02203*
X03177Y02202*
X03195Y02203*
X03213Y02208*
X0323Y02215*
X03245Y02224*
X03259Y02236*
X03271Y0225*
X03281Y02266*
X03288Y02282*
X03292Y023*
X03293Y02318*
X03292Y02337*
X03288Y02354*
X03281Y02371*
X03271Y02387*
X03259Y02401*
X03245Y02413*
X0323Y02422*
X03213Y02429*
X03195Y02434*
X03177Y02435*
X03158Y02434*
X03141Y02429*
X03124Y02422*
X0311Y02414*
X03098Y02418*
Y02476*
X03098Y02477*
X03098Y02478*
X03098Y02482*
X03097Y02487*
X03097Y02487*
X03096Y02488*
X03095Y02492*
X03093Y02496*
X03092Y02497*
X03092Y02498*
X03093Y02508*
X031Y02517*
X03106Y02528*
X03109Y02539*
X0311Y0255*
Y02551*
X03122Y02557*
X03135Y02552*
X0315Y0255*
X03164Y02552*
X03177Y02557*
X03189Y02566*
X03198Y02578*
X03203Y02591*
X03205Y02605*
X03203Y0262*
X03198Y02633*
X03189Y02645*
X03177Y02654*
X03164Y02659*
X0315Y02661*
X03135Y02659*
X03122Y02654*
X0311Y02645*
X03101Y02633*
X03096Y0262*
X03096Y02617*
X03087Y02613*
X03083Y02612*
X03074Y02617*
X03063Y0262*
X03056Y02621*
Y02556*
X03046*
Y02621*
X0304Y0262*
X03028Y02617*
X03018Y02611*
X03007Y02614*
X03005Y02616*
X03003Y02617*
X03001Y02619*
X02998Y02621*
X02996Y02621*
X02994Y02623*
X02992Y02623*
X02989Y02625*
X02987Y02625*
X02984Y02625*
X02981*
X02979Y02626*
X02917*
X02907Y02625*
X02897Y02621*
X02889Y02614*
X02839Y02565*
X02828Y02569*
Y026*
Y0261*
Y02612*
Y0264*
X02801*
Y02645*
X02796*
Y02679*
X02786*
X02785Y0268*
X02778Y0269*
X0278Y02695*
X02781Y02704*
X0278Y02714*
X02776Y02723*
X0277Y02731*
X02763Y02737*
X02753Y02741*
X02744Y02742*
X02734Y02741*
X02725Y02737*
X02717Y02731*
X02711Y02723*
X02707Y02714*
X02706Y02704*
X02707Y02695*
X02711Y02685*
X02711Y02685*
X02714Y02679*
Y02626*
X02707Y02623*
X02702Y02622*
X02683Y02641*
X02682Y02651*
X02678Y0266*
X02672Y02668*
X02664Y02674*
X02655Y02678*
X02645Y02679*
X02635Y02678*
X02626Y02674*
X02619Y02668*
X02614Y02662*
X02599*
X02584Y02678*
Y02773*
X02595Y02777*
X02599Y02772*
X02607Y02766*
X02616Y02762*
X02626Y02761*
X02635Y02762*
X02644Y02766*
X02652Y02772*
X02658Y0278*
X02662Y02789*
X02663Y02799*
X02662Y02809*
X02658Y02818*
X02652Y02825*
X02644Y02831*
X02635Y02835*
X02626Y02836*
X0262Y02836*
X02608Y02847*
Y0294*
X02607Y02949*
X02602Y02956*
X02498Y0306*
Y03099*
X02503Y03103*
X02509Y03111*
X02512Y0312*
X02514Y03129*
X02512Y03139*
X02509Y03148*
X02503Y03156*
X02495Y03162*
X02486Y03166*
X02476Y03167*
X02466Y03166*
X02457Y03162*
X02449Y03156*
X02443Y03148*
X02442Y03145*
X0243Y03147*
Y03166*
Y03177*
Y03219*
X02566*
X02575Y0322*
X02581Y03225*
X0266Y03303*
X02664Y0331*
X02666Y03318*
Y03437*
X02677Y0344*
X02684*
X02732*
Y03505*
X02736Y03511*
X02737Y03519*
Y03525*
X02765*
Y03603*
X02694*
X02687*
X02675*
X02648*
Y03564*
Y03525*
X02669*
X02676Y03513*
X02674Y03508*
X02673Y03507*
X02665*
X02617*
Y0344*
X02624*
Y03362*
X02612Y03357*
X02609Y03359*
X026Y03363*
X02595Y03363*
Y03326*
X02585*
Y03363*
X0258Y03363*
X02577Y03361*
X02565Y03368*
Y0338*
X02505*
Y03321*
X02495*
Y0338*
X02444*
X02436Y03391*
X02436Y03392*
X02437Y034*
X02436Y03409*
X02433Y03417*
X02427Y03424*
X0242Y03429*
X02412Y03433*
X02403Y03434*
X02395Y03433*
X02387Y03429*
X0238Y03424*
X02374Y03417*
X02371Y03409*
X0237Y034*
X02371Y03391*
X02374Y03383*
X02379Y03376*
X02379Y03375*
X02375Y03364*
X02294*
X0229Y03375*
X0229Y03376*
X02295Y03383*
X02298Y03391*
X02299Y034*
X02298Y03409*
X02295Y03417*
X0229Y03424*
X02283Y03429*
X02274Y03433*
X02266Y03434*
X02257Y03433*
X02249Y03429*
X02242Y03424*
X02236Y03417*
X02233Y03409*
X02232Y034*
X02233Y03392*
X02233Y03391*
X02225Y0338*
X02174*
Y03326*
X02234*
Y03354*
X02242Y03358*
X02246Y03354*
Y03314*
X02272*
Y03304*
X02246*
Y03254*
X02248*
X02253Y03243*
X02242Y03232*
X02237Y03225*
X02237Y03225*
X02223*
Y03177*
Y0317*
Y03158*
Y03147*
X02211Y03141*
X02206Y03145*
Y03159*
Y03167*
Y03171*
Y03226*
X02145*
X0212Y03251*
X02125Y03262*
X02164*
Y03316*
X02104*
Y03283*
X02093Y03278*
X01936Y03436*
X01929Y0344*
X01921Y03442*
X01468*
X0146Y0344*
X01453Y03436*
X01424Y03407*
X01416Y03406*
X01402Y034*
X0139Y03391*
X01388Y03388*
X01374*
X01372Y03391*
X0136Y034*
X01346Y03406*
X01336Y03407*
Y0335*
Y03293*
X01346Y03294*
X0136Y033*
X01372Y03309*
X01374Y03312*
X01388*
X0139Y03309*
X01402Y033*
X01416Y03294*
X01431Y03292*
X01446Y03294*
X0146Y033*
X01472Y03309*
X01474Y03312*
X01488*
X0149Y03309*
X01502Y033*
X01516Y03294*
X01531Y03292*
X01546Y03294*
X0156Y033*
X01572Y03309*
X01574Y03312*
X01588*
X0159Y03309*
X01602Y033*
X01616Y03294*
X01631Y03292*
X01646Y03294*
X0166Y033*
X01672Y03309*
X01674Y03312*
X01688*
X0169Y03309*
X01702Y033*
X01716Y03294*
X01731Y03292*
X01746Y03294*
X0176Y033*
X01772Y03309*
X01774Y03312*
X01788*
X0179Y03309*
X01802Y033*
X01816Y03294*
X01831Y03292*
X01846Y03294*
X0186Y033*
X01872Y03309*
X01881Y03321*
X01882Y03323*
X01893Y0332*
X01893Y03318*
X01894Y0331*
X01897Y03303*
X01902Y03296*
X01909Y03291*
X01917Y03288*
X01923Y03287*
X0193Y03277*
X01922Y03269*
X01531*
X01523Y03267*
X01516Y03262*
X01361Y03107*
X00963*
X00959Y03118*
X01014Y03174*
X01019Y0318*
X01021Y03189*
Y03199*
X01032Y03205*
X01034Y03204*
X01039Y03203*
X0104Y03201*
X01047Y03196*
X01054Y03193*
X01063Y03192*
X01071Y03193*
X01078Y03196*
X01085Y03201*
X0109Y03208*
X01093Y03216*
X01094Y03224*
X01093Y03232*
X0109Y0324*
X01085Y03246*
Y03253*
X0109Y03259*
X01093Y03267*
X01094Y03275*
X01093Y03283*
X0109Y03291*
X01085Y03298*
X01085Y03298*
Y03417*
X01083Y03425*
X01078Y03432*
X01031Y0348*
X01032Y03484*
X01036Y03492*
X01047Y03493*
X0106Y03499*
X01072Y03507*
X01075Y03512*
X0109*
X01093Y03507*
X01105Y03499*
X01118Y03493*
X01133Y03491*
X01147Y03493*
X0116Y03499*
X01172Y03507*
X01175Y03512*
X0119*
X01193Y03507*
X01205Y03499*
X01218Y03493*
X01233Y03491*
X01247Y03493*
X0126Y03499*
X01272Y03507*
X01275Y03512*
X0129*
X01293Y03507*
X01305Y03499*
X01318Y03493*
X01333Y03491*
X01347Y03493*
X0136Y03499*
X01372Y03507*
X01375Y03512*
X0139*
X01393Y03507*
X01405Y03499*
X01418Y03493*
X01433Y03491*
X01447Y03493*
X0146Y03499*
X01472Y03507*
X01475Y03512*
X0149*
X01493Y03507*
X01505Y03499*
X01518Y03493*
X01533Y03491*
X01547Y03493*
X0156Y03499*
X01572Y03507*
X01575Y03512*
X0159*
X01593Y03507*
X01605Y03499*
X01618Y03493*
X01633Y03491*
X01647Y03493*
X0166Y03499*
X01672Y03507*
X01675Y03512*
X0169*
X01693Y03507*
X01705Y03499*
X01718Y03493*
X01733Y03491*
X01747Y03493*
X0176Y03499*
X01772Y03507*
X01775Y03512*
X0179*
X01793Y03507*
X01805Y03499*
X01818Y03493*
X01833Y03491*
X01847Y03493*
X0186Y03499*
X01872Y03507*
X01875Y03512*
X0189*
X01893Y03507*
X01905Y03499*
X01918Y03493*
X01933Y03491*
X01947Y03493*
X0196Y03499*
X01972Y03507*
X01981Y03519*
X01986Y03532*
X01988Y03547*
X01986Y03561*
X01981Y03575*
X01972Y03586*
X0196Y03595*
X01947Y036*
X01933Y03602*
X01918Y036*
X01905Y03595*
X01893Y03586*
X0189Y03582*
X01875*
X01872Y03586*
X0186Y03595*
X01847Y036*
X01843Y03601*
X01814Y03629*
X01807Y03634*
X01799Y03636*
X00586*
X00578Y03634*
X00571Y03629*
X00542Y03601*
X00533Y03602*
X00518Y036*
X00505Y03595*
X00493Y03586*
X0049Y03582*
X00475*
X00472Y03586*
X0046Y03595*
X00447Y036*
X00438Y03602*
Y03547*
Y03492*
X00447Y03493*
X0046Y03499*
X00472Y03507*
X00475Y03512*
X0049*
X00493Y03507*
X00505Y03499*
X00518Y03493*
X00533Y03491*
X00547Y03493*
X0056Y03499*
X00572Y03507*
X00575Y03512*
X0059*
X00593Y03507*
X00605Y03499*
X00618Y03493*
X00633Y03491*
X00647Y03493*
X0066Y03499*
X00672Y03507*
X00675Y03512*
X0069*
X00693Y03507*
X00705Y03499*
X00718Y03493*
X00733Y03491*
X00736Y03492*
X0076Y03468*
X00767Y03463*
X00775Y03462*
X00939*
X00975Y03426*
X00971Y03415*
X00923*
Y03403*
X00907*
Y03409*
X00793*
Y03389*
X00786Y03385*
X00781Y03383*
X00773Y03386*
X00768Y03387*
Y0335*
X00758*
Y03387*
X00754Y03386*
X00744Y03383*
X00737Y03377*
X00731Y03369*
X0073Y03367*
X00718Y03369*
Y03377*
X00661*
X00604*
Y03354*
Y03337*
X00661*
Y03327*
X00604*
Y03304*
Y03287*
X00661*
Y03277*
X00604*
Y03254*
Y03237*
X00661*
Y03232*
X00666*
Y03204*
X0071*
Y03171*
X00705Y03168*
X007Y03161*
X00697Y03153*
X00696Y03145*
X00697Y03137*
X007Y03129*
X00705Y03123*
X0071Y03119*
X0071Y03112*
X00707Y03107*
X00682*
X00669Y0312*
X00669Y03122*
X00668Y0313*
X00665Y03137*
X0066Y03144*
X00653Y03149*
X00653*
X00656Y03157*
X00657Y0316*
X00594*
Y0316*
X00585Y03154*
X00584Y03154*
X00577Y0316*
X00571Y03165*
X00563Y03166*
X0046*
X00459Y03168*
X00452Y03173*
X00445Y03176*
X00437Y03177*
X00428Y03176*
X00421Y03173*
X00414Y03168*
X00409Y03161*
X00406Y03153*
X00405Y03145*
X00406Y03137*
X00409Y03129*
X00414Y03123*
Y03109*
X00409Y03102*
X00406Y03094*
X00405Y03089*
X00393Y03089*
X00393Y0309*
X00387Y031*
X0038Y03109*
X00371Y03116*
X00361Y03122*
X0035Y03125*
X00343Y03126*
Y03061*
X00333*
Y03126*
X00326Y03125*
X00315Y03122*
X00306Y03117*
X00302Y03118*
X00294Y03122*
X00293Y03125*
X00288Y03138*
X00279Y0315*
X00267Y03159*
X00254Y03164*
X00245Y03165*
Y0311*
Y03055*
X00254Y03057*
X00267Y03062*
X00279Y03056*
Y03055*
X0028Y03044*
X00283Y03033*
X00289Y03022*
X00296Y03014*
X00295Y03012*
X00291Y03002*
X00252*
X00243Y03*
X00236Y02995*
X00031Y02791*
X00026Y02784*
X00025Y02775*
Y0059*
X00026Y00582*
X00031Y00574*
X00077Y00529*
X00076Y00523*
X00077Y00513*
X00081Y00504*
X00087Y00496*
X00095Y00491*
X00104Y00487*
X00114Y00485*
X00123Y00487*
X00133Y00491*
X0014Y00496*
X00146Y00504*
X0015Y00513*
X00151Y00523*
X0015Y00533*
X00146Y00542*
X0014Y0055*
X00133Y00556*
X00123Y0056*
X00114Y00561*
X00108Y0056*
X00069Y00599*
Y01013*
X00081Y0102*
X00084Y01018*
X00094Y01017*
X00104Y01018*
X00113Y01022*
X00121Y01028*
X00127Y01036*
X0013Y01045*
X00132Y01055*
X0013Y01064*
X00127Y01074*
X00121Y01081*
X00113Y01087*
X00104Y01091*
X00094Y01092*
X00091Y01095*
Y02266*
X00103Y02268*
X00104Y02266*
X00114Y0225*
X00126Y02236*
X0014Y02224*
X00155Y02215*
X00172Y02208*
X0019Y02203*
X00208Y02202*
X00226Y02203*
X00244Y02208*
X00261Y02215*
X00277Y02224*
X00291Y02236*
X00302Y0225*
X00312Y02266*
X00319Y02282*
X00323Y023*
X00325Y02318*
X00323Y02337*
X00319Y02354*
X00312Y02371*
X00302Y02387*
X00291Y02401*
X00277Y02413*
X00261Y02422*
X00244Y02429*
X00226Y02434*
X00208Y02435*
X0019Y02434*
X00172Y02429*
X00155Y02422*
X0014Y02413*
X00126Y02401*
X00114Y02387*
X00104Y02371*
X00103Y02369*
X00091Y02371*
Y02751*
X00281Y0294*
X00386*
X00394Y02942*
X00401Y02946*
X00432Y02977*
X00442Y02972*
Y02759*
X00483*
Y02632*
X00481Y02628*
X0048Y02622*
Y02515*
X0048Y02511*
X00476Y02503*
X00473Y025*
X00442*
Y02409*
X00413*
Y02444*
X00412Y02454*
X00408Y02462*
X00403Y0247*
X00395Y02475*
X00387Y02479*
X00378Y0248*
X00368Y02479*
X0036Y02475*
X00352Y0247*
X00347Y02462*
X00343Y02454*
X00342Y02444*
Y02393*
Y02342*
X00343Y02333*
X00347Y02324*
X00352Y02317*
X0036Y02311*
X00368Y02308*
X00378Y02306*
X00387Y02308*
X00395Y02311*
X00403Y02317*
X00408Y02324*
X00412Y02333*
X00413Y02338*
X00442*
Y02248*
X00596*
Y02499*
X00598*
X00604Y025*
X00609Y02504*
X00613Y02509*
X00614Y02515*
Y02622*
X00613Y02628*
X00609Y02633*
X00604Y02636*
X00598Y02638*
X00555*
Y02759*
X00596*
Y02924*
X00608Y0293*
X0061Y02929*
X00617Y02926*
X00626Y02924*
X00634Y02926*
X00641Y02929*
X00648Y02934*
X00653Y0294*
X00656Y02948*
X00657Y02956*
X00657Y02958*
X00666Y02967*
X00852*
Y02759*
X00893*
Y02641*
X00894Y02632*
X00898Y02623*
X00903Y02616*
X00986Y02533*
X00993Y02528*
X01002Y02524*
X01011Y02523*
X01111*
X01117Y02515*
X01127Y02507*
X0114Y02502*
X01153Y025*
X01166Y02502*
X01179Y02507*
X0119Y02515*
X01191Y02517*
X01203Y02513*
Y0247*
X01191Y02466*
X0119Y02468*
X01179Y02476*
X01166Y02482*
X01158Y02483*
Y02432*
Y02381*
X01166Y02382*
X01179Y02387*
X0119Y02395*
X01191Y02397*
X01203Y02393*
Y02208*
X01204Y022*
X01209Y02193*
X014Y02003*
Y01936*
X01388Y0193*
X01388Y0193*
X01375Y01935*
X01367Y01936*
Y01885*
X01362*
Y0188*
X01311*
X01312Y01872*
X01317Y0186*
X01317Y01859*
X01311Y01847*
X01215*
X01209Y01859*
X0121Y0186*
X01215Y01872*
X01217Y01885*
X01215Y01899*
X0121Y01911*
X01201Y01922*
X01191Y0193*
X01178Y01935*
X01165Y01937*
X01152Y01935*
X01139Y0193*
X01128Y01922*
X0112Y01911*
X01115Y01899*
X01113Y01885*
X01115Y01872*
X0112Y0186*
X0112Y01859*
X01115Y01847*
X0098*
X00974Y01859*
X00977Y01864*
X00982Y01876*
X00984Y01884*
X00933*
X00882*
X00883Y01876*
X00888Y01864*
X00891Y01859*
X00885Y01847*
X00874*
X00866Y01846*
X00859Y01841*
X007Y01682*
X00688Y01683*
X00688Y01684*
X0068Y0169*
X00671Y01693*
X00661Y01695*
X00651Y01693*
X00642Y0169*
X00634Y01684*
X00628Y01676*
X00625Y01667*
X00623Y01657*
X00625Y01647*
X00625Y01647*
X00617Y01635*
X00453*
Y01635*
X0045Y01644*
X00449Y01645*
X00455Y01657*
X0048*
X00494Y01658*
X00507Y01662*
X00519Y01669*
X0053Y01678*
X00539Y01688*
X00546Y01701*
X0055Y01714*
X00551Y01723*
X00437*
X00323*
X00323Y01714*
X00327Y01701*
X00334Y01688*
X00343Y01678*
X00354Y01669*
X00366Y01662*
X00379Y01658*
X0038*
X00385Y01646*
X00384Y01644*
X0038Y01635*
X00379Y01626*
X0038Y01616*
X00384Y01607*
X0039Y01599*
X00398Y01593*
X00407Y01589*
X00417Y01588*
X00427Y01589*
X00435Y01593*
X00658*
X00662Y01582*
X00399Y01319*
X00386Y01322*
X00386Y01323*
Y01381*
X00385Y0139*
X00381Y01397*
X00377Y01403*
X00377Y01403*
X00378Y01407*
X00381Y01416*
X00384Y01417*
X00391Y01423*
X00397Y0143*
X004Y01439*
X00401Y01443*
X00366*
Y01453*
X00401*
X004Y01458*
X00397Y01466*
X00391Y01474*
X00386Y01478*
X00383Y01481*
X00381Y01493*
X00384Y01501*
X00386Y01515*
X00384Y0153*
X00378Y01543*
X0037Y01555*
X00358Y01563*
X00345Y01569*
X0033Y01571*
X00323Y0157*
X0032Y01581*
X00324Y01583*
X00329Y01585*
X00337Y01591*
X00343Y01599*
X00347Y01608*
X00348Y01613*
X00274*
X00274Y01608*
X00278Y01599*
X00284Y01591*
X00292Y01585*
X00301Y01581*
X00309Y0158*
X00311Y0158*
X00311Y0158*
X00313Y01568*
X00311Y01567*
X00302Y01563*
X00291Y01555*
X00282Y01543*
X00277Y0153*
X00275Y01515*
X00277Y01501*
X00282Y01488*
X00291Y01476*
X00302Y01467*
X00316Y01462*
X0032Y0145*
X00319Y01444*
X00317Y01444*
X0031Y01441*
X00303*
X00296Y01444*
X00287Y01445*
X00278Y01444*
X00269Y0144*
X00262Y01434*
X00256Y01427*
X00252Y01418*
X00251Y01409*
X00252Y014*
X00256Y01391*
X00262Y01384*
X00269Y01378*
X00278Y01374*
X00287Y01373*
X00296Y01374*
X00303Y01377*
X0031*
X00315Y01375*
X00322Y01368*
Y01349*
X00315Y01342*
X00305Y01341*
X00297Y01338*
X00289Y01332*
X00284Y01325*
X0028Y01316*
X00279Y01307*
X0028Y01297*
X00281Y01295*
X00277Y01289*
X00272Y01286*
X0026Y01287*
X00247Y01285*
X00234Y0128*
X00223Y01272*
X00215Y01261*
X00209Y01248*
X00208Y01235*
X00209Y01221*
X00215Y01208*
X00223Y01197*
X00231Y01192*
X00232Y01188*
Y01181*
X00231Y01178*
X00223Y01172*
X00215Y01161*
X00209Y01148*
X00208Y0114*
X0026*
Y01135*
X00265*
Y01083*
X00274Y01084*
X00286Y01089*
X00297Y01097*
X00303Y01105*
X00307Y01106*
X00314*
X00317Y01105*
X00323Y01097*
X00334Y01089*
X00347Y01084*
X0036Y01082*
X00374Y01084*
X00386Y01089*
X00397Y01097*
X00403Y01105*
X00407Y01106*
X00414*
X00417Y01105*
X00423Y01097*
X00434Y01089*
X00447Y01084*
X0046Y01082*
X00474Y01084*
X00486Y01089*
X00497Y01097*
X00503Y01105*
X00507Y01106*
X00514*
X00517Y01105*
X00523Y01097*
X00534Y01089*
X00547Y01084*
X0056Y01082*
X00574Y01084*
X00586Y01089*
X00597Y01097*
X00603Y01105*
X00607Y01106*
X00614*
X00617Y01105*
X00623Y01097*
X00634Y01089*
X00647Y01084*
X0066Y01082*
X00674Y01084*
X00686Y01089*
X00697Y01097*
X00706Y01108*
X00711Y01121*
X00713Y01135*
X00711Y01148*
X00709Y01154*
X00735Y0118*
X00739Y01187*
X00741Y01194*
Y01393*
X00854Y01506*
X00867Y01502*
X00867Y01501*
X00873Y01488*
X00881Y01476*
X00893Y01467*
X00906Y01462*
X00921Y0146*
X00935Y01462*
X00949Y01467*
X00952Y0147*
X00964Y01464*
Y01446*
X00947*
Y01413*
X00942*
Y01408*
X00911*
Y0139*
X00907Y01387*
X00902Y0138*
X00898Y01371*
X00898Y01367*
X00933*
Y01357*
X00898*
X00898Y01353*
X00902Y01344*
X00907Y01336*
X00915Y01331*
X00923Y01327*
X00928Y01327*
X00936Y01318*
X00937Y01315*
X00936Y01313*
X00885*
Y01246*
X00892*
Y01149*
X00893Y01141*
X00898Y01134*
X00908Y01125*
X00907Y01118*
Y01068*
X00899Y01067*
X0089Y01064*
X00882Y01058*
X00876Y0105*
X00873Y01041*
X00871Y01031*
X00872Y01027*
X00869Y01026*
X00861Y0102*
X00855Y01012*
X00853Y01008*
X00689*
X00679Y01007*
X00671Y01003*
X00663Y00997*
X00616Y0095*
X00611Y00943*
X00607Y00934*
X00606Y00925*
Y00886*
X00601Y00882*
X00599Y0088*
X00584*
X00582Y00882*
X0057Y00891*
X00557Y00897*
X00542Y00899*
X00527Y00897*
X00513Y00891*
X00501Y00882*
X00499Y0088*
X00484*
X00482Y00882*
X0047Y00891*
X00457Y00897*
X00442Y00899*
X00427Y00897*
X00413Y00891*
X00401Y00882*
X00399Y0088*
X00384*
X00382Y00882*
X0037Y00891*
X00357Y00897*
X00342Y00899*
X00327Y00897*
X00313Y00891*
X00301Y00882*
X00299Y0088*
X00284*
X00282Y00882*
X0027Y00891*
X00257Y00897*
X00242Y00899*
X00227Y00897*
X00213Y00891*
X00201Y00882*
X00199Y0088*
X00184*
X00182Y00882*
X0017Y00891*
X00157Y00897*
X00142Y00899*
X00127Y00897*
X00113Y00891*
X00101Y00882*
X00092Y0087*
X00086Y00856*
X00084Y00841*
X00086Y00826*
X00092Y00813*
X00096Y00807*
Y0072*
X00098Y00708*
X00102Y00697*
X00109Y00687*
X00346Y0045*
Y0045*
X00338Y0044*
X00331Y00428*
X00327Y00415*
X00326Y00401*
X00327Y00388*
X00331Y00375*
X00338Y00363*
X00346Y00352*
X00357Y00344*
X00369Y00337*
X00382Y00333*
X00395Y00332*
X00409Y00333*
X00422Y00337*
X00434Y00344*
X00444Y00352*
X00453Y00363*
X00459Y00375*
X00463Y00388*
X00464Y00401*
X00463Y00415*
X00459Y00428*
X00453Y0044*
X00444Y0045*
X00439Y00454*
Y00468*
X00437Y0048*
X00433Y00491*
X00426Y005*
X00187Y00739*
Y00794*
X00199Y008*
X00205Y00797*
X00209Y00789*
X00214Y00781*
X00321Y00675*
X00328Y00669*
X00337Y00666*
X00346Y00665*
X00404*
X00408Y00653*
X00401Y00647*
X00392Y00635*
X00386Y00621*
X00384Y00606*
X00386Y00591*
X00392Y00578*
X00401Y00566*
X00413Y00556*
X00427Y00551*
X00442Y00549*
X00457Y00551*
X0047Y00556*
X00482Y00566*
X00484Y00568*
X00499*
X00501Y00566*
X00513Y00556*
X00527Y00551*
X00542Y00549*
X00557Y00551*
X0057Y00556*
X00582Y00566*
X00584Y00568*
X00599*
X00601Y00566*
X00613Y00556*
X00627Y00551*
X00642Y00549*
X00657Y00551*
X0067Y00556*
X00682Y00566*
X00684Y00568*
X00699*
X00701Y00566*
X00713Y00556*
X00727Y00551*
X00742Y00549*
X00757Y00551*
X0077Y00556*
X00782Y00566*
X00784Y00568*
X00799*
X00801Y00566*
X00813Y00556*
X00827Y00551*
X00842Y00549*
X00857Y00551*
X0087Y00556*
X00882Y00566*
X00884Y00568*
X00899*
X00901Y00566*
X00913Y00556*
X00927Y00551*
X00942Y00549*
X00957Y00551*
X0097Y00556*
X00982Y00566*
X00984Y00568*
X00999*
X01001Y00566*
X01013Y00556*
X01027Y00551*
X01042Y00549*
X01057Y00551*
X0107Y00556*
X01082Y00566*
X01084Y00568*
X01099*
X01101Y00566*
X01113Y00556*
X01127Y00551*
X01142Y00549*
X01157Y00551*
X0117Y00556*
X01182Y00566*
X01184Y00568*
X01199*
X01201Y00566*
X01213Y00556*
X01227Y00551*
X01242Y00549*
X01257Y00551*
X0127Y00556*
X01282Y00566*
X01284Y00568*
X01299*
X01301Y00566*
X01313Y00556*
X01327Y00551*
X01342Y00549*
X01357Y00551*
X0137Y00556*
X01382Y00566*
X01384Y00568*
X01399*
X01401Y00566*
X01413Y00556*
X01427Y00551*
X01442Y00549*
X01457Y00551*
X0147Y00556*
X01482Y00566*
X01484Y00568*
X01499*
X01501Y00566*
X01513Y00556*
X01527Y00551*
X01542Y00549*
X01557Y00551*
X0157Y00556*
X01582Y00566*
X01584Y00568*
X01599*
X01601Y00566*
X01613Y00556*
X01627Y00551*
X01642Y00549*
X01657Y00551*
X0167Y00556*
X01682Y00566*
X01684Y00568*
X01699*
X01701Y00566*
X01713Y00556*
X01727Y00551*
X01742Y00549*
X01757Y00551*
X0177Y00556*
X01782Y00566*
X01784Y00568*
X01799*
X01801Y00566*
X01813Y00556*
X01827Y00551*
X01842Y00549*
X01857Y00551*
X0187Y00556*
X01882Y00566*
X01884Y00568*
X01899*
X01901Y00566*
X01913Y00556*
X01927Y00551*
X01942Y00549*
X01957Y00551*
X0197Y00556*
X01982Y00566*
X01984Y00568*
X01999*
X02001Y00566*
X02013Y00556*
X02027Y00551*
X02042Y00549*
X02057Y00551*
X0207Y00556*
X02082Y00566*
X02084Y00568*
X02099*
X02101Y00566*
X02113Y00556*
X02127Y00551*
X02142Y00549*
X02157Y00551*
X0217Y00556*
X02182Y00566*
X02184Y00568*
X02199*
X02201Y00566*
X02213Y00556*
X02227Y00551*
X02242Y00549*
X02257Y00551*
X0227Y00556*
X02282Y00566*
X02284Y00568*
X02299*
X02301Y00566*
X02313Y00556*
X02327Y00551*
X02342Y00549*
X02357Y00551*
X0237Y00556*
X02382Y00566*
X02384Y00568*
X02399*
X02401Y00566*
X02413Y00556*
X02427Y00551*
X02442Y00549*
X02457Y00551*
X0247Y00556*
X02482Y00566*
X02484Y00568*
X02499*
X02501Y00566*
X02513Y00556*
X02527Y00551*
X02542Y00549*
X02557Y00551*
X0257Y00556*
X02582Y00566*
X02584Y00568*
X02599*
X02601Y00566*
X02613Y00556*
X02627Y00551*
X02642Y00549*
X02657Y00551*
X0267Y00556*
X02682Y00566*
X02684Y00568*
X02699*
X02701Y00566*
X02713Y00556*
X02727Y00551*
X02742Y00549*
X02757Y00551*
X0277Y00556*
X02782Y00566*
X02784Y00568*
X02799*
X02801Y00566*
X02813Y00556*
X02827Y00551*
X02842Y00549*
X02857Y00551*
X0287Y00556*
X02882Y00566*
X02884Y00568*
X02899*
X02901Y00566*
X02913Y00556*
X02927Y00551*
X02942Y00549*
X02957Y00551*
X0297Y00556*
X02982Y00566*
X02992Y00578*
X02997Y00591*
X02999Y00606*
X02997Y00621*
X02992Y00635*
X02982Y00647*
X0297Y00656*
X02957Y00662*
X02942Y00664*
X02927Y00662*
X02913Y00656*
X02901Y00647*
X02899Y00645*
X02884*
X02882Y00647*
X0287Y00656*
X02857Y00662*
X02856Y00663*
X02853Y00674*
X02858Y0068*
X02944*
X02954Y00682*
X02962Y00685*
X0297Y00691*
X03067Y00788*
X0307Y0079*
X03071Y0079*
X03072Y00791*
X03075Y00794*
X03078Y00796*
X03079Y00797*
X03079Y00798*
X0308Y00798*
X03082Y00801*
X03084Y00803*
X03099*
X03101Y00801*
X03113Y00791*
X03127Y00786*
X03142Y00784*
X03157Y00786*
X0317Y00791*
X03182Y00801*
X03189Y00809*
X03191Y00808*
X03194Y00806*
X03196Y00805*
X03197Y00804*
X03199Y00804*
X03201Y00801*
X03213Y00791*
X03227Y00786*
X03242Y00784*
X03257Y00786*
X0327Y00791*
X03282Y00801*
X03292Y00813*
X03297Y00826*
X03299Y00841*
X03297Y00856*
X03292Y0087*
X03288Y00874*
Y00875*
X03289Y00876*
X03288Y0088*
X03288Y00884*
X03288Y00885*
X03288Y00887*
X03287Y0089*
X03286Y00894*
X03285Y00895*
X03284Y00897*
X03283Y009*
X03282Y00901*
X03282Y00902*
X03279Y00905*
X03277Y00908*
X03276Y00909*
X03275Y0091*
X0325Y00935*
X03254Y00948*
X0326Y0095*
X03268Y00956*
X03275Y00965*
X03279Y00974*
X0328Y00984*
Y01046*
X03362Y01128*
X03365Y01128*
X03374Y01124*
Y00011*
X03116*
X03112Y00023*
X03119Y00029*
X03128Y0004*
X03134Y0005*
X03138Y00052*
X03147Y00054*
X03155Y00047*
X03171Y00037*
X03188Y0003*
X03206Y00026*
X03224Y00025*
X03242Y00026*
X0326Y0003*
X03277Y00037*
X03292Y00047*
X03306Y00059*
X03318Y00073*
X03328Y00088*
X03335Y00105*
X03339Y00123*
X0334Y00141*
X03339Y0016*
X03335Y00177*
X03328Y00194*
X03318Y0021*
X03306Y00224*
X03292Y00236*
X03277Y00245*
X0326Y00252*
X03242Y00256*
X03224Y00258*
X03206Y00256*
X03188Y00252*
X03171Y00245*
X03155Y00236*
X03142Y00224*
X03139Y0022*
X03127Y00225*
X03128Y00228*
X03127Y00238*
X03123Y00247*
X03117Y00255*
X03111Y00259*
X0311Y00268*
X0311Y00273*
X03113Y00274*
X03172Y00334*
X03175Y00333*
X03189Y00332*
X03202Y00333*
X03215Y00337*
X03227Y00344*
X03237Y00352*
X03246Y00363*
X03252Y00375*
X03256Y00388*
X03258Y00401*
X03256Y00415*
X03252Y00428*
X03246Y0044*
X03237Y0045*
X03227Y00459*
X03215Y00465*
X03202Y00469*
X03189Y0047*
X03175Y00469*
X03162Y00465*
X0315Y00459*
X0314Y0045*
X03131Y0044*
X03125Y00428*
X03121Y00415*
X0312Y00411*
X03061Y00352*
X0305*
X03049Y00354*
X03046Y00364*
X03052Y00375*
X03056Y00388*
X03057Y00401*
X03056Y00415*
X03052Y00428*
X03045Y0044*
X03037Y0045*
X03026Y00459*
X03014Y00465*
X03001Y00469*
X02988Y0047*
X02974Y00469*
X02961Y00465*
X02949Y00459*
X02939Y0045*
X0293Y0044*
X02924Y00428*
X0292Y00415*
X02919Y00401*
X0292Y00388*
X02924Y00375*
X02929Y00364*
X02926Y00354*
X02925Y00352*
X00889*
X00877Y00351*
X00866Y00346*
X00857Y00339*
X00654Y00136*
X00605*
X006Y00146*
X00601Y00148*
X00606Y00161*
X00608Y00171*
X00551*
X00489*
X00482Y00168*
X00262Y00388*
X00264Y00401*
X00262Y00415*
X00258Y00428*
X00252Y0044*
X00243Y0045*
X00233Y00459*
X00221Y00465*
X00208Y00469*
X00194Y0047*
X00181Y00469*
X00168Y00465*
X00156Y00459*
X00145Y0045*
X00137Y0044*
X0013Y00428*
X00127Y00415*
X00125Y00401*
X00127Y00388*
X0013Y00375*
X00137Y00363*
X00145Y00352*
X00156Y00344*
X00168Y00337*
X00181Y00333*
X00189Y00332*
X00463Y00058*
X00473Y00051*
X00484Y00046*
X00496Y00044*
X00673*
X00685Y00046*
X00696Y00051*
X00705Y00058*
X00836Y00188*
X00846Y00182*
X00843Y00175*
X00841Y00161*
Y00145*
X00843Y00131*
X00849Y00117*
X00857Y00106*
X00869Y00097*
X00882Y00091*
X00897Y0009*
X00911Y00091*
X00924Y00097*
X00936Y00106*
X00945Y00117*
X0095Y00131*
X00952Y00145*
Y00161*
X0095Y00175*
X00945Y00189*
X00936Y002*
X00924Y00209*
X00911Y00215*
X00897Y00216*
X00882Y00215*
X00876Y00212*
X00869Y00222*
X00908Y00261*
X02839*
X02843Y00257*
X02846Y00249*
X02843Y00242*
X02842Y00237*
X0292*
X0292Y00242*
X02917Y00249*
X0292Y00257*
X02924Y00261*
X03053*
X03059Y00249*
X03057Y00247*
X03054Y00238*
X03053Y00233*
X0309*
Y00228*
X03095*
Y00191*
X031Y00191*
X03108Y00195*
X03112Y00192*
X03117Y00186*
X03113Y00177*
X03109Y0016*
X03108Y0015*
X03098Y00143*
X03096Y00143*
X03084Y00146*
X0307Y00148*
X03057Y00146*
X03044Y00142*
X03032Y00136*
X03021Y00127*
X03013Y00117*
X03006Y00105*
X03002Y00092*
X03001Y00078*
X03002Y00065*
X03006Y00052*
X03013Y0004*
X03021Y00029*
X03029Y00023*
X03025Y00011*
X0036*
X00356Y00023*
X00364Y00029*
X00372Y0004*
X00379Y00052*
X00383Y00065*
X00384Y00078*
X00383Y00092*
X00379Y00105*
X00372Y00117*
X00364Y00127*
X00353Y00136*
X00341Y00142*
X00328Y00146*
X00315Y00148*
X00301Y00146*
X00289Y00143*
X00287Y00143*
X00277Y0015*
X00276Y0016*
X00272Y00177*
X00265Y00194*
X00255Y0021*
X00243Y00224*
X00229Y00236*
X00214Y00245*
X00197Y00252*
X00179Y00256*
X00161Y00258*
X00143Y00256*
X00125Y00252*
X00108Y00245*
X00092Y00236*
X00079Y00224*
X00067Y0021*
X00057Y00194*
X0005Y00177*
X00046Y0016*
X00044Y00141*
X00046Y00123*
X0005Y00105*
X00057Y00088*
X00067Y00073*
X00079Y00059*
X00092Y00047*
X00108Y00037*
X00125Y0003*
X00143Y00026*
X00161Y00025*
X00179Y00026*
X00197Y0003*
X00214Y00037*
X00229Y00047*
X00237Y00054*
X00247Y00052*
X00251Y0005*
X00257Y0004*
X00265Y00029*
X00273Y00023*
X00269Y00011*
X00011*
Y03649*
X00122*
X00126Y03637*
X00126Y03637*
X00114Y03623*
X00104Y03608*
X00097Y03591*
X00093Y03573*
X00092Y03555*
X00093Y03536*
X00096Y03525*
X00089Y03514*
X00087Y03513*
X00084Y03512*
X00071Y03509*
X00059Y03502*
X00049Y03493*
X0004Y03483*
X00034Y03471*
X0003Y03458*
X00029Y03444*
X0003Y03431*
X00034Y03418*
X0004Y03406*
X00049Y03395*
X00059Y03387*
X00071Y0338*
X00084Y03376*
X00098Y03375*
X00112Y03376*
X00125Y0338*
X00137Y03387*
X00147Y03395*
X00156Y03406*
X00162Y03418*
X00166Y03431*
X00166Y03434*
X00167Y03435*
X00179Y03442*
X0019Y0344*
X00208Y03438*
X00226Y0344*
X00244Y03444*
X00261Y03451*
X00277Y0346*
X00291Y03472*
X00302Y03486*
X00312Y03502*
X00319Y03519*
X00323Y03536*
X00325Y03555*
X00323Y03573*
X00319Y03591*
X00312Y03608*
X00302Y03623*
X00291Y03637*
X0029Y03637*
X00295Y03649*
X0309*
X03095Y03637*
X03094Y03637*
X03082Y03623*
X03073Y03608*
X03066Y03591*
X03062Y03573*
X0306Y03555*
X03062Y03536*
X03066Y03519*
X03073Y03502*
X03082Y03486*
X03094Y03472*
X03108Y0346*
X03124Y03451*
X03141Y03444*
X03158Y0344*
X03177Y03438*
X03195Y0344*
X03213Y03444*
X0323Y03451*
X03245Y0346*
X03259Y03472*
X03271Y03486*
X03281Y03502*
X03288Y03519*
X03292Y03536*
X03293Y03555*
X03292Y03573*
X03288Y03591*
X03281Y03608*
X03271Y03623*
X03259Y03637*
X03259Y03637*
X03263Y03649*
X03374*
Y01773*
G37*
%LNrelaytester-2*%
%LPC*%
G36*
X01735Y02745D02*
X0173Y02745D01*
X01721Y02741*
X01713Y02735*
X01707Y02727*
X01703Y02718*
X01703Y02713*
X01735*
Y02745*
G37*
G36*
X01745D02*
Y02713D01*
X01777*
X01776Y02718*
X01772Y02727*
X01766Y02735*
X01759Y02741*
X01749Y02745*
X01745Y02745*
G37*
G36*
X01735Y02703D02*
X01703D01*
X01703Y02698*
X01707Y02689*
X01713Y02682*
X01721Y02676*
X0173Y02672*
X01735Y02671*
Y02703*
G37*
G36*
X01777D02*
X01745D01*
Y02671*
X01749Y02672*
X01759Y02676*
X01766Y02682*
X01772Y02689*
X01776Y02698*
X01777Y02703*
G37*
G36*
X01644Y0295D02*
X01639Y02949D01*
X0163Y02946*
X01622Y0294*
X01616Y02932*
X01613Y02923*
X01612Y02918*
X01644*
Y0295*
G37*
G36*
Y02908D02*
X01612D01*
X01613Y02903*
X01616Y02894*
X01622Y02886*
X0163Y0288*
X01639Y02876*
X01644Y02876*
Y02908*
G37*
G36*
X01533Y02928D02*
X01501D01*
Y02896*
X01505Y02896*
X01514Y029*
X01522Y02906*
X01528Y02914*
X01532Y02923*
X01533Y02928*
G37*
G36*
X01844Y01656D02*
X01812D01*
Y01624*
X01816Y01625*
X01825Y01628*
X01833Y01634*
X01839Y01642*
X01843Y01651*
X01844Y01656*
G37*
G36*
X01579Y01408D02*
X01553D01*
Y01379*
X01579*
Y01408*
G37*
G36*
X01422D02*
X01395D01*
Y01379*
X01422*
Y01408*
G37*
G36*
X01737D02*
X0171D01*
Y01379*
X01737*
Y01408*
G37*
G36*
X0126D02*
X01234D01*
Y01379*
X0126*
Y01408*
G37*
G36*
X02721Y02515D02*
X02696D01*
Y02481*
X02721*
Y02515*
G37*
G36*
X02755D02*
X02731D01*
Y02481*
X02755*
Y02515*
G37*
G36*
X02564Y02155D02*
Y02123D01*
X02596*
X02595Y02127*
X02591Y02137*
X02585Y02144*
X02577Y0215*
X02568Y02154*
X02564Y02155*
G37*
G36*
X02596Y02113D02*
X02564D01*
Y02081*
X02568Y02081*
X02577Y02085*
X02585Y02091*
X02591Y02099*
X02595Y02108*
X02596Y02113*
G37*
G36*
X02554Y02155D02*
X02549Y02154D01*
X0254Y0215*
X02532Y02144*
X02526Y02137*
X02522Y02127*
X02522Y02123*
X02554*
Y02155*
G37*
G36*
Y02113D02*
X02522D01*
X02522Y02108*
X02526Y02099*
X02532Y02091*
X0254Y02085*
X02549Y02081*
X02554Y02081*
Y02113*
G37*
G36*
X0182Y01861D02*
X01788D01*
Y01829*
X01793Y01829*
X01802Y01833*
X0181Y01839*
X01816Y01847*
X01819Y01856*
X0182Y01861*
G37*
G36*
X01778D02*
X01746D01*
X01747Y01856*
X0175Y01847*
X01756Y01839*
X01764Y01833*
X01773Y01829*
X01778Y01829*
Y01861*
G37*
G36*
Y01903D02*
X01773Y01902D01*
X01764Y01898*
X01756Y01892*
X0175Y01885*
X01747Y01875*
X01746Y01871*
X01778*
Y01903*
G37*
G36*
X01788D02*
Y01871D01*
X0182*
X01819Y01875*
X01816Y01885*
X0181Y01892*
X01802Y01898*
X01793Y01902*
X01788Y01903*
G37*
G36*
X02374Y01502D02*
X02352D01*
Y01473*
X02374*
Y01502*
G37*
G36*
X02682Y01408D02*
X02655D01*
Y01379*
X02682*
Y01408*
G37*
G36*
X02524D02*
X02498D01*
Y01379*
X02524*
Y01408*
G37*
G36*
X02367D02*
X0234D01*
Y01379*
X02367*
Y01408*
G37*
G36*
X02209D02*
X02183D01*
Y01379*
X02209*
Y01408*
G37*
G36*
X0205D02*
X02023D01*
Y01379*
X0205*
Y01408*
G37*
G36*
X02997D02*
X0297D01*
Y01379*
X02997*
Y01408*
G37*
G36*
X02262Y02459D02*
X0223D01*
X02231Y02454*
X02235Y02445*
X02241Y02437*
X02248Y02431*
X02258Y02428*
X02262Y02427*
Y02459*
G37*
G36*
X02304D02*
X02272D01*
Y02427*
X02277Y02428*
X02286Y02431*
X02294Y02437*
X023Y02445*
X02304Y02454*
X02304Y02459*
G37*
G36*
X02262Y02501D02*
X02258Y02501D01*
X02248Y02497*
X02241Y02491*
X02235Y02483*
X02231Y02474*
X0223Y02469*
X02262*
Y02501*
G37*
G36*
X02272D02*
Y02469D01*
X02304*
X02304Y02474*
X023Y02483*
X02294Y02491*
X02286Y02497*
X02277Y02501*
X02272Y02501*
G37*
G36*
X02033Y00128D02*
X02001D01*
Y00096*
X02005Y00097*
X02014Y00101*
X02022Y00107*
X02028Y00115*
X02032Y00124*
X02033Y00128*
G37*
G36*
X01085Y00167D02*
X0108Y00166D01*
X01071Y00162*
X01063Y00156*
X01057Y00148*
X01054Y00139*
X01053Y00134*
X01085*
Y00167*
G37*
G36*
X00306Y01655D02*
X00301Y01654D01*
X00292Y0165*
X00284Y01644*
X00278Y01637*
X00274Y01627*
X00274Y01623*
X00306*
Y01655*
G37*
G36*
X01991Y00128D02*
X01959D01*
X01959Y00124*
X01963Y00115*
X01969Y00107*
X01977Y00101*
X01986Y00097*
X01991Y00096*
Y00128*
G37*
G36*
X00316Y01655D02*
Y01623D01*
X00348*
X00347Y01627*
X00343Y01637*
X00337Y01644*
X00329Y0165*
X0032Y01654*
X00316Y01655*
G37*
G36*
X00937Y01446D02*
X00911D01*
Y01418*
X00937*
Y01446*
G37*
G36*
X01095Y00167D02*
Y00134D01*
X01127*
X01127Y00139*
X01123Y00148*
X01117Y00156*
X01109Y00162*
X011Y00166*
X01095Y00167*
G37*
G36*
X01991Y0017D02*
X01986Y0017D01*
X01977Y00166*
X01969Y0016*
X01963Y00152*
X01959Y00143*
X01959Y00138*
X01991*
Y0017*
G37*
G36*
X00302Y0192D02*
X00235D01*
Y01881*
X00237Y01868*
X00241Y01854*
X00247Y01842*
X00256Y01831*
X00267Y01822*
X00279Y01816*
X00293Y01812*
X00302Y01811*
Y0192*
G37*
G36*
X00551Y02039D02*
X00537Y02038D01*
X00523Y02034*
X00511Y02027*
X005Y02018*
X00492Y02008*
X00485Y01995*
X00481Y01982*
X0048Y01968*
Y01881*
X00481Y01868*
X00485Y01854*
X00492Y01842*
X005Y01831*
X00511Y01822*
X00523Y01816*
X00537Y01812*
X00551Y0181*
X00565Y01812*
X00578Y01816*
X0059Y01822*
X00601Y01831*
X0061Y01842*
X00617Y01854*
X00621Y01868*
X00622Y01881*
Y01968*
X00621Y01982*
X00617Y01995*
X0061Y02008*
X00601Y02018*
X0059Y02027*
X00578Y02034*
X00565Y02038*
X00551Y02039*
G37*
G36*
X01597Y00216D02*
X01582Y00215D01*
X01569Y00209*
X01557Y002*
X01549Y00189*
X01543Y00175*
X01541Y00161*
Y00145*
X01543Y00131*
X01549Y00117*
X01557Y00106*
X01569Y00097*
X01582Y00091*
X01597Y0009*
X01611Y00091*
X01624Y00097*
X01636Y00106*
X01645Y00117*
X0165Y00131*
X01652Y00145*
Y00161*
X0165Y00175*
X01645Y00189*
X01636Y002*
X01624Y00209*
X01611Y00215*
X01597Y00216*
G37*
G36*
X00378Y0192D02*
X00312D01*
Y01811*
X00321Y01812*
X00334Y01816*
X00346Y01822*
X00357Y01831*
X00366Y01842*
X00372Y01854*
X00376Y01868*
X00378Y01881*
Y0192*
G37*
G36*
X01005Y025D02*
X00852D01*
Y02248*
X00893*
Y0216*
X0071Y01978*
X00705Y0197*
X00701Y01962*
X007Y01952*
Y01926*
X00699Y01926*
X00691Y01915*
X00686Y01903*
X00684Y01889*
X00686Y01876*
X00691Y01864*
X00699Y01853*
X0071Y01845*
X00722Y01839*
X00736Y01838*
X00749Y01839*
X00762Y01845*
X00772Y01853*
X0078Y01864*
X00786Y01876*
X00787Y01889*
X00786Y01903*
X0078Y01915*
X00772Y01926*
X00772Y01926*
X00772Y01938*
X00954Y0212*
X0096Y02127*
X00963Y02136*
X00964Y02145*
Y02248*
X01005*
Y025*
G37*
G36*
X01085Y00124D02*
X01053D01*
X01054Y0012*
X01057Y00111*
X01063Y00103*
X01071Y00097*
X0108Y00093*
X01085Y00092*
Y00124*
G37*
G36*
X01127D02*
X01095D01*
Y00092*
X011Y00093*
X01109Y00097*
X01117Y00103*
X01123Y00111*
X01127Y0012*
X01127Y00124*
G37*
G36*
X00432Y01799D02*
X00393D01*
X00379Y01798*
X00366Y01794*
X00354Y01787*
X00343Y01778*
X00334Y01767*
X00327Y01755*
X00323Y01742*
X00323Y01733*
X00432*
Y01799*
G37*
G36*
X01811Y00216D02*
X01796Y00215D01*
X01783Y00209*
X01771Y002*
X01763Y00189*
X01757Y00175*
X01755Y00161*
Y00145*
X01757Y00131*
X01763Y00117*
X01771Y00106*
X01783Y00097*
X01796Y00091*
X01811Y0009*
X01825Y00091*
X01838Y00097*
X0185Y00106*
X01859Y00117*
X01864Y00131*
X01866Y00145*
Y00161*
X01864Y00175*
X01859Y00189*
X0185Y002*
X01838Y00209*
X01825Y00215*
X01811Y00216*
G37*
G36*
X02511D02*
X02496Y00215D01*
X02483Y00209*
X02471Y002*
X02463Y00189*
X02457Y00175*
X02455Y00161*
Y00145*
X02457Y00131*
X02463Y00117*
X02471Y00106*
X02483Y00097*
X02496Y00091*
X02511Y0009*
X02525Y00091*
X02538Y00097*
X0255Y00106*
X02559Y00117*
X02564Y00131*
X02566Y00145*
Y00161*
X02564Y00175*
X02559Y00189*
X0255Y002*
X02538Y00209*
X02525Y00215*
X02511Y00216*
G37*
G36*
X0048Y01799D02*
X00442D01*
Y01733*
X00551*
X0055Y01742*
X00546Y01755*
X00539Y01767*
X0053Y01778*
X00519Y01787*
X00507Y01794*
X00494Y01798*
X0048Y01799*
G37*
G36*
X0079Y00369D02*
X00758D01*
X00758Y00364*
X00762Y00355*
X00768Y00347*
X00776Y00341*
X00785Y00337*
X0079Y00337*
Y00369*
G37*
G36*
X00832D02*
X008D01*
Y00337*
X00805Y00337*
X00814Y00341*
X00822Y00347*
X00827Y00355*
X00831Y00364*
X00832Y00369*
G37*
G36*
X0079Y00411D02*
X00785Y0041D01*
X00776Y00406*
X00768Y004*
X00762Y00392*
X00758Y00383*
X00758Y00379*
X0079*
Y00411*
G37*
G36*
X00107Y00298D02*
X00075D01*
Y00266*
X0008Y00266*
X00089Y0027*
X00097Y00276*
X00103Y00284*
X00107Y00293*
X00107Y00298*
G37*
G36*
X00065Y0034D02*
X00061Y00339D01*
X00052Y00335*
X00044Y00329*
X00038Y00322*
X00034Y00312*
X00033Y00308*
X00065*
Y0034*
G37*
G36*
X00075D02*
Y00308D01*
X00107*
X00107Y00312*
X00103Y00322*
X00097Y00329*
X00089Y00335*
X0008Y00339*
X00075Y0034*
G37*
G36*
X008Y00411D02*
Y00379D01*
X00832*
X00831Y00383*
X00827Y00392*
X00822Y004*
X00814Y00406*
X00805Y0041*
X008Y00411*
G37*
G36*
X02511Y00516D02*
X02496Y00515D01*
X02483Y00509*
X02471Y005*
X02463Y00489*
X02457Y00475*
X02455Y00461*
Y00445*
X02457Y00431*
X02463Y00417*
X02471Y00406*
X02483Y00397*
X02496Y00391*
X02511Y0039*
X02525Y00391*
X02538Y00397*
X0255Y00406*
X02559Y00417*
X02564Y00431*
X02566Y00445*
Y00461*
X02564Y00475*
X02559Y00489*
X0255Y005*
X02538Y00509*
X02525Y00515*
X02511Y00516*
G37*
G36*
X01397D02*
X01382Y00515D01*
X01369Y00509*
X01357Y005*
X01354Y00496*
X01339*
X01336Y005*
X01324Y00509*
X01311Y00515*
X01297Y00516*
X01282Y00515*
X01269Y00509*
X01257Y005*
X01254Y00496*
X01239*
X01236Y005*
X01224Y00509*
X01211Y00515*
X01197Y00516*
X01182Y00515*
X01169Y00509*
X01157Y005*
X01149Y00489*
X01143Y00475*
X01141Y00461*
Y00445*
X01143Y00431*
X01149Y00417*
X01157Y00406*
X01169Y00397*
X01182Y00391*
X01197Y0039*
X01211Y00391*
X01224Y00397*
X01236Y00406*
X01239Y0041*
X01254*
X01257Y00406*
X01269Y00397*
X01282Y00391*
X01297Y0039*
X01311Y00391*
X01324Y00397*
X01336Y00406*
X01339Y0041*
X01354*
X01357Y00406*
X01369Y00397*
X01382Y00391*
X01397Y0039*
X01411Y00391*
X01424Y00397*
X01436Y00406*
X01445Y00417*
X0145Y00431*
X01452Y00445*
Y00461*
X0145Y00475*
X01445Y00489*
X01436Y005*
X01424Y00509*
X01411Y00515*
X01397Y00516*
G37*
G36*
X02311D02*
X02296Y00515D01*
X02283Y00509*
X02271Y005*
X02268Y00496*
X02253*
X0225Y005*
X02238Y00509*
X02225Y00515*
X02211Y00516*
X02196Y00515*
X02183Y00509*
X02171Y005*
X02168Y00496*
X02153*
X0215Y005*
X02138Y00509*
X02125Y00515*
X02111Y00516*
X02096Y00515*
X02083Y00509*
X02071Y005*
X02063Y00489*
X02057Y00475*
X02055Y00461*
Y00445*
X02057Y00431*
X02063Y00417*
X02071Y00406*
X02083Y00397*
X02096Y00391*
X02111Y0039*
X02125Y00391*
X02138Y00397*
X0215Y00406*
X02153Y0041*
X02168*
X02171Y00406*
X02183Y00397*
X02196Y00391*
X02211Y0039*
X02225Y00391*
X02238Y00397*
X0225Y00406*
X02253Y0041*
X02268*
X02271Y00406*
X02283Y00397*
X02296Y00391*
X02311Y0039*
X02325Y00391*
X02338Y00397*
X0235Y00406*
X02359Y00417*
X02364Y00431*
X02366Y00445*
Y00461*
X02364Y00475*
X02359Y00489*
X0235Y005*
X02338Y00509*
X02325Y00515*
X02311Y00516*
G37*
G36*
X00551Y00534D02*
X00536Y00532D01*
X00522Y00526*
X0051Y00517*
X00501Y00505*
X00495Y00491*
X00493Y00476*
X00495Y00461*
X00501Y00448*
X0051Y00436*
X00512Y00434*
Y00419*
X0051Y00417*
X00501Y00405*
X00495Y00391*
X00493Y00376*
X00495Y00361*
X00501Y00348*
X0051Y00336*
X00512Y00334*
Y00319*
X0051Y00317*
X00501Y00305*
X00495Y00291*
X00493Y00276*
X00495Y00261*
X00501Y00248*
X0051Y00236*
X00512Y00234*
Y00219*
X0051Y00217*
X00501Y00205*
X00495Y00191*
X00494Y00181*
X00551*
X00608*
X00606Y00191*
X00601Y00205*
X00591Y00217*
X00589Y00219*
Y00234*
X00591Y00236*
X00601Y00248*
X00606Y00261*
X00608Y00276*
X00606Y00291*
X00601Y00305*
X00591Y00317*
X00589Y00319*
Y00334*
X00591Y00336*
X00601Y00348*
X00631*
X00641Y00349*
X00648Y00355*
X00722Y00428*
X00844*
X00849Y00417*
X00857Y00406*
X00869Y00397*
X00882Y00391*
X00897Y0039*
X00911Y00391*
X00924Y00397*
X00936Y00406*
X00945Y00417*
X0095Y00431*
X00952Y00445*
Y00461*
X0095Y00475*
X00945Y00489*
X00936Y005*
X00924Y00509*
X00911Y00515*
X00897Y00516*
X00882Y00515*
X00869Y00509*
X00857Y005*
X00849Y00489*
X00843Y00476*
X00712*
X00703Y00475*
X00695Y00469*
X00621Y00396*
X00605*
X00601Y00405*
X00591Y00417*
X00589Y00419*
Y00434*
X00591Y00436*
X00601Y00448*
X00606Y00461*
X00608Y00476*
X00606Y00491*
X00601Y00505*
X00591Y00517*
X0058Y00526*
X00566Y00532*
X00551Y00534*
G37*
G36*
X01597Y00516D02*
X01582Y00515D01*
X01569Y00509*
X01557Y005*
X01549Y00489*
X01543Y00475*
X01541Y00461*
Y00445*
X01543Y00431*
X01549Y00417*
X01557Y00406*
X01569Y00397*
X01582Y00391*
X01597Y0039*
X01611Y00391*
X01624Y00397*
X01636Y00406*
X01645Y00417*
X0165Y00431*
X01652Y00445*
Y00461*
X0165Y00475*
X01645Y00489*
X01636Y005*
X01624Y00509*
X01611Y00515*
X01597Y00516*
G37*
G36*
X01811D02*
X01796Y00515D01*
X01783Y00509*
X01771Y005*
X01763Y00489*
X01757Y00475*
X01755Y00461*
Y00445*
X01757Y00431*
X01763Y00417*
X01771Y00406*
X01783Y00397*
X01796Y00391*
X01811Y0039*
X01825Y00391*
X01838Y00397*
X0185Y00406*
X01859Y00417*
X01864Y00431*
X01866Y00445*
Y00461*
X01864Y00475*
X01859Y00489*
X0185Y005*
X01838Y00509*
X01825Y00515*
X01811Y00516*
G37*
G36*
X00065Y00298D02*
X00033D01*
X00034Y00293*
X00038Y00284*
X00044Y00276*
X00052Y0027*
X00061Y00266*
X00065Y00266*
Y00298*
G37*
G36*
X02001Y0017D02*
Y00138D01*
X02033*
X02032Y00143*
X02028Y00152*
X02022Y0016*
X02014Y00166*
X02005Y0017*
X02001Y0017*
G37*
G36*
X0292Y00227D02*
X02886D01*
Y00193*
X02892Y00193*
X02901Y00197*
X0291Y00204*
X02916Y00212*
X0292Y00222*
X0292Y00227*
G37*
G36*
X01397Y00216D02*
X01382Y00215D01*
X01369Y00209*
X01357Y002*
X01354Y00196*
X01339*
X01336Y002*
X01324Y00209*
X01311Y00215*
X01297Y00216*
X01282Y00215*
X01269Y00209*
X01257Y002*
X01254Y00196*
X01239*
X01236Y002*
X01224Y00209*
X01211Y00215*
X01197Y00216*
X01182Y00215*
X01169Y00209*
X01157Y002*
X01149Y00189*
X01143Y00175*
X01141Y00161*
Y00145*
X01143Y00131*
X01149Y00117*
X01157Y00106*
X01169Y00097*
X01182Y00091*
X01197Y0009*
X01211Y00091*
X01224Y00097*
X01236Y00106*
X01239Y0011*
X01254*
X01257Y00106*
X01269Y00097*
X01282Y00091*
X01297Y0009*
X01311Y00091*
X01324Y00097*
X01336Y00106*
X01339Y0011*
X01354*
X01357Y00106*
X01369Y00097*
X01382Y00091*
X01397Y0009*
X01411Y00091*
X01424Y00097*
X01436Y00106*
X01445Y00117*
X0145Y00131*
X01452Y00145*
Y00161*
X0145Y00175*
X01445Y00189*
X01436Y002*
X01424Y00209*
X01411Y00215*
X01397Y00216*
G37*
G36*
X02311D02*
X02296Y00215D01*
X02283Y00209*
X02271Y002*
X02268Y00196*
X02253*
X0225Y002*
X02238Y00209*
X02225Y00215*
X02211Y00216*
X02196Y00215*
X02183Y00209*
X02171Y002*
X02168Y00196*
X02153*
X0215Y002*
X02138Y00209*
X02125Y00215*
X02111Y00216*
X02096Y00215*
X02083Y00209*
X02071Y002*
X02063Y00189*
X02057Y00175*
X02055Y00161*
Y00145*
X02057Y00131*
X02063Y00117*
X02071Y00106*
X02083Y00097*
X02096Y00091*
X02111Y0009*
X02125Y00091*
X02138Y00097*
X0215Y00106*
X02153Y0011*
X02168*
X02171Y00106*
X02183Y00097*
X02196Y00091*
X02211Y0009*
X02225Y00091*
X02238Y00097*
X0225Y00106*
X02253Y0011*
X02268*
X02271Y00106*
X02283Y00097*
X02296Y00091*
X02311Y0009*
X02325Y00091*
X02338Y00097*
X0235Y00106*
X02359Y00117*
X02364Y00131*
X02366Y00145*
Y00161*
X02364Y00175*
X02359Y00189*
X0235Y002*
X02338Y00209*
X02325Y00215*
X02311Y00216*
G37*
G36*
X00255Y0113D02*
X00208D01*
X00209Y01121*
X00215Y01108*
X00223Y01097*
X00234Y01089*
X00247Y01084*
X00255Y01083*
Y0113*
G37*
G36*
X03085Y00223D02*
X03053D01*
X03054Y00218*
X03057Y00209*
X03063Y00201*
X03071Y00195*
X0308Y00191*
X03085Y00191*
Y00223*
G37*
G36*
X02876Y00227D02*
X02842D01*
X02843Y00222*
X02847Y00212*
X02853Y00204*
X02862Y00197*
X02871Y00193*
X02876Y00193*
Y00227*
G37*
G36*
X03204Y03283D02*
X03155D01*
Y03233*
X03164Y03234*
X03177Y03239*
X03189Y03248*
X03198Y0326*
X03203Y03273*
X03204Y03283*
G37*
G36*
X02234Y03316D02*
X02174D01*
Y03262*
X02234*
Y03316*
G37*
G36*
X00656Y03227D02*
X00604D01*
Y03204*
X00607*
X0061Y03193*
X00609Y03192*
X00603Y03187*
X00598Y03181*
X00595Y03173*
X00594Y0317*
X00657*
X00656Y03173*
X00653Y03181*
X00648Y03187*
X00642Y03192*
X00642Y03193*
X00644Y03204*
X00656*
Y03227*
G37*
G36*
X03056Y03402D02*
Y03337D01*
Y03272*
X03063Y03273*
X03074Y03276*
X03083Y03281*
X03087Y0328*
X03096Y03276*
X03096Y03273*
X03101Y0326*
X0311Y03248*
X03122Y03239*
X03135Y03234*
X03145Y03233*
Y03288*
Y03342*
X03135Y03341*
X03122Y03336*
X0311Y03342*
Y03343*
X03109Y03354*
X03106Y03365*
X031Y03376*
X03093Y03385*
X03084Y03392*
X03074Y03397*
X03063Y03401*
X03056Y03402*
G37*
G36*
X03046Y03332D02*
X02992D01*
Y03331*
X02993Y03319*
X02996Y03308*
X03002Y03298*
X03009Y03289*
X03018Y03282*
X03028Y03276*
X0304Y03273*
X03046Y03272*
Y03332*
G37*
G36*
X01326Y03345D02*
X01274D01*
X01275Y03335*
X01281Y03321*
X0129Y03309*
X01302Y033*
X01316Y03294*
X01326Y03293*
Y03345*
G37*
G36*
X02164Y0338D02*
X02104D01*
Y03326*
X02164*
Y0338*
G37*
G36*
X00397Y03332D02*
X00343D01*
Y03272*
X0035Y03273*
X00361Y03276*
X00371Y03282*
X0038Y03289*
X00387Y03298*
X00393Y03308*
X00396Y03319*
X00397Y03331*
Y03332*
G37*
G36*
X03155Y03342D02*
Y03293D01*
X03204*
X03203Y03302*
X03198Y03315*
X03189Y03327*
X03177Y03336*
X03164Y03341*
X03155Y03342*
G37*
G36*
X02988Y02996D02*
X02974Y02994D01*
X02962Y02989*
X02951Y02981*
X02944Y02972*
X02938Y02971*
X02931Y02972*
X02924Y02981*
X02914Y02989*
X02901Y02994*
X02888Y02996*
X02874Y02994*
X02862Y02989*
X02851Y02981*
X02843Y0297*
X02838Y02958*
X02836Y02944*
X02838Y02931*
X02843Y02919*
X02851Y02908*
X02862Y029*
X02868Y02897*
Y02868*
X02856*
Y0282*
Y02813*
Y02801*
Y02786*
X02889*
X02923*
Y02801*
Y02809*
Y0282*
Y02868*
X0291*
Y02898*
X02914Y029*
X02924Y02908*
X02931Y02917*
X02938Y02918*
X02944Y02917*
X02951Y02908*
X02962Y029*
X02974Y02895*
X02988Y02893*
X03001Y02895*
X03014Y029*
X03024Y02908*
X03032Y02919*
X03038Y02931*
X03039Y02944*
X03038Y02958*
X03032Y0297*
X03024Y02981*
X03014Y02989*
X03001Y02994*
X02988Y02996*
G37*
G36*
X03046Y03056D02*
X02992D01*
Y03055*
X02993Y03044*
X02996Y03033*
X03002Y03022*
X03009Y03013*
X03018Y03006*
X03028Y03*
X0304Y02997*
X03046Y02996*
Y03056*
G37*
G36*
X00235Y03165D02*
X00225Y03164D01*
X00212Y03159*
X002Y0315*
X00191Y03138*
X00186Y03125*
X00185Y03115*
X00235*
Y03165*
G37*
G36*
X0315Y03166D02*
X03135Y03164D01*
X03122Y03159*
X0311Y0315*
X03101Y03138*
X03096Y03125*
X03096Y03122*
X03087Y03118*
X03083Y03117*
X03074Y03122*
X03063Y03125*
X03056Y03126*
Y03061*
Y02996*
X03063Y02997*
X03074Y03*
X03084Y03006*
X03093Y03013*
X031Y03022*
X03106Y03033*
X03109Y03044*
X0311Y03055*
Y03056*
X03122Y03062*
X03135Y03057*
X0315Y03055*
X03164Y03057*
X03177Y03062*
X03189Y03071*
X03198Y03083*
X03203Y03096*
X03205Y0311*
X03203Y03125*
X03198Y03138*
X03189Y0315*
X03177Y03159*
X03164Y03164*
X0315Y03166*
G37*
G36*
X00235Y03105D02*
X00185D01*
X00186Y03096*
X00191Y03083*
X002Y03071*
X00212Y03062*
X00225Y03057*
X00235Y03055*
Y03105*
G37*
G36*
X03046Y03126D02*
X0304Y03125D01*
X03028Y03122*
X03018Y03116*
X03009Y03109*
X03002Y031*
X02996Y0309*
X02993Y03079*
X02992Y03067*
Y03066*
X03046*
Y03126*
G37*
G36*
X00333Y03402D02*
X00326Y03401D01*
X00315Y03397*
X00305Y03392*
X00296Y03385*
X00289Y03376*
X00283Y03365*
X0028Y03354*
X00279Y03343*
Y03342*
X00267Y03336*
X00254Y03341*
X0024Y03343*
X00225Y03341*
X00212Y03336*
X002Y03327*
X00191Y03315*
X00186Y03302*
X00184Y03288*
X00186Y03273*
X00191Y0326*
X002Y03248*
X00212Y03239*
X00225Y03234*
X0024Y03232*
X00254Y03234*
X00267Y03239*
X00279Y03248*
X00288Y0326*
X00293Y03273*
X00294Y03276*
X00302Y0328*
X00306Y03281*
X00315Y03276*
X00326Y03273*
X00333Y03272*
Y03337*
Y03402*
G37*
G36*
X02638Y03559D02*
X02604D01*
Y03525*
X02638*
Y03559*
G37*
G36*
X02495Y03589D02*
X02435D01*
Y03535*
X02495*
Y03589*
G37*
G36*
X00428Y03542D02*
X00378D01*
X00379Y03532*
X00384Y03519*
X00393Y03507*
X00405Y03499*
X00418Y03493*
X00428Y03492*
Y03542*
G37*
G36*
X02077Y03548D02*
X02072Y03548D01*
X02063Y03544*
X02056Y03538*
X0205Y0353*
X02046Y03521*
X02045Y03516*
X02077*
Y03548*
G37*
G36*
X02234Y03589D02*
X02174D01*
Y03535*
X02234*
Y03589*
G37*
G36*
X00428Y03602D02*
X00418Y036D01*
X00405Y03595*
X00393Y03586*
X00384Y03575*
X00379Y03561*
X00378Y03552*
X00428*
Y03602*
G37*
G36*
X02638Y03603D02*
X02604D01*
Y03569*
X02638*
Y03603*
G37*
G36*
X02565Y03589D02*
X02505D01*
Y03535*
X02565*
Y03589*
G37*
G36*
X02164D02*
X02104D01*
Y03556*
X02092Y03548*
X02092Y03548*
X02087Y03548*
Y03511*
Y03474*
X02092Y03475*
X02092Y03475*
X02104Y03471*
X02164*
Y0353*
Y03589*
G37*
G36*
X01326Y03407D02*
X01316Y03406D01*
X01302Y034*
X0129Y03391*
X01281Y03379*
X01275Y03365*
X01274Y03355*
X01326*
Y03407*
G37*
G36*
X00656Y03409D02*
X00604D01*
Y03387*
X00656*
Y03409*
G37*
G36*
X03046Y03402D02*
X0304Y03401D01*
X03028Y03397*
X03018Y03392*
X03009Y03385*
X03002Y03376*
X02996Y03365*
X02993Y03354*
X02992Y03343*
Y03342*
X03046*
Y03402*
G37*
G36*
X00343D02*
Y03342D01*
X00397*
Y03343*
X00396Y03354*
X00393Y03365*
X00387Y03376*
X0038Y03385*
X00371Y03392*
X00361Y03397*
X0035Y03401*
X00343Y03402*
G37*
G36*
X00718Y03409D02*
X00666D01*
Y03387*
X00718*
Y03409*
G37*
G36*
X02565Y03525D02*
X02505D01*
Y03471*
X02565*
Y03525*
G37*
G36*
X02077Y03506D02*
X02045D01*
X02046Y03502*
X0205Y03492*
X02056Y03485*
X02063Y03479*
X02072Y03475*
X02077Y03474*
Y03506*
G37*
G36*
X02234Y03525D02*
X02174D01*
Y03471*
X02234*
Y03525*
G37*
G36*
X02495D02*
X02435D01*
Y03471*
X02495*
Y03525*
G37*
G36*
X00343Y02897D02*
Y02837D01*
X00397*
Y02838*
X00396Y02849*
X00393Y0286*
X00387Y02871*
X0038Y0288*
X00371Y02887*
X00361Y02892*
X0035Y02896*
X00343Y02897*
G37*
G36*
X01148Y02427D02*
X01102D01*
X01103Y02418*
X01108Y02406*
X01117Y02395*
X01127Y02387*
X0114Y02382*
X01148Y02381*
Y02427*
G37*
G36*
Y02483D02*
X0114Y02482D01*
X01127Y02476*
X01117Y02468*
X01108Y02457*
X01103Y02445*
X01102Y02437*
X01148*
Y02483*
G37*
G36*
X00928Y0194D02*
X00919Y01939D01*
X00907Y01934*
X00896Y01926*
X00888Y01915*
X00883Y01903*
X00882Y01894*
X00928*
Y0194*
G37*
G36*
X00938D02*
Y01894D01*
X00984*
X00982Y01903*
X00977Y01915*
X00969Y01926*
X00958Y01934*
X00946Y01939*
X00938Y0194*
G37*
G36*
X01357Y01936D02*
X01348Y01935D01*
X01336Y0193*
X01325Y01922*
X01317Y01911*
X01312Y01899*
X01311Y0189*
X01357*
Y01936*
G37*
G36*
X00302Y02039D02*
X00293Y02038D01*
X00279Y02034*
X00267Y02027*
X00256Y02018*
X00247Y02008*
X00241Y01995*
X00237Y01982*
X00235Y01968*
Y0193*
X00302*
Y02039*
G37*
G36*
X00312D02*
Y0193D01*
X00378*
Y01968*
X00376Y01982*
X00372Y01995*
X00366Y02008*
X00357Y02018*
X00346Y02027*
X00334Y02034*
X00321Y02038*
X00312Y02039*
G37*
G36*
X00245Y0266D02*
Y02605D01*
Y0255*
X00254Y02552*
X00267Y02557*
X00279Y02551*
Y0255*
X0028Y02539*
X00283Y02528*
X00289Y02517*
X00296Y02508*
X00305Y02501*
X00315Y02495*
X00326Y02492*
X00333Y02491*
Y02556*
Y02621*
X00326Y0262*
X00315Y02617*
X00306Y02612*
X00302Y02613*
X00294Y02617*
X00293Y0262*
X00288Y02633*
X00279Y02645*
X00267Y02654*
X00254Y02659*
X00245Y0266*
G37*
G36*
X02884Y02776D02*
X02856D01*
Y02753*
X02884*
Y02776*
G37*
G36*
X02923D02*
X02894D01*
Y02753*
X02923*
Y02776*
G37*
G36*
X03056Y02897D02*
Y02832D01*
Y02767*
X03063Y02768*
X03074Y02771*
X03083Y02776*
X03087Y02775*
X03096Y02771*
X03096Y02768*
X03101Y02755*
X0311Y02743*
X03122Y02734*
X03135Y02729*
X03145Y02728*
Y02783*
Y02837*
X03135Y02836*
X03122Y02831*
X0311Y02837*
Y02838*
X03109Y02849*
X03106Y0286*
X031Y02871*
X03093Y0288*
X03084Y02887*
X03074Y02892*
X03063Y02896*
X03056Y02897*
G37*
G36*
X03204Y02778D02*
X03155D01*
Y02728*
X03164Y02729*
X03177Y02734*
X03189Y02743*
X03198Y02755*
X03203Y02768*
X03204Y02778*
G37*
G36*
X03046Y02827D02*
X02992D01*
Y02826*
X02993Y02814*
X02996Y02803*
X03002Y02793*
X03009Y02784*
X03018Y02777*
X03028Y02771*
X0304Y02768*
X03046Y02767*
Y02827*
G37*
G36*
X00333Y02897D02*
X00326Y02896D01*
X00315Y02892*
X00305Y02887*
X00296Y0288*
X00289Y02871*
X00283Y0286*
X0028Y02849*
X00279Y02838*
Y02837*
X00267Y02831*
X00254Y02836*
X0024Y02838*
X00225Y02836*
X00212Y02831*
X002Y02822*
X00191Y0281*
X00186Y02797*
X00184Y02783*
X00186Y02768*
X00191Y02755*
X002Y02743*
X00212Y02734*
X00225Y02729*
X0024Y02727*
X00254Y02729*
X00267Y02734*
X00279Y02743*
X00288Y02755*
X00293Y02768*
X00294Y02771*
X00302Y02775*
X00306Y02776*
X00315Y02771*
X00326Y02768*
X00333Y02767*
Y02832*
Y02897*
G37*
G36*
X03046D02*
X0304Y02896D01*
X03028Y02892*
X03018Y02887*
X03009Y0288*
X03002Y02871*
X02996Y0286*
X02993Y02849*
X02992Y02838*
Y02837*
X03046*
Y02897*
G37*
G36*
X00397Y02827D02*
X00343D01*
Y02767*
X0035Y02768*
X00361Y02771*
X00371Y02777*
X0038Y02784*
X00387Y02793*
X00393Y02803*
X00396Y02814*
X00397Y02826*
Y02827*
G37*
G36*
X03155Y02837D02*
Y02788D01*
X03204*
X03203Y02797*
X03198Y0281*
X03189Y02822*
X03177Y02831*
X03164Y02836*
X03155Y02837*
G37*
G36*
X00343Y02621D02*
Y02561D01*
X00397*
Y02562*
X00396Y02574*
X00393Y02585*
X00387Y02595*
X0038Y02604*
X00371Y02611*
X00361Y02617*
X0035Y0262*
X00343Y02621*
G37*
G36*
X00235Y0266D02*
X00225Y02659D01*
X00212Y02654*
X002Y02645*
X00191Y02633*
X00186Y0262*
X00185Y0261*
X00235*
Y0266*
G37*
G36*
X00397Y02551D02*
X00343D01*
Y02491*
X0035Y02492*
X00361Y02495*
X00371Y02501*
X0038Y02508*
X00387Y02517*
X00393Y02528*
X00396Y02539*
X00397Y0255*
Y02551*
G37*
G36*
X00235Y026D02*
X00185D01*
X00186Y02591*
X00191Y02578*
X002Y02566*
X00212Y02557*
X00225Y02552*
X00235Y0255*
Y026*
G37*
G36*
X02828Y02679D02*
X02806D01*
Y0265*
X02828*
Y02679*
G37*
%LNrelaytester-3*%
%LPD*%
G54D10*
X00098Y03444D03*
X0307Y00078D03*
X00315D03*
X00933Y01362D03*
X02598Y02464D03*
X02551Y02543D03*
X00366Y01448D03*
X00287Y01409D03*
X00326D03*
X00315Y01307D03*
X00354D03*
X00378Y02342D03*
Y02393D03*
Y02444D03*
G54D11*
X00929Y02885D03*
X00519D03*
X00929Y02374D03*
X00519D03*
G54D12*
X0134Y01413D03*
X01265D03*
X01303Y01334D03*
X03076Y01413D03*
X03002D03*
X03039Y01334D03*
X02446Y01413D03*
X02372D03*
X02409Y01334D03*
X01816Y01413D03*
X01742D03*
X01779Y01334D03*
X01179Y01413D03*
X01104D03*
X01141Y01334D03*
X02919Y01413D03*
X02844D03*
X02881Y01334D03*
X02289Y01413D03*
X02214D03*
X02252Y01334D03*
X01659Y01413D03*
X01584D03*
X01622Y01334D03*
X01017Y01413D03*
X00942D03*
X0098Y01334D03*
X02761Y01413D03*
X02687D03*
X02724Y01334D03*
X02129Y01413D03*
X02055D03*
X02092Y01334D03*
X01502Y01413D03*
X01427D03*
X01464Y01334D03*
X02604Y01413D03*
X02529D03*
X02566Y01334D03*
X01974Y01413D03*
X01899D03*
X01937Y01334D03*
G54D13*
X03009Y01468D03*
X03068D03*
X02379D03*
X02439D03*
X0175D03*
X01809D03*
X01112D03*
X01171D03*
X02222D03*
X02281D03*
X01592D03*
X01651D03*
X00992D03*
X01051D03*
X02692D03*
X02752D03*
X02061D03*
X0212D03*
X01435D03*
X01494D03*
X02537D03*
X02596D03*
X01907D03*
X01966D03*
X01273D03*
X01332D03*
X02742Y02645D03*
X02801D03*
X02037Y03063D03*
X01978D03*
X01952Y02293D03*
X02012D03*
X01726Y03039D03*
X01667D03*
X02704Y03474D03*
X02645D03*
X02181Y02574D03*
X0224D03*
X02181Y02639D03*
X0224D03*
X00866Y03165D03*
X00807D03*
X01391Y01535D03*
X01332D03*
X02025D03*
X01966D03*
X02655D03*
X02596D03*
X01289Y01279D03*
X0123D03*
X01923D03*
X01864D03*
X02553D03*
X02494D03*
X01553Y01535D03*
X01494D03*
X02179D03*
X0212D03*
X02811D03*
X02752D03*
X01448Y01279D03*
X01389D03*
X02078D03*
X02019D03*
X0271D03*
X02651D03*
X01108Y01535D03*
X01049D03*
X0171D03*
X01651D03*
X02305D03*
X02246D03*
X0295D03*
X02891D03*
X00972Y01279D03*
X00913D03*
X01608D03*
X01549D03*
X02238D03*
X02179D03*
X02868D03*
X02809D03*
X0123Y01535D03*
X01171D03*
X01868D03*
X01809D03*
X02498D03*
X02439D03*
X03009D03*
X03068D03*
X01131Y01279D03*
X01072D03*
X01765D03*
X01706D03*
X02395D03*
X02336D03*
X03025D03*
X02966D03*
X02852Y01468D03*
X02911D03*
G54D14*
X02649Y02513D03*
Y02572D03*
X01515Y02535D03*
Y02476D03*
X02263Y02746D03*
Y02805D03*
X00956Y03328D03*
Y03387D03*
X02334Y02746D03*
Y02805D03*
X02889Y02781D03*
Y0284D03*
X02397Y03197D03*
Y03138D03*
X02327Y03197D03*
Y03138D03*
X02257Y03197D03*
Y03138D03*
X02173Y03139D03*
Y03198D03*
X02799Y02398D03*
Y02339D03*
X02728Y02398D03*
Y02339D03*
X01881Y02348D03*
Y02289D03*
X00956Y03269D03*
Y0321D03*
X01909Y03169D03*
Y0311D03*
G54D15*
X02181Y02724D03*
Y02842D03*
G54D16*
X02801Y02476D03*
X02726D03*
G54D17*
X02726Y0257D03*
X02763D03*
X02801D03*
G54D18*
X00661Y03382D03*
Y03332D03*
Y03282D03*
Y03232D03*
X0085Y03382D03*
Y03332D03*
Y03282D03*
Y03232D03*
G54D19*
X02643Y03564D03*
X02726D03*
G54D20*
X02326Y02653D03*
Y02606D03*
Y02559D03*
G54D21*
X01346Y0122D03*
X01309D03*
X01271D03*
Y01118D03*
X01346D03*
X01309D03*
X01939D03*
X01976D03*
X01901D03*
Y0122D03*
X01939D03*
X01976D03*
X02606D03*
X02568D03*
X02531D03*
Y01118D03*
X02606D03*
X02568D03*
X01503Y0122D03*
X01466D03*
X01429D03*
Y01118D03*
X01503D03*
X01466D03*
X02096D03*
X02133D03*
X02059D03*
Y0122D03*
X02096D03*
X02133D03*
X02763D03*
X02726D03*
X02689D03*
Y01118D03*
X02763D03*
X02726D03*
X00994D03*
X01031D03*
X00956D03*
Y0122D03*
X00994D03*
X01031D03*
X01661D03*
X01624D03*
X01586D03*
Y01118D03*
X01661D03*
X01624D03*
X02253D03*
X02291D03*
X02216D03*
Y0122D03*
X02253D03*
X02291D03*
X02921D03*
X02883D03*
X02846D03*
Y01118D03*
X02921D03*
X02883D03*
X01151D03*
X01189D03*
X01114D03*
Y0122D03*
X01151D03*
X01189D03*
X01818D03*
X01781D03*
X01744D03*
Y01118D03*
X01818D03*
X01781D03*
X02411D03*
X02448D03*
X02374D03*
Y0122D03*
X02411D03*
X02448D03*
X03078D03*
X03041D03*
X03003D03*
Y01118D03*
X03078D03*
X03041D03*
G54D22*
X01985Y02437D03*
X01965D03*
X01945D03*
X01926D03*
X01906D03*
X01886D03*
X01867D03*
X01847D03*
X01827D03*
X01807D03*
X01788D03*
X01768D03*
X01748D03*
X01729D03*
X01709D03*
X01689D03*
Y0289D03*
X01709D03*
X01729D03*
X01748D03*
X01768D03*
X01788D03*
X01807D03*
X01827D03*
X01847D03*
X01867D03*
X01886D03*
X01906D03*
X01926D03*
X01945D03*
X01965D03*
X01985D03*
G54D23*
X01611Y02516D03*
Y02536D03*
Y02555D03*
Y02575D03*
Y02595D03*
Y02614D03*
Y02634D03*
Y02654D03*
Y02673D03*
Y02693D03*
Y02713D03*
Y02732D03*
Y02752D03*
Y02772D03*
Y02791D03*
Y02811D03*
X02063D03*
Y02791D03*
Y02772D03*
Y02752D03*
Y02732D03*
Y02713D03*
Y02693D03*
Y02673D03*
Y02654D03*
Y02634D03*
Y02614D03*
Y02595D03*
Y02575D03*
Y02555D03*
Y02536D03*
Y02516D03*
G54D24*
X02272Y03309D03*
X02303D03*
X02335D03*
X02366D03*
X02398D03*
G54D25*
X025Y03321D03*
X02169D03*
X025Y0353D03*
X02169D03*
G54D26*
X03055Y01696D03*
Y02106D03*
G54D27*
X02801Y02641D02*
X02805Y02645D01*
X02598Y02456D02*
X02606Y02464D01*
X00661Y03332D02*
X0085D01*
X00307Y01901D02*
X00317Y01918D01*
X00307Y01929D02*
X00317Y01918D01*
X01807Y01614D02*
Y01661D01*
X0175Y01557D02*
X01807Y01614D01*
X0175Y01468D02*
Y01557D01*
X02746Y02624D02*
Y02645D01*
X00216Y01618D02*
X00311D01*
X00194Y01639D02*
X00216Y01618D01*
X01196Y02732D02*
X012Y02736D01*
X00732Y03248D02*
X00766Y03282D01*
X00732Y03149D02*
Y03248D01*
X00728Y03145D02*
X00732Y03149D01*
X00901Y03196D02*
X00929Y03169D01*
X00866Y03196D02*
Y03228D01*
Y03196D02*
X00901D01*
X00766Y03282D02*
X0085D01*
X00862Y03232D02*
X00866Y03228D01*
X0085Y03232D02*
X00862D01*
X00661Y03332D02*
Y03382D01*
Y03282D02*
Y03332D01*
Y03232D02*
Y03282D01*
X00586Y03614D02*
X01799D01*
X01834Y03578*
X0032Y02551D02*
D01*
X01742Y01378D02*
Y01413D01*
X01332Y01421D02*
X0134Y01413D01*
X01494Y01421D02*
X01502Y01413D01*
X01651Y01421D02*
X01659Y01413D01*
X0175Y01421D02*
Y01468D01*
X01809Y01421D02*
X01816Y01413D01*
X01966Y01421D02*
X01974Y01413D01*
X0212Y01423D02*
X02129Y01413D01*
X02281Y01421D02*
X02289Y01413D01*
X02281Y01421D02*
Y01468D01*
X02246Y01525D02*
X02275Y01496D01*
Y01474D02*
Y01496D01*
Y01474D02*
X02281Y01468D01*
X02246Y01525D02*
Y01535D01*
X02439Y01421D02*
X02446Y01413D01*
X02596Y01421D02*
X02604Y01413D01*
X02596Y01421D02*
Y01468D01*
D01*
Y01535D01*
X02752Y01423D02*
X02761Y01413D01*
X02752Y01423D02*
Y01468D01*
D01*
Y01535D01*
X02897Y01511D02*
Y01523D01*
Y01511D02*
X02911Y01498D01*
Y01421D02*
X02919Y01413D01*
X02911Y01421D02*
Y01468D01*
X03068Y01421D02*
X03076Y01413D01*
X03068Y01421D02*
Y01468D01*
X01173Y01419D02*
Y0146D01*
Y01419D02*
X01179Y01413D01*
X01171Y01535D02*
D01*
Y01468D02*
Y01535D01*
X00948Y03484D02*
X01023Y03409D01*
Y03244D02*
Y03409D01*
Y03244D02*
X01043Y03224D01*
X00775Y03484D02*
X00948D01*
X00733Y03526D02*
X00775Y03484D01*
X02881Y00145D02*
Y00232D01*
Y00145D02*
X02948Y00078D01*
X00476Y00039D02*
X02909D01*
X00212Y00303D02*
X00476Y00039D01*
X02909D02*
X02948Y00078D01*
X02452Y02472D02*
Y0285D01*
X02224Y02244D02*
X02452Y02472D01*
X02224Y02063D02*
Y02244D01*
X02879Y02626D02*
X03051D01*
X00153Y00303D02*
X00212D01*
X00102Y00354D02*
X00153Y00303D01*
X00102Y00354D02*
Y00429D01*
X00551Y00376D02*
X00555Y00372D01*
X02689Y02572D02*
X02724D01*
X02801Y02533D02*
Y0257D01*
X02791Y02523D02*
X02801Y02533D01*
X02724Y02572D02*
X02726Y0257D01*
X02801Y024D02*
Y02476D01*
X02726Y024D02*
X02728Y02398D01*
X02726Y024D02*
Y02433D01*
X02728Y02339D02*
X02799D01*
X00338Y03061D02*
Y03337D01*
X01063Y03275D02*
Y03417D01*
X01043Y03224D02*
X01063D01*
X00533Y0356D02*
X00586Y03614D01*
X02531Y0244D02*
Y02523D01*
X02551Y02543*
X02649Y02572D02*
X02689D01*
X02633Y02339D02*
X02728D01*
X02531Y0244D02*
X02633Y02339D01*
X02746Y02624D02*
X02763Y02606D01*
Y0257D02*
Y02606D01*
X02342Y0296D02*
X02452Y0285D01*
X02133Y0296D02*
X02342D01*
X02063Y02815D02*
Y0289D01*
X02133Y0296*
X00896Y00452D02*
X00897Y00453D01*
X00102Y00429D02*
X002Y00527D01*
X02224Y02063D02*
X02236Y02051D01*
X02742Y02645D02*
Y02702D01*
X02744Y02704*
X02726Y02433D02*
Y02476D01*
X00252Y0298D02*
X00372D01*
X00439Y03047*
X0035Y01311D02*
X00354Y01307D01*
X01078Y02724D02*
Y02826D01*
X01055Y027D02*
X01078Y02724D01*
X03066Y0161D02*
X03137Y01539D01*
Y01413D02*
Y01539D01*
X02846Y0161D02*
X03066D01*
X02748Y01708D02*
X02846Y0161D01*
X03068Y01468D02*
Y01535D01*
X0222Y01933D02*
X02255Y01968D01*
X0222Y01677D02*
Y01933D01*
Y01677D02*
X02295Y01602D01*
X02299Y01606*
X02303*
X02283Y01708D02*
X02374Y01618D01*
Y01574D02*
Y01578D01*
Y01618*
X02055Y01376D02*
X02529D01*
X0085Y03332D02*
X00953D01*
X00956Y03328*
X00318Y02556D02*
X0032Y02551D01*
X00338Y02086D02*
Y02507D01*
X00307Y01929D02*
Y02055D01*
X02911Y01468D02*
Y01498D01*
X00307Y02055D02*
X00338Y02086D01*
X02681Y02433D02*
X02726D01*
X02606Y02464D02*
X02649D01*
X02681Y02433*
X02726Y02476D02*
Y0252D01*
X02729Y02523*
X02791*
X02859Y02645D02*
X02879Y02626D01*
X02801Y0257D02*
Y02641D01*
Y02645*
X02805*
X02859*
X02543Y01708D02*
X02748D01*
X02437Y01815D02*
X02543Y01708D01*
X02437Y01815D02*
Y02381D01*
X02503Y02448*
Y02752*
X02476Y03051D02*
Y03129D01*
X02586Y02838D02*
X02626Y02799D01*
X02586Y02838D02*
Y0294D01*
X02476Y03051D02*
X02586Y0294D01*
X00439Y03047D02*
X01129D01*
X012Y02976*
Y02736D02*
Y02976D01*
X00944Y01374D02*
X01822D01*
X01838Y01358*
X01881*
X01897Y01374*
X02878Y01378D02*
X02879Y01376D01*
X02645Y01374D02*
Y01468D01*
X01897Y01374D02*
X02645D01*
X02761*
X02822Y01358D02*
X0284Y01376D01*
X02879*
X03002*
X01966Y01421D02*
Y01535D01*
X01651Y01421D02*
Y01535D01*
X01165Y01468D02*
X01173Y0146D01*
X01494Y01421D02*
Y01535D01*
X01809Y01421D02*
Y01535D01*
X0212Y01423D02*
Y01535D01*
X02439Y01421D02*
Y01535D01*
X01332Y01421D02*
Y01535D01*
X00866Y03159D02*
Y03196D01*
X01834Y03548D02*
Y03578D01*
X01833Y03547D02*
X01834Y03548D01*
X00533Y03547D02*
Y0356D01*
X00733Y03526D02*
Y03547D01*
X02503Y02752D02*
X02523Y02771D01*
X03129Y01405D02*
X03137Y01413D01*
X00933Y03547D02*
X01063Y03417D01*
X00047Y0059D02*
Y02775D01*
Y0059D02*
X00114Y00523D01*
X00047Y02775D02*
X00252Y0298D01*
G54D28*
X02082Y03511D02*
X02169D01*
X02035Y03035D02*
Y0307D01*
X02393Y02606D02*
Y027D01*
X0174Y02574D02*
Y02748D01*
X01106Y01468D02*
X0111Y01464D01*
X00927Y01362D02*
X00942Y01378D01*
X02696Y01665D02*
X02724Y01637D01*
X02012Y02293D02*
Y02425D01*
X01985Y0243D02*
X02007D01*
X0107Y01149D02*
Y01279D01*
X01226Y01151D02*
Y01279D01*
X00927Y01362D02*
X00933D01*
X01017Y01413D02*
X01043D01*
X01051Y01421*
X01108Y01535D02*
X0111D01*
X0056Y01332D02*
X00673Y01444D01*
X0056Y01235D02*
Y01332D01*
X00897Y01787D02*
X01413D01*
X00874Y01826D02*
X01393D01*
X007Y01653D02*
X00874Y01826D01*
X00673Y01653D02*
X007D01*
X01114Y02815D02*
X01141Y02842D01*
X0007Y02759D02*
X00272Y02961D01*
X00641Y03066D02*
X01385D01*
X00673Y03086D02*
X0137D01*
X00637Y03122D02*
X00673Y03086D01*
X01Y03189D02*
Y03208D01*
X00931Y0312D02*
X01Y03189D01*
X00805Y0312D02*
X00931D01*
X00805D02*
Y03161D01*
X01161Y02807D02*
X01177Y02822D01*
X00944Y03282D02*
X00956Y03269D01*
X0085Y03282D02*
X00944D01*
X01Y03208D02*
Y03378D01*
X00998Y0321D02*
X01Y03208D01*
X00956Y0321D02*
X00998D01*
X0099Y03387D02*
X01Y03378D01*
X00956Y03387D02*
X0099D01*
X00951Y03382D02*
X00956Y03387D01*
X0085Y03382D02*
X00951D01*
X01901Y0185D02*
Y02104D01*
X01799Y01748D02*
X01901Y0185D01*
X01883Y01864D02*
Y02096D01*
X01594Y01574D02*
X01883Y01864D01*
X01633Y01582D02*
X01799Y01748D01*
X01729Y02262D02*
Y02268D01*
X01729Y02262D02*
X01729Y02262D01*
X01729Y02251D02*
Y02262D01*
Y02251D02*
X01883Y02096D01*
X01748Y02256D02*
X01901Y02104D01*
X01842Y02192D02*
X01925Y0211D01*
X01948Y01657D02*
Y02114D01*
X0187Y01578D02*
X01948Y01657D01*
X01972Y01629D02*
Y02236D01*
Y01629D02*
X02025Y01576D01*
X02208Y02007D02*
X02279D01*
X02149Y02066D02*
X02208Y02007D01*
X02149Y02066D02*
Y02539D01*
X02687Y01378D02*
Y01413D01*
X02529Y01376D02*
Y01413D01*
X01899Y01378D02*
Y01413D01*
X01584Y01378D02*
Y01413D01*
X01427Y01378D02*
Y01413D01*
X01265Y01378D02*
Y01413D01*
X01104Y01378D02*
Y01413D01*
X00942Y01378D02*
Y01413D01*
X01448Y01318D02*
X01464Y01334D01*
X01448Y01279D02*
Y01318D01*
X01608Y0132D02*
X01622Y01334D01*
X01608Y01279D02*
Y0132D01*
X01765D02*
X01779Y01334D01*
X01765Y01279D02*
Y0132D01*
X01923D02*
X01937Y01334D01*
X01923Y01279D02*
Y0132D01*
X02078D02*
X02092Y01334D01*
X02078Y01279D02*
Y0132D01*
X02238D02*
X02252Y01334D01*
X02238Y01279D02*
Y0132D01*
X02553D02*
X02566Y01334D01*
X02553Y01279D02*
Y0132D01*
X0271D02*
X02724Y01334D01*
X0271Y01279D02*
Y0132D01*
X02868D02*
X02881Y01334D01*
X02868Y01279D02*
Y0132D01*
X03025D02*
X03039Y01334D01*
X03025Y01279D02*
Y0132D01*
X03003Y01252D02*
X03023Y01271D01*
X03003Y0122D02*
Y01252D01*
X02846D02*
X02866Y01271D01*
X02846Y0122D02*
Y01252D01*
X02689D02*
X02712Y01275D01*
X02689Y0122D02*
Y01252D01*
X02531D02*
X02551Y01271D01*
X02531Y0122D02*
Y01252D01*
X02374Y01248D02*
X02397Y01271D01*
X02374Y0122D02*
Y01248D01*
X02216Y01252D02*
X02236Y01271D01*
X02216Y0122D02*
Y01252D01*
X02059D02*
X02082Y01275D01*
X02059Y0122D02*
Y01252D01*
X01901Y01248D02*
X01925Y01271D01*
X01901Y0122D02*
Y01248D01*
X01744Y01252D02*
X01767Y01275D01*
X01744Y0122D02*
Y01252D01*
X01586D02*
X01606Y01271D01*
X01586Y0122D02*
Y01252D01*
X01429D02*
X01444Y01267D01*
X01429Y0122D02*
Y01252D01*
X00956Y0122D02*
Y01255D01*
X00972Y01271*
Y01279*
X0111Y01535D02*
X01204Y01629D01*
X01235Y0153D02*
X01262D01*
X01265Y01413D02*
X01273Y01421D01*
Y01468*
X01427Y01413D02*
X01435Y01421D01*
Y01468*
X01584Y01413D02*
X01592Y01421D01*
Y01468*
X01742Y01413D02*
X0175Y01421D01*
X01899Y01413D02*
X01907Y01421D01*
Y01468*
X02055Y01413D02*
X02061Y01419D01*
Y01468*
X02214Y01413D02*
X02222Y01421D01*
Y01468*
X02372Y01413D02*
X02379Y01421D01*
Y01468*
X02529Y01413D02*
X02537Y01421D01*
Y01468*
X02687Y01413D02*
X02692Y01419D01*
Y01468*
X02852Y01421D02*
Y01468D01*
X03002Y01413D02*
X03009Y01421D01*
Y01468*
X02633Y01626D02*
X02678Y01581D01*
X02653Y01543D02*
Y0157D01*
X02618Y01606D02*
X02653Y0157D01*
X02025Y01535D02*
Y01576D01*
X01594Y01626D02*
X01692Y01724D01*
X01468Y01574D02*
X01594D01*
X01543Y01626D02*
X01669Y01752D01*
X01543Y0161D02*
Y01626D01*
X01391Y01535D02*
X01429D01*
X01468Y01574*
X01563Y01539D02*
X0159D01*
X0187Y01551D02*
Y01578D01*
X02279Y02007D02*
X02303Y01984D01*
X02263Y02157D02*
Y02228D01*
Y02157D02*
X0233Y0209D01*
X02366Y02161D02*
X02389Y02137D01*
X02401Y02228D02*
X02413Y02216D01*
X0111Y01419D02*
Y01464D01*
X01104Y01413D02*
X0111Y01419D01*
X01295Y01326D02*
X01303Y01334D01*
X01295Y01291D02*
Y01326D01*
X01289Y01285D02*
X01295Y01291D01*
X01289Y01279D02*
Y01285D01*
X01271Y0122D02*
Y01259D01*
X01285Y01273*
X01133Y01326D02*
X01141Y01334D01*
X01114Y01255D02*
X01133Y01275D01*
X01114Y0122D02*
Y01255D01*
X00972Y01326D02*
X0098Y01334D01*
X00972Y01279D02*
Y01326D01*
X02303Y03263D02*
Y03309D01*
X02257Y03217D02*
X02303Y03263D01*
X02257Y03197D02*
Y03217D01*
X02066Y02216D02*
X02078Y02228D01*
X02007Y0243D02*
X02012Y02425D01*
X02066Y0207D02*
Y02216D01*
X02055Y02059D02*
X02066Y0207D01*
X02015Y02523D02*
X02023Y02515D01*
X02063D02*
X02063Y02516D01*
X0007Y01078D02*
Y02759D01*
Y01078D02*
X00094Y01055D01*
X02429Y02484D02*
Y02838D01*
X02185Y0224D02*
X02429Y02484D01*
X02185Y02228D02*
Y0224D01*
X02378Y02716D02*
X02393Y027D01*
X01886Y02965D02*
X01901Y0298D01*
X02169Y03321D02*
X02234D01*
X02326Y02606D02*
X02393D01*
X02794Y02373D02*
X02799Y02378D01*
Y02398*
X01952Y02294D02*
X01952Y02293D01*
X02063Y02732D02*
X02117D01*
X02129Y0272*
X02177*
X02181Y02724*
X02196Y0274*
X02181Y02842D02*
X02185Y02846D01*
X02181Y02724D02*
X02189Y02716D01*
X02332Y02748D02*
X02334Y02746D01*
X02177Y0257D02*
X02181Y02574D01*
X02275Y02559D02*
X02326D01*
X02263Y0257D02*
X02275Y02559D01*
X02244Y0257D02*
X02263D01*
X0224Y02574D02*
X02244Y0257D01*
X02279Y02653D02*
X02326D01*
X02265Y02639D02*
X02279Y02653D01*
X0224Y02639D02*
X02265D01*
X02189Y02716D02*
X02263D01*
Y02746*
X01667Y03005D02*
Y03039D01*
X01726D02*
X01728Y03037D01*
X02303Y03309D02*
X02303Y03309D01*
X02401Y03202D02*
Y03216D01*
X02397Y03197D02*
X02401Y03202D01*
X02257Y03138D02*
X02259Y03135D01*
X02599Y03564D02*
X02643D01*
X02565Y0353D02*
X02599Y03564D01*
X025Y0353D02*
X02565D01*
X02704Y03474D02*
Y03507D01*
X02716Y03519*
Y03554*
X02726Y03564*
X0315Y02783D02*
X03169Y02802D01*
X03051Y03061D02*
Y03337D01*
X02989Y02832D02*
X03051D01*
X025Y03321D02*
Y0353D01*
X02169D02*
X025D01*
X01948Y02289D02*
X01952Y02293D01*
X02063Y02614D02*
X02064Y02614D01*
X01952Y02294D02*
Y0235D01*
X01965Y02363*
X02143Y02639D02*
X02181D01*
X02064Y02614D02*
X02118D01*
X02143Y02639*
X01907Y02318D02*
X01926Y02337D01*
Y02437*
X02063Y02673D02*
X02121D01*
X02398Y03255D02*
Y03309D01*
Y03255D02*
X02413Y0324D01*
X02335Y03309D02*
X02338Y03306D01*
X02366Y03251D02*
X02401Y03216D01*
X02366Y03251D02*
Y03309D01*
X02327Y03197D02*
Y03232D01*
X02338Y03244*
Y03306*
X02413Y0324D02*
X02566D01*
X02645Y03318*
Y03474*
X025Y0353D02*
Y0361D01*
X02515Y03626*
X02937*
X03051Y03511*
Y03337D02*
Y03511D01*
X02097Y02536D02*
X02098Y02535D01*
X02063Y02536D02*
X02097D01*
X02555Y02448D02*
Y02492D01*
X02263Y02805D02*
Y02834D01*
X02185Y02846D02*
X02252D01*
X02263Y02834*
X01709Y0289D02*
Y02981D01*
X01728Y03*
Y03037*
X02063Y02752D02*
X02118D01*
X02173Y02807*
Y0283*
X01881Y02289D02*
X01921D01*
X01948*
X02576Y02513D02*
X02649D01*
X02555Y02492D02*
X02576Y02513D01*
X02169Y03321D02*
Y03511D01*
Y0353*
X02263Y02716D02*
X02378D01*
X02299Y02752D02*
X02303Y02748D01*
X02332*
X02063Y02791D02*
X02102D01*
X02118Y02807*
X02263Y02805D02*
X02293D01*
X02299Y02799*
Y02752D02*
Y02799D01*
X02704Y02374D02*
X02705Y02373D01*
X02794*
X02555Y02448D02*
X02629Y02374D01*
X02704*
X01667Y03005D02*
X01689Y02983D01*
X02327Y03138D02*
X0233Y03134D01*
X02255Y03139D02*
X02257Y03138D01*
X02216Y03139D02*
X02255D01*
X02318Y03102D02*
X0233Y03114D01*
Y03134*
X02397Y03109D02*
Y03138D01*
X0237Y03082D02*
X02397Y03109D01*
X02169Y03082D02*
X0237D01*
X02153Y03035D02*
X0237D01*
X02888Y02944D02*
X02889Y02943D01*
Y0284D02*
Y02943D01*
Y02781D02*
X02939D01*
X02989Y02832*
X01768Y0289D02*
Y02941D01*
X01779Y02952*
X01807Y02853D02*
Y0289D01*
Y02853D02*
X01822Y02838D01*
Y02834D02*
Y02838D01*
X01775Y02834D02*
Y02838D01*
X01788Y02851*
Y0289*
X01926Y02851D02*
Y0289D01*
X01897Y02822D02*
X01926Y02851D01*
X01897Y02807D02*
Y02822D01*
X02334Y02805D02*
Y02842D01*
X02326Y0285D02*
X02334Y02842D01*
X02547Y02925D02*
D01*
X0237Y03035D02*
X02531Y02874D01*
X02547*
X02362Y03007D02*
X02563Y02807D01*
X025Y03321D02*
X02585D01*
X0259Y03326*
X01886Y0289D02*
Y02965D01*
X02149Y03007D02*
X02362D01*
X01945Y02829D02*
X01948Y02826D01*
X02354Y02984D02*
X02476Y02862D01*
X0233Y02937D02*
X02429Y02838D01*
X02015Y02787D02*
X0203Y02772D01*
X01965Y02853D02*
X01988Y0283D01*
Y02771D02*
Y0283D01*
Y02771D02*
X02027Y02732D01*
X0174Y02771D02*
X01988D01*
X0174Y02574D02*
X01929D01*
X01393Y01826D02*
X01421Y01854D01*
X01413Y01787D02*
X0146Y01834D01*
X01496Y0161D02*
X01645Y01759D01*
X01484Y01629D02*
X01618Y01763D01*
X01673Y02622D02*
Y02629D01*
X01611Y02595D02*
X01646D01*
X01673Y02622*
X01611Y02555D02*
X01668D01*
X01611Y02575D02*
X01673D01*
X01685Y02586*
X01668Y02555D02*
X01681Y02543D01*
X01685*
X01611Y02536D02*
X01649D01*
X0167Y02514*
X01711*
X0174Y02543*
X01988Y02728D02*
X02D01*
X02015Y02713*
X01996Y02682D02*
X02001Y02677D01*
X01996Y02682D02*
Y02685D01*
X02004Y02693*
X02121Y02673D02*
X02122Y02673D01*
Y02669D02*
Y02673D01*
X01972Y02641D02*
X0198D01*
X01996*
X02008Y02654*
X02063Y02575D02*
X02113D01*
X02149Y02539*
X02063Y02595D02*
X02121D01*
X02145Y0257*
X02177*
X01881Y02348D02*
Y02374D01*
X01906Y02398*
Y02437*
X0174Y02543D02*
Y02574D01*
X02645Y02641D02*
X02649Y02645D01*
X02118Y02807D02*
Y02897D01*
X02157Y02937*
X0233*
X01204Y01629D02*
X01484D01*
X03051Y02556D02*
Y02626D01*
Y02832*
X01689Y0289D02*
Y02983D01*
X0159Y01539D02*
X01633Y01582D01*
X01417Y01118D02*
X01429D01*
X01259D02*
X01271D01*
X01574D02*
X01586D01*
X01732D02*
X01744D01*
X01889D02*
X01901D01*
X02047D02*
X02059D01*
X02204D02*
X02216D01*
X0236D02*
X02374D01*
X02519D02*
X02531D01*
X02677D02*
X02689D01*
X02834D02*
X02846D01*
X02992D02*
X03003D01*
X00272Y02961D02*
X00386D01*
X00452Y03027*
X00929Y02885D02*
Y0294D01*
X00563Y03145D02*
X00641Y03066D01*
X00437Y03145D02*
X00563D01*
X0036Y01235D02*
Y0125D01*
X00157Y01433D02*
X00177Y01452D01*
X0036Y0125D02*
X00897Y01787D01*
X00362Y01452D02*
X00366Y01448D01*
X00177Y01452D02*
X00362D01*
X02173Y03139D02*
X02177D01*
X01431Y0335D02*
Y03384D01*
X01468Y03421*
X01921*
X01521Y02476D02*
X01559D01*
Y02468D02*
Y02476D01*
X01847Y0289D02*
Y03085D01*
X01582Y03169D02*
X01763D01*
X01847Y03085*
X02015Y02787D02*
Y02933D01*
X02078Y02996*
X0137Y03086D02*
X01531Y03248D01*
X01972*
X0196Y03228D02*
X02153Y03035D01*
X01385Y03066D02*
X01547Y03228D01*
X0196*
X01985Y0289D02*
Y02953D01*
X02059Y03027*
X02098*
X02141Y02984*
X02354*
X01965Y0289D02*
Y02965D01*
X02035Y03035*
X01945Y0289D02*
Y03055D01*
X01952Y03063*
X01974*
X01559Y03208D02*
X01933D01*
X01972Y03169*
X01815D02*
X01909D01*
X01594Y03149D02*
X01752D01*
X01827Y03074*
Y0289D02*
Y03074D01*
X01867Y0289D02*
Y03126D01*
X01283Y02838D02*
X01594Y03149D01*
X01263Y0285D02*
X01582Y03169D01*
X01795Y03189D02*
X01815Y03169D01*
X0157Y03189D02*
X01795D01*
X01224Y02929D02*
X01259Y02964D01*
X01315*
X01559Y03208*
X01401Y01807D02*
X0144Y01846D01*
X00885Y01807D02*
X01401D01*
X0144Y02689D02*
X01465Y02713D01*
X0151Y02601D02*
D01*
X01511Y026D02*
Y02601D01*
X0151D02*
X01511Y026D01*
X0151Y02601D02*
X01511D01*
X01514Y02598*
X01515*
X01552Y02572D02*
Y02593D01*
X01551Y0257D02*
X01552Y02572D01*
X01522Y02601D02*
X01555Y02634D01*
X01511Y02641D02*
X01524Y02654D01*
X01867Y03126D02*
X01878Y03137D01*
X02019*
X02149Y03007*
X01094Y02661D02*
X01114Y02681D01*
Y02815*
X02678Y01581D02*
X02776D01*
X02811Y01547*
X02783Y01606D02*
X02818Y0157D01*
X02925*
X02948Y01547*
X02649Y01645D02*
X02689Y01606D01*
X02783*
X02736Y01685D02*
X0283Y0159D01*
X0296*
X03005Y01545*
X02809Y01143D02*
Y01279D01*
Y01143D02*
X02834Y01118D01*
X02966Y01143D02*
Y01279D01*
Y01143D02*
X02992Y01118D01*
X02651Y01143D02*
Y01279D01*
Y01143D02*
X02677Y01118D01*
X02494Y01143D02*
Y01279D01*
Y01143D02*
X02519Y01118D01*
X02336Y01141D02*
Y01279D01*
Y01141D02*
X0236Y01118D01*
X02179Y01143D02*
Y01279D01*
Y01143D02*
X02204Y01118D01*
X02019Y01145D02*
Y01279D01*
Y01145D02*
X02047Y01118D01*
X01864Y01143D02*
Y01279D01*
Y01143D02*
X01889Y01118D01*
X01706Y01143D02*
Y01279D01*
Y01143D02*
X01732Y01118D01*
X01549Y01143D02*
Y01279D01*
Y01143D02*
X01574Y01118D01*
X01389Y01145D02*
Y01279D01*
Y01145D02*
X01417Y01118D01*
X01226Y01151D02*
X01259Y01118D01*
X0107Y01149D02*
X01102Y01118D01*
X00913Y01149D02*
Y01279D01*
Y01149D02*
X00944Y01118D01*
X02844Y01413D02*
X02852Y01421D01*
X02844Y01378D02*
Y01413D01*
X0171Y01535D02*
Y01628D01*
X01925Y01842*
Y0211*
X02214Y01378D02*
Y01413D01*
X02177Y03139D02*
X02214Y03102D01*
X02318*
X01925Y03318D02*
X01984D01*
X02163Y03139*
X02173*
X02413Y03059D02*
X02547Y02925D01*
X01972Y03248D02*
X02161Y03059D01*
X02413*
X02372Y01378D02*
Y01413D01*
X02395Y0132D02*
X02409Y01334D01*
X02395Y01279D02*
Y0132D01*
X01559Y02468D02*
X01566Y0246D01*
X01965Y02437D02*
Y02538D01*
X01566Y0246D02*
D01*
X0157*
X01929Y02574D02*
X01965Y02538D01*
X01886Y02437D02*
Y02489D01*
X01889Y02492*
X01827Y02437D02*
Y02507D01*
X01818Y02515D02*
X01827Y02507D01*
X01224Y02208D02*
Y02929D01*
Y02208D02*
X01421Y02011D01*
Y01854D02*
Y02011D01*
X01244Y0222D02*
Y02862D01*
Y0222D02*
X0144Y02023D01*
Y01846D02*
Y02023D01*
X01263Y02232D02*
Y0285D01*
Y02232D02*
X0146Y02035D01*
Y01834D02*
Y02035D01*
X01283Y02244D02*
Y02838D01*
Y02244D02*
X0148Y02047D01*
X01618Y01763D02*
Y02122D01*
X0144Y02326D02*
Y02689D01*
Y02326D02*
X01645Y02122D01*
Y01759D02*
Y02122D01*
X01669Y01752D02*
Y02126D01*
X01692Y01724D02*
Y02129D01*
X01622Y02389D02*
Y02448D01*
Y02389D02*
X01689Y02322D01*
X01811Y02378D02*
X01846D01*
X01867Y02398*
Y02437*
X01854Y02318D02*
X01907D01*
X01836Y02348D02*
X01881D01*
X0183Y02342D02*
X01836Y02348D01*
X00393Y03129D02*
X00437Y03086D01*
X00393Y03129D02*
Y03153D01*
X00425Y03185*
X01709Y0289D02*
X01709Y0289D01*
Y02778D02*
Y0289D01*
Y02778D02*
X0174Y02748D01*
X01689Y02842D02*
X01689Y02843D01*
X01681Y02842D02*
X01689D01*
X01145Y02744D02*
X01165Y02763D01*
X01145Y02641D02*
Y02744D01*
X01122Y02618D02*
X01145Y02641D01*
X00425Y03185D02*
X00575D01*
X00594Y03165*
X00626*
X01003Y02657D02*
X01047D01*
X01086Y02618*
X01122*
X01834Y02228D02*
X01948Y02114D01*
X01834Y02228D02*
Y02299D01*
X01854Y02318*
X01878Y0224D02*
X01921D01*
Y02289*
X00942Y01413D02*
Y01458D01*
X00982*
X02303Y01755D02*
Y01984D01*
Y01755D02*
X025Y01559D01*
Y01543D02*
Y01559D01*
X0233Y01759D02*
Y0209D01*
Y01759D02*
X02484Y01606D01*
X02618*
X0235Y01771D02*
Y02106D01*
Y01771D02*
X02496Y01626D01*
X02633*
X0237Y01783D02*
Y02123D01*
Y01783D02*
X02507Y01645D01*
X02649*
X02389Y01795D02*
Y02137D01*
Y01795D02*
X02519Y01665D01*
X02696*
X02413Y01803D02*
Y02216D01*
Y01803D02*
X02531Y01685D01*
X02736*
X02307Y02149D02*
X0235Y02106D01*
X02307Y02149D02*
Y02216D01*
X02338Y02154D02*
Y02275D01*
Y02154D02*
X0237Y02123D01*
X02366Y02161D02*
Y02248D01*
X02476Y0246D02*
Y02862D01*
X02366Y02248D02*
X02374Y02255D01*
Y02358*
X02476Y0246*
X02563Y02669D02*
Y02807D01*
Y02669D02*
X0259Y02641D01*
X02629*
X02689Y02572D02*
Y02606D01*
X01649Y0283D02*
X01696Y02783D01*
X01649Y0283D02*
Y02913D01*
X01413Y0285D02*
X01484D01*
X01547Y02913*
X01649*
X00452Y03027D02*
X0111D01*
X01177Y0296*
Y02822D02*
Y0296D01*
X00626Y02956D02*
X00657Y02988D01*
X00881*
X00929Y0294*
X00417Y01626D02*
X00429Y01614D01*
X00692*
X00885Y01807*
X02055Y01376D02*
Y01413D01*
X00933Y01362D02*
X00944Y01374D01*
X01342Y0161D02*
X01496D01*
X01262Y0153D02*
X01342Y0161D01*
X03002Y01376D02*
Y01413D01*
X02241Y03309D02*
X02272D01*
X02241Y03256D02*
Y03309D01*
X02216Y03231D02*
X02241Y03256D01*
X02216Y03139D02*
Y03231D01*
X01921Y03421D02*
X02143Y03198D01*
X02173*
X01285Y01273D02*
Y01279D01*
X01133Y01275D02*
Y01326D01*
X01051Y01421D02*
Y01527D01*
X01244Y02862D02*
X0157Y03189D01*
X01552Y02593D02*
X01573Y02614D01*
X01559Y02507D02*
X01567Y02516D01*
X01559Y02476D02*
Y02507D01*
X02004Y02693D02*
X02063D01*
X01657Y02421D02*
X01689D01*
X02008Y02654D02*
X02063D01*
X01968Y03283D02*
X02169Y03082D01*
X02649Y02645D02*
X02689Y02606D01*
X01465Y02713D02*
X01611D01*
X01555Y02634D02*
X01611D01*
X01573Y02614D02*
X01611D01*
X01965Y02853D02*
Y0289D01*
Y02363D02*
Y02437D01*
X02027Y02732D02*
X02063D01*
X01901Y0298D02*
Y0311D01*
X01524Y02654D02*
X01611D01*
X01449Y02732D02*
X01611D01*
X0202Y02634D02*
X02063D01*
X0198Y02594D02*
X0202Y02634D01*
X02015Y02713D02*
X02063D01*
X0203Y02772D02*
X02063D01*
X00661Y01665D02*
X00673Y01653D01*
X01945Y02829D02*
Y0289D01*
X01689Y02843D02*
Y0289D01*
X02023Y02515D02*
X02063D01*
X01567Y02516D02*
X01611D01*
X01421Y02704D02*
X01449Y02732D01*
X01421Y02318D02*
X01618Y02122D01*
X01421Y02318D02*
Y02704D01*
X01519Y02536D02*
X01611D01*
X01511Y026D02*
X01517Y02594D01*
X01511Y02601D02*
X01522D01*
G54D29*
X00692Y01728D02*
X00907Y01942D01*
X0322Y01051D02*
X0333Y01161D01*
X00157Y01173D02*
Y01433D01*
X00194Y01639D02*
X00283Y01728D01*
X00157Y01602D02*
X00194Y01639D01*
X00907Y01942D02*
X00927D01*
X00968Y02007D02*
X01118D01*
X00933Y01972D02*
X00968Y02007D01*
X00933Y01889D02*
Y01972D01*
X02736Y01795D02*
X0274Y01799D01*
X00673Y0009D02*
X00889Y00307D01*
X00496Y0009D02*
X00673D01*
X002Y00385D02*
X00496Y0009D01*
X002Y00385D02*
Y00397D01*
X00142Y0072D02*
X00393Y00468D01*
Y00421D02*
Y00468D01*
X00142Y0072D02*
Y00841D01*
X00157Y01173D02*
X00195Y01135D01*
X0026*
X00283Y01728D02*
X00437D01*
X00889Y00307D02*
X0308D01*
X01362Y01893D02*
Y01937D01*
X01118Y02007D02*
X01291D01*
X01362Y01937*
X00157Y01433D02*
Y01602D01*
X03114Y01685D02*
X03145D01*
X03208Y01622*
X0333Y01161D02*
Y01736D01*
X02734Y01793D02*
X02736Y01795D01*
X01118Y02007D02*
Y02334D01*
X01153Y0237*
Y02417*
X02846Y01692D02*
X03D01*
X0308Y00307D02*
X03183Y00409D01*
X00374Y00401D02*
X00393Y00421D01*
X02736Y02031D02*
X02846Y01921D01*
X03145*
X0333Y01736*
X0274Y01799D02*
X02846Y01692D01*
X03208Y01409D02*
X03255D01*
X03208D02*
Y01456D01*
X03255Y01409D02*
Y01456D01*
X03208D02*
Y01622D01*
Y01456D02*
X03255D01*
X00437Y01728D02*
X00692D01*
G54D30*
X00499Y00181D02*
X00662D01*
X00795Y00315*
X00295Y00385D02*
X00499Y00181D01*
X00795Y00315D02*
Y00362D01*
X00074Y00653D02*
Y00948D01*
X00195Y01069*
X00295Y00385D02*
Y00433D01*
X00074Y00653D02*
X002Y00527D01*
X00295Y00433*
X01838Y02003D02*
Y02059D01*
X01663Y02234D02*
D01*
X01838Y02059D01*
X00712Y00452D02*
X00896D01*
X00555Y00372D02*
X00631D01*
X00712Y00452*
X00195Y01069D02*
Y01135D01*
G54D31*
X0157Y02326D02*
X01663Y02234D01*
X01507Y00921D02*
X01594D01*
X01661Y00988*
X01311Y00972D02*
X01338Y01D01*
X01255Y00972D02*
X01311D01*
X01204Y00921D02*
X01255Y00972D01*
X01307Y00921D02*
X01429D01*
X01242Y00856D02*
X01307Y00921D01*
X01338Y01D02*
Y0109D01*
X01429Y00921D02*
X015Y00992D01*
X00736Y01952D02*
X00929Y02145D01*
X00736Y01889D02*
Y01952D01*
X00929Y02145D02*
Y02374D01*
X02442Y00841D02*
Y01093D01*
X01661Y00988D02*
Y01086D01*
X01042Y00841D02*
Y00857D01*
X01968Y00988D02*
Y01114D01*
X01842Y00861D02*
X01968Y00988D01*
X01842Y00841D02*
Y00861D01*
X0174Y00917D02*
X01811Y00988D01*
X01442Y00841D02*
Y00855D01*
X00642Y00925D02*
X00689Y00972D01*
X00842Y00881D02*
X00881Y00921D01*
X01043Y00724D02*
X01142Y00625D01*
X00929Y00724D02*
X01043D01*
X00842Y00811D02*
X00929Y00724D01*
X005Y02393D02*
X00519Y02374D01*
X00442Y00841D02*
X00452Y00852D01*
X0024Y00839D02*
X00242Y00841D01*
X02442Y0078D02*
Y00841D01*
X02342Y00681D02*
X02442Y0078D01*
X02342Y00607D02*
Y00681D01*
X02531Y00736D02*
X02574D01*
X02442Y00646D02*
X02531Y00736D01*
X02442Y00606D02*
Y00646D01*
X02642Y00606D02*
Y00618D01*
X02838Y00716D02*
X02944D01*
X02742Y0062D02*
X02838Y00716D01*
X02742Y00606D02*
Y0062D01*
X02042Y00606D02*
Y00841D01*
X01942Y00606D02*
Y00841D01*
X01842Y00606D02*
Y00841D01*
X03042Y00813D02*
Y00841D01*
X02944Y00716D02*
X03042Y00813D01*
X03242Y00824D02*
Y00841D01*
X02642Y00618D02*
X02842Y00818D01*
Y00841*
X02574Y00736D02*
X02642Y00803D01*
Y00841*
X02142Y00606D02*
X02145Y0061D01*
Y00692*
X02242Y00789*
Y00841*
X01742Y00606D02*
Y00667D01*
X01642Y00767D02*
X01742Y00667D01*
X01642Y00767D02*
Y00841D01*
X01542Y00606D02*
Y00662D01*
X01442Y00762D02*
X01542Y00662D01*
X01442Y00762D02*
Y00841D01*
Y00606D02*
Y00652D01*
X01393Y007D02*
X01442Y00652D01*
X01334Y007D02*
X01393D01*
X01242Y00793D02*
X01334Y007D01*
X01242Y00793D02*
Y00841D01*
X01157Y00704D02*
X01196D01*
X01042Y0082D02*
X01157Y00704D01*
X01042Y0082D02*
Y00841D01*
X01242Y00606D02*
Y00659D01*
X01196Y00704D02*
X01242Y00659D01*
X01142Y00606D02*
Y00625D01*
X00842Y00811D02*
Y00841D01*
X00942Y00606D02*
Y0062D01*
X00815Y00748D02*
X00942Y0062D01*
X00692Y00748D02*
X00815D01*
X00779Y00689D02*
X00842Y00626D01*
X00669Y00689D02*
X00779D01*
X00598Y00759D02*
X00669Y00689D01*
X00642Y00798D02*
X00692Y00748D01*
X00642Y00798D02*
Y00841D01*
X00842Y00606D02*
Y00626D01*
X00488Y00759D02*
X00598D01*
X00442Y00805D02*
X00488Y00759D01*
X00642Y00606D02*
Y00621D01*
X00563Y007D02*
X00642Y00621D01*
X00442Y00805D02*
Y00841D01*
X02027Y00592D02*
X02042Y00606D01*
X00346Y007D02*
X00563D01*
X0024Y00807D02*
X00346Y007D01*
X0024Y00807D02*
Y00839D01*
X00642Y00841D02*
Y00925D01*
X00842Y00841D02*
Y00881D01*
X01811Y00988D02*
Y01114D01*
X02042Y00841D02*
Y00888D01*
X02126Y00972*
X02242Y00841D02*
Y00923D01*
X02283Y00964*
X0244Y01094D02*
X02442Y01093D01*
X02598Y00944D02*
X02642Y00901D01*
Y00841D02*
Y00901D01*
X02755Y00952D02*
X02842Y00866D01*
Y00841D02*
Y00866D01*
X03042Y00841D02*
Y00871D01*
X02913Y01D02*
X03042Y00871D01*
X0307Y01031D02*
X03242Y0086D01*
Y00841D02*
Y0086D01*
X00689Y00972D02*
X01007D01*
X01027Y00992*
Y01078*
X01042Y00857D02*
X01106Y00921D01*
X00881D02*
X01031D01*
X01082Y00972*
X01169*
X01242Y00841D02*
Y00856D01*
X01106Y00921D02*
X01204D01*
X01169Y00972D02*
X01185Y00988D01*
Y01094*
X01642Y00841D02*
Y0087D01*
X01689Y00917*
X0174*
X01442Y00855D02*
X01507Y00921D01*
X015Y00992D02*
Y01094D01*
X00929Y02641D02*
Y02885D01*
Y02641D02*
X01011Y02559D01*
X01137*
X0157Y02326D02*
Y0246D01*
X00378Y02393D02*
Y02444D01*
Y02342D02*
Y02374D01*
Y02393*
X02442Y01093D02*
Y0112D01*
X00519Y02574D02*
Y02885D01*
X02598Y00944D02*
Y01122D01*
X02755Y00952D02*
Y01122D01*
X00378Y02374D02*
X00519D01*
X02913Y01D02*
Y01122D01*
X0307Y01031D02*
Y01122D01*
X02126Y00972D02*
Y01122D01*
X02283Y00964D02*
Y01122D01*
G54D32*
X01578Y01066D02*
Y01086D01*
Y01031D02*
Y01066D01*
X00909Y01031D02*
X00944D01*
X01086D02*
X01122D01*
Y01066*
X01244Y01031D02*
X01279D01*
X00944Y01066D02*
Y01118D01*
Y01031D02*
Y01066D01*
X01102Y01086D02*
Y01118D01*
X01279Y01031D02*
Y01066D01*
X01259Y0109D02*
Y01118D01*
X01417Y01086D02*
Y01118D01*
X01574Y0109D02*
Y01118D01*
X01732Y01086D02*
Y01118D01*
X01889Y0109D02*
Y01118D01*
X02047Y0109D02*
Y01118D01*
X02204Y01074D02*
Y01118D01*
X0236Y01092D02*
Y01118D01*
X02519Y0109D02*
Y01118D01*
X02677Y0109D02*
Y01118D01*
X02834Y0109D02*
Y01118D01*
X02992Y01086D02*
Y01118D01*
X01279Y01066D02*
Y0107D01*
X01259Y0109D02*
X01279Y0107D01*
X01102Y01086D02*
X01122Y01066D01*
X01417Y01086D02*
X01421Y01082D01*
Y00996D02*
Y01031D01*
Y01066*
Y01082*
X01578Y00996D02*
Y01031D01*
X01574Y0109D02*
X01578Y01086D01*
X01736Y00996D02*
Y01031D01*
Y01066*
Y01082*
X01732Y01086D02*
X01736Y01082D01*
X01897Y00996D02*
Y01031D01*
Y01066*
Y01082*
X01889Y0109D02*
X01897Y01082D01*
X02055Y00996D02*
Y01031D01*
Y01066*
Y01082*
X02047Y0109D02*
X02055Y01082D01*
X02212Y00996D02*
Y01031D01*
Y01066*
X02204Y01074D02*
X02212Y01066D01*
X02366Y00996D02*
Y01031D01*
Y01066*
Y01086*
X0236Y01092D02*
X02366Y01086D01*
X02527Y00996D02*
Y01031D01*
Y01066*
Y01082*
X02519Y0109D02*
X02527Y01082D01*
X02685Y00996D02*
Y01031D01*
Y01066*
Y01082*
X02677Y0109D02*
X02685Y01082D01*
X02842Y00996D02*
Y01031D01*
Y01066*
Y01082*
X02834Y0109D02*
X02842Y01082D01*
X02992Y01086D02*
X02996Y01082D01*
Y00996D02*
Y01031D01*
Y01066*
Y01082*
G54D33*
X00346Y01307D02*
X0035Y01311D01*
X00287Y01409D02*
X00326D01*
X00354Y01381*
Y01307D02*
Y01381D01*
X00315Y01307D02*
X00346D01*
G54D34*
X00968Y01649D02*
X01472D01*
X0072Y01401D02*
X00968Y01649D01*
X0072Y01194D02*
Y01401D01*
X00956Y01669D02*
X0146D01*
X0066Y01373D02*
X00956Y01669D01*
X0066Y01235D02*
Y01373D01*
X00948Y01689D02*
X01452D01*
X0061Y0135D02*
X00948Y01689D01*
X0061Y01184D02*
Y0135D01*
X00937Y01708D02*
X01445D01*
X00673Y01444D02*
X00937Y01708D01*
X00925Y01728D02*
X01437D01*
X00511Y01315D02*
X00925Y01728D01*
X00511Y01186D02*
Y01315D01*
X00917Y01748D02*
X01429D01*
X0046Y01291D02*
X00917Y01748D01*
X0046Y01235D02*
Y01291D01*
X0056Y01135D02*
X0061Y01184D01*
X0046Y01135D02*
X00511Y01186D01*
X0036Y01135D02*
X00409Y01183D01*
X0066Y01135D02*
X0072Y01194D01*
X02098Y02535D02*
X0211Y02523D01*
X01748Y02256D02*
Y02437D01*
X01729Y02268D02*
Y02437D01*
X01728Y02891D02*
X01729Y0289D01*
X01342Y02752D02*
X01402Y02811D01*
X02063Y02555D02*
X02105D01*
X01944Y02438D02*
X01945Y02437D01*
X02105Y02555D02*
X02129Y02531D01*
X01729Y02973D02*
X01763Y03007D01*
X01729Y0289D02*
Y02973D01*
X01748Y0289D02*
Y02965D01*
X01783Y03*
X01422Y01767D02*
X0148Y01825D01*
X01429Y01748D02*
X015Y01818D01*
X01437Y01728D02*
X01519Y01811D01*
X01445Y01708D02*
X01539Y01802D01*
X01452Y01689D02*
X0156Y01796D01*
X0146Y01669D02*
X01578Y01787D01*
X01472Y01649D02*
X01598Y01775D01*
X01768Y02266D02*
X01842Y02192D01*
X01768Y02266D02*
Y02437D01*
X00905Y01767D02*
X01422D01*
X00409Y01183D02*
Y01271D01*
X00905Y01767*
X01611Y02673D02*
X01611D01*
X01614Y0311D02*
X01736D01*
X01763Y03082*
Y03007D02*
Y03082D01*
X01606Y03129D02*
X01744D01*
X01783Y0309*
Y03D02*
Y0309D01*
X01401Y0272D02*
X01433Y02752D01*
X01381Y02732D02*
X01421Y02772D01*
X01362Y0274D02*
X01413Y02791D01*
X0146Y02673D02*
X0148Y02693D01*
X01479Y02656D02*
X01496Y02673D01*
X02129Y0172D02*
Y02531D01*
Y0172D02*
X02305Y01545D01*
Y01535D02*
Y01545D01*
X0211Y01708D02*
Y02523D01*
Y01708D02*
X02181Y01637D01*
Y01543D02*
Y01637D01*
X01945Y02437D02*
Y02479D01*
X01933Y02492D02*
X01945Y02479D01*
X0148Y01825D02*
Y02047D01*
X015Y01818D02*
Y02059D01*
X01519Y01811D02*
Y0207D01*
X01342Y02279D02*
Y02752D01*
Y02279D02*
X01539Y02082D01*
Y01802D02*
Y02082D01*
X01362Y02291D02*
Y0274D01*
Y02291D02*
X0156Y02093D01*
Y01796D02*
Y02093D01*
X01381Y02303D02*
Y02732D01*
Y02303D02*
X01578Y02106D01*
Y01787D02*
Y02106D01*
X01401Y02311D02*
Y0272D01*
Y02311D02*
X01598Y02114D01*
Y01775D02*
Y02114D01*
X0146Y02334D02*
Y02673D01*
Y02334D02*
X01669Y02126D01*
X01479Y02343D02*
Y02656D01*
Y02343D02*
X01692Y02129D01*
X01303Y02826D02*
X01606Y03129D01*
X01303Y02255D02*
X015Y02059D01*
X01322Y02818D02*
X01614Y0311D01*
X01322Y02267D02*
X01519Y0207D01*
X01303Y02255D02*
Y02826D01*
X01322Y02267D02*
Y02818D01*
X01413Y02791D02*
X01611D01*
X01402Y02811D02*
X01611D01*
X01496Y02673D02*
X01611D01*
X01433Y02752D02*
X01611D01*
X01421Y02772D02*
X01611D01*
X0148Y02693D02*
X01611D01*
G54D35*
X02988Y02248D02*
X03039D01*
X02937D02*
X02988D01*
X03039Y02189D02*
Y02248D01*
X02937Y02189D02*
X03039D01*
X02937D02*
Y02248D01*
G54D36*
X00429Y01704D02*
X00433Y017D01*
X00413Y01704D02*
X00429D01*
X00413D02*
X00437Y01728D01*
G54D37*
X00547Y02568D03*
G54D38*
X01748Y02722D03*
G54D39*
X0033Y01515D03*
X00921D03*
X00433Y03547D03*
X00533D03*
X00633D03*
X00733D03*
X00833D03*
X00933D03*
X01033D03*
X01133D03*
X01233D03*
X01333D03*
X01433D03*
X01533D03*
X01633D03*
X01733D03*
X01833D03*
X01933D03*
X0024Y03288D03*
Y0311D03*
Y02783D03*
Y02605D03*
X0315Y0311D03*
Y03288D03*
Y02605D03*
Y02783D03*
G54D40*
X00551Y00476D03*
Y00376D03*
Y00276D03*
Y00176D03*
X00442Y00841D03*
X00342D03*
X00242D03*
X00142D03*
X00542D03*
X00642D03*
X00742D03*
X00842D03*
X00942D03*
X01042D03*
X01142D03*
X01242D03*
X01342D03*
X01442D03*
X01542D03*
X01642D03*
X01742D03*
X01842D03*
X01942D03*
X02042D03*
X02142D03*
X02242D03*
X02342D03*
X02442D03*
X02542D03*
X02642D03*
X02742D03*
X02842D03*
X02942D03*
X03042D03*
X03142D03*
X03242D03*
X00742Y00606D03*
X00642D03*
X00542D03*
X00442D03*
X00842D03*
X00942D03*
X01042D03*
X01142D03*
X01242D03*
X01342D03*
X01442D03*
X01542D03*
X01642D03*
X01742D03*
X01842D03*
X01942D03*
X02042D03*
X02142D03*
X02242D03*
X02342D03*
X02442D03*
X02542D03*
X02642D03*
X02742D03*
X02842D03*
X02942D03*
X01331Y0335D03*
X01431D03*
X01531D03*
X01631D03*
X01731D03*
X01831D03*
G54D41*
X01362Y01885D03*
X01165D03*
X00933Y01889D03*
X00736D03*
X01153Y02432D03*
Y02552D03*
X02888Y02944D03*
X02988D03*
G54D42*
X03189Y00401D03*
X02988D03*
X00395D03*
X00194D03*
G54D43*
X00338Y03337D03*
Y03061D03*
Y02832D03*
Y02556D03*
X03051Y03061D03*
Y03337D03*
Y02556D03*
Y02832D03*
G54D44*
X00307Y01925D03*
X00551D03*
G54D45*
X00437Y01728D03*
G54D46*
X00897Y00153D03*
X01197D03*
X01297D03*
X01397D03*
X01597D03*
Y00453D03*
X01397D03*
X01297D03*
X01197D03*
X00897D03*
X01811Y00153D03*
X02111D03*
X02211D03*
X02311D03*
X02511D03*
Y00453D03*
X02311D03*
X02211D03*
X02111D03*
X01811D03*
G54D47*
X0026Y01235D03*
Y01135D03*
X0066Y01235D03*
Y01135D03*
X0046D03*
Y01235D03*
X0056Y01135D03*
Y01235D03*
X0036D03*
Y01135D03*
G54D48*
X02736Y02031D03*
Y01795D03*
G54D49*
X01578Y01066D03*
X01279D03*
X01594Y01626D03*
X01543Y0161D03*
X01165Y02763D03*
X00944Y01031D03*
X00909D03*
X01086D03*
X01122Y01066D03*
Y01031D03*
X01421Y00996D03*
X01279Y01031D03*
X01244D03*
X01736Y01066D03*
X02685D03*
X02842D03*
X02996D03*
Y01031D03*
Y00996D03*
X02842Y01031D03*
Y00996D03*
X02685Y01031D03*
Y00996D03*
X02527Y01066D03*
Y01031D03*
Y00996D03*
X02366Y01066D03*
Y01031D03*
Y00996D03*
X02212Y01066D03*
Y01031D03*
Y00996D03*
X02055Y01066D03*
Y01031D03*
Y00996D03*
X01897Y01066D03*
Y01031D03*
Y00996D03*
X01736Y01031D03*
Y00996D03*
X01578Y01031D03*
Y00996D03*
X01421Y01031D03*
Y01066D03*
X00944D03*
X01003Y02657D03*
X02403Y034D03*
X02266D03*
G54D50*
X00311Y01618D03*
X00661Y01657D03*
X00519Y02539D03*
Y02594D03*
X0057D03*
Y02539D03*
X0309Y00228D03*
X0109Y00129D03*
X0007Y00303D03*
X0174Y02708D03*
X01807Y01661D03*
X02267Y02464D03*
X01413Y0285D03*
X01649Y02913D03*
X00795Y00374D03*
X00114Y00523D03*
X00094Y01055D03*
X02082Y03511D03*
X02055Y02059D03*
X02476Y03129D03*
X0259Y03326D03*
X02519Y02759D03*
X02626Y02799D03*
X01878Y0224D03*
X02744Y02704D03*
X02645Y02641D03*
X01996Y00133D03*
X01267Y02909D03*
X00417Y01626D03*
X03149Y0107D03*
X03208D03*
Y01015D03*
X03255Y01409D03*
X03208D03*
Y01456D03*
X03255D03*
X02712Y01645D03*
X03137Y01405D03*
X02822Y01358D03*
X02283Y01708D03*
X02374Y01578D03*
X01838Y01358D03*
X0157Y0246D03*
X01628Y02269D03*
X01663Y02234D03*
X00763Y0335D03*
X01783Y01866D03*
X02645Y01468D03*
X02559Y02118D03*
X01496Y02933D03*
G54D51*
X00805Y0312D03*
X01161Y02807D03*
X01078Y02826D03*
X01145Y0285D03*
X00637Y03122D03*
X00626Y03165D03*
X00929Y03169D03*
X01192Y02732D03*
X02078Y02228D03*
X02007Y02385D03*
Y02527D03*
X02189Y02118D03*
X02023D03*
X0198Y02593D03*
X02393Y0261D03*
X01063Y03224D03*
Y03275D03*
X00728Y03145D03*
X02185Y02228D03*
X01779Y02952D03*
X01775Y02834D03*
X01822D03*
X01897Y02807D03*
X02326Y0285D03*
X02547Y02925D03*
Y02874D03*
X01948Y02826D03*
X02263Y02228D03*
X02401D03*
X01673Y02629D03*
X01685Y02586D03*
Y02543D03*
X0198Y02728D03*
X01996Y02685D03*
X02122Y02669D03*
X0198Y02641D03*
X01972Y02236D03*
X01964Y03279D03*
X01925Y03318D03*
X00626Y02956D03*
X00437Y03145D03*
Y03086D03*
X02078Y02996D03*
X01972Y03169D03*
X01511Y02641D03*
X01551Y0257D03*
X01515Y02598D03*
X01055Y027D03*
X01094Y02661D03*
X01657Y02421D03*
X01933Y02492D03*
X01889D03*
X01818Y02515D03*
X01622Y02448D03*
X01692Y02318D03*
X01811Y02378D03*
X0183Y02342D03*
X01681Y02842D03*
X02307Y02228D03*
X02338Y02275D03*
G54D52*
X01838Y02003D03*
X02881Y00232D03*
X02988Y02248D03*
X03039Y02189D03*
X02988D03*
X02937D03*
Y02248D03*
X03039D03*
X02255Y01968D03*
X02236Y02051D03*
X02303Y01606D03*
G54D53*
X00161Y00141D03*
X03224D03*
X03177Y03555D03*
X00208D03*
Y02318D03*
X03177D03*
M02*