%FSTAX23Y23*%
%MOIN*%
%SFA1B1*%

%IPPOS*%
%ADD10C,0.039400*%
%ADD12R,0.031500X0.035400*%
%ADD13R,0.023600X0.035400*%
%ADD14R,0.035400X0.023600*%
%ADD16R,0.027600X0.047200*%
%ADD17R,0.023600X0.047200*%
%ADD18R,0.082700X0.023600*%
%ADD21R,0.019700X0.039400*%
%ADD27C,0.011800*%
%ADD28C,0.009800*%
%ADD29C,0.059100*%
%ADD30C,0.015700*%
%ADD31C,0.039400*%
%ADD32C,0.043300*%
%ADD33C,0.031500*%
%ADD34C,0.009100*%
%ADD35C,0.063000*%
%ADD36C,0.019700*%
%ADD37R,0.102400X0.106300*%
%ADD39C,0.078700*%
%ADD40C,0.082700*%
%ADD41C,0.070900*%
%ADD42C,0.106300*%
%ADD43O,0.086600X0.098400*%
%ADD44O,0.110200X0.196800*%
%ADD45O,0.196800X0.110200*%
%ADD46O,0.078700X0.094500*%
%ADD47C,0.072800*%
%ADD48C,0.098400*%
%ADD49C,0.035400*%
%ADD50C,0.043300*%
%ADD51C,0.031500*%
%ADD52C,0.047200*%
%ADD53C,0.118100*%
%ADD54C,0.063000*%
%ADD55C,0.055100*%
%ADD56R,0.063000X0.043300*%
%ADD57R,0.039400X0.019700*%
%ADD58R,0.043300X0.063000*%
%ADD59R,0.047200X0.027600*%
%ADD60R,0.047200X0.023600*%
%ADD61R,0.035400X0.031500*%
%ADD62R,0.051200X0.070900*%
%ADD63R,0.078700X0.090600*%
%ADD64R,0.090600X0.078700*%
%ADD65R,0.017700X0.025600*%
%ADD66R,0.065000X0.015700*%
%ADD67R,0.063000X0.016900*%
%ADD68R,0.063000X0.015000*%
%ADD69R,0.078700X0.035400*%
%ADD70R,0.078700X0.037800*%
%ADD71C,0.023600*%
%ADD72C,0.047200*%
%LNrelaytester-1*%
%LPD*%
G36*
X00112Y01608D02*
X00135Y01584D01*
Y01557*
X00136*
X00148Y01555*
X00149Y01547*
X00152Y0154*
X00156Y01534*
X00184Y01507*
X0019Y01502*
X00197Y01499*
X00204Y01498*
Y01388*
X00204Y01385*
X00204Y01383*
Y01342*
Y01279*
X00033Y01108*
X00019*
Y016*
X00028Y01608*
X00112*
G37*
G36*
X01074Y01149D02*
Y01071D01*
X00991*
X00977Y01085*
X00977Y01085*
X00971Y01093*
X00963Y01099*
X00963Y01099*
X0096Y01102*
X00957*
X00954Y01103*
X00944Y01104*
X00935Y01103*
X00932Y01102*
X00917*
X00866Y01051*
Y01011*
X00748*
X00697Y0096*
X00649*
Y01*
X00818Y01169*
X01055*
X01074Y01149*
G37*
G36*
X03185Y01369D02*
X03196Y01365D01*
X03208Y01363*
X03242*
Y01327*
Y01277*
Y01227*
Y01177*
X03285*
Y01148*
X0327Y01142*
X03259Y01153*
X03252Y01158*
X03244Y01159*
X02889*
X02887Y01163*
X02895Y01179*
X02907*
X02935*
Y01206*
X02945*
Y01179*
X02974*
X03002*
Y01206*
X03012*
Y01179*
X03038*
X03053Y01177*
X03105*
Y01204*
X0311*
Y01209*
X03167*
Y01227*
Y01277*
Y01327*
Y01364*
X03183Y01372*
X03185Y01369*
G37*
G36*
X02827Y01321D02*
X02832Y01321D01*
X02836Y01323*
X02849Y01316*
X02851Y01313*
Y01293*
X0284*
Y01238*
Y01234*
Y01219*
X02826Y01213*
X02785Y01253*
Y0132*
X02801Y01327*
X02804Y01325*
X02813Y01321*
X02817Y01321*
Y01358*
X02827*
Y01321*
G37*
G36*
X00911Y01438D02*
Y0139D01*
X00907Y01387*
X00902Y0138*
X00898Y01371*
X00898Y01367*
X00933*
Y01357*
X00898*
X00898Y01353*
X00902Y01344*
X00907Y01336*
X00915Y01331*
X00923Y01327*
X00929Y01311*
X00915Y01297*
X00899*
Y01269*
X00899Y01267*
X00899Y01265*
Y0123*
X00897Y01224*
X00896Y01209*
X00818*
X00808Y01207*
X00799Y01203*
X0079Y01197*
X00728Y01134*
X00728*
X00712Y01141*
X00711Y01148*
X00706Y01161*
X00697Y01172*
X00693Y01175*
X00692Y01176*
Y01193*
X00693Y01194*
X00697Y01197*
X00706Y01208*
X00711Y01221*
X00713Y01235*
X00711Y01248*
X00706Y01259*
X0071Y01268*
X00715Y01275*
X0072Y01276*
X00728Y01279*
X00735Y01284*
X00895Y01445*
X00911Y01438*
G37*
G36*
X03269Y00734D02*
X03285Y00729D01*
Y00576*
X03178Y00469*
X03175Y00469*
X03162Y00465*
X0315Y00459*
X0314Y0045*
X03131Y0044*
X03125Y00428*
X03121Y00415*
X03119Y00401*
X03121Y00388*
X03125Y00375*
X03131Y00363*
X0314Y00352*
X0315Y00344*
X03162Y00337*
X03175Y00333*
X03189Y00332*
X03202Y00333*
X03215Y00337*
X03227Y00344*
X03237Y00352*
X03246Y00363*
X03252Y00375*
X03256Y00388*
X03258Y00401*
X03256Y00415*
X03256Y00417*
X03358Y0052*
X03374Y00513*
Y00011*
X03248*
X03246Y00027*
X0326Y0003*
X03277Y00037*
X03292Y00047*
X03306Y00059*
X03318Y00073*
X03328Y00088*
X03335Y00105*
X03339Y00123*
X0334Y00141*
X03339Y0016*
X03335Y00177*
X03328Y00194*
X03318Y0021*
X03306Y00224*
X03292Y00236*
X03277Y00245*
X0326Y00252*
X03242Y00256*
X03224Y00258*
X03206Y00256*
X03188Y00252*
X03171Y00245*
X03155Y00236*
X03143Y00225*
X03137Y00226*
X03127Y00231*
X03127Y00238*
X03123Y00247*
X03117Y00255*
X03109Y00261*
X031Y00264*
X03095Y00265*
Y00228*
Y00191*
X031Y00191*
X03102Y00193*
X03114Y0018*
X03113Y00177*
X03109Y0016*
X03108Y00154*
X03105Y0015*
X03092Y00144*
X03084Y00146*
X0307Y00148*
X03057Y00146*
X03044Y00142*
X0304Y0014*
X03029Y00147*
X03026Y0015*
Y00267*
X03024Y00276*
X03019Y00283*
X02986Y00316*
X02986Y00322*
X02992Y00332*
X03001Y00333*
X03014Y00337*
X03026Y00344*
X03037Y00352*
X03045Y00363*
X03052Y00375*
X03056Y00388*
X03057Y00401*
X03056Y00415*
X03052Y00428*
X03045Y0044*
X03037Y0045*
X03026Y00459*
X03014Y00465*
X03001Y00469*
X02988Y0047*
X02985Y0047*
X02918Y00537*
X02927Y00551*
X02942Y00549*
X02957Y00551*
X0297Y00556*
X02982Y00566*
X02986Y00571*
X03091*
X031Y00572*
X03108Y00575*
X03116Y00581*
X03269Y00734*
X03269*
G37*
G36*
X01702Y033D02*
X0171Y03297D01*
Y0324*
X0152Y0305*
X01516Y03043*
X01514Y03035*
Y02981*
X01501Y02972*
Y02933*
X01491*
Y0297*
X01486Y02969*
X01477Y02965*
X01469Y02959*
X01468Y02958*
X01449Y02954*
X01444Y02959*
X01437Y02964*
X01429Y02966*
Y02978*
X01374*
X0137*
X01317*
X01308Y02991*
X01613Y03296*
X01616Y03294*
X01631Y03292*
X01646Y03294*
X0166Y033*
X01672Y03309*
X0169*
X01702Y033*
G37*
G36*
X00222Y01199D02*
X00223Y01197D01*
X00227Y01194*
X00228Y01193*
Y01176*
X00227Y01175*
X00223Y01172*
X00215Y01161*
X00209Y01148*
X00208Y0114*
X0026*
Y01135*
X00265*
Y01083*
X00274Y01084*
X00286Y01089*
X00297Y01097*
X00301Y01102*
X00302Y01102*
X00318*
X0032Y01102*
X00323Y01097*
X00334Y01089*
X00347Y01084*
X0036Y01082*
X00374Y01084*
X00386Y01089*
X00397Y01097*
X00401Y01102*
X00402Y01102*
X00418*
X0042Y01102*
X00423Y01097*
X00434Y01089*
X00447Y01084*
X0046Y01082*
X00474Y01084*
X00486Y01089*
X00497Y01097*
X00501Y01102*
X00502Y01102*
X00518*
X0052Y01102*
X00523Y01097*
X00534Y01089*
X00547Y01084*
X0056Y01082*
X00574Y01084*
X00586Y01089*
X00597Y01097*
X00601Y01102*
X00602Y01102*
X00618*
X0062Y01102*
X00623Y01097*
X00634Y01089*
X00647Y01084*
X00654Y01083*
X0066Y01067*
Y01067*
X00621Y01028*
X00615Y01019*
X00613Y01016*
X00318*
X00309Y01014*
X00301Y01011*
X00293Y01005*
X00216Y00928*
X00211Y00921*
X00207Y00912*
X00206Y00903*
Y00886*
X00202Y00883*
X00201Y00882*
X00182*
X0017Y00891*
X00157Y00897*
X00142Y00899*
X00127Y00897*
X00115Y00892*
X00107Y00895*
X00099Y00901*
Y01018*
X00104Y01018*
X00113Y01022*
X00121Y01028*
X00127Y01036*
X0013Y01045*
X00132Y01055*
X0013Y01064*
X00127Y01074*
X00121Y01081*
X00115Y01086*
X00113Y0109*
X00111Y01105*
X00206Y012*
X00222Y01199*
G37*
G36*
X01375Y01132D02*
Y01069D01*
X01316*
X01316Y01076*
X01312Y01085*
X01306Y01093*
X01298Y01099*
X01289Y01103*
X01279Y01104*
X01269Y01103*
X0126Y01099*
X01252Y01093*
X01246Y01085*
X01243Y01076*
X01242Y01073*
X01237Y01068*
X01234Y01067*
X01225Y01064*
X01217Y01058*
X01211Y0105*
X01207Y01041*
X01206Y01031*
X01206Y01027*
X01206Y01023*
X01207Y01011*
X01212Y01*
X01219Y00991*
X0122Y0099*
Y00933*
X01192Y00905*
X00921*
Y00944*
X00968Y00991*
X01118*
X0112Y00992*
X01157*
Y01028*
X01157Y01031*
Y01169*
X01338*
X01375Y01132*
G37*
G36*
X03241Y01097D02*
Y00986D01*
X03183*
X03121Y01048*
Y011*
X03239*
X03241Y01097*
G37*
G36*
X02103Y01486D02*
X0198D01*
X01971Y01485*
X01964Y0148*
X01882Y01397*
X01879Y01392*
X01875Y01391*
X01868Y01389*
X0186Y01388*
X01857Y0139*
X01848Y01394*
X01843Y01395*
Y01358*
Y01321*
X01848Y01321*
X01848Y01321*
X01857Y01319*
X01864Y01311*
Y01301*
Y0129*
X01897*
Y01285*
X01902*
Y01257*
X01925*
X01935Y01246*
X0194*
X01957*
Y01279*
X01967*
Y01246*
X01978*
X0199*
X02005*
X02049*
Y01284*
X02065Y0129*
X02074Y01284*
X02076Y01281*
Y01243*
X0219*
Y01249*
X02216*
X02224Y01251*
X02232Y01255*
X0225Y01273*
X02265Y01267*
Y01243*
X02317*
Y01271*
X02322*
Y01276*
X02379*
Y01299*
X02435*
Y01284*
X02462*
Y01279*
X02467*
Y01246*
X0249*
X02494*
X02549*
X02553*
X02608*
X02612*
X02667*
Y01257*
X0269*
Y01252*
X02692Y01243*
X02697Y01236*
X02753Y01179*
Y01069*
X02722*
X02721Y01076*
X02717Y01085*
X02711Y01093*
X02703Y01099*
X02694Y01103*
X02685Y01104*
X02675Y01103*
X02666Y01099*
X02658Y01093*
X02652Y01085*
X02648Y01076*
X02647Y01069*
X02565*
X02564Y01076*
X0256Y01085*
X02554Y01093*
X02546Y01099*
X02537Y01103*
X02527Y01104*
X02517Y01103*
X02508Y01099*
X025Y01093*
X02494Y01085*
X02491Y01076*
X0249Y01069*
X02403*
X02402Y01076*
X02398Y01085*
X02392Y01093*
X02385Y01099*
X02375Y01103*
X02366Y01104*
X02356Y01103*
X02347Y01099*
X02339Y01093*
X02333Y01085*
X02329Y01076*
X02328Y01069*
X0225*
X02249Y01076*
X02245Y01085*
X02239Y01093*
X02231Y01099*
X02222Y01103*
X02212Y01104*
X02202Y01103*
X02193Y01099*
X02185Y01093*
X02179Y01085*
X02176Y01076*
X02175Y01069*
X02092*
X02091Y01076*
X02087Y01085*
X02081Y01093*
X02074Y01099*
X02064Y01103*
X02055Y01104*
X02045Y01103*
X02036Y01099*
X02028Y01093*
X02022Y01085*
X02018Y01076*
X02017Y01069*
X01935*
X01934Y01076*
X0193Y01085*
X01924Y01093*
X01916Y01099*
X01907Y01103*
X01897Y01104*
X01887Y01103*
X01878Y01099*
X01871Y01093*
X01865Y01085*
X01861Y01076*
X0186Y01069*
X01773*
X01772Y01076*
X01768Y01085*
X01762Y01093*
X01755Y01099*
X01746Y01103*
X01736Y01104*
X01726Y01103*
X01717Y01099*
X01709Y01093*
X01703Y01085*
X01699Y01076*
X01698Y01069*
X01616*
X01615Y01076*
X01611Y01085*
X01605Y01093*
X01597Y01099*
X01588Y01103*
X01578Y01104*
X01569Y01103*
X01559Y01099*
X01552Y01093*
X01546Y01085*
X01542Y01076*
X01541Y01069*
X01466*
Y01157*
X01465Y01169*
X0146Y0118*
X01453Y01189*
X01411Y01231*
Y01292*
X01488*
X015Y01294*
X01511Y01299*
X0152Y01306*
X01697Y01483*
X01704Y01492*
X01709Y01503*
X01711Y01515*
Y01584*
X02103*
Y01486*
G37*
G36*
X0137Y02866D02*
X01376Y02856D01*
X01376Y02855*
X01413*
Y0285*
X01418*
Y02813*
X01423Y02814*
X01432Y02817*
X0144Y02823*
X01446Y02831*
X01464Y02835*
X01467Y02833*
Y02704*
X01468Y02696*
X01473Y02689*
X01483Y02679*
X01483Y02673*
X01482Y02671*
X01463Y02668*
X01385Y02747*
X01378Y02751*
X0137Y02753*
X01216*
X01215Y02754*
X01208Y02759*
X01201Y02763*
X01199Y02763*
X01199Y02763*
X01198Y02772*
X01194Y0278*
X01189Y02787*
X01187Y02789*
X01188Y02791*
X01192Y02798*
X01193Y02807*
X01193Y02808*
X01225Y02841*
X01287*
X01295Y02842*
X01302Y02847*
X01327Y02872*
X01365*
X0137Y02866*
G37*
G36*
X0088Y01923D02*
X00886Y01911D01*
X00883Y01903*
X00882Y01894*
X00933*
X00984*
X00982Y01903*
X00994Y01915*
X00999Y01916*
X01183Y01732*
X01065Y01614*
X00972*
X00964Y01613*
X00956Y0161*
X0095Y01605*
X00945Y016*
X00931Y01606*
Y01624*
X00893*
X00856*
Y01582*
X00897*
X009Y01566*
X00893Y01563*
X00881Y01555*
X00873Y01543*
X00867Y0153*
X00865Y01515*
X00866Y01506*
X00699Y01338*
X00571*
X00565Y01353*
X00765Y01553*
X00771Y0156*
X00774Y01569*
X00775Y01578*
Y01582*
X00813*
Y01677*
Y01685*
Y01779*
X00775*
Y01857*
X0078Y01864*
X00786Y01876*
X00787Y01889*
X00786Y01903*
X00782Y01911*
X00788Y01923*
X00792Y01926*
X00877*
X0088Y01923*
G37*
G36*
X00435Y02072D02*
X00543D01*
Y02038*
X00537Y02038*
X00523Y02034*
X00511Y02027*
X005Y02018*
X00492Y02008*
X00485Y01995*
X00481Y01982*
X0048Y01968*
Y01881*
X00481Y01868*
X00485Y01854*
X00492Y01842*
X005Y01831*
X00511Y01822*
X00523Y01816*
X00537Y01812*
X00551Y0181*
X00565Y01812*
X00578Y01816*
X0059Y01822*
X00601Y01831*
X0061Y01842*
X00617Y01854*
X00621Y01868*
X00622Y01881*
Y01926*
X0068*
X00683Y01923*
X00689Y01911*
X00686Y01903*
X00684Y01889*
X00686Y01876*
X00691Y01864*
X00699Y01853*
X00704Y01849*
Y0177*
X00688Y01763*
X00685Y01765*
X00673Y0177*
X00661Y01772*
X00649Y0177*
X00637Y01765*
X00627Y01758*
X0062Y01748*
X00615Y01736*
X00613Y01724*
X00615Y01712*
X0062Y017*
X00627Y0169*
X00634Y01685*
Y01684*
X00628Y01676*
X00625Y01667*
X00623Y01657*
X00625Y01647*
X00628Y01638*
X00634Y0163*
X00634Y01629*
X00607Y01601*
X00584*
Y01608*
X00533*
X00517*
X00467*
X00464Y01609*
X00454Y01624*
X00455Y01626*
X00453Y01635*
X00451Y01641*
X00456Y01652*
X0046Y01657*
X0048*
X00494Y01658*
X00507Y01662*
X00519Y01669*
X0053Y01678*
X00539Y01688*
X00546Y01701*
X0055Y01714*
X00551Y01723*
X00437*
X00323*
X00323Y01714*
X00327Y01701*
X00333Y01691*
X00332Y01687*
X00331Y01684*
X00324Y01675*
X00275*
X00267Y01673*
X0026Y01669*
X00256Y01665*
X00222*
Y01637*
X0021Y01628*
X00148*
X0014Y01636*
X00134Y01641*
Y01961*
X00265Y02093*
X00435*
Y02072*
G37*
G36*
X02985Y02578D02*
X02985Y02574D01*
X02984Y02562*
Y0255*
X02985Y02537*
X02989Y02525*
X02995Y02513*
X03004Y02503*
X03014Y02494*
X03025Y02488*
X03038Y02484*
X03051Y02483*
X03059Y02476*
Y02169*
X03039Y02149*
X02878*
Y02547*
X02917Y02586*
X02979*
X02985Y02578*
G37*
G36*
X02079Y0267D02*
X0209Y02664D01*
X02091Y02661*
X02094Y02653*
X02099Y02646*
X02106Y02641*
X02113Y02638*
X02122Y02637*
X0213Y02638*
X02137Y02641*
X02144Y02646*
X02149Y02653*
X0215Y02656*
X02382*
X02385Y0264*
X02377Y02637*
X02371Y02632*
X02366Y02626*
X02363Y02618*
X02362Y02615*
X02393*
Y02605*
X02362*
X02363Y02602*
X02366Y02594*
X02371Y02587*
X02377Y02582*
X02385Y02579*
X02393Y02578*
X02404Y02564*
Y02457*
X02304Y02357*
X02287Y02362*
X02287Y02362*
X02282Y02369*
X02011Y0264*
X02012Y02641*
X02011Y0265*
X0201Y02652*
X02021Y02664*
X02059*
X02067Y02665*
X02074Y0267*
X02074Y02671*
X02079Y0267*
G37*
G36*
X01716Y02811D02*
X01744Y02783D01*
X01751Y02778*
X01759Y02777*
X01838*
X01847Y02778*
X01854Y02783*
X01856Y02785*
X01875Y02784*
X01881Y02779*
X01889Y02776*
X01897Y02775*
X01901Y02775*
X01909Y02774*
X01928*
X01934Y02759*
X0193Y02755*
X01925Y02748*
X01923Y0274*
Y02575*
X01921Y02573*
X01855*
X01847Y02571*
X0184Y02567*
X0182Y02547*
X01818Y02547*
X0181Y02546*
X01803Y02543*
X01796Y02538*
X01791Y02531*
X01788Y02524*
X01787Y02515*
X01774Y02502*
X01742*
Y02665*
X01747Y02671*
X01749Y02672*
X01759Y02676*
X01773Y02675*
X01783Y02667*
X01794Y02662*
X01802Y02661*
Y02708*
Y02755*
X01794Y02754*
X01783Y02749*
X01773Y02742*
X01759Y02741*
X01749Y02745*
X01745Y02745*
Y02708*
X01735*
Y02745*
X0173Y02745*
X01721Y02741*
X01713Y02735*
X01709Y0273*
X017Y02727*
X0169Y02726*
X01648Y02769*
Y02809*
X0166Y02819*
X01665Y02815*
X01672Y02811*
X01681Y0281*
X01689Y02811*
X01697Y02815*
X01703Y0282*
X01716Y02811*
G37*
G36*
X01124Y01522D02*
X01128Y01517D01*
Y01513*
Y01458*
X01194*
X01198Y0145*
X01221*
X01231Y01437*
X01228Y01426*
X01181*
Y01435*
X01096*
X01086*
X0108Y01448*
Y01463*
X01053*
Y01473*
X0108*
Y01498*
Y0151*
X01082*
X0109Y01512*
X01097Y01516*
X01105Y01524*
X01124Y01522*
G37*
G36*
X02675Y01646D02*
X02674Y01645D01*
X02676Y01635*
X02679Y01626*
X02685Y01619*
X02693Y01613*
X02702Y01609*
X02712Y01607*
X02722Y01609*
X02731Y01613*
X02739Y01619*
X02743Y01624*
X02924*
X02951Y01597*
Y0157*
X02944*
Y01552*
X02905*
X02897Y01551*
X0289Y01546*
X02835Y01491*
X0283Y01484*
X02829Y01476*
Y01411*
X02828Y01408*
X02817Y01395*
X02817Y01395*
X02813Y01394*
X02804Y0139*
X028Y01388*
X02792Y01389*
X02785Y01391*
X02782Y01392*
X02779Y01397*
X02759Y01417*
X02752Y01422*
X02744Y01423*
X02674*
X02669Y01438*
X02676Y01447*
X02678Y01449*
X02682Y01458*
X02682Y01463*
X02608*
X02609Y01458*
X02613Y01449*
X02612Y01447*
X02604Y01435*
X02553*
X02549*
X02494*
X0249*
X0245*
X02447Y01435*
X02434Y01435*
X02432Y01437*
X02425Y01441*
X02422Y01442*
X0242Y01442*
X02417Y01443*
X02379*
Y01449*
X02265*
Y01443*
X02259Y01441*
X02252Y01437*
X02246Y01431*
X0223Y01437*
Y0153*
X02237Y01537*
X02318*
X02327Y01538*
X02334Y01543*
X02343Y01552*
X02347Y01552*
X02355Y01546*
X02364Y01542*
X02374Y01541*
X02383Y01542*
X02392Y01546*
X024Y01552*
X02406Y01559*
X0241Y01569*
X02411Y01578*
X0241Y01588*
X02406Y01597*
X024Y01605*
X02396Y01608*
X02399Y01623*
X024Y01624*
X02622*
X0263Y01626*
X02636Y0163*
X0266Y01653*
X02675Y01646*
G37*
G36*
X01619Y01571D02*
Y01534D01*
X01469Y01384*
X01354*
X01342Y01382*
X01331Y01378*
X01329Y01376*
X01299*
Y01439*
X01308Y0145*
X01336*
Y01479*
X01305*
Y01489*
X01336*
Y01517*
X01324*
Y01538*
X01297*
Y01548*
X01324*
Y01569*
X01483*
X01496Y01556*
X01503Y01551*
X01511Y01549*
X01566*
X01575Y01551*
X01581Y01556*
X01603Y01578*
X01619Y01571*
G37*
G36*
X02757Y02755D02*
X02757Y02755D01*
X02749Y02741*
X02744Y02742*
X02734Y02741*
X02725Y02737*
X02717Y02731*
X02711Y02723*
X02707Y02714*
X02706Y02704*
X02707Y02695*
X02711Y02685*
X02717Y02678*
X02722Y02674*
Y02564*
X02714Y02551*
X02706*
X026*
X02585Y02552*
X02582Y02561*
X02576Y02568*
X02569Y02574*
X0256Y02577*
X02551Y02579*
X02541Y02577*
X02533Y02574*
X02525Y02568*
X0252Y02561*
X02516Y02552*
X02515Y02543*
X02516Y02534*
X0252Y02525*
X02525Y02518*
X02533Y02512*
X02541Y02508*
X02551Y02507*
X02555Y02508*
X02562Y02503*
X02564Y02503*
X02567Y02498*
X0257Y02488*
X0257Y02486*
X02567Y02482*
X02563Y02473*
X02563Y02469*
X02598*
Y02459*
X02563*
X02563Y02455*
X02567Y02446*
X02573Y02439*
X0258Y02433*
X02589Y0243*
X02598Y02428*
X02657*
Y02418*
X026*
Y02396*
Y02378*
X02657*
Y02373*
X02662*
Y02346*
X02706*
X02714*
X02722Y02333*
Y02311*
X02707Y02309*
X02596*
Y02187*
X02606*
Y02142*
X02595Y02138*
X0259Y02138*
X02585Y02144*
X02577Y0215*
X02568Y02154*
X02564Y02155*
Y02118*
Y02081*
X02568Y02081*
X02577Y02085*
X02585Y02091*
X0259Y02097*
X02595Y02097*
X02606Y02093*
Y02092*
X02607Y0208*
X02612Y02069*
X02618Y02061*
X02616Y02051*
X02613Y02045*
X02592*
Y02057*
X02549*
X02537*
X02521*
X02478*
X02478*
X02464Y02053*
X02385*
Y01998*
Y01993*
X02425*
Y01983*
X02385*
Y0196*
Y01923*
X02403*
Y01917*
X02404Y01908*
X02409Y01901*
X02424Y01886*
X02418Y01872*
X02392*
Y01881*
X0239Y0189*
X02385Y01897*
X02367Y01915*
X0237Y01921*
Y0198*
X02309*
X02318Y01996*
X0237*
Y02055*
X02291*
X02276Y02057*
X02274Y02061*
X0227Y02071*
X02264Y02079*
X02256Y02085*
X02246Y02089*
X02236Y0209*
X02226Y02089*
X02224Y02091*
X02217Y021*
X02216Y02102*
X02219Y02109*
X0222Y02113*
X02157*
X02149Y02098*
X02149Y02097*
X02137Y02092*
X02127Y02084*
X0212Y02075*
X02115Y02063*
X02113Y02051*
X02115Y02039*
Y02038*
X02108Y02023*
Y01968*
Y01918*
Y01868*
Y01851*
X02165*
Y01846*
X0217*
Y01818*
X02222*
Y01801*
X02219*
Y01767*
Y01734*
X02222*
Y01728*
X02223Y01719*
X02228Y01712*
X02231Y01709*
X02225Y01695*
X02108*
Y01734*
Y0175*
Y0176*
X02074*
X02041*
Y0175*
Y01738*
Y01722*
Y01709*
X02025Y01702*
X01998Y01729*
Y01818*
X02033*
Y01868*
Y01924*
X0204*
X02049Y01925*
X02056Y0193*
X0207Y01945*
X02075Y01952*
X02077Y0196*
Y02028*
X02081Y02032*
X02087Y0204*
X02091Y02049*
X02092Y02059*
X02091Y02068*
X02087Y02077*
X02081Y02085*
X02074Y02091*
X02064Y02095*
X02055Y02107*
X02054Y02111*
Y02112*
X02054Y02113*
X02023*
Y02118*
X02018*
Y02149*
X02015Y02148*
X02007Y02145*
X02001Y0214*
X01996Y02134*
X01992Y02126*
X01991Y02118*
X01984Y02109*
X0197Y02104*
X01966*
X01954*
X01911*
Y02091*
X01905*
X01897Y0209*
X0189Y02085*
X01874Y0207*
X0187Y02063*
X01868Y02055*
Y0205*
X01866Y02047*
X01852Y0204*
X01848Y02042*
X01838Y02043*
X01828Y02042*
X01818Y02038*
X0181Y02032*
X01804Y02023*
X018Y02014*
X01798Y02003*
X018Y01993*
X01804Y01984*
X0181Y01975*
X01818Y01969*
X01828Y01965*
X01838Y01964*
X01848Y01965*
X01852Y01967*
X01866Y0196*
X01868Y01957*
Y01771*
X0187Y01763*
X01874Y01756*
X01987Y01644*
X01981Y01628*
X01848*
X01842Y01638*
X0184Y01644*
X01843Y01651*
X01844Y01656*
X0177*
X0177Y01651*
X01773Y01644*
X01771Y01638*
X01765Y01628*
X01711*
Y01649*
X01709Y01661*
X01704Y01672*
X01697Y01681*
X01646Y01733*
X01637Y0174*
X01626Y01744*
X01614Y01746*
X01298*
X0127Y01774*
X01201Y01843*
X01201Y01849*
X0121Y0186*
X01215Y01872*
X01217Y01885*
X01215Y01899*
X0121Y01911*
X01201Y01922*
X01191Y0193*
X01178Y01935*
X01165Y01937*
X01152Y01935*
X01139Y0193*
X01128Y01922*
X01123Y01921*
X0104Y02004*
X0103Y02012*
X01019Y02016*
X01007Y02018*
X00614*
Y02066*
X00627Y02072*
X0063*
X00677*
Y02133*
X00682*
Y02138*
X00737*
Y02186*
Y02194*
X0073Y02207*
Y0221*
Y02227*
X00702*
Y02232*
X00697*
Y02265*
X00687*
X00675*
X00659*
X00616*
X00614Y0228*
Y02345*
X00615Y02346*
X00639*
Y02331*
X00696*
X00753*
Y02349*
Y02399*
Y02454*
X0076Y02456*
X00767Y02461*
X00779Y02472*
X00784Y02479*
X00785Y02488*
Y02601*
X00808Y02623*
X00832*
Y02579*
X00887*
X00942*
Y02635*
X00936Y02649*
X0094Y02653*
X00945Y0266*
X00947Y02669*
Y02678*
X00962Y02682*
X00971Y02666*
X00971Y02666*
X0097Y02662*
X01003*
Y02657*
X01008*
Y02624*
X01012Y02624*
X0102Y02628*
X01023Y0263*
X01032Y02632*
X01044Y02629*
X01052Y0262*
Y02553*
X01041*
Y02509*
Y02498*
Y02482*
Y02471*
X01074*
Y02466*
X01079*
Y02439*
X01095*
X01101Y02432*
X01103Y02418*
X01108Y02406*
X01117Y02395*
X01127Y02387*
X0114Y02382*
X01148Y02381*
Y02432*
Y02483*
X0114Y02482*
X01127Y02476*
X01124Y02473*
X01108Y02481*
Y02502*
X01124Y0251*
X01127Y02507*
X0114Y02502*
X01153Y025*
X01166Y02502*
X01179Y02507*
X0119Y02515*
X01208Y02513*
X01474Y02246*
X01482Y0224*
X0149Y02237*
X015Y02235*
X01611*
X0163Y02217*
X0163Y02215*
X01636Y02207*
X01644Y02201*
X01653Y02197*
X01663Y02196*
X01673Y02197*
X01682Y02201*
X0169Y02207*
X01696Y02215*
X01699Y02224*
X01701Y02234*
X01699Y02244*
X01698Y02246*
X01706Y0226*
X01708Y02262*
X01728*
X01736Y02264*
X01743Y02268*
X01746Y02271*
X01755Y0227*
X01761Y02265*
Y02253*
Y02243*
X01795*
Y02238*
X018*
Y0221*
X01828*
Y0222*
X01844Y02223*
X01845Y02221*
X01851Y02213*
X01859Y02207*
X01868Y02203*
X01873Y02203*
Y0224*
X01883*
Y02203*
X01887Y02203*
X01894Y02206*
X01898Y02206*
X01914Y02201*
X01941Y02174*
X01948Y02169*
X01956Y02167*
X01992*
X02Y02169*
X02007Y02174*
X02026Y02193*
X02031Y022*
X02032Y02208*
Y02217*
X02048Y0222*
X02051Y02212*
X02056Y02205*
X02062Y022*
X0207Y02197*
X02078Y02196*
X02086Y02197*
X02088Y02194*
X02098Y02187*
X02109Y02182*
X02122Y0218*
X02134Y02182*
X02145Y02187*
X02153Y02193*
X02155Y02194*
X02166Y02203*
X02169Y022*
X02176Y02197*
X0218Y02197*
X02185Y02196*
X02193Y02197*
X022Y022*
X02207Y02205*
X02212Y02212*
X02215Y0222*
X02216Y02225*
X02232*
X02233Y0222*
X02236Y02212*
X02241Y02205*
X02247Y022*
X02255Y02197*
X02263Y02196*
X02272Y02197*
X02279Y022*
X02285Y02205*
X02291Y022*
X02298Y02197*
X02307Y02196*
X02315Y02197*
X02323Y022*
X02329Y02205*
X02334Y02212*
X02337Y0222*
X02338Y02228*
X02338Y02228*
X02338Y02237*
X02346Y02244*
X02354Y02248*
X02361Y02253*
X02361Y02253*
X02374Y02244*
X0237Y02236*
X02369Y02228*
X0237Y0222*
X02374Y02212*
X02379Y02205*
X02385Y022*
X02393Y02197*
X02401Y02196*
X02409Y02197*
X02417Y022*
X02424Y02205*
X02429Y02212*
X02432Y0222*
X02433Y02228*
X02432Y02236*
X02429Y02244*
X02424Y0225*
X02422Y02251*
Y02345*
X02487Y0241*
X02491Y02417*
X02493Y02425*
Y02692*
X02498Y02699*
X02549*
X02552Y02683*
X02551Y02683*
X02541Y02675*
X02533Y02665*
X02528Y02654*
X02527Y02641*
X02528Y02629*
X02533Y02617*
X02541Y02608*
X02551Y026*
X02562Y02595*
X02574Y02594*
X02587Y02595*
X02598Y026*
X02606Y02606*
X02619Y02615*
X02626Y02609*
X02635Y02605*
X02645Y02604*
X02655Y02605*
X02664Y02609*
X02672Y02615*
X02678Y02622*
X02682Y02632*
X02683Y02641*
X02682Y02651*
X02678Y0266*
X02672Y02668*
X02664Y02674*
X02655Y02678*
X02645Y02679*
X02635Y02678*
X02626Y02674*
X02619Y02668*
X02606Y02677*
X02598Y02683*
X02597Y02683*
X026Y02699*
X02618*
X02626Y02701*
X02633Y02705*
X02684Y02756*
X02688Y02763*
X0269Y02771*
Y02802*
X02704Y02808*
X02757Y02755*
G37*
G36*
X02113Y00556D02*
X02127Y00551D01*
X02142Y00549*
X02157Y00551*
X02165Y00554*
X02175Y00541*
X02171Y00537*
X02167Y00526*
X02165Y00514*
Y00503*
X02149Y00501*
X02138Y00509*
X02125Y00515*
X02111Y00516*
X02096Y00515*
X02083Y00509*
X02071Y005*
X02063Y00489*
X02057Y00475*
X02055Y00461*
Y00445*
X02057Y00431*
X02063Y00417*
X02071Y00406*
X02083Y00397*
X02096Y00391*
X02111Y0039*
X02125Y00391*
X02138Y00397*
X02149Y00405*
X02165Y00403*
Y00203*
X02149Y00201*
X02138Y00209*
X02125Y00215*
X02111Y00216*
X02096Y00215*
X02083Y00209*
X02071Y002*
X02063Y00189*
X02057Y00175*
X02055Y00161*
Y00145*
X02057Y00131*
X02063Y00117*
X02063Y00116*
X02056Y001*
X02037*
X02031Y0011*
X02029Y00116*
X02032Y00124*
X02033Y00128*
X01959*
X01959Y00124*
X01962Y00116*
X0196Y0011*
X01954Y001*
X01866*
X01858Y00116*
X01859Y00117*
X01864Y00131*
X01866Y00145*
Y00155*
X01947*
X01953Y0015*
X01959Y0014*
X01959Y00138*
X01991*
Y0017*
X0199Y0017*
X01979Y00177*
X01974Y00182*
Y00266*
X01852*
Y00233*
X01829*
X0182Y00231*
X01813Y00226*
X01802Y00215*
X01796Y00215*
X01783Y00209*
X01771Y002*
X01763Y00189*
X01757Y00175*
X01755Y00161*
Y00145*
X01757Y00131*
X01763Y00117*
X01771Y00106*
X01783Y00097*
X01783Y00086*
X0177Y00073*
X01706*
X017Y00087*
X01706Y00093*
X01711Y00101*
X01713Y0011*
Y00273*
X01769Y00329*
X01774Y00337*
X01776Y00346*
Y00384*
X01787Y00395*
X01796Y00391*
X01811Y0039*
X01825Y00391*
X01836Y00396*
X01844Y00393*
X01852Y00387*
Y00348*
X01974*
Y00458*
X01892*
X0188Y0047*
X01872Y00475*
X01864Y00477*
X01859Y00489*
X0185Y005*
X01838Y00509*
X0183Y00513*
X01824Y00529*
X01844Y00549*
X01857Y00551*
X0187Y00556*
X01882Y00566*
X01901*
X01913Y00556*
X01927Y00551*
X01942Y00549*
X01957Y00551*
X0197Y00556*
X01982Y00566*
X02001*
X02013Y00556*
X02027Y00551*
X02042Y00549*
X02057Y00551*
X0207Y00556*
X02082Y00566*
X02101*
X02113Y00556*
G37*
G36*
X03374Y01396D02*
X03359Y01393D01*
X03354Y01404*
X03347Y01414*
X03319Y01441*
X0331Y01449*
X03301Y01452*
Y01456*
X033Y01468*
X03295Y01479*
X03288Y01489*
X03278Y01496*
X03267Y015*
X03255Y01502*
X03208*
X03196Y015*
X03185Y01496*
X03176Y01489*
X03169Y01479*
X03164Y01468*
X03163Y01456*
Y01452*
X03147Y01442*
X03147*
X03137Y01443*
X03128Y01442*
X03118Y01438*
X03111Y01432*
X03105Y01424*
X03101Y01415*
X031Y01405*
X03087Y01392*
X03079Y01393*
X03076Y01397*
Y01476*
X03078Y01491*
X03078Y01492*
X03078*
Y0157*
X03068*
X03066Y01578*
X03062Y01585*
X02944Y01703*
X02937Y01708*
X02929Y0171*
X02665*
X02657Y01708*
X0265Y01703*
X02613Y01666*
X02376*
Y01706*
Y0171*
Y01726*
X02385Y01736*
X0239Y01743*
X02392Y01752*
Y01757*
X0245*
Y0181*
X02463Y01819*
X02478Y01816*
X02521*
X02533*
X02549*
X02592*
X02606Y01816*
X02616*
X02617Y0181*
X02622Y01803*
X02645Y01779*
X02653Y01774*
X02661Y01773*
X02675*
X02675Y0177*
X02681Y01759*
X0269Y01749*
X027Y01741*
X02711Y01735*
X02723Y01731*
X02736Y0173*
X02749Y01731*
X02761Y01735*
X02772Y01741*
X02782Y01749*
X0279Y01759*
X02796Y01769*
X0283*
Y01757*
X02925*
Y01769*
X02944*
Y01757*
X03039*
Y01832*
X02944*
Y01821*
X02925*
Y01832*
X0283*
Y01821*
X02796*
X0279Y01831*
X02782Y01841*
X02772Y01849*
X02761Y01855*
X02749Y01859*
X02736Y0186*
X02723Y01859*
X02711Y01855*
X027Y01849*
X0269Y01841*
X02687Y01837*
X02669Y01835*
X02667Y01848*
Y01891*
Y01903*
Y01919*
Y01962*
X02655*
Y02001*
X02676*
X02677Y02*
X02684Y01991*
X02686Y01989*
X0269Y01985*
X027Y01977*
X0271Y01971*
Y01964*
X02711Y01957*
X02713Y01951*
X02718Y01946*
X02769Y01895*
X02774Y01891*
X0278Y01888*
X02787Y01887*
X0283*
Y01876*
X02925*
Y01887*
X02944*
Y01876*
X03039*
Y0195*
X02944*
Y01939*
X02925*
Y0195*
X0283*
Y01939*
X02798*
X02774Y01962*
X02777Y01981*
X02782Y01985*
X0279Y01995*
X02796Y02006*
X028Y02018*
X02801Y02031*
X028Y02044*
X02796Y02056*
X0279Y02067*
X02782Y02077*
X02772Y02085*
X02761Y02091*
X02749Y02095*
X02736Y02096*
X02723Y02095*
X02715Y02093*
X02697Y02111*
Y02187*
X02707*
Y02226*
X02716*
X02725Y02227*
X02732Y02232*
X02759Y0226*
X02764Y02267*
X02766Y02275*
Y02674*
X0277Y02678*
X02774Y02683*
X02778Y02686*
X02782Y0269*
X02797Y02682*
Y02681*
X02799Y02673*
X02804Y02666*
X02829Y02641*
X02836Y02636*
X02844Y02634*
X02856*
Y02628*
X02881*
X02885Y0262*
X02887Y02612*
X02849Y02575*
X02843Y02567*
X02839Y02557*
X02838Y02551*
X02789*
Y02496*
Y02446*
Y02396*
Y02346*
X02838*
Y02309*
X02789*
Y02187*
X02838*
Y02149*
X02839Y02139*
X02843Y02129*
X02849Y02121*
X02858Y02115*
X02867Y02111*
X02878Y02109*
X03039*
X03049Y02111*
X03059Y02115*
X03067Y02121*
X03087Y02141*
X03093Y02149*
X03097Y02159*
X03098Y02169*
Y02213*
X03114Y02221*
X03124Y02215*
X03141Y02208*
X03158Y02203*
X03177Y02202*
X03195Y02203*
X03213Y02208*
X0323Y02215*
X03245Y02224*
X03259Y02236*
X03271Y0225*
X03281Y02266*
X03288Y02282*
X03292Y023*
X03293Y02318*
X03292Y02337*
X03288Y02354*
X03281Y02371*
X03271Y02387*
X03259Y02401*
X03245Y02413*
X0323Y02422*
X03213Y02429*
X03195Y02434*
X03177Y02435*
X03158Y02434*
X03141Y02429*
X03124Y02422*
X03114Y02416*
X03098Y02424*
Y02476*
X03098Y02477*
X03098Y02478*
X03098Y02482*
X03097Y02487*
X03097Y02487*
X03096Y02488*
X03095Y02492*
X03093Y02496*
X03092Y02497*
X03092Y02498*
X03093Y02508*
X031Y02517*
X03106Y02528*
X03109Y02539*
X0311Y02546*
X03115Y02551*
X03118Y02553*
X03126Y02555*
X03135Y02552*
X0315Y0255*
X03164Y02552*
X03177Y02557*
X03189Y02566*
X03198Y02578*
X03203Y02591*
X03205Y02605*
X03203Y0262*
X03198Y02633*
X03189Y02645*
X03177Y02654*
X03164Y02659*
X0315Y02661*
X03135Y02659*
X03122Y02654*
X03118Y02651*
X03099Y0267*
X03092Y02675*
X03084Y02677*
X02934*
X02923Y02687*
Y02742*
Y02753*
Y02808*
Y02812*
Y02835*
X0289*
Y02845*
X02923*
Y02859*
X0294*
X02949Y02861*
X02956Y02866*
X02984Y02893*
X02988Y02893*
X03001Y02895*
X03004Y02896*
X03012Y02882*
X03009Y0288*
X03002Y02871*
X02996Y0286*
X02993Y02849*
X02992Y02838*
Y02837*
X03046*
Y02897*
X0304Y02896*
X03028Y02892*
X03022Y02907*
X03024Y02908*
X03032Y02919*
X03038Y02931*
X03039Y02944*
X03038Y02958*
X03032Y0297*
X03024Y02981*
X03014Y02989*
X03001Y02994*
X02988Y02996*
X02974Y02994*
X02971Y02993*
X02843Y0312*
X02849Y03135*
X02888*
X02892*
X02958*
Y03141*
X03041*
X03042Y03125*
X0304Y03125*
X03028Y03122*
X03018Y03116*
X03009Y03109*
X03002Y031*
X02996Y0309*
X02993Y03079*
X02992Y03067*
Y03066*
X03051*
Y03061*
X03056*
Y02996*
X03063Y02997*
X03074Y03*
X03084Y03006*
X03093Y03013*
X031Y03022*
X03106Y03033*
X03109Y03044*
X0311Y03051*
X03115Y03056*
X03118Y03058*
X03126Y0306*
X03135Y03057*
X0315Y03055*
X03164Y03057*
X03177Y03062*
X03189Y03071*
X03198Y03083*
X03203Y03096*
X03205Y0311*
X03203Y03125*
X03198Y03138*
X03189Y0315*
X03177Y03159*
X03164Y03164*
X0315Y03166*
X03135Y03164*
X03122Y03159*
X0312Y03157*
X031Y03177*
X03093Y03182*
X03085Y03183*
X0297*
X02958Y03194*
Y03249*
Y0326*
Y03303*
Y03315*
Y03331*
Y03341*
X02925*
X02892*
Y03331*
Y03319*
Y03303*
Y03277*
X02724*
X02716Y03275*
X02709Y0327*
X02607Y03168*
X02602Y03161*
X02602Y03159*
X02597*
Y03126*
Y03092*
X02601*
Y0304*
X02548Y02987*
X02531*
Y03015*
X02483*
Y03017*
X02478*
Y03041*
X02435*
Y03013*
X02421*
X02413Y03011*
X02406Y03007*
X02385Y02985*
X02125*
X0211Y02996*
X02109Y03004*
X02106Y03011*
X02101Y03018*
X02099Y03019*
Y03059*
X02098Y03067*
X02093Y03074*
X02003Y03164*
X02004Y03169*
X02003Y03177*
X02Y03185*
X01994Y03191*
X01988Y03196*
X0198Y032*
X01972Y03201*
X01964Y032*
X01956Y03196*
X0195Y03191*
X01944Y03185*
X01941Y03177*
X0194Y03169*
X01941Y03161*
X01944Y03153*
X0195Y03146*
X01956Y03141*
X01964Y03138*
X0197Y03137*
X02057Y0305*
Y03019*
X02056Y03018*
X02051Y03011*
X02048Y03004*
X02047Y02996*
X02032Y02985*
X01787*
X0178Y02984*
X01779Y02984*
X01771Y02983*
X01763Y0298*
X01757Y02975*
X01752Y02968*
X01748Y02961*
X01747Y02952*
X01748Y02944*
X01752Y02936*
X01757Y0293*
X01763Y02925*
X01771Y02922*
X01777Y02921*
X01781Y02914*
X01783Y02905*
X0176Y02881*
X01755Y02874*
X01753Y02866*
Y02859*
X01751Y02857*
X01734Y02855*
X01732Y02858*
X01725Y02862*
X01716Y02864*
X01703*
X01703Y02865*
X01697Y0287*
X01689Y02873*
X01685Y02873*
X01681Y02879*
X01679Y02883*
X01678Y02889*
X01682Y02894*
X01686Y02903*
X01686Y02908*
X01649*
Y02913*
X01644*
Y0295*
X01639Y02949*
X01639Y02949*
X01623Y02959*
Y02975*
X01648Y03*
X01906Y03258*
X01941*
X01942Y03257*
X01948Y03252*
X01956Y03248*
X01964Y03247*
X01972Y03248*
X0198Y03252*
X01987Y03257*
X01987Y03258*
X02004Y03261*
X02007Y0326*
X02161Y03106*
X02168Y03101*
X02177Y031*
X02454*
X02457Y03097*
X02466Y03093*
X02476Y03092*
X02486Y03093*
X02495Y03097*
X02503Y03103*
X02509Y03111*
X02512Y0312*
X02514Y03129*
X02512Y03139*
X02509Y03148*
X02503Y03156*
X02495Y03162*
X02486Y03166*
X02476Y03167*
X02466Y03166*
X02457Y03162*
X02449Y03156*
X02443Y03148*
X02441Y03144*
X02186*
X01923Y03407*
X01929Y03423*
X01962*
X01978*
X01989*
Y03456*
Y0349*
X01975*
X01969Y03505*
X01972Y03507*
X01981Y03519*
X01986Y03532*
X01988Y03547*
X01986Y03561*
X01981Y03575*
X01972Y03586*
X0196Y03595*
X01947Y036*
X01933Y03602*
X01918Y036*
X01905Y03595*
X01893Y03586*
X01893Y03585*
X01873*
X01872Y03586*
X0186Y03595*
X01847Y036*
X01833Y03602*
X01818Y036*
X01805Y03595*
X01793Y03586*
X01793Y03585*
X01773*
X01772Y03586*
X0176Y03595*
X01747Y036*
X01733Y03602*
X01718Y036*
X01705Y03595*
X01693Y03586*
X01693Y03585*
X01673*
X01672Y03586*
X0166Y03595*
X01647Y036*
X01633Y03602*
X01618Y036*
X01605Y03595*
X01593Y03586*
X01593Y03585*
X01573*
X01572Y03586*
X0156Y03595*
X01547Y036*
X01533Y03602*
X01518Y036*
X01505Y03595*
X01493Y03586*
X01493Y03585*
X01473*
X01472Y03586*
X0146Y03595*
X01447Y036*
X01433Y03602*
X01418Y036*
X01405Y03595*
X01393Y03586*
X01393Y03585*
X01373*
X01372Y03586*
X0136Y03595*
X01347Y036*
X01333Y03602*
X01318Y036*
X01305Y03595*
X01293Y03586*
X01293Y03585*
X01273*
X01272Y03586*
X0126Y03595*
X01247Y036*
X01233Y03602*
X01218Y036*
X01205Y03595*
X01193Y03586*
X01193Y03585*
X01173*
X01172Y03586*
X0116Y03595*
X01147Y036*
X01133Y03602*
X01118Y036*
X01105Y03595*
X01093Y03586*
X01093Y03585*
X01073*
X01072Y03586*
X0106Y03595*
X01047Y036*
X01033Y03602*
X01018Y036*
X01005Y03595*
X00993Y03586*
X00993Y03585*
X00973*
X00972Y03586*
X0096Y03595*
X00947Y036*
X00933Y03602*
X00918Y036*
X00905Y03595*
X00893Y03586*
X00893Y03585*
X00873*
X00872Y03586*
X0086Y03595*
X00847Y036*
X00838Y03602*
Y03547*
Y03492*
X00847Y03493*
X0086Y03499*
X00872Y03507*
X00873Y03508*
X00893*
X00893Y03507*
X00905Y03499*
X00918Y03493*
X00933Y03491*
X00947Y03493*
X0096Y03499*
X00962Y035*
X00968Y035*
X00981Y03494*
X00981Y03493*
X00927Y03438*
X00913Y03434*
X00818*
Y03386*
X00866*
Y03381*
X00818*
Y0336*
Y03335*
X00866*
X00913*
Y0336*
Y03388*
X0093*
X00938Y0339*
X00945Y03394*
X01013Y03462*
X01189*
X01195Y03447*
X01192Y03444*
X01181Y03434*
X01086*
Y03386*
Y0336*
Y03315*
X01074Y03306*
X01071Y03306*
X0107*
X01063Y03307*
X01054Y03306*
X01047Y03303*
X0104Y03298*
X01035Y03291*
X01032Y03283*
X01031Y03275*
X01032Y03267*
X01035Y03259*
X0104Y03253*
Y03246*
X01035Y0324*
X01032Y03232*
X01031Y03224*
X01032Y03216*
X01035Y03208*
X0104Y03201*
X01047Y03196*
X01054Y03193*
X01063Y03192*
X01063Y03192*
X01066Y03189*
X01074Y03184*
X01082Y03182*
X01086*
Y03154*
X01181*
Y03157*
X01296*
X01304Y03158*
X01311Y03163*
X0132Y03172*
X01324Y03178*
X01325Y03183*
X01336*
Y03238*
Y03242*
Y03264*
X01303*
Y03274*
X01336*
Y03293*
X01346Y03294*
X0136Y033*
X01372Y03309*
X0139*
X01402Y033*
X01407Y03298*
Y03225*
X01158Y02976*
X01139Y0298*
X01132Y0299*
X01122Y02998*
X0111Y03002*
X01098Y03004*
X01086Y03002*
X01074Y02998*
X01074Y02997*
X01061Y02992*
X01051Y02999*
X00989Y03061*
X00995Y03075*
X01013*
X01024*
Y03109*
Y03142*
X01013*
X01002*
X0099Y03153*
Y03263*
X00988Y03272*
X00984Y03279*
X00966Y03297*
X00959Y03302*
X0095Y03303*
X00913*
Y03327*
X00866*
X00818*
Y03303*
X00795*
X00787Y03318*
X00789Y03321*
X0079Y03324*
X00796Y03331*
X008Y0334*
X008Y03345*
X00726*
X00727Y0334*
X00731Y03331*
X00732Y0333*
X00727Y03314*
X00716Y03311*
X00713*
X00646*
Y03309*
X00568*
X00539Y03337*
Y0336*
X00549Y03372*
X00604*
X00616*
X00659*
X00671*
X00687*
X00697*
Y03405*
Y03439*
X00687*
X00675*
X00659*
X00632*
Y03491*
X00633Y03491*
X00647Y03493*
X0066Y03499*
X00672Y03507*
X00673Y03508*
X00693*
X00693Y03507*
X00705Y03499*
X00718Y03493*
X00733Y03491*
X00747Y03493*
X0076Y03499*
X00772Y03507*
X00773Y03508*
X00793*
X00793Y03507*
X00805Y03499*
X00818Y03493*
X00828Y03492*
Y03547*
Y03602*
X00818Y036*
X00805Y03595*
X00793Y03586*
X00793Y03585*
X00773*
X00772Y03586*
X0076Y03595*
X00747Y036*
X00733Y03602*
X00718Y036*
X00705Y03595*
X00693Y03586*
X00693Y03585*
X00673*
X00672Y03586*
X0066Y03595*
X00647Y036*
X00633Y03602*
X00618Y036*
X00605Y03595*
X00593Y03586*
X00593Y03585*
X00573*
X00572Y03586*
X0056Y03595*
X00547Y036*
X00533Y03602*
X00518Y036*
X00505Y03595*
X00493Y03586*
X00493Y03585*
X00473*
X00472Y03586*
X0046Y03595*
X00447Y036*
X00438Y03602*
Y03547*
Y03492*
X00447Y03493*
X0046Y03499*
X00472Y03507*
X00473Y03508*
X00493*
X00493Y03507*
X00505Y03499*
X00511Y03496*
Y03467*
X00504Y0346*
X00499Y03453*
X00497Y03444*
Y03439*
X0049*
Y03372*
X00495*
Y03328*
X00497Y0332*
X00502Y03313*
X00533Y03281*
X00527Y03265*
X00466*
Y0326*
X00362*
X00359Y03276*
X00361Y03276*
X00371Y03282*
X0038Y03289*
X00387Y03298*
X00393Y03308*
X00396Y03319*
X00397Y03331*
Y03332*
X00338*
Y03337*
X00333*
Y03402*
X00326Y03401*
X00315Y03397*
X00305Y03392*
X00296Y03385*
X00289Y03376*
X00283Y03365*
X0028Y03354*
X00279Y03347*
X00274Y03342*
X00272Y0334*
X00263Y03338*
X00254Y03341*
X0024Y03343*
X00225Y03341*
X00212Y03336*
X002Y03327*
X00191Y03315*
X00186Y03302*
X00184Y03288*
X00186Y03273*
X00191Y0326*
X002Y03248*
X00212Y03239*
X00225Y03234*
X0024Y03232*
X00254Y03234*
X0026Y03236*
X00274Y03222*
X00281Y03217*
X00289Y03216*
X00454*
X00466Y03206*
Y03182*
X00458Y03177*
X0045Y03174*
X00445Y03176*
X00437Y03177*
X00428Y03176*
X00421Y03173*
X00414Y03168*
X00409Y03161*
X00406Y03153*
X00405Y03145*
X00406Y03137*
X00409Y03129*
X00412Y03126*
X00414Y03123*
Y03109*
X00412Y03106*
X00409Y03102*
X00407Y03097*
X00399Y03095*
X0039Y03095*
X00387Y031*
X0038Y03109*
X00371Y03116*
X00361Y03122*
X0035Y03125*
X00343Y03126*
Y03061*
Y02996*
X0035Y02997*
X00361Y03*
X00371Y03006*
X0038Y03013*
X00387Y03022*
X00393Y03033*
X00396Y03044*
X00397Y03055*
Y0306*
X00413Y03065*
X00414Y03064*
X00421Y03059*
X00428Y03055*
X00432Y03055*
Y03086*
X00442*
Y03055*
X00445Y03055*
X0045Y03058*
X00458Y03055*
X00466Y03049*
Y03025*
Y03013*
Y02958*
X00454Y02949*
X00446Y02947*
X00439Y02942*
X00401Y02905*
X00396Y02898*
X00395Y02889*
Y02886*
X00383Y02881*
X00379Y0288*
X00371Y02887*
X00361Y02892*
X0035Y02896*
X00343Y02897*
Y02832*
X00333*
Y02897*
X00326Y02896*
X00315Y02892*
X00305Y02887*
X00296Y0288*
X00289Y02871*
X00283Y0286*
X0028Y02849*
X00279Y02842*
X00274Y02837*
X00272Y02835*
X00263Y02833*
X00254Y02836*
X0024Y02838*
X00225Y02836*
X00212Y02831*
X002Y02822*
X00191Y0281*
X00186Y02797*
X00184Y02783*
X00186Y02768*
X00191Y02755*
X002Y02743*
X00212Y02734*
X00225Y02729*
X0024Y02727*
X00254Y02729*
X0026Y02731*
X00267Y02724*
X00274Y02719*
X00282Y02718*
X00366*
X00374Y02719*
X00381Y02724*
X00432Y02775*
X00437Y02782*
X00439Y02791*
Y0288*
X00453Y02894*
X00466Y02899*
X00525*
X00533*
X00541Y02899*
X00608*
Y02912*
X0061Y02916*
X00624Y02925*
X00626Y02924*
X00634Y02926*
X00641Y02929*
X00648Y02934*
X00653Y0294*
X00656Y02948*
X00657Y02956*
X00656Y02964*
X00653Y02972*
X00648Y02979*
X00641Y02984*
X00634Y02987*
X00626Y02988*
X00624Y02988*
X0061Y02997*
X00609Y02998*
X00608Y03014*
Y03018*
X00609Y03025*
X00619Y03036*
X00625Y0304*
X00644Y03059*
X00663Y03055*
X00663Y03054*
X00671Y03045*
X0068Y03037*
X00692Y03032*
X00704Y03031*
X00717Y03032*
X00728Y03037*
X00733Y0304*
X00753*
Y0302*
X00781*
Y0301*
X00753*
Y02984*
X00741*
Y02938*
X00777*
Y02982*
X00809*
X00813Y02968*
Y02881*
X00799Y02876*
X00791*
Y02818*
X00807Y02802*
Y02788*
X00846*
Y02778*
X00807*
Y02764*
X00791Y02748*
Y02699*
X0062*
X00608Y02706*
Y02718*
Y02729*
X00574*
X00541*
Y02718*
Y02706*
X00528Y02699*
X00519*
X00511Y02697*
X00504Y02692*
X00449Y02637*
X00444Y0263*
X00442Y02622*
Y02503*
X00444Y02495*
X00449Y02488*
X00553Y02383*
X00553Y02379*
X00547Y02372*
X00544Y02363*
X00543Y02354*
Y02244*
Y02194*
X00435*
Y02164*
X00413*
Y02342*
Y02393*
Y02444*
X00412Y02454*
X00408Y02462*
X00403Y0247*
X00395Y02475*
X00387Y02479*
X00378Y0248*
X00368Y02479*
X0036Y02475*
X00352Y0247*
X00347Y02462*
X00343Y02454*
X00342Y02444*
Y02393*
Y02342*
Y02164*
X00251*
X00248Y02167*
X00236Y02172*
X00224Y02173*
X00212Y02172*
X002Y02167*
X0019Y02159*
X00183Y02149*
X00178Y02138*
X00176Y02126*
X00178Y02113*
X0018Y02108*
X00073Y02001*
X00067Y01994*
X00063Y01985*
X00062Y01976*
Y01659*
X00051Y01648*
X00028*
X00027*
X00011Y0166*
Y03649*
X00116*
X00119Y03646*
X00123Y03633*
X00114Y03623*
X00104Y03608*
X00097Y03591*
X00093Y03573*
X00092Y03555*
X00093Y03536*
X00095Y03529*
X00085Y03513*
X00083Y03512*
X00071Y03509*
X00059Y03502*
X00049Y03493*
X0004Y03483*
X00034Y03471*
X0003Y03458*
X00029Y03444*
X0003Y03431*
X00034Y03418*
X0004Y03406*
X00049Y03395*
X00059Y03387*
X00071Y0338*
X00084Y03376*
X00098Y03375*
X00112Y03376*
X00125Y0338*
X00137Y03387*
X00147Y03395*
X00156Y03406*
X00162Y03418*
X00166Y0343*
X00166Y03431*
X00183Y03441*
X0019Y0344*
X00208Y03438*
X00226Y0344*
X00244Y03444*
X00261Y03451*
X00277Y0346*
X00291Y03472*
X00302Y03486*
X00312Y03502*
X00319Y03519*
X00323Y03536*
X00325Y03555*
X00323Y03573*
X00319Y03591*
X00312Y03608*
X00302Y03623*
X00294Y03633*
X00298Y03646*
X00301Y03649*
X03084*
X03087Y03646*
X03091Y03633*
X03082Y03623*
X03073Y03608*
X03066Y03591*
X03062Y03573*
X0306Y03555*
X03062Y03536*
X03066Y03519*
X03073Y03502*
X03082Y03486*
X03094Y03472*
X03108Y0346*
X03124Y03451*
X03141Y03444*
X03158Y0344*
X03177Y03438*
X03195Y0344*
X03213Y03444*
X0323Y03451*
X03245Y0346*
X03259Y03472*
X03271Y03486*
X03281Y03502*
X03288Y03519*
X03292Y03536*
X03293Y03555*
X03292Y03573*
X03288Y03591*
X03281Y03608*
X03271Y03623*
X03262Y03633*
X03266Y03646*
X03269Y03649*
X03374*
Y01396*
G37*
G36*
X00495Y00461D02*
X00501Y00448D01*
X0051Y00436*
Y00417*
X00501Y00405*
X00495Y00391*
X00493Y00376*
X00495Y00361*
X00501Y00348*
X0051Y00336*
Y00317*
X00501Y00305*
X00495Y00291*
X00493Y00276*
X00495Y00261*
X00501Y00248*
X0051Y00236*
Y00217*
X00501Y00205*
X00495Y00191*
X00494Y00181*
X00551*
Y00176*
X00556*
Y00119*
X00566Y00121*
X0058Y00126*
X00582Y00128*
X00598Y0012*
Y0011*
X00599Y00101*
X00605Y00093*
X0061Y00087*
X00604Y00073*
X00552*
X00506Y00119*
X00516Y00131*
X00522Y00126*
X00536Y00121*
X00546Y00119*
Y00171*
X00494*
X00495Y00161*
X00501Y00148*
X00505Y00142*
X00493Y00131*
X00317Y00308*
Y00369*
X00324Y00372*
X00333Y00372*
X00338Y00363*
X00346Y00352*
X00357Y00344*
X00369Y00337*
X00382Y00333*
X00395Y00332*
X00409Y00333*
X00422Y00337*
X00434Y00344*
X00444Y00352*
X00453Y00363*
X00459Y00375*
X00463Y00388*
X00464Y00401*
X00463Y00415*
X00459Y00428*
X00453Y0044*
X00446Y00448*
X00448Y00456*
X00452Y00464*
X00495*
X00495Y00461*
G37*
G36*
X00921Y00177D02*
X00917Y00173D01*
Y0011*
X00666*
X00653Y00123*
Y00208*
X00728*
Y00212*
X00744*
Y00208*
X0083*
Y00212*
X00885*
X00921Y00177*
G37*
G36*
X02981Y00258D02*
Y00158D01*
X02958Y00135*
X0294Y00137*
X02939Y00138*
X02933Y00146*
X02899Y0018*
X02901Y00196*
X02903Y00198*
X0291Y00204*
X02916Y00212*
X0292Y00222*
X0292Y00227*
X02881*
Y00232*
X02876*
Y00271*
X02871Y0027*
X02862Y00266*
X02853Y0026*
X02847Y00252*
X02832Y00247*
X02829Y00247*
X02821Y00251*
X02811Y00252*
X02799*
X02791Y00259*
Y00263*
X0272*
Y00259*
X02712Y00252*
X02699*
X02689Y00263*
X02687Y00279*
X0269Y00282*
X02694Y00289*
X02696Y00297*
X02706Y00307*
X02718*
X02729*
Y00341*
Y00374*
X02718*
X02706*
X02696Y00386*
Y00396*
X02706Y00407*
X02761*
Y00419*
X02821*
X02981Y00258*
G37*
G36*
X02866Y00157D02*
X02905Y00118D01*
Y00093*
X02893Y00081*
X02596*
X02578Y00098*
Y00204*
X02604Y00209*
X0261Y00204*
X02696*
Y00212*
X02712*
Y00204*
X02799*
Y00212*
X02811*
X02866Y00157*
G37*
G36*
X01213Y00556D02*
X01227Y00551D01*
X01242Y00549*
X01251Y0055*
X0126Y00536*
X01257Y00532*
X01253Y00521*
X01251Y00509*
Y00504*
X01242Y00502*
X01235Y00501*
X01224Y00509*
X01211Y00515*
X01197Y00516*
X01182Y00515*
X01169Y00509*
X01157Y005*
X01149Y00489*
X01143Y00475*
X01141Y00461*
Y00445*
X01143Y00431*
X01149Y00417*
X01157Y00406*
X01169Y00397*
X01182Y00391*
X01197Y0039*
X01211Y00391*
X01224Y00397*
X01235Y00405*
X01251Y00403*
Y00203*
X01235Y00201*
X01224Y00209*
X01211Y00215*
X01197Y00216*
X01182Y00215*
X01169Y00209*
X01157Y002*
X01149Y00189*
X01143Y00175*
X01141Y00161*
Y00145*
X01126Y00141*
X01123Y00148*
X01117Y00156*
X01109Y00162*
X011Y00166*
X01095Y00167*
Y00129*
X0109*
Y00124*
X01053*
X01054Y0012*
X01054Y00118*
X01045Y00103*
X01045Y00102*
X00963*
X00957Y0011*
Y00155*
X01044*
X01054Y0014*
X01054Y00139*
X01053Y00134*
X01085*
Y00167*
X0108Y00166*
X01076Y00164*
X01064Y00171*
X01061Y00174*
Y00266*
X00939*
Y00233*
X00931*
X00923Y00231*
X00913Y0024*
X00905Y00247*
X00896Y00251*
X00885Y00252*
X0083*
X00822Y00259*
Y00267*
X00752*
Y00259*
X00744Y00252*
X00728*
X0072Y00259*
Y00267*
X00706*
Y003*
X00718Y00309*
X00741*
Y00342*
X00751*
Y00309*
X00773*
Y00325*
X00778Y0033*
X00789Y00337*
X0079Y00337*
Y00374*
Y00411*
X00789Y00411*
X00778Y00417*
X00773Y00422*
Y0047*
X00765*
Y0048*
X00763Y00488*
X00759Y00495*
X00715Y00539*
X00723Y00552*
X00727Y00551*
X00742Y00549*
X00757Y00551*
X0077Y00556*
X00782Y00566*
X00801*
X00813Y00556*
X00827Y00551*
X00842Y00549*
X00857Y00551*
X0087Y00556*
X00882Y00566*
X00901*
X00913Y00556*
X00927Y00551*
X00942Y00549*
X00957Y00551*
X0097Y00556*
X00982Y00566*
X01001*
X01013Y00556*
X01027Y00551*
X01042Y00549*
X01057Y00551*
X0107Y00556*
X01082Y00566*
X01101*
X01113Y00556*
X01127Y00551*
X01142Y00549*
X01157Y00551*
X0117Y00556*
X01182Y00566*
X01201*
X01213Y00556*
G37*
G36*
X01277Y0337D02*
X01275Y03365D01*
X01274Y03355*
X01331*
Y03345*
X01274*
X01275Y03335*
X01281Y03321*
X01286Y03315*
X01281Y033*
X01269Y03297*
X01261*
X01233*
Y03269*
X01223*
Y03297*
X01199*
X01195Y03312*
X01202Y03317*
X01264Y03378*
X01277Y0337*
G37*
G36*
X0003Y00711D02*
X00181Y0056D01*
X00175Y00545*
X00144*
X0014Y0055*
X00133Y00556*
X00123Y0056*
X00114Y00561*
X00104Y0056*
X00095Y00556*
X00087Y0055*
X00081Y00542*
X00077Y00533*
X00076Y00523*
X00077Y00513*
X00081Y00504*
X00087Y00496*
X00095Y00491*
X00104Y00487*
X00114Y00485*
X00123Y00487*
X00133Y00491*
X0014Y00496*
X00144Y00501*
X00191*
X00207Y00485*
X002Y0047*
X00194Y0047*
X00181Y00469*
X00168Y00465*
X00156Y00459*
X00145Y0045*
X00137Y0044*
X0013Y00428*
X00127Y00415*
X00125Y00401*
X00127Y00388*
X0013Y00375*
X00137Y00363*
X00145Y00352*
X00156Y00344*
X00168Y00337*
X00181Y00333*
X00194Y00332*
X00208Y00333*
X00221Y00337*
X00233Y00344*
X00243Y00352*
X00252Y00363*
X00257Y00372*
X00265Y00372*
X00273Y00369*
Y00299*
X00274Y0029*
X00279Y00283*
X00527Y00035*
X00534Y0003*
X00543Y00029*
X02905*
X02914Y0003*
X02921Y00035*
X0299Y00104*
X03004Y00096*
X03002Y00092*
X03001Y00078*
X03002Y00065*
X03006Y00052*
X03013Y0004*
X03021Y00029*
X03024Y00027*
X03018Y00011*
X00367*
X00361Y00027*
X00364Y00029*
X00372Y0004*
X00379Y00052*
X00383Y00065*
X00384Y00078*
X00383Y00092*
X00379Y00105*
X00372Y00117*
X00364Y00127*
X00353Y00136*
X00341Y00142*
X00328Y00146*
X00315Y00148*
X00301Y00146*
X00293Y00144*
X0028Y0015*
X00276Y00154*
X00276Y0016*
X00272Y00177*
X00265Y00194*
X00255Y0021*
X00243Y00224*
X00229Y00236*
X00214Y00245*
X00197Y00252*
X00179Y00256*
X00161Y00258*
X00143Y00256*
X00125Y00252*
X00108Y00245*
X00092Y00236*
X00079Y00224*
X00067Y0021*
X00057Y00194*
X0005Y00177*
X00046Y0016*
X00044Y00141*
X00046Y00123*
X0005Y00105*
X00057Y00088*
X00067Y00073*
X00079Y00059*
X00092Y00047*
X00108Y00037*
X00125Y0003*
X00139Y00027*
X00137Y00011*
X00011*
Y0071*
X00027Y00715*
X0003Y00711*
G37*
%LNrelaytester-2*%
%LPC*%
G36*
X03167Y01199D02*
X03115D01*
Y01177*
X03167*
Y01199*
G37*
G36*
X03085Y00223D02*
X03053D01*
X03054Y00218*
X03057Y00209*
X03063Y00201*
X03071Y00195*
X0308Y00191*
X03085Y00191*
Y00223*
G37*
G36*
Y00265D02*
X0308Y00264D01*
X03071Y00261*
X03063Y00255*
X03057Y00247*
X03054Y00238*
X03053Y00233*
X03085*
Y00265*
G37*
G36*
X00255Y0113D02*
X00208D01*
X00209Y01121*
X00215Y01108*
X00223Y01097*
X00234Y01089*
X00247Y01084*
X00255Y01083*
Y0113*
G37*
G36*
X01833Y01353D02*
X01801D01*
X01802Y01348*
X01805Y01339*
X01811Y01331*
X01819Y01325*
X01828Y01321*
X01833Y01321*
Y01353*
G37*
G36*
X01892Y0128D02*
X01864D01*
Y01257*
X01892*
Y0128*
G37*
G36*
X02457Y01274D02*
X02435D01*
Y01246*
X02457*
Y01274*
G37*
G36*
X01833Y01395D02*
X01828Y01394D01*
X01819Y0139*
X01811Y01384*
X01805Y01377*
X01802Y01368*
X01801Y01363*
X01833*
Y01395*
G37*
G36*
X02379Y01266D02*
X02327D01*
Y01243*
X02379*
Y01266*
G37*
G36*
X01408Y02845D02*
X01376D01*
X01376Y0284*
X0138Y02831*
X01386Y02823*
X01394Y02817*
X01403Y02814*
X01408Y02813*
Y02845*
G37*
G36*
X00984Y01798D02*
X00937D01*
X0089*
X0089Y01795*
X0088Y01779*
X00856*
Y01737*
X00893*
X00931*
Y0175*
X00937Y01755*
X00949Y01757*
X0096Y01761*
X0097Y01769*
X00978Y01779*
X00983Y0179*
X00984Y01798*
G37*
G36*
Y01884D02*
X00933D01*
X00882*
X00883Y01876*
X00888Y01864*
X00896Y01853*
X00897Y01852*
X00899Y01848*
X00899Y01832*
X00895Y01827*
X00891Y01815*
X0089Y01808*
X00937*
X00984*
X00983Y01815*
X00978Y01827*
X00971Y01835*
X0097Y01839*
X00969Y01853*
X00977Y01864*
X00982Y01876*
X00984Y01884*
G37*
G36*
X00931Y01727D02*
X00893D01*
X00856*
Y01685*
Y01677*
Y01634*
X00893*
X00931*
Y01677*
Y01685*
Y01727*
G37*
G36*
X00378Y0192D02*
X00312D01*
Y01811*
X00321Y01812*
X00334Y01816*
X00346Y01822*
X00357Y01831*
X00366Y01842*
X00372Y01854*
X00376Y01868*
X00378Y01881*
Y0192*
G37*
G36*
X00302D02*
X00235D01*
Y01881*
X00237Y01868*
X00241Y01854*
X00247Y01842*
X00256Y01831*
X00267Y01822*
X00279Y01816*
X00293Y01812*
X00302Y01811*
Y0192*
G37*
G36*
X00312Y02039D02*
Y0193D01*
X00378*
Y01968*
X00376Y01982*
X00372Y01995*
X00366Y02008*
X00357Y02018*
X00346Y02027*
X00334Y02034*
X00321Y02038*
X00312Y02039*
G37*
G36*
X00302D02*
X00293Y02038D01*
X00279Y02034*
X00267Y02027*
X00256Y02018*
X00247Y02008*
X00241Y01995*
X00237Y01982*
X00235Y01968*
Y0193*
X00302*
Y02039*
G37*
G36*
X0048Y01799D02*
X00442D01*
Y01733*
X00551*
X0055Y01742*
X00546Y01755*
X00539Y01767*
X0053Y01778*
X00519Y01787*
X00507Y01794*
X00494Y01798*
X0048Y01799*
G37*
G36*
X00432D02*
X00393D01*
X00379Y01798*
X00366Y01794*
X00354Y01787*
X00343Y01778*
X00334Y01767*
X00327Y01755*
X00323Y01742*
X00323Y01733*
X00432*
Y01799*
G37*
G36*
X02262Y02459D02*
X0223D01*
X02231Y02454*
X02235Y02445*
X02241Y02437*
X02248Y02431*
X02258Y02428*
X02262Y02427*
Y02459*
G37*
G36*
X02304D02*
X02272D01*
Y02427*
X02277Y02428*
X02286Y02431*
X02294Y02437*
X023Y02445*
X02304Y02454*
X02304Y02459*
G37*
G36*
X02262Y02501D02*
X02258Y02501D01*
X02248Y02497*
X02241Y02491*
X02235Y02483*
X02231Y02474*
X0223Y02469*
X02262*
Y02501*
G37*
G36*
X02272D02*
Y02469D01*
X02304*
X02304Y02474*
X023Y02483*
X02294Y02491*
X02286Y02497*
X02277Y02501*
X02272Y02501*
G37*
G36*
X01812Y02755D02*
Y02713D01*
X01854*
X01853Y02721*
X01848Y02732*
X0184Y02742*
X0183Y02749*
X01819Y02754*
X01812Y02755*
G37*
G36*
X01854Y02703D02*
X01812D01*
Y02661*
X01819Y02662*
X0183Y02667*
X0184Y02675*
X01848Y02684*
X01853Y02696*
X01854Y02703*
G37*
G36*
X0264Y01505D02*
X02635Y01504D01*
X02626Y01501*
X02619Y01495*
X02613Y01487*
X02609Y01478*
X02608Y01473*
X0264*
Y01505*
G37*
G36*
X0265D02*
Y01473D01*
X02682*
X02682Y01478*
X02678Y01487*
X02672Y01495*
X02664Y01501*
X02655Y01504*
X0265Y01505*
G37*
G36*
X0182Y01861D02*
X01788D01*
Y01829*
X01793Y01829*
X01802Y01833*
X0181Y01839*
X01816Y01847*
X01819Y01856*
X0182Y01861*
G37*
G36*
X01778D02*
X01746D01*
X01747Y01856*
X0175Y01847*
X01756Y01839*
X01764Y01833*
X01773Y01829*
X01778Y01829*
Y01861*
G37*
G36*
X0216Y01841D02*
X02108D01*
Y01818*
X0216*
Y01841*
G37*
G36*
X02069Y01793D02*
X02041D01*
Y0177*
X02069*
Y01793*
G37*
G36*
X02209Y01801D02*
X02187D01*
Y01772*
X02209*
Y01801*
G37*
G36*
X02108Y01793D02*
X02079D01*
Y0177*
X02108*
Y01793*
G37*
G36*
X01357Y0188D02*
X01311D01*
X01312Y01872*
X01317Y0186*
X01325Y01849*
X01336Y01841*
X01348Y01836*
X01357Y01834*
Y0188*
G37*
G36*
X02554Y02113D02*
X02522D01*
X02522Y02108*
X02526Y02099*
X02532Y02091*
X0254Y02085*
X02549Y02081*
X02554Y02081*
Y02113*
G37*
G36*
X00737Y02128D02*
X00687D01*
Y02072*
X00737*
Y02128*
G37*
G36*
X02194Y02149D02*
Y02123D01*
X0222*
X02219Y02126*
X02216Y02134*
X02211Y0214*
X02204Y02145*
X02197Y02148*
X02194Y02149*
G37*
G36*
X02184D02*
X0218Y02148D01*
X02173Y02145*
X02166Y0214*
X02161Y02134*
X02158Y02126*
X02157Y02123*
X02184*
Y02149*
G37*
G36*
X02028D02*
Y02123D01*
X02054*
X02054Y02126*
X02051Y02134*
X02046Y0214*
X02039Y02145*
X02031Y02148*
X02028Y02149*
G37*
G36*
X01778Y01903D02*
X01773Y01902D01*
X01764Y01898*
X01756Y01892*
X0175Y01885*
X01747Y01875*
X01746Y01871*
X01778*
Y01903*
G37*
G36*
X01413Y0188D02*
X01367D01*
Y01834*
X01375Y01836*
X01388Y01841*
X01398Y01849*
X01406Y0186*
X01412Y01872*
X01413Y0188*
G37*
G36*
X01367Y01936D02*
Y0189D01*
X01413*
X01412Y01899*
X01406Y01911*
X01398Y01922*
X01388Y0193*
X01375Y01935*
X01367Y01936*
G37*
G36*
X01357D02*
X01348Y01935D01*
X01336Y0193*
X01325Y01922*
X01317Y01911*
X01312Y01899*
X01311Y0189*
X01357*
Y01936*
G37*
G36*
X01788Y01903D02*
Y01871D01*
X0182*
X01819Y01875*
X01816Y01885*
X0181Y01892*
X01802Y01898*
X01793Y01902*
X01788Y01903*
G37*
G36*
X01812Y01698D02*
Y01666D01*
X01844*
X01843Y01671*
X01839Y0168*
X01833Y01688*
X01825Y01694*
X01816Y01697*
X01812Y01698*
G37*
G36*
X01802D02*
X01797Y01697D01*
X01788Y01694*
X0178Y01688*
X01774Y0168*
X0177Y01671*
X0177Y01666*
X01802*
Y01698*
G37*
G36*
X02209Y01762D02*
X02187D01*
Y01734*
X02209*
Y01762*
G37*
G36*
X00942Y02421D02*
X00885D01*
X00828*
Y02399*
Y02381*
X00885*
X00942*
Y02399*
Y02421*
G37*
G36*
X02652Y02368D02*
X026D01*
Y02346*
X02652*
Y02368*
G37*
G36*
X01204Y02427D02*
X01158D01*
Y02381*
X01166Y02382*
X01179Y02387*
X0119Y02395*
X01198Y02406*
X01203Y02418*
X01204Y02427*
G37*
G36*
X01069Y02461D02*
X01041D01*
Y02439*
X01069*
Y02461*
G37*
G36*
X00942Y02471D02*
X00885D01*
X00828*
Y02449*
Y02431*
X00885*
X00942*
Y02449*
Y02471*
G37*
G36*
X01158Y02483D02*
Y02437D01*
X01204*
X01203Y02445*
X01198Y02457*
X0119Y02468*
X01179Y02476*
X01166Y02482*
X01158Y02483*
G37*
G36*
X0179Y02233D02*
X01761D01*
Y0221*
X0179*
Y02233*
G37*
G36*
X00707Y02265D02*
Y02237D01*
X0073*
Y02265*
X00707*
G37*
G36*
X02554Y02155D02*
X02549Y02154D01*
X0254Y0215*
X02532Y02144*
X02526Y02137*
X02522Y02127*
X02522Y02123*
X02554*
Y02155*
G37*
G36*
X00691Y02321D02*
X00639D01*
Y02299*
X00691*
Y02321*
G37*
G36*
X00942D02*
X0089D01*
Y02299*
X00942*
Y02321*
G37*
G36*
Y02371D02*
X00885D01*
X00828*
Y02349*
Y02331*
X00885*
X00942*
Y02349*
Y02371*
G37*
G36*
X00753Y02321D02*
X00701D01*
Y02299*
X00753*
Y02321*
G37*
G36*
X0088D02*
X00828D01*
Y02299*
X0088*
Y02321*
G37*
G36*
X00942Y02569D02*
X00887D01*
X00832*
Y02518*
X00828Y02504*
Y02499*
Y02481*
X00885*
X00942*
Y02498*
Y02504*
X00942Y02519*
Y02569*
G37*
G36*
X00998Y02652D02*
X0097D01*
X00971Y02648*
X00974Y0264*
X0098Y02633*
X00987Y02628*
X00995Y02624*
X00998Y02624*
Y02652*
G37*
G36*
X02001Y0017D02*
Y00138D01*
X02033*
X02032Y00143*
X02028Y00152*
X02022Y0016*
X02014Y00166*
X02005Y0017*
X02001Y0017*
G37*
G36*
X03056Y03402D02*
Y03337D01*
Y03272*
X03063Y03273*
X03074Y03276*
X03079Y03279*
X03093Y03274*
X03097Y03271*
X03101Y0326*
X0311Y03248*
X03122Y03239*
X03135Y03234*
X03145Y03233*
Y03288*
Y03342*
X03135Y03341*
X03126Y03338*
X03118Y0334*
X03115Y03342*
X0311Y03347*
X03109Y03354*
X03106Y03365*
X031Y03376*
X03093Y03385*
X03084Y03392*
X03074Y03397*
X03063Y03401*
X03056Y03402*
G37*
G36*
X03204Y03283D02*
X03155D01*
Y03233*
X03164Y03234*
X03177Y03239*
X03189Y03248*
X03198Y0326*
X03203Y03273*
X03204Y03283*
G37*
G36*
X00235Y03165D02*
X00225Y03164D01*
X00212Y03159*
X002Y0315*
X00191Y03138*
X00186Y03125*
X00185Y03115*
X00235*
Y03165*
G37*
G36*
X02587Y03159D02*
X02565D01*
Y03131*
X02587*
Y03159*
G37*
G36*
X03046Y03332D02*
X02992D01*
Y03331*
X02993Y03319*
X02996Y03308*
X03002Y03298*
X03009Y03289*
X03018Y03282*
X03028Y03276*
X0304Y03273*
X03046Y03272*
Y03332*
G37*
G36*
X03155Y03342D02*
Y03293D01*
X03204*
X03203Y03302*
X03198Y03315*
X03189Y03327*
X03177Y03336*
X03164Y03341*
X03155Y03342*
G37*
G36*
X02585Y03363D02*
X0258Y03363D01*
X02571Y03359*
X02563Y03353*
X02557Y03345*
X02554Y03336*
X02553Y03331*
X02585*
Y03363*
G37*
G36*
Y03321D02*
X02553D01*
X02554Y03317*
X02557Y03307*
X02563Y033*
X02571Y03294*
X0258Y0329*
X02585Y03289*
Y03321*
G37*
G36*
X02627D02*
X02595D01*
Y03289*
X026Y0329*
X02609Y03294*
X02617Y033*
X02623Y03307*
X02627Y03317*
X02627Y03321*
G37*
G36*
X00245Y03165D02*
Y0311D01*
Y03055*
X00254Y03057*
X00263Y0306*
X00272Y03058*
X00274Y03056*
X00279Y03051*
X0028Y03044*
X00283Y03033*
X00289Y03022*
X00296Y03013*
X00305Y03006*
X00315Y03*
X00326Y02997*
X00333Y02996*
Y03061*
Y03126*
X00326Y03125*
X00315Y03122*
X0031Y03119*
X00296Y03124*
X00293Y03127*
X00288Y03138*
X00279Y0315*
X00267Y03159*
X00254Y03164*
X00245Y03165*
G37*
G36*
X03046Y03056D02*
X02992D01*
Y03055*
X02993Y03044*
X02996Y03033*
X03002Y03022*
X03009Y03013*
X03018Y03006*
X03028Y03*
X0304Y02997*
X03046Y02996*
Y03056*
G37*
G36*
X01654Y0295D02*
Y02918D01*
X01686*
X01686Y02923*
X01682Y02932*
X01676Y0294*
X01668Y02946*
X01659Y02949*
X01654Y0295*
G37*
G36*
X00731Y02984D02*
X00694D01*
Y02938*
X00731*
Y02984*
G37*
G36*
X02531Y03041D02*
X02488D01*
Y03022*
X02531*
Y03041*
G37*
G36*
X02587Y03121D02*
X02565D01*
Y03092*
X02587*
Y03121*
G37*
G36*
X01034Y03142D02*
Y03114D01*
X01057*
Y03142*
X01034*
G37*
G36*
X00235Y03105D02*
X00185D01*
X00186Y03096*
X00191Y03083*
X002Y03071*
X00212Y03062*
X00225Y03057*
X00235Y03055*
Y03105*
G37*
G36*
X01057Y03104D02*
X01034D01*
Y03075*
X01057*
Y03104*
G37*
G36*
X01999Y0349D02*
Y03461D01*
X02021*
Y0349*
X01999*
G37*
G36*
X02077Y03506D02*
X02045D01*
X02046Y03502*
X0205Y03492*
X02056Y03485*
X02063Y03479*
X02072Y03475*
X02077Y03474*
Y03506*
G37*
G36*
X00707Y03439D02*
Y0341D01*
X0073*
Y03439*
X00707*
G37*
G36*
X02021Y03451D02*
X01999D01*
Y03423*
X02021*
Y03451*
G37*
G36*
X02119Y03506D02*
X02087D01*
Y03474*
X02092Y03475*
X02101Y03479*
X02109Y03485*
X02115Y03492*
X02119Y03502*
X02119Y03506*
G37*
G36*
X02087Y03548D02*
Y03516D01*
X02119*
X02119Y03521*
X02115Y0353*
X02109Y03538*
X02101Y03544*
X02092Y03548*
X02087Y03548*
G37*
G36*
X00428Y03602D02*
X00418Y036D01*
X00405Y03595*
X00393Y03586*
X00384Y03575*
X00379Y03561*
X00378Y03552*
X00428*
Y03602*
G37*
G36*
Y03542D02*
X00378D01*
X00379Y03532*
X00384Y03519*
X00393Y03507*
X00405Y03499*
X00418Y03493*
X00428Y03492*
Y03542*
G37*
G36*
X02077Y03548D02*
X02072Y03548D01*
X02063Y03544*
X02056Y03538*
X0205Y0353*
X02046Y03521*
X02045Y03516*
X02077*
Y03548*
G37*
G36*
X00343Y03402D02*
Y03342D01*
X00397*
Y03343*
X00396Y03354*
X00393Y03365*
X00387Y03376*
X0038Y03385*
X00371Y03392*
X00361Y03397*
X0035Y03401*
X00343Y03402*
G37*
G36*
X0292Y03374D02*
X02892D01*
Y03351*
X0292*
Y03374*
G37*
G36*
X02595Y03363D02*
Y03331D01*
X02627*
X02627Y03336*
X02623Y03345*
X02617Y03353*
X02609Y03359*
X026Y03363*
X02595Y03363*
G37*
G36*
X03046Y03402D02*
X0304Y03401D01*
X03028Y03397*
X03018Y03392*
X03009Y03385*
X03002Y03376*
X02996Y03365*
X02993Y03354*
X02992Y03343*
Y03342*
X03046*
Y03402*
G37*
G36*
X02958Y03374D02*
X0293D01*
Y03351*
X02958*
Y03374*
G37*
G36*
X02266Y03434D02*
X02257Y03433D01*
X02249Y03429*
X02242Y03424*
X02236Y03417*
X02233Y03409*
X02232Y034*
X02233Y03391*
X02236Y03383*
X02242Y03376*
X02249Y03371*
X02257Y03367*
X02266Y03366*
X02274Y03367*
X02283Y03371*
X0229Y03376*
X02295Y03383*
X02298Y03391*
X02299Y034*
X02298Y03409*
X02295Y03417*
X0229Y03424*
X02283Y03429*
X02274Y03433*
X02266Y03434*
G37*
G36*
X02403D02*
X02395Y03433D01*
X02387Y03429*
X0238Y03424*
X02374Y03417*
X02371Y03409*
X0237Y034*
X02371Y03391*
X02374Y03383*
X0238Y03376*
X02387Y03371*
X02395Y03367*
X02403Y03366*
X02412Y03367*
X0242Y03371*
X02427Y03376*
X02433Y03383*
X02436Y03391*
X02437Y034*
X02436Y03409*
X02433Y03417*
X02427Y03424*
X0242Y03429*
X02412Y03433*
X02403Y03434*
G37*
G36*
X0073Y034D02*
X00707D01*
Y03372*
X00715*
X0072Y03366*
X00726Y03356*
X00726Y03355*
X00758*
Y03387*
X00754Y03386*
X00744Y03383*
X0073Y03391*
Y034*
G37*
G36*
X00768Y03387D02*
Y03355D01*
X008*
X008Y0336*
X00796Y03369*
X0079Y03377*
X00782Y03383*
X00773Y03386*
X00768Y03387*
G37*
G36*
X00777Y02928D02*
X00741D01*
Y02881*
X00777*
Y02928*
G37*
G36*
X00208Y02435D02*
X0019Y02434D01*
X00172Y02429*
X00155Y02422*
X0014Y02413*
X00126Y02401*
X00114Y02387*
X00104Y02371*
X00097Y02354*
X00093Y02337*
X00092Y02318*
X00093Y023*
X00097Y02282*
X00104Y02266*
X00114Y0225*
X00126Y02236*
X0014Y02224*
X00155Y02215*
X00172Y02208*
X0019Y02203*
X00208Y02202*
X00226Y02203*
X00244Y02208*
X00261Y02215*
X00277Y02224*
X00291Y02236*
X00302Y0225*
X00312Y02266*
X00319Y02282*
X00323Y023*
X00325Y02318*
X00323Y02337*
X00319Y02354*
X00312Y02371*
X00302Y02387*
X00291Y02401*
X00277Y02413*
X00261Y02422*
X00244Y02429*
X00226Y02434*
X00208Y02435*
G37*
G36*
X03204Y02778D02*
X03155D01*
Y02728*
X03164Y02729*
X03177Y02734*
X03189Y02743*
X03198Y02755*
X03203Y02768*
X03204Y02778*
G37*
G36*
X00569Y02761D02*
X00541D01*
Y02739*
X00569*
Y02761*
G37*
G36*
X03056Y02897D02*
Y02832D01*
Y02767*
X03063Y02768*
X03074Y02771*
X03079Y02774*
X03093Y02769*
X03097Y02766*
X03101Y02755*
X0311Y02743*
X03122Y02734*
X03135Y02729*
X03145Y02728*
Y02783*
Y02837*
X03135Y02836*
X03126Y02833*
X03118Y02835*
X03115Y02837*
X0311Y02842*
X03109Y02849*
X03106Y0286*
X031Y02871*
X03093Y0288*
X03084Y02887*
X03074Y02892*
X03063Y02896*
X03056Y02897*
G37*
G36*
X00608Y02761D02*
X00579D01*
Y02739*
X00608*
Y02761*
G37*
G36*
X00731Y02928D02*
X00694D01*
Y02881*
X00731*
Y02928*
G37*
G36*
X03046Y02827D02*
X02992D01*
Y02826*
X02993Y02814*
X02996Y02803*
X03002Y02793*
X03009Y02784*
X03018Y02777*
X03028Y02771*
X0304Y02768*
X03046Y02767*
Y02827*
G37*
G36*
X03155Y02837D02*
Y02788D01*
X03204*
X03203Y02797*
X03198Y0281*
X03189Y02822*
X03177Y02831*
X03164Y02836*
X03155Y02837*
G37*
G36*
X00245Y0266D02*
Y02605D01*
Y0255*
X00254Y02552*
X00263Y02555*
X00272Y02553*
X00274Y02551*
X00279Y02546*
X0028Y02539*
X00283Y02528*
X00289Y02517*
X00296Y02508*
X00305Y02501*
X00315Y02495*
X00326Y02492*
X00333Y02491*
Y02556*
Y02621*
X00326Y0262*
X00315Y02617*
X0031Y02614*
X00296Y02619*
X00293Y02622*
X00288Y02633*
X00279Y02645*
X00267Y02654*
X00254Y02659*
X00245Y0266*
G37*
G36*
X00397Y02551D02*
X00343D01*
Y02491*
X0035Y02492*
X00361Y02495*
X00371Y02501*
X0038Y02508*
X00387Y02517*
X00393Y02528*
X00396Y02539*
X00397Y0255*
Y02551*
G37*
G36*
X00235Y026D02*
X00185D01*
X00186Y02591*
X00191Y02578*
X002Y02566*
X00212Y02557*
X00225Y02552*
X00235Y0255*
Y026*
G37*
G36*
X00343Y02621D02*
Y02561D01*
X00397*
Y02562*
X00396Y02574*
X00393Y02585*
X00387Y02595*
X0038Y02604*
X00371Y02611*
X00361Y02617*
X0035Y0262*
X00343Y02621*
G37*
G36*
X00235Y0266D02*
X00225Y02659D01*
X00212Y02654*
X002Y02645*
X00191Y02633*
X00186Y0262*
X00185Y0261*
X00235*
Y0266*
G37*
G36*
X02761Y00336D02*
X02739D01*
Y00307*
X02761*
Y00336*
G37*
G36*
X02739Y00374D02*
Y00346D01*
X02761*
Y00374*
X02739*
G37*
G36*
X02886Y00271D02*
Y00237D01*
X0292*
X0292Y00242*
X02916Y00252*
X0291Y0026*
X02901Y00266*
X02892Y0027*
X02886Y00271*
G37*
G36*
X00832Y00369D02*
X008D01*
Y00337*
X00805Y00337*
X00814Y00341*
X00822Y00347*
X00827Y00355*
X00831Y00364*
X00832Y00369*
G37*
G36*
X00897Y00516D02*
X00882Y00515D01*
X00869Y00509*
X00857Y005*
X00849Y00489*
X00843Y00475*
X00841Y00461*
Y00445*
X00843Y00431*
X00849Y00417*
X00857Y00406*
X00869Y00397*
X00882Y00391*
X00897Y0039*
X00911Y00391*
X00915Y00393*
X00922Y00386*
X0093Y0038*
X00939Y00379*
Y00348*
X01061*
Y00458*
X00952*
Y00461*
X0095Y00475*
X00945Y00489*
X00936Y005*
X00924Y00509*
X00911Y00515*
X00897Y00516*
G37*
G36*
X008Y00411D02*
Y00379D01*
X00832*
X00831Y00383*
X00827Y00392*
X00822Y004*
X00814Y00406*
X00805Y0041*
X008Y00411*
G37*
G36*
X00065Y0034D02*
X00061Y00339D01*
X00052Y00335*
X00044Y00329*
X00038Y00322*
X00034Y00312*
X00033Y00308*
X00065*
Y0034*
G37*
G36*
X00075D02*
Y00308D01*
X00107*
X00107Y00312*
X00103Y00322*
X00097Y00329*
X00089Y00335*
X0008Y00339*
X00075Y0034*
G37*
G36*
X00065Y00298D02*
X00033D01*
X00034Y00293*
X00038Y00284*
X00044Y00276*
X00052Y0027*
X00061Y00266*
X00065Y00266*
Y00298*
G37*
G36*
X00107D02*
X00075D01*
Y00266*
X0008Y00266*
X00089Y0027*
X00097Y00276*
X00103Y00284*
X00107Y00293*
X00107Y00298*
G37*
%LNrelaytester-3*%
%LPD*%
G54D10*
X00098Y03444D03*
X0307Y00078D03*
X00315D03*
X00933Y01362D03*
X02598Y02464D03*
X02551Y02543D03*
X00366Y01448D03*
X00287Y01409D03*
X00326D03*
X00315Y01307D03*
X00354D03*
X00378Y02342D03*
Y02393D03*
Y02444D03*
G54D12*
X0123Y01484D03*
X01305D03*
X01267Y01405D03*
X00942Y01417D03*
X01017D03*
X0098Y01338D03*
G54D13*
X01297Y01543D03*
X01238D03*
X01053Y01468D03*
X00994D03*
X02565Y01937D03*
X02505D03*
Y02023D03*
X02565D03*
X02505Y0185D03*
X02565D03*
X01998Y0207D03*
X01939D03*
X02214Y01767D03*
X02273D03*
X00702Y02232D03*
X00643D03*
X02592Y03126D03*
X02651D03*
X00781Y03015D03*
X0084D03*
X01029Y03109D03*
X0097D03*
X01053Y01531D03*
X00994D03*
X00927Y01263D03*
X00986D03*
X01214Y01267D03*
X01273D03*
X02639Y01401D03*
X0258D03*
X02639Y01279D03*
X0258D03*
X02521Y01401D03*
X02462D03*
X02521Y01279D03*
X02462D03*
X01962D03*
X02021D03*
Y01346D03*
X01962D03*
X01935Y03456D03*
X01994D03*
X00746Y00437D03*
X00687D03*
X02734Y00441D03*
X02675D03*
X00687Y00342D03*
X00746D03*
X02675Y00341D03*
X02734D03*
X03025Y0133D03*
X02966D03*
X00576Y03405D03*
X00517D03*
X00702D03*
X00643D03*
X01401Y02944D03*
X01342D03*
G54D14*
X02417Y01785D03*
Y01844D03*
X01074Y02466D03*
Y02525D03*
X02633Y01935D03*
Y01876D03*
X00484Y01462D03*
Y01403D03*
X005Y03053D03*
Y03112D03*
X00574Y03111D03*
Y03052D03*
X02925Y03346D03*
Y03287D03*
X0289Y0284D03*
Y0278D03*
X02712Y01309D03*
Y01368D03*
X00574Y02734D03*
Y02675D03*
X03007Y01206D03*
Y01265D03*
X0294Y01206D03*
Y01265D03*
X00417Y0158D03*
Y01521D03*
Y01462D03*
Y01403D03*
X00551Y01521D03*
Y0158D03*
X02342Y01679D03*
Y01738D03*
X00484Y01521D03*
Y0158D03*
X02074Y01765D03*
Y01706D03*
X00574Y03238D03*
Y03179D03*
X005Y02927D03*
Y02986D03*
X02855Y03162D03*
Y03221D03*
X02818Y02722D03*
Y02781D03*
X01161Y01545D03*
Y01486D03*
X005Y03238D03*
Y03179D03*
X00574Y02927D03*
Y02986D03*
X02925Y03162D03*
Y03221D03*
X0289Y02655D03*
Y02715D03*
X0068Y03224D03*
Y03283D03*
X0075Y03224D03*
Y03283D03*
X01303Y03269D03*
Y0321D03*
X01228Y03269D03*
Y0321D03*
X02874Y01206D03*
Y01265D03*
X01795Y02238D03*
Y02297D03*
X02007Y02289D03*
Y02348D03*
X01897Y01285D03*
Y01344D03*
G54D16*
X03049Y01531D03*
X02974D03*
G54D17*
X02974Y01437D03*
X03011D03*
X03049D03*
G54D18*
X00696Y02326D03*
Y02376D03*
Y02426D03*
Y02476D03*
X00885Y02326D03*
Y02376D03*
Y02426D03*
Y02476D03*
X01976Y01846D03*
Y01896D03*
Y01946D03*
Y01996D03*
X02165Y01846D03*
Y01896D03*
Y01946D03*
Y01996D03*
X02322Y01421D03*
Y01371D03*
Y01321D03*
Y01271D03*
X02133Y01421D03*
Y01371D03*
Y01321D03*
Y01271D03*
X03299Y01354D03*
Y01304D03*
Y01254D03*
Y01204D03*
X0311Y01354D03*
Y01304D03*
Y01254D03*
Y01204D03*
X02657Y02373D03*
Y02423D03*
Y02473D03*
Y02523D03*
X02846Y02373D03*
Y02423D03*
Y02473D03*
Y02523D03*
G54D21*
X002Y01385D03*
X00163D03*
X00238D03*
Y01488D03*
X002D03*
X00163D03*
G54D27*
X02943Y01204D02*
X0311D01*
X02875Y01204D02*
X02942D01*
X01339Y03343D02*
Y0335D01*
X00307Y01901D02*
X00338Y01932D01*
X0025Y01555D02*
X00313Y01618D01*
X0025Y01555D02*
X00253Y01551D01*
X00744Y00307D02*
Y00342D01*
X00783Y00242D02*
Y00267D01*
X02964Y02968D02*
X02996D01*
X01035Y02704D02*
X01055Y02685D01*
X00905Y01511D02*
X00917Y01523D01*
X0098Y01267D02*
X01035D01*
X02752Y02051D02*
X02759Y02043D01*
X00921Y01267D02*
X00929Y01259D01*
X01035Y01267D02*
X01039Y01263D01*
X00551Y00488D02*
X00566Y00472D01*
X01074Y02525D02*
Y02559D01*
X01146*
X00909Y02826D02*
X00925Y02811D01*
X00893Y01759D02*
X00937Y01803D01*
X00917Y01523D02*
Y01535D01*
X0033Y01653D02*
X0035Y01633D01*
Y01582D02*
Y01633D01*
Y01582D02*
X00409Y01523D01*
X00311Y01618D02*
X00313D01*
X0098Y0133D02*
Y01338D01*
X00927Y01277D02*
X0098Y0133D01*
X00927Y01263D02*
Y01277D01*
X00929Y01202D02*
Y01259D01*
Y01202D02*
X00933Y01198D01*
X00409Y01523D02*
X00413D01*
X00551Y0146D02*
Y01521D01*
X00494Y01403D02*
X00551Y0146D01*
X00484Y01403D02*
X00494D01*
X00417Y01462D02*
Y01521D01*
X00484Y01468D02*
Y01521D01*
X00816Y0312D02*
X00909Y03027D01*
Y02826D02*
Y03027D01*
X00696Y02476D02*
X00752D01*
X00742Y02133D02*
Y02222D01*
X00578Y02244D02*
X0059Y02232D01*
X00702D02*
X00732D01*
X00742Y02222*
X0059Y02232D02*
X00643D01*
X01146Y02559D02*
X01153Y02552D01*
X01078Y02866D02*
X01429Y03216D01*
X00783Y03173D02*
Y03189D01*
Y03173D02*
X00799Y03157D01*
X00826*
X00783Y03189D02*
X00799Y03204D01*
X00826Y03157D02*
X01019Y02964D01*
X00805Y0312D02*
X00816D01*
X01019Y02783D02*
X01149Y02653D01*
X01019Y02783D02*
Y02964D01*
X01043Y02956D02*
Y02976D01*
Y02795D02*
Y02956D01*
X01098*
X00933Y03086D02*
X01043Y02976D01*
Y02795D02*
X01161Y02677D01*
X01429Y03216D02*
Y03334D01*
X01078Y02826D02*
Y02866D01*
X00626Y03161D02*
Y03165D01*
X00576Y03111D02*
X00626Y03161D01*
X00574Y03111D02*
X00576D01*
X00629Y03212D02*
X00685Y03157D01*
X00629Y03212D02*
Y03287D01*
X01834Y03464D02*
Y03531D01*
X0044Y03618D02*
X00811D01*
X00834Y03594*
X00566Y02677D02*
X0057Y02673D01*
X01429Y03334D02*
X01437Y03342D01*
X0172Y0248D02*
Y02665D01*
X01626Y02759D02*
X0172Y02665D01*
X01626Y02759D02*
Y02818D01*
X01273Y01218D02*
X01279Y01212D01*
X01273Y01218D02*
Y01267D01*
X00433Y0361D02*
X0044Y03618D01*
X00312Y03061D02*
X00338D01*
X00263Y0311D02*
X00312Y03061D01*
X0024Y0311D02*
X00263D01*
X00366Y0274D02*
X00417Y02791D01*
X00282Y0274D02*
X00366D01*
X0024Y02783D02*
X00282Y0274D01*
X00317Y02556D02*
X00338D01*
X00268Y02605D02*
X00317Y02556D01*
X0024Y02605D02*
X00268D01*
X01829Y00211D02*
X01913D01*
X01811Y00193D02*
X01829Y00211D01*
X01811Y00153D02*
Y00193D01*
X01822Y00078D02*
X02622D01*
X01811Y0009D02*
X01822Y00078D01*
X01811Y0009D02*
Y00153D01*
X02755Y00275D02*
X02881D01*
X02755Y00238D02*
Y00275D01*
X02881Y00232D02*
Y00275D01*
X03003Y00149D02*
Y00267D01*
X02905Y00051D02*
X03003Y00149D01*
X00543Y00051D02*
X02905D01*
X0283Y00441D02*
X03003Y00267D01*
X02734Y00441D02*
X0283D01*
X0185Y0294D02*
X02483D01*
X01775Y02866D02*
X0185Y0294D01*
X01854Y02889D02*
X02483D01*
X01822Y02858D02*
X01854Y02889D01*
X02007Y02444D02*
Y02527D01*
X00295Y00299D02*
Y00429D01*
X00744Y00307D02*
X00783Y00267D01*
X0257Y02523D02*
X02657D01*
X002Y00523D02*
X00295Y00429D01*
X00114Y00523D02*
X002D01*
X02734Y00297D02*
Y00341D01*
X00216Y01649D02*
X00295Y01728D01*
X00216Y01559D02*
Y01649D01*
Y01559D02*
X00224Y01551D01*
X00253*
X00897Y00445D02*
Y00453D01*
X00931Y00211D02*
X01D01*
X00897Y00176D02*
X00931Y00211D01*
X00897Y00153D02*
Y00176D01*
X00874Y0043D02*
X00897Y00453D01*
X0024Y03288D02*
X00289Y03238D01*
X005*
X00968Y03111D02*
X0097Y03109D01*
X0068Y03283D02*
X0075D01*
X00752Y03281D02*
X00866D01*
X0075Y03283D02*
X00752Y03281D01*
X00815Y03256D02*
X00866D01*
X00783Y03224D02*
X00815Y03256D01*
X0075Y03224D02*
X00783D01*
X00799Y03204D02*
X00866D01*
X00677Y032D02*
X00689Y03189D01*
X00677Y032D02*
Y03222D01*
X0068Y03224*
X00519Y03444D02*
X00533Y03458D01*
X00519Y03407D02*
Y03444D01*
X00517Y03405D02*
X00519Y03407D01*
X0061Y03405D02*
X00643D01*
X00517Y03328D02*
X00559Y03287D01*
X00676D02*
X0068Y03283D01*
X00866Y03384D02*
X00907D01*
X00921Y0337*
X00866Y0341D02*
X0093D01*
X00816Y03384D02*
X00866D01*
X00803Y03397D02*
Y03464D01*
X00834Y03496*
X00833Y03547D02*
X00834Y03545D01*
X01069Y03281D02*
X01133D01*
X01063Y03275D02*
X01069Y03281D01*
X01082Y03204D02*
X01133D01*
X01063Y03224D02*
X01082Y03204D01*
X00866Y03332D02*
X00921D01*
Y0337*
Y03332D02*
X01002D01*
X01027Y03307*
X01133*
X00866Y03281D02*
X0095D01*
X00968Y03263*
X00866Y03256D02*
X00925D01*
X00933Y03248*
X00724Y03149D02*
Y03189D01*
Y03149D02*
X00728Y03145D01*
X00689Y03189D02*
X00724D01*
X00783*
X00968Y03111D02*
Y03263D01*
X00338Y02832D02*
Y03061D01*
X00559Y03287D02*
X00629D01*
X00676*
X02775Y02822D02*
X02799D01*
X02818Y02803*
Y02781D02*
Y02803D01*
X0276Y02864D02*
X0282D01*
X02988Y02929D02*
Y02944D01*
X02661Y01795D02*
X02736D01*
X02637Y01818D02*
X02661Y01795D01*
X02728Y02023D02*
X02736Y02031D01*
X02716Y02023D02*
X02728D01*
D01*
X02633Y01935D02*
Y02023D01*
X02606Y01838D02*
X02637D01*
X02594Y0185D02*
X02606Y01838D01*
X02565Y0185D02*
X02594D01*
X02637Y01818D02*
Y01838D01*
X02417Y01844D02*
X02419Y01842D01*
X02425Y01917D02*
Y0195D01*
X02419Y01842D02*
X02464D01*
X02498D02*
X02505Y0185D01*
X02464Y01842D02*
X02498D01*
X02464D02*
Y01878D01*
X02425Y01917D02*
X02464Y01878D01*
X02417Y01785D02*
D01*
X0237D02*
X02417D01*
X02393Y01988D02*
X02425D01*
X02378Y02003D02*
X02393Y01988D01*
X02535Y01996D02*
X02565Y01966D01*
Y01937D02*
Y01966D01*
X02378Y02003D02*
Y02051D01*
X02403Y02076*
X02165Y01946D02*
Y01996D01*
X01976Y01896D02*
Y01946D01*
X0204*
X01976Y0172D02*
Y01846D01*
X02074Y01673D02*
Y01706D01*
X02Y02072D02*
Y02122D01*
X02007Y02129*
X0233Y01921D02*
Y0195D01*
Y01921D02*
X0237Y01881D01*
Y01785D02*
Y01881D01*
X02165Y01783D02*
Y01846D01*
Y01783D02*
X02181Y01767D01*
X02342Y01738D02*
X02356D01*
X0237Y01752*
Y01785*
X02255Y01905D02*
Y01968D01*
X02165Y01896D02*
X02221D01*
X02255Y01905D02*
X02307Y01854D01*
X02221Y01896D02*
X02244Y01874D01*
X02181Y01767D02*
X02214D01*
X02275D02*
X02295D01*
X02307Y01779*
Y01854*
X0282Y02864D02*
X02838Y02881D01*
X0294*
X02988Y02929*
X02086Y02129D02*
X02098Y02118D01*
X02074Y01765D02*
Y01822D01*
X02098Y01846D02*
Y02118D01*
X02098Y01846D02*
X02165D01*
X02074Y01822D02*
X02098Y01846D01*
X02551Y02543D02*
X0257Y02523D01*
X01775Y02834D02*
Y02866D01*
X01822Y02834D02*
Y02858D01*
X01881Y02842D02*
X01929D01*
X01944Y02826*
X02791Y03212D02*
X02799Y0322D01*
X02846*
X02791Y03141D02*
X02964Y02968D01*
X02519Y02759D02*
X02586D01*
X02626Y02799*
X01944Y02826D02*
X01948D01*
X02622Y00078D02*
X02653Y0011D01*
Y00163*
X02734Y00297D02*
X02755Y00275D01*
X01976Y0172D02*
X02023Y01673D01*
X01838Y02799D02*
X01881Y02842D01*
X01759Y02799D02*
X01838D01*
X01795Y02238D02*
X01876D01*
X01133Y0341D02*
X0119D01*
X01133Y03384D02*
X01198D01*
X01133Y03332D02*
X01187D01*
X0093Y0341D02*
X01003Y03484D01*
X0137*
X0119Y0341D02*
X0124Y0346D01*
X0146*
X01198Y03384D02*
X01252Y03437D01*
X01834Y03464D02*
X02177Y03122D01*
X02007Y02444D02*
X02059D01*
X02165Y01996D02*
Y02043D01*
X02173Y02051D02*
X0222D01*
X02255Y01968D02*
Y02D01*
X02281Y02025*
X0233*
X0276Y02837D02*
Y02864D01*
Y02837D02*
X02775Y02822D01*
X0204Y01946D02*
X02055Y0196D01*
Y02055*
X00295Y00299D02*
X00543Y00051D01*
X00744Y00342D02*
X00746D01*
X02007Y02348D02*
Y02385D01*
Y02444*
X02791Y03141D02*
Y03153D01*
Y03212*
X00454Y02927D02*
X005D01*
X00417Y02791D02*
Y02889D01*
X00454Y02927*
X00255Y01624D02*
Y01633D01*
X00275Y01653*
X0033*
X00236Y01488D02*
X00238D01*
X00287Y01413D02*
D01*
Y01409D02*
Y01413D01*
X00893Y01732D02*
Y01759D01*
Y01618D02*
Y01629D01*
Y01732*
X0035Y01311D02*
X00354Y01307D01*
X00484Y01358D02*
Y01403D01*
X00696Y02771D02*
X00728Y02803D01*
X00752Y02476D02*
X00763Y02488D01*
Y0261*
X00584Y02677D02*
X00834D01*
X00848Y0269*
Y02706*
X0059Y02771D02*
X00696D01*
X00574Y02755D02*
X0059Y02771D01*
X00574Y02746D02*
Y02755D01*
X00338Y02556D02*
Y02653D01*
X00419Y02734*
X00574*
X0083Y03063D02*
X00842Y03051D01*
X00748Y03015D02*
X00781D01*
X00736Y03003D02*
X00748Y03015D01*
X00736Y02933D02*
Y03003D01*
X00854Y0285D02*
Y02933D01*
X00846Y02842D02*
X00854Y0285D01*
X01055Y02649D02*
Y02685D01*
Y02649D02*
X01074Y02629D01*
Y02559D02*
Y02629D01*
X00925Y02704D02*
Y02811D01*
Y02669D02*
Y02704D01*
X00763Y0261D02*
X00799Y02645D01*
X00901*
X00925Y02669*
X02716Y02248D02*
X02744Y02275D01*
Y02704*
X03053Y01254D02*
X0311D01*
X03035Y01236D02*
X03053Y01254D01*
X0294Y01236D02*
X03035D01*
X0294D02*
Y01265D01*
X03082Y01354D02*
X0311D01*
X03025Y0133D02*
X03051Y01304D01*
X0311*
X02996Y01358D02*
X03007Y0137D01*
X03066*
X03082Y01354*
X02874Y01265D02*
Y0133D01*
X03137Y01358D02*
Y01405D01*
X02942Y01204D02*
X02943Y01204D01*
X02874Y01202D02*
X02875Y01204D01*
X03142Y00841D02*
Y00886D01*
X03192Y00937*
X03244*
X03271Y00964*
Y0111*
X03244Y01137D02*
X03271Y0111D01*
X02513Y02076D02*
X02535Y02055D01*
Y01996D02*
Y02055D01*
X02429Y02076D02*
Y02118D01*
X0244Y02129*
X02403Y02076D02*
X02429D01*
X02513*
X02244Y01728D02*
Y01874D01*
Y01728D02*
X02263Y01708D01*
X02283*
X02023Y01673D02*
X02074D01*
X0233*
X01673Y01606D02*
X01677Y01602D01*
X01681Y01606*
X00338Y03337D02*
Y03519D01*
X01681Y01606D02*
X02126D01*
Y01429D02*
X02133Y01421D01*
X02126Y01606D02*
X02303D01*
X02763Y01244D02*
Y01381D01*
Y01244D02*
X0287Y01137D01*
X03244*
X02021Y01315D02*
X02059D01*
X02021Y01279D02*
Y01315D01*
Y01346*
X02065Y01321D02*
X02133D01*
X02059Y01315D02*
X02065Y01321D01*
X01962Y01346D02*
Y01372D01*
X01976Y01385*
X02051*
X02065Y01371*
X02133*
X02267Y01421D02*
X02322D01*
X02133Y01371D02*
X02194D01*
X02208Y01385*
X02248Y01401D02*
X02267Y01421D01*
X02133Y01271D02*
X02216D01*
X02248Y01303*
Y01401*
X02126Y01464D02*
Y01606D01*
X02322Y01371D02*
X02415D01*
X02425Y01362*
X02543*
X02551Y0137*
Y01401*
X0258*
X02521D02*
X02551D01*
Y01279D02*
Y01307D01*
X02536Y01321D02*
X02551Y01307D01*
X02322Y01321D02*
X02536D01*
X02521Y01279D02*
X02551D01*
X0258*
X02322Y01421D02*
X02417D01*
X02437Y01401*
X02462*
X02322Y01232D02*
X02389D01*
X02437Y01279*
X02462*
X02322Y01232D02*
Y01271D01*
X02712Y01309D02*
Y01313D01*
X02744Y01401D02*
X02763Y01381D01*
X02639Y01401D02*
X02712D01*
Y01372D02*
Y01401D01*
X02744*
X02639Y01279D02*
X02712D01*
Y01309*
Y01252D02*
Y01279D01*
X02775Y01023D02*
Y01189D01*
X02712Y01252D02*
X02775Y01189D01*
X01897Y01344D02*
Y01381D01*
X0198Y01464*
X02126*
Y01429D02*
Y01464D01*
X01962Y01232D02*
Y01279D01*
Y01232D02*
X02318D01*
X01897Y01236D02*
Y01285D01*
X01893Y01232D02*
X01897Y01236D01*
X0185Y01232D02*
X01893D01*
X01962*
X01838Y01244D02*
X0185Y01232D01*
X01838Y01244D02*
Y01358D01*
X01252Y03437D02*
X01539D01*
X01187Y03332D02*
X01267Y03413D01*
X01599*
X01582Y02472D02*
X0159Y0248D01*
X0172*
X01574Y0246D02*
X01578Y02456D01*
X0157Y0246D02*
X01574D01*
X01878Y02527D02*
X02007D01*
X0172Y0248D02*
X0183D01*
X01878Y02527*
X01341Y02528D02*
Y02535D01*
X01149Y02653D02*
X01223D01*
X01341Y02535*
X01161Y02677D02*
X01228D01*
X01341Y02528D02*
X01515Y02354D01*
X01228Y02677D02*
X01527Y02378D01*
X01763*
X01878Y02492*
X01889*
X01515Y02354D02*
X01787D01*
X01801Y02368*
X00736Y02811D02*
Y02933D01*
X01681Y02842D02*
X01716D01*
X01649D02*
X01681D01*
X01626Y02818D02*
X01649Y02842D01*
X01716D02*
X01759Y02799D01*
X0098Y02574D02*
X01003Y02598D01*
Y02657*
X01708Y01807D02*
Y01878D01*
Y01807D02*
X01807Y01708D01*
Y01661D02*
Y01708D01*
X00795Y00342D02*
Y00374D01*
X00746Y00342D02*
X00795D01*
X02318Y01559D02*
X02338Y01578D01*
X02374*
X02208Y01385D02*
Y01539D01*
X02228Y01559*
X02318*
X00925Y02704D02*
X01035D01*
X01055Y02685D02*
Y027D01*
X01133Y03307D02*
X01287D01*
X01303Y03291*
Y03274D02*
Y03291D01*
X00238Y01488D02*
X00311D01*
X00326Y01503*
X01074Y02432D02*
Y02466D01*
Y02432D02*
X01153D01*
X00464Y02503D02*
X0059Y02378D01*
X00464Y02503D02*
Y02622D01*
X00519Y02677*
X00566*
X02874Y0133D02*
X02966D01*
X00576Y03405D02*
X0061D01*
X00803Y03397D02*
X00816Y03384D01*
X00517Y03328D02*
Y03405D01*
X0146Y0346D02*
X01533Y03533D01*
X0061Y03405D02*
Y03524D01*
X01539Y03437D02*
X01633Y0353D01*
X00338Y03519D02*
X00366Y03547D01*
X00685Y03082D02*
Y03157D01*
X00933Y03086D02*
Y03248D01*
X02047Y02063D02*
X02055Y02055D01*
X02165Y02043D02*
X02173Y02051D01*
X00833Y03547D02*
X00834Y03548D01*
Y03594*
X00433Y03547D02*
Y0361D01*
X02565Y02023D02*
X02716D01*
X02633D02*
X02728D01*
X01533Y03533D02*
Y03547D01*
X01599Y03413D02*
X01733Y03547D01*
X0061Y03524D02*
X00633Y03547D01*
X01633Y0353D02*
Y03547D01*
X00834Y03496D02*
Y03545D01*
X00366Y03547D02*
X00433D01*
X02177Y03122D02*
X0248D01*
X02996Y01263D02*
Y01358D01*
X00533Y03458D02*
Y03547D01*
X00842Y02952D02*
Y03051D01*
X00704Y03063D02*
X0083D01*
X00685Y03082D02*
X00704Y03063D01*
X0137Y03484D02*
X01433Y03547D01*
X02652Y02248D02*
X02716D01*
X02637Y01838D02*
Y01876D01*
G54D28*
X0309Y02823D02*
X03146Y02767D01*
X02822Y0135D02*
X0285Y01378D01*
X00992Y01381D02*
X01023Y01413D01*
X02972Y01531D02*
Y01606D01*
X02933Y01645D02*
X02972Y01606D01*
X02712Y01645D02*
X02933D01*
X03047Y01523D02*
Y0157D01*
X01952Y01996D02*
Y02027D01*
X02015Y01645D02*
X02622D01*
X01889Y01771D02*
X02015Y01645D01*
X01889Y01771D02*
Y02003D01*
X00661Y01626D02*
Y01657D01*
X00616Y0158D02*
X00661Y01626D01*
X00551Y0158D02*
X00616D01*
X00933Y01362D02*
D01*
X00952Y01381*
X01161Y0161D02*
X01543D01*
X01082Y01531D02*
X01161Y0161D01*
X01053Y01531D02*
X01082D01*
X00482Y01462D02*
X00484D01*
X00423Y01403D02*
X00482Y01462D01*
X00417Y01403D02*
X00423D01*
X01047Y01413D02*
X01053Y01419D01*
X00661Y01657D02*
Y01724D01*
X00484Y0158D02*
X00551D01*
X0048D02*
X00484D01*
X0111Y02862D02*
X01523Y03275D01*
X01137Y0285D02*
X01145D01*
X00498Y02986D02*
X005D01*
X0061Y03055D02*
X00637Y03082D01*
Y03122*
X00582Y03055D02*
X0061D01*
X00574Y02986D02*
Y03052D01*
X01027Y03111D02*
Y03307D01*
X0096Y02956D02*
X01015D01*
X01559Y02736D02*
Y03019D01*
X01578Y02744D02*
X01614Y02708D01*
X01578Y02744D02*
Y02992D01*
X01633Y02669D02*
Y02716D01*
X01602Y02748D02*
X01633Y02716D01*
X01602Y02748D02*
Y02984D01*
X01559Y03019D02*
X01826Y03287D01*
X01578Y02992D02*
X01905Y03318D01*
X01602Y02984D02*
X01633Y03015D01*
Y02669D02*
X01673Y02629D01*
X01523Y03275D02*
Y03338D01*
X01669Y02586D02*
X01685D01*
X01889Y02003D02*
Y02055D01*
X01838Y02003D02*
X01889D01*
Y02055D02*
X01905Y0207D01*
X01939*
X00179Y0147D02*
Y01472D01*
X01181Y01267D02*
X01214D01*
X01145D02*
X01181D01*
X01177Y01196D02*
X01181Y012D01*
Y01267*
X01133Y01279D02*
X01145Y01267D01*
X01133Y01397D02*
X01141Y01405D01*
X01267*
X01161Y01486D02*
X01163Y01484D01*
X0123*
X01297Y01492D02*
X01305Y01484D01*
X01297Y01492D02*
Y01543D01*
X0123Y01484D02*
X01238Y01492D01*
Y01543*
X01566Y0157D02*
X01594Y01598D01*
X01511Y0157D02*
X01566D01*
X01492Y0159D02*
X01511Y0157D01*
X01594Y01598D02*
Y01626D01*
X01185Y0159D02*
X01492D01*
X01161Y01545D02*
Y01566D01*
X01185Y0159*
X03125Y03288D02*
X0315D01*
X03076Y03337D02*
X03125Y03288D01*
X03051Y03337D02*
X03076D01*
X00078Y01039D02*
X00094Y01055D01*
X00078Y0074D02*
Y01039D01*
X03134Y02605D02*
X0315D01*
X03084Y02655D02*
X03134Y02605D01*
X0289Y02655D02*
X03084D01*
X03137Y0311D02*
X0315D01*
X03085Y03162D02*
X03137Y0311D01*
X02925Y03162D02*
X03085D01*
X01897Y02807D02*
X01909Y02795D01*
X02476*
X02484Y02803*
X01944Y02566D02*
Y0274D01*
X02315Y02834D02*
X02326Y02846D01*
X01956Y02834D02*
X02315D01*
X01948Y02826D02*
X01956Y02834D01*
X02Y02586D02*
X02114Y02472D01*
X01988Y02586D02*
X02D01*
X02114Y02342D02*
Y02472D01*
X0198Y02641D02*
X02267Y02354D01*
X02622Y03031D02*
Y03153D01*
X02557Y02966D02*
X02622Y03031D01*
X02483Y02966D02*
X02557D01*
X02724Y03255D02*
X02925D01*
X02622Y03153D02*
X02724Y03255D01*
X00078Y0074D02*
X00283Y00535D01*
X00689*
X0198Y02593D02*
X01988Y02586D01*
X00685Y00167D02*
Y00204D01*
X00744Y00444D02*
Y0048D01*
X00689Y00535D02*
X00744Y0048D01*
X02649Y00167D02*
Y00196D01*
Y00167D02*
X02653Y00163D01*
X02755*
Y002*
X02653D02*
X02755D01*
X02653Y00238D02*
X02657Y00242D01*
Y00279*
X02675Y00297*
Y00341*
Y00441*
X005Y03238D02*
X00574D01*
X00574Y02927D02*
X00574Y02927D01*
X00535Y03165D02*
X00549Y03179D01*
X00574*
X02855Y03162D02*
X02925D01*
Y03221D02*
Y03287D01*
X02844Y02655D02*
X0289D01*
Y0284D02*
X03043D01*
X03051Y02832*
Y03061*
X02925Y03346D02*
X03042D01*
X03051Y03337*
X02592Y03126D02*
D01*
X02551D02*
X02592D01*
X01027Y03111D02*
X01029Y03109D01*
X00866Y03307D02*
Y03332D01*
X005Y03112D02*
Y03145D01*
Y03179*
X02481Y02862D02*
X02483Y02864D01*
X02818Y02681D02*
X02844Y02655D01*
X02818Y02681D02*
Y02722D01*
X02427Y02023D02*
X02505D01*
Y01937D02*
Y02023D01*
X01946Y02002D02*
X01952Y01996D01*
X01976*
X01939Y02041D02*
Y0207D01*
Y02041D02*
X01952Y02027D01*
X01994Y03456D02*
Y03494D01*
X02011Y03511*
X02082*
X02483Y03017D02*
Y03058D01*
Y02915D02*
X02545D01*
X02547Y02917*
Y02925*
X02483Y02864D02*
X02541D01*
X02547Y0287*
Y02874*
X02483Y03058D02*
X02551Y03126D01*
X02421Y02992D02*
X02483D01*
X01779Y02956D02*
X01787Y02964D01*
X02651Y03126D02*
X02689D01*
X02716Y03153*
X02791*
X02888Y02944D02*
Y02978D01*
X02791Y02752D02*
X0289D01*
X02488Y0272D02*
X02618D01*
X02669Y02771*
X02484Y02803D02*
X0257D01*
X02696Y02976D02*
X02712Y02992D01*
X02752*
X0257Y02803D02*
X02645Y02878D01*
X02669Y02771D02*
Y0298D01*
X02704Y03015*
X02755*
X02645Y02878D02*
Y02988D01*
X02622Y02893D02*
Y02996D01*
X02689Y03063*
Y03126*
X02326Y0285D02*
X02342Y02834D01*
X02563*
X02622Y02893*
X02393Y02964D02*
X02421Y02992D01*
X01787Y02964D02*
X02393D01*
X02437Y02771D02*
X02488Y0272D01*
X02401Y02228D02*
Y02354D01*
X02472Y02425*
X02307Y0233D02*
X02425Y02448D01*
X02448Y02437D02*
Y02685D01*
X01976Y02771D02*
X02437D01*
X01996Y02685D02*
X02059D01*
X0198Y02728D02*
X02437D01*
X02472Y02692*
Y02425D02*
Y02692D01*
X02425Y02448D02*
Y02665D01*
X02413Y02677D02*
X02425Y02665D01*
X02059Y02685D02*
X02078Y02704D01*
X02429*
X02448Y02685*
X02122Y02669D02*
Y02677D01*
X01944Y0274D02*
X01976Y02771D01*
X01878Y02141D02*
X01889Y02129D01*
X01878Y02141D02*
Y0224D01*
X01929Y02216D02*
X01956Y02189D01*
X01992*
X02263Y02228D02*
X02267Y02232D01*
X01992Y02189D02*
X02011Y02208D01*
Y02287*
X01929Y02216D02*
Y02267D01*
X01633Y03015D02*
X01897Y03279D01*
X01964*
X01905Y03318D02*
X01925D01*
X01228Y03273D02*
Y03303D01*
X01133Y03256D02*
X01181D01*
X0119Y03246*
Y03222D02*
Y03246D01*
Y03222D02*
X01198Y03214D01*
X01826Y03287D02*
Y0333D01*
X02011Y02287D02*
X02059D01*
X02114Y02342*
X0174Y02708D02*
X01807D01*
X02267Y02232D02*
Y02354D01*
X02118Y02358D02*
X02173D01*
X02696Y02846D02*
Y02976D01*
Y02846D02*
X02791Y02752D01*
X02574Y02641D02*
X02645D01*
Y02988D02*
X02712Y03055D01*
X02811*
X02888Y02978*
X01265Y01444D02*
X01305Y01484D01*
X01098Y01444D02*
X01265D01*
X01086Y01433D02*
X01098Y01444D01*
X01053Y01433D02*
X01086D01*
X01053Y01419D02*
Y01433D01*
Y01468*
X00952Y01381D02*
X00992D01*
X01023Y01413D02*
X01047D01*
X02078Y02228D02*
X02122D01*
X02185*
X005Y02927D02*
X00574D01*
X00547Y02956D02*
X00626D01*
X005Y02986D02*
X00535D01*
Y03165*
Y02968D02*
X00547Y02956D01*
X00535Y02968D02*
Y02986D01*
X00437Y03145D02*
X005D01*
X00338Y03061D02*
X0044D01*
Y03053D02*
X005D01*
X00437Y03086D02*
X0044Y03082D01*
Y03053D02*
Y03061D01*
Y03082*
X00228Y01527D02*
X00236Y01519D01*
X00177Y01555D02*
Y01586D01*
Y01555D02*
X00204Y01527D01*
X00228*
X00366Y01448D02*
D01*
X00411Y01403D01*
X00417*
X00179Y0137D02*
Y0147D01*
X01614Y02641D02*
Y02708D01*
Y02641D02*
X01669Y02586D01*
X01559Y02736D02*
X0159Y02704D01*
X01618Y02543D02*
X01626D01*
X01685*
X0159Y02629D02*
Y02704D01*
X01622Y02563D02*
Y02598D01*
X0159Y02629D02*
X01622Y02598D01*
X02078Y02996D02*
Y03059D01*
X01968Y03169D02*
X01972D01*
X01309Y02635D02*
X0135Y02677D01*
X01192Y02732D02*
X0137D01*
X01507Y02594D02*
X01511Y02598D01*
X0137Y02732D02*
X01507Y02594D01*
X01511Y02598D02*
D01*
X01515*
X01551Y0257D02*
Y02603D01*
X01543Y02611D02*
X01551Y02603D01*
X01161Y02807D02*
X01216Y02862D01*
X01287*
X01318Y02893*
X01267Y02909D02*
X01303Y02944D01*
X01515Y02712D02*
X01543Y02685D01*
Y02611D02*
Y02685D01*
X01511Y02641D02*
Y02681D01*
X01488Y02704D02*
X01511Y02681D01*
X01318Y02893D02*
X01452D01*
X01488Y02858*
Y02704D02*
Y02858D01*
X00417Y0158D02*
Y01626D01*
D01*
X01094Y02661D02*
Y02665D01*
X02622Y01645D02*
X02665Y01689D01*
X02929*
X03047Y0157*
X02878Y01433D02*
Y01468D01*
X03049Y01437D02*
Y0147D01*
X03035Y01484D02*
X03049Y0147D01*
X02878Y01468D02*
X02893Y01484D01*
X03035*
X02972Y01531D02*
X02974D01*
X02905D02*
X02972D01*
X02974Y01427D02*
Y01437D01*
X0285Y01409D02*
Y01476D01*
X02905Y01531*
X0285Y01409D02*
X02858Y01401D01*
X02948*
X02974Y01427*
X02846Y01204D02*
X02858D01*
X02968Y01378D02*
X03011Y0142D01*
Y01437*
X01535Y03035D02*
X01731Y03231D01*
X01535Y02728D02*
Y03035D01*
Y02728D02*
X01566Y02696D01*
Y02619D02*
Y02696D01*
X01731Y03231D02*
Y03322D01*
Y0335*
X01724Y03315D02*
X01731Y03322D01*
X01744Y03334*
X01566Y02619D02*
X01585Y026D01*
Y02562D02*
Y026D01*
X0193Y02552D02*
X01944Y02566D01*
X01855Y02552D02*
X0193D01*
X01637Y02401D02*
X01657Y02421D01*
X01818Y02515D02*
X01855Y02552D01*
X0124Y027D02*
X01539Y02401D01*
X01637*
X01523Y025D02*
X01585Y02562D01*
X01523Y02452D02*
Y025D01*
Y02452D02*
X01551Y02425D01*
X01598*
X01622Y02448*
X01129Y02629D02*
X01204D01*
X01322Y02511*
X01523Y02311*
X01649*
X01901Y02295D02*
X01929Y02267D01*
X01692Y02318D02*
X01704Y0233D01*
X01826*
X01649Y02311D02*
X01677Y02283D01*
X01728*
X0174Y02295*
X01342Y0285D02*
X01413D01*
X01255Y02763D02*
X01342Y0285D01*
X01165Y02763D02*
X01255D01*
X01173Y027D02*
X0124D01*
X0111Y02763D02*
Y02862D01*
Y02763D02*
X01173Y027D01*
X00685Y00204D02*
X00787D01*
X00791*
X00787Y00167D02*
X00791D01*
X00874*
X00685D02*
X00787D01*
X02822Y01228D02*
X02846Y01204D01*
X02822Y01228D02*
Y0135D01*
X0285Y01378D02*
X02968D01*
X02551Y03126D02*
Y03326D01*
X0259*
X02267Y02464D02*
X02318D01*
X02393Y02539*
Y0261*
X00702Y03405D02*
X00755D01*
X00763Y03397*
X00811Y03332D02*
X00866D01*
X02307Y02228D02*
D01*
Y0233*
X02338Y02275D02*
Y02326D01*
X02448Y02437*
X01133Y03178D02*
X01296D01*
X01305Y03187*
Y03198*
X01303Y02944D02*
X01342D01*
X01401D02*
X01429D01*
X01515Y02858*
Y02712D02*
Y02858D01*
X0289Y02715D02*
Y02752D01*
Y0278*
X00791Y00167D02*
Y00204D01*
X01198Y03214D02*
X01228D01*
X00942Y01413D02*
X00994Y01464D01*
Y01531*
X00685Y00242D02*
Y00425D01*
X00236Y01488D02*
Y01519D01*
X00763Y0335D02*
X00807D01*
X00763D02*
Y03397D01*
X01826Y0233D02*
Y02346D01*
X0183Y0235*
X01622Y02563D02*
X01633Y02551D01*
X01622Y03334D02*
X01637D01*
X01137Y0285D02*
X01622Y03334D01*
X0174Y02295D02*
X01901D01*
X01094Y02665D02*
X01129Y02629D01*
X01968Y03169D02*
X02078Y03059D01*
X02122Y02677D02*
X02413D01*
X01937Y03446D02*
Y03543D01*
G54D29*
X02574Y02421D02*
Y02464D01*
X02086Y02129D02*
X0244D01*
X02007D02*
X02086D01*
X00401Y01704D02*
X00437D01*
X01252Y01023D02*
X01421D01*
X01736D02*
X01897D01*
X01421D02*
X01578D01*
X01736*
X01897D02*
X02055D01*
X01007Y01972D02*
X01238Y01742D01*
X02212Y01023D02*
X02366D01*
X02055D02*
X02212D01*
X02527D02*
X02685D01*
X02775*
X02366D02*
X02527D01*
X02842D02*
X02996D01*
X02775D02*
X02842D01*
X02996D02*
X032D01*
X02716Y02023D02*
Y02031D01*
Y02039*
X01362Y01885D02*
D01*
X00578Y01972D02*
X01007D01*
X01366Y01212D02*
Y01326D01*
X025Y02189D02*
Y02275D01*
X0244Y02129D02*
X025Y02189D01*
X00378Y01728D02*
X00437D01*
X00307D02*
X00378D01*
X00307D02*
Y01901D01*
X00378Y01728D02*
X00401Y01704D01*
X00142Y00767D02*
Y00841D01*
Y00767D02*
X00185Y00724D01*
X00257Y01137D02*
X0026Y01135D01*
X0294Y00724D02*
X0309D01*
X02842Y00549D02*
Y00606D01*
X0283Y00724D02*
X0294D01*
X02744D02*
X0283D01*
X02842Y00606D02*
Y00713D01*
X02542Y00724D02*
X02744D01*
X02342D02*
X02542D01*
X00185D02*
X00342D01*
X00543*
X00742*
X0094*
X01043*
X01141*
X01342*
X01543*
X01342Y00606D02*
Y00724D01*
X01543D02*
X01641D01*
X01748*
X0194*
X02141*
X02242D02*
X02342D01*
X02141D02*
X02242D01*
Y00606D02*
Y00724D01*
X01889Y02129D02*
X02007D01*
X01197Y00153D02*
X01297D01*
X01197Y00452D02*
Y00453D01*
X02242Y00545D02*
Y00606D01*
X02211Y00514D02*
X02242Y00545D01*
X02211Y00453D02*
Y00514D01*
X02111Y00453D02*
X02211D01*
Y00153D02*
Y00453D01*
X02111Y00153D02*
X02211D01*
X01342Y00554D02*
Y00606D01*
X01297Y00509D02*
X01342Y00554D01*
X01297Y00153D02*
Y00453D01*
Y00509*
X01421Y01031D02*
Y01066D01*
Y01157D01*
X01366Y01212D02*
X01421Y01157D01*
X01279Y017D02*
X01614D01*
X01665Y01649*
X01354Y01338D02*
X01488D01*
X01665Y01515*
Y01649*
X03287Y01409D02*
X03315Y01381D01*
X02712Y02031D02*
X02716D01*
X02736*
X03315Y01212D02*
Y01236D01*
Y01212D02*
X0333Y01196D01*
Y00557D02*
Y01196D01*
X032Y01023D02*
X03208Y01015D01*
X01362Y01885D02*
X01704D01*
X025Y02275D02*
X02574Y0235D01*
Y02421*
X01238Y01742D02*
X01279Y017D01*
X02652Y02092D02*
X02712Y02031D01*
X02652Y02092D02*
Y02248D01*
X03183Y00409D02*
X0333Y00557D01*
X02842Y00549D02*
X02982Y00409D01*
X01197Y00452D02*
X01287D01*
X03208Y01409D02*
X03255D01*
X03208D02*
Y01456D01*
X03255Y01409D02*
X03287D01*
X03315Y01322D02*
Y01381D01*
X03255Y01409D02*
Y01456D01*
X03208D02*
X03255D01*
X00551Y01925D02*
Y01972D01*
Y01901D02*
Y01925D01*
G54D30*
X00933Y01807D02*
Y01889D01*
Y01807D02*
X00937Y01803D01*
X00047Y00728D02*
X00287Y00488D01*
X00047Y00728D02*
Y01074D01*
X00287Y00488D02*
X00551D01*
X00622Y0011D02*
Y00358D01*
X00603Y00376D02*
X00622Y00358D01*
X00551Y00376D02*
X00603D01*
X01811Y00453D02*
X01863D01*
X01913Y00403*
X00939Y00403D02*
X01D01*
X00897Y00445D02*
X00939Y00403D01*
X00047Y01074D02*
X00207Y01235D01*
X0026*
X00622Y0011D02*
X00653Y00078D01*
X01657*
X01689Y0011*
X01752Y00394D02*
X01811Y00453D01*
X01689Y0011D02*
Y00283D01*
X01752Y00346*
Y00394*
G54D31*
X01626Y02271D02*
X01663Y02234D01*
X01279Y01212D02*
X01366D01*
X0074Y01578D02*
Y01881D01*
X00098Y01551D02*
Y01976D01*
X00887Y02574D02*
Y02586D01*
X00742Y02133D02*
X00815D01*
X00682D02*
X00742D01*
X00815D02*
Y0224D01*
Y02133D02*
X01122D01*
X01208Y02047*
X01291Y01964*
X00578Y01972D02*
Y02244D01*
X00674Y02133D02*
X00682D01*
X0067Y02129D02*
X00674Y02133D01*
X01165Y02559D02*
X01212D01*
X01181Y0098D02*
Y01094D01*
X01126Y00925D02*
X01181Y0098D01*
X00476Y00925D02*
X01126D01*
X00815Y01122D02*
X00913D01*
X00673Y0098D02*
X00815Y01122D01*
X00318Y0098D02*
X00673D01*
X03091Y00606D02*
X03244Y00759D01*
X02942Y00606D02*
X03091D01*
X03244Y00759D02*
Y00839D01*
X03242Y00841D02*
X03244Y00839D01*
X00469Y02128D02*
X00478Y02137D01*
X00642Y00841D02*
X00645Y00845D01*
X0283Y00724D02*
X02842Y00713D01*
X02542Y00724D02*
Y00841D01*
Y00606D02*
Y00724D01*
X00342D02*
Y00841D01*
X00542Y00725D02*
X00543Y00724D01*
X00542Y00725D02*
Y00841D01*
X00742Y00724D02*
Y00841D01*
Y00606D02*
Y00724D01*
X0094D02*
X00942Y00725D01*
Y00841*
X01042Y00723D02*
X01043Y00724D01*
X01042Y00606D02*
Y00723D01*
X01141Y00724D02*
X01142Y00724D01*
Y00841*
X01342Y00724D02*
Y00841D01*
X01542Y00725D02*
X01543Y00724D01*
X01542Y00725D02*
Y00841D01*
X01641Y00724D02*
X01642Y00724D01*
Y00606D02*
Y00724D01*
X01742Y0073D02*
X01748Y00724D01*
X01742Y0073D02*
Y00841D01*
X0194Y00724D02*
X01942Y00725D01*
Y00841*
X0194Y00724D02*
X01942Y00723D01*
Y00606D02*
Y00723D01*
X02141Y00724D02*
X02142Y00724D01*
Y00841*
X02342Y00724D02*
X02342Y00724D01*
X02342Y00724D02*
Y00841D01*
X02742Y00726D02*
X02744Y00724D01*
X02742Y00726D02*
Y00841D01*
X0294Y00724D02*
X02942Y00725D01*
Y00841*
X03142D02*
X03145Y00838D01*
X01742Y00598D02*
Y00606D01*
X01597Y00453D02*
X01742Y00598D01*
X01696Y00452D02*
X01842Y00598D01*
X01542Y0053D02*
Y00606D01*
X015Y00488D02*
X01542Y0053D01*
X015Y00256D02*
Y00488D01*
X01397Y00153D02*
X015Y00256D01*
X01397Y00453D02*
X01425Y00481D01*
Y00589*
X01442Y00606*
X02342Y00484D02*
Y00606D01*
X02442Y00528D02*
Y00606D01*
X02413Y005D02*
X02442Y00528D01*
X02642Y00584D02*
Y00606D01*
X02511Y00453D02*
X02642Y00584D01*
X02742Y00596D02*
Y00606D01*
X02598Y00452D02*
X02742Y00596D01*
X02511Y00153D02*
Y00255D01*
X02598Y00342*
Y00452*
X02311Y00153D02*
Y0024D01*
X02413Y00342*
Y005*
X01597Y00153D02*
Y0027D01*
X01696Y0037*
Y00452*
X01842Y00586D02*
Y00598D01*
Y00606*
X00442Y00841D02*
Y0089D01*
X00242Y00841D02*
Y00903D01*
X00442Y0089D02*
X00476Y00925D01*
X00242Y00903D02*
X00318Y0098D01*
X0026Y01235D02*
Y01327D01*
X00291Y01358*
X00519D02*
X0074Y01578D01*
X00291Y01358D02*
X00484D01*
X00519*
X01212Y02559D02*
X015Y02271D01*
X01626*
X00791Y02263D02*
X00815Y0224D01*
X00791Y02263D02*
Y02315D01*
X00378Y02128D02*
Y02342D01*
Y02128D02*
X00469D01*
X00224Y02126D02*
X00227Y02128D01*
X00251*
X00378*
Y02342D02*
Y02393D01*
Y02444*
X01291Y01893D02*
Y01964D01*
Y01893D02*
X01299Y01885D01*
X01354*
X00578Y02244D02*
Y02354D01*
X00098Y01551D02*
X00179Y0147D01*
X00098Y01976D02*
X00251Y02128D01*
G54D32*
X00909Y01031D02*
X00944D01*
X01244D02*
X01279D01*
X00944D02*
Y01066D01*
X01279Y01031D02*
Y01066D01*
X02842Y00996D02*
Y01023D01*
Y01031*
Y01066*
X02685Y00996D02*
Y01023D01*
Y01031*
Y01066*
X02527Y00996D02*
Y01023D01*
Y01031*
Y01066*
X02366Y00996D02*
Y01023D01*
Y01031*
Y01066*
X02212Y00996D02*
Y01023D01*
Y01031*
Y01066*
X02055Y00996D02*
Y01023D01*
Y01031*
Y01066*
X01897Y00996D02*
Y01023D01*
Y01031*
Y01066*
X01736Y00996D02*
Y01023D01*
Y01031*
Y01066*
X01578Y00996D02*
Y01023D01*
Y01031*
Y01066*
X01421Y00996D02*
Y01023D01*
Y01031*
Y01066D02*
D01*
X02996Y01031D02*
Y01066D01*
Y00996D02*
Y01023D01*
Y01031*
X01066Y01338D02*
X01354D01*
G54D33*
X00815Y02476D02*
X0096D01*
X00815Y02326D02*
X0096D01*
X00815Y02426D02*
X0096D01*
X00815Y02376D02*
X0096D01*
X00602Y02378D02*
X00696D01*
X00687Y02594D02*
X00695Y02586D01*
X0057Y02594D02*
X00687D01*
X00578Y02354D02*
X00602Y02378D01*
X0057Y02468D02*
Y02539D01*
Y02468D02*
X00612Y02426D01*
X00696*
X00244Y01385D02*
X00267Y01409D01*
X00287*
X00326*
X00712Y01307D02*
X00921Y01515D01*
X00354Y01307D02*
X00712D01*
X00315D02*
X00354D01*
X00822Y02574D02*
X00887D01*
X00956*
X00921Y01515D02*
Y01531D01*
X00972Y01582*
X01078*
X01238Y01742*
G54D34*
X01944Y02492D02*
X01968Y02468D01*
X01933Y02492D02*
X01944D01*
X01968Y02236D02*
Y02468D01*
G54D35*
X0174Y02047D02*
X01822Y02129D01*
X0174Y01921D02*
Y02047D01*
X01822Y02129D02*
X01889D01*
X02988Y02189D02*
X03039D01*
X02937D02*
X02988D01*
X02937Y02216D02*
X02939Y02218D01*
X0309Y00724D02*
X03145Y00779D01*
Y00838*
X01704Y01885D02*
X0174Y01921D01*
X02988Y02248D02*
X03039D01*
X02846Y02249D02*
X02907D01*
X03039Y02248D02*
D01*
Y02189D02*
Y02248D01*
X02907Y02249D02*
Y02507D01*
X02929Y02248D02*
X02988D01*
X02907Y02249D02*
X02939Y02218D01*
X02937Y02189D02*
Y02216D01*
G54D36*
X02878Y01795D02*
X02992D01*
X02736D02*
X02878D01*
Y01913D02*
X02992D01*
X02736Y01964D02*
Y02031D01*
Y01964D02*
X02787Y01913D01*
X02878*
G54D37*
X00547Y02568D03*
G54D39*
X0033Y01515D03*
X00921D03*
X00433Y03547D03*
X00533D03*
X00633D03*
X00733D03*
X00833D03*
X00933D03*
X01033D03*
X01133D03*
X01233D03*
X01333D03*
X01433D03*
X01533D03*
X01633D03*
X01733D03*
X01833D03*
X01933D03*
X0024Y03288D03*
Y0311D03*
Y02783D03*
Y02605D03*
X0315Y0311D03*
Y03288D03*
Y02605D03*
Y02783D03*
G54D40*
X00551Y00476D03*
Y00376D03*
Y00276D03*
Y00176D03*
X00442Y00841D03*
X00342D03*
X00242D03*
X00142D03*
X00542D03*
X00642D03*
X00742D03*
X00842D03*
X00942D03*
X01042D03*
X01142D03*
X01242D03*
X01342D03*
X01442D03*
X01542D03*
X01642D03*
X01742D03*
X01842D03*
X01942D03*
X02042D03*
X02142D03*
X02242D03*
X02342D03*
X02442D03*
X02542D03*
X02642D03*
X02742D03*
X02842D03*
X02942D03*
X03042D03*
X03142D03*
X03242D03*
X00742Y00606D03*
X00642D03*
X00542D03*
X00442D03*
X00842D03*
X00942D03*
X01042D03*
X01142D03*
X01242D03*
X01342D03*
X01442D03*
X01542D03*
X01642D03*
X01742D03*
X01842D03*
X01942D03*
X02042D03*
X02142D03*
X02242D03*
X02342D03*
X02442D03*
X02542D03*
X02642D03*
X02742D03*
X02842D03*
X02942D03*
X01331Y0335D03*
X01431D03*
X01531D03*
X01631D03*
X01731D03*
X01831D03*
G54D41*
X01362Y01885D03*
X01165D03*
X00933Y01889D03*
X00736D03*
X01153Y02432D03*
Y02552D03*
X02888Y02944D03*
X02988D03*
G54D42*
X03189Y00401D03*
X02988D03*
X00395D03*
X00194D03*
G54D43*
X00338Y03337D03*
Y03061D03*
Y02832D03*
Y02556D03*
X03051Y03061D03*
Y03337D03*
Y02556D03*
Y02832D03*
G54D44*
X00307Y01925D03*
X00551D03*
G54D45*
X00437Y01728D03*
G54D46*
X00897Y00153D03*
X01197D03*
X01297D03*
X01397D03*
X01597D03*
Y00453D03*
X01397D03*
X01297D03*
X01197D03*
X00897D03*
X01811Y00153D03*
X02111D03*
X02211D03*
X02311D03*
X02511D03*
Y00453D03*
X02311D03*
X02211D03*
X02111D03*
X01811D03*
G54D47*
X0026Y01235D03*
Y01135D03*
X0066Y01235D03*
Y01135D03*
X0046D03*
Y01235D03*
X0056Y01135D03*
Y01235D03*
X0036D03*
Y01135D03*
G54D48*
X02736Y02031D03*
Y01795D03*
G54D49*
X01578Y01066D03*
X01279D03*
X01594Y01626D03*
X01543Y0161D03*
X01165Y02763D03*
X00944Y01031D03*
X00909D03*
X01086D03*
X01122Y01066D03*
Y01031D03*
X01421Y00996D03*
X01279Y01031D03*
X01244D03*
X01736Y01066D03*
X02685D03*
X02842D03*
X02996D03*
Y01031D03*
Y00996D03*
X02842Y01031D03*
Y00996D03*
X02685Y01031D03*
Y00996D03*
X02527Y01066D03*
Y01031D03*
Y00996D03*
X02366Y01066D03*
Y01031D03*
Y00996D03*
X02212Y01066D03*
Y01031D03*
Y00996D03*
X02055Y01066D03*
Y01031D03*
Y00996D03*
X01897Y01066D03*
Y01031D03*
Y00996D03*
X01736Y01031D03*
Y00996D03*
X01578Y01031D03*
Y00996D03*
X01421Y01031D03*
Y01066D03*
X00944D03*
X01003Y02657D03*
X02403Y034D03*
X02266D03*
G54D50*
X00311Y01618D03*
X00661Y01657D03*
X00519Y02539D03*
Y02594D03*
X0057D03*
Y02539D03*
X0309Y00228D03*
X0109Y00129D03*
X0007Y00303D03*
X0174Y02708D03*
X01807Y01661D03*
X02267Y02464D03*
X01413Y0285D03*
X01649Y02913D03*
X00795Y00374D03*
X00114Y00523D03*
X00094Y01055D03*
X02082Y03511D03*
X02055Y02059D03*
X02476Y03129D03*
X0259Y03326D03*
X02519Y02759D03*
X02626Y02799D03*
X01878Y0224D03*
X02744Y02704D03*
X02645Y02641D03*
X01996Y00133D03*
X01267Y02909D03*
X00417Y01626D03*
X03149Y0107D03*
X03208D03*
Y01015D03*
X03255Y01409D03*
X03208D03*
Y01456D03*
X03255D03*
X02712Y01645D03*
X03137Y01405D03*
X02822Y01358D03*
X02283Y01708D03*
X02374Y01578D03*
X01838Y01358D03*
X0157Y0246D03*
X01628Y02269D03*
X01663Y02234D03*
X00763Y0335D03*
X01783Y01866D03*
X02645Y01468D03*
X02559Y02118D03*
X01496Y02933D03*
G54D51*
X00805Y0312D03*
X01161Y02807D03*
X01078Y02826D03*
X01145Y0285D03*
X00637Y03122D03*
X00626Y03165D03*
X00929Y03169D03*
X01192Y02732D03*
X02078Y02228D03*
X02007Y02385D03*
Y02527D03*
X02189Y02118D03*
X02023D03*
X0198Y02593D03*
X02393Y0261D03*
X01063Y03224D03*
Y03275D03*
X00728Y03145D03*
X02185Y02228D03*
X01779Y02952D03*
X01775Y02834D03*
X01822D03*
X01897Y02807D03*
X02326Y0285D03*
X02547Y02925D03*
Y02874D03*
X01948Y02826D03*
X02263Y02228D03*
X02401D03*
X01673Y02629D03*
X01685Y02586D03*
Y02543D03*
X0198Y02728D03*
X01996Y02685D03*
X02122Y02669D03*
X0198Y02641D03*
X01972Y02236D03*
X01964Y03279D03*
X01925Y03318D03*
X00626Y02956D03*
X00437Y03145D03*
Y03086D03*
X02078Y02996D03*
X01972Y03169D03*
X01511Y02641D03*
X01551Y0257D03*
X01515Y02598D03*
X01055Y027D03*
X01094Y02661D03*
X01657Y02421D03*
X01933Y02492D03*
X01889D03*
X01818Y02515D03*
X01622Y02448D03*
X01692Y02318D03*
X01811Y02378D03*
X0183Y02342D03*
X01681Y02842D03*
X02307Y02228D03*
X02338Y02275D03*
G54D52*
X01838Y02003D03*
X02881Y00232D03*
X02988Y02248D03*
X03039Y02189D03*
X02988D03*
X02937D03*
Y02248D03*
X03039D03*
X02255Y01968D03*
X02236Y02051D03*
X02303Y01606D03*
G54D53*
X00161Y00141D03*
X03224D03*
X03177Y03555D03*
X00208D03*
Y02318D03*
X03177D03*
G54D54*
X00224Y02126D03*
X02173Y02358D03*
X02059Y02444D03*
X01807Y02708D03*
X0135Y02677D03*
X01098Y02956D03*
X0096D03*
X00704Y03078D03*
X00937Y01803D03*
X02161Y02051D03*
X00661Y01724D03*
X02574Y02641D03*
X02122Y02228D03*
G54D55*
X01626Y02543D03*
G54D56*
X01133Y01397D03*
Y01279D03*
X02992Y01795D03*
Y01913D03*
X02878Y01795D03*
Y01913D03*
G54D57*
X02653Y00163D03*
Y002D03*
Y00238D03*
X02755D03*
Y00163D03*
Y002D03*
X00685Y00167D03*
Y00204D03*
Y00242D03*
X00787D03*
Y00167D03*
Y00204D03*
X01035Y01161D03*
Y01124D03*
Y01198D03*
X00933D03*
Y01161D03*
Y01124D03*
X01279Y01159D03*
Y01122D03*
Y01196D03*
X01177D03*
Y01159D03*
Y01122D03*
G54D58*
X00893Y01629D03*
X00775D03*
X00893Y01732D03*
X00775D03*
G54D59*
X0233Y02025D03*
Y0195D03*
G54D60*
X02425Y0195D03*
Y01988D03*
Y02025D03*
G54D61*
X00255Y01633D03*
Y01559D03*
X00177Y01596D03*
G54D62*
X00736Y02933D03*
X00854D03*
G54D63*
X0049Y02133D03*
X00682D03*
X02652Y02248D03*
X02844D03*
X00695Y02574D03*
X00887D03*
G54D64*
X01Y00403D03*
Y00211D03*
X01913Y00403D03*
Y00211D03*
G54D65*
X02878Y01433D03*
Y01338D03*
G54D66*
X02483Y02864D03*
Y02889D03*
Y02915D03*
Y0294D03*
Y02966D03*
Y02992D03*
Y03017D03*
X0276Y02864D03*
Y02889D03*
Y02915D03*
Y0294D03*
Y02966D03*
Y02992D03*
Y03017D03*
G54D67*
X01133Y0341D03*
Y03178D03*
X00866Y0341D03*
Y03178D03*
G54D68*
X01133Y03384D03*
Y03358D03*
Y03332D03*
Y03307D03*
Y03281D03*
Y03256D03*
Y0323D03*
Y03204D03*
X00866Y03384D03*
Y03358D03*
Y03332D03*
Y03307D03*
Y03281D03*
Y03256D03*
Y0323D03*
Y03204D03*
G54D69*
X00846Y02724D03*
Y02842D03*
G54D70*
X00846Y02783D03*
G54D71*
X02584Y02473D02*
X02657D01*
X02577Y02423D02*
X02657D01*
X02574Y02421D02*
X02577Y02423D01*
X02598Y02373D02*
X02657D01*
X02574Y0235D02*
X02598Y02373D01*
X02574Y02464D02*
X02584Y02473D01*
G54D72*
X00944Y01031D02*
X01086D01*
X01118D02*
Y01177D01*
X01039Y01212D02*
Y01263D01*
Y01212D02*
X01082D01*
X01354Y01338D02*
X01366Y01326D01*
X01082Y01212D02*
X01118Y01177D01*
X01086Y01031D02*
X01118D01*
X01039Y01263D02*
Y01311D01*
X01066Y01338*
M02*