%FSTAX23Y23*%
%MOIN*%
%SFA1B1*%

%IPPOS*%
%ADD73C,0.007900*%
%ADD121C,0.003900*%
%LNrelaytester-1*%
%LPD*%
G54D73*
X02696Y03548D02*
Y03579D01*
X02689Y03563D02*
X02696D01*
G54D121*
X01461Y01885D02*
D01*
X01461Y01899*
X01459Y01913*
X01457Y01926*
X01453Y0194*
X01449Y01953*
X01444Y01966*
X01438Y01978*
X01431Y0199*
X01423Y02002*
X01415Y02012*
X01406Y02023*
X01396Y02032*
X01385Y02041*
X01374Y02049*
X01362Y02057*
X0135Y02063*
X01337Y02069*
X01324Y02073*
X01311Y02077*
X01298Y0208*
X01284Y02082*
X0127Y02083*
X01256*
X01243Y02082*
X01229Y0208*
X01215Y02077*
X01202Y02073*
X01189Y02069*
X01177Y02063*
X01164Y02057*
X01153Y02049*
X01142Y02041*
X01131Y02032*
X01121Y02023*
X01112Y02012*
X01103Y02002*
X01096Y0199*
X01089Y01978*
X01083Y01966*
X01077Y01953*
X01073Y0194*
X0107Y01926*
X01067Y01913*
X01066Y01899*
X01066Y01885*
X01066Y01872*
X01067Y01858*
X0107Y01844*
X01073Y01831*
X01077Y01818*
X01083Y01805*
X01089Y01792*
X01096Y0178*
X01103Y01769*
X01112Y01758*
X01121Y01748*
X01131Y01738*
X01142Y01729*
X01153Y01721*
X01164Y01714*
X01177Y01708*
X01189Y01702*
X01202Y01697*
X01215Y01693*
X01229Y01691*
X01243Y01689*
X01256Y01688*
X0127*
X01284Y01689*
X01298Y01691*
X01311Y01693*
X01324Y01697*
X01337Y01702*
X0135Y01708*
X01362Y01714*
X01374Y01721*
X01385Y01729*
X01396Y01738*
X01406Y01748*
X01415Y01758*
X01423Y01769*
X01431Y0178*
X01438Y01792*
X01444Y01805*
X01449Y01818*
X01453Y01831*
X01457Y01844*
X01459Y01858*
X01461Y01872*
X01461Y01885*
X01032Y01889D02*
D01*
X01032Y01903*
X0103Y01917*
X01028Y0193*
X01024Y01944*
X0102Y01957*
X01015Y0197*
X01009Y01982*
X01002Y01994*
X00994Y02006*
X00986Y02016*
X00976Y02027*
X00967Y02036*
X00956Y02045*
X00945Y02053*
X00933Y02061*
X00921Y02067*
X00908Y02073*
X00895Y02077*
X00882Y02081*
X00869Y02084*
X00855Y02086*
X00841Y02087*
X00827*
X00814Y02086*
X008Y02084*
X00786Y02081*
X00773Y02077*
X0076Y02073*
X00747Y02067*
X00735Y02061*
X00724Y02053*
X00712Y02045*
X00702Y02036*
X00692Y02027*
X00683Y02016*
X00674Y02006*
X00666Y01994*
X0066Y01982*
X00654Y0197*
X00648Y01957*
X00644Y01944*
X00641Y0193*
X00638Y01917*
X00637Y01903*
X00636Y01889*
X00637Y01876*
X00638Y01862*
X00641Y01848*
X00644Y01835*
X00648Y01822*
X00654Y01809*
X0066Y01796*
X00666Y01784*
X00674Y01773*
X00683Y01762*
X00692Y01752*
X00702Y01742*
X00712Y01733*
X00724Y01725*
X00735Y01718*
X00747Y01712*
X0076Y01706*
X00773Y01701*
X00786Y01697*
X008Y01695*
X00814Y01693*
X00827Y01692*
X00841*
X00855Y01693*
X00869Y01695*
X00882Y01697*
X00895Y01701*
X00908Y01706*
X00921Y01712*
X00933Y01718*
X00945Y01725*
X00956Y01733*
X00967Y01742*
X00976Y01752*
X00986Y01762*
X00994Y01773*
X01002Y01784*
X01009Y01796*
X01015Y01809*
X0102Y01822*
X01024Y01835*
X01028Y01848*
X0103Y01862*
X01032Y01876*
X01032Y01889*
X00732Y0337D02*
D01*
X00732Y03371*
X00732Y03372*
X00731Y03374*
X00731Y03375*
X00731Y03376*
X0073Y03378*
X00729Y03379*
X00729Y0338*
X00728Y03381*
X00727Y03382*
X00726Y03383*
X00725Y03384*
X00724Y03385*
X00723Y03386*
X00722Y03387*
X00721Y03387*
X00719Y03388*
X00718Y03388*
X00717Y03389*
X00716Y03389*
X00714Y03389*
X00713Y03389*
X00711*
X0071Y03389*
X00709Y03389*
X00707Y03389*
X00706Y03388*
X00705Y03388*
X00703Y03387*
X00702Y03387*
X00701Y03386*
X007Y03385*
X00699Y03384*
X00698Y03383*
X00697Y03382*
X00696Y03381*
X00695Y0338*
X00695Y03379*
X00694Y03378*
X00694Y03376*
X00693Y03375*
X00693Y03374*
X00693Y03372*
X00692Y03371*
X00692Y0337*
X00692Y03368*
X00693Y03367*
X00693Y03366*
X00693Y03364*
X00694Y03363*
X00694Y03362*
X00695Y0336*
X00695Y03359*
X00696Y03358*
X00697Y03357*
X00698Y03356*
X00699Y03355*
X007Y03354*
X00701Y03353*
X00702Y03353*
X00703Y03352*
X00705Y03351*
X00706Y03351*
X00707Y0335*
X00709Y0335*
X0071Y0335*
X00711Y0335*
X00713*
X00714Y0335*
X00716Y0335*
X00717Y0335*
X00718Y03351*
X00719Y03351*
X00721Y03352*
X00722Y03353*
X00723Y03353*
X00724Y03354*
X00725Y03355*
X00726Y03356*
X00727Y03357*
X00728Y03358*
X00729Y03359*
X00729Y0336*
X0073Y03362*
X00731Y03363*
X00731Y03364*
X00731Y03366*
X00732Y03367*
X00732Y03368*
X00732Y0337*
X02918Y00352D02*
D01*
X02918Y00352*
X02918Y00353*
X02918Y00354*
X02918Y00354*
X02918Y00355*
X02917Y00355*
X02917Y00356*
X02917Y00356*
X02916Y00357*
X02916Y00357*
X02916Y00358*
X02915Y00358*
X02915Y00358*
X02914Y00359*
X02914Y00359*
X02913Y00359*
X02913Y00359*
X02912Y0036*
X02912Y0036*
X02911Y0036*
X02911Y0036*
X0291Y0036*
X0291*
X02909Y0036*
X02908Y0036*
X02908Y0036*
X02907Y0036*
X02907Y00359*
X02906Y00359*
X02906Y00359*
X02905Y00359*
X02905Y00358*
X02904Y00358*
X02904Y00358*
X02904Y00357*
X02903Y00357*
X02903Y00356*
X02903Y00356*
X02903Y00355*
X02902Y00355*
X02902Y00354*
X02902Y00354*
X02902Y00353*
X02902Y00352*
X02902Y00352*
X02902Y00351*
X02902Y00351*
X02902Y0035*
X02902Y0035*
X02902Y00349*
X02903Y00349*
X02903Y00348*
X02903Y00348*
X02903Y00347*
X02904Y00347*
X02904Y00346*
X02904Y00346*
X02905Y00346*
X02905Y00345*
X02906Y00345*
X02906Y00345*
X02907Y00344*
X02907Y00344*
X02908Y00344*
X02908Y00344*
X02909Y00344*
X0291Y00344*
X0291*
X02911Y00344*
X02911Y00344*
X02912Y00344*
X02912Y00344*
X02913Y00344*
X02913Y00345*
X02914Y00345*
X02914Y00345*
X02915Y00346*
X02915Y00346*
X02916Y00346*
X02916Y00347*
X02916Y00347*
X02917Y00348*
X02917Y00348*
X02917Y00349*
X02918Y00349*
X02918Y0035*
X02918Y0035*
X02918Y00351*
X02918Y00351*
X02918Y00352*
X00125D02*
D01*
X00125Y00352*
X00125Y00353*
X00125Y00354*
X00124Y00354*
X00124Y00355*
X00124Y00355*
X00124Y00356*
X00123Y00356*
X00123Y00357*
X00123Y00357*
X00122Y00358*
X00122Y00358*
X00122Y00358*
X00121Y00359*
X00121Y00359*
X0012Y00359*
X0012Y00359*
X00119Y0036*
X00119Y0036*
X00118Y0036*
X00117Y0036*
X00117Y0036*
X00116*
X00116Y0036*
X00115Y0036*
X00115Y0036*
X00114Y0036*
X00114Y00359*
X00113Y00359*
X00113Y00359*
X00112Y00359*
X00112Y00358*
X00111Y00358*
X00111Y00358*
X0011Y00357*
X0011Y00357*
X0011Y00356*
X00109Y00356*
X00109Y00355*
X00109Y00355*
X00109Y00354*
X00109Y00354*
X00109Y00353*
X00109Y00352*
X00109Y00352*
X00109Y00351*
X00109Y00351*
X00109Y0035*
X00109Y0035*
X00109Y00349*
X00109Y00349*
X00109Y00348*
X0011Y00348*
X0011Y00347*
X0011Y00347*
X00111Y00346*
X00111Y00346*
X00112Y00346*
X00112Y00345*
X00113Y00345*
X00113Y00345*
X00114Y00344*
X00114Y00344*
X00115Y00344*
X00115Y00344*
X00116Y00344*
X00116Y00344*
X00117*
X00117Y00344*
X00118Y00344*
X00119Y00344*
X00119Y00344*
X0012Y00344*
X0012Y00345*
X00121Y00345*
X00121Y00345*
X00122Y00346*
X00122Y00346*
X00122Y00346*
X00123Y00347*
X00123Y00347*
X00123Y00348*
X00124Y00348*
X00124Y00349*
X00124Y00349*
X00124Y0035*
X00125Y0035*
X00125Y00351*
X00125Y00351*
X00125Y00352*
X00767Y02338D02*
D01*
X00767Y02339*
X00767Y02341*
X00767Y02342*
X00766Y02344*
X00766Y02345*
X00765Y02346*
X00765Y02347*
X00764Y02349*
X00763Y0235*
X00763Y02351*
X00762Y02352*
X00761Y02353*
X0076Y02354*
X00759Y02354*
X00757Y02355*
X00756Y02356*
X00755Y02356*
X00754Y02357*
X00752Y02357*
X00751Y02358*
X0075Y02358*
X00748Y02358*
X00747*
X00745Y02358*
X00744Y02358*
X00743Y02357*
X00741Y02357*
X0074Y02356*
X00739Y02356*
X00738Y02355*
X00736Y02354*
X00735Y02354*
X00734Y02353*
X00733Y02352*
X00732Y02351*
X00732Y0235*
X00731Y02349*
X0073Y02347*
X0073Y02346*
X00729Y02345*
X00729Y02344*
X00728Y02342*
X00728Y02341*
X00728Y02339*
X00728Y02338*
X00728Y02337*
X00728Y02335*
X00728Y02334*
X00729Y02333*
X00729Y02331*
X0073Y0233*
X0073Y02329*
X00731Y02328*
X00732Y02327*
X00732Y02325*
X00733Y02324*
X00734Y02323*
X00735Y02323*
X00736Y02322*
X00738Y02321*
X00739Y0232*
X0074Y0232*
X00741Y02319*
X00743Y02319*
X00744Y02319*
X00745Y02319*
X00747Y02318*
X00748*
X0075Y02319*
X00751Y02319*
X00752Y02319*
X00754Y02319*
X00755Y0232*
X00756Y0232*
X00757Y02321*
X00759Y02322*
X0076Y02323*
X00761Y02323*
X00762Y02324*
X00763Y02325*
X00763Y02327*
X00764Y02328*
X00765Y02329*
X00765Y0233*
X00766Y02331*
X00766Y02333*
X00767Y02334*
X00767Y02335*
X00767Y02337*
X00767Y02338*
X02133Y01984D02*
D01*
X02133Y01985*
X02133Y01987*
X02133Y01988*
X02133Y01989*
X02132Y01991*
X02132Y01992*
X02131Y01993*
X0213Y01994*
X0213Y01995*
X02129Y01996*
X02128Y01997*
X02127Y01998*
X02126Y01999*
X02125Y02*
X02124Y02001*
X02122Y02002*
X02121Y02002*
X0212Y02003*
X02118Y02003*
X02117Y02003*
X02116Y02003*
X02114Y02003*
X02113*
X02112Y02003*
X0211Y02003*
X02109Y02003*
X02108Y02003*
X02106Y02002*
X02105Y02002*
X02104Y02001*
X02103Y02*
X02102Y01999*
X02101Y01998*
X021Y01997*
X02099Y01996*
X02098Y01995*
X02097Y01994*
X02096Y01993*
X02096Y01992*
X02095Y01991*
X02095Y01989*
X02094Y01988*
X02094Y01987*
X02094Y01985*
X02094Y01984*
X02094Y01982*
X02094Y01981*
X02094Y0198*
X02095Y01978*
X02095Y01977*
X02096Y01976*
X02096Y01975*
X02097Y01973*
X02098Y01972*
X02099Y01971*
X021Y0197*
X02101Y01969*
X02102Y01968*
X02103Y01967*
X02104Y01967*
X02105Y01966*
X02106Y01966*
X02108Y01965*
X02109Y01965*
X0211Y01964*
X02112Y01964*
X02113Y01964*
X02114*
X02116Y01964*
X02117Y01964*
X02118Y01965*
X0212Y01965*
X02121Y01966*
X02122Y01966*
X02124Y01967*
X02125Y01967*
X02126Y01968*
X02127Y01969*
X02128Y0197*
X02129Y01971*
X0213Y01972*
X0213Y01973*
X02131Y01975*
X02132Y01976*
X02132Y01977*
X02133Y01978*
X02133Y0198*
X02133Y01981*
X02133Y01982*
X02133Y01984*
X02291Y01409D02*
D01*
X02291Y0141*
X02291Y01412*
X0229Y01413*
X0229Y01414*
X0229Y01416*
X02289Y01417*
X02288Y01418*
X02288Y01419*
X02287Y0142*
X02286Y01422*
X02285Y01423*
X02284Y01424*
X02283Y01424*
X02282Y01425*
X02281Y01426*
X0228Y01427*
X02278Y01427*
X02277Y01428*
X02276Y01428*
X02275Y01428*
X02273Y01428*
X02272Y01429*
X0227*
X02269Y01428*
X02268Y01428*
X02266Y01428*
X02265Y01428*
X02264Y01427*
X02262Y01427*
X02261Y01426*
X0226Y01425*
X02259Y01424*
X02258Y01424*
X02257Y01423*
X02256Y01422*
X02255Y0142*
X02254Y01419*
X02254Y01418*
X02253Y01417*
X02253Y01416*
X02252Y01414*
X02252Y01413*
X02252Y01412*
X02251Y0141*
X02251Y01409*
X02251Y01408*
X02252Y01406*
X02252Y01405*
X02252Y01403*
X02253Y01402*
X02253Y01401*
X02254Y014*
X02254Y01398*
X02255Y01397*
X02256Y01396*
X02257Y01395*
X02258Y01394*
X02259Y01393*
X0226Y01393*
X02261Y01392*
X02262Y01391*
X02264Y01391*
X02265Y0139*
X02266Y0139*
X02268Y01389*
X02269Y01389*
X0227Y01389*
X02272*
X02273Y01389*
X02275Y01389*
X02276Y0139*
X02277Y0139*
X02278Y01391*
X0228Y01391*
X02281Y01392*
X02282Y01393*
X02283Y01393*
X02284Y01394*
X02285Y01395*
X02286Y01396*
X02287Y01397*
X02288Y01398*
X02288Y014*
X02289Y01401*
X0229Y01402*
X0229Y01403*
X0229Y01405*
X02291Y01406*
X02291Y01408*
X02291Y01409*
X0257Y0285D02*
D01*
X0257Y02851*
X0257Y02853*
X0257Y02854*
X0257Y02855*
X02569Y02857*
X02569Y02858*
X02568Y02859*
X02567Y0286*
X02567Y02861*
X02566Y02863*
X02565Y02864*
X02564Y02865*
X02563Y02865*
X02562Y02866*
X02561Y02867*
X02559Y02868*
X02558Y02868*
X02557Y02869*
X02555Y02869*
X02554Y02869*
X02553Y02869*
X02551Y0287*
X0255*
X02549Y02869*
X02547Y02869*
X02546Y02869*
X02545Y02869*
X02543Y02868*
X02542Y02868*
X02541Y02867*
X0254Y02866*
X02539Y02865*
X02538Y02865*
X02537Y02864*
X02536Y02863*
X02535Y02861*
X02534Y0286*
X02533Y02859*
X02533Y02858*
X02532Y02857*
X02532Y02855*
X02531Y02854*
X02531Y02853*
X02531Y02851*
X02531Y0285*
X02531Y02849*
X02531Y02847*
X02531Y02846*
X02532Y02844*
X02532Y02843*
X02533Y02842*
X02533Y02841*
X02534Y02839*
X02535Y02838*
X02536Y02837*
X02537Y02836*
X02538Y02835*
X02539Y02834*
X0254Y02834*
X02541Y02833*
X02542Y02832*
X02543Y02832*
X02545Y02831*
X02546Y02831*
X02547Y0283*
X02549Y0283*
X0255Y0283*
X02551*
X02553Y0283*
X02554Y0283*
X02555Y02831*
X02557Y02831*
X02558Y02832*
X02559Y02832*
X02561Y02833*
X02562Y02834*
X02563Y02834*
X02564Y02835*
X02565Y02836*
X02566Y02837*
X02567Y02838*
X02567Y02839*
X02568Y02841*
X02569Y02842*
X02569Y02843*
X0257Y02844*
X0257Y02846*
X0257Y02847*
X0257Y02849*
X0257Y0285*
X00966Y03199D02*
D01*
X00966Y03201*
X00966Y03202*
X00966Y03203*
X00965Y03205*
X00965Y03206*
X00964Y03207*
X00964Y03209*
X00963Y0321*
X00962Y03211*
X00961Y03212*
X0096Y03213*
X00959Y03214*
X00958Y03215*
X00957Y03216*
X00956Y03216*
X00955Y03217*
X00954Y03218*
X00952Y03218*
X00951Y03219*
X0095Y03219*
X00948Y03219*
X00947Y03219*
X00946*
X00944Y03219*
X00943Y03219*
X00942Y03219*
X0094Y03218*
X00939Y03218*
X00938Y03217*
X00936Y03216*
X00935Y03216*
X00934Y03215*
X00933Y03214*
X00932Y03213*
X00931Y03212*
X0093Y03211*
X0093Y0321*
X00929Y03209*
X00928Y03207*
X00928Y03206*
X00927Y03205*
X00927Y03203*
X00927Y03202*
X00927Y03201*
X00927Y03199*
X00927Y03198*
X00927Y03197*
X00927Y03195*
X00927Y03194*
X00928Y03193*
X00928Y03191*
X00929Y0319*
X0093Y03189*
X0093Y03188*
X00931Y03187*
X00932Y03186*
X00933Y03185*
X00934Y03184*
X00935Y03183*
X00936Y03182*
X00938Y03182*
X00939Y03181*
X0094Y03181*
X00942Y0318*
X00943Y0318*
X00944Y0318*
X00946Y0318*
X00947*
X00948Y0318*
X0095Y0318*
X00951Y0318*
X00952Y03181*
X00954Y03181*
X00955Y03182*
X00956Y03182*
X00957Y03183*
X00958Y03184*
X00959Y03185*
X0096Y03186*
X00961Y03187*
X00962Y03188*
X00963Y03189*
X00964Y0319*
X00964Y03191*
X00965Y03193*
X00965Y03194*
X00966Y03195*
X00966Y03197*
X00966Y03198*
X00966Y03199*
X03267Y01342D02*
D01*
X03267Y01343*
X03267Y01345*
X03267Y01346*
X03266Y01347*
X03266Y01349*
X03265Y0135*
X03265Y01351*
X03264Y01352*
X03263Y01354*
X03263Y01355*
X03262Y01356*
X03261Y01357*
X0326Y01358*
X03259Y01358*
X03257Y01359*
X03256Y0136*
X03255Y0136*
X03254Y01361*
X03252Y01361*
X03251Y01361*
X0325Y01362*
X03248Y01362*
X03247*
X03245Y01362*
X03244Y01361*
X03243Y01361*
X03241Y01361*
X0324Y0136*
X03239Y0136*
X03238Y01359*
X03236Y01358*
X03235Y01358*
X03234Y01357*
X03233Y01356*
X03232Y01355*
X03232Y01354*
X03231Y01352*
X0323Y01351*
X0323Y0135*
X03229Y01349*
X03229Y01347*
X03228Y01346*
X03228Y01345*
X03228Y01343*
X03228Y01342*
X03228Y01341*
X03228Y01339*
X03228Y01338*
X03229Y01337*
X03229Y01335*
X0323Y01334*
X0323Y01333*
X03231Y01332*
X03232Y0133*
X03232Y01329*
X03233Y01328*
X03234Y01327*
X03235Y01326*
X03236Y01326*
X03238Y01325*
X03239Y01324*
X0324Y01324*
X03241Y01323*
X03243Y01323*
X03244Y01323*
X03245Y01322*
X03247Y01322*
X03248*
X0325Y01322*
X03251Y01323*
X03252Y01323*
X03254Y01323*
X03255Y01324*
X03256Y01324*
X03257Y01325*
X03259Y01326*
X0326Y01326*
X03261Y01327*
X03262Y01328*
X03263Y01329*
X03263Y0133*
X03264Y01332*
X03265Y01333*
X03265Y01334*
X03266Y01335*
X03266Y01337*
X03267Y01338*
X03267Y01339*
X03267Y01341*
X03267Y01342*
X02728Y02385D02*
D01*
X02728Y02387*
X02728Y02388*
X02727Y02389*
X02727Y02391*
X02727Y02392*
X02726Y02393*
X02725Y02395*
X02725Y02396*
X02724Y02397*
X02723Y02398*
X02722Y02399*
X02721Y024*
X0272Y02401*
X02719Y02402*
X02718Y02402*
X02717Y02403*
X02715Y02404*
X02714Y02404*
X02713Y02404*
X02712Y02405*
X0271Y02405*
X02709Y02405*
X02707*
X02706Y02405*
X02705Y02405*
X02703Y02404*
X02702Y02404*
X02701Y02404*
X02699Y02403*
X02698Y02402*
X02697Y02402*
X02696Y02401*
X02695Y024*
X02694Y02399*
X02693Y02398*
X02692Y02397*
X02691Y02396*
X02691Y02395*
X0269Y02393*
X0269Y02392*
X02689Y02391*
X02689Y02389*
X02689Y02388*
X02688Y02387*
X02688Y02385*
X02688Y02384*
X02689Y02383*
X02689Y02381*
X02689Y0238*
X0269Y02379*
X0269Y02377*
X02691Y02376*
X02691Y02375*
X02692Y02374*
X02693Y02373*
X02694Y02372*
X02695Y02371*
X02696Y0237*
X02697Y02369*
X02698Y02368*
X02699Y02368*
X02701Y02367*
X02702Y02367*
X02703Y02366*
X02705Y02366*
X02706Y02366*
X02707Y02366*
X02709*
X0271Y02366*
X02712Y02366*
X02713Y02366*
X02714Y02367*
X02715Y02367*
X02717Y02368*
X02718Y02368*
X02719Y02369*
X0272Y0237*
X02721Y02371*
X02722Y02372*
X02723Y02373*
X02724Y02374*
X02725Y02375*
X02725Y02376*
X02726Y02377*
X02727Y02379*
X02727Y0238*
X02727Y02381*
X02728Y02383*
X02728Y02384*
X02728Y02385*
X00807Y02838D02*
D01*
X00807Y02839*
X00807Y02841*
X00806Y02842*
X00806Y02844*
X00806Y02845*
X00805Y02846*
X00804Y02847*
X00804Y02849*
X00803Y0285*
X00802Y02851*
X00801Y02852*
X008Y02853*
X00799Y02854*
X00798Y02854*
X00797Y02855*
X00796Y02856*
X00794Y02856*
X00793Y02857*
X00792Y02857*
X0079Y02858*
X00789Y02858*
X00788Y02858*
X00786*
X00785Y02858*
X00784Y02858*
X00782Y02857*
X00781Y02857*
X0078Y02856*
X00778Y02856*
X00777Y02855*
X00776Y02854*
X00775Y02854*
X00774Y02853*
X00773Y02852*
X00772Y02851*
X00771Y0285*
X0077Y02849*
X0077Y02847*
X00769Y02846*
X00768Y02845*
X00768Y02844*
X00768Y02842*
X00767Y02841*
X00767Y02839*
X00767Y02838*
X00767Y02837*
X00767Y02835*
X00768Y02834*
X00768Y02833*
X00768Y02831*
X00769Y0283*
X0077Y02829*
X0077Y02828*
X00771Y02827*
X00772Y02825*
X00773Y02824*
X00774Y02823*
X00775Y02823*
X00776Y02822*
X00777Y02821*
X00778Y0282*
X0078Y0282*
X00781Y02819*
X00782Y02819*
X00784Y02819*
X00785Y02819*
X00786Y02818*
X00788*
X00789Y02819*
X0079Y02819*
X00792Y02819*
X00793Y02819*
X00794Y0282*
X00796Y0282*
X00797Y02821*
X00798Y02822*
X00799Y02823*
X008Y02823*
X00801Y02824*
X00802Y02825*
X00803Y02827*
X00804Y02828*
X00804Y02829*
X00805Y0283*
X00806Y02831*
X00806Y02833*
X00806Y02834*
X00807Y02835*
X00807Y02837*
X00807Y02838*
X00379Y01407D02*
Y01624D01*
Y01407D02*
X00872D01*
Y01624*
X00379D02*
X00872D01*
X00484Y02645D02*
X00964D01*
Y03126*
X00484D02*
X00964D01*
X00484Y02645D02*
Y03126D01*
X01362Y0135D02*
Y01401D01*
X01244D02*
X01362D01*
X01244Y0135D02*
Y01401D01*
Y0135D02*
X01362D01*
X03098D02*
Y01401D01*
X0298D02*
X03098D01*
X0298Y0135D02*
Y01401D01*
Y0135D02*
X03098D01*
X02468D02*
Y01401D01*
X0235D02*
X02468D01*
X0235Y0135D02*
Y01401D01*
Y0135D02*
X02468D01*
X01838D02*
Y01401D01*
X0172D02*
X01838D01*
X0172Y0135D02*
Y01401D01*
Y0135D02*
X01838D01*
X012D02*
Y01401D01*
X01082D02*
X012D01*
X01082Y0135D02*
Y01401D01*
Y0135D02*
X012D01*
X0294D02*
Y01401D01*
X02822D02*
X0294D01*
X02822Y0135D02*
Y01401D01*
Y0135D02*
X0294D01*
X02311D02*
Y01401D01*
X02192D02*
X02311D01*
X02192Y0135D02*
Y01401D01*
Y0135D02*
X02311D01*
X01681D02*
Y01401D01*
X01563D02*
X01681D01*
X01563Y0135D02*
Y01401D01*
Y0135D02*
X01681D01*
X01039D02*
Y01401D01*
X00921D02*
X01039D01*
X00921Y0135D02*
Y01401D01*
Y0135D02*
X01039D01*
X02783D02*
Y01401D01*
X02665D02*
X02783D01*
X02665Y0135D02*
Y01401D01*
Y0135D02*
X02783D01*
X02151D02*
Y01401D01*
X02033D02*
X02151D01*
X02033Y0135D02*
Y01401D01*
Y0135D02*
X02151D01*
X01523D02*
Y01401D01*
X01405D02*
X01523D01*
X01405Y0135D02*
Y01401D01*
Y0135D02*
X01523D01*
X02626D02*
Y01401D01*
X02507D02*
X02626D01*
X02507Y0135D02*
Y01401D01*
Y0135D02*
X02626D01*
X01996D02*
Y01401D01*
X01878D02*
X01996D01*
X01878Y0135D02*
Y01401D01*
Y0135D02*
X01996D01*
X03007Y01484D02*
X03066D01*
Y01452D02*
Y01484D01*
X03007Y01452D02*
X03066D01*
X03007D02*
Y01484D01*
X02378D02*
X02437D01*
Y01452D02*
Y01484D01*
X02378Y01452D02*
X02437D01*
X02378D02*
Y01484D01*
X01748D02*
X01807D01*
Y01452D02*
Y01484D01*
X01748Y01452D02*
X01807D01*
X01748D02*
Y01484D01*
X0111D02*
X01169D01*
Y01452D02*
Y01484D01*
X0111Y01452D02*
X01169D01*
X0111D02*
Y01484D01*
X0222D02*
X02279D01*
Y01452D02*
Y01484D01*
X0222Y01452D02*
X02279D01*
X0222D02*
Y01484D01*
X0159D02*
X01649D01*
Y01452D02*
Y01484D01*
X0159Y01452D02*
X01649D01*
X0159D02*
Y01484D01*
X0099D02*
X01049D01*
Y01452D02*
Y01484D01*
X0099Y01452D02*
X01049D01*
X0099D02*
Y01484D01*
X0269D02*
X0275D01*
Y01452D02*
Y01484D01*
X0269Y01452D02*
X0275D01*
X0269D02*
Y01484D01*
X02059D02*
X02118D01*
Y01452D02*
Y01484D01*
X02059Y01452D02*
X02118D01*
X02059D02*
Y01484D01*
X01433D02*
X01492D01*
Y01452D02*
Y01484D01*
X01433Y01452D02*
X01492D01*
X01433D02*
Y01484D01*
X02535D02*
X02594D01*
Y01452D02*
Y01484D01*
X02535Y01452D02*
X02594D01*
X02535D02*
Y01484D01*
X01905D02*
X01964D01*
Y01452D02*
Y01484D01*
X01905Y01452D02*
X01964D01*
X01905D02*
Y01484D01*
X01271D02*
X0133D01*
Y01452D02*
Y01484D01*
X01271Y01452D02*
X0133D01*
X01271D02*
Y01484D01*
X005Y00531D02*
X00602D01*
Y00122D02*
Y00531D01*
X005Y00122D02*
X00602D01*
X005D02*
Y00531D01*
X00602*
X02633Y02574D02*
X02665D01*
X02633Y02515D02*
Y02574D01*
Y02515D02*
X02665D01*
Y02574*
X0274Y02661D02*
X02799D01*
Y02629D02*
Y02661D01*
X0274Y02629D02*
X02799D01*
X0274D02*
Y02661D01*
X0198Y03047D02*
X02039D01*
X0198D02*
Y03078D01*
X02039*
Y03047D02*
Y03078D01*
X01531Y02478D02*
Y02537D01*
X015Y02478D02*
X01531D01*
X015D02*
Y02537D01*
X01531*
X0195Y02309D02*
X0201D01*
Y02278D02*
Y02309D01*
X0195Y02278D02*
X0201D01*
X0195D02*
Y02309D01*
X01669Y03023D02*
X01728D01*
X01669D02*
Y03055D01*
X01728*
Y03023D02*
Y03055D01*
X02248Y02744D02*
Y02803D01*
X02279*
Y02744D02*
Y02803D01*
X02248Y02744D02*
X02279D01*
X02145Y02822D02*
X02216D01*
X02145Y0285D02*
X02216D01*
X02145Y02716D02*
Y0285D01*
Y02716D02*
X02216D01*
Y0285*
X0094Y03326D02*
Y03385D01*
X00972*
Y03326D02*
Y03385D01*
X0094Y03326D02*
X00972D01*
X02704Y02489D02*
Y02558D01*
X02822Y02489D02*
Y02558D01*
X02704Y02489D02*
X02822D01*
X02704Y02558D02*
X02822D01*
X00677Y03405D02*
X00834D01*
X00677Y03208D02*
Y03405D01*
X00834Y03208D02*
Y03405D01*
X00677Y03208D02*
X00834D01*
X02318Y02807D02*
X0235D01*
X02318Y02748D02*
Y02807D01*
Y02748D02*
X0235D01*
Y02807*
X00484Y02133D02*
X00964D01*
Y02614*
X00484D02*
X00964D01*
X00484Y02133D02*
Y02614D01*
X03267Y02228D02*
Y03645D01*
X00118Y02228D02*
X03267D01*
X00118D02*
Y03645D01*
X03267*
X02645Y0354D02*
Y03588D01*
X02724*
Y0354D02*
Y03588D01*
X02645Y0354D02*
X02724D01*
X0235Y02539D02*
Y02673D01*
X02299Y02539D02*
X0235D01*
X02299D02*
Y02673D01*
X0235*
X02647Y03458D02*
X02706D01*
X02647D02*
Y0349D01*
X02706*
Y03458D02*
Y0349D01*
X02874Y02779D02*
Y02838D01*
X02905*
Y02779D02*
Y02838D01*
X02874Y02779D02*
X02905D01*
X02412Y0314D02*
Y03199D01*
X02381Y0314D02*
X02412D01*
X02381D02*
Y03199D01*
X02412*
X02342Y0314D02*
Y03199D01*
X02311Y0314D02*
X02342D01*
X02311D02*
Y03199D01*
X02342*
X02272Y0314D02*
Y03199D01*
X02241Y0314D02*
X02272D01*
X02241D02*
Y03199D01*
X02272*
X02157Y03137D02*
Y03196D01*
X02189*
Y03137D02*
Y03196D01*
X02157Y03137D02*
X02189D01*
X02815Y0234D02*
Y024D01*
X02783Y0234D02*
X02815D01*
X02783D02*
Y024D01*
X02815*
X02744Y0234D02*
Y024D01*
X02712Y0234D02*
X02744D01*
X02712D02*
Y024D01*
X02744*
X01897Y02291D02*
Y0235D01*
X01866Y02291D02*
X01897D01*
X01866D02*
Y0235D01*
X01897*
X02179Y0259D02*
X02238D01*
Y02558D02*
Y0259D01*
X02179Y02558D02*
X02238D01*
X02179D02*
Y0259D01*
Y02655D02*
X02238D01*
Y02623D02*
Y02655D01*
X02179Y02623D02*
X02238D01*
X02179D02*
Y02655D01*
X00972Y03212D02*
Y03271D01*
X0094Y03212D02*
X00972D01*
X0094D02*
Y03271D01*
X00972*
X00809Y03149D02*
X00868D01*
X00809D02*
Y03181D01*
X00868*
Y03149D02*
Y03181D01*
X01334Y01519D02*
X01393D01*
X01334D02*
Y01551D01*
X01393*
Y01519D02*
Y01551D01*
X01968Y01519D02*
X02027D01*
X01968D02*
Y01551D01*
X02027*
Y01519D02*
Y01551D01*
X02598Y01519D02*
X02657D01*
X02598D02*
Y01551D01*
X02657*
Y01519D02*
Y01551D01*
X01232Y01263D02*
X01291D01*
X01232D02*
Y01295D01*
X01291*
Y01263D02*
Y01295D01*
X01866Y01263D02*
X01925D01*
X01866D02*
Y01295D01*
X01925*
Y01263D02*
Y01295D01*
X02496Y01263D02*
X02555D01*
X02496D02*
Y01295D01*
X02555*
Y01263D02*
Y01295D01*
X02891Y00578D02*
X03285D01*
Y01196*
X02891D02*
X03285D01*
X02891Y00578D02*
Y01196D01*
X00098Y00578D02*
X00492D01*
Y01196*
X00098D02*
X00492D01*
X00098Y00578D02*
Y01196D01*
X01496Y01519D02*
X01555D01*
X01496D02*
Y01551D01*
X01555*
Y01519D02*
Y01551D01*
X02122Y01519D02*
X02181D01*
X02122D02*
Y01551D01*
X02181*
Y01519D02*
Y01551D01*
X02753Y01519D02*
X02813D01*
X02753D02*
Y01551D01*
X02813*
Y01519D02*
Y01551D01*
X01391Y01263D02*
X0145D01*
X01391D02*
Y01295D01*
X0145*
Y01263D02*
Y01295D01*
X02021Y01263D02*
X0208D01*
X02021D02*
Y01295D01*
X0208*
Y01263D02*
Y01295D01*
X02653Y01263D02*
X02712D01*
X02653D02*
Y01295D01*
X02712*
Y01263D02*
Y01295D01*
X01051Y01519D02*
X0111D01*
X01051D02*
Y01551D01*
X0111*
Y01519D02*
Y01551D01*
X01653Y01519D02*
X01712D01*
X01653D02*
Y01551D01*
X01712*
Y01519D02*
Y01551D01*
X02248Y01519D02*
X02307D01*
X02248D02*
Y01551D01*
X02307*
Y01519D02*
Y01551D01*
X02893Y01519D02*
X02952D01*
X02893D02*
Y01551D01*
X02952*
Y01519D02*
Y01551D01*
X00915Y01263D02*
X00974D01*
X00915D02*
Y01295D01*
X00974*
Y01263D02*
Y01295D01*
X01551Y01263D02*
X0161D01*
X01551D02*
Y01295D01*
X0161*
Y01263D02*
Y01295D01*
X02181Y01263D02*
X0224D01*
X02181D02*
Y01295D01*
X0224*
Y01263D02*
Y01295D01*
X02811Y01263D02*
X0287D01*
X02811D02*
Y01295D01*
X0287*
Y01263D02*
Y01295D01*
X01173Y01519D02*
X01232D01*
X01173D02*
Y01551D01*
X01232*
Y01519D02*
Y01551D01*
X01811Y01519D02*
X0187D01*
X01811D02*
Y01551D01*
X0187*
Y01519D02*
Y01551D01*
X0244Y01519D02*
X025D01*
X0244D02*
Y01551D01*
X025*
Y01519D02*
Y01551D01*
X03007D02*
X03066D01*
Y01519D02*
Y01551D01*
X03007Y01519D02*
X03066D01*
X03007D02*
Y01551D01*
X01074Y01263D02*
X01133D01*
X01074D02*
Y01295D01*
X01133*
Y01263D02*
Y01295D01*
X01708Y01263D02*
X01767D01*
X01708D02*
Y01295D01*
X01767*
Y01263D02*
Y01295D01*
X02338Y01263D02*
X02397D01*
X02338D02*
Y01295D01*
X02397*
Y01263D02*
Y01295D01*
X02968Y01263D02*
X03027D01*
X02968D02*
Y01295D01*
X03027*
Y01263D02*
Y01295D01*
X-0009Y0314D02*
X00161D01*
X-0009D02*
Y03258D01*
X00161*
X00401Y03034D02*
Y03364D01*
X00188Y03034D02*
X00401D01*
X00161Y03061D02*
X00188Y03034D01*
X00161Y03061D02*
Y03337D01*
X00188Y03364*
X00401*
X-0009Y02635D02*
X00161D01*
X-0009D02*
Y02753D01*
X00161*
X00401Y02529D02*
Y02859D01*
X00188Y02529D02*
X00401D01*
X00161Y02556D02*
X00188Y02529D01*
X00161Y02556D02*
Y02832D01*
X00188Y02859*
X00401*
X03228Y03258D02*
X0348D01*
Y0314D02*
Y03258D01*
X03228Y0314D02*
X0348D01*
X02988Y03034D02*
Y03364D01*
X03201*
X03228Y03337*
Y03061D02*
Y03337D01*
X03201Y03034D02*
X03228Y03061D01*
X02988Y03034D02*
X03201D01*
X03228Y02753D02*
X0348D01*
Y02635D02*
Y02753D01*
X03228Y02635D02*
X0348D01*
X02988Y02529D02*
Y02859D01*
X03201*
X03228Y02832*
Y02556D02*
Y02832D01*
X03201Y02529D02*
X03228Y02556D01*
X02988Y02529D02*
X03201D01*
X0125Y01203D02*
X01368D01*
X0125Y01134D02*
X01368D01*
Y01203*
X0125Y01134D02*
Y01203D01*
X01879Y01134D02*
Y01203D01*
X01998Y01134D02*
Y01203D01*
X01879Y01134D02*
X01998D01*
X01879Y01203D02*
X01998D01*
X02509D02*
X02628D01*
X02509Y01134D02*
X02628D01*
Y01203*
X02509Y01134D02*
Y01203D01*
X01407D02*
X01525D01*
X01407Y01134D02*
X01525D01*
Y01203*
X01407Y01134D02*
Y01203D01*
X02037Y01134D02*
Y01203D01*
X02155Y01134D02*
Y01203D01*
X02037Y01134D02*
X02155D01*
X02037Y01203D02*
X02155D01*
X02667D02*
X02785D01*
X02667Y01134D02*
X02785D01*
Y01203*
X02667Y01134D02*
Y01203D01*
X00935Y01134D02*
Y01203D01*
X01053Y01134D02*
Y01203D01*
X00935Y01134D02*
X01053D01*
X00935Y01203D02*
X01053D01*
X01565D02*
X01683D01*
X01565Y01134D02*
X01683D01*
Y01203*
X01565Y01134D02*
Y01203D01*
X02194Y01134D02*
Y01203D01*
X02313Y01134D02*
Y01203D01*
X02194Y01134D02*
X02313D01*
X02194Y01203D02*
X02313D01*
X02824D02*
X02942D01*
X02824Y01134D02*
X02942D01*
Y01203*
X02824Y01134D02*
Y01203D01*
X01092Y01134D02*
Y01203D01*
X0121Y01134D02*
Y01203D01*
X01092Y01134D02*
X0121D01*
X01092Y01203D02*
X0121D01*
X01722D02*
X0184D01*
X01722Y01134D02*
X0184D01*
Y01203*
X01722Y01134D02*
Y01203D01*
X02352Y01134D02*
Y01203D01*
X0247Y01134D02*
Y01203D01*
X02352Y01134D02*
X0247D01*
X02352Y01203D02*
X0247D01*
X02982D02*
X031D01*
X02982Y01134D02*
X031D01*
Y01203*
X02982Y01134D02*
Y01203D01*
X02034Y02467D02*
Y0286D01*
X0164D02*
X02034D01*
X0164Y02467D02*
Y0286D01*
Y02467D02*
X02034D01*
X02185Y03368D02*
Y03652D01*
X02484*
Y03301D02*
Y03652D01*
X02185Y03301D02*
X02484D01*
X02185D02*
Y03368D01*
X02834Y02893D02*
Y02996D01*
X03043*
Y02893D02*
Y02996D01*
X02834Y02893D02*
X03043D01*
X02834D02*
Y02996D01*
X00844Y00504D02*
X01647D01*
Y00102D02*
Y00504D01*
X00844Y00102D02*
X01647D01*
X00844D02*
Y00504D01*
Y0037D02*
X00903D01*
Y00236D02*
Y0037D01*
X00844Y00236D02*
X00903D01*
X01758Y00504D02*
X02561D01*
Y00102D02*
Y00504D01*
X01758Y00102D02*
X02561D01*
X01758D02*
Y00504D01*
Y0037D02*
X01817D01*
Y00236D02*
Y0037D01*
X01758Y00236D02*
X01817D01*
X00862Y01D02*
Y01362D01*
X00059Y01D02*
X00862D01*
X00059D02*
Y01362D01*
X00862*
X01893Y03108D02*
X01925D01*
Y03167*
X01893D02*
X01925D01*
X01893Y03108D02*
Y03167D01*
X00712Y02303D02*
X0087D01*
X00712D02*
Y025D01*
X0087Y02303D02*
Y025D01*
X00712D02*
X0087D01*
X01102Y01275D02*
Y01401D01*
Y01275D02*
X01165D01*
Y01401*
X01102D02*
X01165D01*
X01208Y01421D02*
Y01472D01*
X01326*
Y01421D02*
Y01472D01*
X01208Y01421D02*
X01326D01*
X00921Y01354D02*
Y01405D01*
X01039*
Y01354D02*
Y01405D01*
X00921Y01354D02*
X01039D01*
X0124Y01559D02*
X01299D01*
X0124Y01527D02*
Y01559D01*
Y01527D02*
X01299D01*
Y01559*
X00996Y01484D02*
X01055D01*
X00996Y01452D02*
Y01484D01*
Y01452D02*
X01055D01*
Y01484*
X0267Y00141D02*
Y00259D01*
X02739Y00141D02*
Y00259D01*
X0267Y00141D02*
X02739D01*
X0267Y00259D02*
X02739D01*
X03023Y01791D02*
Y01917D01*
X0296D02*
X03023D01*
X0296Y01791D02*
Y01917D01*
Y01791D02*
X03023D01*
X02909D02*
Y01917D01*
X02846D02*
X02909D01*
X02846Y01791D02*
Y01917D01*
Y01791D02*
X02909D01*
X00771Y01661D02*
X00897D01*
X00771Y01598D02*
Y01661D01*
Y01598D02*
X00897D01*
Y01661*
X00771Y01763D02*
X00897D01*
X00771Y017D02*
Y01763D01*
Y017D02*
X00897D01*
Y01763*
X02503Y01921D02*
Y01952D01*
X02563*
Y01921D02*
Y01952D01*
X02503Y01921D02*
X02563D01*
X02401Y01846D02*
X02433D01*
Y01787D02*
Y01846D01*
X02401Y01787D02*
X02433D01*
X02401D02*
Y01846D01*
X02566Y02007D02*
Y02039D01*
X02507Y02007D02*
X02566D01*
X02507D02*
Y02039D01*
X02566*
Y01834D02*
Y01866D01*
X02507Y01834D02*
X02566D01*
X02507D02*
Y01866D01*
X02566*
X02343Y01929D02*
X02412D01*
X02343Y02047D02*
X02412D01*
X02343Y01929D02*
Y02047D01*
X02412Y01929D02*
Y02047D01*
X00192Y01655D02*
X00244D01*
Y01537D02*
Y01655D01*
X00192Y01537D02*
X00244D01*
X00192D02*
Y01655D01*
X00259Y01402D02*
Y01471D01*
X00141Y01402D02*
Y01471D01*
Y01402D02*
X00259D01*
X00141Y01471D02*
X00259D01*
X00701Y00145D02*
Y00263D01*
X0077Y00145D02*
Y00263D01*
X00701Y00145D02*
X0077D01*
X00701Y00263D02*
X0077D01*
X0194Y02086D02*
X02D01*
X0194Y02055D02*
Y02086D01*
Y02055D02*
X02D01*
Y02086*
X01992Y01822D02*
X02149D01*
X01992D02*
Y02019D01*
X02149Y01822D02*
Y02019D01*
X01992D02*
X02149D01*
X02212Y01752D02*
X02271D01*
Y01783*
X02212D02*
X02271D01*
X02212Y01752D02*
Y01783D01*
X00645Y02248D02*
X00704D01*
X00645Y02216D02*
Y02248D01*
Y02216D02*
X00704D01*
Y02248*
X0109Y02464D02*
Y02523D01*
X01059D02*
X0109D01*
X01059Y02464D02*
Y02523D01*
Y02464D02*
X0109D01*
X02618Y01878D02*
Y01937D01*
Y01878D02*
X02649D01*
Y01937*
X02618D02*
X02649D01*
X00468Y01405D02*
Y01464D01*
Y01405D02*
X005D01*
Y01464*
X00468D02*
X005D01*
X0259Y0311D02*
X02649D01*
Y03141*
X0259D02*
X02649D01*
X0259Y0311D02*
Y03141D01*
X00515Y03051D02*
Y0311D01*
X00484D02*
X00515D01*
X00484Y03051D02*
Y0311D01*
Y03051D02*
X00515D01*
X00559Y03054D02*
Y03113D01*
Y03054D02*
X0059D01*
Y03113*
X00559D02*
X0059D01*
X02909Y03289D02*
Y03348D01*
Y03289D02*
X02941D01*
Y03348*
X02909D02*
X02941D01*
X02874Y02782D02*
Y02842D01*
Y02782D02*
X02905D01*
Y02842*
X02874D02*
X02905D01*
X02728Y01307D02*
Y01366D01*
X02696D02*
X02728D01*
X02696Y01307D02*
Y01366D01*
Y01307D02*
X02728D01*
X00559Y02677D02*
Y02736D01*
Y02677D02*
X0059D01*
Y02736*
X00559D02*
X0059D01*
X00779Y03D02*
X00838D01*
Y03031*
X00779D02*
X00838D01*
X00779Y03D02*
Y03031D01*
X00972Y03125D02*
X01031D01*
X00972Y03093D02*
Y03125D01*
Y03093D02*
X01031D01*
Y03125*
X00834Y02897D02*
Y02968D01*
X00862Y02897D02*
Y02968D01*
X00728Y02897D02*
X00862D01*
X00728D02*
Y02968D01*
X00862*
X03023Y01204D02*
Y01263D01*
X02992D02*
X03023D01*
X02992Y01204D02*
Y01263D01*
Y01204D02*
X03023D01*
X02956D02*
Y01263D01*
X02925D02*
X02956D01*
X02925Y01204D02*
Y01263D01*
Y01204D02*
X02956D01*
X00503Y02082D02*
Y02185D01*
X00531Y02082D02*
Y02185D01*
X00685Y02082D02*
Y02185D01*
X00488Y02082D02*
X00685D01*
X00488D02*
Y02185D01*
X00685*
X02665Y02196D02*
Y02299D01*
X02692Y02196D02*
Y02299D01*
X02846Y02196D02*
Y02299D01*
X02649Y02196D02*
X02846D01*
X02649D02*
Y02299D01*
X02846*
X00948Y00389D02*
X01051D01*
X00948Y00362D02*
X01051D01*
X00948Y00208D02*
X01051D01*
X00948D02*
Y00405D01*
X01051*
Y00208D02*
Y00405D01*
X01862Y00389D02*
X01964D01*
X01862Y00362D02*
X01964D01*
X01862Y00208D02*
X01964D01*
X01862D02*
Y00405D01*
X01964*
Y00208D02*
Y00405D01*
X02846Y01413D02*
X02909D01*
X02846Y01346D02*
X02909D01*
X02846D02*
Y01429D01*
X02909*
Y01346D02*
Y01429D01*
X02149Y01444D02*
X02307D01*
Y01248D02*
Y01444D01*
X02149Y01248D02*
Y01444D01*
Y01248D02*
X02307D01*
X02952Y01449D02*
Y01518D01*
X0307Y01449D02*
Y01518D01*
X02952D02*
X0307D01*
X02952Y01449D02*
X0307D01*
X02515Y02815D02*
Y03066D01*
X02728Y02815D02*
Y03066D01*
X02515Y02815D02*
X02728D01*
X02515Y03066D02*
X02728D01*
X00911Y03424D02*
X01088D01*
X00911Y03164D02*
X01088D01*
Y03424*
X00911Y03164D02*
Y03424D01*
X03126Y01378D02*
X03283D01*
Y01181D02*
Y01378D01*
X03126Y01181D02*
Y01378D01*
Y01181D02*
X03283D01*
X00401Y01523D02*
Y01582D01*
Y01523D02*
X00433D01*
Y01582*
X00401D02*
X00433D01*
X00401Y01405D02*
Y01464D01*
Y01405D02*
X00433D01*
Y01464*
X00401D02*
X00433D01*
X00566Y01519D02*
Y01578D01*
X00535D02*
X00566D01*
X00535Y01519D02*
Y01578D01*
Y01519D02*
X00566D01*
X02358Y01677D02*
Y01736D01*
X02326D02*
X02358D01*
X02326Y01677D02*
Y01736D01*
Y01677D02*
X02358D01*
X005Y01519D02*
Y01578D01*
X00468D02*
X005D01*
X00468Y01519D02*
Y01578D01*
Y01519D02*
X005D01*
X02059Y01708D02*
Y01767D01*
Y01708D02*
X0209D01*
Y01767*
X02059D02*
X0209D01*
X00996Y01547D02*
X01055D01*
X00996Y01515D02*
Y01547D01*
Y01515D02*
X01055D01*
Y01547*
X00925Y01248D02*
X00984D01*
Y01279*
X00925D02*
X00984D01*
X00925Y01248D02*
Y01279D01*
X00559Y03181D02*
Y0324D01*
Y03181D02*
X0059D01*
Y0324*
X00559D02*
X0059D01*
X00515Y02925D02*
Y02984D01*
X00484D02*
X00515D01*
X00484Y02925D02*
Y02984D01*
Y02925D02*
X00515D01*
X02871Y0316D02*
Y03219D01*
X02839D02*
X02871D01*
X02839Y0316D02*
Y03219D01*
Y0316D02*
X02871D01*
X02834Y0272D02*
Y02779D01*
X02803D02*
X02834D01*
X02803Y0272D02*
Y02779D01*
Y0272D02*
X02834D01*
X01145Y01488D02*
Y01547D01*
Y01488D02*
X01177D01*
Y01547*
X01145D02*
X01177D01*
X00484Y03181D02*
Y0324D01*
Y03181D02*
X00515D01*
Y0324*
X00484D02*
X00515D01*
X0059Y02925D02*
Y02984D01*
X00559D02*
X0059D01*
X00559Y02925D02*
Y02984D01*
Y02925D02*
X0059D01*
X02941Y0316D02*
Y03219D01*
X02909D02*
X02941D01*
X02909Y0316D02*
Y03219D01*
Y0316D02*
X02941D01*
X02905Y02654D02*
Y02713D01*
X02874D02*
X02905D01*
X02874Y02654D02*
Y02713D01*
Y02654D02*
X02905D01*
X01212Y01252D02*
X01271D01*
Y01283*
X01212D02*
X01271D01*
X01212Y01252D02*
Y01283D01*
X02582Y01417D02*
X02641D01*
X02582Y01385D02*
Y01417D01*
Y01385D02*
X02641D01*
Y01417*
X02582Y01295D02*
X02641D01*
X02582Y01263D02*
Y01295D01*
Y01263D02*
X02641D01*
Y01295*
X02464Y01417D02*
X02523D01*
X02464Y01385D02*
Y01417D01*
Y01385D02*
X02523D01*
Y01417*
X02464Y01295D02*
X02523D01*
X02464Y01263D02*
Y01295D01*
Y01263D02*
X02523D01*
Y01295*
X00695Y03222D02*
Y03282D01*
X00664D02*
X00695D01*
X00664Y03222D02*
Y03282D01*
Y03222D02*
X00695D01*
X00765D02*
Y03282D01*
X00734D02*
X00765D01*
X00734Y03222D02*
Y03282D01*
Y03222D02*
X00765D01*
X0196Y01263D02*
X02019D01*
Y01295*
X0196D02*
X02019D01*
X0196Y01263D02*
Y01295D01*
X01964Y01362D02*
X02023D01*
X01964Y0133D02*
Y01362D01*
Y0133D02*
X02023D01*
Y01362*
X01287Y03212D02*
Y03271D01*
Y03212D02*
X01318D01*
Y03271*
X01287D02*
X01318D01*
X01212Y03212D02*
Y03271D01*
Y03212D02*
X01244D01*
Y03271*
X01212D02*
X01244D01*
X01933Y0344D02*
X01992D01*
Y03472*
X01933D02*
X01992D01*
X01933Y0344D02*
Y03472D01*
X00689Y00452D02*
X00748D01*
X00689Y00421D02*
Y00452D01*
Y00421D02*
X00748D01*
Y00452*
X02677Y00457D02*
X02736D01*
X02677Y00425D02*
Y00457D01*
Y00425D02*
X02736D01*
Y00457*
X00685Y00326D02*
X00744D01*
Y00358*
X00685D02*
X00744D01*
X00685Y00326D02*
Y00358D01*
X02673Y00325D02*
X02732D01*
Y00357*
X02673D02*
X02732D01*
X02673Y00325D02*
Y00357D01*
X02968Y01346D02*
X03027D01*
X02968Y01315D02*
Y01346D01*
Y01315D02*
X03027D01*
Y01346*
X00519Y03421D02*
X00578D01*
X00519Y03389D02*
Y03421D01*
Y03389D02*
X00578D01*
Y03421*
X00645D02*
X00704D01*
X00645Y03389D02*
Y03421D01*
Y03389D02*
X00704D01*
Y03421*
X02889Y01204D02*
Y01263D01*
X02858D02*
X02889D01*
X02858Y01204D02*
Y01263D01*
Y01204D02*
X02889D01*
X02673Y0235D02*
X0283D01*
X02673D02*
Y02547D01*
X0283Y0235D02*
Y02547D01*
X02673D02*
X0283D01*
X00949Y0122D02*
X01018D01*
X00949Y01102D02*
X01018D01*
Y0122*
X00949Y01102D02*
Y0122D01*
X01193Y01218D02*
X01262D01*
X01193Y011D02*
X01262D01*
Y01218*
X01193Y011D02*
Y01218D01*
X01779Y02299D02*
X01811D01*
Y0224D02*
Y02299D01*
X01779Y0224D02*
X01811D01*
X01779D02*
Y02299D01*
X02023Y02287D02*
Y02346D01*
X01992D02*
X02023D01*
X01992Y02287D02*
Y02346D01*
Y02287D02*
X02023D01*
X01275Y03299D02*
X01883D01*
X01275D02*
Y03401D01*
X01883*
X00718Y0269D02*
X00824D01*
X00718Y02876D02*
X00824D01*
X00718Y0269D02*
Y02876D01*
X00824Y0269D02*
Y02876D01*
X0134Y02929D02*
Y0296D01*
X01399*
Y02929D02*
Y0296D01*
X0134Y02929D02*
X01399D01*
X01913Y01283D02*
Y01342D01*
X01881D02*
X01913D01*
X01881Y01283D02*
Y01342D01*
Y01283D02*
X01913D01*
X00708Y02523D02*
Y02626D01*
X00736Y02523D02*
Y02626D01*
X00889Y02523D02*
Y02626D01*
X00692Y02523D02*
X00889D01*
X00692D02*
Y02626D01*
X00889*
X02815Y01661D02*
Y02141D01*
Y01661D02*
X03295D01*
Y02141*
X02815D02*
X03295D01*
X0285Y01484D02*
X02909D01*
Y01452D02*
Y01484D01*
X0285Y01452D02*
X02909D01*
X0285D02*
Y01484D01*
M02*