%FSTAX23Y23*%
%MOIN*%
%SFA1B1*%

%IPPOS*%
%ADD75C,0.078700*%
%ADD76R,0.130300X0.228700*%
%ADD77R,0.039800X0.043700*%
%ADD78R,0.031900X0.043700*%
%ADD79R,0.043700X0.031900*%
%ADD80R,0.079100X0.059400*%
%ADD81R,0.035800X0.055500*%
%ADD82R,0.031900X0.055500*%
%ADD83R,0.090900X0.031900*%
%ADD84R,0.055500X0.055500*%
%ADD85R,0.087000X0.024000*%
%ADD86R,0.028000X0.047600*%
%ADD87R,0.018900X0.063400*%
%ADD88R,0.063400X0.018900*%
%ADD89R,0.028000X0.087000*%
%ADD90R,0.106700X0.094900*%
%ADD91R,0.228700X0.130300*%
%ADD92C,0.087000*%
%ADD93C,0.090900*%
%ADD94C,0.079100*%
%ADD95C,0.114600*%
%ADD96O,0.094900X0.106700*%
%ADD97O,0.118500X0.205100*%
%ADD98O,0.205100X0.118500*%
%ADD99O,0.087000X0.102800*%
%ADD100C,0.081100*%
%ADD101C,0.106700*%
%ADD102C,0.126400*%
%ADD103C,0.043700*%
%LNrelaytester-1*%
%LPD*%
G54D75*
X00098Y03444D03*
X0307Y00078D03*
X00315D03*
G54D76*
X00929Y02885D03*
X00519D03*
X00929Y02374D03*
X00519D03*
G54D77*
X0134Y01413D03*
X01265D03*
X01303Y01334D03*
X03076Y01413D03*
X03002D03*
X03039Y01334D03*
X02446Y01413D03*
X02372D03*
X02409Y01334D03*
X01816Y01413D03*
X01742D03*
X01779Y01334D03*
X01179Y01413D03*
X01104D03*
X01141Y01334D03*
X02919Y01413D03*
X02844D03*
X02881Y01334D03*
X02289Y01413D03*
X02214D03*
X02252Y01334D03*
X01659Y01413D03*
X01584D03*
X01622Y01334D03*
X01017Y01413D03*
X00942D03*
X0098Y01334D03*
X02761Y01413D03*
X02687D03*
X02724Y01334D03*
X02129Y01413D03*
X02055D03*
X02092Y01334D03*
X01502Y01413D03*
X01427D03*
X01464Y01334D03*
X02604Y01413D03*
X02529D03*
X02566Y01334D03*
X01974Y01413D03*
X01899D03*
X01937Y01334D03*
G54D78*
X03009Y01468D03*
X03068D03*
X02379D03*
X02439D03*
X0175D03*
X01809D03*
X01112D03*
X01171D03*
X02222D03*
X02281D03*
X01592D03*
X01651D03*
X00992D03*
X01051D03*
X02692D03*
X02752D03*
X02061D03*
X0212D03*
X01435D03*
X01494D03*
X02537D03*
X02596D03*
X01907D03*
X01966D03*
X01273D03*
X01332D03*
X02742Y02645D03*
X02801D03*
X02037Y03063D03*
X01978D03*
X01952Y02293D03*
X02012D03*
X01726Y03039D03*
X01667D03*
X02704Y03474D03*
X02645D03*
X02181Y02574D03*
X0224D03*
X02181Y02639D03*
X0224D03*
X00866Y03165D03*
X00807D03*
X01391Y01535D03*
X01332D03*
X02025D03*
X01966D03*
X02655D03*
X02596D03*
X01289Y01279D03*
X0123D03*
X01923D03*
X01864D03*
X02553D03*
X02494D03*
X01553Y01535D03*
X01494D03*
X02179D03*
X0212D03*
X02811D03*
X02752D03*
X01448Y01279D03*
X01389D03*
X02078D03*
X02019D03*
X0271D03*
X02651D03*
X01108Y01535D03*
X01049D03*
X0171D03*
X01651D03*
X02305D03*
X02246D03*
X0295D03*
X02891D03*
X00972Y01279D03*
X00913D03*
X01608D03*
X01549D03*
X02238D03*
X02179D03*
X02868D03*
X02809D03*
X0123Y01535D03*
X01171D03*
X01868D03*
X01809D03*
X02498D03*
X02439D03*
X03009D03*
X03068D03*
X01131Y01279D03*
X01072D03*
X01765D03*
X01706D03*
X02395D03*
X02336D03*
X03025D03*
X02966D03*
X02852Y01468D03*
X02911D03*
G54D79*
X02649Y02513D03*
Y02572D03*
X01515Y02535D03*
Y02476D03*
X02263Y02746D03*
Y02805D03*
X00956Y03328D03*
Y03387D03*
X02334Y02746D03*
Y02805D03*
X02889Y02781D03*
Y0284D03*
X02397Y03197D03*
Y03138D03*
X02327Y03197D03*
Y03138D03*
X02257Y03197D03*
Y03138D03*
X02173Y03139D03*
Y03198D03*
X02799Y02398D03*
Y02339D03*
X02728Y02398D03*
Y02339D03*
X01881Y02348D03*
Y02289D03*
X00956Y03269D03*
Y0321D03*
X01909Y03169D03*
Y0311D03*
G54D80*
X02181Y02724D03*
Y02842D03*
G54D81*
X02801Y02476D03*
X02726D03*
G54D82*
X02726Y0257D03*
X02763D03*
X02801D03*
G54D83*
X00661Y03382D03*
Y03332D03*
Y03282D03*
Y03232D03*
X0085Y03382D03*
Y03332D03*
Y03282D03*
Y03232D03*
G54D84*
X02643Y03564D03*
X02726D03*
G54D85*
X02326Y02653D03*
Y02606D03*
Y02559D03*
G54D86*
X01346Y0122D03*
X01309D03*
X01271D03*
Y01118D03*
X01346D03*
X01309D03*
X01939D03*
X01976D03*
X01901D03*
Y0122D03*
X01939D03*
X01976D03*
X02606D03*
X02568D03*
X02531D03*
Y01118D03*
X02606D03*
X02568D03*
X01503Y0122D03*
X01466D03*
X01429D03*
Y01118D03*
X01503D03*
X01466D03*
X02096D03*
X02133D03*
X02059D03*
Y0122D03*
X02096D03*
X02133D03*
X02763D03*
X02726D03*
X02689D03*
Y01118D03*
X02763D03*
X02726D03*
X00994D03*
X01031D03*
X00956D03*
Y0122D03*
X00994D03*
X01031D03*
X01661D03*
X01624D03*
X01586D03*
Y01118D03*
X01661D03*
X01624D03*
X02253D03*
X02291D03*
X02216D03*
Y0122D03*
X02253D03*
X02291D03*
X02921D03*
X02883D03*
X02846D03*
Y01118D03*
X02921D03*
X02883D03*
X01151D03*
X01189D03*
X01114D03*
Y0122D03*
X01151D03*
X01189D03*
X01818D03*
X01781D03*
X01744D03*
Y01118D03*
X01818D03*
X01781D03*
X02411D03*
X02448D03*
X02374D03*
Y0122D03*
X02411D03*
X02448D03*
X03078D03*
X03041D03*
X03003D03*
Y01118D03*
X03078D03*
X03041D03*
G54D87*
X01985Y02437D03*
X01965D03*
X01945D03*
X01926D03*
X01906D03*
X01886D03*
X01867D03*
X01847D03*
X01827D03*
X01807D03*
X01788D03*
X01768D03*
X01748D03*
X01729D03*
X01709D03*
X01689D03*
Y0289D03*
X01709D03*
X01729D03*
X01748D03*
X01768D03*
X01788D03*
X01807D03*
X01827D03*
X01847D03*
X01867D03*
X01886D03*
X01906D03*
X01926D03*
X01945D03*
X01965D03*
X01985D03*
G54D88*
X01611Y02516D03*
Y02536D03*
Y02555D03*
Y02575D03*
Y02595D03*
Y02614D03*
Y02634D03*
Y02654D03*
Y02673D03*
Y02693D03*
Y02713D03*
Y02732D03*
Y02752D03*
Y02772D03*
Y02791D03*
Y02811D03*
X02063D03*
Y02791D03*
Y02772D03*
Y02752D03*
Y02732D03*
Y02713D03*
Y02693D03*
Y02673D03*
Y02654D03*
Y02634D03*
Y02614D03*
Y02595D03*
Y02575D03*
Y02555D03*
Y02536D03*
Y02516D03*
G54D89*
X02272Y03309D03*
X02303D03*
X02335D03*
X02366D03*
X02398D03*
G54D90*
X025Y03321D03*
X02169D03*
X025Y0353D03*
X02169D03*
G54D91*
X03055Y01696D03*
Y02106D03*
G54D92*
X0033Y01515D03*
X00921D03*
X00433Y03547D03*
X00533D03*
X00633D03*
X00733D03*
X00833D03*
X00933D03*
X01033D03*
X01133D03*
X01233D03*
X01333D03*
X01433D03*
X01533D03*
X01633D03*
X01733D03*
X01833D03*
X01933D03*
X0024Y03288D03*
Y0311D03*
Y02783D03*
Y02605D03*
X0315Y0311D03*
Y03288D03*
Y02605D03*
Y02783D03*
G54D93*
X00551Y00476D03*
Y00376D03*
Y00276D03*
Y00176D03*
X00442Y00841D03*
X00342D03*
X00242D03*
X00142D03*
X00542D03*
X00642D03*
X00742D03*
X00842D03*
X00942D03*
X01042D03*
X01142D03*
X01242D03*
X01342D03*
X01442D03*
X01542D03*
X01642D03*
X01742D03*
X01842D03*
X01942D03*
X02042D03*
X02142D03*
X02242D03*
X02342D03*
X02442D03*
X02542D03*
X02642D03*
X02742D03*
X02842D03*
X02942D03*
X03042D03*
X03142D03*
X03242D03*
X00742Y00606D03*
X00642D03*
X00542D03*
X00442D03*
X00842D03*
X00942D03*
X01042D03*
X01142D03*
X01242D03*
X01342D03*
X01442D03*
X01542D03*
X01642D03*
X01742D03*
X01842D03*
X01942D03*
X02042D03*
X02142D03*
X02242D03*
X02342D03*
X02442D03*
X02542D03*
X02642D03*
X02742D03*
X02842D03*
X02942D03*
X01331Y0335D03*
X01431D03*
X01531D03*
X01631D03*
X01731D03*
X01831D03*
G54D94*
X01362Y01885D03*
X01165D03*
X00933Y01889D03*
X00736D03*
X01153Y02432D03*
Y02552D03*
X02888Y02944D03*
X02988D03*
G54D95*
X03189Y00401D03*
X02988D03*
X00395D03*
X00194D03*
G54D96*
X00338Y03337D03*
Y03061D03*
Y02832D03*
Y02556D03*
X03051Y03061D03*
Y03337D03*
Y02556D03*
Y02832D03*
G54D97*
X00307Y01925D03*
X00551D03*
G54D98*
X00437Y01728D03*
G54D99*
X00897Y00153D03*
X01197D03*
X01297D03*
X01397D03*
X01597D03*
Y00453D03*
X01397D03*
X01297D03*
X01197D03*
X00897D03*
X01811Y00153D03*
X02111D03*
X02211D03*
X02311D03*
X02511D03*
Y00453D03*
X02311D03*
X02211D03*
X02111D03*
X01811D03*
G54D100*
X0026Y01235D03*
Y01135D03*
X0066Y01235D03*
Y01135D03*
X0046D03*
Y01235D03*
X0056Y01135D03*
Y01235D03*
X0036D03*
Y01135D03*
G54D101*
X02736Y02031D03*
Y01795D03*
G54D102*
X03177Y03555D03*
X00208D03*
Y02318D03*
X03177D03*
G54D103*
X02403Y034D03*
X02266D03*
M02*