%FSTAX23Y23*%
%MOIN*%
%SFA1B1*%

%IPPOS*%
%ADD121C,0.003900*%
%ADD122C,0.002000*%
%LNrelaytester-1*%
%LPD*%
G54D121*
X02018Y02502D02*
D01*
X02018Y02503*
X02018Y02505*
X02018Y02506*
X02017Y02507*
X02017Y02509*
X02016Y0251*
X02016Y02511*
X02015Y02512*
X02014Y02514*
X02013Y02515*
X02012Y02516*
X02011Y02517*
X0201Y02518*
X02009Y02518*
X02008Y02519*
X02007Y0252*
X02006Y0252*
X02004Y02521*
X02003Y02521*
X02002Y02521*
X02Y02522*
X01999Y02522*
X01998*
X01996Y02522*
X01995Y02521*
X01994Y02521*
X01992Y02521*
X01991Y0252*
X0199Y0252*
X01988Y02519*
X01987Y02518*
X01986Y02518*
X01985Y02517*
X01984Y02516*
X01983Y02515*
X01982Y02514*
X01982Y02512*
X01981Y02511*
X0198Y0251*
X0198Y02509*
X01979Y02507*
X01979Y02506*
X01979Y02505*
X01979Y02503*
X01979Y02502*
X01979Y02501*
X01979Y02499*
X01979Y02498*
X01979Y02497*
X0198Y02495*
X0198Y02494*
X01981Y02493*
X01982Y02492*
X01982Y0249*
X01983Y02489*
X01984Y02488*
X01985Y02487*
X01986Y02486*
X01987Y02486*
X01988Y02485*
X0199Y02484*
X01991Y02484*
X01992Y02483*
X01994Y02483*
X01995Y02483*
X01996Y02482*
X01998Y02482*
X01999*
X02Y02482*
X02002Y02483*
X02003Y02483*
X02004Y02483*
X02006Y02484*
X02007Y02484*
X02008Y02485*
X02009Y02486*
X0201Y02486*
X02011Y02487*
X02012Y02488*
X02013Y02489*
X02014Y0249*
X02015Y02492*
X02016Y02493*
X02016Y02494*
X02017Y02495*
X02017Y02497*
X02018Y02498*
X02018Y02499*
X02018Y02501*
X02018Y02502*
X00626Y01496D02*
Y01535D01*
X00606Y01515D02*
X00645D01*
X00704Y02885D02*
X00744D01*
X00724Y02866D02*
Y02905D01*
X01303Y01354D02*
Y01393D01*
X01283Y01374D02*
X01322D01*
X03039Y01354D02*
Y01393D01*
X03019Y01374D02*
X03059D01*
X02409Y01354D02*
Y01393D01*
X02389Y01374D02*
X02429D01*
X01779Y01354D02*
Y01393D01*
X01759Y01374D02*
X01799D01*
X01141Y01354D02*
Y01393D01*
X01122Y01374D02*
X01161D01*
X02881Y01354D02*
Y01393D01*
X02862Y01374D02*
X02901D01*
X02252Y01354D02*
Y01393D01*
X02232Y01374D02*
X02271D01*
X01622Y01354D02*
Y01393D01*
X01602Y01374D02*
X01641D01*
X0098Y01354D02*
Y01393D01*
X0096Y01374D02*
X01D01*
X02724Y01354D02*
Y01393D01*
X02704Y01374D02*
X02744D01*
X02092Y01354D02*
Y01393D01*
X02072Y01374D02*
X02112D01*
X01464Y01354D02*
Y01393D01*
X01444Y01374D02*
X01484D01*
X02566Y01354D02*
Y01393D01*
X02547Y01374D02*
X02586D01*
X01937Y01354D02*
Y01393D01*
X01917Y01374D02*
X01956D01*
X03039Y01448D02*
Y01488D01*
X03019Y01468D02*
X03059D01*
X02409Y01448D02*
Y01488D01*
X02389Y01468D02*
X02429D01*
X01779Y01448D02*
Y01488D01*
X01759Y01468D02*
X01799D01*
X01141Y01448D02*
Y01488D01*
X01122Y01468D02*
X01161D01*
X02252Y01448D02*
Y01488D01*
X02232Y01468D02*
X02271D01*
X01622Y01448D02*
Y01488D01*
X01602Y01468D02*
X01641D01*
X01021Y01448D02*
Y01488D01*
X01002Y01468D02*
X01041D01*
X02722Y01448D02*
Y01488D01*
X02702Y01468D02*
X02742D01*
X0209Y01448D02*
Y01488D01*
X0207Y01468D02*
X0211D01*
X01464Y01448D02*
Y01488D01*
X01444Y01468D02*
X01484D01*
X02566Y01448D02*
Y01488D01*
X02547Y01468D02*
X02586D01*
X01937Y01448D02*
Y01488D01*
X01917Y01468D02*
X01956D01*
X01303Y01448D02*
Y01488D01*
X01283Y01468D02*
X01322D01*
X00551Y00307D02*
Y00346D01*
X00531Y00326D02*
X0057D01*
X02649Y02523D02*
Y02563D01*
X02629Y02543D02*
X02669D01*
X02771Y02626D02*
Y02665D01*
X02752Y02645D02*
X02791D01*
X02007Y03043D02*
Y03082D01*
X01988Y03063D02*
X02027D01*
X01496Y02505D02*
X01535D01*
X01515Y02486D02*
Y02525D01*
X01982Y02274D02*
Y02313D01*
X01962Y02293D02*
X02002D01*
X01696Y03019D02*
Y03059D01*
X01677Y03039D02*
X01716D01*
X02244Y02775D02*
X02283D01*
X02263Y02755D02*
Y02795D01*
X01244Y01885D02*
X01283D01*
X01263Y01866D02*
Y01905D01*
X02161Y02783D02*
X022D01*
X02181Y02763D02*
Y02803D01*
X00815Y01889D02*
X00854D01*
X00834Y0187D02*
Y01909D01*
X01153Y02472D02*
Y02511D01*
X01133Y02492D02*
X01173D01*
X00937Y03358D02*
X00976D01*
X00956Y03338D02*
Y03378D01*
X02744Y02523D02*
X02783D01*
X02763Y02503D02*
Y02543D01*
X00755Y03287D02*
Y03326D01*
X00736Y03307D02*
X00775D01*
X02334Y02755D02*
Y02795D01*
X02315Y02775D02*
X02354D01*
X00704Y02374D02*
X00744D01*
X00724Y02354D02*
Y02393D01*
X01673Y02937D02*
X01712D01*
X01692Y02917D02*
Y02956D01*
X02665Y03564D02*
X02704D01*
X02685Y03544D02*
Y03584D01*
X02326Y02586D02*
Y02626D01*
X02307Y02606D02*
X02346D01*
X02675Y03454D02*
Y03494D01*
X02655Y03474D02*
X02694D01*
X0287Y02811D02*
X02909D01*
X02889Y02791D02*
Y0283D01*
X02377Y03168D02*
X02416D01*
X02397Y03148D02*
Y03187D01*
X02307Y03168D02*
X02346D01*
X02327Y03148D02*
Y03187D01*
X02237Y03168D02*
X02276D01*
X02257Y03148D02*
Y03187D01*
X02153Y03169D02*
X02192D01*
X02173Y03149D02*
Y03189D01*
X02779Y02368D02*
X02818D01*
X02799Y02348D02*
Y02388D01*
X02708Y02368D02*
X02748D01*
X02728Y02348D02*
Y02388D01*
X01862Y02318D02*
X01901D01*
X01881Y02299D02*
Y02338D01*
X02211Y02554D02*
Y02594D01*
X02191Y02574D02*
X0223D01*
X02211Y02619D02*
Y02659D01*
X02191Y02639D02*
X0223D01*
X00937Y0324D02*
X00976D01*
X00956Y0322D02*
Y03259D01*
X00836Y03145D02*
Y03185D01*
X00816Y03165D02*
X00856D01*
X01362Y01515D02*
Y01555D01*
X01342Y01535D02*
X01381D01*
X01996Y01515D02*
Y01555D01*
X01976Y01535D02*
X02015D01*
X02626Y01515D02*
Y01555D01*
X02606Y01535D02*
X02645D01*
X01259Y01259D02*
Y01299D01*
X0124Y01279D02*
X01279D01*
X01893Y01259D02*
Y01299D01*
X01874Y01279D02*
X01913D01*
X02523Y01259D02*
Y01299D01*
X02503Y01279D02*
X02543D01*
X03088Y00381D02*
Y00421D01*
X03068Y00401D02*
X03108D01*
X00295Y00381D02*
Y00421D01*
X00275Y00401D02*
X00315D01*
X01523Y01515D02*
Y01555D01*
X01503Y01535D02*
X01543D01*
X02149Y01515D02*
Y01555D01*
X02129Y01535D02*
X02169D01*
X02781Y01515D02*
Y01555D01*
X02761Y01535D02*
X02801D01*
X01419Y01259D02*
Y01299D01*
X01399Y01279D02*
X01439D01*
X02049Y01259D02*
Y01299D01*
X02029Y01279D02*
X02068D01*
X02681Y01259D02*
Y01299D01*
X02661Y01279D02*
X027D01*
X01078Y01515D02*
Y01555D01*
X01059Y01535D02*
X01098D01*
X01681Y01515D02*
Y01555D01*
X01661Y01535D02*
X017D01*
X02275Y01515D02*
Y01555D01*
X02255Y01535D02*
X02295D01*
X02921Y01515D02*
Y01555D01*
X02901Y01535D02*
X0294D01*
X00942Y01259D02*
Y01299D01*
X00923Y01279D02*
X00962D01*
X01578Y01259D02*
Y01299D01*
X01559Y01279D02*
X01598D01*
X02208Y01259D02*
Y01299D01*
X02189Y01279D02*
X02228D01*
X02838Y01259D02*
Y01299D01*
X02818Y01279D02*
X02858D01*
X012Y01515D02*
Y01555D01*
X01181Y01535D02*
X0122D01*
X01838Y01515D02*
Y01555D01*
X01818Y01535D02*
X01858D01*
X02468Y01515D02*
Y01555D01*
X02448Y01535D02*
X02488D01*
X03039Y01515D02*
Y01555D01*
X03019Y01535D02*
X03059D01*
X01102Y01259D02*
Y01299D01*
X01082Y01279D02*
X01122D01*
X01736Y01259D02*
Y01299D01*
X01716Y01279D02*
X01755D01*
X02366Y01259D02*
Y01299D01*
X02346Y01279D02*
X02385D01*
X02996Y01259D02*
Y01299D01*
X02976Y01279D02*
X03015D01*
X0024Y03179D02*
Y03219D01*
X0022Y03199D02*
X00259D01*
X0024Y02674D02*
Y02714D01*
X0022Y02694D02*
X00259D01*
X0315Y03179D02*
Y03219D01*
X0313Y03199D02*
X03169D01*
X0315Y02674D02*
Y02714D01*
X0313Y02694D02*
X03169D01*
X01309Y01149D02*
Y01189D01*
X01289Y01169D02*
X01328D01*
X01919D02*
X01958D01*
X01939Y01149D02*
Y01189D01*
X02568Y01149D02*
Y01189D01*
X02549Y01169D02*
X02588D01*
X01466Y01149D02*
Y01189D01*
X01446Y01169D02*
X01486D01*
X02076D02*
X02116D01*
X02096Y01149D02*
Y01189D01*
X02726Y01149D02*
Y01189D01*
X02706Y01169D02*
X02746D01*
X00974D02*
X01013D01*
X00994Y01149D02*
Y01189D01*
X01624Y01149D02*
Y01189D01*
X01604Y01169D02*
X01643D01*
X02234D02*
X02273D01*
X02253Y01149D02*
Y01189D01*
X02883Y01149D02*
Y01189D01*
X02864Y01169D02*
X02903D01*
X01131D02*
X01171D01*
X01151Y01149D02*
Y01189D01*
X01781Y01149D02*
Y01189D01*
X01761Y01169D02*
X01801D01*
X02391D02*
X02431D01*
X02411Y01149D02*
Y01189D01*
X03041Y01149D02*
Y01189D01*
X03021Y01169D02*
X03061D01*
X01837Y02644D02*
Y02683D01*
X01817Y02663D02*
X01857D01*
X02335Y03439D02*
Y03479D01*
X02315Y03459D02*
X02354D01*
X02917Y02944D02*
X02956D01*
X02938Y02925D02*
Y02964D01*
X00307Y01905D02*
Y01944D01*
X00287Y01925D02*
X00326D01*
X01297Y00283D02*
Y00323D01*
X01277Y00303D02*
X01316D01*
X02211Y00283D02*
Y00323D01*
X02191Y00303D02*
X0223D01*
X0046Y01165D02*
Y01204D01*
X0044Y01185D02*
X0048D01*
X00142Y00822D02*
Y00861D01*
X00122Y00841D02*
X00161D01*
X00442Y00587D02*
Y00626D01*
X00422Y00606D02*
X00461D01*
X01909Y0312D02*
Y03159D01*
X01889Y03139D02*
X01929D01*
X02716Y01913D02*
X02755D01*
X02736Y01893D02*
Y01933D01*
X00791Y02381D02*
Y02421D01*
X00771Y02401D02*
X00811D01*
X01114Y01338D02*
X01153D01*
X01133Y01318D02*
Y01358D01*
X01082Y01437D02*
X01185D01*
Y0124D02*
Y01437D01*
X01082Y0124D02*
X01185D01*
X01082D02*
Y01437D01*
X01267Y01425D02*
Y01464D01*
X01248Y01444D02*
X01287D01*
X0098Y01358D02*
Y01397D01*
X0096Y01378D02*
X01D01*
X01267Y01523D02*
Y01563D01*
X01248Y01543D02*
X01287D01*
X01023Y01448D02*
Y01488D01*
X01003Y01468D02*
X01043D01*
X02685Y002D02*
X02724D01*
X02704Y00181D02*
Y0022D01*
X02972Y01854D02*
X03011D01*
X02992Y01834D02*
Y01874D01*
X0294Y01755D02*
X03043D01*
X0294D02*
Y01952D01*
X03043*
Y01755D02*
Y01952D01*
X02858Y01854D02*
X02897D01*
X02878Y01834D02*
Y01874D01*
X02826Y01755D02*
X02929D01*
X02826D02*
Y01952D01*
X02929*
Y01755D02*
Y01952D01*
X00834Y0161D02*
Y01649D01*
X00815Y01629D02*
X00854D01*
X00933Y01578D02*
Y01681D01*
X00736Y01578D02*
X00933D01*
X00736D02*
Y01681D01*
X00933*
X00834Y01712D02*
Y01752D01*
X00815Y01732D02*
X00854D01*
X00933Y01681D02*
Y01783D01*
X00736Y01681D02*
X00933D01*
X00736D02*
Y01783D01*
X00933*
X02515Y01937D02*
X02555D01*
X02535Y01917D02*
Y01956D01*
X02417Y01795D02*
Y01834D01*
X02397Y01815D02*
X02437D01*
X02515Y02023D02*
X02555D01*
X02535Y02003D02*
Y02043D01*
X02515Y0185D02*
X02555D01*
X02535Y0183D02*
Y0187D01*
X02378Y01968D02*
Y02007D01*
X02358Y01988D02*
X02397D01*
X00196Y01596D02*
X00236D01*
X00216Y01576D02*
Y01616D01*
X00181Y01437D02*
X0022D01*
X002Y01417D02*
Y01456D01*
X00716Y00204D02*
X00755D01*
X00736Y00185D02*
Y00224D01*
X01968Y02051D02*
Y0209D01*
X01948Y0207D02*
X01988D01*
X02051Y01921D02*
X0209D01*
X0207Y01901D02*
Y0194D01*
X02244Y01748D02*
Y01787D01*
X02224Y01767D02*
X02263D01*
X00673Y02212D02*
Y02252D01*
X00653Y02232D02*
X00692D01*
X01055Y02496D02*
X01094D01*
X01074Y02476D02*
Y02515D01*
X02614Y01905D02*
X02653D01*
X02633Y01885D02*
Y01925D01*
X00464Y01433D02*
X00503D01*
X00484Y01413D02*
Y01452D01*
X02622Y03106D02*
Y03145D01*
X02602Y03126D02*
X02641D01*
X0048Y03082D02*
X00519D01*
X005Y03063D02*
Y03102D01*
X00555Y03082D02*
X00594D01*
X00574Y03062D02*
Y03101D01*
X02905Y03317D02*
X02945D01*
X02925Y03297D02*
Y03337D01*
X0287Y0281D02*
X02909D01*
X0289Y0279D02*
Y0283D01*
X02692Y01338D02*
X02732D01*
X02712Y01318D02*
Y01358D01*
X00555Y02704D02*
X00594D01*
X00574Y02685D02*
Y02724D01*
X00811Y02996D02*
Y03035D01*
X00791Y03015D02*
X0083D01*
X01Y03089D02*
Y03129D01*
X0098Y03109D02*
X01019D01*
X00795Y02913D02*
Y02952D01*
X00775Y02933D02*
X00815D01*
X02988Y01236D02*
X03027D01*
X03007Y01216D02*
Y01255D01*
X02921Y01236D02*
X0296D01*
X0294Y01216D02*
Y01255D01*
X00566Y02133D02*
X00606D01*
X00586Y02114D02*
Y02153D01*
X02728Y02248D02*
X02767D01*
X02748Y02228D02*
Y02267D01*
X01Y00287D02*
Y00326D01*
X0098Y00307D02*
X01019D01*
X01913Y00287D02*
Y00326D01*
X01893Y00307D02*
X01933D01*
X02878Y01366D02*
Y01405D01*
X02858Y01385D02*
X02897D01*
X02228Y01326D02*
Y01366D01*
X02208Y01346D02*
X02248D01*
X02992Y01484D02*
X03031D01*
X03011Y01464D02*
Y01503D01*
X02602Y0294D02*
X02641D01*
X02622Y02921D02*
Y0296D01*
X01Y03274D02*
Y03314D01*
X0098Y03294D02*
X01019D01*
X03204Y01259D02*
Y01299D01*
X03185Y01279D02*
X03224D01*
X00397Y01551D02*
X00437D01*
X00417Y01531D02*
Y0157D01*
X00397Y01433D02*
X00437D01*
X00417Y01413D02*
Y01452D01*
X00531Y01551D02*
X0057D01*
X00551Y01531D02*
Y0157D01*
X02322Y01708D02*
X02362D01*
X02342Y01689D02*
Y01728D01*
X00464Y01551D02*
X00503D01*
X00484Y01531D02*
Y0157D01*
X02055Y01736D02*
X02094D01*
X02074Y01716D02*
Y01755D01*
X01023Y01511D02*
Y01551D01*
X01003Y01531D02*
X01043D01*
X00956Y01244D02*
Y01283D01*
X00937Y01263D02*
X00976D01*
X00555Y03208D02*
X00594D01*
X00574Y03189D02*
Y03228D01*
X0048Y02956D02*
X00519D01*
X005Y02937D02*
Y02976D01*
X02835Y03192D02*
X02875D01*
X02855Y03172D02*
Y03212D01*
X02799Y02752D02*
X02838D01*
X02818Y02732D02*
Y02771D01*
X01141Y01515D02*
X01181D01*
X01161Y01496D02*
Y01535D01*
X0048Y03208D02*
X00519D01*
X005Y03189D02*
Y03228D01*
X00555Y02957D02*
X00594D01*
X00574Y02937D02*
Y02976D01*
X02905Y03192D02*
X02945D01*
X02925Y03172D02*
Y03212D01*
X0287Y02685D02*
X02909D01*
X0289Y02665D02*
Y02705D01*
X01244Y01248D02*
Y01287D01*
X01224Y01267D02*
X01263D01*
X0261Y01381D02*
Y01421D01*
X0259Y01401D02*
X02629D01*
X0261Y01259D02*
Y01299D01*
X0259Y01279D02*
X02629D01*
X02492Y01381D02*
Y01421D01*
X02472Y01401D02*
X02511D01*
X02492Y01259D02*
Y01299D01*
X02472Y01279D02*
X02511D01*
X0066Y03254D02*
X00699D01*
X0068Y03234D02*
Y03274D01*
X0073Y03254D02*
X00769D01*
X0075Y03234D02*
Y03274D01*
X01992Y01259D02*
Y01299D01*
X01972Y01279D02*
X02011D01*
X01992Y01326D02*
Y01366D01*
X01972Y01346D02*
X02011D01*
X01283Y0324D02*
X01322D01*
X01303Y0322D02*
Y03259D01*
X01208Y0324D02*
X01248D01*
X01228Y0322D02*
Y03259D01*
X01964Y03437D02*
Y03476D01*
X01944Y03456D02*
X01984D01*
X00716Y00417D02*
Y00456D01*
X00696Y00437D02*
X00736D01*
X02704Y00421D02*
Y00461D01*
X02685Y00441D02*
X02724D01*
X00716Y00322D02*
Y00362D01*
X00696Y00342D02*
X00736D01*
X02704Y00321D02*
Y00361D01*
X02685Y00341D02*
X02724D01*
X02996Y01311D02*
Y0135D01*
X02976Y0133D02*
X03015D01*
X00547Y03385D02*
Y03425D01*
X00527Y03405D02*
X00566D01*
X00673Y03385D02*
Y03425D01*
X00653Y03405D02*
X00692D01*
X02854Y01236D02*
X02893D01*
X02874Y01216D02*
Y01255D01*
X02752Y02429D02*
Y02468D01*
X02732Y02448D02*
X02771D01*
X00984Y01141D02*
Y01181D01*
X00964Y01161D02*
X01003D01*
X01228Y01139D02*
Y01179D01*
X01208Y01159D02*
X01248D01*
X01795Y02248D02*
Y02287D01*
X01775Y02267D02*
X01815D01*
X01988Y02318D02*
X02027D01*
X02007Y02299D02*
Y02338D01*
X01531Y0333D02*
Y0337D01*
X01511Y0335D02*
X01551D01*
X00771Y02763D02*
Y02803D01*
X00752Y02783D02*
X00791D01*
X01352Y02944D02*
X01391D01*
X01372Y02925D02*
Y02964D01*
X01878Y01315D02*
X01917D01*
X01897Y01295D02*
Y01334D01*
X00771Y02574D02*
X00811D01*
X00791Y02555D02*
Y02594D01*
X03055Y01881D02*
Y01921D01*
X03035Y01901D02*
X03074D01*
X02881Y01448D02*
Y01488D01*
X02862Y01468D02*
X02901D01*
G54D122*
X01478Y01885D02*
D01*
X01478Y019*
X01476Y01915*
X01474Y0193*
X0147Y01945*
X01465Y01959*
X0146Y01973*
X01453Y01986*
X01446Y01999*
X01437Y02012*
X01428Y02023*
X01418Y02035*
X01407Y02045*
X01396Y02055*
X01383Y02064*
X01371Y02071*
X01357Y02079*
X01344Y02085*
X0133Y0209*
X01315Y02094*
X01301Y02097*
X01286Y02099*
X01271Y021*
X01256*
X01241Y02099*
X01226Y02097*
X01211Y02094*
X01197Y0209*
X01183Y02085*
X01169Y02079*
X01156Y02071*
X01143Y02064*
X01131Y02055*
X01119Y02045*
X01109Y02035*
X01099Y02023*
X01089Y02012*
X01081Y01999*
X01073Y01986*
X01067Y01973*
X01061Y01959*
X01057Y01945*
X01053Y0193*
X0105Y01915*
X01049Y019*
X01048Y01885*
X01049Y0187*
X0105Y01855*
X01053Y01841*
X01057Y01826*
X01061Y01812*
X01067Y01798*
X01073Y01784*
X01081Y01771*
X01089Y01759*
X01099Y01747*
X01109Y01736*
X01119Y01726*
X01131Y01716*
X01143Y01707*
X01156Y01699*
X01169Y01692*
X01183Y01686*
X01197Y01681*
X01211Y01677*
X01226Y01674*
X01241Y01671*
X01256Y0167*
X01271*
X01286Y01671*
X01301Y01674*
X01315Y01677*
X0133Y01681*
X01344Y01686*
X01357Y01692*
X01371Y01699*
X01383Y01707*
X01396Y01716*
X01407Y01726*
X01418Y01736*
X01428Y01747*
X01437Y01759*
X01446Y01771*
X01453Y01784*
X0146Y01798*
X01465Y01812*
X0147Y01826*
X01474Y01841*
X01476Y01855*
X01478Y0187*
X01478Y01885*
X01049Y01889D02*
D01*
X01049Y01904*
X01047Y01919*
X01044Y01934*
X01041Y01949*
X01036Y01963*
X01031Y01977*
X01024Y0199*
X01016Y02003*
X01008Y02016*
X00999Y02027*
X00989Y02039*
X00978Y02049*
X00966Y02059*
X00954Y02068*
X00942Y02075*
X00928Y02083*
X00915Y02089*
X00901Y02094*
X00886Y02098*
X00871Y02101*
X00857Y02103*
X00842Y02104*
X00827*
X00812Y02103*
X00797Y02101*
X00782Y02098*
X00768Y02094*
X00754Y02089*
X0074Y02083*
X00727Y02075*
X00714Y02068*
X00702Y02059*
X0069Y02049*
X00679Y02039*
X00669Y02027*
X0066Y02016*
X00652Y02003*
X00644Y0199*
X00638Y01977*
X00632Y01963*
X00627Y01949*
X00624Y01934*
X00621Y01919*
X0062Y01904*
X00619Y01889*
X0062Y01874*
X00621Y01859*
X00624Y01845*
X00627Y0183*
X00632Y01816*
X00638Y01802*
X00644Y01788*
X00652Y01775*
X0066Y01763*
X00669Y01751*
X00679Y0174*
X0069Y0173*
X00702Y0172*
X00714Y01711*
X00727Y01703*
X0074Y01696*
X00754Y0169*
X00768Y01685*
X00782Y01681*
X00797Y01678*
X00812Y01675*
X00827Y01674*
X00842*
X00857Y01675*
X00871Y01678*
X00886Y01681*
X00901Y01685*
X00915Y0169*
X00928Y01696*
X00942Y01703*
X00954Y01711*
X00966Y0172*
X00978Y0173*
X00989Y0174*
X00999Y01751*
X01008Y01763*
X01016Y01775*
X01024Y01788*
X01031Y01802*
X01036Y01816*
X01041Y0183*
X01044Y01845*
X01047Y01859*
X01049Y01874*
X01049Y01889*
X00283Y01397D02*
X00966D01*
Y01633*
X00283D02*
X00966D01*
X00283Y01397D02*
Y01633D01*
X00448Y03141D02*
X01D01*
Y02629D02*
Y03141D01*
X00448Y02629D02*
X01D01*
X00448D02*
Y03141D01*
X01322Y01311D02*
X0137D01*
Y01437*
X01236D02*
X0137D01*
X01236Y01315D02*
Y01437D01*
Y01311D02*
Y01315D01*
Y01311D02*
X01322D01*
X03059D02*
X03106D01*
Y01437*
X02972D02*
X03106D01*
X02972Y01315D02*
Y01437D01*
Y01311D02*
Y01315D01*
Y01311D02*
X03059D01*
X02429D02*
X02476D01*
Y01437*
X02342D02*
X02476D01*
X02342Y01315D02*
Y01437D01*
Y01311D02*
Y01315D01*
Y01311D02*
X02429D01*
X01799D02*
X01846D01*
Y01437*
X01712D02*
X01846D01*
X01712Y01315D02*
Y01437D01*
Y01311D02*
Y01315D01*
Y01311D02*
X01799D01*
X01161D02*
X01208D01*
Y01437*
X01074D02*
X01208D01*
X01074Y01315D02*
Y01437D01*
Y01311D02*
Y01315D01*
Y01311D02*
X01161D01*
X02901D02*
X02948D01*
Y01437*
X02815D02*
X02948D01*
X02815Y01315D02*
Y01437D01*
Y01311D02*
Y01315D01*
Y01311D02*
X02901D01*
X02271D02*
X02318D01*
Y01437*
X02185D02*
X02318D01*
X02185Y01315D02*
Y01437D01*
Y01311D02*
Y01315D01*
Y01311D02*
X02271D01*
X01641D02*
X01689D01*
Y01437*
X01555D02*
X01689D01*
X01555Y01315D02*
Y01437D01*
Y01311D02*
Y01315D01*
Y01311D02*
X01641D01*
X01D02*
X01047D01*
Y01437*
X00913D02*
X01047D01*
X00913Y01315D02*
Y01437D01*
Y01311D02*
Y01315D01*
Y01311D02*
X01D01*
X02744D02*
X02791D01*
Y01437*
X02657D02*
X02791D01*
X02657Y01315D02*
Y01437D01*
Y01311D02*
Y01315D01*
Y01311D02*
X02744D01*
X02112D02*
X02159D01*
Y01437*
X02025D02*
X02159D01*
X02025Y01315D02*
Y01437D01*
Y01311D02*
Y01315D01*
Y01311D02*
X02112D01*
X01484D02*
X01531D01*
Y01437*
X01397D02*
X01531D01*
X01397Y01315D02*
Y01437D01*
Y01311D02*
Y01315D01*
Y01311D02*
X01484D01*
X02586D02*
X02633D01*
Y01437*
X025D02*
X02633D01*
X025Y01315D02*
Y01437D01*
Y01311D02*
Y01315D01*
Y01311D02*
X02586D01*
X01956D02*
X02003D01*
Y01437*
X0187D02*
X02003D01*
X0187Y01315D02*
Y01437D01*
Y01311D02*
Y01315D01*
Y01311D02*
X01956D01*
X0298Y01502D02*
X03098D01*
Y01435D02*
Y01502D01*
X0298Y01435D02*
X03098D01*
X0298D02*
Y01502D01*
X0235D02*
X02468D01*
Y01435D02*
Y01502D01*
X0235Y01435D02*
X02468D01*
X0235D02*
Y01502D01*
X0172D02*
X01838D01*
Y01435D02*
Y01502D01*
X0172Y01435D02*
X01838D01*
X0172D02*
Y01502D01*
X01082D02*
X012D01*
Y01435D02*
Y01502D01*
X01082Y01435D02*
X012D01*
X01082D02*
Y01502D01*
X02192D02*
X02311D01*
Y01435D02*
Y01502D01*
X02192Y01435D02*
X02311D01*
X02192D02*
Y01502D01*
X01563D02*
X01681D01*
Y01435D02*
Y01502D01*
X01563Y01435D02*
X01681D01*
X01563D02*
Y01502D01*
X00962D02*
X0108D01*
Y01435D02*
Y01502D01*
X00962Y01435D02*
X0108D01*
X00962D02*
Y01502D01*
X02663D02*
X02781D01*
Y01435D02*
Y01502D01*
X02663Y01435D02*
X02781D01*
X02663D02*
Y01502D01*
X02031D02*
X02149D01*
Y01435D02*
Y01502D01*
X02031Y01435D02*
X02149D01*
X02031D02*
Y01502D01*
X01405D02*
X01523D01*
Y01435D02*
Y01502D01*
X01405Y01435D02*
X01523D01*
X01405D02*
Y01502D01*
X02507D02*
X02626D01*
Y01435D02*
Y01502D01*
X02507Y01435D02*
X02626D01*
X02507D02*
Y01502D01*
X01878D02*
X01996D01*
Y01435D02*
Y01502D01*
X01878Y01435D02*
X01996D01*
X01878D02*
Y01502D01*
X01244D02*
X01362D01*
Y01435D02*
Y01502D01*
X01244Y01435D02*
X01362D01*
X01244D02*
Y01502D01*
X00501Y00122D02*
X00601D01*
Y00528*
X00501D02*
X00601D01*
X00501D02*
D01*
Y00122D02*
Y00528D01*
X02616Y02602D02*
X02683D01*
X02616Y02484D02*
Y02602D01*
Y02484D02*
X02683D01*
Y02602*
X02712Y02679D02*
X0283D01*
Y02612D02*
Y02679D01*
X02712Y02612D02*
X0283D01*
X02712D02*
Y02679D01*
X01948Y03029D02*
X02066D01*
X01948D02*
Y03096D01*
X02066*
Y03029D02*
Y03096D01*
X01549Y02446D02*
Y02565D01*
X01482Y02446D02*
X01549D01*
X01482D02*
Y02565D01*
X01549*
X01923Y02327D02*
X02041D01*
Y0226D02*
Y02327D01*
X01923Y0226D02*
X02041D01*
X01923D02*
Y02327D01*
X01637Y03005D02*
X01755D01*
X01637D02*
Y03072D01*
X01755*
Y03005D02*
Y03072D01*
X0223Y02716D02*
Y02834D01*
X02297*
Y02716D02*
Y02834D01*
X0223Y02716D02*
X02297D01*
X02137Y02874D02*
X02224D01*
X02137Y02692D02*
Y02874D01*
Y02692D02*
X02224D01*
Y02874*
X00923Y03299D02*
Y03417D01*
X0099*
Y03299D02*
Y03417D01*
X00923Y03299D02*
X0099D01*
X02694Y02444D02*
Y02602D01*
X02832Y02444D02*
Y02602D01*
X02694Y02444D02*
X02832D01*
X02694Y02602D02*
X02832D01*
X00608Y03415D02*
X00903D01*
X00608Y03198D02*
Y03415D01*
Y03198D02*
X00903D01*
Y03415*
X02301Y02834D02*
X02368D01*
X02301Y02716D02*
Y02834D01*
Y02716D02*
X02368D01*
Y02834*
X00448Y02629D02*
X01D01*
Y02118D02*
Y02629D01*
X00448Y02118D02*
X01D01*
X00448D02*
Y02629D01*
X02614Y03529D02*
X02755D01*
X02614D02*
Y03599D01*
X02755*
Y03529D02*
Y03599D01*
X02374Y02535D02*
Y02677D01*
X02279Y02535D02*
X02374D01*
X02279D02*
Y02677D01*
X02374*
X02615Y0344D02*
X02734D01*
X02615D02*
Y03507D01*
X02734*
Y0344D02*
Y03507D01*
X02856Y02752D02*
Y0287D01*
X02923*
Y02752D02*
Y0287D01*
X02856Y02752D02*
X02923D01*
X0243Y03109D02*
Y03227D01*
X02363Y03109D02*
X0243D01*
X02363D02*
Y03227D01*
X0243*
X0236Y03109D02*
Y03227D01*
X02293Y03109D02*
X0236D01*
X02293D02*
Y03227D01*
X0236*
X0229Y03109D02*
Y03227D01*
X02223Y03109D02*
X0229D01*
X02223D02*
Y03227D01*
X0229*
X02139Y0311D02*
Y03228D01*
X02206*
Y0311D02*
Y03228D01*
X02139Y0311D02*
X02206D01*
X02832Y02309D02*
Y02427D01*
X02765Y02309D02*
X02832D01*
X02765D02*
Y02427D01*
X02832*
X02761Y02309D02*
Y02427D01*
X02694Y02309D02*
X02761D01*
X02694D02*
Y02427D01*
X02761*
X01915Y02259D02*
Y02378D01*
X01848Y02259D02*
X01915D01*
X01848D02*
Y02378D01*
X01915*
X02152Y02608D02*
X0227D01*
Y02541D02*
Y02608D01*
X02152Y02541D02*
X0227D01*
X02152D02*
Y02608D01*
Y02673D02*
X0227D01*
Y02606D02*
Y02673D01*
X02152Y02606D02*
X0227D01*
X02152D02*
Y02673D01*
X0099Y03181D02*
Y03299D01*
X00923Y03181D02*
X0099D01*
X00923D02*
Y03299D01*
X0099*
X00777Y03131D02*
X00895D01*
X00777D02*
Y03198D01*
X00895*
Y03131D02*
Y03198D01*
X01303Y01502D02*
X01421D01*
X01303D02*
Y01568D01*
X01421*
Y01502D02*
Y01568D01*
X01937Y01502D02*
X02055D01*
X01937D02*
Y01568D01*
X02055*
Y01502D02*
Y01568D01*
X02566Y01502D02*
X02685D01*
X02566D02*
Y01568D01*
X02685*
Y01502D02*
Y01568D01*
X012Y01246D02*
X01318D01*
X012D02*
Y01313D01*
X01318*
Y01246D02*
Y01313D01*
X01834Y01246D02*
X01952D01*
X01834D02*
Y01313D01*
X01952*
Y01246D02*
Y01313D01*
X02464Y01246D02*
X02582D01*
X02464D02*
Y01313D01*
X02582*
Y01246D02*
Y01313D01*
X02891Y01196D02*
X03285D01*
Y00334D02*
Y01196D01*
X02891Y00334D02*
X03285D01*
X02891D02*
Y01196D01*
X00098Y01196D02*
X00492D01*
Y00334D02*
Y01196D01*
X00098Y00334D02*
X00492D01*
X00098D02*
Y01196D01*
X01464Y01502D02*
X01582D01*
X01464D02*
Y01568D01*
X01582*
Y01502D02*
Y01568D01*
X0209Y01502D02*
X02208D01*
X0209D02*
Y01568D01*
X02208*
Y01502D02*
Y01568D01*
X02722Y01502D02*
X0284D01*
X02722D02*
Y01568D01*
X0284*
Y01502D02*
Y01568D01*
X0136Y01246D02*
X01478D01*
X0136D02*
Y01313D01*
X01478*
Y01246D02*
Y01313D01*
X0199Y01246D02*
X02108D01*
X0199D02*
Y01313D01*
X02108*
Y01246D02*
Y01313D01*
X02622Y01246D02*
X0274D01*
X02622D02*
Y01313D01*
X0274*
Y01246D02*
Y01313D01*
X01019Y01502D02*
X01137D01*
X01019D02*
Y01568D01*
X01137*
Y01502D02*
Y01568D01*
X01622Y01502D02*
X0174D01*
X01622D02*
Y01568D01*
X0174*
Y01502D02*
Y01568D01*
X02216Y01502D02*
X02334D01*
X02216D02*
Y01568D01*
X02334*
Y01502D02*
Y01568D01*
X02862Y01502D02*
X0298D01*
X02862D02*
Y01568D01*
X0298*
Y01502D02*
Y01568D01*
X00883Y01246D02*
X01002D01*
X00883D02*
Y01313D01*
X01002*
Y01246D02*
Y01313D01*
X01519Y01246D02*
X01637D01*
X01519D02*
Y01313D01*
X01637*
Y01246D02*
Y01313D01*
X02149Y01246D02*
X02267D01*
X02149D02*
Y01313D01*
X02267*
Y01246D02*
Y01313D01*
X02779Y01246D02*
X02897D01*
X02779D02*
Y01313D01*
X02897*
Y01246D02*
Y01313D01*
X01141Y01502D02*
X01259D01*
X01141D02*
Y01568D01*
X01259*
Y01502D02*
Y01568D01*
X01779Y01502D02*
X01897D01*
X01779D02*
Y01568D01*
X01897*
Y01502D02*
Y01568D01*
X02409Y01502D02*
X02527D01*
X02409D02*
Y01568D01*
X02527*
Y01502D02*
Y01568D01*
X0298D02*
X03098D01*
Y01502D02*
Y01568D01*
X0298Y01502D02*
X03098D01*
X0298D02*
Y01568D01*
X01043Y01246D02*
X01161D01*
X01043D02*
Y01313D01*
X01161*
Y01246D02*
Y01313D01*
X01677Y01246D02*
X01795D01*
X01677D02*
Y01313D01*
X01795*
Y01246D02*
Y01313D01*
X02307Y01246D02*
X02425D01*
X02307D02*
Y01313D01*
X02425*
Y01246D02*
Y01313D01*
X02937Y01246D02*
X03055D01*
X02937D02*
Y01313D01*
X03055*
Y01246D02*
Y01313D01*
X00405Y03022D02*
Y03376D01*
X-00094Y03022D02*
X00405D01*
X-00094D02*
Y03376D01*
X00405*
Y02517D02*
Y02871D01*
X-00094Y02517D02*
X00405D01*
X-00094D02*
Y02871D01*
X00405*
X02984Y03022D02*
Y03376D01*
X03484*
Y03022D02*
Y03376D01*
X02984Y03022D02*
X03484D01*
X02984Y02517D02*
Y02871D01*
X03484*
Y02517D02*
Y02871D01*
X02984Y02517D02*
X03484D01*
X0124Y01248D02*
X01378D01*
X0124Y0109D02*
X01378D01*
Y01248*
X0124Y0109D02*
Y01248D01*
X0187Y0109D02*
Y01248D01*
X02007Y0109D02*
Y01248D01*
X0187Y0109D02*
X02007D01*
X0187Y01248D02*
X02007D01*
X025D02*
X02637D01*
X025Y0109D02*
X02637D01*
Y01248*
X025Y0109D02*
Y01248D01*
X01397D02*
X01535D01*
X01397Y0109D02*
X01535D01*
Y01248*
X01397Y0109D02*
Y01248D01*
X02027Y0109D02*
Y01248D01*
X02165Y0109D02*
Y01248D01*
X02027Y0109D02*
X02165D01*
X02027Y01248D02*
X02165D01*
X02657D02*
X02795D01*
X02657Y0109D02*
X02795D01*
Y01248*
X02657Y0109D02*
Y01248D01*
X00925Y0109D02*
Y01248D01*
X01063Y0109D02*
Y01248D01*
X00925Y0109D02*
X01063D01*
X00925Y01248D02*
X01063D01*
X01555D02*
X01692D01*
X01555Y0109D02*
X01692D01*
Y01248*
X01555Y0109D02*
Y01248D01*
X02185Y0109D02*
Y01248D01*
X02322Y0109D02*
Y01248D01*
X02185Y0109D02*
X02322D01*
X02185Y01248D02*
X02322D01*
X02815D02*
X02952D01*
X02815Y0109D02*
X02952D01*
Y01248*
X02815Y0109D02*
Y01248D01*
X01082Y0109D02*
Y01248D01*
X0122Y0109D02*
Y01248D01*
X01082Y0109D02*
X0122D01*
X01082Y01248D02*
X0122D01*
X01712D02*
X0185D01*
X01712Y0109D02*
X0185D01*
Y01248*
X01712Y0109D02*
Y01248D01*
X02342Y0109D02*
Y01248D01*
X0248Y0109D02*
Y01248D01*
X02342Y0109D02*
X0248D01*
X02342Y01248D02*
X0248D01*
X02972D02*
X0311D01*
X02972Y0109D02*
X0311D01*
Y01248*
X02972Y0109D02*
Y01248D01*
X02097Y02404D02*
Y02923D01*
X01577Y02404D02*
X02097D01*
X01577D02*
Y02923D01*
X02097*
X02559Y03262D02*
Y03656D01*
X0211D02*
X02559D01*
X0211Y03262D02*
Y03656D01*
Y03262D02*
X02559D01*
X03043Y02895D02*
Y02995D01*
X02837D02*
X03043D01*
X02837Y02895D02*
Y02995D01*
Y02895D02*
D01*
X03043D01*
X00003Y02106D02*
X00614D01*
Y01665D02*
Y02106D01*
X00003Y01665D02*
X00614D01*
X00003D02*
Y02106D01*
X00836Y00512D02*
X01655D01*
Y00094D02*
Y00512D01*
X00836Y00094D02*
X01655D01*
X00836D02*
Y00512D01*
X0175D02*
X02569D01*
Y00094D02*
Y00512D01*
X0175Y00094D02*
X02569D01*
X0175D02*
Y00512D01*
X0087Y00992D02*
Y0137D01*
X00051D02*
X0087D01*
X00051Y00992D02*
Y0137D01*
Y00992D02*
X0087D01*
X0009Y0079D02*
Y00893D01*
Y0079D02*
X03291D01*
Y00893*
X0009D02*
X03291D01*
X0039Y00555D02*
Y00658D01*
Y00555D02*
X02993D01*
Y00658*
X0039D02*
X02993D01*
X01876Y0308D02*
X01942D01*
Y03198*
X01876D02*
X01942D01*
X01876Y0308D02*
Y03198D01*
X01641Y01649D02*
Y02169D01*
Y01649D02*
X02787D01*
Y02169*
X02775D02*
X02787D01*
X01641D02*
X02775D01*
X00643Y02293D02*
X00939D01*
X00643D02*
Y02509D01*
X00939*
Y02293D02*
Y02509D01*
X012Y01381D02*
X01248D01*
X012D02*
Y01507D01*
X01334*
Y01385D02*
Y01507D01*
Y01381D02*
Y01385D01*
X01248Y01381D02*
X01334D01*
X00913Y01315D02*
X0096D01*
X00913D02*
Y0144D01*
X01047*
Y01318D02*
Y0144D01*
Y01315D02*
Y01318D01*
X0096Y01315D02*
X01047D01*
X01208Y01576D02*
X01326D01*
X01208Y01509D02*
Y01576D01*
Y01509D02*
X01326D01*
Y01576*
X00964Y01502D02*
X01082D01*
X00964Y01435D02*
Y01502D01*
Y01435D02*
X01082D01*
Y01502*
X02626Y00131D02*
Y00269D01*
X02783Y00131D02*
Y00269D01*
X02626Y00131D02*
X02783D01*
X02626Y00269D02*
X02783D01*
X02476Y01903D02*
Y0197D01*
X02594*
Y01903D02*
Y0197D01*
X02476Y01903D02*
X02594D01*
X02383Y01874D02*
X0245D01*
Y01755D02*
Y01874D01*
X02383Y01755D02*
X0245D01*
X02383D02*
Y01874D01*
X02594Y0199D02*
Y02057D01*
X02476Y0199D02*
X02594D01*
X02476D02*
Y02057D01*
X02594*
Y01816D02*
Y01883D01*
X02476Y01816D02*
X02594D01*
X02476D02*
Y01883D01*
X02594*
X02299Y01919D02*
X02456D01*
X02299Y02057D02*
X02456D01*
X02299Y01919D02*
Y02057D01*
X02456Y01919D02*
Y02057D01*
X00153Y01616D02*
Y01663D01*
X00279*
Y01529D02*
Y01663D01*
X00157Y01529D02*
X00279D01*
X00153D02*
X00157D01*
X00153D02*
Y01616D01*
X00269Y01358D02*
Y01515D01*
X00131Y01358D02*
Y01515D01*
Y01358D02*
X00269D01*
X00131Y01515D02*
X00269D01*
X00657Y00135D02*
Y00273D01*
X00815Y00135D02*
Y00273D01*
X00657Y00135D02*
X00815D01*
X00657Y00273D02*
X00815D01*
X01909Y02104D02*
X02027D01*
X01909Y02037D02*
Y02104D01*
Y02037D02*
X02027D01*
Y02104*
X01923Y01813D02*
Y02029D01*
Y01813D02*
X02218D01*
Y02029*
X01923D02*
X02218D01*
X02185Y01734D02*
X02303D01*
Y01801*
X02185D02*
X02303D01*
X02185Y01734D02*
Y01801D01*
X00614Y02265D02*
X00732D01*
X00614Y02198D02*
Y02265D01*
Y02198D02*
X00732D01*
Y02265*
X01108Y02437D02*
Y02555D01*
X01041D02*
X01108D01*
X01041Y02437D02*
Y02555D01*
Y02437D02*
X01108D01*
X026Y01846D02*
Y01964D01*
Y01846D02*
X02667D01*
Y01964*
X026D02*
X02667D01*
X0045Y01374D02*
Y01492D01*
Y01374D02*
X00517D01*
Y01492*
X0045D02*
X00517D01*
X02563Y03092D02*
X02681D01*
Y03159*
X02563D02*
X02681D01*
X02563Y03092D02*
Y03159D01*
X00533Y03023D02*
Y03141D01*
X00466D02*
X00533D01*
X00466Y03023D02*
Y03141D01*
Y03023D02*
X00533D01*
X00541Y03023D02*
Y03141D01*
Y03023D02*
X00608D01*
Y03141*
X00541D02*
X00608D01*
X02892Y03258D02*
Y03376D01*
Y03258D02*
X02958D01*
Y03376*
X02892D02*
X02958D01*
X02856Y02751D02*
Y02869D01*
Y02751D02*
X02923D01*
Y02869*
X02856D02*
X02923D01*
X02746Y01279D02*
Y01397D01*
X02679D02*
X02746D01*
X02679Y01279D02*
Y01397D01*
Y01279D02*
X02746D01*
X00541Y02645D02*
Y02763D01*
Y02645D02*
X00608D01*
Y02763*
X00541D02*
X00608D01*
X00752Y02982D02*
X0087D01*
Y03049*
X00752D02*
X0087D01*
X00752Y02982D02*
Y03049D01*
X0094Y03142D02*
X01059D01*
X0094Y03075D02*
Y03142D01*
Y03075D02*
X01059D01*
Y03142*
X00885Y02889D02*
Y02976D01*
X00704Y02889D02*
X00885D01*
X00704D02*
Y02976D01*
X00885*
X03041Y01177D02*
Y01295D01*
X02974D02*
X03041D01*
X02974Y01177D02*
Y01295D01*
Y01177D02*
X03041D01*
X02974D02*
Y01295D01*
X02907D02*
X02974D01*
X02907Y01177D02*
Y01295D01*
Y01177D02*
X02974D01*
X00728Y02074D02*
Y02192D01*
X00444Y02074D02*
X00728D01*
X00444D02*
Y02192D01*
X00728*
X02889Y02189D02*
Y02307D01*
X02606Y02189D02*
X02889D01*
X02606D02*
Y02307D01*
X02889*
X0094Y00165D02*
X01059D01*
X0094D02*
Y00448D01*
X01059*
Y00165D02*
Y00448D01*
X01854Y00165D02*
X01972D01*
X01854D02*
Y00448D01*
X01972*
Y00165D02*
Y00448D01*
X02842Y01452D02*
X02913D01*
X02842Y01318D02*
Y01452D01*
Y01318D02*
X02913D01*
Y01452*
X0208Y01454D02*
X02376D01*
Y01238D02*
Y01454D01*
X0208Y01238D02*
X02376D01*
X0208D02*
Y01454D01*
X02942Y01405D02*
Y01563D01*
X0308Y01405D02*
Y01563D01*
X02942D02*
X0308D01*
X02942Y01405D02*
X0308D01*
X02441Y02805D02*
Y03076D01*
X02802Y02805D02*
Y03076D01*
X02441Y02805D02*
X02802D01*
X02441Y03076D02*
X02802D01*
X00826Y0344D02*
X01173D01*
X00826Y03148D02*
X01173D01*
Y0344*
X00826Y03148D02*
Y0344D01*
X03057Y01387D02*
X03352D01*
Y01171D02*
Y01387D01*
X03057Y01171D02*
X03352D01*
X03057D02*
Y01387D01*
X00383Y01492D02*
Y0161D01*
Y01492D02*
X0045D01*
Y0161*
X00383D02*
X0045D01*
X00383Y01374D02*
Y01492D01*
Y01374D02*
X0045D01*
Y01492*
X00383D02*
X0045D01*
X00584D02*
Y0161D01*
X00517D02*
X00584D01*
X00517Y01492D02*
Y0161D01*
Y01492D02*
X00584D01*
X02376Y01649D02*
Y01767D01*
X02309D02*
X02376D01*
X02309Y01649D02*
Y01767D01*
Y01649D02*
X02376D01*
X00517Y01492D02*
Y0161D01*
X0045D02*
X00517D01*
X0045Y01492D02*
Y0161D01*
Y01492D02*
X00517D01*
X02041Y01677D02*
Y01795D01*
Y01677D02*
X02108D01*
Y01795*
X02041D02*
X02108D01*
X00964Y01565D02*
X01082D01*
X00964Y01498D02*
Y01565D01*
Y01498D02*
X01082D01*
Y01565*
X00897Y0123D02*
X01015D01*
Y01297*
X00897D02*
X01015D01*
X00897Y0123D02*
Y01297D01*
X00541Y03149D02*
Y03267D01*
Y03149D02*
X00608D01*
Y03267*
X00541D02*
X00608D01*
X00533Y02897D02*
Y03015D01*
X00466D02*
X00533D01*
X00466Y02897D02*
Y03015D01*
Y02897D02*
X00533D01*
X02888Y03133D02*
Y03251D01*
X02822D02*
X02888D01*
X02822Y03133D02*
Y03251D01*
Y03133D02*
X02888D01*
X02852Y02692D02*
Y02811D01*
X02785D02*
X02852D01*
X02785Y02692D02*
Y02811D01*
Y02692D02*
X02852D01*
X01128Y01456D02*
Y01574D01*
Y01456D02*
X01194D01*
Y01574*
X01128D02*
X01194D01*
X00466Y03149D02*
Y03267D01*
Y03149D02*
X00533D01*
Y03267*
X00466D02*
X00533D01*
X00608Y02898D02*
Y03016D01*
X00541D02*
X00608D01*
X00541Y02898D02*
Y03016D01*
Y02898D02*
X00608D01*
X02958Y03133D02*
Y03251D01*
X02892D02*
X02958D01*
X02892Y03133D02*
Y03251D01*
Y03133D02*
X02958D01*
X02923Y02626D02*
Y02744D01*
X02856D02*
X02923D01*
X02856Y02626D02*
Y02744D01*
Y02626D02*
X02923D01*
X01185Y01234D02*
X01303D01*
Y01301*
X01185D02*
X01303D01*
X01185Y01234D02*
Y01301D01*
X02551Y01435D02*
X02669D01*
X02551Y01368D02*
Y01435D01*
Y01368D02*
X02669D01*
Y01435*
X02551Y01313D02*
X02669D01*
X02551Y01246D02*
Y01313D01*
Y01246D02*
X02669D01*
Y01313*
X02433Y01435D02*
X02551D01*
X02433Y01368D02*
Y01435D01*
Y01368D02*
X02551D01*
Y01435*
X02433Y01313D02*
X02551D01*
X02433Y01246D02*
Y01313D01*
Y01246D02*
X02551D01*
Y01313*
X00713Y03195D02*
Y03313D01*
X00646D02*
X00713D01*
X00646Y03195D02*
Y03313D01*
Y03195D02*
X00713D01*
X00783D02*
Y03313D01*
X00716D02*
X00783D01*
X00716Y03195D02*
Y03313D01*
Y03195D02*
X00783D01*
X01933Y01246D02*
X02051D01*
Y01313*
X01933D02*
X02051D01*
X01933Y01246D02*
Y01313D01*
Y01379D02*
X02051D01*
X01933Y01313D02*
Y01379D01*
Y01313D02*
X02051D01*
Y01379*
X01269Y03181D02*
Y03299D01*
Y03181D02*
X01336D01*
Y03299*
X01269D02*
X01336D01*
X01194Y03181D02*
Y03299D01*
Y03181D02*
X01261D01*
Y03299*
X01194D02*
X01261D01*
X01905Y03423D02*
X02023D01*
Y0349*
X01905D02*
X02023D01*
X01905Y03423D02*
Y0349D01*
X00657Y0047D02*
X00775D01*
X00657Y00403D02*
Y0047D01*
Y00403D02*
X00775D01*
Y0047*
X02645Y00474D02*
X02763D01*
X02645Y00407D02*
Y00474D01*
Y00407D02*
X02763D01*
Y00474*
X00657Y00309D02*
X00775D01*
Y00376*
X00657D02*
X00775D01*
X00657Y00309D02*
Y00376D01*
X02645Y00307D02*
X02763D01*
Y00374*
X02645D02*
X02763D01*
X02645Y00307D02*
Y00374D01*
X02937Y01364D02*
X03055D01*
X02937Y01297D02*
Y01364D01*
Y01297D02*
X03055D01*
Y01364*
X00488Y03439D02*
X00606D01*
X00488Y03372D02*
Y03439D01*
Y03372D02*
X00606D01*
Y03439*
X00614D02*
X00732D01*
X00614Y03372D02*
Y03439D01*
Y03372D02*
X00732D01*
Y03439*
X02907Y01177D02*
Y01295D01*
X0284D02*
X02907D01*
X0284Y01177D02*
Y01295D01*
Y01177D02*
X02907D01*
X02604Y0234D02*
X02899D01*
X02604D02*
Y02557D01*
X02899*
Y0234D02*
Y02557D01*
X00905Y0123D02*
X01063D01*
X00905Y01092D02*
X01063D01*
Y0123*
X00905Y01092D02*
Y0123D01*
X01149Y01228D02*
X01307D01*
X01149Y0109D02*
X01307D01*
Y01228*
X01149Y0109D02*
Y01228D01*
X01761Y02326D02*
X01828D01*
Y02208D02*
Y02326D01*
X01761Y02208D02*
X01828D01*
X01761D02*
Y02326D01*
X02041Y02259D02*
Y02378D01*
X01974D02*
X02041D01*
X01974Y02259D02*
Y02378D01*
Y02259D02*
X02041D01*
X01275Y033D02*
X01883D01*
Y034*
X01275D02*
X01883D01*
X01275Y033D02*
Y034D01*
X0069Y02681D02*
X00895D01*
X0069Y02885D02*
X00895D01*
X0069Y02681D02*
Y02885D01*
X00895Y02681D02*
Y02885D01*
X01313Y02911D02*
Y02978D01*
X01431*
Y02911D02*
Y02978D01*
X01313Y02911D02*
X01431D01*
X01931Y01255D02*
Y01374D01*
X01864D02*
X01931D01*
X01864Y01255D02*
Y01374D01*
Y01255D02*
X01931D01*
X00933Y02515D02*
Y02633D01*
X00649Y02515D02*
X00933D01*
X00649D02*
Y02633D01*
X00933*
X03311Y01626D02*
Y02177D01*
X02799Y01626D02*
X03311D01*
X02799D02*
Y02177D01*
X03311*
X02822Y01502D02*
X0294D01*
Y01435D02*
Y01502D01*
X02822Y01435D02*
X0294D01*
X02822D02*
Y01502D01*
M02*