%FSTAX23Y23*%
%MOIN*%
%SFA1B1*%

%IPPOS*%
%ADD10C,0.039400*%
%ADD12R,0.031500X0.035400*%
%ADD13R,0.023600X0.035400*%
%ADD14R,0.035400X0.023600*%
%ADD16R,0.027600X0.047200*%
%ADD17R,0.023600X0.047200*%
%ADD18R,0.082700X0.023600*%
%ADD21R,0.019700X0.039400*%
%ADD39C,0.078700*%
%ADD40C,0.082700*%
%ADD41C,0.070900*%
%ADD42C,0.106300*%
%ADD43O,0.086600X0.098400*%
%ADD44O,0.110200X0.196800*%
%ADD45O,0.196800X0.110200*%
%ADD46O,0.078700X0.094500*%
%ADD47C,0.072800*%
%ADD48C,0.098400*%
%ADD54C,0.063000*%
%ADD55C,0.055100*%
%ADD56R,0.063000X0.043300*%
%ADD57R,0.039400X0.019700*%
%ADD58R,0.043300X0.063000*%
%ADD59R,0.047200X0.027600*%
%ADD60R,0.047200X0.023600*%
%ADD61R,0.035400X0.031500*%
%ADD62R,0.051200X0.070900*%
%ADD63R,0.078700X0.090600*%
%ADD64R,0.090600X0.078700*%
%ADD65R,0.017700X0.025600*%
%ADD66R,0.065000X0.015700*%
%ADD67R,0.063000X0.016900*%
%ADD68R,0.063000X0.015000*%
%ADD69R,0.078700X0.035400*%
%ADD70R,0.078700X0.037800*%
%LNrelaytester-1*%
%LPD*%
G54D10*
X00098Y03444D03*
X0307Y00078D03*
X00315D03*
G54D12*
X0123Y01484D03*
X01305D03*
X01267Y01405D03*
X00942Y01417D03*
X01017D03*
X0098Y01338D03*
G54D13*
X01297Y01543D03*
X01238D03*
X01053Y01468D03*
X00994D03*
X02565Y01937D03*
X02505D03*
Y02023D03*
X02565D03*
X02505Y0185D03*
X02565D03*
X01998Y0207D03*
X01939D03*
X02214Y01767D03*
X02273D03*
X00702Y02232D03*
X00643D03*
X02592Y03126D03*
X02651D03*
X00781Y03015D03*
X0084D03*
X01029Y03109D03*
X0097D03*
X01053Y01531D03*
X00994D03*
X00927Y01263D03*
X00986D03*
X01214Y01267D03*
X01273D03*
X02639Y01401D03*
X0258D03*
X02639Y01279D03*
X0258D03*
X02521Y01401D03*
X02462D03*
X02521Y01279D03*
X02462D03*
X01962D03*
X02021D03*
Y01346D03*
X01962D03*
X01935Y03456D03*
X01994D03*
X00746Y00437D03*
X00687D03*
X02734Y00441D03*
X02675D03*
X00687Y00342D03*
X00746D03*
X02675Y00341D03*
X02734D03*
X03025Y0133D03*
X02966D03*
X00576Y03405D03*
X00517D03*
X00702D03*
X00643D03*
X01401Y02944D03*
X01342D03*
G54D14*
X02417Y01785D03*
Y01844D03*
X01074Y02466D03*
Y02525D03*
X02633Y01935D03*
Y01876D03*
X00484Y01462D03*
Y01403D03*
X005Y03053D03*
Y03112D03*
X00574Y03111D03*
Y03052D03*
X02925Y03346D03*
Y03287D03*
X0289Y0284D03*
Y0278D03*
X02712Y01309D03*
Y01368D03*
X00574Y02734D03*
Y02675D03*
X03007Y01206D03*
Y01265D03*
X0294Y01206D03*
Y01265D03*
X00417Y0158D03*
Y01521D03*
Y01462D03*
Y01403D03*
X00551Y01521D03*
Y0158D03*
X02342Y01679D03*
Y01738D03*
X00484Y01521D03*
Y0158D03*
X02074Y01765D03*
Y01706D03*
X00574Y03238D03*
Y03179D03*
X005Y02927D03*
Y02986D03*
X02855Y03162D03*
Y03221D03*
X02818Y02722D03*
Y02781D03*
X01161Y01545D03*
Y01486D03*
X005Y03238D03*
Y03179D03*
X00574Y02927D03*
Y02986D03*
X02925Y03162D03*
Y03221D03*
X0289Y02655D03*
Y02715D03*
X0068Y03224D03*
Y03283D03*
X0075Y03224D03*
Y03283D03*
X01303Y03269D03*
Y0321D03*
X01228Y03269D03*
Y0321D03*
X02874Y01206D03*
Y01265D03*
X01795Y02238D03*
Y02297D03*
X02007Y02289D03*
Y02348D03*
X01897Y01285D03*
Y01344D03*
G54D16*
X03049Y01531D03*
X02974D03*
G54D17*
X02974Y01437D03*
X03011D03*
X03049D03*
G54D18*
X00696Y02326D03*
Y02376D03*
Y02426D03*
Y02476D03*
X00885Y02326D03*
Y02376D03*
Y02426D03*
Y02476D03*
X01976Y01846D03*
Y01896D03*
Y01946D03*
Y01996D03*
X02165Y01846D03*
Y01896D03*
Y01946D03*
Y01996D03*
X02322Y01421D03*
Y01371D03*
Y01321D03*
Y01271D03*
X02133Y01421D03*
Y01371D03*
Y01321D03*
Y01271D03*
X03299Y01354D03*
Y01304D03*
Y01254D03*
Y01204D03*
X0311Y01354D03*
Y01304D03*
Y01254D03*
Y01204D03*
X02657Y02373D03*
Y02423D03*
Y02473D03*
Y02523D03*
X02846Y02373D03*
Y02423D03*
Y02473D03*
Y02523D03*
G54D21*
X002Y01385D03*
X00163D03*
X00238D03*
Y01488D03*
X002D03*
X00163D03*
G54D39*
X0033Y01515D03*
X00921D03*
X00433Y03547D03*
X00533D03*
X00633D03*
X00733D03*
X00833D03*
X00933D03*
X01033D03*
X01133D03*
X01233D03*
X01333D03*
X01433D03*
X01533D03*
X01633D03*
X01733D03*
X01833D03*
X01933D03*
X0024Y03288D03*
Y0311D03*
Y02783D03*
Y02605D03*
X0315Y0311D03*
Y03288D03*
Y02605D03*
Y02783D03*
G54D40*
X00551Y00476D03*
Y00376D03*
Y00276D03*
Y00176D03*
X00442Y00841D03*
X00342D03*
X00242D03*
X00142D03*
X00542D03*
X00642D03*
X00742D03*
X00842D03*
X00942D03*
X01042D03*
X01142D03*
X01242D03*
X01342D03*
X01442D03*
X01542D03*
X01642D03*
X01742D03*
X01842D03*
X01942D03*
X02042D03*
X02142D03*
X02242D03*
X02342D03*
X02442D03*
X02542D03*
X02642D03*
X02742D03*
X02842D03*
X02942D03*
X03042D03*
X03142D03*
X03242D03*
X00742Y00606D03*
X00642D03*
X00542D03*
X00442D03*
X00842D03*
X00942D03*
X01042D03*
X01142D03*
X01242D03*
X01342D03*
X01442D03*
X01542D03*
X01642D03*
X01742D03*
X01842D03*
X01942D03*
X02042D03*
X02142D03*
X02242D03*
X02342D03*
X02442D03*
X02542D03*
X02642D03*
X02742D03*
X02842D03*
X02942D03*
X01331Y0335D03*
X01431D03*
X01531D03*
X01631D03*
X01731D03*
X01831D03*
G54D41*
X01362Y01885D03*
X01165D03*
X00933Y01889D03*
X00736D03*
X01153Y02432D03*
Y02552D03*
X02888Y02944D03*
X02988D03*
G54D42*
X03189Y00401D03*
X02988D03*
X00395D03*
X00194D03*
G54D43*
X00338Y03337D03*
Y03061D03*
Y02832D03*
Y02556D03*
X03051Y03061D03*
Y03337D03*
Y02556D03*
Y02832D03*
G54D44*
X00307Y01925D03*
X00551D03*
G54D45*
X00437Y01728D03*
G54D46*
X00897Y00153D03*
X01197D03*
X01297D03*
X01397D03*
X01597D03*
Y00453D03*
X01397D03*
X01297D03*
X01197D03*
X00897D03*
X01811Y00153D03*
X02111D03*
X02211D03*
X02311D03*
X02511D03*
Y00453D03*
X02311D03*
X02211D03*
X02111D03*
X01811D03*
G54D47*
X0026Y01235D03*
Y01135D03*
X0066Y01235D03*
Y01135D03*
X0046D03*
Y01235D03*
X0056Y01135D03*
Y01235D03*
X0036D03*
Y01135D03*
G54D48*
X02736Y02031D03*
Y01795D03*
G54D54*
X00224Y02126D03*
X02173Y02358D03*
X02059Y02444D03*
X01807Y02708D03*
X0135Y02677D03*
X01098Y02956D03*
X0096D03*
X00704Y03078D03*
X00937Y01803D03*
X02161Y02051D03*
X00661Y01724D03*
X02574Y02641D03*
X02122Y02228D03*
G54D55*
X01626Y02543D03*
G54D56*
X01133Y01397D03*
Y01279D03*
X02992Y01795D03*
Y01913D03*
X02878Y01795D03*
Y01913D03*
G54D57*
X02653Y00163D03*
Y002D03*
Y00238D03*
X02755D03*
Y00163D03*
Y002D03*
X00685Y00167D03*
Y00204D03*
Y00242D03*
X00787D03*
Y00167D03*
Y00204D03*
X01035Y01161D03*
Y01124D03*
Y01198D03*
X00933D03*
Y01161D03*
Y01124D03*
X01279Y01159D03*
Y01122D03*
Y01196D03*
X01177D03*
Y01159D03*
Y01122D03*
G54D58*
X00893Y01629D03*
X00775D03*
X00893Y01732D03*
X00775D03*
G54D59*
X0233Y02025D03*
Y0195D03*
G54D60*
X02425Y0195D03*
Y01988D03*
Y02025D03*
G54D61*
X00255Y01633D03*
Y01559D03*
X00177Y01596D03*
G54D62*
X00736Y02933D03*
X00854D03*
G54D63*
X0049Y02133D03*
X00682D03*
X02652Y02248D03*
X02844D03*
X00695Y02574D03*
X00887D03*
G54D64*
X01Y00403D03*
Y00211D03*
X01913Y00403D03*
Y00211D03*
G54D65*
X02878Y01433D03*
Y01338D03*
G54D66*
X02483Y02864D03*
Y02889D03*
Y02915D03*
Y0294D03*
Y02966D03*
Y02992D03*
Y03017D03*
X0276Y02864D03*
Y02889D03*
Y02915D03*
Y0294D03*
Y02966D03*
Y02992D03*
Y03017D03*
G54D67*
X01133Y0341D03*
Y03178D03*
X00866Y0341D03*
Y03178D03*
G54D68*
X01133Y03384D03*
Y03358D03*
Y03332D03*
Y03307D03*
Y03281D03*
Y03256D03*
Y0323D03*
Y03204D03*
X00866Y03384D03*
Y03358D03*
Y03332D03*
Y03307D03*
Y03281D03*
Y03256D03*
Y0323D03*
Y03204D03*
G54D69*
X00846Y02724D03*
Y02842D03*
G54D70*
X00846Y02783D03*
M02*